<?xml version="1.0" encoding="UTF-8"?>
<svg width="100px" height="100px" viewBox="0 0 100 100" version="1.1" xmlns="http://www.w3.org/2000/svg" xmlns:xlink="http://www.w3.org/1999/xlink">
    <title>icon / furniture / air-conditioner</title>
    <g id="icon-/-furniture-/-air-conditioner" stroke="none" stroke-width="1" fill="none" fill-rule="evenodd">
        <path d="M85.693,51.378 L85.693,45.074 C85.693,44.139 84.925,43.377 83.98,43.377 L16.02,43.377 C15.075,43.377 14.307,44.139 14.307,45.074 L14.307,51.378 C14.307,52.315 15.075,53.077 16.02,53.077 C16.965,53.077 17.733,52.315 17.733,51.378 L17.733,46.772 L82.267,46.772 L82.267,51.378 C82.267,52.315 83.035,53.077 83.98,53.077 C84.925,53.077 85.693,52.315 85.693,51.378 Z M96.574,22.019 C96.574,20.022 94.935,18.396 92.921,18.396 L7.079,18.396 C5.065,18.396 3.426,20.022 3.426,22.019 L3.426,46.848 C3.426,52.757 8.273,56.773 14.232,56.773 L85.768,56.773 C91.727,56.773 96.574,52.757 96.574,46.848 L96.574,22.019 Z M100,46.848 C100,54.63 93.616,60.171 85.768,60.171 L14.232,60.171 C6.384,60.171 0,54.63 0,46.848 L0,22.019 C0,18.148 3.175,15 7.079,15 L92.921,15 C96.825,15 100,18.148 100,22.019 L100,46.848 Z M78.689,29.113 C78.689,31.028 80.26,32.585 82.191,32.585 C84.122,32.585 85.693,31.028 85.693,29.113 C85.693,27.198 84.122,25.64 82.191,25.64 C80.26,25.64 78.689,27.198 78.689,29.113 Z M56.316,84.714 C56.761,84.421 60.655,81.741 60.655,77.98 C60.655,75.87 59.435,74.461 58.454,73.328 C57.601,72.343 57.079,71.697 57.079,70.887 C57.079,69.238 59.163,67.47 59.892,66.979 C60.275,66.728 60.534,66.344 60.624,65.898 C60.712,65.454 60.622,65.001 60.368,64.624 C60.037,64.133 59.492,63.867 58.939,63.867 C58.612,63.867 58.282,63.959 57.991,64.153 C57.546,64.445 53.652,67.119 53.652,70.887 C53.652,72.996 54.871,74.405 55.851,75.537 C56.706,76.523 57.229,77.169 57.229,77.98 C57.229,79.635 55.142,81.4 54.411,81.889 C54.03,82.143 53.772,82.528 53.684,82.974 C53.596,83.416 53.687,83.867 53.939,84.244 C54.258,84.717 54.792,85 55.367,85 C55.707,85 56.036,84.901 56.316,84.714 Z M42.009,84.714 C42.454,84.421 46.348,81.741 46.348,77.98 C46.348,75.87 45.127,74.461 44.147,73.328 C43.293,72.342 42.771,71.697 42.771,70.887 C42.771,69.239 44.855,67.47 45.585,66.979 C45.968,66.728 46.227,66.344 46.316,65.898 C46.405,65.454 46.314,65.001 46.061,64.624 C45.73,64.133 45.185,63.867 44.631,63.867 C44.305,63.867 43.975,63.959 43.684,64.153 C43.239,64.445 39.345,67.119 39.345,70.887 C39.345,72.992 40.563,74.402 41.542,75.534 C42.398,76.522 42.921,77.168 42.921,77.98 C42.921,79.634 40.834,81.4 40.104,81.889 C39.723,82.143 39.465,82.529 39.376,82.974 C39.289,83.417 39.38,83.868 39.632,84.244 C39.951,84.717 40.485,85 41.06,85 C41.4,85 41.729,84.901 42.009,84.714 Z M27.702,84.714 C28.147,84.421 32.041,81.741 32.041,77.98 C32.041,75.872 30.82,74.462 29.84,73.328 C28.987,72.342 28.464,71.697 28.464,70.887 C28.464,69.239 30.548,67.47 31.278,66.979 C31.661,66.727 31.919,66.344 32.009,65.897 C32.098,65.454 32.007,65.001 31.753,64.624 C31.422,64.134 30.877,63.867 30.324,63.867 C29.997,63.867 29.667,63.96 29.376,64.153 C28.932,64.445 25.038,67.116 25.038,70.887 C25.038,72.997 26.257,74.406 27.237,75.537 C28.091,76.522 28.614,77.168 28.614,77.98 C28.614,79.634 26.527,81.4 25.796,81.889 C25.416,82.143 25.157,82.529 25.069,82.974 C24.981,83.417 25.072,83.868 25.325,84.244 C25.644,84.717 26.178,85 26.752,85 C27.092,85 27.421,84.901 27.702,84.714 Z M73.246,63.867 C73.799,63.867 74.344,64.133 74.675,64.624 C74.929,65.001 75.02,65.454 74.931,65.898 C74.841,66.344 74.582,66.728 74.2,66.979 C73.47,67.47 71.386,69.238 71.386,70.887 C71.386,71.697 71.909,72.343 72.762,73.328 C73.742,74.462 74.962,75.871 74.962,77.98 C74.962,81.741 71.068,84.421 70.624,84.714 C70.343,84.901 70.015,85 69.674,85 C69.1,85 68.566,84.717 68.247,84.244 C67.994,83.868 67.903,83.417 67.991,82.974 C68.08,82.529 68.337,82.143 68.718,81.889 C69.449,81.4 71.536,79.634 71.536,77.98 C71.536,77.169 71.013,76.523 70.154,75.532 C69.176,74.401 67.959,72.991 67.959,70.887 C67.959,67.119 71.854,64.445 72.298,64.153 C72.589,63.96 72.919,63.867 73.246,63.867 Z M49.9997285,22 C50.4683671,22 50.8484911,22.380256 50.8484911,22.849728 L50.8484911,23.81152 L52.0746626,22.9928 C52.4651042,22.732224 52.9918475,22.83776 53.2514179,23.228352 C53.5115313,23.619488 53.4061827,24.146624 53.016284,24.4072 L50.8484911,25.854784 L50.8484911,29.027936 L53.5913574,27.441088 L53.759155,24.83696 C53.7895649,24.368576 54.1973836,24.013344 54.6605919,24.043264 C55.1281444,24.073728 55.4827458,24.47792 55.4528789,24.946304 L55.3578479,26.419456 L56.1886904,25.93856 C56.5948801,25.704096 57.1140209,25.84336 57.3480687,26.249728 C57.5821164,26.65664 57.4436427,27.176704 57.037453,27.410624 L56.2060675,27.892064 L57.52727,28.546496 C57.9475785,28.754304 58.1197204,29.264576 57.9117383,29.685088 C57.7640329,29.984832 57.4631919,30.158368 57.1504042,30.158368 C57.0244202,30.158368 56.8962641,30.13008 56.7751675,30.07024 L54.44012,28.913696 L51.6967107,30.5 L54.44012,32.086304 L56.7751675,30.92976 C57.195476,30.721408 57.7042992,30.8944 57.9117383,31.314912 C58.1197204,31.735424 57.9475785,32.245696 57.52727,32.453504 L56.2060675,33.107936 L57.037453,33.588832 C57.4436427,33.823296 57.5821164,34.34336 57.3480687,34.750272 C57.1911318,35.022272 56.9054957,35.175136 56.6122572,35.175136 C56.4683531,35.175136 56.3228199,35.138144 56.1886904,35.060896 L55.3578479,34.58 L55.4528789,36.053696 C55.4827458,36.52208 55.1281444,36.926272 54.6605919,36.956192 L54.6046594,36.958368 L54.6046594,36.958368 C54.1615434,36.958368 53.7879358,36.612928 53.759155,36.16304 L53.5913574,33.558368 L50.8484911,31.972064 L50.8484911,35.145216 L53.016284,36.5928 C53.4061827,36.853376 53.5115313,37.380512 53.2514179,37.771104 C53.0879646,38.016992 52.8186195,38.149728 52.5449303,38.149728 C52.383106,38.149728 52.2196527,38.104032 52.0746626,38.0072 L50.8484911,37.18848 L50.8484911,38.149728 C50.8484911,38.6192 50.4683671,39 49.9997285,39 C49.5316329,39 49.1515089,38.6192 49.1515089,38.149728 L49.1515089,37.18848 L47.9253374,38.0072 C47.5354388,38.267232 47.0081525,38.16224 46.7485821,37.771104 C46.4884687,37.380512 46.5938173,36.853376 46.983716,36.5928 L49.1515089,35.145216 L49.1515089,31.972064 L46.4086426,33.558368 L46.240845,36.16304 C46.2120642,36.612928 45.8384566,36.958368 45.3953406,36.958368 L45.3394081,36.956192 L45.3394081,36.956192 C44.8718556,36.926272 44.5172542,36.52208 44.5471211,36.053696 L44.6421521,34.58 L43.8113096,35.060896 C43.6771801,35.138144 43.5311039,35.175136 43.3877428,35.175136 C43.0939613,35.175136 42.8088682,35.022272 42.6519313,34.750272 C42.4178836,34.34336 42.5563573,33.823296 42.962547,33.588832 L43.7939325,33.107936 L42.47273,32.453504 C42.0524215,32.245696 41.8802796,31.735424 42.0882617,31.314912 C42.2957008,30.8944 42.805067,30.721408 43.2248325,30.92976 L45.55988,32.086304 L48.3027463,30.5 L45.55988,28.913696 L43.2248325,30.07024 C43.1037359,30.13008 42.9755798,30.158368 42.8495958,30.158368 C42.5368081,30.158368 42.2359671,29.984832 42.0882617,29.685088 C41.8802796,29.264576 42.0524215,28.754304 42.47273,28.546496 L43.7939325,27.892064 L42.962547,27.410624 C42.5563573,27.176704 42.4178836,26.65664 42.6519313,26.249728 C42.8859791,25.842816 43.4051199,25.704096 43.8113096,25.93856 L44.6421521,26.419456 L44.5471211,24.946304 C44.5172542,24.47792 44.8718556,24.073728 45.3394081,24.043264 C45.8069606,24.011168 46.2104351,24.368576 46.240845,24.83696 L46.4086426,27.441088 L49.1515089,29.027936 L49.1515089,25.854784 L46.983716,24.4072 C46.5938173,24.146624 46.4884687,23.619488 46.7485821,23.228352 C47.0081525,22.83776 47.5348958,22.732224 47.9253374,22.9928 L49.1515089,23.81152 L49.1515089,22.849728 C49.1515089,22.380256 49.5316329,22 49.9997285,22 Z" id="icon_air-conditioner" fill="#3A4B60"></path>
    </g>
</svg>