<?xml version="1.0" encoding="UTF-8"?>
<svg width="100px" height="100px" viewBox="0 0 100 100" version="1.1" xmlns="http://www.w3.org/2000/svg">
    <title>icon / furniture / air-hockey-table</title>
    <g id="icon-/-furniture-/-air-hockey-table" stroke="none" stroke-width="1" fill="none" fill-rule="evenodd">
        <path d="M28.0612,8.0617 L71.9382,8.0617 C73.9342,8.0617 75.6362,9.3407 76.2682,11.1227 L23.7312,11.1227 C24.3632,9.3407 26.0652,8.0617 28.0612,8.0617 L28.0612,8.0617 Z M25.5102,39.1837 L25.5102,39.1837 C26.2992,39.4877 27.1852,39.0937 27.4882,38.3047 L36.7652,14.1837 L63.2342,14.1837 L72.5112,38.3047 C72.8152,39.0937 73.7012,39.4877 74.4902,39.1837 C75.2792,38.8797 75.6722,37.9947 75.3692,37.2057 L66.5142,14.1837 L78.0612,14.1837 C78.9062,14.1837 79.5912,13.4987 79.5912,12.6537 C79.5912,8.4257 76.1652,4.9997 71.9382,4.9997 L28.0612,4.9997 C23.8342,4.9997 20.4082,8.4257 20.4082,12.6537 C20.4082,13.4987 21.0932,14.1837 21.9382,14.1837 L33.4852,14.1837 L24.6302,37.2057 C24.3282,37.9947 24.7212,38.8797 25.5102,39.1837 L25.5102,39.1837 Z M96.9382,54.2857 C96.9382,57.9437 93.9632,60.9177 90.3062,60.9177 L9.6942,60.9177 C6.0312,60.9177 3.0612,57.9487 3.0612,54.2857 L3.0612,50.1937 C3.0612,49.9177 3.2852,49.6937 3.5612,49.6937 L5.6232,49.6937 C5.8982,49.6937 6.1232,49.9177 6.1232,50.1937 L6.1232,53.7757 L93.8772,53.7757 L93.8772,50.1937 C93.8772,49.9177 94.1012,49.6937 94.3772,49.6937 L96.4382,49.6937 C96.7142,49.6937 96.9382,49.9177 96.9382,50.1937 L96.9382,54.2857 Z M84.0932,91.9387 L83.0482,91.9387 C82.7742,91.9387 82.5502,91.7157 82.5502,91.4407 L82.5502,63.9797 L84.5912,63.9797 L84.5912,91.4407 C84.5912,91.7157 84.3692,91.9387 84.0932,91.9387 L84.0932,91.9387 Z M16.9512,91.9387 L15.9062,91.9387 C15.6312,91.9387 15.4082,91.7157 15.4082,91.4407 L15.4082,63.9797 L17.4492,63.9797 L17.4492,91.4407 C17.4492,91.7157 17.2262,91.9387 16.9512,91.9387 L16.9512,91.9387 Z M16.1002,48.6727 L24.0652,48.6727 L24.8812,50.7137 L15.2032,50.7137 L16.1002,48.6727 Z M18.9792,43.6727 C18.9792,43.1107 19.4372,42.6537 19.9992,42.6537 C20.5622,42.6537 21.0202,43.1107 21.0202,43.6727 L21.0202,45.6127 L18.9792,45.6127 L18.9792,43.6727 Z M75.2852,48.6727 L83.2492,48.6727 L84.0662,50.7137 L74.3862,50.7137 L75.2852,48.6727 Z M78.1632,43.6727 C78.1632,43.1107 78.6212,42.6537 79.1832,42.6537 C79.7462,42.6537 80.2042,43.1107 80.2042,43.6727 L80.2042,45.6127 L78.1632,45.6127 L78.1632,43.6727 Z M33.9792,49.2857 L40.1022,49.2857 C40.3832,49.2857 40.6122,49.5147 40.6122,49.7957 C40.6122,50.0777 40.3832,50.3057 40.1022,50.3057 L33.9792,50.3057 C33.6982,50.3057 33.4692,50.0777 33.4692,49.7957 C33.4692,49.5147 33.6982,49.2857 33.9792,49.2857 L33.9792,49.2857 Z M90.8162,50.7137 L87.3632,50.7137 L86.0212,47.3607 C85.5992,46.3047 84.5762,45.6127 83.4382,45.6127 L83.2652,45.6127 L83.2652,43.8557 C83.2652,41.7247 81.7112,39.8187 79.5912,39.6117 C77.1592,39.3737 75.1022,41.2887 75.1022,43.6727 L75.1022,45.6127 C73.9992,45.6127 72.9992,46.2637 72.5562,47.2737 L71.0412,50.7137 L43.5492,50.7137 C43.6892,50.1887 43.7252,49.6217 43.5822,49.0227 C43.1762,47.3347 41.5472,46.2247 39.8122,46.2247 L34.2692,46.2247 C32.5342,46.2247 30.9042,47.3347 30.4992,49.0227 C30.3562,49.6217 30.3922,50.1887 30.5322,50.7137 L28.1782,50.7137 L26.8372,47.3607 C26.4152,46.3047 25.3922,45.6127 24.2542,45.6127 L24.0822,45.6127 L24.0822,43.8557 C24.0822,41.7247 22.5282,39.8187 20.4082,39.6117 C17.9742,39.3737 15.9172,41.2887 15.9172,43.6727 L15.9172,45.6127 C14.8152,45.6127 13.8162,46.2637 13.3722,47.2737 L11.8582,50.7137 L9.1832,50.7137 L9.1832,48.1327 C9.1832,47.3037 8.5122,46.6327 7.6832,46.6327 L1.4992,46.6327 C0.6712,46.6327 -0.0008,47.3037 -0.0008,48.1327 L-0.0008,54.2857 C-0.0008,59.6397 4.3402,63.9797 9.6942,63.9797 L12.3472,63.9797 L12.3472,93.4977 C12.3472,94.3277 13.0202,94.9997 13.8492,94.9997 L19.0072,94.9997 C19.8372,94.9997 20.5102,94.3277 20.5102,93.4977 L20.5102,63.9797 L79.4902,63.9797 L79.4902,93.4977 C79.4902,94.3277 80.1632,94.9997 80.9922,94.9997 L86.1502,94.9997 C86.9802,94.9997 87.6532,94.3277 87.6532,93.4977 L87.6532,63.9797 L90.3062,63.9797 C95.6602,63.9797 99.9992,59.6397 99.9992,54.2857 L99.9992,48.1327 C99.9992,47.3037 99.3292,46.6327 98.4992,46.6327 L92.3162,46.6327 C91.4882,46.6327 90.8162,47.3037 90.8162,48.1327 L90.8162,50.7137 Z"
              id="Fill-1" fill="#3A4B60"></path>
    </g>
</svg>