<?xml version="1.0" encoding="UTF-8"?>
<svg width="100px" height="100px" viewBox="0 0 100 100" version="1.1" xmlns="http://www.w3.org/2000/svg">
    <title>icon / furniture / air-purifier</title>
    <g id="icon-/-furniture-/-air-purifier" stroke="none" stroke-width="1" fill="none" fill-rule="evenodd">
        <path d="M54.4726,38.4189 C51.5686,39.3809 48.4316,39.3809 45.5276,38.4189 C44.6546,38.1279 43.7096,38.5999 43.4186,39.4729 C43.1276,40.3469 43.5996,41.2899 44.4726,41.5809 C48.0616,42.7699 51.9386,42.7699 55.5276,41.5809 C56.4006,41.2899 56.8716,40.3469 56.5806,39.4729 C56.2896,38.5999 55.3466,38.1279 54.4726,38.4189 L54.4726,38.4189 Z M49.9996,21.8329 C43.8046,21.8329 39.9996,19.4059 39.9996,17.6669 C39.9996,15.9269 43.8046,13.4999 49.9996,13.4999 C56.1956,13.4999 59.9996,15.9269 59.9996,17.6669 C59.9996,19.4059 56.1956,21.8329 49.9996,21.8329 L49.9996,21.8329 Z M49.9996,10.1669 C42.3986,10.1669 36.6666,13.3909 36.6666,17.6669 C36.6666,21.9419 42.3986,25.1669 49.9996,25.1669 C57.6016,25.1669 63.3326,21.9419 63.3326,17.6669 C63.3326,13.3909 57.6016,10.1669 49.9996,10.1669 L49.9996,10.1669 Z M67.9986,27.5519 C63.2176,30.4199 56.8256,31.9999 49.9996,31.9999 C43.1746,31.9999 36.7836,30.4199 32.0006,27.5519 C27.4866,24.8429 24.9996,21.3319 24.9996,17.6669 C24.9996,14.0009 27.4866,10.4909 32.0006,7.7819 C36.7836,4.9129 43.1746,3.3329 49.9996,3.3329 C56.8256,3.3329 63.2176,4.9129 67.9986,7.7819 C72.5136,10.4909 74.9996,14.0019 74.9996,17.6669 C74.9996,21.3319 72.5136,24.8429 67.9986,27.5519 L67.9986,27.5519 Z M74.9996,32.3329 C74.9996,35.9989 72.5136,39.5089 67.9986,42.2179 C63.2176,45.0869 56.8256,46.6669 49.9996,46.6669 C43.1746,46.6669 36.7836,45.0869 32.0006,42.2179 C27.4866,39.5089 24.9996,35.9989 24.9996,32.3329 L24.9996,26.0629 C26.5186,27.7849 28.3036,29.2519 30.2856,30.4089 C35.5776,33.5839 42.5786,35.3329 49.9996,35.3329 C57.4206,35.3329 64.4216,33.5839 69.7136,30.4089 C71.6966,29.2519 73.4816,27.7849 74.9996,26.0629 L74.9996,32.3329 Z M74.9996,73.9999 C74.9996,77.6649 72.5136,81.1759 67.9986,83.8849 C63.2176,86.7529 56.8256,88.3329 49.9996,88.3329 C43.1746,88.3329 36.7836,86.7529 32.0006,83.8849 C27.4866,81.1759 24.9996,77.6649 24.9996,73.9999 L24.9996,40.7299 C26.5186,42.4509 28.3036,43.9189 30.2856,45.0759 C35.5776,48.2509 42.5786,49.9999 49.9996,49.9999 C57.4206,49.9999 64.4216,48.2509 69.7136,45.0759 C71.6976,43.9189 73.4816,42.4509 74.9996,40.7299 L74.9996,73.9999 Z M67.9986,92.2179 C63.2176,95.0869 56.8256,96.6669 49.9996,96.6669 C43.1746,96.6669 36.7836,95.0869 32.0016,92.2179 C27.5126,89.5249 25.0306,86.0399 25.0016,82.3979 C26.5196,84.1189 28.3036,85.5859 30.2856,86.7429 C35.5776,89.9179 42.5786,91.6669 49.9996,91.6669 C57.4206,91.6669 64.4216,89.9179 69.7136,86.7429 C71.6966,85.5859 73.4806,84.1189 74.9986,82.3979 C74.9696,86.0399 72.4876,89.5249 67.9986,92.2179 L67.9986,92.2179 Z M69.7136,4.9239 C64.4216,1.7489 57.4206,-0.0001 49.9996,-0.0001 C42.5786,-0.0001 35.5776,1.7489 30.2856,4.9239 C24.7276,8.2589 21.6666,12.7839 21.6666,17.6669 L21.6666,82.3329 C21.6666,87.2159 24.7276,91.7409 30.2856,95.0759 C35.5776,98.2519 42.5786,99.9999 49.9996,99.9999 C57.4206,99.9999 64.4216,98.2519 69.7136,95.0759 C75.2726,91.7409 78.3326,87.2159 78.3326,82.3329 L78.3326,17.6669 C78.3326,12.7839 75.2726,8.2589 69.7136,4.9239 L69.7136,4.9239 Z M1.6666,61.6669 L16.6666,61.6669 C17.5866,61.6669 18.3326,62.4129 18.3326,63.3329 C18.3326,64.2539 17.5866,64.9999 16.6666,64.9999 L1.6666,64.9999 C0.7456,64.9999 -0.0004,64.2539 -0.0004,63.3329 C-0.0004,62.4129 0.7456,61.6669 1.6666,61.6669 L1.6666,61.6669 Z M6.9466,58.3329 L16.6666,58.3329 C17.5866,58.3329 18.3326,57.5869 18.3326,56.6669 C18.3326,55.7459 17.5866,54.9999 16.6666,54.9999 L6.8556,54.9999 C5.0506,54.9999 3.4326,53.6479 3.3376,51.8459 C3.2376,49.9239 4.7666,48.3329 6.6666,48.3329 C8.1136,48.3329 9.3456,49.2559 9.8066,50.5439 C10.0446,51.2119 10.6636,51.6669 11.3736,51.6669 L11.3776,51.6669 C12.5086,51.6669 13.3376,50.5549 12.9686,49.4859 C12.0656,46.8749 9.5846,44.9999 6.6666,44.9999 C2.9166,44.9999 -0.1104,48.0969 0.0026,51.8719 C0.1126,55.5209 3.2956,58.3329 6.9466,58.3329 L6.9466,58.3329 Z M10.1886,71.6669 L16.6666,71.6669 C17.5866,71.6669 18.3326,70.9209 18.3326,69.9999 C18.3326,69.0789 17.5866,68.3329 16.6666,68.3329 L10.2796,68.3329 C6.6286,68.3329 3.4466,71.1469 3.3366,74.7949 C3.2236,78.5699 6.2496,81.6669 9.9996,81.6669 C12.9176,81.6669 15.3986,79.7919 16.3016,77.1809 C16.6716,76.1119 15.8426,74.9999 14.7116,74.9999 L14.7066,74.9999 C13.9976,74.9999 13.3786,75.4539 13.1396,76.1229 C12.6786,77.4109 11.4476,78.3329 9.9996,78.3329 C8.0996,78.3329 6.5706,76.7429 6.6716,74.8199 C6.7656,73.0189 8.3836,71.6669 10.1886,71.6669 L10.1886,71.6669 Z M83.3326,61.6669 L98.3326,61.6669 C99.2536,61.6669 99.9996,62.4129 99.9996,63.3329 C99.9996,64.2539 99.2536,64.9999 98.3326,64.9999 L83.3326,64.9999 C82.4126,64.9999 81.6666,64.2539 81.6666,63.3329 C81.6666,62.4129 82.4126,61.6669 83.3326,61.6669 L83.3326,61.6669 Z M93.3326,44.9999 C90.4166,45.0029 87.9396,46.8759 87.0346,49.4849 C86.6626,50.5539 87.4936,51.6669 88.6236,51.6669 C89.3436,51.6669 89.9546,51.1939 90.2026,50.5189 C90.7356,49.0669 92.2466,48.0899 93.9376,48.3869 C95.2786,48.6219 96.3776,49.7219 96.6136,51.0629 C96.9836,53.1699 95.3716,54.9999 93.3326,54.9999 L83.3326,54.9999 C82.4126,54.9999 81.6666,55.7459 81.6666,56.6669 C81.6666,57.5869 82.4126,58.3329 83.3326,58.3329 L93.0536,58.3329 C96.7036,58.3329 99.8876,55.5209 99.9966,51.8719 C100.1106,48.0969 97.0826,44.9999 93.3326,44.9999 L93.3326,44.9999 Z M90.5986,78.2819 C88.9106,78.5729 87.4036,77.5959 86.8706,76.1479 C86.6216,75.4719 86.0116,74.9999 85.2916,74.9999 L85.2906,74.9999 C84.1456,74.9999 83.3296,76.1339 83.7096,77.2149 C84.6326,79.8359 87.1486,81.7069 90.0946,81.6659 C93.6356,81.6169 96.6176,78.6359 96.6656,75.0949 C96.7176,71.3689 93.7136,68.3329 89.9996,68.3329 L83.3326,68.3329 C82.4126,68.3329 81.6666,69.0789 81.6666,69.9999 C81.6666,70.9209 82.4126,71.6669 83.3326,71.6669 L89.9996,71.6669 C92.0426,71.6669 93.6576,73.5049 93.2786,75.6169 C93.0376,76.9549 91.9376,78.0509 90.5986,78.2819 L90.5986,78.2819 Z M29.9996,68.3329 L29.9996,68.3329 C30.9206,68.3329 31.6666,69.0789 31.6666,69.9999 C31.6666,70.9209 30.9206,71.6669 29.9996,71.6669 C29.0796,71.6669 28.3326,70.9209 28.3326,69.9999 C28.3326,69.0789 29.0796,68.3329 29.9996,68.3329 L29.9996,68.3329 Z M29.9996,61.6669 L29.9996,61.6669 C30.9206,61.6669 31.6666,62.4129 31.6666,63.3329 C31.6666,64.2539 30.9206,64.9999 29.9996,64.9999 C29.0796,64.9999 28.3326,64.2539 28.3326,63.3329 C28.3326,62.4129 29.0796,61.6669 29.9996,61.6669 L29.9996,61.6669 Z M29.9996,48.3329 L29.9996,48.3329 C30.9206,48.3329 31.6666,49.0789 31.6666,49.9999 C31.6666,50.9209 30.9206,51.6669 29.9996,51.6669 C29.0796,51.6669 28.3326,50.9209 28.3326,49.9999 C28.3326,49.0789 29.0796,48.3329 29.9996,48.3329 L29.9996,48.3329 Z M29.9996,54.9999 L29.9996,54.9999 C30.9206,54.9999 31.6666,55.7459 31.6666,56.6669 C31.6666,57.5869 30.9206,58.3329 29.9996,58.3329 C29.0796,58.3329 28.3326,57.5869 28.3326,56.6669 C28.3326,55.7459 29.0796,54.9999 29.9996,54.9999 L29.9996,54.9999 Z M36.6666,74.9999 L36.6666,74.9999 C37.5866,74.9999 38.3326,75.7459 38.3326,76.6669 C38.3326,77.5869 37.5866,78.3329 36.6666,78.3329 C35.7456,78.3329 34.9996,77.5869 34.9996,76.6669 C34.9996,75.7459 35.7456,74.9999 36.6666,74.9999 L36.6666,74.9999 Z M36.6666,68.3329 L36.6666,68.3329 C37.5866,68.3329 38.3326,69.0789 38.3326,69.9999 C38.3326,70.9209 37.5866,71.6669 36.6666,71.6669 C35.7456,71.6669 34.9996,70.9209 34.9996,69.9999 C34.9996,69.0789 35.7456,68.3329 36.6666,68.3329 L36.6666,68.3329 Z M36.6666,61.6669 L36.6666,61.6669 C37.5866,61.6669 38.3326,62.4129 38.3326,63.3329 C38.3326,64.2539 37.5866,64.9999 36.6666,64.9999 C35.7456,64.9999 34.9996,64.2539 34.9996,63.3329 C34.9996,62.4129 35.7456,61.6669 36.6666,61.6669 L36.6666,61.6669 Z M36.6666,54.9999 L36.6666,54.9999 C37.5866,54.9999 38.3326,55.7459 38.3326,56.6669 C38.3326,57.5869 37.5866,58.3329 36.6666,58.3329 C35.7456,58.3329 34.9996,57.5869 34.9996,56.6669 C34.9996,55.7459 35.7456,54.9999 36.6666,54.9999 L36.6666,54.9999 Z M43.3326,81.6669 L43.3326,81.6669 C44.2536,81.6669 44.9996,82.4129 44.9996,83.3329 C44.9996,84.2539 44.2536,84.9999 43.3326,84.9999 C42.4126,84.9999 41.6666,84.2539 41.6666,83.3329 C41.6666,82.4129 42.4126,81.6669 43.3326,81.6669 L43.3326,81.6669 Z M43.3326,74.9999 L43.3326,74.9999 C44.2536,74.9999 44.9996,75.7459 44.9996,76.6669 C44.9996,77.5869 44.2536,78.3329 43.3326,78.3329 C42.4126,78.3329 41.6666,77.5869 41.6666,76.6669 C41.6666,75.7459 42.4126,74.9999 43.3326,74.9999 L43.3326,74.9999 Z M43.3326,68.3329 L43.3326,68.3329 C44.2536,68.3329 44.9996,69.0789 44.9996,69.9999 C44.9996,70.9209 44.2536,71.6669 43.3326,71.6669 C42.4126,71.6669 41.6666,70.9209 41.6666,69.9999 C41.6666,69.0789 42.4126,68.3329 43.3326,68.3329 L43.3326,68.3329 Z M43.3326,61.6669 L43.3326,61.6669 C44.2536,61.6669 44.9996,62.4129 44.9996,63.3329 C44.9996,64.2539 44.2536,64.9999 43.3326,64.9999 C42.4126,64.9999 41.6666,64.2539 41.6666,63.3329 C41.6666,62.4129 42.4126,61.6669 43.3326,61.6669 L43.3326,61.6669 Z M43.3326,54.9999 L43.3326,54.9999 C44.2536,54.9999 44.9996,55.7459 44.9996,56.6669 C44.9996,57.5869 44.2536,58.3329 43.3326,58.3329 C42.4126,58.3329 41.6666,57.5869 41.6666,56.6669 C41.6666,55.7459 42.4126,54.9999 43.3326,54.9999 L43.3326,54.9999 Z M69.9996,68.3329 L69.9996,68.3329 C70.9206,68.3329 71.6666,69.0789 71.6666,69.9999 C71.6666,70.9209 70.9206,71.6669 69.9996,71.6669 C69.0796,71.6669 68.3326,70.9209 68.3326,69.9999 C68.3326,69.0789 69.0796,68.3329 69.9996,68.3329 L69.9996,68.3329 Z M69.9996,61.6669 L69.9996,61.6669 C70.9206,61.6669 71.6666,62.4129 71.6666,63.3329 C71.6666,64.2539 70.9206,64.9999 69.9996,64.9999 C69.0796,64.9999 68.3326,64.2539 68.3326,63.3329 C68.3326,62.4129 69.0796,61.6669 69.9996,61.6669 L69.9996,61.6669 Z M69.9996,48.3329 L69.9996,48.3329 C70.9206,48.3329 71.6666,49.0789 71.6666,49.9999 C71.6666,50.9209 70.9206,51.6669 69.9996,51.6669 C69.0796,51.6669 68.3326,50.9209 68.3326,49.9999 C68.3326,49.0789 69.0796,48.3329 69.9996,48.3329 L69.9996,48.3329 Z M69.9996,54.9999 L69.9996,54.9999 C70.9206,54.9999 71.6666,55.7459 71.6666,56.6669 C71.6666,57.5869 70.9206,58.3329 69.9996,58.3329 C69.0796,58.3329 68.3326,57.5869 68.3326,56.6669 C68.3326,55.7459 69.0796,54.9999 69.9996,54.9999 L69.9996,54.9999 Z M63.3326,74.9999 L63.3326,74.9999 C64.2536,74.9999 64.9996,75.7459 64.9996,76.6669 C64.9996,77.5869 64.2536,78.3329 63.3326,78.3329 C62.4126,78.3329 61.6666,77.5869 61.6666,76.6669 C61.6666,75.7459 62.4126,74.9999 63.3326,74.9999 L63.3326,74.9999 Z M63.3326,68.3329 L63.3326,68.3329 C64.2536,68.3329 64.9996,69.0789 64.9996,69.9999 C64.9996,70.9209 64.2536,71.6669 63.3326,71.6669 C62.4126,71.6669 61.6666,70.9209 61.6666,69.9999 C61.6666,69.0789 62.4126,68.3329 63.3326,68.3329 L63.3326,68.3329 Z M63.3326,61.6669 L63.3326,61.6669 C64.2536,61.6669 64.9996,62.4129 64.9996,63.3329 C64.9996,64.2539 64.2536,64.9999 63.3326,64.9999 C62.4126,64.9999 61.6666,64.2539 61.6666,63.3329 C61.6666,62.4129 62.4126,61.6669 63.3326,61.6669 L63.3326,61.6669 Z M63.3326,54.9999 L63.3326,54.9999 C64.2536,54.9999 64.9996,55.7459 64.9996,56.6669 C64.9996,57.5869 64.2536,58.3329 63.3326,58.3329 C62.4126,58.3329 61.6666,57.5869 61.6666,56.6669 C61.6666,55.7459 62.4126,54.9999 63.3326,54.9999 L63.3326,54.9999 Z M56.6666,81.6669 L56.6666,81.6669 C57.5866,81.6669 58.3326,82.4129 58.3326,83.3329 C58.3326,84.2539 57.5866,84.9999 56.6666,84.9999 C55.7456,84.9999 54.9996,84.2539 54.9996,83.3329 C54.9996,82.4129 55.7456,81.6669 56.6666,81.6669 L56.6666,81.6669 Z M56.6666,74.9999 L56.6666,74.9999 C57.5866,74.9999 58.3326,75.7459 58.3326,76.6669 C58.3326,77.5869 57.5866,78.3329 56.6666,78.3329 C55.7456,78.3329 54.9996,77.5869 54.9996,76.6669 C54.9996,75.7459 55.7456,74.9999 56.6666,74.9999 L56.6666,74.9999 Z M56.6666,68.3329 L56.6666,68.3329 C57.5866,68.3329 58.3326,69.0789 58.3326,69.9999 C58.3326,70.9209 57.5866,71.6669 56.6666,71.6669 C55.7456,71.6669 54.9996,70.9209 54.9996,69.9999 C54.9996,69.0789 55.7456,68.3329 56.6666,68.3329 L56.6666,68.3329 Z M56.6666,61.6669 L56.6666,61.6669 C57.5866,61.6669 58.3326,62.4129 58.3326,63.3329 C58.3326,64.2539 57.5866,64.9999 56.6666,64.9999 C55.7456,64.9999 54.9996,64.2539 54.9996,63.3329 C54.9996,62.4129 55.7456,61.6669 56.6666,61.6669 L56.6666,61.6669 Z M56.6666,54.9999 L56.6666,54.9999 C57.5866,54.9999 58.3326,55.7459 58.3326,56.6669 C58.3326,57.5869 57.5866,58.3329 56.6666,58.3329 C55.7456,58.3329 54.9996,57.5869 54.9996,56.6669 C54.9996,55.7459 55.7456,54.9999 56.6666,54.9999 L56.6666,54.9999 Z M49.9996,81.6669 L49.9996,81.6669 C50.9206,81.6669 51.6666,82.4129 51.6666,83.3329 C51.6666,84.2539 50.9206,84.9999 49.9996,84.9999 C49.0796,84.9999 48.3326,84.2539 48.3326,83.3329 C48.3326,82.4129 49.0796,81.6669 49.9996,81.6669 L49.9996,81.6669 Z M49.9996,74.9999 L49.9996,74.9999 C50.9206,74.9999 51.6666,75.7459 51.6666,76.6669 C51.6666,77.5869 50.9206,78.3329 49.9996,78.3329 C49.0796,78.3329 48.3326,77.5869 48.3326,76.6669 C48.3326,75.7459 49.0796,74.9999 49.9996,74.9999 L49.9996,74.9999 Z M49.9996,68.3329 L49.9996,68.3329 C50.9206,68.3329 51.6666,69.0789 51.6666,69.9999 C51.6666,70.9209 50.9206,71.6669 49.9996,71.6669 C49.0796,71.6669 48.3326,70.9209 48.3326,69.9999 C48.3326,69.0789 49.0796,68.3329 49.9996,68.3329 L49.9996,68.3329 Z M49.9996,61.6669 L49.9996,61.6669 C50.9206,61.6669 51.6666,62.4129 51.6666,63.3329 C51.6666,64.2539 50.9206,64.9999 49.9996,64.9999 C49.0796,64.9999 48.3326,64.2539 48.3326,63.3329 C48.3326,62.4129 49.0796,61.6669 49.9996,61.6669 L49.9996,61.6669 Z M49.9996,54.9999 L49.9996,54.9999 C50.9206,54.9999 51.6666,55.7459 51.6666,56.6669 C51.6666,57.5869 50.9206,58.3329 49.9996,58.3329 C49.0796,58.3329 48.3326,57.5869 48.3326,56.6669 C48.3326,55.7459 49.0796,54.9999 49.9996,54.9999 L49.9996,54.9999 Z"
              id="icon_air-purifier" fill="#3A4B60"></path>
    </g>
</svg>