<?xml version="1.0" encoding="UTF-8"?>
<svg width="100px" height="100px" viewBox="0 0 100 100" version="1.1" xmlns="http://www.w3.org/2000/svg">
    <title>icon / furniture / amplifier</title>
    <g id="icon-/-furniture-/-amplifier" stroke="none" stroke-width="1" fill="none" fill-rule="evenodd">
        <path d="M34.1566,50.1878 L34.4896,50.1878 L34.4896,50.5208 C34.4896,51.3298 35.1446,51.9858 35.9546,51.9858 C36.7636,51.9858 37.4196,51.3298 37.4196,50.5208 L37.4196,50.1878 L37.7526,50.1878 C38.5606,50.1878 39.2176,49.5318 39.2176,48.7228 C39.2176,47.9138 38.5606,47.2578 37.7526,47.2578 L37.4196,47.2578 L37.4196,46.9258 C37.4196,46.1168 36.7636,45.4608 35.9546,45.4608 C35.1446,45.4608 34.4896,46.1168 34.4896,46.9258 L34.4896,47.2578 L34.1566,47.2578 C33.3476,47.2578 32.6916,47.9138 32.6916,48.7228 C32.6916,49.5318 33.3476,50.1878 34.1566,50.1878 L34.1566,50.1878 Z M43.5196,69.3348 L43.8526,69.3348 L43.8526,69.6678 C43.8526,70.4768 44.5096,71.1328 45.3176,71.1328 C46.1276,71.1328 46.7826,70.4768 46.7826,69.6678 L46.7826,69.3348 L47.1156,69.3348 C47.9256,69.3348 48.5806,68.6788 48.5806,67.8708 C48.5806,67.0618 47.9256,66.4058 47.1156,66.4058 L46.7826,66.4058 L46.7826,66.0738 C46.7826,65.2638 46.1276,64.6088 45.3176,64.6088 C44.5096,64.6088 43.8526,65.2638 43.8526,66.0738 L43.8526,66.4058 L43.5196,66.4058 C42.7116,66.4058 42.0546,67.0618 42.0546,67.8708 C42.0546,68.6788 42.7116,69.3348 43.5196,69.3348 L43.5196,69.3348 Z M43.5196,50.1878 L43.8526,50.1878 L43.8526,50.5208 C43.8526,51.3298 44.5096,51.9858 45.3176,51.9858 C46.1276,51.9858 46.7826,51.3298 46.7826,50.5208 L46.7826,50.1878 L47.1156,50.1878 C47.9256,50.1878 48.5806,49.5318 48.5806,48.7228 C48.5806,47.9138 47.9256,47.2578 47.1156,47.2578 L46.7826,47.2578 L46.7826,46.9258 C46.7826,46.1168 46.1276,45.4608 45.3176,45.4608 C44.5096,45.4608 43.8526,46.1168 43.8526,46.9258 L43.8526,47.2578 L43.5196,47.2578 C42.7116,47.2578 42.0546,47.9138 42.0546,48.7228 C42.0546,49.5318 42.7116,50.1878 43.5196,50.1878 L43.5196,50.1878 Z M34.1566,40.5678 L34.4896,40.5678 L34.4896,40.8998 C34.4896,41.7088 35.1446,42.3648 35.9546,42.3648 C36.7636,42.3648 37.4196,41.7088 37.4196,40.8998 L37.4196,40.5678 L37.7526,40.5678 C38.5606,40.5678 39.2176,39.9118 39.2176,39.1028 C39.2176,38.2938 38.5606,37.6378 37.7526,37.6378 L37.4196,37.6378 L37.4196,37.3048 C37.4196,36.4968 36.7636,35.8398 35.9546,35.8398 C35.1446,35.8398 34.4896,36.4968 34.4896,37.3048 L34.4896,37.6378 L34.1566,37.6378 C33.3476,37.6378 32.6916,38.2938 32.6916,39.1028 C32.6916,39.9118 33.3476,40.5678 34.1566,40.5678 L34.1566,40.5678 Z M43.5196,79.3098 L43.8526,79.3098 L43.8526,79.6428 C43.8526,80.4518 44.5096,81.1078 45.3176,81.1078 C46.1276,81.1078 46.7826,80.4518 46.7826,79.6428 L46.7826,79.3098 L47.1156,79.3098 C47.9256,79.3098 48.5806,78.6548 48.5806,77.8448 C48.5806,77.0368 47.9256,76.3798 47.1156,76.3798 L46.7826,76.3798 L46.7826,76.0478 C46.7826,75.2398 46.1276,74.5838 45.3176,74.5838 C44.5096,74.5838 43.8526,75.2398 43.8526,76.0478 L43.8526,76.3798 L43.5196,76.3798 C42.7116,76.3798 42.0546,77.0368 42.0546,77.8448 C42.0546,78.6548 42.7116,79.3098 43.5196,79.3098 L43.5196,79.3098 Z M43.5196,59.7148 L43.8526,59.7148 L43.8526,60.0468 C43.8526,60.8568 44.5096,61.5118 45.3176,61.5118 C46.1276,61.5118 46.7826,60.8568 46.7826,60.0468 L46.7826,59.7148 L47.1156,59.7148 C47.9256,59.7148 48.5806,59.0598 48.5806,58.2508 C48.5806,57.4408 47.9256,56.7858 47.1156,56.7858 L46.7826,56.7858 L46.7826,56.4528 C46.7826,55.6438 46.1276,54.9878 45.3176,54.9878 C44.5096,54.9878 43.8526,55.6438 43.8526,56.4528 L43.8526,56.7858 L43.5196,56.7858 C42.7116,56.7858 42.0546,57.4408 42.0546,58.2508 C42.0546,59.0598 42.7116,59.7148 43.5196,59.7148 L43.5196,59.7148 Z M52.8856,40.5678 L53.2176,40.5678 L53.2176,40.8998 C53.2176,41.7088 53.8726,42.3648 54.6816,42.3648 C55.4906,42.3648 56.1466,41.7088 56.1466,40.8998 L56.1466,40.5678 L56.4796,40.5678 C57.2886,40.5678 57.9446,39.9118 57.9446,39.1028 C57.9446,38.2938 57.2886,37.6378 56.4796,37.6378 L56.1466,37.6378 L56.1466,37.3048 C56.1466,36.4968 55.4906,35.8398 54.6816,35.8398 C53.8726,35.8398 53.2176,36.4968 53.2176,37.3048 L53.2176,37.6378 L52.8856,37.6378 C52.0756,37.6378 51.4206,38.2938 51.4206,39.1028 C51.4206,39.9118 52.0756,40.5678 52.8856,40.5678 L52.8856,40.5678 Z M43.5196,40.5678 L43.8526,40.5678 L43.8526,40.8998 C43.8526,41.7088 44.5096,42.3648 45.3176,42.3648 C46.1276,42.3648 46.7826,41.7088 46.7826,40.8998 L46.7826,40.5678 L47.1156,40.5678 C47.9256,40.5678 48.5806,39.9118 48.5806,39.1028 C48.5806,38.2938 47.9256,37.6378 47.1156,37.6378 L46.7826,37.6378 L46.7826,37.3048 C46.7826,36.4968 46.1276,35.8398 45.3176,35.8398 C44.5096,35.8398 43.8526,36.4968 43.8526,37.3048 L43.8526,37.6378 L43.5196,37.6378 C42.7116,37.6378 42.0546,38.2938 42.0546,39.1028 C42.0546,39.9118 42.7116,40.5678 43.5196,40.5678 L43.5196,40.5678 Z M52.8856,50.1878 L53.2176,50.1878 L53.2176,50.5208 C53.2176,51.3298 53.8726,51.9858 54.6816,51.9858 C55.4906,51.9858 56.1466,51.3298 56.1466,50.5208 L56.1466,50.1878 L56.4796,50.1878 C57.2886,50.1878 57.9446,49.5318 57.9446,48.7228 C57.9446,47.9138 57.2886,47.2578 56.4796,47.2578 L56.1466,47.2578 L56.1466,46.9258 C56.1466,46.1168 55.4906,45.4608 54.6816,45.4608 C53.8726,45.4608 53.2176,46.1168 53.2176,46.9258 L53.2176,47.2578 L52.8856,47.2578 C52.0756,47.2578 51.4206,47.9138 51.4206,48.7228 C51.4206,49.5318 52.0756,50.1878 52.8856,50.1878 L52.8856,50.1878 Z M52.8856,79.3098 L53.2176,79.3098 L53.2176,79.6428 C53.2176,80.4518 53.8726,81.1078 54.6816,81.1078 C55.4906,81.1078 56.1466,80.4518 56.1466,79.6428 L56.1466,79.3098 L56.4796,79.3098 C57.2886,79.3098 57.9446,78.6548 57.9446,77.8448 C57.9446,77.0368 57.2886,76.3798 56.4796,76.3798 L56.1466,76.3798 L56.1466,76.0478 C56.1466,75.2398 55.4906,74.5838 54.6816,74.5838 C53.8726,74.5838 53.2176,75.2398 53.2176,76.0478 L53.2176,76.3798 L52.8856,76.3798 C52.0756,76.3798 51.4206,77.0368 51.4206,77.8448 C51.4206,78.6548 52.0756,79.3098 52.8856,79.3098 L52.8856,79.3098 Z M52.8856,69.3348 L53.2176,69.3348 L53.2176,69.6678 C53.2176,70.4768 53.8726,71.1328 54.6816,71.1328 C55.4906,71.1328 56.1466,70.4768 56.1466,69.6678 L56.1466,69.3348 L56.4796,69.3348 C57.2886,69.3348 57.9446,68.6788 57.9446,67.8708 C57.9446,67.0618 57.2886,66.4058 56.4796,66.4058 L56.1466,66.4058 L56.1466,66.0738 C56.1466,65.2638 55.4906,64.6088 54.6816,64.6088 C53.8726,64.6088 53.2176,65.2638 53.2176,66.0738 L53.2176,66.4058 L52.8856,66.4058 C52.0756,66.4058 51.4206,67.0618 51.4206,67.8708 C51.4206,68.6788 52.0756,69.3348 52.8856,69.3348 L52.8856,69.3348 Z M52.8856,59.7148 L53.2176,59.7148 L53.2176,60.0468 C53.2176,60.8568 53.8726,61.5118 54.6816,61.5118 C55.4906,61.5118 56.1466,60.8568 56.1466,60.0468 L56.1466,59.7148 L56.4796,59.7148 C57.2886,59.7148 57.9446,59.0598 57.9446,58.2508 C57.9446,57.4408 57.2886,56.7858 56.4796,56.7858 L56.1466,56.7858 L56.1466,56.4528 C56.1466,55.6438 55.4906,54.9878 54.6816,54.9878 C53.8726,54.9878 53.2176,55.6438 53.2176,56.4528 L53.2176,56.7858 L52.8856,56.7858 C52.0756,56.7858 51.4206,57.4408 51.4206,58.2508 C51.4206,59.0598 52.0756,59.7148 52.8856,59.7148 L52.8856,59.7148 Z M34.1566,69.3348 L34.4896,69.3348 L34.4896,69.6678 C34.4896,70.4768 35.1446,71.1328 35.9546,71.1328 C36.7636,71.1328 37.4196,70.4768 37.4196,69.6678 L37.4196,69.3348 L37.7526,69.3348 C38.5606,69.3348 39.2176,68.6788 39.2176,67.8708 C39.2176,67.0618 38.5606,66.4058 37.7526,66.4058 L37.4196,66.4058 L37.4196,66.0738 C37.4196,65.2638 36.7636,64.6088 35.9546,64.6088 C35.1446,64.6088 34.4896,65.2638 34.4896,66.0738 L34.4896,66.4058 L34.1566,66.4058 C33.3476,66.4058 32.6916,67.0618 32.6916,67.8708 C32.6916,68.6788 33.3476,69.3348 34.1566,69.3348 L34.1566,69.3348 Z M15.4286,40.5678 L15.7616,40.5678 L15.7616,40.8998 C15.7616,41.7088 16.4176,42.3648 17.2266,42.3648 C18.0356,42.3648 18.6916,41.7088 18.6916,40.8998 L18.6916,40.5678 L19.0236,40.5678 C19.8336,40.5678 20.4886,39.9118 20.4886,39.1028 C20.4886,38.2938 19.8336,37.6378 19.0236,37.6378 L18.6916,37.6378 L18.6916,37.3048 C18.6916,36.4968 18.0356,35.8398 17.2266,35.8398 C16.4176,35.8398 15.7616,36.4968 15.7616,37.3048 L15.7616,37.6378 L15.4286,37.6378 C14.6206,37.6378 13.9646,38.2938 13.9646,39.1028 C13.9646,39.9118 14.6206,40.5678 15.4286,40.5678 L15.4286,40.5678 Z M15.4286,59.7148 L15.7616,59.7148 L15.7616,60.0468 C15.7616,60.8568 16.4176,61.5118 17.2266,61.5118 C18.0356,61.5118 18.6916,60.8568 18.6916,60.0468 L18.6916,59.7148 L19.0236,59.7148 C19.8336,59.7148 20.4886,59.0598 20.4886,58.2508 C20.4886,57.4408 19.8336,56.7858 19.0236,56.7858 L18.6916,56.7858 L18.6916,56.4528 C18.6916,55.6438 18.0356,54.9878 17.2266,54.9878 C16.4176,54.9878 15.7616,55.6438 15.7616,56.4528 L15.7616,56.7858 L15.4286,56.7858 C14.6206,56.7858 13.9646,57.4408 13.9646,58.2508 C13.9646,59.0598 14.6206,59.7148 15.4286,59.7148 L15.4286,59.7148 Z M15.4286,79.3098 L15.7616,79.3098 L15.7616,79.6428 C15.7616,80.4518 16.4176,81.1078 17.2266,81.1078 C18.0356,81.1078 18.6916,80.4518 18.6916,79.6428 L18.6916,79.3098 L19.0236,79.3098 C19.8336,79.3098 20.4886,78.6548 20.4886,77.8448 C20.4886,77.0368 19.8336,76.3798 19.0236,76.3798 L18.6916,76.3798 L18.6916,76.0478 C18.6916,75.2398 18.0356,74.5838 17.2266,74.5838 C16.4176,74.5838 15.7616,75.2398 15.7616,76.0478 L15.7616,76.3798 L15.4286,76.3798 C14.6206,76.3798 13.9646,77.0368 13.9646,77.8448 C13.9646,78.6548 14.6206,79.3098 15.4286,79.3098 L15.4286,79.3098 Z M24.7936,79.3098 L25.1266,79.3098 L25.1266,79.6428 C25.1266,80.4518 25.7816,81.1078 26.5916,81.1078 C27.3996,81.1078 28.0556,80.4518 28.0556,79.6428 L28.0556,79.3098 L28.3876,79.3098 C29.1966,79.3098 29.8526,78.6548 29.8526,77.8448 C29.8526,77.0368 29.1966,76.3798 28.3876,76.3798 L28.0556,76.3798 L28.0556,76.0478 C28.0556,75.2398 27.3996,74.5838 26.5916,74.5838 C25.7816,74.5838 25.1266,75.2398 25.1266,76.0478 L25.1266,76.3798 L24.7936,76.3798 C23.9836,76.3798 23.3286,77.0368 23.3286,77.8448 C23.3286,78.6548 23.9836,79.3098 24.7936,79.3098 L24.7936,79.3098 Z M15.4286,69.3348 L15.7616,69.3348 L15.7616,69.6678 C15.7616,70.4768 16.4176,71.1328 17.2266,71.1328 C18.0356,71.1328 18.6916,70.4768 18.6916,69.6678 L18.6916,69.3348 L19.0236,69.3348 C19.8336,69.3348 20.4886,68.6788 20.4886,67.8708 C20.4886,67.0618 19.8336,66.4058 19.0236,66.4058 L18.6916,66.4058 L18.6916,66.0738 C18.6916,65.2638 18.0356,64.6088 17.2266,64.6088 C16.4176,64.6088 15.7616,65.2638 15.7616,66.0738 L15.7616,66.4058 L15.4286,66.4058 C14.6206,66.4058 13.9646,67.0618 13.9646,67.8708 C13.9646,68.6788 14.6206,69.3348 15.4286,69.3348 L15.4286,69.3348 Z M24.7936,50.1878 L25.1266,50.1878 L25.1266,50.5208 C25.1266,51.3298 25.7816,51.9858 26.5916,51.9858 C27.3996,51.9858 28.0556,51.3298 28.0556,50.5208 L28.0556,50.1878 L28.3876,50.1878 C29.1966,50.1878 29.8526,49.5318 29.8526,48.7228 C29.8526,47.9138 29.1966,47.2578 28.3876,47.2578 L28.0556,47.2578 L28.0556,46.9258 C28.0556,46.1168 27.3996,45.4608 26.5916,45.4608 C25.7816,45.4608 25.1266,46.1168 25.1266,46.9258 L25.1266,47.2578 L24.7936,47.2578 C23.9836,47.2578 23.3286,47.9138 23.3286,48.7228 C23.3286,49.5318 23.9836,50.1878 24.7936,50.1878 L24.7936,50.1878 Z M34.1566,79.3098 L34.4896,79.3098 L34.4896,79.6428 C34.4896,80.4518 35.1446,81.1078 35.9546,81.1078 C36.7636,81.1078 37.4196,80.4518 37.4196,79.6428 L37.4196,79.3098 L37.7526,79.3098 C38.5606,79.3098 39.2176,78.6548 39.2176,77.8448 C39.2176,77.0368 38.5606,76.3798 37.7526,76.3798 L37.4196,76.3798 L37.4196,76.0478 C37.4196,75.2398 36.7636,74.5838 35.9546,74.5838 C35.1446,74.5838 34.4896,75.2398 34.4896,76.0478 L34.4896,76.3798 L34.1566,76.3798 C33.3476,76.3798 32.6916,77.0368 32.6916,77.8448 C32.6916,78.6548 33.3476,79.3098 34.1566,79.3098 L34.1566,79.3098 Z M62.2486,79.3098 L62.5806,79.3098 L62.5806,79.6428 C62.5806,80.4518 63.2366,81.1078 64.0456,81.1078 C64.8546,81.1078 65.5106,80.4518 65.5106,79.6428 L65.5106,79.3098 L65.8436,79.3098 C66.6526,79.3098 67.3076,78.6548 67.3076,77.8448 C67.3076,77.0368 66.6526,76.3798 65.8436,76.3798 L65.5106,76.3798 L65.5106,76.0478 C65.5106,75.2398 64.8546,74.5838 64.0456,74.5838 C63.2366,74.5838 62.5806,75.2398 62.5806,76.0478 L62.5806,76.3798 L62.2486,76.3798 C61.4396,76.3798 60.7836,77.0368 60.7836,77.8448 C60.7836,78.6548 61.4396,79.3098 62.2486,79.3098 L62.2486,79.3098 Z M24.7936,40.5678 L25.1266,40.5678 L25.1266,40.8998 C25.1266,41.7088 25.7816,42.3648 26.5916,42.3648 C27.3996,42.3648 28.0556,41.7088 28.0556,40.8998 L28.0556,40.5678 L28.3876,40.5678 C29.1966,40.5678 29.8526,39.9118 29.8526,39.1028 C29.8526,38.2938 29.1966,37.6378 28.3876,37.6378 L28.0556,37.6378 L28.0556,37.3048 C28.0556,36.4968 27.3996,35.8398 26.5916,35.8398 C25.7816,35.8398 25.1266,36.4968 25.1266,37.3048 L25.1266,37.6378 L24.7936,37.6378 C23.9836,37.6378 23.3286,38.2938 23.3286,39.1028 C23.3286,39.9118 23.9836,40.5678 24.7936,40.5678 L24.7936,40.5678 Z M24.7936,69.3348 L25.1266,69.3348 L25.1266,69.6678 C25.1266,70.4768 25.7816,71.1328 26.5916,71.1328 C27.3996,71.1328 28.0556,70.4768 28.0556,69.6678 L28.0556,69.3348 L28.3876,69.3348 C29.1966,69.3348 29.8526,68.6788 29.8526,67.8708 C29.8526,67.0618 29.1966,66.4058 28.3876,66.4058 L28.0556,66.4058 L28.0556,66.0738 C28.0556,65.2638 27.3996,64.6088 26.5916,64.6088 C25.7816,64.6088 25.1266,65.2638 25.1266,66.0738 L25.1266,66.4058 L24.7936,66.4058 C23.9836,66.4058 23.3286,67.0618 23.3286,67.8708 C23.3286,68.6788 23.9836,69.3348 24.7936,69.3348 L24.7936,69.3348 Z M24.7936,59.7148 L25.1266,59.7148 L25.1266,60.0468 C25.1266,60.8568 25.7816,61.5118 26.5916,61.5118 C27.3996,61.5118 28.0556,60.8568 28.0556,60.0468 L28.0556,59.7148 L28.3876,59.7148 C29.1966,59.7148 29.8526,59.0598 29.8526,58.2508 C29.8526,57.4408 29.1966,56.7858 28.3876,56.7858 L28.0556,56.7858 L28.0556,56.4528 C28.0556,55.6438 27.3996,54.9878 26.5916,54.9878 C25.7816,54.9878 25.1266,55.6438 25.1266,56.4528 L25.1266,56.7858 L24.7936,56.7858 C23.9836,56.7858 23.3286,57.4408 23.3286,58.2508 C23.3286,59.0598 23.9836,59.7148 24.7936,59.7148 L24.7936,59.7148 Z M34.1566,59.7148 L34.4896,59.7148 L34.4896,60.0468 C34.4896,60.8568 35.1446,61.5118 35.9546,61.5118 C36.7636,61.5118 37.4196,60.8568 37.4196,60.0468 L37.4196,59.7148 L37.7526,59.7148 C38.5606,59.7148 39.2176,59.0598 39.2176,58.2508 C39.2176,57.4408 38.5606,56.7858 37.7526,56.7858 L37.4196,56.7858 L37.4196,56.4528 C37.4196,55.6438 36.7636,54.9878 35.9546,54.9878 C35.1446,54.9878 34.4896,55.6438 34.4896,56.4528 L34.4896,56.7858 L34.1566,56.7858 C33.3476,56.7858 32.6916,57.4408 32.6916,58.2508 C32.6916,59.0598 33.3476,59.7148 34.1566,59.7148 L34.1566,59.7148 Z M15.4286,50.1878 L15.7616,50.1878 L15.7616,50.5208 C15.7616,51.3298 16.4176,51.9858 17.2266,51.9858 C18.0356,51.9858 18.6916,51.3298 18.6916,50.5208 L18.6916,50.1878 L19.0236,50.1878 C19.8336,50.1878 20.4886,49.5318 20.4886,48.7228 C20.4886,47.9138 19.8336,47.2578 19.0236,47.2578 L18.6916,47.2578 L18.6916,46.9258 C18.6916,46.1168 18.0356,45.4608 17.2266,45.4608 C16.4176,45.4608 15.7616,46.1168 15.7616,46.9258 L15.7616,47.2578 L15.4286,47.2578 C14.6206,47.2578 13.9646,47.9138 13.9646,48.7228 C13.9646,49.5318 14.6206,50.1878 15.4286,50.1878 L15.4286,50.1878 Z M76.7276,18.7278 C75.9196,18.7278 75.2626,19.3828 75.2626,20.1928 L75.2626,25.0018 C75.2626,25.8108 75.9196,26.4668 76.7276,26.4668 C77.5376,26.4668 78.1926,25.8108 78.1926,25.0018 L78.1926,20.1928 C78.1926,19.3828 77.5376,18.7278 76.7276,18.7278 L76.7276,18.7278 Z M83.1416,18.7278 C82.3326,18.7278 81.6776,19.3828 81.6776,20.1928 L81.6776,25.0018 C81.6776,25.8108 82.3326,26.4668 83.1416,26.4668 C83.9506,26.4668 84.6066,25.8108 84.6066,25.0018 L84.6066,20.1928 C84.6066,19.3828 83.9506,18.7278 83.1416,18.7278 L83.1416,18.7278 Z M80.9756,40.5678 L81.3086,40.5678 L81.3086,40.8998 C81.3086,41.7088 81.9646,42.3648 82.7736,42.3648 C83.5826,42.3648 84.2386,41.7088 84.2386,40.8998 L84.2386,40.5678 L84.5706,40.5678 C85.3806,40.5678 86.0356,39.9118 86.0356,39.1028 C86.0356,38.2938 85.3806,37.6378 84.5706,37.6378 L84.2386,37.6378 L84.2386,37.3048 C84.2386,36.4968 83.5826,35.8398 82.7736,35.8398 C81.9646,35.8398 81.3086,36.4968 81.3086,37.3048 L81.3086,37.6378 L80.9756,37.6378 C80.1666,37.6378 79.5106,38.2938 79.5106,39.1028 C79.5106,39.9118 80.1666,40.5678 80.9756,40.5678 L80.9756,40.5678 Z M62.2486,69.3348 L62.5806,69.3348 L62.5806,69.6678 C62.5806,70.4768 63.2366,71.1328 64.0456,71.1328 C64.8546,71.1328 65.5106,70.4768 65.5106,69.6678 L65.5106,69.3348 L65.8436,69.3348 C66.6526,69.3348 67.3076,68.6788 67.3076,67.8708 C67.3076,67.0618 66.6526,66.4058 65.8436,66.4058 L65.5106,66.4058 L65.5106,66.0738 C65.5106,65.2638 64.8546,64.6088 64.0456,64.6088 C63.2366,64.6088 62.5806,65.2638 62.5806,66.0738 L62.5806,66.4058 L62.2486,66.4058 C61.4396,66.4058 60.7836,67.0618 60.7836,67.8708 C60.7836,68.6788 61.4396,69.3348 62.2486,69.3348 L62.2486,69.3348 Z M32.1346,22.5978 C32.1346,21.6308 31.3476,20.8448 30.3826,20.8448 C29.4166,20.8448 28.6306,21.6308 28.6306,22.5978 C28.6306,23.5638 29.4166,24.3498 30.3826,24.3498 C31.3476,24.3498 32.1346,23.5638 32.1346,22.5978 L32.1346,22.5978 Z M35.0636,22.5978 C35.0636,25.1788 32.9636,27.2798 30.3826,27.2798 C27.8016,27.2798 25.7006,25.1788 25.7006,22.5978 C25.7006,20.0158 27.8016,17.9158 30.3826,17.9158 C32.9636,17.9158 35.0636,20.0158 35.0636,22.5978 L35.0636,22.5978 Z M80.9756,50.1878 L81.3086,50.1878 L81.3086,50.5208 C81.3086,51.3298 81.9646,51.9858 82.7736,51.9858 C83.5826,51.9858 84.2386,51.3298 84.2386,50.5208 L84.2386,50.1878 L84.5706,50.1878 C85.3806,50.1878 86.0356,49.5318 86.0356,48.7228 C86.0356,47.9138 85.3806,47.2578 84.5706,47.2578 L84.2386,47.2578 L84.2386,46.9258 C84.2386,46.1168 83.5826,45.4608 82.7736,45.4608 C81.9646,45.4608 81.3086,46.1168 81.3086,46.9258 L81.3086,47.2578 L80.9756,47.2578 C80.1666,47.2578 79.5106,47.9138 79.5106,48.7228 C79.5106,49.5318 80.1666,50.1878 80.9756,50.1878 L80.9756,50.1878 Z M92.4236,77.8938 L97.0706,77.8938 L97.0706,22.1058 L92.4236,22.1058 L92.4236,77.8938 Z M97.0706,80.8238 L92.4236,80.8238 L92.4236,84.6248 C92.4236,86.1678 91.1686,87.4228 89.6246,87.4228 L85.8236,87.4228 L85.8236,92.0708 L92.4736,92.0708 C95.0086,92.0708 97.0706,90.0078 97.0706,87.4738 L97.0706,80.8238 Z M17.1056,92.0698 L82.8936,92.0698 L82.8936,87.4228 L17.1056,87.4228 L17.1056,92.0698 Z M14.1766,87.4228 L10.3756,87.4228 C8.8316,87.4228 7.5766,86.1678 7.5766,84.6248 L7.5766,80.8238 L2.9296,80.8238 L2.9296,87.4738 C2.9296,90.0078 4.9916,92.0708 7.5266,92.0708 L14.1766,92.0708 L14.1766,87.4228 Z M2.9296,77.8938 L7.5756,77.8938 L7.5756,22.1058 L2.9296,22.1058 L2.9296,77.8938 Z M2.9296,19.1758 L7.5766,19.1758 L7.5766,15.3748 C7.5766,13.8318 8.8316,12.5768 10.3756,12.5768 L14.1766,12.5768 L14.1766,7.9298 L7.5266,7.9298 C4.9916,7.9298 2.9296,9.9918 2.9296,12.5268 L2.9296,19.1758 Z M17.1056,12.5768 L82.8936,12.5768 L82.8936,7.9308 L17.1056,7.9308 L17.1056,12.5768 Z M10.5066,84.4938 L89.4936,84.4938 L89.4936,32.6188 L10.5066,32.6188 L10.5066,84.4938 Z M10.5066,29.6888 L89.4936,29.6888 L89.4936,15.5058 L10.5066,15.5058 L10.5066,29.6888 Z M85.8236,12.5768 L89.6246,12.5768 C91.1686,12.5768 92.4236,13.8318 92.4236,15.3748 L92.4236,19.1758 L97.0706,19.1758 L97.0706,12.5268 C97.0706,9.9918 95.0096,7.9298 92.4736,7.9298 L85.8236,7.9298 L85.8236,12.5768 Z M100.0006,12.5258 L100.0006,87.4738 C100.0006,91.6248 96.6246,95.0008 92.4736,95.0008 L7.5266,95.0008 C3.3766,95.0008 0.0006,91.6248 0.0006,87.4738 L0.0006,12.5268 C0.0006,8.3758 3.3766,4.9998 7.5266,4.9998 L92.4736,4.9998 C96.6246,4.9998 100.0006,8.3758 100.0006,12.5258 L100.0006,12.5258 Z M70.3146,18.7278 C69.5056,18.7278 68.8496,19.3828 68.8496,20.1928 L68.8496,25.0018 C68.8496,25.8108 69.5056,26.4668 70.3146,26.4668 C71.1236,26.4668 71.7796,25.8108 71.7796,25.0018 L71.7796,20.1928 C71.7796,19.3828 71.1236,18.7278 70.3146,18.7278 L70.3146,18.7278 Z M43.0446,22.5978 C43.0446,21.6308 42.2586,20.8448 41.2916,20.8448 C40.3256,20.8448 39.5406,21.6308 39.5406,22.5978 C39.5406,23.5638 40.3256,24.3498 41.2916,24.3498 C42.2586,24.3498 43.0446,23.5638 43.0446,22.5978 L43.0446,22.5978 Z M45.9736,22.5978 C45.9736,25.1788 43.8736,27.2798 41.2916,27.2798 C38.7106,27.2798 36.6106,25.1788 36.6106,22.5978 C36.6106,20.0158 38.7106,17.9158 41.2916,17.9158 C43.8736,17.9158 45.9736,20.0158 45.9736,22.5978 L45.9736,22.5978 Z M63.9006,18.7278 C63.0926,18.7278 62.4356,19.3828 62.4356,20.1928 L62.4356,25.0018 C62.4356,25.8108 63.0926,26.4668 63.9006,26.4668 C64.7106,26.4668 65.3656,25.8108 65.3656,25.0018 L65.3656,20.1928 C65.3656,19.3828 64.7106,18.7278 63.9006,18.7278 L63.9006,18.7278 Z M71.6126,59.7148 L71.9456,59.7148 L71.9456,60.0468 C71.9456,60.8568 72.6006,61.5118 73.4106,61.5118 C74.2196,61.5118 74.8756,60.8568 74.8756,60.0468 L74.8756,59.7148 L75.2066,59.7148 C76.0156,59.7148 76.6716,59.0598 76.6716,58.2508 C76.6716,57.4408 76.0156,56.7858 75.2066,56.7858 L74.8756,56.7858 L74.8756,56.4528 C74.8756,55.6438 74.2196,54.9878 73.4106,54.9878 C72.6006,54.9878 71.9456,55.6438 71.9456,56.4528 L71.9456,56.7858 L71.6126,56.7858 C70.8026,56.7858 70.1476,57.4408 70.1476,58.2508 C70.1476,59.0598 70.8026,59.7148 71.6126,59.7148 L71.6126,59.7148 Z M80.9756,59.7148 L81.3086,59.7148 L81.3086,60.0468 C81.3086,60.8568 81.9646,61.5118 82.7736,61.5118 C83.5826,61.5118 84.2386,60.8568 84.2386,60.0468 L84.2386,59.7148 L84.5706,59.7148 C85.3806,59.7148 86.0356,59.0598 86.0356,58.2508 C86.0356,57.4408 85.3806,56.7858 84.5706,56.7858 L84.2386,56.7858 L84.2386,56.4528 C84.2386,55.6438 83.5826,54.9878 82.7736,54.9878 C81.9646,54.9878 81.3086,55.6438 81.3086,56.4528 L81.3086,56.7858 L80.9756,56.7858 C80.1666,56.7858 79.5106,57.4408 79.5106,58.2508 C79.5106,59.0598 80.1666,59.7148 80.9756,59.7148 L80.9756,59.7148 Z M71.6126,79.3098 L71.9456,79.3098 L71.9456,79.6428 C71.9456,80.4518 72.6006,81.1078 73.4106,81.1078 C74.2196,81.1078 74.8756,80.4518 74.8756,79.6428 L74.8756,79.3098 L75.2066,79.3098 C76.0156,79.3098 76.6716,78.6548 76.6716,77.8448 C76.6716,77.0368 76.0156,76.3798 75.2066,76.3798 L74.8756,76.3798 L74.8756,76.0478 C74.8756,75.2398 74.2196,74.5838 73.4106,74.5838 C72.6006,74.5838 71.9456,75.2398 71.9456,76.0478 L71.9456,76.3798 L71.6126,76.3798 C70.8026,76.3798 70.1476,77.0368 70.1476,77.8448 C70.1476,78.6548 70.8026,79.3098 71.6126,79.3098 L71.6126,79.3098 Z M71.6126,69.3348 L71.9456,69.3348 L71.9456,69.6678 C71.9456,70.4768 72.6006,71.1328 73.4106,71.1328 C74.2196,71.1328 74.8756,70.4768 74.8756,69.6678 L74.8756,69.3348 L75.2066,69.3348 C76.0156,69.3348 76.6716,68.6788 76.6716,67.8708 C76.6716,67.0618 76.0156,66.4058 75.2066,66.4058 L74.8756,66.4058 L74.8756,66.0738 C74.8756,65.2638 74.2196,64.6088 73.4106,64.6088 C72.6006,64.6088 71.9456,65.2638 71.9456,66.0738 L71.9456,66.4058 L71.6126,66.4058 C70.8026,66.4058 70.1476,67.0618 70.1476,67.8708 C70.1476,68.6788 70.8026,69.3348 71.6126,69.3348 L71.6126,69.3348 Z M62.2486,50.1878 L62.5806,50.1878 L62.5806,50.5208 C62.5806,51.3298 63.2366,51.9858 64.0456,51.9858 C64.8546,51.9858 65.5106,51.3298 65.5106,50.5208 L65.5106,50.1878 L65.8436,50.1878 C66.6526,50.1878 67.3076,49.5318 67.3076,48.7228 C67.3076,47.9138 66.6526,47.2578 65.8436,47.2578 L65.5106,47.2578 L65.5106,46.9258 C65.5106,46.1168 64.8546,45.4608 64.0456,45.4608 C63.2366,45.4608 62.5806,46.1168 62.5806,46.9258 L62.5806,47.2578 L62.2486,47.2578 C61.4396,47.2578 60.7836,47.9138 60.7836,48.7228 C60.7836,49.5318 61.4396,50.1878 62.2486,50.1878 L62.2486,50.1878 Z M62.2486,59.7148 L62.5806,59.7148 L62.5806,60.0468 C62.5806,60.8568 63.2366,61.5118 64.0456,61.5118 C64.8546,61.5118 65.5106,60.8568 65.5106,60.0468 L65.5106,59.7148 L65.8436,59.7148 C66.6526,59.7148 67.3076,59.0598 67.3076,58.2508 C67.3076,57.4408 66.6526,56.7858 65.8436,56.7858 L65.5106,56.7858 L65.5106,56.4528 C65.5106,55.6438 64.8546,54.9878 64.0456,54.9878 C63.2366,54.9878 62.5806,55.6438 62.5806,56.4528 L62.5806,56.7858 L62.2486,56.7858 C61.4396,56.7858 60.7836,57.4408 60.7836,58.2508 C60.7836,59.0598 61.4396,59.7148 62.2486,59.7148 L62.2486,59.7148 Z M62.2486,40.5678 L62.5806,40.5678 L62.5806,40.8998 C62.5806,41.7088 63.2366,42.3648 64.0456,42.3648 C64.8546,42.3648 65.5106,41.7088 65.5106,40.8998 L65.5106,40.5678 L65.8436,40.5678 C66.6526,40.5678 67.3076,39.9118 67.3076,39.1028 C67.3076,38.2938 66.6526,37.6378 65.8436,37.6378 L65.5106,37.6378 L65.5106,37.3048 C65.5106,36.4968 64.8546,35.8398 64.0456,35.8398 C63.2366,35.8398 62.5806,36.4968 62.5806,37.3048 L62.5806,37.6378 L62.2486,37.6378 C61.4396,37.6378 60.7836,38.2938 60.7836,39.1028 C60.7836,39.9118 61.4396,40.5678 62.2486,40.5678 L62.2486,40.5678 Z M80.9756,69.3348 L81.3086,69.3348 L81.3086,69.6678 C81.3086,70.4768 81.9646,71.1328 82.7736,71.1328 C83.5826,71.1328 84.2386,70.4768 84.2386,69.6678 L84.2386,69.3348 L84.5706,69.3348 C85.3806,69.3348 86.0356,68.6788 86.0356,67.8708 C86.0356,67.0618 85.3806,66.4058 84.5706,66.4058 L84.2386,66.4058 L84.2386,66.0738 C84.2386,65.2638 83.5826,64.6088 82.7736,64.6088 C81.9646,64.6088 81.3086,65.2638 81.3086,66.0738 L81.3086,66.4058 L80.9756,66.4058 C80.1666,66.4058 79.5106,67.0618 79.5106,67.8708 C79.5106,68.6788 80.1666,69.3348 80.9756,69.3348 L80.9756,69.3348 Z M80.9756,79.3098 L81.3086,79.3098 L81.3086,79.6428 C81.3086,80.4518 81.9646,81.1078 82.7736,81.1078 C83.5826,81.1078 84.2386,80.4518 84.2386,79.6428 L84.2386,79.3098 L84.5706,79.3098 C85.3806,79.3098 86.0356,78.6548 86.0356,77.8448 C86.0356,77.0368 85.3806,76.3798 84.5706,76.3798 L84.2386,76.3798 L84.2386,76.0478 C84.2386,75.2398 83.5826,74.5838 82.7736,74.5838 C81.9646,74.5838 81.3086,75.2398 81.3086,76.0478 L81.3086,76.3798 L80.9756,76.3798 C80.1666,76.3798 79.5106,77.0368 79.5106,77.8448 C79.5106,78.6548 80.1666,79.3098 80.9756,79.3098 L80.9756,79.3098 Z M21.2236,22.5978 C21.2236,21.6308 20.4376,20.8448 19.4716,20.8448 C18.5066,20.8448 17.7196,21.6308 17.7196,22.5978 C17.7196,23.5638 18.5066,24.3498 19.4716,24.3498 C20.4386,24.3498 21.2236,23.5638 21.2236,22.5978 L21.2236,22.5978 Z M24.1536,22.5978 C24.1536,25.1788 22.0526,27.2798 19.4716,27.2798 C16.8906,27.2798 14.7906,25.1788 14.7906,22.5978 C14.7906,20.0158 16.8906,17.9158 19.4716,17.9158 C22.0526,17.9158 24.1536,20.0158 24.1536,22.5978 L24.1536,22.5978 Z M71.6126,40.5678 L71.9456,40.5678 L71.9456,40.8998 C71.9456,41.7088 72.6006,42.3648 73.4106,42.3648 C74.2196,42.3648 74.8756,41.7088 74.8756,40.8998 L74.8756,40.5678 L75.2066,40.5678 C76.0156,40.5678 76.6716,39.9118 76.6716,39.1028 C76.6716,38.2938 76.0156,37.6378 75.2066,37.6378 L74.8756,37.6378 L74.8756,37.3048 C74.8756,36.4968 74.2196,35.8398 73.4106,35.8398 C72.6006,35.8398 71.9456,36.4968 71.9456,37.3048 L71.9456,37.6378 L71.6126,37.6378 C70.8026,37.6378 70.1476,38.2938 70.1476,39.1028 C70.1476,39.9118 70.8026,40.5678 71.6126,40.5678 L71.6126,40.5678 Z M70.1476,48.7228 C70.1476,47.9138 70.8026,47.2578 71.6126,47.2578 L71.9456,47.2578 L71.9456,46.9258 C71.9456,46.1168 72.6006,45.4608 73.4106,45.4608 C74.2196,45.4608 74.8756,46.1168 74.8756,46.9258 L74.8756,47.2578 L75.2066,47.2578 C76.0156,47.2578 76.6716,47.9138 76.6716,48.7228 C76.6716,49.5318 76.0156,50.1878 75.2066,50.1878 L74.8756,50.1878 L74.8756,50.5208 C74.8756,51.3298 74.2196,51.9858 73.4106,51.9858 C72.6006,51.9858 71.9456,51.3298 71.9456,50.5208 L71.9456,50.1878 L71.6126,50.1878 C70.8026,50.1878 70.1476,49.5318 70.1476,48.7228 L70.1476,48.7228 Z"
              id="Fill-1" fill="#3A4B60"></path>
    </g>
</svg>