<?xml version="1.0" encoding="UTF-8"?>
<svg width="100px" height="100px" viewBox="0 0 100 100" version="1.1" xmlns="http://www.w3.org/2000/svg" xmlns:xlink="http://www.w3.org/1999/xlink">
    <!-- Generator: Sketch 63.1 (92452) - https://sketch.com -->
    <title>icon / furniture / animal-taxidermy-mount</title>
    <desc>Created with Sketch.</desc>
    <g id="icon-/-furniture-/-animal-taxidermy-mount" stroke="none" stroke-width="1" fill="none" fill-rule="evenodd">
        <path d="M97.0401,13.9736 C95.0041,17.8816 92.2481,21.5796 88.6151,25.2806 C85.1991,28.7566 81.2231,31.9476 76.7981,34.7606 C76.1441,35.1776 75.5381,35.7246 74.9541,36.2526 L74.8971,36.3036 C74.7061,36.4756 74.5151,36.6486 74.3211,36.8156 C73.8281,37.2446 73.3421,37.6816 72.8561,38.1196 L72.8181,38.1526 C71.9471,38.9366 71.0631,39.7336 70.1471,40.4686 C65.6231,44.1056 62.9391,49.0446 61.9421,55.5676 L61.3471,58.6616 C61.4481,58.7796 61.5331,58.9666 61.5331,59.0726 C61.5331,59.1626 61.4961,59.2416 61.4271,59.2926 C61.3461,59.3536 61.2381,59.3786 61.0681,59.3566 C60.9511,59.3446 60.8291,59.3396 60.7081,59.3396 C59.8731,59.3396 59.0401,59.6336 58.2301,60.2136 C58.0991,60.3076 57.9531,60.3556 57.7971,60.3556 C56.8781,60.3556 55.9231,58.6686 55.7301,57.7866 C55.6151,57.2576 55.7661,57.0656 55.9141,56.9976 C57.5751,56.2366 58.2801,55.1626 58.2711,53.4106 C58.2701,53.3056 58.2691,53.1326 58.3361,52.9656 C59.0831,51.1186 58.8111,49.7356 57.3921,48.1956 C55.4041,46.0366 55.3251,42.9196 55.4381,40.7656 C55.5081,39.4076 56.2071,38.6276 57.3581,38.6276 C57.3961,38.6276 57.4361,38.6286 57.4751,38.6316 C58.7481,38.6866 59.4641,39.5426 59.4371,40.9816 C59.4081,42.5516 59.5271,44.3536 60.6001,45.8956 C60.8401,45.5246 61.0761,45.1546 61.3091,44.7866 C62.0991,43.5426 62.8451,42.3696 63.7421,41.2576 C64.6371,40.1546 65.6371,39.1706 66.6961,38.1286 L66.8351,37.9916 C67.1741,37.6586 67.5161,37.3216 67.8591,36.9736 C66.1251,34.0726 65.6101,30.7586 66.3281,27.1216 C66.4541,26.4856 66.5911,25.9416 66.7451,25.4576 C67.1731,24.1196 67.9741,23.8366 68.5701,23.8366 C68.7861,23.8366 69.0161,23.8726 69.2521,23.9436 C70.8461,24.4216 70.6651,25.9086 70.5881,26.5426 C70.5501,26.8606 70.5091,27.1766 70.4671,27.4946 C70.2981,28.7866 70.1231,30.1246 70.1771,31.4146 C70.2071,32.1596 70.4581,32.9106 70.7481,33.7836 C70.8201,33.9976 70.8931,34.2166 70.9651,34.4436 C72.4851,32.9226 73.5501,31.2876 74.4011,29.1726 C75.6361,26.1046 76.0421,22.8266 75.6081,19.4256 C75.5371,18.8686 75.3211,17.1656 77.1861,16.8376 C77.7911,16.7336 78.2711,16.8236 78.6591,17.0966 C79.1081,17.4146 79.3921,17.9666 79.5271,18.7806 C80.0101,21.6866 79.8431,24.7246 79.0191,28.0656 C78.9951,28.1616 78.9721,28.2576 78.9491,28.3586 C82.6271,25.6656 85.4451,23.0546 87.7951,20.1636 C89.5121,18.0506 91.0561,15.7216 92.5501,13.4696 L93.5021,12.0366 C93.8891,11.4556 94.4721,10.5836 95.4281,10.5836 C95.7331,10.5836 96.0581,10.6746 96.3941,10.8526 C97.2071,11.2836 97.9771,12.1746 97.0401,13.9736 L97.0401,13.9736 Z M79.2951,58.1196 C79.2951,67.4146 74.2931,76.0776 66.2431,80.7266 L55.5981,87.9626 C53.8981,88.9466 51.9681,89.4616 50.0051,89.4616 C48.0421,89.4616 46.1111,88.9466 44.4201,87.9696 L33.7571,80.7206 C25.7161,76.0786 20.7151,67.4156 20.7151,58.1196 L20.7151,36.2486 L20.9541,36.4226 C22.2031,37.3326 23.6551,38.3936 25.0671,39.4806 L25.1261,39.5256 L25.1261,58.1196 C25.1261,65.8446 29.2831,73.0426 35.9731,76.9066 L46.6371,84.1556 C47.6501,84.7406 48.8181,85.0516 50.0041,85.0516 C51.1901,85.0516 52.3581,84.7406 53.3821,84.1496 L64.0271,76.9116 C70.7271,73.0416 74.8831,65.8436 74.8831,58.1196 L74.8831,39.7136 L74.9331,39.6686 C75.2841,39.3526 75.6331,39.0376 75.9841,38.7326 C76.1841,38.5606 76.3831,38.3806 76.5831,38.2016 L76.6521,38.1386 C77.1581,37.6806 77.6831,37.2056 78.1611,36.9026 C78.3311,36.7936 78.4941,36.6816 78.6581,36.5696 C78.7911,36.4756 78.9251,36.3836 79.0611,36.2946 L79.2951,36.1416 L79.2951,58.1196 Z M16.2521,29.6796 C10.8101,25.2186 6.6651,20.4436 3.5791,15.0796 C3.3281,14.6436 3.0841,14.1776 2.8551,13.6956 C2.5241,12.9926 2.4511,12.3716 2.6401,11.8486 C2.8071,11.3826 3.1701,11.0156 3.7211,10.7576 C4.8141,10.2486 5.7441,10.6326 6.4321,11.8666 C7.0731,13.0136 7.7351,14.1986 8.4701,15.2966 C11.8001,20.2716 16.0121,24.6056 21.3371,28.5366 C21.3051,28.2766 21.2731,28.0156 21.2401,27.7546 L21.1961,27.3996 C20.9911,25.7756 20.7601,23.9336 20.6151,22.1586 C20.5261,21.0746 20.6711,19.9756 20.8111,18.9136 L20.8331,18.7386 C21.0081,17.4006 21.8401,16.6906 23.1011,16.8456 C23.7011,16.9246 24.1531,17.1576 24.4461,17.5386 C24.7711,17.9616 24.8871,18.5376 24.7901,19.2516 C24.2551,23.1576 24.6861,26.5016 26.1041,29.4766 C26.7201,30.7676 27.5091,31.9886 28.3451,33.2816 L28.3741,33.3266 C28.6391,33.7366 28.9081,34.1526 29.1791,34.5816 C30.5851,32.1006 30.4471,29.8296 30.1201,27.9276 C30.0401,27.4606 29.9081,26.9896 29.8021,26.6296 C29.4221,25.3436 29.8911,24.3776 31.0881,23.9816 C31.6461,23.7956 32.1541,23.8156 32.5831,24.0396 C33.0641,24.2886 33.4141,24.7706 33.6231,25.4676 C34.8281,29.4706 34.5291,33.2166 32.7331,36.6046 C32.6471,36.7666 32.5581,36.9256 32.4491,37.1196 C35.4941,39.4866 37.8631,42.3906 39.6831,45.9876 C40.4511,44.9196 40.8511,43.7516 40.9371,42.3316 L40.9471,42.1846 C40.9721,41.7756 40.9971,41.3726 40.9691,41.0006 C40.9151,40.2756 41.0881,39.6726 41.4681,39.2586 C41.8181,38.8756 42.3331,38.6676 42.9561,38.6596 C44.2161,38.6596 44.9361,39.5126 44.9581,40.9976 C45.0191,44.8286 43.9921,47.6326 41.7231,49.8206 C41.5921,49.9466 41.4771,50.3786 41.5251,50.7476 C41.5741,51.1206 41.6821,51.5006 41.7871,51.8696 C41.9371,52.3966 42.0911,52.9386 42.1051,53.5066 C42.1471,55.2526 42.8111,56.2716 44.3971,57.0196 C44.5741,57.1036 44.6221,57.3346 44.5381,57.7056 C44.3521,58.5296 43.3881,60.4006 42.4941,60.4006 C42.3631,60.4006 42.2411,60.3596 42.1321,60.2806 C41.1811,59.5886 40.1931,59.2846 39.2001,59.3806 C38.9331,59.3996 38.8141,59.2926 38.7541,59.1996 C38.5651,58.9046 38.7721,58.3596 38.8531,58.1736 L38.4161,55.5546 C37.4501,49.3066 34.6371,44.2386 29.8171,40.0616 C27.4531,38.0126 24.8901,36.1476 22.4111,34.3446 C20.3651,32.8556 18.2501,31.3166 16.2521,29.6796 L16.2521,29.6796 Z M35.8941,36.3066 C35.9211,36.3316 35.9491,36.3576 35.9771,36.3826 C43.1811,34.3746 47.3711,30.8436 49.8991,28.3576 L50.0041,28.2546 L50.1101,28.3576 C52.6881,30.8926 56.9781,34.4926 64.4281,36.4846 L64.6831,36.5516 L64.4961,36.7366 C63.6841,37.5376 62.8241,38.3996 62.0191,39.3586 L61.8381,39.5756 L61.7601,39.3036 C61.2061,37.3836 59.6451,36.1846 57.5831,36.0946 C57.5111,36.0926 57.4341,36.0906 57.3581,36.0906 C54.8731,36.0906 53.0411,37.9586 52.9031,40.6336 C52.7661,43.2456 52.8891,47.0506 55.5241,49.9136 C56.3631,50.8256 56.3241,51.1726 55.9841,52.0136 C55.7311,52.6476 55.7321,53.2056 55.7331,53.4156 C55.7371,54.1066 55.7031,54.3026 54.8561,54.6916 C53.8501,55.1526 52.8261,56.3826 53.2511,58.3286 C53.5771,59.8186 55.1161,62.8926 57.7971,62.8926 C58.4851,62.8926 59.1451,62.6796 59.7081,62.2766 C60.1231,61.9796 60.4811,61.8556 60.8171,61.8826 C60.9471,61.8966 61.0631,61.9006 61.1691,61.9006 C62.7961,61.9006 64.0711,60.6596 64.0721,59.0736 C64.0721,58.8596 64.0451,58.6376 63.9931,58.4156 L63.9861,58.3846 L64.4521,55.9516 C65.3471,50.0846 67.7311,45.6676 71.7381,42.4456 C71.8071,42.3906 71.8731,42.3326 71.9401,42.2766 C71.9921,42.2316 72.0451,42.1866 72.0991,42.1416 L72.3451,41.9386 L72.3451,58.1196 C72.3451,64.9396 68.6751,71.2956 62.7681,74.7076 L62.6011,74.8136 L52.0431,81.9906 C51.4151,82.3346 50.7141,82.5146 50.0041,82.5146 C49.2941,82.5146 48.5941,82.3346 47.9781,81.9976 L37.2421,74.7076 C31.3341,71.2956 27.6651,64.9396 27.6651,58.1196 L27.6651,41.5626 L27.9131,41.7786 C27.9511,41.8106 27.9901,41.8416 28.0281,41.8726 C28.0711,41.9086 28.1141,41.9436 28.1561,41.9796 C32.5021,45.7456 35.0381,50.3136 35.9091,55.9426 L36.2481,57.9826 L36.2411,58.0116 C36.0181,58.9706 36.1441,59.8306 36.6171,60.5676 C37.1591,61.4156 38.0981,61.9216 39.1291,61.9216 C39.2271,61.9216 39.3321,61.9176 39.4421,61.9076 C39.4821,61.9046 39.5211,61.9016 39.5611,61.9016 C39.6811,61.9016 40.0471,61.9016 40.6401,62.3326 C41.1821,62.7296 41.8231,62.9376 42.4941,62.9376 C45.3711,62.9376 46.7911,59.2526 47.0131,58.2656 C47.4361,56.3906 46.4551,55.1876 45.4871,54.7286 C44.7481,54.3796 44.6621,54.2466 44.6431,53.4476 C44.6211,52.5556 44.4041,51.7926 44.2301,51.1786 L44.1641,50.9436 L44.2181,50.8816 C46.4891,48.3146 47.5611,45.0686 47.4961,40.9566 C47.4521,38.1096 45.5981,36.1206 42.9871,36.1206 L42.9291,36.1216 C41.6021,36.1406 40.4181,36.6466 39.5961,37.5456 C39.1491,38.0316 38.8241,38.6156 38.6281,39.2796 L38.5481,39.5506 L38.3681,39.3326 C37.6051,38.4116 36.7741,37.5346 35.8951,36.7176 L35.8891,36.7196 L35.8271,36.6626 C35.8011,36.6386 35.7751,36.6136 35.7491,36.5876 L35.6891,36.5276 L35.8941,36.3066 Z M36.5721,33.2276 L36.5911,33.2206 C36.8621,31.8206 36.9421,30.3606 36.8311,28.8836 L36.8221,28.7726 L36.9251,28.7316 C41.7611,26.8026 44.3501,24.1246 46.2411,22.1696 L46.2821,22.1266 C47.2651,21.1116 48.5861,20.5506 50.0051,20.5506 C51.4231,20.5506 52.7451,21.1116 53.7271,22.1266 C55.5821,24.0456 58.3571,26.9156 63.4261,28.8586 L63.5301,28.8976 L63.5221,29.0086 C63.4161,30.5116 63.5101,31.9946 63.7981,33.4166 L63.8491,33.6686 L63.6051,33.5896 C56.4861,31.3276 52.7741,27.4886 50.5561,25.1946 C50.2601,24.8906 49.7481,24.8896 49.4531,25.1936 C47.2781,27.4436 43.6381,31.2086 36.7691,33.4786 L36.7271,33.3526 L36.5721,33.3366 L36.5721,33.2276 Z M97.5841,8.6116 C96.8771,8.2366 96.1521,8.0466 95.4281,8.0466 C93.1171,8.0466 91.9101,9.8516 91.3941,10.6206 L90.4531,12.0386 C88.9881,14.2486 87.4731,16.5356 85.8261,18.5636 C84.8361,19.7796 83.7771,20.9226 82.5891,22.0566 L82.3361,22.2966 L82.3341,21.9486 C82.3281,20.7416 82.2261,19.5356 82.0311,18.3646 C81.7841,16.8706 81.1441,15.7486 80.1291,15.0276 C79.1881,14.3626 77.9851,14.1196 76.7481,14.3376 C74.6801,14.7146 72.6551,16.3276 73.0901,19.7456 C73.2731,21.1866 73.2851,22.6156 73.1241,23.9956 L73.0551,24.5936 L72.8351,24.0336 C72.1931,22.3916 70.7721,21.7496 69.9831,21.5126 C69.5041,21.3696 69.0291,21.2986 68.5701,21.2986 C66.5921,21.2986 65.0061,22.5646 64.3281,24.6846 C64.1971,25.0906 64.0761,25.5576 63.9441,26.1546 L63.8951,26.3676 C63.8761,26.4516 63.8561,26.5356 63.8381,26.6276 L63.5431,26.5696 C63.5431,26.5686 63.5441,26.5666 63.5441,26.5646 L63.5441,26.5636 C63.5451,26.5626 63.5451,26.5616 63.5451,26.5606 C63.5661,26.4536 63.5891,26.3566 63.6111,26.2586 L63.6221,26.2116 C59.5461,24.4946 57.2691,22.1396 55.6021,20.4136 L55.5531,20.3646 C54.0871,18.8476 52.1171,18.0126 50.0051,18.0126 C47.8921,18.0126 45.9211,18.8476 44.4571,20.3636 L44.4081,20.4136 C42.7771,22.1016 40.5451,24.4106 36.5951,26.1216 L36.4301,26.1936 L36.3891,26.0186 C36.2941,25.6166 36.1881,25.1826 36.0541,24.7366 C35.5381,23.0186 34.5181,22.1846 33.7521,21.7866 C32.7181,21.2476 31.4981,21.1696 30.2891,21.5726 C28.9651,22.0106 27.9661,22.8856 27.4771,24.0346 L27.2481,24.5716 L27.1891,23.9916 C27.0521,22.6396 27.0901,21.1616 27.3041,19.5946 C27.5441,17.8396 26.9771,16.6676 26.4581,15.9936 C25.9661,15.3516 25.0401,14.5416 23.4351,14.3296 C23.1961,14.3006 22.9771,14.2856 22.7671,14.2856 C20.4271,14.2856 18.6391,15.9446 18.3171,18.4106 L18.2961,18.5696 C18.1501,19.6776 17.9871,20.9236 18.0751,22.2246 L18.1011,22.6036 L17.8231,22.3436 C15.0041,19.7236 12.6351,16.9556 10.5801,13.8836 C9.9051,12.8766 9.2681,11.7376 8.6511,10.6346 C7.3701,8.3406 5.5761,7.9996 4.6201,7.9996 C3.9601,7.9996 3.2961,8.1546 2.6451,8.4586 C1.1681,9.1536 0.5271,10.2196 0.2501,10.9916 C-0.0419,11.8036 -0.2249,13.1196 0.5621,14.7806 C0.8201,15.3266 1.0951,15.8516 1.3781,16.3456 C4.6221,21.9816 8.9611,26.9856 14.6441,31.6416 C15.9531,32.7156 17.2761,33.7116 18.2831,34.4596 L18.3601,34.5166 L18.3411,34.6106 C18.2321,35.1366 18.1771,35.6676 18.1771,36.1896 L18.1771,58.1196 C18.1771,68.2756 23.6291,77.7596 32.4061,82.8706 L43.1511,90.1666 C45.2271,91.3666 47.5981,91.9996 50.0051,91.9996 C52.4121,91.9996 54.7821,91.3666 56.8571,90.1666 L57.0231,90.0636 L67.5951,82.8766 C76.3801,77.7586 81.8331,68.2746 81.8331,58.1196 L81.8331,36.1896 C81.8331,35.6726 81.7791,35.1466 81.6731,34.6276 L81.6531,34.5316 L81.7321,34.4746 C84.9291,32.1726 87.8541,29.6766 90.4261,27.0576 C94.2371,23.1786 97.1361,19.2826 99.2911,15.1456 C100.8781,12.0996 99.5771,9.6676 97.5841,8.6116 L97.5841,8.6116 Z" id="icon_animal-taxidermy-mount" fill="#3A4B60"></path>
    </g>
</svg>