<?xml version="1.0" encoding="UTF-8"?>
<svg width="100px" height="100px" viewBox="0 0 100 100" version="1.1" xmlns="http://www.w3.org/2000/svg" xmlns:xlink="http://www.w3.org/1999/xlink">
    <title>icon / furniture / aquarium-base</title>
    <g id="icon-/-furniture-/-aquarium-base" stroke="none" stroke-width="1" fill="none" fill-rule="evenodd">
        <path d="M40.5688,59.5115 L40.5688,67.3175 C40.5688,68.2155 39.8408,68.9435 38.9428,68.9435 C38.0458,68.9435 37.3178,68.2155 37.3178,67.3175 L37.3178,59.5115 C37.3178,58.6145 38.0458,57.8855 38.9428,57.8855 C39.8408,57.8855 40.5688,58.6145 40.5688,59.5115 L40.5688,59.5115 Z M62.6828,59.5115 L62.6828,67.3175 C62.6828,68.2155 61.9548,68.9435 61.0568,68.9435 C60.1598,68.9435 59.4318,68.2155 59.4318,67.3175 L59.4318,59.5115 C59.4318,58.6145 60.1598,57.8855 61.0568,57.8855 C61.9548,57.8855 62.6828,58.6145 62.6828,59.5115 L62.6828,59.5115 Z M3.2508,30.5945 L96.7498,30.5945 L96.7498,23.2505 L3.2508,23.2505 L3.2508,30.5945 Z M51.6258,76.7495 L89.8388,76.7495 L89.8388,50.0795 L51.6258,50.0795 L51.6258,76.7495 Z M10.1618,76.7495 L48.3748,76.7495 L48.3748,50.0795 L10.1618,50.0795 L10.1618,76.7495 Z M10.1618,46.8285 L89.8388,46.8285 L89.8388,33.8455 L10.1618,33.8455 L10.1618,46.8285 Z M97.7888,19.9995 L94.8168,19.9995 L5.1828,19.9995 L2.2118,19.9995 C0.9908,19.9995 0.0008,20.9905 0.0008,22.2115 L0.0008,31.6335 C0.0008,32.8555 0.9908,33.8445 2.2118,33.8445 L6.9108,33.8445 L6.9108,77.7885 C6.9108,79.0095 7.9008,79.9995 9.1228,79.9995 L90.8778,79.9995 C92.0988,79.9995 93.0898,79.0095 93.0898,77.7885 L93.0898,33.8455 L97.7888,33.8455 C99.0098,33.8455 100.0008,32.8555 100.0008,31.6335 L100.0008,22.2115 C100.0008,20.9905 99.0098,19.9995 97.7888,19.9995 L97.7888,19.9995 Z" id="icon_aquarium-base" fill="#3A4B60"></path>
    </g>
</svg>