<?xml version="1.0" encoding="UTF-8"?>
<svg width="100px" height="100px" viewBox="0 0 100 100" version="1.1" xmlns="http://www.w3.org/2000/svg" xmlns:xlink="http://www.w3.org/1999/xlink">
    <title>icon / furniture / aquarium</title>
    <g id="icon-/-furniture-/-aquarium" stroke="none" stroke-width="1" fill="none" fill-rule="evenodd">
        <path d="M92.1289,77.1837 C92.1289,78.3297 91.9319,79.4327 91.5719,80.4587 L8.4279,80.4587 C8.0679,79.4327 7.8709,78.3297 7.8709,77.1837 L7.8709,27.4487 C10.4579,27.3657 12.9129,26.2227 14.6439,24.2677 C18.3329,28.4557 24.9919,28.5757 28.7869,24.2677 C32.5289,28.5167 39.1819,28.5227 42.9289,24.2677 C46.6669,28.5117 53.3229,28.5227 57.0709,24.2677 C60.8159,28.5177 67.4669,28.5227 71.2139,24.2677 C74.9569,28.5177 81.6099,28.5227 85.3579,24.2677 C87.0879,26.2227 89.5429,27.3627 92.1289,27.4457 L92.1289,77.1837 Z M83.3019,87.0647 C82.3939,87.1687 17.6119,87.1727 16.6349,87.0567 C14.0229,86.7387 11.6409,85.3847 10.0169,83.3297 L89.9829,83.3297 C88.2909,85.4697 85.8369,86.7787 83.3019,87.0647 L83.3019,87.0647 Z M87.1229,96.9687 C87.1229,97.0567 87.0509,97.1287 86.9629,97.1287 L13.0369,97.1287 C12.9489,97.1287 12.8769,97.0567 12.8769,96.9687 L12.8769,90.1607 C12.8769,90.0727 12.9489,90.0007 13.0369,90.0007 L86.9629,90.0007 C87.0509,90.0007 87.1229,90.0727 87.1229,90.1607 L87.1229,96.9687 Z M7.8709,3.0057 C7.8709,2.9317 7.9309,2.8707 8.0049,2.8707 L91.9939,2.8707 C92.0679,2.8707 92.1289,2.9317 92.1289,3.0057 L92.1289,24.5727 C90.1799,24.4827 88.3469,23.5317 87.1559,21.9327 C86.2539,20.7227 84.4579,20.7217 83.5559,21.9327 C80.9219,25.4677 75.6489,25.4697 73.0139,21.9327 C72.1119,20.7227 70.3159,20.7217 69.4139,21.9327 C66.7789,25.4677 61.5059,25.4697 58.8719,21.9337 C58.0969,20.8927 56.8799,21.0257 57.0709,21.0257 C56.3569,21.0257 55.7009,21.3557 55.2709,21.9327 C52.6369,25.4677 47.3639,25.4697 44.7289,21.9327 C43.8269,20.7237 42.0319,20.7217 41.1289,21.9327 C38.4949,25.4677 33.2209,25.4697 30.5869,21.9327 C29.6849,20.7227 27.8879,20.7217 26.9859,21.9327 C24.3519,25.4677 19.0799,25.4697 16.4439,21.9327 C15.5419,20.7227 13.7459,20.7217 12.8439,21.9327 C11.6529,23.5317 9.8189,24.4817 7.8709,24.5727 L7.8709,3.0057 Z M91.9939,-0.0003 L8.0059,-0.0003 C6.3479,-0.0003 4.9999,1.3477 4.9999,3.0057 L4.9999,77.1837 C4.9999,81.7167 7.3689,85.7047 10.9309,87.9847 C10.3609,88.5367 10.0059,89.3067 10.0059,90.1607 L10.0059,96.9687 C10.0059,98.6397 11.3659,99.9997 13.0379,99.9997 L86.9629,99.9997 C88.6339,99.9997 89.9939,98.6397 89.9939,96.9687 L89.9939,90.1607 C89.9939,89.3067 89.6389,88.5367 89.0689,87.9847 C92.6319,85.7047 94.9999,81.7167 94.9999,77.1837 L94.9999,3.0057 C94.9999,1.3477 93.6519,-0.0003 91.9939,-0.0003 L91.9939,-0.0003 Z M47.1019,36.7587 C49.0619,34.8187 52.0059,34.2047 54.6499,34.7567 C54.1329,36.0887 54.1329,37.5697 54.6499,38.9017 C51.9949,39.4557 49.0529,38.8297 47.1019,36.8997 C47.0769,36.8737 47.0519,36.8517 47.0269,36.8297 C47.0519,36.8067 47.0779,36.7837 47.1019,36.7587 L47.1019,36.7587 Z M57.3149,35.8287 C57.7779,36.1207 58.1969,36.4567 58.5629,36.8297 C58.1969,37.2017 57.7779,37.5377 57.3149,37.8297 C57.0739,37.1847 57.0739,36.4727 57.3149,35.8287 L57.3149,35.8287 Z M45.8039,39.5867 C47.8429,41.2417 50.6289,42.1557 53.6629,41.9337 C58.3449,41.5917 61.0699,38.6057 61.5469,37.6847 C62.1339,36.5517 61.4559,35.6627 60.5409,34.7477 C56.7689,30.9687 50.0389,30.6337 45.8039,34.0707 C45.3169,33.6777 44.7089,33.2857 44.5249,33.1937 C43.3549,32.5147 41.8869,33.3687 41.8869,34.7147 L41.8869,39.0727 C41.8869,40.3547 43.2759,41.1677 44.3959,40.5387 C44.8989,40.2567 45.3689,39.9387 45.8039,39.5867 L45.8039,39.5867 Z M49.1909,66.9827 C49.9189,68.3147 49.9189,69.9287 49.1909,71.2597 C48.1509,70.6817 47.2419,69.9567 46.5089,69.1207 C47.2419,68.2867 48.1509,67.5617 49.1909,66.9827 L49.1909,66.9827 Z M51.8659,65.9017 C55.8059,64.8597 60.3699,65.6897 63.3559,68.6437 C63.5829,68.8707 63.8529,69.0287 64.1399,69.1207 C63.8529,69.2137 63.5839,69.3727 63.3559,69.5977 C60.3699,72.5527 55.8049,73.3837 51.8649,72.3407 C52.8589,70.3127 52.8589,67.9317 51.8659,65.9017 L51.8659,65.9017 Z M66.7309,68.1237 L66.7309,70.1197 C66.1089,69.5947 65.9719,69.3137 65.3769,69.1207 C65.9719,68.9287 66.1099,68.6477 66.7309,68.1237 L66.7309,68.1237 Z M64.7589,72.2097 C65.4249,72.7867 66.1619,73.3017 66.9559,73.7477 C68.1339,74.4117 69.6019,73.5587 69.6019,72.2017 L69.6019,66.2197 C69.6019,64.7767 68.0329,63.8687 66.7849,64.5927 C66.0549,65.0157 65.3769,65.4977 64.7589,66.0327 C61.9339,63.5787 58.0679,62.3497 54.0089,62.6467 C49.5699,62.9697 45.9339,65.0657 43.7909,67.9147 C43.2569,68.6247 43.2569,69.6177 43.7909,70.3287 C48.4569,76.5337 58.6829,77.4907 64.7589,72.2097 L64.7589,72.2097 Z M76.9119,53.8617 C73.3089,57.4277 67.7609,58.3967 63.0169,57.0377 C64.3139,54.6017 64.3139,51.6747 63.0169,49.2397 C67.7539,47.8827 73.3019,48.8417 76.9119,52.4137 C77.7209,53.2147 79.0379,53.2137 79.8469,52.4127 C80.1789,52.0847 80.5359,51.7737 80.9149,51.4807 L80.9149,54.7957 C80.5359,54.5027 80.1789,54.1917 79.8469,53.8627 C79.0379,53.0617 77.7209,53.0607 76.9119,53.8617 L76.9119,53.8617 Z M60.3359,55.9487 C58.9489,55.2077 57.7499,54.2537 56.8069,53.1377 C57.7499,52.0227 58.9489,51.0677 60.3359,50.3277 C61.3789,52.0557 61.3789,54.2207 60.3359,55.9487 L60.3359,55.9487 Z M81.0569,58.3217 C82.2729,59.0037 83.7859,58.1257 83.7859,56.7257 L83.7859,49.7557 C83.7859,48.4317 82.4139,47.2887 80.8589,48.0667 C79.9609,48.5877 79.1289,49.1877 78.3799,49.8547 C71.4279,43.6427 59.5419,44.6977 54.1429,51.8747 C53.5839,52.6187 53.5839,53.6577 54.1429,54.4007 C59.5539,61.5947 71.4469,62.6157 78.3799,56.4207 C79.1839,57.1367 80.0819,57.7747 81.0569,58.3217 L81.0569,58.3217 Z M29.0839,76.3297 C29.8779,76.3297 30.5199,75.6857 30.5199,74.8937 C30.5199,74.0997 29.8779,73.4577 29.0839,73.4577 L29.0819,73.4577 C28.2899,73.4577 27.6469,74.0997 27.6469,74.8937 C27.6469,75.6857 28.2909,76.3297 29.0839,76.3297 L29.0839,76.3297 Z M36.3079,38.6447 C36.3079,37.8527 35.6649,37.2087 34.8719,37.2087 L34.8709,37.2087 C34.0769,37.2087 33.4359,37.8527 33.4359,38.6447 C33.4359,39.4387 34.0799,40.0807 34.8719,40.0807 C35.6649,40.0807 36.3079,39.4387 36.3079,38.6447 L36.3079,38.6447 Z M20.9689,36.6417 C20.9689,35.6717 21.7579,34.8817 22.7289,34.8817 C23.6989,34.8817 24.4879,35.6717 24.4879,36.6417 C24.4879,37.6117 23.6989,38.4017 22.7289,38.4017 C21.7579,38.4017 20.9689,37.6117 20.9689,36.6417 L20.9689,36.6417 Z M27.3589,36.6417 C27.3589,34.0887 25.2819,32.0107 22.7289,32.0107 C20.1759,32.0107 18.0979,34.0887 18.0979,36.6417 C18.0979,39.1957 20.1759,41.2727 22.7289,41.2727 C25.2819,41.2727 27.3589,39.1957 27.3589,36.6417 L27.3589,36.6417 Z M36.5249,50.5687 C37.3909,50.5687 38.0959,51.2737 38.0959,52.1397 C38.0959,53.0067 37.3909,53.7107 36.5249,53.7107 C35.6579,53.7107 34.9529,53.0067 34.9529,52.1397 C34.9529,51.2737 35.6579,50.5687 36.5249,50.5687 L36.5249,50.5687 Z M32.0819,52.1397 C32.0819,54.5897 34.0739,56.5817 36.5249,56.5817 C38.9739,56.5817 40.9669,54.5897 40.9669,52.1397 C40.9669,49.6907 38.9739,47.6977 36.5249,47.6977 C34.0739,47.6977 32.0819,49.6907 32.0819,52.1397 L32.0819,52.1397 Z M24.8339,62.1457 C25.3069,62.1457 25.6909,62.5317 25.6909,63.0037 C25.6909,63.4757 25.3069,63.8617 24.8339,63.8617 C24.3609,63.8617 23.9769,63.4757 23.9769,63.0037 C23.9769,62.5317 24.3609,62.1457 24.8339,62.1457 L24.8339,62.1457 Z M24.8339,66.7327 C26.8899,66.7327 28.5619,65.0597 28.5619,63.0037 C28.5619,60.9477 26.8899,59.2747 24.8339,59.2747 C22.7769,59.2747 21.1049,60.9477 21.1049,63.0037 C21.1049,65.0597 22.7769,66.7327 24.8339,66.7327 L24.8339,66.7327 Z" id="icon_aquarium" fill="#3A4B60"></path>
    </g>
</svg>