<?xml version="1.0" encoding="UTF-8"?>
<svg width="100px" height="100px" viewBox="0 0 100 100" version="1.1" xmlns="http://www.w3.org/2000/svg" xmlns:xlink="http://www.w3.org/1999/xlink">
    <!-- Generator: Sketch 63.1 (92452) - https://sketch.com -->
    <title>icon / furniture / armoire-w-glass</title>
    <desc>Created with Sketch.</desc>
    <g id="icon-/-furniture-/-armoire-w-glass" stroke="none" stroke-width="1" fill="none" fill-rule="evenodd">
        <path d="M55.0938,34.3682 C54.4758,34.3682 53.9748,34.8692 53.9748,35.4872 L53.9748,38.6072 C53.9748,39.2252 54.4758,39.7262 55.0938,39.7262 C55.7118,39.7262 56.2128,39.2252 56.2128,38.6072 L56.2128,35.4872 C56.2128,34.8692 55.7118,34.3682 55.0938,34.3682 L55.0938,34.3682 Z M45.6198,39.7262 C46.2378,39.7262 46.7388,39.2252 46.7388,38.6072 L46.7388,35.4872 C46.7388,34.8692 46.2378,34.3682 45.6198,34.3682 C45.0018,34.3682 44.5008,34.8692 44.5008,35.4872 L44.5008,38.6072 C44.5008,39.2252 45.0018,39.7262 45.6198,39.7262 L45.6198,39.7262 Z M72.0678,72.8702 L72.0678,55.5522 L51.3668,67.6192 L51.3668,72.8702 L72.0678,72.8702 Z M72.0678,75.8012 L27.9308,75.8022 L27.9308,87.8712 L72.0678,87.8702 L72.0678,75.8012 Z M72.0678,90.8012 L27.9308,90.8022 L27.9308,97.0692 L30.8158,97.0692 L31.4918,95.6212 C31.9138,94.7172 32.8308,94.1332 33.8278,94.1332 L66.3218,94.1332 C67.3828,94.1332 68.3218,94.7682 68.7168,95.7542 L69.2418,97.0692 L72.0678,97.0692 L72.0678,90.8012 Z M27.9308,3.6132 L27.9308,21.0032 L48.4368,9.0492 L48.4368,2.9312 L28.6128,2.9312 C28.2368,2.9312 27.9308,3.2372 27.9308,3.6132 L27.9308,3.6132 Z M51.3668,2.9312 L51.3668,20.8702 L72.0678,8.8032 L72.0678,3.6132 C72.0678,3.2372 71.7628,2.9312 71.3868,2.9312 L51.3668,2.9312 Z M72.0678,18.0582 L72.0678,12.7072 L51.3668,24.7742 L51.3668,30.1272 L72.0678,18.0582 Z M51.3668,63.7162 L72.0678,51.6472 L72.0678,21.9632 L51.3668,34.0302 L51.3668,63.7162 Z M27.9308,72.8712 L48.4368,72.8712 L48.4368,53.7982 L27.9308,65.7522 L27.9308,72.8712 Z M27.9308,56.4962 L27.9308,61.8472 L48.4368,49.8932 L48.4368,44.5422 L27.9308,56.4962 Z M48.4368,12.9532 L27.9308,24.9072 L27.9308,52.5922 L48.4368,40.6382 L48.4368,12.9532 Z M74.9998,3.6132 L74.9998,98.0662 C74.9998,99.1322 74.1328,100.0002 73.0658,100.0002 L69.0038,100.0002 C67.9428,100.0002 67.0038,99.3632 66.6098,98.3792 L66.0838,97.0642 L34.0528,97.0642 L33.3768,98.5122 C32.9558,99.4162 32.0388,100.0002 31.0408,100.0002 L26.9338,100.0002 C25.8668,100.0002 24.9998,99.1322 24.9998,98.0662 L24.9998,3.6132 C24.9998,1.6202 26.6208,0.0002 28.6128,0.0002 L71.3868,0.0002 C73.3788,0.0002 74.9998,1.6202 74.9998,3.6132 L74.9998,3.6132 Z M44.9998,82.0062 C44.9998,81.1972 45.6558,80.5412 46.4648,80.5412 L53.5338,80.5412 C54.3438,80.5412 54.9998,81.1972 54.9998,82.0062 C54.9998,82.8162 54.3438,83.4722 53.5338,83.4722 L46.4648,83.4722 C45.6558,83.4722 44.9998,82.8162 44.9998,82.0062 L44.9998,82.0062 Z" id="icon_armoire-w-glass" fill="#3A4B60"></path>
    </g>
</svg>