<?xml version="1.0" encoding="UTF-8"?>
<svg width="100px" height="100px" viewBox="0 0 100 100" version="1.1" xmlns="http://www.w3.org/2000/svg">
    <title>icon / furniture / atv</title>
    <g id="icon-/-furniture-/-atv" stroke="none" stroke-width="1" fill="none" fill-rule="evenodd">
        <path d="M97.1394,48.794 C97.1394,48.289 97.1094,47.784 97.0464,47.282 C96.8354,45.589 96.2754,43.732 95.2554,42.35 C93.5114,39.983 90.3934,37.958 87.5214,37.157 C86.5274,36.88 85.4554,36.77 84.4264,36.77 L70.8014,36.77 C64.9534,36.77 59.8494,41.123 58.9274,46.896 C58.7704,47.88 57.9314,48.595 56.9324,48.595 L43.7364,48.598 C42.9464,48.598 42.2664,47.957 42.2664,47.167 C42.2664,47.124 42.2294,46.944 42.2214,46.896 C41.3004,41.122 36.1954,36.77 30.3464,36.77 L11.9204,36.77 C9.8864,36.77 7.9094,37.183 6.0444,37.998 L3.6924,39.027 C3.5714,39.08 3.5164,39.222 3.5694,39.343 L5.9004,44.67 C5.9324,44.745 5.9894,44.781 6.0314,44.798 C6.0744,44.815 6.1394,44.827 6.2144,44.794 L8.5674,43.765 C9.6314,43.299 10.7594,43.064 11.9204,43.064 L30.3464,43.064 C33.3644,43.064 35.8764,45.422 36.0684,48.436 L36.5334,56.018 C36.7994,60.429 40.4704,63.885 44.8904,63.885 L56.2564,63.885 C60.6644,63.885 64.3354,60.439 64.6124,56.039 L65.1054,48.227 C65.1064,48.203 65.1084,48.181 65.1114,48.157 C65.4364,45.253 67.8834,43.064 70.8014,43.064 L84.4264,43.064 C87.5864,43.064 90.1584,45.634 90.1584,48.794 L90.1584,50.07 C90.1584,50.203 90.2644,50.31 90.3974,50.31 L96.9004,50.31 C97.0324,50.31 97.1394,50.203 97.1394,50.07 L97.1394,48.794 Z M80.0854,57.748 C72.6714,57.748 66.6404,63.78 66.6404,71.194 C66.6404,78.607 72.6714,84.64 80.0854,84.64 C87.4994,84.64 93.5304,78.607 93.5304,71.194 C93.5304,63.78 87.4994,57.748 80.0854,57.748 L80.0854,57.748 Z M65.5164,63.886 C68.2014,58.555 73.7214,54.888 80.0854,54.888 C82.6144,54.888 85.0094,55.467 87.1474,56.498 C87.2244,56.027 87.2644,55.549 87.2644,55.066 L87.2964,48.795 C87.2964,47.213 86.0084,45.925 84.4264,45.925 L70.8014,45.925 C69.3514,45.925 68.1334,47.006 67.9574,48.446 L67.4674,56.221 C67.2754,59.273 65.8644,61.981 63.7294,63.886 L65.5164,63.886 Z M37.4134,63.886 C35.2744,61.975 33.8634,59.256 33.6774,56.191 L33.2114,48.614 C33.1174,47.106 31.8584,45.925 30.3464,45.925 L11.9194,45.925 C11.4014,45.925 10.8914,45.998 10.3984,46.14 C9.9854,47.175 9.7744,48.27 9.7744,49.404 L9.7744,55.066 C9.7744,56.356 10.0524,57.613 10.5854,58.765 C13.4294,56.35 17.1084,54.888 21.1234,54.888 C27.4874,54.888 33.0084,58.555 35.6934,63.886 L37.4134,63.886 Z M21.1234,84.639 C24.3614,84.639 27.4394,83.478 29.8774,81.379 C29.8814,81.376 29.8834,81.372 29.8874,81.369 C31.8494,79.681 33.3124,77.434 34.0454,74.882 C34.3854,73.687 34.5694,72.451 34.5694,71.194 C34.5694,63.78 28.5364,57.748 21.1234,57.748 C13.7094,57.748 7.6774,63.78 7.6774,71.194 C7.6774,78.607 13.7094,84.639 21.1234,84.639 L21.1234,84.639 Z M22.5534,33.909 L30.3464,33.909 C33.8914,33.909 37.3294,35.185 40.0304,37.502 C40.5914,37.983 41.1104,38.506 41.5894,39.059 L49.3884,35.094 C49.7644,34.902 50.0434,34.576 50.1744,34.175 C50.3054,33.773 50.2714,33.345 50.0804,32.969 L49.1134,31.066 C47.6424,31.89 45.9784,32.331 44.2634,32.331 L33.2814,32.331 C31.2824,32.331 29.3534,31.739 27.7044,30.621 C27.2064,30.284 26.6534,30.106 26.1034,30.106 L25.9864,30.106 C24.0934,30.106 22.5534,31.646 22.5534,33.538 L22.5534,33.909 Z M52.8944,35.061 C52.5264,36.189 51.7424,37.106 50.6844,37.644 L43.2644,41.415 C44.0334,42.754 44.5774,44.212 44.8994,45.732 L56.2344,45.733 C56.9064,42.545 58.6214,39.644 61.1194,37.501 C63.8184,35.185 67.2574,33.909 70.8014,33.909 L72.6784,33.909 C72.3354,30.317 69.3034,27.499 65.6234,27.499 L56.1834,27.499 C54.4094,27.499 52.7434,28.146 51.4384,29.326 L52.6304,31.672 C53.1684,32.729 53.2614,33.933 52.8944,35.061 L52.8944,35.061 Z M68.5534,17.649 C69.1854,17.649 69.6984,17.137 69.6984,16.506 C69.6984,15.875 69.1854,15.361 68.5534,15.361 L63.1824,15.361 C62.5524,15.361 62.0384,15.875 62.0384,16.506 C62.0384,17.137 62.5524,17.649 63.1824,17.649 L68.5534,17.649 Z M68.5544,20.511 L66.9594,20.511 L68.1704,24.971 C70.2204,25.514 72.0124,26.696 73.3204,28.292 L75.9384,28.292 C76.6514,28.292 77.3084,27.967 77.7424,27.401 C78.1744,26.834 78.3164,26.115 78.1294,25.427 L76.6634,20.029 C76.3964,19.043 75.4954,18.354 74.4734,18.354 L72.1034,18.354 C71.4344,19.634 70.0964,20.511 68.5544,20.511 L68.5544,20.511 Z M99.9994,48.795 L99.9994,50.071 C99.9994,51.781 98.6094,53.172 96.9004,53.172 L90.3974,53.172 C90.3054,53.172 90.2154,53.165 90.1244,53.158 L90.1244,55.066 C90.1244,56.085 89.9944,57.088 89.7364,58.062 C93.7694,61.033 96.3924,65.812 96.3924,71.194 C96.3924,80.185 89.0764,87.5 80.0854,87.5 C71.0944,87.5 63.7794,80.185 63.7794,71.194 C63.7794,69.652 63.9984,68.161 64.4014,66.746 L36.8084,66.746 C37.2094,68.161 37.4294,69.652 37.4294,71.194 C37.4294,75.345 35.7704,79.42 32.9184,82.43 C29.8644,85.654 25.5684,87.499 21.1234,87.499 C12.1324,87.499 4.8174,80.185 4.8174,71.194 C4.8174,67.298 6.1924,63.719 8.4804,60.911 C7.4524,59.139 6.9124,57.135 6.9124,55.066 L6.9124,49.403 C6.9124,48.768 6.9644,48.142 7.0644,47.527 C6.3864,47.745 5.6604,47.725 4.9884,47.462 C4.2174,47.16 3.6104,46.576 3.2784,45.817 L0.9484,40.489 C0.2624,38.924 0.9794,37.093 2.5454,36.407 L4.8984,35.378 C7.1254,34.404 9.4884,33.909 11.9194,33.909 L19.6934,33.909 L19.6934,33.538 C19.6934,33.211 19.7184,32.889 19.7664,32.574 L1.4304,32.574 C0.6404,32.574 -0.0006,31.934 -0.0006,31.145 C-0.0006,30.355 0.6404,29.714 1.4304,29.714 L20.9934,29.714 C22.1444,28.214 23.9534,27.244 25.9864,27.244 L26.1024,27.244 C27.2274,27.244 28.3354,27.594 29.3104,28.253 C30.4834,29.049 31.8564,29.47 33.2814,29.47 L44.2634,29.47 C46.0354,29.47 47.7314,28.813 49.0384,27.618 C49.1004,27.562 49.1664,27.512 49.2374,27.467 C51.1064,25.64 53.5604,24.638 56.1824,24.638 L65.1164,24.638 L63.9944,20.51 L63.1824,20.51 C61.4794,20.51 60.0244,19.439 59.4474,17.936 L52.5734,17.936 C51.7834,17.936 51.1424,17.295 51.1424,16.506 C51.1424,15.716 51.7834,15.075 52.5734,15.075 L59.4474,15.075 C60.0244,13.571 61.4794,12.5 63.1824,12.5 L68.5534,12.5 C70.4114,12.5 71.9734,13.773 72.4244,15.492 L74.4734,15.492 C76.7834,15.492 78.8194,17.05 79.4244,19.279 L80.8904,24.677 C81.3124,26.232 80.9924,27.857 80.0144,29.138 C79.8554,29.345 79.6834,29.535 79.4994,29.713 L92.4344,29.713 C93.2254,29.713 93.8654,30.354 93.8654,31.144 C93.8654,31.934 93.2254,32.574 92.4344,32.574 L75.3674,32.574 C75.4564,33.01 75.5154,33.456 75.5464,33.909 L84.4264,33.909 C85.1154,33.909 85.8044,33.956 86.4864,34.05 C87.4334,34.182 88.3294,34.437 89.2434,34.711 C90.6454,35.132 92.6984,36.031 93.8674,36.902 C94.9234,37.69 95.8954,38.593 96.7564,39.591 C96.8874,39.743 97.0164,39.898 97.1424,40.055 C99.0954,42.48 99.9994,45.71 99.9994,48.795 L99.9994,48.795 Z M21.1234,65.931 C18.2204,65.931 15.8594,68.292 15.8594,71.194 C15.8594,74.096 18.2204,76.458 21.1234,76.458 C24.0254,76.458 26.3864,74.096 26.3864,71.194 C26.3864,68.292 24.0254,65.931 21.1234,65.931 L21.1234,65.931 Z M21.1234,63.069 C25.6024,63.069 29.2474,66.715 29.2474,71.194 C29.2474,75.674 25.6034,79.318 21.1234,79.318 C16.6434,79.318 12.9984,75.674 12.9984,71.194 C12.9984,66.714 16.6434,63.069 21.1234,63.069 L21.1234,63.069 Z M19.4504,71.194 C19.4504,72.118 20.1984,72.867 21.1234,72.867 C22.0474,72.867 22.7964,72.118 22.7964,71.194 C22.7964,70.27 22.0474,69.521 21.1234,69.521 C20.1984,69.521 19.4504,70.27 19.4504,71.194 L19.4504,71.194 Z M85.3494,71.194 C85.3494,68.292 82.9884,65.931 80.0854,65.931 C77.1824,65.931 74.8214,68.292 74.8214,71.194 C74.8214,74.096 77.1824,76.458 80.0854,76.458 C82.9884,76.458 85.3494,74.097 85.3494,71.194 L85.3494,71.194 Z M88.2094,71.194 C88.2094,75.674 84.5654,79.318 80.0854,79.318 C75.6054,79.318 71.9604,75.674 71.9604,71.194 C71.9604,66.715 75.6054,63.069 80.0854,63.069 C84.5654,63.069 88.2094,66.715 88.2094,71.194 L88.2094,71.194 Z M81.7594,71.194 C81.7594,72.118 81.0094,72.867 80.0854,72.867 C79.1604,72.867 78.4114,72.118 78.4114,71.194 C78.4114,70.27 79.1604,69.521 80.0854,69.521 C81.0094,69.521 81.7594,70.27 81.7594,71.194 L81.7594,71.194 Z"
              id="icon_atv" fill="#3A4B60"></path>
    </g>
</svg>