<?xml version="1.0" encoding="UTF-8"?>
<svg width="100px" height="100px" viewBox="0 0 100 100" version="1.1" xmlns="http://www.w3.org/2000/svg" xmlns:xlink="http://www.w3.org/1999/xlink">
    <title>icon / furniture / baby-swing</title>
    <g id="icon-/-furniture-/-baby-swing" stroke="none" stroke-width="1" fill="none" fill-rule="evenodd">
        <path d="M47.07,12.7928 C46.261,12.7928 45.605,13.4488 45.605,14.2578 C45.605,15.0668 46.261,15.7228 47.07,15.7228 C47.88,15.7228 48.535,15.0668 48.535,14.2578 C48.535,13.4488 47.88,12.7928 47.07,12.7928 L47.07,12.7928 Z M97.07,95.6058 C97.07,94.7978 96.414,94.1418 95.607,94.1408 L95.604,94.1408 L95.599,94.1408 L4.4,94.1408 L4.396,94.1408 L4.393,94.1408 C3.586,94.1418 2.929,94.7978 2.929,95.6058 C2.929,96.4128 3.587,97.0698 4.394,97.0698 L95.605,97.0698 C96.414,97.0698 97.07,96.4128 97.07,95.6058 L97.07,95.6058 Z M6.145,91.2108 L93.854,91.2108 L85.712,38.8238 L82.713,76.1608 C82.667,78.5438 80.715,80.4688 78.32,80.4688 L21.679,80.4688 C19.286,80.4688 17.334,78.5438 17.287,76.1608 L14.289,38.8238 L6.145,91.2108 Z M80.103,72.0598 L83.569,28.9058 L16.431,28.9058 L19.897,72.0598 C20.385,71.8408 20.922,71.7098 21.484,71.6848 L21.484,55.9568 C21.484,55.1478 22.14,54.4918 22.949,54.4918 L32.715,54.4918 C35.676,54.4918 38.086,56.9018 38.086,59.8628 L38.086,60.6448 C38.086,62.6368 39.707,64.2578 41.699,64.2578 L58.3,64.2578 C60.294,64.2578 61.914,62.6368 61.914,60.6448 L61.914,59.8628 C61.914,56.9018 64.324,54.4918 67.285,54.4918 L77.05,54.4918 C77.86,54.4918 78.515,55.1478 78.515,55.9568 L78.515,71.6848 C79.079,71.7098 79.614,71.8408 80.103,72.0598 L80.103,72.0598 Z M21.679,74.6088 C20.872,74.6088 20.215,75.2668 20.215,76.0738 C20.215,76.8818 20.872,77.5388 21.679,77.5388 L78.32,77.5388 C79.129,77.5388 79.785,76.8818 79.785,76.0738 C79.785,75.2668 79.129,74.6088 78.32,74.6088 L21.679,74.6088 Z M35.156,60.6448 L35.156,59.8628 C35.156,58.5178 34.061,57.4218 32.715,57.4218 L24.414,57.4218 L24.414,71.6798 L75.586,71.6798 L75.586,57.4218 L67.285,57.4218 C65.939,57.4218 64.843,58.5178 64.843,59.8628 L64.843,60.6448 C64.843,64.2528 61.909,67.1878 58.3,67.1878 L41.699,67.1878 C38.091,67.1878 35.156,64.2528 35.156,60.6448 L35.156,60.6448 Z M13.867,25.9768 L86.133,25.9768 C86.941,25.9768 87.597,25.3188 87.597,24.5118 C87.597,23.7038 86.941,23.0468 86.133,23.0468 L13.867,23.0468 C13.059,23.0468 12.402,23.7038 12.402,24.5118 C12.402,25.3188 13.059,25.9768 13.867,25.9768 L13.867,25.9768 Z M35.915,20.1168 L64.085,20.1168 C63.349,12.9948 57.313,7.4218 50,7.4218 C42.686,7.4218 36.65,12.9948 35.915,20.1168 L35.915,20.1168 Z M38.769,6.3478 C38.769,7.0348 38.969,7.6868 39.337,8.2368 C41.098,6.8268 43.144,5.7568 45.374,5.1288 C44.879,3.8488 43.63,2.9298 42.187,2.9298 C40.302,2.9298 38.769,4.4628 38.769,6.3478 L38.769,6.3478 Z M54.626,5.1288 C56.855,5.7568 58.901,6.8268 60.664,8.2368 C61.03,7.6868 61.23,7.0348 61.23,6.3478 C61.23,4.4628 59.697,2.9298 57.812,2.9298 C56.371,2.9298 55.122,3.8488 54.626,5.1288 L54.626,5.1288 Z M100,95.6058 C100,98.0278 98.029,99.9998 95.605,99.9998 L4.394,99.9998 C1.971,99.9998 0,98.0278 0,95.6058 C0,93.6198 1.324,91.9388 3.136,91.3958 L13.104,28.8388 C11.044,28.4768 9.472,26.6748 9.472,24.5118 C9.472,22.0888 11.444,20.1168 13.867,20.1168 L32.973,20.1168 C33.294,16.3598 34.835,12.9458 37.198,10.2738 C36.324,9.1698 35.84,7.8028 35.84,6.3478 C35.84,2.8478 38.687,-0.0002 42.187,-0.0002 C45.049,-0.0002 47.505,1.9438 48.28,4.5778 C48.845,4.5218 49.42,4.4918 50,4.4918 C50.581,4.4918 51.155,4.5218 51.72,4.5778 C52.495,1.9438 54.952,-0.0002 57.813,-0.0002 C61.313,-0.0002 64.161,2.8478 64.161,6.3478 C64.161,7.8028 63.676,9.1698 62.802,10.2738 C65.165,12.9458 66.706,16.3598 67.027,20.1168 L86.133,20.1168 C88.556,20.1168 90.528,22.0888 90.528,24.5118 C90.528,26.6748 88.957,28.4768 86.895,28.8388 L96.864,91.3958 C98.675,91.9388 100,93.6198 100,95.6058 L100,95.6058 Z M54.394,14.2578 C54.394,15.0668 53.739,15.7228 52.929,15.7228 C52.121,15.7228 51.465,15.0668 51.465,14.2578 C51.465,13.4488 52.121,12.7928 52.929,12.7928 C53.739,12.7928 54.394,13.4488 54.394,14.2578 L54.394,14.2578 Z" id="icno_baby-swing" fill="#3A4B60"></path>
    </g>
</svg>