<?xml version="1.0" encoding="UTF-8"?>
<svg width="100px" height="100px" viewBox="0 0 100 100" version="1.1" xmlns="http://www.w3.org/2000/svg">
    <title>icon / furniture / bar-table</title>
    <g id="icon-/-furniture-/-bar-table" stroke="none" stroke-width="1" fill="none" fill-rule="evenodd">
        <path d="M20.926,21.47 L79.074,21.47 L79.074,15.088 L20.926,15.088 L20.926,21.47 Z M45.926,87.233 L54.072,87.233 L54.072,24.953 L45.926,24.953 L45.926,87.233 Z M64.245,90.715 C67.264,90.715 69.864,92.962 70.291,95.941 L70.374,96.518 L29.625,96.518 L29.708,95.941 C30.136,92.962 32.736,90.715 35.755,90.715 L64.245,90.715 Z M7.543,11.605 C5.304,11.605 3.482,9.783 3.482,7.545 C3.482,5.304 5.304,3.482 7.543,3.482 L92.454,3.482 C94.695,3.482 96.517,5.304 96.517,7.545 C96.517,9.784 94.695,11.606 92.454,11.606 L7.543,11.605 Z M82.557,21.759 L82.557,15.088 L93.248,15.088 C96.971,15.088 100,12.059 100,8.337 L100,6.748 C100,3.027 96.973,0 93.251,0 L6.751,0 C3.029,0 0,3.028 0,6.751 L0,8.34 C0,12.06 3.028,15.088 6.748,15.088 L17.443,15.088 L17.443,21.761 C17.443,23.521 18.875,24.953 20.635,24.953 L42.445,24.953 L42.445,87.233 L35.755,87.233 C33.173,87.233 30.75,88.246 28.932,90.086 C27.117,91.922 26.135,94.348 26.165,96.922 C26.185,98.619 27.617,100 29.359,100 L70.641,100 C72.383,100 73.816,98.619 73.835,96.921 C73.865,94.347 72.881,91.921 71.067,90.086 C69.249,88.246 66.826,87.233 64.244,87.233 L57.555,87.233 L57.555,24.953 L79.362,24.953 C81.123,24.953 82.557,23.519 82.557,21.759 L82.557,21.759 Z"
              id="icon_bar-table" fill="#3A4B60"></path>
    </g>
</svg>