<?xml version="1.0" encoding="UTF-8"?>
<svg width="100px" height="100px" viewBox="0 0 100 100" version="1.1" xmlns="http://www.w3.org/2000/svg" xmlns:xlink="http://www.w3.org/1999/xlink">
    <title>icon / furniture / bar</title>
    <g id="icon-/-furniture-/-bar" stroke="none" stroke-width="1" fill="none" fill-rule="evenodd">
        <path d="M3.6044,7.8129 L3.8174,7.2119 C4.7084,4.6969 7.0984,3.0059 9.7654,3.0059 L90.2344,3.0059 C92.9014,3.0059 95.2924,4.6969 96.1824,7.2119 L96.3954,7.8129 L3.6044,7.8129 Z M83.2924,23.4229 L83.5044,24.0239 L71.1824,24.0239 L71.3954,23.4229 C72.2864,20.9079 74.6764,19.2169 77.3434,19.2169 C80.0104,19.2169 82.4014,20.9079 83.2924,23.4229 L83.2924,23.4229 Z M55.9484,23.4229 L56.1614,24.0239 L43.8384,24.0239 L44.0514,23.4229 C44.9424,20.9079 47.3334,19.2169 50.0004,19.2169 C52.6674,19.2169 55.0574,20.9079 55.9484,23.4229 L55.9484,23.4229 Z M28.6044,23.4229 L28.8174,24.0239 L16.4954,24.0239 L16.7084,23.4229 C17.5984,20.9079 19.9894,19.2169 22.6564,19.2169 C25.3234,19.2169 27.7134,20.9079 28.6044,23.4229 L28.6044,23.4229 Z M90.2344,0.0009 L9.7654,0.0009 C4.6284,0.0009 0.4504,4.1789 0.4504,9.3159 C0.4504,10.1449 1.1244,10.8189 1.9534,10.8189 L21.1534,10.8189 L21.1534,16.3249 L20.7924,16.3989 C16.4744,17.2789 13.3404,21.1179 13.3404,25.5269 C13.3404,26.3559 14.0144,27.0299 14.8434,27.0299 L30.4684,27.0299 C31.2974,27.0299 31.9714,26.3559 31.9714,25.5269 C31.9714,21.1179 28.8374,17.2779 24.5194,16.3989 L24.1594,16.3249 L24.1594,10.8189 L48.4974,10.8189 L48.4974,16.3249 L48.1364,16.3989 C43.8184,17.2789 40.6844,21.1179 40.6844,25.5269 C40.6844,26.3559 41.3584,27.0299 42.1874,27.0299 L57.8124,27.0299 C58.6414,27.0299 59.3154,26.3559 59.3154,25.5269 C59.3154,21.1179 56.1814,17.2779 51.8634,16.3989 L51.5024,16.3249 L51.5024,10.8189 L75.8404,10.8189 L75.8404,16.3249 L75.4804,16.3989 C71.1624,17.2789 68.0284,21.1179 68.0284,25.5269 C68.0284,26.3559 68.7024,27.0299 69.5314,27.0299 L85.1564,27.0299 C85.9854,27.0299 86.6594,26.3559 86.6594,25.5269 C86.6594,21.1179 83.5254,17.2779 79.2074,16.3989 L78.8464,16.3249 L78.8464,10.8189 L98.0464,10.8189 C98.8754,10.8189 99.5494,10.1449 99.5494,9.3159 C99.5494,4.1789 95.3714,0.0009 90.2344,0.0009 L90.2344,0.0009 Z M94.5424,57.3669 L5.4584,57.3669 C4.1214,57.3669 3.0334,56.2789 3.0334,54.9419 C3.0334,53.6049 4.1214,52.5169 5.4584,52.5169 L94.5424,52.5169 C95.8784,52.5169 96.9664,53.6049 96.9664,54.9419 C96.9664,56.2789 95.8784,57.3669 94.5424,57.3669 L94.5424,57.3669 Z M93.0254,96.9669 L79.1084,96.9669 L79.1084,84.0499 L81.5344,84.0499 C82.3714,84.0499 83.0504,83.3709 83.0504,82.5339 C83.0504,81.6979 82.3714,81.0169 81.5344,81.0169 L79.1084,81.0169 L79.1084,75.9619 L79.4114,75.8549 C81.5874,75.0829 83.0504,73.0139 83.0504,70.7089 C83.0504,67.6999 80.6014,65.2509 77.5914,65.2509 L61.8254,65.2509 C58.8154,65.2509 56.3674,67.6999 56.3674,70.7089 C56.3674,73.0139 57.8294,75.0829 60.0054,75.8549 L60.3084,75.9619 L60.3084,81.0169 L57.8834,81.0169 C57.0464,81.0169 56.3674,81.6979 56.3674,82.5339 C56.3674,83.3709 57.0464,84.0499 57.8834,84.0499 L60.3084,84.0499 L60.3084,96.9669 L39.6914,96.9669 L39.6914,84.0499 L42.1164,84.0499 C42.9534,84.0499 43.6324,83.3709 43.6324,82.5339 C43.6324,81.6979 42.9534,81.0169 42.1164,81.0169 L39.6914,81.0169 L39.6914,75.9619 L39.9944,75.8549 C42.1704,75.0829 43.6324,73.0139 43.6324,70.7089 C43.6324,67.6999 41.1844,65.2509 38.1744,65.2509 L22.4084,65.2509 C19.3984,65.2509 16.9494,67.6999 16.9494,70.7089 C16.9494,73.0139 18.4124,75.0829 20.5884,75.8549 L20.8914,75.9619 L20.8914,81.0169 L18.4654,81.0169 C17.6294,81.0169 16.9494,81.6979 16.9494,82.5339 C16.9494,83.3709 17.6294,84.0499 18.4654,84.0499 L20.8914,84.0499 L20.8914,96.9669 L6.9744,96.9669 L6.9744,60.3999 L93.0254,60.3999 L93.0254,96.9669 Z M61.8254,73.1339 C60.4884,73.1339 59.4004,72.0459 59.4004,70.7089 C59.4004,69.3719 60.4884,68.2839 61.8254,68.2839 L77.5914,68.2839 C78.9294,68.2839 80.0174,69.3719 80.0174,70.7089 C80.0174,72.0459 78.9294,73.1339 77.5914,73.1339 L61.8254,73.1339 Z M63.3424,81.0169 L76.0754,81.0169 L76.0754,76.1669 L63.3424,76.1669 L63.3424,81.0169 Z M63.3424,96.9669 L76.0754,96.9669 L76.0754,84.0499 L63.3424,84.0499 L63.3424,96.9669 Z M22.4084,73.1339 C21.0704,73.1339 19.9824,72.0459 19.9824,70.7089 C19.9824,69.3719 21.0704,68.2839 22.4084,68.2839 L38.1744,68.2839 C39.5114,68.2839 40.5994,69.3719 40.5994,70.7089 C40.5994,72.0459 39.5114,73.1339 38.1744,73.1339 L22.4084,73.1339 Z M23.9254,81.0169 L36.6584,81.0169 L36.6584,76.1669 L23.9254,76.1669 L23.9254,81.0169 Z M23.9254,96.9669 L36.6584,96.9669 L36.6584,84.0499 L23.9254,84.0499 L23.9254,96.9669 Z M26.0684,36.1589 L34.5134,36.1589 L30.2914,40.3799 L26.0684,36.1589 Z M65.4884,36.1589 L73.9294,36.1589 L69.7084,40.3799 L65.4884,36.1589 Z M96.0584,60.1949 L96.3614,60.0869 C98.5384,59.3149 100.0004,57.2469 100.0004,54.9419 C100.0004,51.9319 97.5504,49.4839 94.5424,49.4839 L71.2254,49.4839 L71.2254,43.1529 L78.6644,35.7139 C79.0994,35.2799 79.2294,34.6299 78.9934,34.0609 C78.7574,33.4929 78.2084,33.1249 77.5914,33.1249 L61.8254,33.1249 C61.2084,33.1249 60.6594,33.4929 60.4234,34.0609 C60.1884,34.6299 60.3174,35.2799 60.7524,35.7139 L68.1924,43.1529 L68.1924,49.4839 L31.8074,49.4839 L31.8074,43.1529 L39.2474,35.7139 C39.6824,35.2799 39.8114,34.6299 39.5764,34.0609 C39.3404,33.4929 38.7914,33.1249 38.1744,33.1249 L22.4084,33.1249 C21.7914,33.1249 21.2424,33.4929 21.0064,34.0609 C20.7714,34.6299 20.9004,35.2799 21.3354,35.7139 L28.7744,43.1529 L28.7744,49.4839 L5.4584,49.4839 C2.4494,49.4839 0.0004,51.9319 0.0004,54.9419 C0.0004,57.2469 1.4624,59.3149 3.6394,60.0869 L3.9414,60.1949 L3.9414,98.4839 C3.9414,99.3199 4.6224,100.0009 5.4584,100.0009 L94.5424,100.0009 C95.3774,100.0009 96.0584,99.3199 96.0584,98.4839 L96.0584,60.1949 Z" id="icon_bar" fill="#3A4B60"></path>
    </g>
</svg>