<?xml version="1.0" encoding="UTF-8"?>
<svg width="100px" height="100px" viewBox="0 0 100 100" version="1.1" xmlns="http://www.w3.org/2000/svg">
    <title>icon / furniture / barbeque_grill</title>
    <g id="icon-/-furniture-/-barbeque_grill" stroke="none" stroke-width="1" fill="none" fill-rule="evenodd">
        <path d="M33.367,53.251784 L33.367,53.369784 C33.367,54.178784 34.023,54.834784 34.832,54.834784 C35.641,54.834784 36.297,54.178784 36.297,53.369784 L36.297,53.251784 C36.297,52.442784 35.641,51.786784 34.832,51.786784 C34.023,51.786784 33.368,52.442784 33.367,53.251784 L33.367,53.251784 Z M72.666,22.945784 C75.83,18.219784 72.838,15.499784 71.855,14.605784 C71.779,14.536784 71.711,14.476784 71.657,14.422784 C71.083,13.852784 70.155,13.855784 69.586,14.430784 C69.015,15.004784 69.019,15.931784 69.594,16.501784 C69.674,16.580784 69.772,16.671784 69.885,16.773784 C70.823,17.627784 71.99,18.688784 70.232,21.314784 C67.503,25.388784 69.845,28.918784 71.465,30.216784 C71.734,30.433784 72.058,30.538784 72.379,30.538784 C72.808,30.538784 73.234,30.350784 73.523,29.988784 C74.029,29.357784 73.927,28.436784 73.296,27.930784 C73.296,27.930784 72.597,27.345784 72.194,26.417784 C71.702,25.288784 71.856,24.152784 72.666,22.945784 L72.666,22.945784 Z M59.909,22.945784 C63.066,18.228784 60.085,15.507784 59.104,14.612784 C59.027,14.542784 58.959,14.480784 58.904,14.426784 C58.333,13.854784 57.405,13.854784 56.833,14.425784 C56.261,14.997784 56.261,15.925784 56.833,16.497784 C56.914,16.578784 57.015,16.672784 57.131,16.777784 C58.066,17.631784 59.23,18.692784 57.475,21.314784 C54.745,25.388784 57.088,28.918784 58.708,30.216784 C58.977,30.433784 59.301,30.538784 59.622,30.538784 C60.052,30.538784 60.476,30.350784 60.766,29.988784 C61.271,29.357784 61.17,28.436784 60.539,27.930784 C60.539,27.930784 59.841,27.345784 59.436,26.417784 C58.945,25.288784 59.099,24.152784 59.909,22.945784 L59.909,22.945784 Z M7.929,32.265784 C7.929,32.827784 8.386,33.284784 8.948,33.284784 L12.107,33.284784 C11.879,30.921784 11.877,28.550784 12.092,26.241784 L8.948,26.241784 C8.386,26.241784 7.929,26.700784 7.929,27.261784 L7.929,32.265784 Z M15.042,33.284784 C15.143,34.267784 15.288,35.245784 15.475,36.214784 C16.817,43.157784 20.385,49.637784 26.494,53.374784 C26.494,53.352784 26.492,53.330784 26.492,53.308784 C26.492,48.711784 30.233,44.973784 34.832,44.973784 C35.636,44.973784 36.412,45.089784 37.147,45.302784 L37.147,2.95078396 C23.959,3.64678396 17.313,13.849784 15.468,23.312784 C15.454,23.378784 15.44,23.446784 15.429,23.513784 C15.261,24.407784 15.13,25.319784 15.034,26.241784 C14.798,28.548784 14.798,30.923784 15.042,33.284784 L15.042,33.284784 Z M34.832,58.719784 C37.812,58.719784 40.237,56.291784 40.237,53.308784 C40.237,50.327784 37.812,47.901784 34.832,47.901784 C31.848,47.901784 29.422,50.327784 29.422,53.308784 C29.422,56.291784 31.849,58.719784 34.832,58.719784 L34.832,58.719784 Z M57.803,75.914784 C60.672,76.313784 63.588,76.384784 66.471,76.108784 C69.22,75.846784 71.941,75.269784 74.549,74.356784 C77.028,73.489784 79.406,72.318784 81.573,70.829784 C83.714,69.358784 85.64,67.575784 87.228,65.518784 C89.086,63.110784 90.43,60.329784 91.208,57.393784 C91.688,55.583784 91.961,53.720784 92.054,51.851784 L43.038,51.851784 C43.122,52.324784 43.166,52.811784 43.166,53.308784 C43.166,57.482784 40.086,60.950784 36.08,61.555784 C39.799,69.213784 47.757,74.522784 57.803,75.914784 L57.803,75.914784 Z M36.575,93.572784 C36.283,94.100784 36.217,94.713784 36.387,95.298784 C36.555,95.881784 36.939,96.361784 37.469,96.652784 C37.996,96.943784 38.609,97.010784 39.194,96.840784 C39.779,96.671784 40.263,96.286784 40.553,95.759784 L50.721,77.276784 L50.716,77.268784 C49.248,76.781784 47.84,76.210784 46.5,75.556784 C46.494,75.557784 46.487,75.558784 46.481,75.559784 L36.575,93.572784 Z M78.156,90.121784 L71.616,78.234784 C68.841,78.868784 65.933,79.201784 62.965,79.201784 C61.128,79.201784 59.266,79.075784 57.399,78.816784 C56.105,78.637784 54.844,78.394784 53.614,78.096784 L46.998,90.121784 L78.156,90.121784 Z M84.676,95.893784 C85.28,96.989784 86.666,97.393784 87.761,96.792784 C88.857,96.188784 89.261,94.802784 88.66,93.705784 L78.793,75.778784 L78.787,75.778784 C77.422,76.420784 75.998,76.977784 74.524,77.443784 L84.676,95.893784 Z M82.87,44.514784 C82.87,43.150784 81.762,42.041784 80.398,42.041784 L74.629,42.041784 L75.013,43.863784 C75.18,44.654784 74.674,45.432784 73.882,45.599784 C73.78,45.620784 73.679,45.631784 73.578,45.631784 C72.9,45.631784 72.292,45.157784 72.146,44.468784 L71.635,42.041784 L66.588,42.041784 L66.971,43.863784 C67.138,44.654784 66.632,45.432784 65.841,45.599784 C65.739,45.620784 65.638,45.630784 65.537,45.630784 C64.859,45.630784 64.251,45.157784 64.105,44.468784 L63.594,42.040784 L58.748,42.040784 L59.132,43.862784 C59.299,44.654784 58.793,45.432784 58.001,45.599784 C57.899,45.620784 57.798,45.630784 57.697,45.630784 C57.02,45.630784 56.411,45.157784 56.265,44.467784 L55.754,42.040784 L49.086,42.040784 C47.72,42.040784 46.608,43.149784 46.608,44.513784 L46.608,48.921784 L46.609,48.921784 L82.87,48.921784 L82.87,44.514784 Z M8.948,23.312784 L12.486,23.312784 C12.506,23.198784 12.527,23.083784 12.549,22.970784 C13.73,16.700784 16.456,11.261784 20.436,7.24478396 C24.885,2.75678396 30.772,0.252783959 37.465,0.00478395944 C38.1,-0.0192160406 38.903,0.0277839594 39.491,0.602783959 C40.096,1.19378396 40.085,1.94778396 40.077,2.39678396 L40.077,46.836784 C40.799,47.423784 41.42,48.128784 41.913,48.921784 L43.68,48.921784 L43.68,44.514784 C43.68,41.534784 46.105,39.111784 49.086,39.111784 L80.398,39.111784 C83.377,39.111784 85.8,41.534784 85.8,44.514784 L85.8,48.921784 L92.337,48.921784 C92.403,48.921784 92.466,48.920784 92.526,48.919784 C93.023,48.911784 93.774,48.899784 94.379,49.515784 C94.965,50.112784 95.019,50.914784 94.995,51.624784 C94.876,54.773784 94.302,57.949784 93.159,60.893784 C92.065,63.708784 90.475,66.323784 88.487,68.595784 C86.521,70.841784 84.18,72.743784 81.62,74.273784 C81.542,74.320784 81.463,74.366784 81.385,74.412784 L91.227,92.295784 C92.604,94.807784 91.683,97.975784 89.173,99.359784 C88.382,99.793784 87.526,99.999784 86.68,99.999784 C84.844,99.999784 83.057,99.025784 82.11,97.307784 L79.768,93.051784 L45.387,93.051784 L43.119,97.173784 C42.45,98.386784 41.346,99.268784 40.009,99.654784 C39.527,99.794784 39.036,99.863784 38.549,99.863784 C37.684,99.863784 36.831,99.646784 36.057,99.219784 C34.844,98.554784 33.962,97.451784 33.574,96.115784 C33.185,94.777784 33.34,93.372784 34.009,92.158784 L43.917,74.144784 C38.844,71.052784 34.967,66.678784 32.798,61.393784 C30.485,60.810784 28.554,59.263784 27.461,57.201784 C18.889,53.255784 14.077,45.005784 12.51,36.214784 L8.948,36.214784 C6.77,36.214784 5,34.442784 5,32.265784 L5,27.261784 C5,25.083784 6.77,23.312784 8.948,23.312784 L8.948,23.312784 Z"
              id="icon_barbeque_grill" fill="#3A4B60"></path>
    </g>
</svg>