<?xml version="1.0" encoding="UTF-8"?>
<svg width="100px" height="100px" viewBox="0 0 100 100" version="1.1" xmlns="http://www.w3.org/2000/svg" xmlns:xlink="http://www.w3.org/1999/xlink">
    <title>icon / furniture / bassinet</title>
    <g id="icon-/-furniture-/-bassinet" stroke="none" stroke-width="1" fill="none" fill-rule="evenodd">
        <path d="M7.985,32.29 L92.015,32.29 L92.015,28.55 L7.985,28.55 L7.985,32.29 Z M82.784,35.277 L91.828,35.277 C91.258,37.235 89.446,38.67 87.306,38.67 C85.166,38.67 83.355,37.235 82.784,35.277 L82.784,35.277 Z M70.382,35.277 L79.424,35.277 C78.854,37.235 77.043,38.67 74.903,38.67 C72.763,38.67 70.952,37.235 70.382,35.277 L70.382,35.277 Z M57.785,35.277 L66.829,35.277 C66.258,37.235 64.447,38.67 62.306,38.67 C60.167,38.67 58.355,37.235 57.785,35.277 L57.785,35.277 Z M45.382,35.277 L54.425,35.277 C53.854,37.235 52.044,38.67 49.903,38.67 C47.763,38.67 45.953,37.235 45.382,35.277 L45.382,35.277 Z M32.979,35.277 L42.022,35.277 C41.452,37.235 39.64,38.67 37.501,38.67 C35.36,38.67 33.549,37.235 32.979,35.277 L32.979,35.277 Z M20.576,35.277 L29.619,35.277 C29.049,37.235 27.237,38.67 25.097,38.67 C22.958,38.67 21.146,37.235 20.576,35.277 L20.576,35.277 Z M8.173,35.277 L17.216,35.277 C16.645,37.235 14.834,38.67 12.694,38.67 C10.554,38.67 8.743,37.235 8.173,35.277 L8.173,35.277 Z M92.015,45.043 C92.015,52.334 86.084,58.266 78.793,58.266 L73.699,58.266 L77.67,53.996 C77.674,53.991 77.679,53.986 77.683,53.981 C78.493,53.087 78.905,51.932 78.845,50.728 C78.786,49.523 78.26,48.415 77.366,47.605 C76.472,46.796 75.316,46.384 74.112,46.443 C72.914,46.502 71.809,47.023 71.002,47.91 L61.232,58.279 C61.171,58.271 61.108,58.266 61.046,58.266 L38.757,58.266 L28.999,47.91 C28.19,47.023 27.087,46.503 25.887,46.443 C24.681,46.383 23.528,46.796 22.633,47.605 C21.74,48.415 21.215,49.523 21.155,50.728 C21.094,51.932 21.508,53.087 22.317,53.981 C22.321,53.986 22.326,53.991 22.33,53.996 L26.301,58.266 L21.208,58.266 C13.917,58.266 7.985,52.334 7.985,45.043 L7.985,40.04 C9.288,41.051 10.922,41.656 12.694,41.656 C15.237,41.656 17.494,40.416 18.895,38.509 C20.298,40.416 22.554,41.656 25.097,41.656 C27.639,41.656 29.897,40.416 31.299,38.509 C32.701,40.416 34.958,41.656 37.501,41.656 C40.043,41.656 42.3,40.416 43.702,38.509 C45.103,40.416 47.361,41.656 49.903,41.656 C52.446,41.656 54.704,40.416 56.105,38.509 C57.507,40.416 59.764,41.656 62.306,41.656 C64.909,41.656 67.212,40.356 68.604,38.373 C69.998,40.356 72.3,41.656 74.903,41.656 C77.445,41.656 79.703,40.416 81.104,38.509 C82.506,40.416 84.763,41.656 87.305,41.656 C89.079,41.656 90.713,41.051 92.015,40.04 L92.015,45.043 Z M54.29,74.752 L52.05,72.375 L73.183,49.947 L73.204,49.925 C73.477,49.623 73.853,49.445 74.261,49.424 C74.668,49.405 75.06,49.544 75.363,49.818 C75.666,50.092 75.843,50.468 75.864,50.876 C75.884,51.281 75.747,51.669 75.476,51.972 L54.29,74.752 Z M41.569,61.25 L58.431,61.25 L50,70.199 L41.569,61.25 Z M71.18,97.015 L66.42,97.015 L24.524,51.972 C24.254,51.67 24.116,51.281 24.136,50.876 C24.157,50.468 24.335,50.092 24.637,49.818 C24.94,49.544 25.33,49.404 25.739,49.425 C26.147,49.445 26.523,49.623 26.797,49.926 L26.817,49.948 L71.18,97.015 Z M33.562,97.015 L28.801,97.015 L45.696,79.12 L47.962,81.557 L33.562,97.015 Z M53.99,12.979 L53.99,25.564 L46.01,25.564 L46.01,12.979 C46.01,10.775 47.797,8.989 50,8.989 C52.204,8.989 53.99,10.775 53.99,12.979 L53.99,12.979 Z M40.007,12.729 C40.007,7.348 44.369,2.985 49.75,2.985 L50.25,2.985 C55.632,2.985 59.994,7.347 59.994,12.729 L59.994,25.564 L56.974,25.564 L56.974,12.979 C56.974,9.127 53.852,6.004 50,6.004 C46.148,6.004 43.025,9.126 43.025,12.979 L43.025,25.564 L40.007,25.564 L40.007,12.729 Z M92.404,25.564 L62.978,25.564 L62.978,12.729 C62.978,5.699 57.28,0 50.25,0 L49.75,0 C42.72,0 37.021,5.699 37.021,12.729 L37.021,25.564 L7.596,25.564 C6.162,25.564 5,26.727 5,28.161 L5,45.042 C5,53.994 12.257,61.25 21.208,61.25 L29.078,61.251 L43.658,76.929 L25.806,95.841 C25.276,96.404 24.974,97.175 25.094,97.938 C25.286,99.159 26.318,100 27.487,100 L33.81,100 C34.481,100 35.123,99.721 35.581,99.229 L50,83.749 L64.401,99.229 C64.859,99.721 65.501,100 66.173,100 L72.381,100 C73.153,100 73.922,99.69 74.395,99.08 C75.152,98.103 75.056,96.776 74.255,95.924 L56.341,76.929 L70.944,61.229 C71.025,61.242 71.109,61.251 71.194,61.251 L78.793,61.251 C87.744,61.251 95,53.995 95,45.043 L95,28.161 C95,26.727 93.838,25.564 92.404,25.564 L92.404,25.564 Z" id="Fill-1" fill="#3A4B60"></path>
    </g>
</svg>