<?xml version="1.0" encoding="UTF-8"?>
<svg width="100px" height="100px" viewBox="0 0 100 100" version="1.1" xmlns="http://www.w3.org/2000/svg" xmlns:xlink="http://www.w3.org/1999/xlink">
    <!-- Generator: Sketch 63.1 (92452) - https://sketch.com -->
    <title>icon / furniture / bed-post</title>
    <desc>Created with Sketch.</desc>
    <g id="icon-/-furniture-/-bed-post" stroke="none" stroke-width="1" fill="none" fill-rule="evenodd">
        <path d="M47.7516,13.2461 C47.9266,13.3921 48.0746,13.5711 48.1906,13.7781 C48.8136,14.8961 48.2206,16.4911 47.6146,17.6331 L46.3916,19.6731 C46.3166,19.7971 46.2776,19.9391 46.2776,20.0851 L46.2776,26.4491 C46.2776,26.6221 46.3316,26.7851 46.4336,26.9251 L47.9836,29.0251 C48.7236,30.0261 48.9046,31.3251 48.4656,32.4961 C47.3906,35.3691 47.0686,36.9631 47.1186,37.4551 C47.1456,37.7131 47.2446,37.9561 47.4216,38.1961 C48.4596,39.6011 48.4566,41.4321 47.4126,42.7491 L46.0486,44.4701 C45.9386,44.6101 45.8766,44.7881 45.8766,44.9681 L45.8766,81.0841 C45.8766,81.2821 45.9496,81.4731 46.0816,81.6201 L47.6136,83.3261 C48.7596,84.6011 48.9126,86.4651 47.9866,87.8571 C47.0946,89.1971 47.0856,90.6921 47.9606,92.3011 C48.5176,93.3241 48.8506,94.7021 48.9486,96.3981 C48.9716,96.8051 49.3216,97.1231 49.7456,97.1231 L50.0396,97.1231 C50.4626,97.1231 50.8126,96.8051 50.8366,96.3981 C50.9346,94.7021 51.2676,93.3221 51.8246,92.3001 C52.6986,90.6931 52.6896,89.1981 51.7976,87.8571 C50.8716,86.4661 51.0246,84.6011 52.1706,83.3261 L53.7036,81.6191 C53.8356,81.4721 53.9086,81.2811 53.9086,81.0841 L53.9086,44.9681 C53.9086,44.7881 53.8466,44.6111 53.7346,44.4691 L52.3726,42.7491 C51.3286,41.4321 51.3246,39.6011 52.3636,38.1951 C52.5406,37.9561 52.6396,37.7131 52.6656,37.4551 C52.7166,36.9631 52.3936,35.3691 51.3186,32.4961 C50.8806,31.3251 51.0606,30.0261 51.8016,29.0241 L53.3506,26.9251 C53.4536,26.7851 53.5076,26.6211 53.5076,26.4491 L53.5076,20.0851 C53.5076,19.9391 53.4686,19.7971 53.3936,19.6731 L52.2076,17.6981 C51.5646,16.4911 50.9716,14.8961 51.5946,13.7781 C51.7096,13.5701 51.8596,13.3921 52.0346,13.2451 C50.5046,12.5861 49.9286,10.7111 49.9126,9.1901 L49.9016,8.1971 L50.8276,7.8361 C51.8186,7.4481 52.4596,6.5101 52.4596,5.4441 C52.4596,4.0291 51.3076,2.8771 49.8916,2.8771 C48.4766,2.8771 47.3246,4.0291 47.3246,5.4441 C47.3246,6.5101 47.9656,7.4491 48.9576,7.8371 L49.8816,8.1971 L49.8726,9.1901 C49.8696,9.5351 49.7816,12.3841 47.7516,13.2461 M50.0396,100.0001 L49.7456,100.0001 C47.7996,100.0001 46.1886,98.4911 46.0766,96.5651 C46.0046,95.3131 45.7826,94.3131 45.4346,93.6761 C43.5656,90.2411 44.7316,87.5591 45.5926,86.2651 C45.7886,85.9701 45.7386,85.5421 45.4736,85.2481 L43.9416,83.5421 C43.3346,82.8641 42.9996,81.9911 42.9996,81.0841 L42.9996,44.9681 C42.9996,44.1421 43.2816,43.3321 43.7936,42.6851 L45.1586,40.9641 C45.4196,40.6341 45.3216,40.1931 45.1076,39.9041 C44.6226,39.2471 44.3376,38.5211 44.2576,37.7481 C44.2136,37.3191 44.0796,36.0111 45.7716,31.4881 C45.8676,31.2311 45.8296,30.9501 45.6696,30.7341 L44.1196,28.6331 C43.6496,27.9961 43.4006,27.2411 43.4006,26.4491 L43.4006,20.0851 C43.4006,19.4181 43.5826,18.7631 43.9256,18.1921 L45.1116,16.2181 C45.2326,15.9841 45.3616,15.6761 45.4536,15.4061 C44.7736,15.0531 44.3146,14.3811 44.2516,13.5621 C44.1476,12.1971 45.1616,10.9251 46.6096,10.6031 C46.6996,10.5371 46.8036,10.2871 46.8796,9.9811 C45.3746,8.9901 44.4486,7.3091 44.4486,5.4441 C44.4486,2.4421 46.8906,0.0001 49.8916,0.0001 C52.8936,0.0001 55.3356,2.4421 55.3356,5.4441 C55.3356,7.3081 54.4116,8.9871 52.9076,9.9791 C52.9906,10.2971 53.1026,10.5471 53.1966,10.6131 C54.6236,10.9251 55.6366,12.1971 55.5326,13.5621 C55.4706,14.3811 55.0116,15.0521 54.3326,15.4061 C54.4336,15.6981 54.5796,16.0371 54.7106,16.2831 L55.8586,18.1921 C56.2026,18.7641 56.3836,19.4181 56.3836,20.0851 L56.3836,26.4491 C56.3836,27.2401 56.1356,27.9951 55.6656,28.6331 L54.1156,30.7331 C53.9556,30.9501 53.9176,31.2311 54.0126,31.4881 C55.7056,36.0111 55.5716,37.3191 55.5266,37.7481 C55.4476,38.5221 55.1616,39.2471 54.6776,39.9031 C54.4636,40.1931 54.3646,40.6331 54.6266,40.9641 L55.9896,42.6841 C56.5026,43.3321 56.7846,44.1421 56.7846,44.9681 L56.7846,81.0841 C56.7846,81.9921 56.4506,82.8651 55.8436,83.5421 L54.3106,85.2481 C54.0466,85.5421 53.9966,85.9701 54.1926,86.2651 C55.0536,87.5591 56.2186,90.2421 54.3506,93.6751 C54.0026,94.3131 53.7806,95.3131 53.7086,96.5651 C53.5966,98.4911 51.9846,100.0001 50.0396,100.0001" id="icon_bed-post" fill="#3A4B60"></path>
    </g>
</svg>