<?xml version="1.0" encoding="UTF-8"?>
<svg width="100px" height="100px" viewBox="0 0 100 100" version="1.1" xmlns="http://www.w3.org/2000/svg">
    <title>icon / furniture / bench</title>
    <g id="icon-/-furniture-/-bench" stroke="none" stroke-width="1" fill="none" fill-rule="evenodd">
        <path d="M97.0703,39.0738 C97.0703,40.3098 96.0263,41.3158 94.7433,41.3158 L5.2573,41.3158 C3.9733,41.3158 2.9293,40.3098 2.9293,39.0728 L2.9293,35.7368 C2.9293,34.4998 3.9733,33.4938 5.2573,33.4938 L94.7433,33.4938 C96.0263,33.4938 97.0703,34.4998 97.0703,35.7368 L97.0703,39.0738 Z M93.2783,77.0698 L88.6253,77.0698 L88.6253,50.1958 C88.6253,49.3868 87.9683,48.7308 87.1603,48.7308 L12.8403,48.7308 C12.0313,48.7308 11.3753,49.3868 11.3753,50.1958 L11.3753,77.0698 L6.7213,77.0698 L6.7213,44.2458 L93.2783,44.2458 L93.2783,77.0698 Z M14.3043,57.9298 L85.6953,57.9298 L85.6953,51.6598 L14.3043,51.6598 L14.3043,57.9298 Z M22.3193,22.9288 L45.0703,22.9288 C47.3993,22.9288 49.2933,24.7668 49.2933,27.0258 C49.2933,28.4568 48.5433,29.7608 47.2853,30.5138 C47.2593,30.5298 47.2353,30.5478 47.2113,30.5638 L20.1913,30.5638 C18.8993,29.8308 18.0963,28.4768 18.0963,27.0258 C18.0963,24.7668 19.9913,22.9288 22.3193,22.9288 L22.3193,22.9288 Z M94.7433,30.5638 L51.2553,30.5638 C51.8803,29.5108 52.2233,28.2998 52.2233,27.0258 C52.2233,23.1518 49.0143,19.9998 45.0703,19.9998 L22.3193,19.9998 C18.3763,19.9998 15.1673,23.1518 15.1673,27.0258 C15.1673,28.2888 15.5153,29.5068 16.1433,30.5638 L5.2573,30.5638 C2.3583,30.5638 0.0003,32.8848 0.0003,35.7368 L0.0003,39.0738 C0.0003,41.4258 1.6043,43.4138 3.7923,44.0398 L3.7923,77.6078 C3.7923,78.9278 4.8743,79.9998 6.2053,79.9998 L11.8923,79.9998 C13.2223,79.9998 14.3053,78.9278 14.3053,77.6078 L14.3053,60.8608 L85.6953,60.8608 L85.6953,77.6078 C85.6953,78.9278 86.7773,79.9998 88.1083,79.9998 L93.7963,79.9998 C95.1263,79.9998 96.2093,78.9278 96.2093,77.6078 L96.2093,44.0398 C98.3953,43.4138 100.0003,41.4258 100.0003,39.0738 L100.0003,35.7368 C100.0003,32.8848 97.6413,30.5638 94.7433,30.5638 L94.7433,30.5638 Z"
              id="icon_bench" fill="#3A4B60"></path>
    </g>
</svg>