<?xml version="1.0" encoding="UTF-8"?>
<svg width="100px" height="100px" viewBox="0 0 100 100" version="1.1" xmlns="http://www.w3.org/2000/svg">
    <title>icon / furniture / bike</title>
    <g id="icon-/-furniture-/-bike" stroke="none" stroke-width="1" fill="none" fill-rule="evenodd">
        <path d="M81.6465,79.4594721 C73.2075,79.4594721 66.3405,72.5934721 66.3405,64.1524721 C66.3405,57.9224721 70.0845,52.5534721 75.4395,50.1674721 L76.6235,53.7164721 C72.7455,55.5914721 70.0635,59.5644721 70.0635,64.1524721 C70.0635,70.5404721 75.2595,75.7364721 81.6465,75.7364721 C88.0345,75.7364721 93.2305,70.5404721 93.2305,64.1524721 C93.2305,57.7664721 88.0345,52.5684721 81.6465,52.5684721 C80.9195,52.5684721 80.2095,52.6404721 79.5185,52.7684721 L78.3335,49.2124721 C79.4005,48.9764721 80.5085,48.8474721 81.6465,48.8474721 C90.0865,48.8474721 96.9535,55.7134721 96.9535,64.1524721 C96.9535,72.5934721 90.0865,79.4594721 81.6465,79.4594721 L81.6465,79.4594721 Z M73.8515,35.7774721 L71.1145,27.5714721 L82.3715,27.5714721 C82.8225,27.5714721 83.1885,27.9384721 83.1885,28.3904721 L83.1885,28.6744721 C83.1885,32.5914721 80.0015,35.7774721 76.0845,35.7774721 L73.8515,35.7774721 Z M77.5975,56.6394721 L80.2025,64.4444721 C80.4155,65.0834721 81.0085,65.4864721 81.6465,65.4864721 C81.8065,65.4864721 81.9685,65.4614721 82.1285,65.4084721 C82.9265,65.1424721 83.3585,64.2784721 83.0915,63.4804721 L80.4955,55.6964721 C80.8725,55.6454721 81.2555,55.6164721 81.6465,55.6164721 C86.3545,55.6164721 90.1835,59.4454721 90.1835,64.1524721 C90.1835,68.8604721 86.3545,72.6894721 81.6465,72.6894721 C76.9395,72.6894721 73.1105,68.8604721 73.1105,64.1524721 C73.1105,60.9104721 74.9275,58.0844721 77.5975,56.6394721 L77.5975,56.6394721 Z M63.9815,44.4444721 L39.2905,44.4444721 L36.1455,38.8244721 L43.3435,38.8244721 L47.6855,38.8244721 L68.8355,38.8244721 L63.9815,44.4444721 Z M52.8385,57.3464721 C51.5835,56.5144721 50.0805,56.0274721 48.4635,56.0274721 C47.6005,56.0274721 46.7705,56.1674721 45.9925,56.4244721 L40.9945,47.4914721 L61.3505,47.4914721 L52.8385,57.3464721 Z M47.5255,59.1654721 C47.8305,59.1054721 48.1435,59.0744721 48.4635,59.0744721 C49.3185,59.0744721 50.1225,59.2954721 50.8215,59.6824721 L48.9975,61.7944721 L47.5255,59.1654721 Z M43.8205,62.4394721 C44.0405,61.7704721 44.4015,61.1634721 44.8685,60.6554721 L45.8665,62.4394721 L43.8205,62.4394721 Z M48.4645,68.8524721 C46.3005,68.8524721 44.4615,67.4384721 43.8205,65.4864721 L49.1355,65.4864721 C49.5635,65.4864721 49.9885,65.3084721 50.2895,64.9584721 L52.9075,61.9274721 C53.1925,62.5474721 53.3525,63.2364721 53.3525,63.9634721 C53.3525,66.6584721 51.1605,68.8524721 48.4645,68.8524721 L48.4645,68.8524721 Z M40.6765,62.4394721 L36.6255,62.4394721 C36.0995,56.7904721 33.0035,51.8764721 28.5205,48.8824721 L33.3655,40.2064721 L37.0235,46.7144721 C37.0785,46.8124721 37.1445,46.8994721 37.2175,46.9804721 L43.3345,57.9154721 C41.9895,59.0584721 41.0285,60.6414721 40.6765,62.4394721 L40.6765,62.4394721 Z M18.3525,79.4594721 C9.9135,79.4594721 3.0465,72.5934721 3.0465,64.1524721 C3.0465,55.7134721 9.9135,48.8474721 18.3525,48.8474721 C20.4855,48.8474721 22.5165,49.2864721 24.3625,50.0774721 L22.5335,53.3534721 C21.2355,52.8494721 19.8265,52.5694721 18.3525,52.5694721 C11.9655,52.5694721 6.7685,57.7664721 6.7685,64.1524721 C6.7685,70.5404721 11.9655,75.7364721 18.3525,75.7364721 C24.2895,75.7364721 29.1935,71.2474721 29.8575,65.4864721 L33.5965,65.4864721 C32.9185,73.3044721 26.3425,79.4594721 18.3525,79.4594721 L18.3525,79.4594721 Z M23.7035,57.5074721 C25.2195,58.7304721 26.3125,60.4614721 26.7165,62.4394721 L20.9485,62.4394721 L23.7035,57.5074721 Z M17.0225,63.2204721 L17.0195,63.2264721 C17.0105,63.2424721 17.0025,63.2584721 16.9955,63.2744721 C16.9805,63.3034721 16.9665,63.3304721 16.9575,63.3534721 C16.8755,63.5394721 16.8295,63.7454721 16.8295,63.9634721 C16.8295,64.8044721 17.5105,65.4864721 18.3525,65.4864721 L26.7855,65.4864721 C26.1425,69.5624721 22.6065,72.6894721 18.3525,72.6894721 C13.6455,72.6894721 9.8155,68.8604721 9.8155,64.1524721 C9.8155,59.4454721 13.6455,55.6164721 18.3525,55.6164721 C19.2875,55.6164721 20.1855,55.7694721 21.0285,56.0484721 L17.0225,63.2204721 Z M27.0285,51.5534721 C30.5855,54.0104721 33.0555,57.9314721 33.5605,62.4384721 L29.8085,62.4384721 L29.8085,62.4394721 C29.3445,59.3234721 27.6345,56.6094721 25.2045,54.8194721 L27.0285,51.5534721 Z M23.1035,26.1914721 C21.9005,26.1914721 20.9215,25.2134721 20.9215,24.0104721 L20.9215,22.7284721 C20.9215,22.0924721 21.1855,21.5104721 21.6635,21.0904721 C22.0675,20.7334721 22.5675,20.5454721 23.0945,20.5454721 C23.1895,20.5454721 23.2855,20.5524721 23.3815,20.5644721 L33.3465,21.8464721 C34.4315,21.9854721 35.2505,22.9154721 35.2505,24.0104721 C35.2505,25.2134721 34.2715,26.1914721 33.0685,26.1914721 L23.1035,26.1914721 Z M100.0005,64.1524721 C100.0005,54.0334721 91.7665,45.8004721 81.6475,45.8004721 C80.1725,45.8004721 78.7385,45.9764721 77.3635,46.3064721 L74.8685,38.8244721 L76.0845,38.8244721 C81.6815,38.8244721 86.2355,34.2714721 86.2355,28.6744721 L86.2355,28.3904721 C86.2355,26.2594721 84.5015,24.5244721 82.3715,24.5244721 L74.6675,24.5244721 L70.0985,24.5244721 L69.2255,21.9094721 C69.0145,21.2744721 68.4185,20.8554721 67.7445,20.8684721 L58.4295,21.0944721 C57.5875,21.1144721 56.9225,21.8134721 56.9435,22.6544721 C56.9635,23.4824721 57.6415,24.1414721 58.4655,24.1414721 C58.4775,24.1414721 58.4905,24.1414721 58.5025,24.1404721 L66.6925,23.9414721 L67.5555,26.5294721 L69.0065,30.8804721 L70.6395,35.7774721 L47.6855,35.7774721 L43.3435,35.7774721 L34.4415,35.7774721 L30.7735,29.2374721 L33.0685,29.2374721 C35.9515,29.2374721 38.2965,26.8934721 38.2965,24.0094721 C38.2965,21.3874721 36.3355,19.1574721 33.7355,18.8234721 L23.7705,17.5424721 C22.2815,17.3514721 20.7795,17.8104721 19.6505,18.8024721 C18.5225,19.7944721 17.8755,21.2264721 17.8755,22.7284721 L17.8755,24.0094721 C17.8755,26.8934721 20.2205,29.2374721 23.1045,29.2374721 L27.2825,29.2374721 L31.6505,37.0294721 L25.8555,47.4044721 C23.5645,46.3744721 21.0245,45.8004721 18.3525,45.8004721 C8.2335,45.8004721 0.0005,54.0334721 0.0005,64.1524721 C0.0005,66.8084721 0.5805,69.4514721 1.7005,71.8584721 C2.7885,74.1954721 4.3735,76.2934721 6.3175,77.9844721 C8.4665,79.8554721 11.0375,81.2154721 13.7975,81.9224721 C15.3515,82.3194721 16.9565,82.5154721 18.5595,82.4964721 C21.7145,82.4604721 24.8785,81.5944721 27.6025,79.9984721 C29.8615,78.6744721 31.8295,76.8674721 33.3415,74.7304721 C34.8775,72.5614721 35.9335,70.0614721 36.4095,67.4444721 C36.5275,66.7974721 36.6095,66.1434721 36.6575,65.4864721 L40.6765,65.4864721 C41.3895,69.1354721 44.6095,71.8984721 48.4635,71.8984721 C52.8395,71.8984721 56.3995,68.3384721 56.3995,63.9634721 C56.3995,62.3044721 55.8875,60.7634721 55.0135,59.4884721 L71.9915,39.8324721 L74.4695,47.2624721 C67.9065,50.0624721 63.2935,56.5784721 63.2935,64.1524721 C63.2935,67.0914721 64.0055,70.0114721 65.3675,72.6154721 C66.6915,75.1474721 68.6095,77.3564721 70.9245,79.0304721 C73.6515,81.0024721 76.9125,82.1904721 80.2675,82.4464721 C80.7305,82.4814721 81.1955,82.4994721 81.6605,82.4994721 C85.0965,82.4964721 88.5295,81.5034721 91.4345,79.6644721 C93.8495,78.1374721 95.8975,76.0454721 97.3755,73.5994721 C98.8895,71.0884721 99.7845,68.2234721 99.9645,65.2954721 C99.9885,64.9154721 100.0005,64.5344721 100.0005,64.1524721 L100.0005,64.1524721 Z"
              id="icon_bike" fill="#3A4B60"></path>
    </g>
</svg>