<?xml version="1.0" encoding="UTF-8"?>
<svg width="100px" height="100px" viewBox="0 0 100 100" version="1.1" xmlns="http://www.w3.org/2000/svg" xmlns:xlink="http://www.w3.org/1999/xlink">
    <title>icon / furniture / bike-rack</title>
    <g id="icon-/-furniture-/-bike-rack" stroke="none" stroke-width="1" fill="none" fill-rule="evenodd">
        <path d="M33.7165,59.8482 L33.7165,59.8482 C34.6635,59.8482 35.4315,60.6162 35.4315,61.5632 C35.4315,62.5092 34.6635,63.2772 33.7165,63.2772 C32.7705,63.2772 32.0015,62.5092 32.0015,61.5632 C32.0015,60.6162 32.7705,59.8482 33.7165,59.8482 L33.7165,59.8482 Z M33.7165,36.7212 L33.7165,36.7212 C34.6635,36.7212 35.4315,37.4892 35.4315,38.4362 C35.4315,39.3822 34.6635,40.1502 33.7165,40.1502 C32.7705,40.1502 32.0015,39.3822 32.0015,38.4362 C32.0015,37.4892 32.7705,36.7212 33.7165,36.7212 L33.7165,36.7212 Z M76.4095,39.6102 L71.9145,45.2292 C70.4725,47.0372 69.8185,49.3502 70.0975,51.6472 L74.0975,83.6572 C74.3615,85.7732 72.8605,87.7022 70.7435,87.9662 C70.5845,87.9862 70.4255,87.9952 70.2655,87.9952 L54.6045,87.9952 L49.5045,51.0282 C49.3245,49.7262 49.6505,48.4062 50.4135,47.3362 L55.5235,40.1842 C56.3815,38.9862 57.7655,38.2742 59.2395,38.2732 L75.7585,38.2732 C76.2135,38.2732 76.5815115,38.6412 76.5815115,39.0952 C76.5825,39.2832 76.5185,39.4642 76.4025,39.6102 L76.4095,39.6102 Z M50.8065,95.2452 C49.9195,96.2482 48.5805,96.7282 47.2585,96.5172 L32.8715,94.1172 C30.3875,93.7092 28.5675,91.5602 28.5724897,89.0432 L28.5724897,71.6502 L38.8605,70.3642 L38.8605,82.8522 C38.8655,87.5842 42.7005,91.4192 47.4335,91.4252 L51.6135,91.4252 L51.7205,92.1792 C51.8725,93.2862 51.5395,94.4042 50.8065,95.2452 L50.8065,95.2452 Z M28.5725,33.0912 L38.8605,31.8052 L38.8605,66.9072 L28.5725,68.1932 L28.5725,33.0912 Z M28.5725,19.1022 C28.5725,17.9272 28.7015,16.7562 28.9565,15.6102 L30.9905,6.4552 C31.3745,4.6832 32.9465,3.4212 34.7605,3.42916218 L39.8665,3.42916218 C40.7035,3.4282 41.3835,4.1062 41.3845,4.9442 C41.3845,5.0692 41.3685,5.1942 41.3385,5.3152 L39.4515,12.8902 C39.0615,14.4382 38.8625,16.0282 38.8605,17.6242 L38.8605,28.3492 L28.5725,29.6342 L28.5725,19.1022 Z M75.7585,34.8432 L59.2395,34.8432 C56.6545,34.8432 54.2295,36.0902 52.7245,38.1922 L47.6215,45.3442 C46.3475,47.1242 45.8055,49.3282 46.1105,51.4972 L51.1425,87.9952 L47.4335,87.9952 C44.5925,87.9952 42.2895,86.5712 42.2895,83.7302 L42.2895,17.6242 C42.2905,16.3072 42.4515,14.9942 42.7705,13.7162 L44.6655,6.1402 C45.3255,3.4902 43.7125,0.8062 41.0635,0.1472 C40.6715,0.0492 40.2705,-0.000861413646 39.8665,-0.000861413646 L34.7605,-0.000861413646 C31.3375,-0.0148 28.3695,2.3662 27.6425,5.7112 L25.6095,14.8632 C25.2995,16.2552 25.1435,17.6762 25.1435,19.1022 L25.1435,36.7212 L21.7145,36.7212 C20.7675,36.7212 19.9995,37.4892 19.9995,38.4362 C19.9995,39.3822 20.7675,40.1502 21.7145,40.1502 L25.1435,40.1502 L25.1435,59.8482 L21.7145,59.8482 C20.7675,59.8482 19.9995,60.6162 19.9995,61.5632 C19.9995,62.5092 20.7675,63.2772 21.7145,63.2772 L25.1435,63.2772 L25.1435,89.0432 C25.1325,93.2392 28.1685,96.8232 32.3095,97.5002 L46.6975,99.9012 C47.0945,99.9662 47.4955,99.9992 47.8985,99.9992 C51.9235,99.9992 55.1865,96.7352 55.1855,92.7092 C55.1855,92.3762 55.1615,92.0432 55.1165,91.7132 L55.0765,91.4252 L70.2655,91.4252 C74.2895,91.4272 77.5535,88.1662 77.5555,84.1422 C77.5555,83.8372 77.5365,83.5342 77.4985,83.2312 L73.4955,51.2192 C73.3265,49.8422 73.7185,48.4552 74.5825,47.3702 L78.9835,41.8692 C80.0185,40.5752 80.3275,38.7842 79.6105,37.2892 C78.8675,35.7422 77.3525,34.8442 75.7585,34.8432 L75.7585,34.8432 Z" id="icon_bike-rack" fill="#3A4B60"></path>
    </g>
</svg>