<?xml version="1.0" encoding="UTF-8"?>
<svg width="100px" height="100px" viewBox="0 0 100 100" version="1.1" xmlns="http://www.w3.org/2000/svg" xmlns:xlink="http://www.w3.org/1999/xlink">
    <title>icon / furniture / bookcase</title>
    <g id="icon-/-furniture-/-bookcase" stroke="none" stroke-width="1" fill="none" fill-rule="evenodd">
        <path d="M67.0254,81.5412 L67.0254,81.5412 C67.0254,80.6502 67.7474,79.9292 68.6374,79.9292 L77.2404,79.9292 C78.1304,79.9292 78.8534,80.6502 78.8534,81.5412 C78.8534,82.4322 78.1304,83.1542 77.2404,83.1542 L68.6374,83.1542 C67.7474,83.1542 67.0254,82.4322 67.0254,81.5412 L67.0254,81.5412 Z M20.0714,81.5412 L20.0714,81.5412 C20.0714,80.6502 20.7944,79.9292 21.6844,79.9292 L30.2864,79.9292 C31.1774,79.9292 31.8994,80.6502 31.8994,81.5412 C31.8994,82.4322 31.1774,83.1542 30.2864,83.1542 L21.6844,83.1542 C20.7944,83.1542 20.0714,82.4322 20.0714,81.5412 L20.0714,81.5412 Z M96.7744,4.7262 L96.7744,32.2582 L88.1024,32.2582 L88.1024,29.1722 C88.1024,27.2392 86.5364,25.6722 84.6024,25.6722 L63.1084,25.6722 C61.1744,25.6722 59.6084,27.2392 59.6084,29.1722 L59.6084,32.2582 L46.2494,32.2582 C47.5964,31.5932 48.1504,29.9622 47.4854,28.6152 L38.2324,9.8582 C37.6384,8.6542 36.1814,8.1602 34.9784,8.7542 L31.4964,10.4722 L31.4964,9.1502 L25.1784,9.1502 C25.1784,7.8082 24.0904,6.7202 22.7494,6.7202 L18.0654,6.7202 C16.7234,6.7202 15.6354,7.8082 15.6354,9.1502 L15.6354,12.0652 L11.7494,12.0652 C10.4064,12.0652 9.3184,13.1532 9.3184,14.4952 L9.3184,32.2582 L3.2254,32.2582 L3.2254,4.7262 C3.2254,3.8972 3.8974,3.2262 4.7254,3.2262 L95.2744,3.2262 C96.1024,3.2262 96.7744,3.8972 96.7744,4.7262 L96.7744,4.7262 Z M51.6134,96.7742 L51.6134,67.7412 L52.7504,67.7412 L55.9754,67.7412 L58.9474,67.7412 L62.2934,67.7412 L68.4904,67.7412 L77.0944,67.7412 L77.1254,67.8032 L77.2494,67.7412 L96.7744,67.7412 L96.7744,95.2742 C96.7744,96.1032 96.1024,96.7742 95.2744,96.7742 L51.6134,96.7742 Z M36.2454,64.5162 L14.2024,64.5162 L14.2024,62.4222 C14.2024,61.8712 14.6484,61.4252 15.1994,61.4252 L35.2484,61.4252 C35.7984,61.4252 36.2454,61.8712 36.2454,62.4222 L36.2454,64.5162 Z M69.9144,45.8942 L72.6864,44.5252 L81.3634,62.1152 L78.5904,63.4832 L69.9144,45.8942 Z M68.4904,50.3002 L75.5034,64.5162 L68.4904,64.5162 L68.4904,50.3002 Z M62.2934,64.5152 L65.2654,64.5152 L65.2654,44.9022 L62.2934,44.9022 L62.2934,64.5152 Z M55.9754,64.5152 L58.9474,64.5152 L58.9474,47.8182 L55.9754,47.8182 L55.9754,64.5152 Z M49.6584,64.5162 L49.6584,42.4732 L52.7504,42.4732 L52.7504,44.5932 L52.7504,64.5162 L49.6584,64.5162 Z M62.8344,31.9892 L62.8344,29.8942 C62.8344,29.3442 63.2794,28.8972 63.8294,28.8972 L83.8804,28.8972 C84.4314,28.8972 84.8774,29.3442 84.8774,29.8942 L84.8774,31.9892 L62.8344,31.9892 Z M96.7744,35.4832 L96.7744,64.5162 L83.7894,64.5162 C84.8354,64.0002 85.2644,62.7332 84.7494,61.6872 L75.0874,42.1012 C74.5704,41.0542 73.3034,40.6242 72.2574,41.1412 L68.4904,42.9992 L68.4904,41.6772 L61.0604,41.6772 C59.8934,41.6772 58.9474,42.6232 58.9474,43.7892 L58.9474,44.5932 L55.9754,44.5932 L55.9754,41.3592 C55.9754,40.1932 55.0304,39.2472 53.8634,39.2472 L48.5464,39.2472 C47.3794,39.2472 46.4324,40.1932 46.4324,41.3592 L46.4324,64.5162 L39.4704,64.5162 L39.4704,61.6982 C39.4704,59.7662 37.9044,58.1982 35.9704,58.1982 L14.4764,58.1982 C12.5434,58.1982 10.9764,59.7662 10.9764,61.6982 L10.9764,64.5162 L3.2254,64.5162 L3.2254,35.4832 L96.7744,35.4832 Z M12.5444,31.9892 L15.6354,31.9892 L15.6354,15.2912 L12.5444,15.2912 L12.5444,31.9892 Z M25.1784,31.9892 L28.2704,31.9892 L28.2704,12.3762 L25.1784,12.3762 L25.1784,31.9892 Z M41.5964,30.9562 L32.9204,13.3662 L35.6914,11.9992 L44.3694,29.5892 L41.5964,30.9562 Z M31.4964,17.7722 L38.6414,32.2582 L31.4964,32.2582 L31.4964,17.7722 Z M18.8624,12.0652 L18.8624,9.9462 L21.9534,9.9462 L21.9534,31.9892 L18.8624,31.9892 L18.8624,12.0652 Z M3.2254,67.7412 L10.9764,67.7412 L39.4704,67.7412 L46.4324,67.7412 L48.3864,67.7412 L48.3864,96.7742 L4.7254,96.7742 C3.8974,96.7742 3.2254,96.1032 3.2254,95.2742 L3.2254,67.7412 Z M4.0004,100.0002 L96.0004,100.0002 C98.2094,100.0002 100.0004,98.2092 100.0004,96.0002 L100.0004,4.0002 C100.0004,1.7912 98.2094,0.0002 96.0004,0.0002 L4.0004,0.0002 C1.7914,0.0002 0.0004,1.7912 0.0004,4.0002 L0.0004,96.0002 C0.0004,98.2092 1.7914,100.0002 4.0004,100.0002 L4.0004,100.0002 Z" id="icon_bookcase" fill="#3A4B60"></path>
    </g>
</svg>