<?xml version="1.0" encoding="UTF-8"?>
<svg width="100px" height="100px" viewBox="0 0 100 100" version="1.1" xmlns="http://www.w3.org/2000/svg" xmlns:xlink="http://www.w3.org/1999/xlink">
    <title>icon / furniture / book-shelf</title>
    <g id="icon-/-furniture-/-book-shelf" stroke="none" stroke-width="1" fill="none" fill-rule="evenodd">
        <path d="M93.6699,54.1199 L73.6879,54.1199 C72.8819,54.1199 72.2279,54.7739 72.2279,55.5789 L72.2279,62.0819 L67.6399,62.0819 L67.6399,37.9189 L97.0809,37.9189 L97.0809,61.9009 L95.0809,61.9009 L95.0809,55.2249 C94.9219,54.5919 94.3529,54.1199 93.6699,54.1199 L93.6699,54.1199 Z M75.1469,58.0099 L92.2109,58.0099 L92.2109,57.0389 L75.1469,57.0389 L75.1469,58.0099 Z M75.1469,61.9009 L92.2109,61.9009 L92.2109,60.9289 L75.1469,60.9289 L75.1469,61.9009 Z M50.1329,43.7049 C49.9379,43.1009 49.3789,42.6959 48.7449,42.6959 L35.2779,42.6959 L35.2779,37.9189 L64.7209,37.9189 L64.7209,62.0819 L56.0979,62.0819 L50.1329,43.7049 Z M38.5349,45.6149 L43.8219,61.9009 L42.3189,61.9009 L37.0319,45.6149 L38.5349,45.6149 Z M46.8949,61.9009 L41.6069,45.6149 L43.1119,45.6149 L48.3989,61.9009 L46.8949,61.9009 Z M51.4679,61.9009 L46.1809,45.6149 L47.6849,45.6149 L52.9709,61.9009 L51.4679,61.9009 Z M35.2779,49.6649 L39.3099,62.0819 L35.2779,62.0819 L35.2779,49.6649 Z M19.8099,42.6999 L6.0889,42.6999 C5.2839,42.6999 4.6299,43.3539 4.6299,44.1589 L4.6299,62.0819 L2.9189,62.0819 L2.9189,37.9189 L32.3599,37.9189 L32.3599,62.0819 L21.2699,62.0819 L21.2699,44.1589 C21.2699,43.3539 20.6149,42.6999 19.8099,42.6999 L19.8099,42.6999 Z M16.6959,61.9009 L18.3509,61.9009 L18.3509,45.6179 L16.6959,45.6179 L16.6959,61.9009 Z M12.1219,61.9009 L13.7759,61.9009 L13.7759,45.6179 L12.1219,45.6179 L12.1219,61.9009 Z M7.5489,61.9009 L9.2019,61.9009 L9.2019,45.6179 L7.5489,45.6179 L7.5489,61.9009 Z M97.4469,34.9999 L2.5529,34.9999 C1.1449,34.9999 -0.0001,36.1449 -0.0001,37.5539 L-0.0001,62.4469 C-0.0001,63.8549 1.1449,64.9999 2.5529,64.9999 L97.4469,64.9999 C98.8559,64.9999 99.9999,63.8549 99.9999,62.4469 L99.9999,37.5539 C99.9999,36.1449 98.8559,34.9999 97.4469,34.9999 L97.4469,34.9999 Z" id="Fill-1" fill="#3A4B60"></path>
    </g>
</svg>