<?xml version="1.0" encoding="UTF-8"?>
<svg width="100px" height="100px" viewBox="0 0 100 100" version="1.1" xmlns="http://www.w3.org/2000/svg" xmlns:xlink="http://www.w3.org/1999/xlink">
    <!-- Generator: Sketch 63.1 (92452) - https://sketch.com -->
    <title>icon / furniture / bouncy-chair</title>
    <desc>Created with Sketch.</desc>
    <g id="icon-/-furniture-/-bouncy-chair" stroke="none" stroke-width="1" fill="none" fill-rule="evenodd">
        <path d="M73.71,52.8291 L70.339,47.2441 C73.619,47.5671 76.87,47.7321 80.025,47.7321 C84.578,47.7321 89.48,47.4271 94.214,46.8741 C94.318,46.8611 94.423,46.8551 94.525,46.8551 C95.864,46.8551 96.991,47.8591 97.147,49.1901 C97.229,49.8911 97.032,50.5821 96.595,51.1351 C96.157,51.6881 95.53,52.0381 94.829,52.1201 C89.876,52.6991 84.749,53.0161 79.969,53.0161 C77.848,53.0161 75.769,52.9401 73.71,52.8291 L73.71,52.8291 Z M75.906,56.4711 L75.477,55.7581 C76.03,55.7781 76.595,55.7791 77.153,55.7931 C76.737,56.0281 76.322,56.2481 75.906,56.4711 L75.906,56.4711 Z M47.292,60.4371 C40.979,58.3051 35.661,53.8051 31.572,47.2331 L33.314,44.3481 C35.922,45.8971 38.712,47.3121 41.644,48.5751 C42.947,51.2251 45.668,53.0571 48.814,53.0571 C50.041,53.0571 51.199,52.7711 52.238,52.2751 C58.334,53.9581 64.814,55.0491 71.635,55.5351 L73.058,57.8941 C63.927,62.1131 55.001,63.0401 47.292,60.4371 L47.292,60.4371 Z M29.781,44.0561 C29.292,43.1051 28.82,42.1281 28.376,41.1071 C29.105,41.6371 29.856,42.1531 30.623,42.6601 L29.781,44.0561 Z M17.932,25.9441 C17.213,24.6791 17.658,23.0631 18.925,22.3441 C19.321,22.1181 19.772,21.9991 20.228,21.9991 C21.177,21.9991 22.058,22.5121 22.525,23.3371 C25.339,28.2911 29.597,32.4331 34.749,35.8231 L32.086,40.2361 C25.826,36.0851 20.892,31.1551 17.932,25.9441 L17.932,25.9441 Z M37.448,37.4951 C39.08,38.4341 40.798,39.2901 42.565,40.0891 C41.476,41.4551 40.819,43.1821 40.819,45.0611 C40.819,45.0751 40.822,45.0891 40.822,45.1031 C38.715,44.1211 36.692,43.0591 34.776,41.9241 L37.448,37.4951 Z M46.423,22.6241 C46.686,22.7061 46.953,22.7751 47.227,22.8311 L47.227,37.2251 C46.409,37.3911 45.639,37.6831 44.932,38.0791 C42.795,37.1281 40.786,36.1101 38.939,35.0261 L46.423,22.6241 Z M48.814,10.1761 C51.477,10.1761 53.635,12.3331 53.635,14.9951 C53.635,17.6571 51.477,19.8151 48.814,19.8151 C46.152,19.8151 43.995,17.6571 43.995,14.9951 C43.995,12.3331 46.152,10.1761 48.814,10.1761 L48.814,10.1761 Z M64.504,43.7191 C61.591,43.2621 58.829,42.6681 56.191,41.9801 C55.181,39.5701 53.023,37.7561 50.403,37.2251 L50.403,22.8311 C50.842,22.7421 51.263,22.6111 51.672,22.4541 L64.504,43.7191 Z M51.439,49.0971 C51.438,49.0971 51.438,49.0981 51.438,49.0981 C51.232,49.2301 51.016,49.3471 50.791,49.4481 C50.691,49.4941 50.586,49.5281 50.483,49.5671 C50.312,49.6311 50.137,49.6861 49.956,49.7301 C49.863,49.7541 49.77,49.7771 49.674,49.7951 C49.395,49.8461 49.109,49.8811 48.814,49.8811 C48.513,49.8811 48.219,49.8461 47.932,49.7921 C47.832,49.7731 47.736,49.7451 47.639,49.7201 C47.46,49.6751 47.284,49.6211 47.114,49.5571 C46.997,49.5121 46.882,49.4641 46.77,49.4101 C46.639,49.3491 46.514,49.2771 46.39,49.2041 C46.262,49.1291 46.131,49.0561 46.011,48.9691 C45.958,48.9311 45.913,48.8851 45.861,48.8451 C45.332,48.4261 44.888,47.9031 44.57,47.3001 C44.566,47.2921 44.563,47.2851 44.559,47.2771 C44.446,47.0601 44.349,46.8341 44.269,46.6001 C44.105,46.1131 43.995,45.6021 43.995,45.0611 C43.995,43.6001 44.659,42.3071 45.686,41.4231 C45.895,41.2441 46.117,41.0821 46.354,40.9381 C46.366,40.9311 46.38,40.9251 46.393,40.9171 C46.613,40.7851 46.846,40.6701 47.088,40.5741 C47.17,40.5421 47.259,40.5221 47.344,40.4951 C47.527,40.4331 47.712,40.3721 47.906,40.3331 C48.201,40.2771 48.503,40.2421 48.814,40.2421 C49.129,40.2421 49.434,40.2761 49.731,40.3341 C49.829,40.3521 49.921,40.3871 50.017,40.4111 C50.211,40.4611 50.404,40.5161 50.588,40.5891 C50.695,40.6311 50.797,40.6831 50.899,40.7331 C51.062,40.8111 51.22,40.8941 51.371,40.9891 C51.472,41.0531 51.569,41.1221 51.665,41.1931 C51.805,41.2961 51.939,41.4061 52.065,41.5231 C52.153,41.6041 52.24,41.6861 52.322,41.7731 C52.442,41.9011 52.552,42.0391 52.656,42.1791 C52.727,42.2721 52.8,42.3621 52.862,42.4611 C52.966,42.6201 53.052,42.7911 53.136,42.9631 C53.181,43.0561 53.233,43.1421 53.273,43.2381 C53.503,43.8011 53.635,44.4151 53.635,45.0611 C53.635,46.7541 52.758,48.2371 51.439,49.0971 L51.439,49.0971 Z M69.843,52.5661 C64.684,52.1021 59.752,51.2541 55.04,50.0671 C56.145,48.6951 56.811,46.9561 56.811,45.0611 C56.811,45.0211 56.805,44.9811 56.804,44.9411 C59.948,45.7101 63.146,46.3241 66.345,46.7681 L69.843,52.5661 Z M88.858,74.4751 C88.903,74.4481 88.952,74.4361 89,74.4361 C89.112,74.4361 89.219,74.5031 89.264,74.6151 L90.374,77.4011 C91.491,80.2061 93.009,82.8331 94.878,85.2031 C95.965,86.5811 95.577,88.6011 94.058,89.4791 L93.54,89.7781 C93.084,90.0411 92.59,90.1651 92.105,90.1651 C90.971,90.1651 89.881,89.4921 89.427,88.3501 C88.31,85.5471 86.792,82.9191 84.923,80.5501 L83.064,78.1941 C82.957,78.0581 82.995,77.8591 83.145,77.7731 L88.858,74.4751 Z M15.188,77.7731 C15.337,77.8591 15.376,78.0581 15.269,78.1941 L13.41,80.5501 C11.54,82.9191 10.023,85.5471 8.906,88.3501 C8.451,89.4921 7.362,90.1651 6.229,90.1651 C5.742,90.1651 5.248,90.0411 4.793,89.7781 L4.274,89.4791 C2.755,88.6011 2.367,86.5811 3.454,85.2031 C5.324,82.8331 6.841,80.2061 7.958,77.4011 L9.068,74.6151 C9.113,74.5031 9.221,74.4361 9.332,74.4361 C9.38,74.4361 9.429,74.4481 9.474,74.4751 L15.188,77.7731 Z M95.158,54.9351 C96.611,54.7661 97.911,54.0411 98.818,52.8931 C99.726,51.7471 100.132,50.3141 99.962,48.8611 C99.641,46.1011 97.303,44.0201 94.525,44.0201 C94.31,44.0201 94.091,44.0331 93.877,44.0581 C89.259,44.5991 84.469,44.8961 80.025,44.8961 C76.009,44.8961 72.181,44.6691 68.537,44.2571 L54.352,20.7501 C55.864,19.2941 56.811,17.2551 56.811,14.9951 C56.811,10.5871 53.224,7.0001 48.814,7.0001 C44.406,7.0001 40.819,10.5871 40.819,14.9951 C40.819,17.4331 41.919,19.6151 43.645,21.0831 L36.247,33.3411 C31.036,29.8471 27.233,25.8861 24.991,21.9361 C24.021,20.2261 22.195,19.1641 20.228,19.1641 C19.283,19.1641 18.349,19.4111 17.525,19.8781 C14.899,21.3711 13.977,24.7201 15.466,27.3441 C17.504,30.9331 20.408,34.3851 23.975,37.5651 C25.134,40.9711 26.507,44.0801 28.074,46.8851 L12.387,72.8821 L10.892,72.0181 C10.417,71.7451 9.879,71.6011 9.332,71.6011 C8.048,71.6011 6.91,72.3721 6.435,73.5651 L5.324,76.3521 C4.308,78.9031 2.93,81.2901 1.229,83.4471 C0.2,84.7501 -0.21,86.4331 0.103,88.0631 C0.415,89.6931 1.419,91.1041 2.857,91.9341 L3.375,92.2331 C4.243,92.7351 5.231,93.0001 6.229,93.0001 C8.584,93.0001 10.668,91.5871 11.54,89.4001 C12.557,86.8491 13.935,84.4621 15.636,82.3061 L17.494,79.9501 C18.056,79.2401 18.279,78.3211 18.108,77.4311 C17.938,76.5411 17.39,75.7701 16.605,75.3171 L15.137,74.4701 L29.942,49.9331 C34.274,56.4181 39.825,60.9081 46.386,63.1241 C49.568,64.1991 52.928,64.7301 56.406,64.7301 C62.213,64.7301 68.349,63.2491 74.537,60.3461 L83.095,74.5281 L81.728,75.3171 C80.942,75.7711 80.396,76.5411 80.225,77.4311 C80.054,78.3191 80.276,79.2371 80.837,79.9481 L82.696,82.3061 C84.398,84.4621 85.776,86.8491 86.793,89.4001 C87.664,91.5871 89.749,93.0001 92.105,93.0001 C93.103,93.0001 94.089,92.7351 94.958,92.2331 L95.476,91.9341 C96.913,91.1041 97.917,89.6931 98.23,88.0621 C98.543,86.4331 98.133,84.7501 97.105,83.4471 C95.403,81.2911 94.024,78.9041 93.008,76.3521 L91.897,73.5651 C91.423,72.3721 90.285,71.6011 89,71.6011 C88.453,71.6011 87.914,71.7461 87.44,72.0191 L85.846,72.9401 L77.377,58.9071 C79.093,57.9831 80.809,56.9521 82.52,55.8131 C86.606,55.7271 90.97,55.4261 95.158,54.9351 L95.158,54.9351 Z M48.814,47.0461 C47.721,47.0461 46.83,46.1561 46.83,45.0611 C46.83,43.9671 47.721,43.0771 48.814,43.0771 C49.909,43.0771 50.8,43.9671 50.8,45.0611 C50.8,46.1561 49.909,47.0461 48.814,47.0461 L48.814,47.0461 Z M48.814,41.9421 C47.093,41.9421 45.696,43.3391 45.696,45.0611 C45.696,46.7841 47.093,48.1811 48.814,48.1811 C50.537,48.1811 51.934,46.7841 51.934,45.0611 C51.934,43.3391 50.537,41.9421 48.814,41.9421 L48.814,41.9421 Z" id="icon_bouncy-chair" fill="#3A4B60"></path>
    </g>
</svg>