<?xml version="1.0" encoding="UTF-8"?>
<svg width="100px" height="100px" viewBox="0 0 100 100" version="1.1" xmlns="http://www.w3.org/2000/svg" xmlns:xlink="http://www.w3.org/1999/xlink">
    <!-- Generator: Sketch 63.1 (92452) - https://sketch.com -->
    <title>icon / furniture / bowflex</title>
    <desc>Created with Sketch.</desc>
    <g id="icon-/-furniture-/-bowflex" stroke="none" stroke-width="1" fill="none" fill-rule="evenodd">
        <path d="M58.2236,63.5293 L58.4146,65.7643 L58.7336,69.5073 L45.2886,69.5073 L45.5336,65.7643 L45.7776,62.0143 L46.9376,44.2543 L47.1576,40.8833 C47.2066,40.1223 47.8376,39.5243 48.5926,39.5243 L49.3986,39.5243 L49.5396,39.5243 L54.8546,39.5243 C55.6066,39.5243 56.2226,40.0953 56.2876,40.8543 L56.7716,46.5263 L58.2236,63.5293 Z M53.4486,86.2523 L53.4486,96.2503 L50.6016,96.2503 L50.6016,86.2523 L50.6016,83.7523 L50.6016,75.0473 L50.6016,75.0453 L50.6016,73.0753 L53.4486,73.0753 L53.4486,75.0453 C53.4486,75.0463 53.4486,75.0463 53.4486,75.0473 L53.4486,83.7523 L53.4486,86.2523 Z M83.7126,12.3283 C83.1906,11.5523 82.1406,11.3483 81.3676,11.8683 C80.7006,12.3163 70.5056,19.2503 62.5526,28.7143 C69.3176,18.2323 79.5076,9.6993 79.6606,9.5733 C80.3786,8.9773 80.4786,7.9133 79.8836,7.1943 C79.2876,6.4753 78.2236,6.3743 77.5046,6.9693 C76.6706,7.6593 59.7396,21.8343 54.6936,37.0113 L54.5106,37.0113 L54.5106,2.5003 L64.8046,2.5003 C65.6356,2.5003 66.3156,1.9373 66.3156,1.2503 C66.3156,0.5623 65.6356,0.0003 64.8046,0.0003 L39.2446,0.0003 C38.4136,0.0003 37.7346,0.5623 37.7346,1.2503 C37.7346,1.9373 38.4136,2.5003 39.2446,2.5003 L49.5396,2.5003 L49.5396,37.0113 L48.5926,37.0113 C48.5326,37.0113 48.4756,37.0263 48.4156,37.0283 C42.3276,22.2893 24.5706,8.8413 23.6746,8.1703 C22.9276,7.6103 21.8676,7.7613 21.3086,8.5083 C20.7496,9.2563 20.9006,10.3153 21.6476,10.8753 C21.7876,10.9793 29.6526,16.9313 36.5986,24.9783 C28.0906,17.9803 19.1216,13.3533 18.4576,13.0143 C17.6246,12.5913 16.6076,12.9213 16.1846,13.7543 C15.7606,14.5853 16.0916,15.6033 16.9236,16.0263 C17.1596,16.1463 36.9586,26.3563 45.1826,39.0093 C44.8886,39.5213 44.6896,40.0953 44.6496,40.7193 L43.2596,62.0143 L35.6396,62.0143 C35.0806,62.0143 34.6276,62.4673 34.6276,63.0273 L34.6276,64.7523 C34.6276,65.3113 35.0806,65.7643 35.6396,65.7643 L43.0156,65.7643 L42.6886,70.7633 L41.6546,70.7633 C40.4186,70.7633 39.4176,71.6453 39.4176,72.7323 L39.4176,75.0453 C39.4176,76.1323 40.4186,77.0123 41.6546,77.0123 L48.3646,77.0123 C48.4036,77.0123 48.4396,77.0053 48.4776,77.0033 L48.4776,83.7523 L39.9896,83.7523 C39.4306,83.7523 38.9766,84.2053 38.9766,84.7643 L38.9766,85.2393 C38.9766,85.7993 39.4306,86.2523 39.9896,86.2523 L48.4776,86.2523 L48.4776,96.2503 L39.9896,96.2503 C39.4306,96.2503 38.9766,96.7043 38.9766,97.2623 L38.9766,98.9873 C38.9766,99.5473 39.4306,100.0003 39.9896,100.0003 L64.0606,100.0003 C64.6196,100.0003 65.0736,99.5473 65.0736,98.9873 L65.0736,97.2623 C65.0736,96.7043 64.6196,96.2503 64.0606,96.2503 L55.5726,96.2503 L55.5726,86.2523 L64.0606,86.2523 C64.6196,86.2523 65.0736,85.7993 65.0736,85.2393 L65.0736,84.7643 C65.0736,84.2053 64.6196,83.7523 64.0606,83.7523 L55.5726,83.7523 L55.5726,77.0033 C55.6106,77.0053 55.6466,77.0123 55.6846,77.0123 L62.3956,77.0123 C63.6316,77.0123 64.6326,76.1323 64.6326,75.0453 L64.6326,72.7323 C64.6326,71.6453 63.6316,70.7633 62.3956,70.7633 L61.3636,70.7633 L60.9366,65.7643 L68.4106,65.7643 C68.9696,65.7643 69.4226,65.3113 69.4226,64.7523 L69.4226,63.0273 C69.4226,62.4673 68.9696,62.0143 68.4106,62.0143 L60.6166,62.0143 L58.7916,40.6403 C58.7876,40.5913 58.7716,40.5453 58.7656,40.4953 C65.1676,26.9773 83.0426,14.8143 83.2536,14.6743 C84.0276,14.1533 84.2326,13.1013 83.7126,12.3283 L83.7126,12.3283 Z" id="icon_bowflex" fill="#3A4B60"></path>
    </g>
</svg>