<?xml version="1.0" encoding="UTF-8"?>
<svg width="100px" height="100px" viewBox="0 0 100 100" version="1.1" xmlns="http://www.w3.org/2000/svg" xmlns:xlink="http://www.w3.org/1999/xlink">
    <title>icon / furniture / box-spring</title>
    <g id="icon-/-furniture-/-box-spring" stroke="none" stroke-width="1" fill="none" fill-rule="evenodd">
        <path d="M91.6373,71.268 C91.6373,74.289 87.1743,75.871 82.7673,75.871 C78.3593,75.871 73.8963,74.289 73.8963,71.268 C73.8963,70.464 74.5483,69.812 75.3533,69.812 C76.1573,69.812 76.8093,70.464 76.8093,71.268 C76.9343,71.72 78.9583,72.957 82.7673,72.957 C86.5763,72.957 88.6013,71.72 88.7273,71.249 C88.7273,70.446 89.3783,69.803 90.1823,69.803 C90.9863,69.803 91.6373,70.464 91.6373,71.268 L91.6373,71.268 Z M91.6373,65.2 C91.6373,68.221 87.1743,69.802 82.7673,69.802 C78.3593,69.802 73.8963,68.221 73.8963,65.2 C73.8963,64.396 74.5483,63.744 75.3533,63.744 C76.1573,63.744 76.8093,64.396 76.8093,65.2 C76.9343,65.652 78.9583,66.889 82.7673,66.889 C86.5763,66.889 88.6013,65.652 88.7273,65.182 C88.7273,64.378 89.3783,63.735 90.1823,63.735 C90.9863,63.735 91.6373,64.396 91.6373,65.2 L91.6373,65.2 Z M82.7673,57.442 C86.5323,57.442 88.5513,58.65 88.7213,59.132 C88.5503,59.615 86.5303,60.822 82.7673,60.822 C78.9583,60.822 76.9343,59.584 76.8073,59.149 C76.9333,58.679 78.9563,57.442 82.7673,57.442 L82.7673,57.442 Z M82.7673,63.734 C87.1743,63.734 91.6373,62.154 91.6373,59.132 C91.6373,56.111 87.1743,54.529 82.7673,54.529 C78.3593,54.529 73.8963,56.111 73.8963,59.132 C73.8963,62.154 78.3593,63.734 82.7673,63.734 L82.7673,63.734 Z M69.7923,71.268 C69.7923,74.289 65.3293,75.871 60.9223,75.871 C56.5143,75.871 52.0513,74.289 52.0513,71.268 C52.0513,70.464 52.7033,69.812 53.5083,69.812 C54.3123,69.812 54.9643,70.464 54.9643,71.268 C55.0893,71.72 57.1143,72.957 60.9223,72.957 C64.7323,72.957 66.7563,71.72 66.8823,71.249 C66.8823,70.446 67.5333,69.803 68.3373,69.803 C69.1413,69.803 69.7923,70.464 69.7923,71.268 L69.7923,71.268 Z M69.7923,65.2 C69.7923,68.221 65.3293,69.802 60.9223,69.802 C56.5143,69.802 52.0513,68.221 52.0513,65.2 C52.0513,64.396 52.7033,63.744 53.5083,63.744 C54.3123,63.744 54.9643,64.396 54.9643,65.2 C55.0893,65.652 57.1143,66.889 60.9223,66.889 C64.7323,66.889 66.7563,65.652 66.8823,65.182 C66.8823,64.378 67.5333,63.735 68.3373,63.735 C69.1413,63.735 69.7923,64.396 69.7923,65.2 L69.7923,65.2 Z M60.9223,60.822 C57.1143,60.822 55.0893,59.584 54.9623,59.149 C55.0883,58.679 57.1123,57.442 60.9223,57.442 C64.6873,57.442 66.7063,58.65 66.8763,59.132 C66.7053,59.615 64.6853,60.822 60.9223,60.822 L60.9223,60.822 Z M60.9223,54.529 C56.5143,54.529 52.0513,56.111 52.0513,59.132 C52.0513,62.154 56.5143,63.734 60.9223,63.734 C65.3293,63.734 69.7923,62.154 69.7923,59.132 C69.7923,56.111 65.3293,54.529 60.9223,54.529 L60.9223,54.529 Z M47.9483,71.268 C47.9483,74.289 43.4863,75.871 39.0773,75.871 C34.6693,75.871 30.2063,74.289 30.2063,71.268 C30.2063,70.464 30.8593,69.812 31.6633,69.812 C32.4673,69.812 33.1193,70.464 33.1193,71.268 C33.2443,71.72 35.2693,72.957 39.0773,72.957 C42.8873,72.957 44.9113,71.72 45.0373,71.249 C45.0373,70.446 45.6893,69.803 46.4923,69.803 C47.2963,69.803 47.9483,70.464 47.9483,71.268 L47.9483,71.268 Z M47.9483,65.2 C47.9483,68.221 43.4863,69.802 39.0773,69.802 C34.6693,69.802 30.2063,68.221 30.2063,65.2 C30.2063,64.396 30.8593,63.744 31.6633,63.744 C32.4673,63.744 33.1193,64.396 33.1193,65.2 C33.2443,65.652 35.2693,66.889 39.0773,66.889 C42.8873,66.889 44.9113,65.652 45.0373,65.182 C45.0373,64.378 45.6893,63.735 46.4923,63.735 C47.2963,63.735 47.9483,64.396 47.9483,65.2 L47.9483,65.2 Z M39.0773,60.822 C35.2693,60.822 33.2443,59.584 33.1173,59.149 C33.2433,58.679 35.2673,57.442 39.0773,57.442 C42.8423,57.442 44.8623,58.65 45.0323,59.132 C44.8613,59.615 42.8403,60.822 39.0773,60.822 L39.0773,60.822 Z M39.0773,54.529 C34.6693,54.529 30.2063,56.111 30.2063,59.132 C30.2063,62.154 34.6693,63.734 39.0773,63.734 C43.4863,63.734 47.9483,62.154 47.9483,59.132 C47.9483,56.111 43.4863,54.529 39.0773,54.529 L39.0773,54.529 Z M26.1033,71.268 C26.1033,74.289 21.6413,75.871 17.2333,75.871 C12.8243,75.871 8.3623,74.289 8.3623,71.268 C8.3623,70.464 9.0143,69.812 9.8193,69.812 C10.6223,69.812 11.2753,70.464 11.2753,71.268 C11.4003,71.72 13.4243,72.957 17.2333,72.957 C21.0423,72.957 23.0673,71.72 23.1933,71.249 C23.1933,70.446 23.8443,69.803 24.6483,69.803 C25.4513,69.803 26.1033,70.464 26.1033,71.268 L26.1033,71.268 Z M26.1033,65.2 C26.1033,68.221 21.6413,69.802 17.2333,69.802 C12.8243,69.802 8.3623,68.221 8.3623,65.2 C8.3623,64.396 9.0143,63.744 9.8193,63.744 C10.6223,63.744 11.2753,64.396 11.2753,65.2 C11.4003,65.652 13.4243,66.889 17.2333,66.889 C21.0423,66.889 23.0673,65.652 23.1933,65.182 C23.1933,64.378 23.8443,63.735 24.6483,63.735 C25.4513,63.735 26.1033,64.396 26.1033,65.2 L26.1033,65.2 Z M17.2333,60.822 C13.4243,60.822 11.4003,59.584 11.2733,59.149 C11.3993,58.679 13.4223,57.442 17.2333,57.442 C20.9973,57.442 23.0173,58.65 23.1873,59.132 C23.0163,59.615 20.9953,60.822 17.2333,60.822 L17.2333,60.822 Z M17.2333,54.529 C12.8243,54.529 8.3623,56.111 8.3623,59.132 C8.3623,62.154 12.8243,63.734 17.2333,63.734 C21.6413,63.734 26.1033,62.154 26.1033,59.132 C26.1033,56.111 21.6413,54.529 17.2333,54.529 L17.2333,54.529 Z M73.3333,19.708 C73.3333,18.904 73.9863,18.252 74.7893,18.252 L75.5083,18.252 C76.3123,18.252 76.9643,18.904 76.9643,19.708 C76.9643,20.512 76.3123,21.164 75.5083,21.164 L74.7893,21.164 C73.9863,21.164 73.3333,20.512 73.3333,19.708 L73.3333,19.708 Z M56.5683,19.708 C56.5683,18.904 57.2203,18.252 58.0243,18.252 L58.7423,18.252 C59.5463,18.252 60.1993,18.904 60.1993,19.708 C60.1993,20.512 59.5463,21.164 58.7423,21.164 L58.0243,21.164 C57.2203,21.164 56.5683,20.512 56.5683,19.708 L56.5683,19.708 Z M39.8023,19.708 C39.8023,18.904 40.4543,18.252 41.2583,18.252 L41.9773,18.252 C42.7813,18.252 43.4333,18.904 43.4333,19.708 C43.4333,20.512 42.7813,21.164 41.9773,21.164 L41.2583,21.164 C40.4543,21.164 39.8023,20.512 39.8023,19.708 L39.8023,19.708 Z M23.0373,19.708 C23.0373,18.904 23.6903,18.252 24.4933,18.252 L25.2123,18.252 C26.0163,18.252 26.6683,18.904 26.6683,19.708 C26.6683,20.512 26.0163,21.164 25.2123,21.164 L24.4933,21.164 C23.6903,21.164 23.0373,20.512 23.0373,19.708 L23.0373,19.708 Z M76.3423,23.682 L77.1073,23.682 C77.9103,23.682 78.5633,24.334 78.5633,25.138 C78.5633,25.942 77.9103,26.594 77.1073,26.594 L76.3423,26.594 C75.5383,26.594 74.8863,25.942 74.8863,25.138 C74.8863,24.334 75.5383,23.682 76.3423,23.682 L76.3423,23.682 Z M59.2903,23.682 C60.0943,23.682 60.7463,24.334 60.7463,25.138 C60.7463,25.942 60.0943,26.594 59.2903,26.594 L58.5263,26.594 C57.7223,26.594 57.0703,25.942 57.0703,25.138 C57.0703,24.334 57.7223,23.682 58.5263,23.682 L59.2903,23.682 Z M39.2543,25.138 C39.2543,24.334 39.9063,23.682 40.7103,23.682 L41.4743,23.682 C42.2793,23.682 42.9313,24.334 42.9313,25.138 C42.9313,25.942 42.2793,26.594 41.4743,26.594 L40.7103,26.594 C39.9063,26.594 39.2543,25.942 39.2543,25.138 L39.2543,25.138 Z M21.4393,25.138 C21.4393,24.334 22.0913,23.682 22.8953,23.682 L23.6583,23.682 C24.4623,23.682 25.1153,24.334 25.1153,25.138 C25.1153,25.942 24.4623,26.594 23.6583,26.594 L22.8953,26.594 C22.0913,26.594 21.4393,25.942 21.4393,25.138 L21.4393,25.138 Z M78.1793,29.692 L78.9963,29.692 C79.8003,29.692 80.4523,30.344 80.4523,31.148 C80.4523,31.953 79.8003,32.605 78.9963,32.605 L78.1793,32.605 C77.3743,32.605 76.7223,31.953 76.7223,31.148 C76.7223,30.344 77.3743,29.692 78.1793,29.692 L78.1793,29.692 Z M59.9383,29.692 C60.7413,29.692 61.3943,30.344 61.3943,31.148 C61.3943,31.953 60.7413,32.605 59.9383,32.605 L59.1203,32.605 C58.3173,32.605 57.6643,31.953 57.6643,31.148 C57.6643,30.344 58.3173,29.692 59.1203,29.692 L59.9383,29.692 Z M38.6063,31.148 C38.6063,30.344 39.2583,29.692 40.0633,29.692 L40.8803,29.692 C41.6843,29.692 42.3363,30.344 42.3363,31.148 C42.3363,31.953 41.6843,32.605 40.8803,32.605 L40.0633,32.605 C39.2583,32.605 38.6063,31.953 38.6063,31.148 L38.6063,31.148 Z M19.5493,31.148 C19.5493,30.344 20.2013,29.692 21.0053,29.692 L21.8223,29.692 C22.6253,29.692 23.2783,30.344 23.2783,31.148 C23.2783,31.953 22.6253,32.605 21.8223,32.605 L21.0053,32.605 C20.2013,32.605 19.5493,31.953 19.5493,31.148 L19.5493,31.148 Z M80.0853,35.505 L80.9573,35.505 C81.7623,35.505 82.4143,36.158 82.4143,36.962 C82.4143,37.766 81.7623,38.418 80.9573,38.418 L80.0853,38.418 C79.2823,38.418 78.6293,37.766 78.6293,36.962 C78.6293,36.158 79.2823,35.505 80.0853,35.505 L80.0853,35.505 Z M60.6103,35.505 C61.4143,35.505 62.0673,36.158 62.0673,36.962 C62.0673,37.766 61.4143,38.418 60.6103,38.418 L59.7383,38.418 C58.9343,38.418 58.2823,37.766 58.2823,36.962 C58.2823,36.158 58.9343,35.505 59.7383,35.505 L60.6103,35.505 Z M37.9343,36.962 C37.9343,36.158 38.5863,35.505 39.3903,35.505 L40.2633,35.505 C41.0673,35.505 41.7193,36.158 41.7193,36.962 C41.7193,37.766 41.0673,38.418 40.2633,38.418 L39.3903,38.418 C38.5863,38.418 37.9343,37.766 37.9343,36.962 L37.9343,36.962 Z M17.5863,36.962 C17.5863,36.158 18.2393,35.505 19.0423,35.505 L19.9153,35.505 C20.7193,35.505 21.3713,36.158 21.3713,36.962 C21.3713,37.766 20.7193,38.418 19.9153,38.418 L19.0423,38.418 C18.2393,38.418 17.5863,37.766 17.5863,36.962 L17.5863,36.962 Z M96.2843,84.588 L3.7153,84.588 C3.2733,84.588 2.9123,84.228 2.9123,83.785 L2.9123,82.362 L97.0873,82.362 L97.0873,83.785 C97.0873,84.228 96.7273,84.588 96.2843,84.588 L96.2843,84.588 Z M16.2493,16.963 C16.7323,16.007 17.6983,15.414 18.7683,15.414 L81.2333,15.414 C82.3043,15.414 83.2683,16.007 83.7513,16.962 L96.0033,41.225 C96.2483,41.71 96.4393,42.221 96.6023,42.741 C96.4953,42.732 96.3933,42.708 96.2843,42.708 L3.7153,42.708 C3.6073,42.708 3.5043,42.732 3.3983,42.741 C3.5623,42.221 3.7513,41.71 3.9973,41.225 L16.2493,16.963 Z M2.9123,79.449 L97.0873,79.449 L97.0873,50.76 L2.9123,50.76 L2.9123,79.449 Z M97.0873,46.424 L97.0873,47.847 L2.9123,47.847 L2.9123,46.424 C2.9123,45.982 3.2733,45.622 3.7153,45.622 L96.2843,45.622 C96.7273,45.622 97.0873,45.982 97.0873,46.424 L97.0873,46.424 Z M99.9993,45.776 C99.9993,43.748 99.5173,41.722 98.6033,39.913 L86.3513,15.65 C85.3703,13.707 83.4093,12.5 81.2333,12.5 L18.7683,12.5 C16.5933,12.5 14.6313,13.707 13.6503,15.65 L1.3973,39.913 C0.4843,41.722 0.0003,43.748 0.0003,45.776 C0.0003,45.881 0.0133,45.983 0.0343,46.082 C0.0243,46.197 -0.0007,46.307 -0.0007,46.424 L-0.0007,83.785 C-0.0007,85.833 1.6663,87.5 3.7153,87.5 L96.2843,87.5 C98.3333,87.5 99.9993,85.833 99.9993,83.785 L99.9993,46.424 C99.9993,46.308 99.9763,46.199 99.9653,46.084 C99.9873,45.985 99.9993,45.882 99.9993,45.776 L99.9993,45.776 Z" id="icon_box-spring" fill="#3A4B60"></path>
    </g>
</svg>