<?xml version="1.0" encoding="UTF-8"?>
<svg width="100px" height="100px" viewBox="0 0 100 100" version="1.1" xmlns="http://www.w3.org/2000/svg" xmlns:xlink="http://www.w3.org/1999/xlink">
    <title>icon / furniture / box</title>
    <g id="icon-/-furniture-/-box" stroke="none" stroke-width="1" fill="none" fill-rule="evenodd">
        <path d="M3.5015,79.226 L48.2495,95.737 L48.2495,38.578 L38.1365,34.846 L38.1365,57.987 C38.1365,58.559 37.8565,59.095 37.3865,59.423 C36.9205,59.747 36.3075,59.824 35.7795,59.629 L14.1575,51.651 C13.4735,51.398 13.0135,50.738 13.0135,50.008 L13.0135,25.576 L3.5015,22.066 L3.5015,79.226 Z M16.5145,26.868 L16.5145,48.787 L34.6355,55.474 L34.6355,33.553 L16.5145,26.868 Z M36.2995,30.418 L36.3865,30.451 L52.9515,24.338 L36.4725,18.259 L36.3865,18.227 L19.8215,24.339 L36.2995,30.418 Z M6.8085,19.552 L14.7425,22.48 L35.7795,14.718 C36.1705,14.575 36.6025,14.575 36.9925,14.718 L58.6155,22.697 C59.2995,22.949 59.7585,23.608 59.7585,24.338 C59.7585,25.069 59.2995,25.728 58.6145,25.981 L41.4225,32.326 L50.0005,35.491 L93.1915,19.553 L50.0865,3.649 L50.0005,3.617 L6.8085,19.552 Z M96.4985,22.066 L51.9155,38.517 L51.7515,38.578 L51.7515,95.737 L96.3345,79.287 L96.4985,79.226 L96.4985,22.066 Z M1.1455,17.911 L49.3945,0.108 C49.7845,-0.036 50.2155,-0.036 50.6055,0.108 L98.8545,17.911 C99.5405,18.163 100.0005,18.824 100.0005,19.553 L100.0005,80.447 C100.0005,81.177 99.5415,81.836 98.8555,82.088 L50.6055,99.891 C50.2095,100.037 49.7835,100.035 49.3945,99.893 L1.1455,82.088 C0.4595,81.836 0.0005,81.177 0.0005,80.447 L0.0005,19.553 C0.0005,18.981 0.2805,18.445 0.7495,18.117 C0.8685,18.035 1.0015,17.964 1.1455,17.911 L1.1455,17.911 Z M91.8835,66.08 C91.6235,65.374 90.9535,64.936 90.2405,64.936 C90.0395,64.936 89.8345,64.971 89.6355,65.044 L73.0445,71.172 C72.2295,71.546 71.8305,72.511 72.1435,73.366 C72.4685,74.243 73.5055,74.73 74.3925,74.401 L90.9835,68.272 C91.7985,67.899 92.1985,66.934 91.8835,66.08 L91.8835,66.08 Z M91.8835,58.007 C91.6235,57.3 90.9535,56.863 90.2405,56.863 C90.0395,56.863 89.8345,56.897 89.6355,56.97 L73.0445,63.099 C72.2295,63.473 71.8305,64.438 72.1435,65.291 C72.4685,66.168 73.5055,66.658 74.3925,66.327 L90.9835,60.199 C91.7985,59.825 92.1985,58.86 91.8835,58.007 L91.8835,58.007 Z M68.6775,80.941 L89.6355,73.203 C89.8345,73.128 90.0395,73.094 90.2405,73.094 C90.9535,73.094 91.6235,73.532 91.8835,74.239 C92.1985,75.091 91.7985,76.056 90.9835,76.43 L70.0265,84.17 C69.1385,84.501 68.1015,84.012 67.7775,83.134 C67.4615,82.282 67.8615,81.316 68.6775,80.941 L68.6775,80.941 Z" id="icon_box" fill="#3A4B60"></path>
    </g>
</svg>