<?xml version="1.0" encoding="UTF-8"?>
<svg width="100px" height="100px" viewBox="0 0 100 100" version="1.1" xmlns="http://www.w3.org/2000/svg">
    <title>icon / furniture / breakfront_glass</title>
    <g id="icon-/-furniture-/-breakfront_glass" stroke="none" stroke-width="1" fill="none" fill-rule="evenodd">
        <path d="M54.072,82.869 L61.045,82.869 L61.045,75.896 L54.072,75.896 L54.072,82.869 Z M63.805,82.869 L70.778,82.869 L70.778,75.896 L63.805,75.896 L63.805,82.869 Z M73.539,82.869 L80.512,82.869 L80.512,75.896 L73.539,75.896 L73.539,82.869 Z M52.692,85.63 L81.891,85.63 C82.654,85.63 83.272,85.012 83.272,84.249 L83.272,74.516 C83.272,73.753 82.654,73.135 81.891,73.135 L52.692,73.135 C51.929,73.135 51.311,73.753 51.311,74.516 L51.311,84.249 C51.311,85.012 51.929,85.63 52.692,85.63 L52.692,85.63 Z M59.01,79.382 C59.01,80.146 58.391,80.764 57.628,80.764 C56.865,80.764 56.246,80.146 56.246,79.382 C56.246,78.619 56.865,78 57.628,78 C58.391,78 59.01,78.619 59.01,79.382 L59.01,79.382 Z M35.608,63.626 C35.608,64.389 34.99,65.007 34.227,65.007 L31.19,65.007 C30.427,65.007 29.809,64.389 29.809,63.626 C29.809,62.864 30.427,62.246 31.19,62.246 L34.227,62.246 C34.99,62.246 35.608,62.864 35.608,63.626 L35.608,63.626 Z M19.489,82.869 L26.462,82.869 L26.462,75.896 L19.489,75.896 L19.489,82.869 Z M29.222,82.869 L36.195,82.869 L36.195,75.896 L29.222,75.896 L29.222,82.869 Z M38.956,82.869 L45.929,82.869 L45.929,75.896 L38.956,75.896 L38.956,82.869 Z M18.108,85.63 L47.308,85.63 C48.071,85.63 48.689,85.012 48.689,84.249 L48.689,74.516 C48.689,73.753 48.071,73.135 47.308,73.135 L18.108,73.135 C17.346,73.135 16.728,73.753 16.728,74.516 L16.728,84.249 C16.728,85.012 17.346,85.63 18.108,85.63 L18.108,85.63 Z M14.099,88.579 L85.901,88.579 L85.901,2.761 L14.099,2.761 L14.099,88.579 Z M85.901,97.238 L83.186,97.238 L82.55,95.876 C82.151,95.022 81.294,94.475 80.35,94.475 L54.091,94.475 C53.097,94.475 52.205,95.079 51.837,96.001 L51.341,97.238 L48.659,97.238 L48.164,96.001 C47.796,95.079 46.902,94.475 45.91,94.475 L19.649,94.475 C18.707,94.475 17.848,95.022 17.45,95.876 L16.814,97.238 L14.099,97.238 L14.099,91.34 L85.901,91.34 L85.901,97.238 Z M88.662,0.002 L88.662,0 L11.339,0 L11.339,0.002 C10.595,0.025 10,0.632 10,1.38 C10,2.129 10.595,2.736 11.339,2.759 L11.339,98.179 C11.339,99.185 12.154,100 13.16,100 L17.026,100 C17.969,100 18.828,99.453 19.226,98.599 L19.862,97.236 L45.684,97.236 L46.179,98.474 C46.548,99.396 47.44,100 48.433,100 L51.567,100 C52.559,100 53.452,99.396 53.821,98.474 L54.316,97.236 L80.137,97.236 L80.774,98.599 C81.173,99.453 82.03,100 82.973,100 L86.841,100 C87.846,100 88.662,99.185 88.662,98.179 L88.662,2.759 C89.404,2.736 90,2.129 90,1.38 C90,0.632 89.404,0.025 88.662,0.002 L88.662,0.002 Z M68.743,79.382 C68.743,80.146 68.124,80.764 67.361,80.764 C66.598,80.764 65.979,80.146 65.979,79.382 C65.979,78.619 66.598,78 67.361,78 C68.124,78 68.743,78.619 68.743,79.382 L68.743,79.382 Z M19.489,67.428 L45.928,67.428 L45.928,59.825 L19.489,59.825 L19.489,67.428 Z M18.108,70.189 L47.308,70.189 C48.071,70.189 48.689,69.57 48.689,68.809 L48.689,58.444 C48.689,57.683 48.071,57.065 47.308,57.065 L18.108,57.065 C17.346,57.065 16.728,57.683 16.728,58.444 L16.728,68.809 C16.728,69.57 17.346,70.189 18.108,70.189 L18.108,70.189 Z M43.755,79.382 C43.755,80.146 43.135,80.764 42.373,80.764 C41.609,80.764 40.991,80.146 40.991,79.382 C40.991,78.619 41.609,78 42.373,78 C43.135,78 43.755,78.619 43.755,79.382 L43.755,79.382 Z M45.928,8.001 L45.928,8.882 L19.489,24.294 L19.489,8.001 L45.928,8.001 Z M19.489,35.796 L45.928,20.384 L45.928,32.319 L19.489,47.732 L19.489,35.796 Z M45.928,17.182 L19.489,32.594 L19.489,27.496 L45.928,12.084 L45.928,17.182 Z M19.489,51.358 L19.489,50.933 L45.928,35.521 L45.928,51.358 L19.489,51.358 Z M18.108,54.118 L47.308,54.118 C48.071,54.118 48.688,53.5 48.688,52.737 L48.688,6.621 C48.688,5.859 48.071,5.24 47.308,5.24 L18.108,5.24 C17.346,5.24 16.728,5.859 16.728,6.621 L16.728,52.737 C16.728,53.5 17.346,54.118 18.108,54.118 L18.108,54.118 Z M70.191,63.626 C70.191,64.389 69.573,65.007 68.81,65.007 L65.772,65.007 C65.01,65.007 64.392,64.389 64.392,63.626 C64.392,62.863 65.01,62.246 65.772,62.246 L68.81,62.246 C69.573,62.246 70.191,62.863 70.191,63.626 L70.191,63.626 Z M80.511,8.001 L80.511,11.909 L54.072,27.321 L54.072,8.001 L80.511,8.001 Z M54.072,30.524 L80.511,15.111 L80.511,25.981 L54.072,41.393 L54.072,30.524 Z M54.072,51.358 L54.072,44.595 L80.511,29.183 L80.511,51.358 L54.072,51.358 Z M52.692,54.118 L81.891,54.118 C82.654,54.118 83.272,53.5 83.272,52.737 L83.272,6.621 C83.272,5.859 82.654,5.24 81.891,5.24 L52.692,5.24 C51.929,5.24 51.311,5.859 51.311,6.621 L51.311,52.737 C51.311,53.5 51.929,54.118 52.692,54.118 L52.692,54.118 Z M54.072,67.428 L80.511,67.428 L80.511,59.825 L54.072,59.825 L54.072,67.428 Z M52.692,70.189 L81.891,70.189 C82.654,70.189 83.272,69.57 83.272,68.809 L83.272,58.444 C83.272,57.683 82.654,57.065 81.891,57.065 L52.692,57.065 C51.929,57.065 51.311,57.683 51.311,58.444 L51.311,68.809 C51.311,69.57 51.929,70.189 52.692,70.189 L52.692,70.189 Z"
              id="icon_breakfront_glass" fill="#3A4B60"></path>
    </g>
</svg>