<?xml version="1.0" encoding="UTF-8"?>
<svg width="100px" height="100px" viewBox="0 0 100 100" version="1.1" xmlns="http://www.w3.org/2000/svg">
    <title>icon / furniture / breakfront</title>
    <g id="icon-/-furniture-/-breakfront" stroke="none" stroke-width="1" fill="none" fill-rule="evenodd">
        <path d="M58.6921,21.7801 C59.4541,21.7801 60.0721,22.3981 60.0721,23.1611 L60.0721,36.1981 C60.0721,36.9611 59.4541,37.5791 58.6921,37.5791 C57.9291,37.5791 57.3111,36.9611 57.3111,36.1981 L57.3111,23.1611 C57.3111,22.3981 57.9291,21.7801 58.6921,21.7801 L58.6921,21.7801 Z M41.3081,21.7801 C42.0711,21.7801 42.6891,22.3981 42.6891,23.1611 L42.6891,36.1981 C42.6891,36.9611 42.0711,37.5791 41.3081,37.5791 C40.5461,37.5791 39.9281,36.9611 39.9281,36.1981 L39.9281,23.1611 C39.9281,22.3981 40.5461,21.7801 41.3081,21.7801 L41.3081,21.7801 Z M54.0721,82.8681 L61.0451,82.8681 L61.0451,75.8961 L54.0721,75.8961 L54.0721,82.8681 Z M63.8051,82.8681 L70.7781,82.8681 L70.7781,75.8961 L63.8051,75.8961 L63.8051,82.8681 Z M73.5391,82.8681 L80.5121,82.8681 L80.5121,75.8961 L73.5391,75.8961 L73.5391,82.8681 Z M52.6921,85.6301 L81.8911,85.6301 C82.6541,85.6301 83.2721,85.0111 83.2721,84.2491 L83.2721,74.5151 C83.2721,73.7531 82.6541,73.1341 81.8911,73.1341 L52.6921,73.1351 C51.9291,73.1351 51.3111,73.7531 51.3111,74.5151 L51.3111,84.2491 C51.3111,85.0111 51.9291,85.6301 52.6921,85.6301 L52.6921,85.6301 Z M59.0091,79.3831 C59.0091,80.1451 58.3911,80.7631 57.6281,80.7631 C56.8651,80.7631 56.2461,80.1451 56.2461,79.3831 C56.2461,78.6191 56.8651,78.0011 57.6281,78.0011 C58.3911,78.0011 59.0091,78.6191 59.0091,79.3831 L59.0091,79.3831 Z M35.6081,63.6271 C35.6081,64.3891 34.9901,65.0071 34.2271,65.0071 L31.1901,65.0071 C30.4271,65.0071 29.8091,64.3891 29.8091,63.6271 C29.8091,62.8641 30.4271,62.2461 31.1901,62.2461 L34.2271,62.2461 C34.9901,62.2461 35.6081,62.8641 35.6081,63.6271 L35.6081,63.6271 Z M19.4891,82.8681 L26.4621,82.8681 L26.4621,75.8961 L19.4891,75.8961 L19.4891,82.8681 Z M29.2221,82.8681 L36.1951,82.8681 L36.1951,75.8961 L29.2221,75.8961 L29.2221,82.8681 Z M38.9561,82.8681 L45.9291,82.8681 L45.9291,75.8961 L38.9561,75.8961 L38.9561,82.8681 Z M18.1091,85.6301 L47.3081,85.6301 C48.0711,85.6301 48.6891,85.0111 48.6891,84.2491 L48.6891,74.5151 C48.6891,73.7531 48.0711,73.1351 47.3081,73.1351 L18.1091,73.1341 C17.3461,73.1341 16.7281,73.7531 16.7281,74.5151 L16.7281,84.2491 C16.7281,85.0111 17.3461,85.6301 18.1091,85.6301 L18.1091,85.6301 Z M14.0991,88.5791 L85.9011,88.5791 L85.9011,2.7611 L14.0991,2.7611 L14.0991,88.5791 Z M85.9011,97.2381 L83.1861,97.2381 L82.5501,95.8761 C82.1511,95.0211 81.2941,94.4751 80.3501,94.4751 L54.0901,94.4751 C53.0971,94.4751 52.2051,95.0801 51.8371,96.0021 L51.3411,97.2391 L48.6591,97.2391 L48.1641,96.0021 C47.7961,95.0801 46.9021,94.4751 45.9101,94.4751 L19.6501,94.4751 C18.7071,94.4751 17.8481,95.0211 17.4501,95.8761 L16.8141,97.2381 L14.0991,97.2381 L14.0991,91.3411 L85.9011,91.3411 L85.9011,97.2381 Z M88.6621,0.0021 L88.6621,0.0001 L11.3381,0.0001 L11.3381,0.0021 C10.5951,0.0241 10.0001,0.6321 10.0001,1.3811 C10.0001,2.1291 10.5951,2.7361 11.3381,2.7591 L11.3381,98.1781 C11.3381,99.1841 12.1541,100.0001 13.1601,100.0001 L17.0271,100.0001 C17.9691,100.0001 18.8281,99.4541 19.2261,98.5981 L19.8621,97.2361 L45.6841,97.2361 L46.1791,98.4731 C46.5471,99.3951 47.4411,100.0001 48.4331,100.0001 L51.5671,100.0001 C52.5591,100.0001 53.4521,99.3951 53.8211,98.4731 L54.3161,97.2361 L80.1381,97.2361 L80.7741,98.5981 C81.1721,99.4541 82.0311,100.0001 82.9731,100.0001 L86.8401,100.0001 C87.8461,100.0001 88.6621,99.1841 88.6621,98.1781 L88.6621,2.7591 C89.4041,2.7361 90.0001,2.1291 90.0001,1.3811 C90.0001,0.6321 89.4041,0.0241 88.6621,0.0021 L88.6621,0.0021 Z M68.7431,79.3831 C68.7431,80.1451 68.1241,80.7641 67.3611,80.7641 C66.5981,80.7641 65.9791,80.1451 65.9791,79.3831 C65.9791,78.6191 66.5981,78.0011 67.3611,78.0011 C68.1241,78.0011 68.7431,78.6191 68.7431,79.3831 L68.7431,79.3831 Z M19.4891,67.4291 L45.9281,67.4291 L45.9281,59.8251 L19.4891,59.8251 L19.4891,67.4291 Z M18.1091,70.1891 L47.3081,70.1891 C48.0711,70.1891 48.6891,69.5711 48.6891,68.8081 L48.6891,58.4451 C48.6891,57.6821 48.0711,57.0641 47.3081,57.0641 L18.1091,57.0641 C17.3461,57.0641 16.7281,57.6821 16.7281,58.4451 L16.7281,68.8081 C16.7281,69.5711 17.3461,70.1891 18.1091,70.1891 L18.1091,70.1891 Z M43.7541,79.3831 C43.7541,80.1451 43.1351,80.7631 42.3731,80.7631 C41.6091,80.7631 40.9911,80.1451 40.9911,79.3831 C40.9911,78.6191 41.6091,78.0011 42.3731,78.0011 C43.1351,78.0011 43.7541,78.6191 43.7541,79.3831 L43.7541,79.3831 Z M19.4891,51.3571 L45.9281,51.3571 L45.9281,8.0021 L19.4891,8.0021 L19.4891,51.3571 Z M18.1091,54.1181 L47.3081,54.1181 C48.0711,54.1181 48.6891,53.5001 48.6891,52.7381 L48.6891,6.6211 C48.6891,5.8581 48.0711,5.2411 47.3081,5.2411 L18.1091,5.2411 C17.3461,5.2411 16.7281,5.8581 16.7281,6.6211 L16.7281,52.7381 C16.7281,53.5001 17.3461,54.1181 18.1091,54.1181 L18.1091,54.1181 Z M70.1911,63.6271 C70.1911,64.3891 69.5731,65.0071 68.8101,65.0071 L65.7731,65.0071 C65.0101,65.0071 64.3921,64.3891 64.3921,63.6271 C64.3921,62.8641 65.0101,62.2461 65.7731,62.2461 L68.8101,62.2461 C69.5731,62.2461 70.1911,62.8641 70.1911,63.6271 L70.1911,63.6271 Z M54.0721,51.3571 L80.5111,51.3571 L80.5111,8.0021 L54.0721,8.0021 L54.0721,51.3571 Z M52.6921,54.1181 L81.8911,54.1181 C82.6541,54.1181 83.2721,53.5001 83.2721,52.7381 L83.2721,6.6211 C83.2721,5.8581 82.6541,5.2401 81.8911,5.2401 L52.6921,5.2401 C51.9291,5.2401 51.3111,5.8581 51.3111,6.6211 L51.3111,52.7381 C51.3111,53.5001 51.9291,54.1181 52.6921,54.1181 L52.6921,54.1181 Z M54.0721,67.4291 L80.5111,67.4291 L80.5111,59.8251 L54.0721,59.8251 L54.0721,67.4291 Z M52.6921,70.1891 L81.8911,70.1891 C82.6541,70.1891 83.2721,69.5711 83.2721,68.8081 L83.2721,58.4451 C83.2721,57.6821 82.6541,57.0641 81.8911,57.0641 L52.6921,57.0641 C51.9291,57.0641 51.3111,57.6821 51.3111,58.4451 L51.3111,68.8081 C51.3111,69.5711 51.9291,70.1891 52.6921,70.1891 L52.6921,70.1891 Z"
              id="icon_breakfront" fill="#3A4B60"></path>
    </g>
</svg>