<?xml version="1.0" encoding="UTF-8"?>
<svg width="100px" height="100px" viewBox="0 0 100 100" version="1.1" xmlns="http://www.w3.org/2000/svg" xmlns:xlink="http://www.w3.org/1999/xlink">
    <title>icon / furniture / butcher-block</title>
    <g id="icon-/-furniture-/-butcher-block" stroke="none" stroke-width="1" fill="none" fill-rule="evenodd">
        <path d="M97.07,75.8006 C97.07,76.5006 96.501,77.0706 95.8,77.0706 L58.653,77.0706 C55.35,74.9696 51.931,72.8126 48.024,71.6306 C43.008,70.1136 37.314,70.2206 31.1,71.9476 C26.91,73.1126 22.976,74.8396 18.396,77.0706 L4.199,77.0706 C3.5,77.0706 2.929,76.5006 2.929,75.8006 L2.929,64.9526 C3.346,65.0866 3.788,65.1556 4.24,65.1556 L95.759,65.1556 C96.212,65.1556 96.653,65.0866 97.07,64.9526 L97.07,75.8006 Z M25.406,77.0706 C27.6,76.1436 29.715,75.3736 31.884,74.7706 C37.476,73.2166 42.763,73.1006 47.175,74.4356 C49.216,75.0516 51.161,75.9966 53.046,77.0706 L25.406,77.0706 Z M50.933,62.2266 L24.715,62.2266 C27.376,61.0656 30.086,60.0786 32.84,59.5856 C38.322,58.6056 44.56,59.5186 50.933,62.2266 L50.933,62.2266 Z M2.963,60.6776 L5.544,49.5696 C10.351,50.4526 15.193,50.6336 19.958,50.1066 C27.39,49.2836 34.538,46.7976 41.765,46.7066 C56.838,46.5186 70.313,56.5056 84.231,62.2266 L57.545,62.2266 C55.942,61.3346 54.426,60.5716 52.923,59.8986 C45.737,56.6826 38.614,55.5766 32.324,56.7016 C27.228,57.6136 22.48,59.9736 17.819,62.2266 L4.24,62.2266 C3.421,62.2266 2.774,61.4916 2.963,60.6776 L2.963,60.6776 Z M11.675,23.9206 C11.81,23.3376 12.336,22.9296 12.953,22.9296 L20.023,22.9296 C26.639,26.1906 33.004,30.8906 40.645,30.9466 L40.782,30.9466 C47.712,30.9466 53.712,27.1356 59.166,22.9296 L87.048,22.9296 C87.665,22.9296 88.19,23.3366 88.325,23.9206 L97.037,60.6776 C97.222,61.4746 96.596,62.2266 95.759,62.2266 L93.236,62.2266 C75.857,57.6086 60.56,43.5426 41.729,43.7776 C34.132,43.8726 26.916,46.3896 19.635,47.1946 C15.2,47.6856 10.69,47.5226 6.208,46.7126 L11.675,23.9206 Z M54.215,22.9296 C50.055,25.7946 45.598,28.0166 40.779,28.0166 L40.667,28.0166 C35.546,27.9796 30.759,25.3736 26.27,22.9296 L54.215,22.9296 Z M99.999,61.0826 C100.008,60.7286 99.973,60.3696 99.891,60.0156 L91.178,23.2576 C90.733,21.3396 89.035,19.9996 87.048,19.9996 L12.953,19.9996 C10.966,19.9996 9.267,21.3396 8.822,23.2576 L0.109,60.0156 C0.028,60.3666 -0.008,60.7246 0.002,61.0826 C0,61.1546 0,60.1456 0,75.8006 C0,78.1156 1.883,79.9996 4.199,79.9996 L95.8,79.9996 C98.116,79.9996 100.000377,78.1156 100.000377,75.8006 L100.000377,61.1526 C100.000377,61.1286 100.000377,61.1056 99.999,61.0826 L99.999,61.0826 Z" id="icon_butcher-block" fill="#3A4B60"></path>
    </g>
</svg>