<?xml version="1.0" encoding="UTF-8" standalone="no"?>
<svg width="221px" height="33px" viewBox="0 0 221 33" version="1.1" xmlns="http://www.w3.org/2000/svg" xmlns:xlink="http://www.w3.org/1999/xlink">
    <!-- Generator: Sketch 40.3 (33839) - http://www.bohemiancoding.com/sketch -->
    <title>Group 6</title>
    <desc>Created with Sketch.</desc>
    <defs></defs>
    <g id="Page-1" stroke="none" stroke-width="1" fill="none" fill-rule="evenodd">
        <g id="BVL-PLP---Edit---3---Mobile" transform="translate(-39.000000, -17.000000)">
            <g id="Group-6" transform="translate(39.000000, 17.000000)">
                <g id="logo">
                    <g id="Group-2">
                        <g id="bvl-logo">
                            <g id="Layer_1">
                                <path d="M220.619122,3.55218185 C220.619122,4.00348229 220.502549,4.42365857 220.277173,4.81271069 C220.051797,5.2017628 219.740935,5.51300448 219.352356,5.73865471 C218.963777,5.96430493 218.544112,6.07323952 218.093361,6.07323952 C217.64261,6.07323952 217.222945,5.96430493 216.834366,5.73865471 C216.445788,5.51300448 216.134925,5.20954384 215.909549,4.81271069 C215.684174,4.42365857 215.5676,4.00348229 215.5676,3.55218185 C215.5676,3.1008814 215.676402,2.68070512 215.909549,2.29165301 C216.134925,1.9026009 216.445788,1.59135921 216.834366,1.36570898 C217.222945,1.14005876 217.64261,1.03112417 218.093361,1.03112417 C218.544112,1.03112417 218.963777,1.14005876 219.352356,1.36570898 C219.740935,1.59135921 220.051797,1.9026009 220.277173,2.29165301 C220.502549,2.68070512 220.619122,3.1008814 220.619122,3.55218185 L220.619122,3.55218185 L220.619122,3.55218185 Z M220.129513,3.55218185 C220.129513,2.99194681 219.927452,2.50952219 219.531102,2.11268904 C219.134752,1.71585588 218.652914,1.51354879 218.093361,1.51354879 C217.533808,1.51354879 217.05197,1.71585588 216.65562,2.11268904 C216.25927,2.50952219 216.057209,2.99194681 216.057209,3.55218185 C216.057209,4.11241689 216.25927,4.5948415 216.65562,4.99167466 C217.05197,5.38850781 217.533808,5.59081491 218.093361,5.59081491 C218.652914,5.59081491 219.134752,5.38850781 219.531102,4.99167466 C219.927452,4.5948415 220.129513,4.11241689 220.129513,3.55218185 L220.129513,3.55218185 L220.129513,3.55218185 Z M216.95094,2.1982805 L218.155534,2.1982805 C218.497483,2.1982805 218.746173,2.26830988 218.893833,2.40836864 C219.049265,2.5484274 219.12698,2.72739137 219.12698,2.96082264 C219.12698,3.13978661 219.064808,3.29540745 218.948234,3.42768517 C218.831661,3.55996289 218.645143,3.6533354 218.396452,3.71558373 C218.497483,3.75448894 218.575199,3.79339415 218.621828,3.84008041 C218.691772,3.90232875 218.761716,3.99570125 218.839432,4.11241689 C218.847204,4.12019793 218.987092,4.38475336 219.27464,4.89052111 L218.48194,4.89052111 C218.225478,4.37697232 218.054503,4.07351167 217.961244,3.97235813 C217.875757,3.87120458 217.782498,3.82451832 217.697011,3.82451832 C217.673696,3.82451832 217.650381,3.82451832 217.611524,3.83229937 L217.611524,4.89052111 L216.943168,4.89052111 L216.943168,2.1982805 L216.95094,2.1982805 L216.95094,2.1982805 Z M217.619295,3.34209371 L217.906843,3.34209371 C218.101133,3.34209371 218.241021,3.31096954 218.318737,3.2487212 C218.396452,3.18647286 218.43531,3.10866244 218.43531,3.00750889 C218.43531,2.90635534 218.396452,2.82854492 218.318737,2.76629658 C218.241021,2.70404824 218.116676,2.67292408 217.930158,2.67292408 L217.611524,2.67292408 L217.611524,3.34209371 L217.619295,3.34209371 Z" id="flowRoot4795" fill="#FFFFFF"></path>
                                <g id="Group-3" transform="translate(109.000000, 0.000000)" fill="#FFFFFF">
                                    <path d="M26.0217934,11.2556563 C26.3544167,9.74733118 26.2136915,8.42754672 25.6124109,7.32144164 C24.9983371,6.21533656 23.552705,5.63714527 21.2883078,5.57429839 C20.0601602,5.58686777 18.985531,5.7251309 18.0644203,5.96394904 C17.1433096,6.20276718 16.4268901,6.4541547 15.915162,6.70554222 L16.2094057,9.37024991 C16.7211338,9.10629301 17.2840348,8.89261362 17.9109019,8.72921174 C18.5377689,8.56580985 19.1902223,8.47782422 19.8554689,8.47782422 C20.7254068,8.4903936 21.2883078,8.65379548 21.5569651,8.96802988 C21.8256224,9.28226428 21.9023816,9.69705368 21.7872428,10.2123981 C19.6507776,10.2123981 17.8085562,10.6146181 16.2477853,11.4190582 C14.6870144,12.2234982 13.727524,13.4804358 13.3437279,15.2150097 C13.1390366,16.3588229 13.3565211,17.3015261 13.9578017,18.068258 C14.5718755,18.8349899 15.5185726,19.2246406 16.8106863,19.2497794 C17.5398989,19.2497794 18.2435252,19.136655 18.921565,18.8852675 C19.5996048,18.6338799 20.2008854,18.2567987 20.7254068,17.7288849 L20.802166,17.7288849 L20.8149592,18.9858225 L24.7808526,18.9858225 C24.7680594,18.5836024 24.806439,18.1059661 24.870405,17.5780524 C24.9343711,17.0375692 25.0367167,16.4719473 25.1390623,15.8811866 L26.0217934,11.2556563 L26.0217934,11.2556563 L26.0217934,11.2556563 Z M21.1347894,14.4859859 C20.9940641,15.1018853 20.6998204,15.5669522 20.2520583,15.8686172 C19.8042961,16.1702823 19.3437407,16.3211148 18.8703922,16.3211148 C18.4738028,16.3211148 18.1539727,16.195421 17.9109019,15.9566029 C17.667831,15.7052154 17.5910717,15.3155647 17.6806242,14.7876509 C17.8469358,14.0460577 18.2819048,13.5181439 18.985531,13.2164789 C19.6891573,12.9148139 20.5079223,12.7765508 21.4418263,12.7765508 L21.1347894,14.4859859 L21.1347894,14.4859859 L21.1347894,14.4859859 Z M42.0900581,10.97913 C42.4098882,9.25712552 42.269163,7.93734106 41.6806756,7.00720724 C41.0921882,6.07707343 40.0559386,5.59943714 38.5719269,5.58686777 C37.5868502,5.61200652 36.7297055,5.81311653 36.0004928,6.21533656 C35.2712802,6.60498721 34.7083792,7.03234599 34.2989967,7.50998228 L34.2222374,7.50998228 L34.3117899,5.85082466 L30.5250014,5.85082466 C30.4354489,6.46672408 30.3331033,7.132901 30.2179645,7.82421667 C30.1028256,8.52810172 29.9748936,9.2696949 29.8213751,10.0489962 L28.1326721,18.9858225 L32.5463277,18.9858225 L34.004753,11.280795 C34.1838578,10.4512162 34.4908947,9.84788619 34.9514501,9.49594367 C35.3992122,9.13143177 35.8725608,8.96802988 36.3459094,8.96802988 C36.9599832,8.98059926 37.3565725,9.20684802 37.5356774,9.64677618 C37.7147822,10.0867043 37.7403686,10.6523262 37.5996434,11.3562113 L36.1540113,18.9858225 L40.5676668,18.9858225 L42.0900581,10.97913 L42.0900581,10.97913 L42.0900581,10.97913 Z M54.9088489,15.8057704 L48.4866603,15.8057704 L51.2499925,1.23786371 L46.8363369,1.23786371 L43.4205514,19.2874875 L54.2436023,19.2874875 L54.9088489,15.8057704 L54.9088489,15.8057704 Z M64.1839221,2.59535631 C64.2990609,1.96688751 64.1839221,1.46411248 63.8385056,1.0870312 C63.5058822,0.709949923 62.9941541,0.508839909 62.3289074,0.496270533 C61.6636608,0.508839909 61.0879666,0.697380547 60.6018248,1.0870312 C60.1156831,1.46411248 59.8086462,1.96688751 59.6807141,2.59535631 C59.5783685,3.19868635 59.6935073,3.70146138 60.0261307,4.07854266 C60.358754,4.45562394 60.8704821,4.65673395 61.5357288,4.66930333 C62.1881822,4.65673395 62.7638764,4.46819331 63.2500182,4.09111204 C63.7361599,3.72660014 64.0431968,3.2238251 64.1839221,2.59535631 L64.1839221,2.59535631 L64.1839221,2.59535631 Z M63.4547094,6.15248968 L59.0410539,6.15248968 L56.5463791,19.3000569 L60.9600346,19.3000569 L63.4547094,6.15248968 L63.4547094,6.15248968 Z M78.4995178,11.280795 C78.8193479,9.55879055 78.6786226,8.23900608 78.0901352,7.30887226 C77.5016478,6.37873845 76.4653983,5.90110216 74.9813866,5.88853279 C73.9963098,5.91367154 73.1391651,6.12735093 72.4099525,6.51700158 C71.6807398,6.90665223 71.1178388,7.33401101 70.7084563,7.8116473 L70.6316971,7.8116473 L70.7212495,6.15248968 L66.934461,6.15248968 C66.8449086,6.7683891 66.7425629,7.43456602 66.6274241,8.1258817 C66.5122853,8.82976674 66.3843532,9.57135992 66.243628,10.3506612 L64.554925,19.2874875 L68.9685805,19.2874875 L70.4270058,11.5824601 C70.6061107,10.7528813 70.9259408,10.1495512 71.3737029,9.79760869 C71.8214651,9.43309679 72.2948136,9.25712552 72.7681622,9.2696949 C73.382236,9.28226428 73.7788254,9.50851304 73.9579302,9.9484412 C74.1370351,10.3883694 74.1626215,10.9539913 74.0218962,11.6578763 L72.5762641,19.2874875 L76.9899197,19.2874875 L78.4995178,11.280795 L78.4995178,11.280795 L78.4995178,11.280795 Z M90.84496,15.9566029 C90.3204386,16.1074354 89.7575376,16.2331291 89.1818434,16.3211148 C88.6061492,16.4091004 87.9920754,16.4593779 87.3652084,16.4593779 C86.4313045,16.4593779 85.6765054,16.2708373 85.1008112,15.9063254 C84.5379102,15.5292441 84.2820461,14.9510528 84.3588054,14.1717515 L92.3289717,14.1717515 C92.4185241,13.9455027 92.5080766,13.6815458 92.5848358,13.3798808 C92.661595,13.0782158 92.725561,12.7639814 92.7895271,12.449747 C93.1861164,10.2249675 92.9558387,8.57837923 92.1114872,7.4974129 C91.2671357,6.41644657 90.0006085,5.88853279 88.2863191,5.88853279 C86.1626472,5.95137967 84.4099782,6.65526472 83.0283121,8.00018794 C81.646646,9.35768053 80.7639149,10.9916994 80.392912,12.9399527 C80.0091159,15.0138997 80.3161528,16.6227798 81.2884363,17.766593 C82.2607199,18.9104062 83.8598704,19.5011669 86.085888,19.5137362 C86.9302394,19.5137362 87.7745909,19.4508894 88.593356,19.337765 C89.4121211,19.2246406 90.1797134,19.0361 90.8833396,18.7972818 L90.84496,15.9566029 L90.84496,15.9566029 Z M84.8705335,11.3562113 C85.0112588,10.7654506 85.3055025,10.1872593 85.7404714,9.62163743 C86.1754404,9.05601551 86.776721,8.75435049 87.5315201,8.71664236 C88.2735259,8.75435049 88.7340813,9.04344613 88.9003929,9.59649867 C89.0667046,10.1495512 89.092291,10.7277425 88.9643589,11.3562113 L84.8705335,11.3562113 L84.8705335,11.3562113 L84.8705335,11.3562113 Z M105.262901,6.59241784 C104.866312,6.4038772 104.38017,6.24047531 103.804476,6.10221218 C103.228782,5.96394904 102.576328,5.90110216 101.834323,5.88853279 C100.158413,5.91367154 98.7639535,6.32846094 97.6509447,7.132901 C96.5379359,7.93734106 95.8598961,8.96802988 95.604032,10.2375368 C95.4505136,10.9288525 95.5784456,11.6075988 95.9622417,12.2863451 C96.3588311,12.9650914 97.1648029,13.5684215 98.3929506,14.1089046 C99.045404,14.3728615 99.4803729,14.5991103 99.7106506,14.825359 C99.9409283,15.0390384 100.017688,15.3029953 99.9409283,15.6046603 C99.8769623,15.9188947 99.6978574,16.1577129 99.4036137,16.3336841 C99.10937,16.497086 98.6744011,16.5850717 98.1242933,16.5850717 C97.5358059,16.5725023 96.9601117,16.4845167 96.3716243,16.3085454 C95.7959301,16.1325741 95.3353747,15.9314641 95.0027514,15.7303541 L93.6978446,18.6715881 C94.1200203,18.935545 94.6701281,19.136655 95.3609611,19.3000569 C96.0517942,19.4508894 96.7938,19.538875 97.5997719,19.538875 C99.4036137,19.5263056 100.874832,19.1617937 102.026221,18.4202005 C103.177609,17.6786074 103.894028,16.6353492 104.175479,15.2652872 C104.328997,14.423139 104.213859,13.6689765 103.817269,13.0027995 C103.42068,12.3366226 102.653088,11.7584313 101.527286,11.280795 C100.823659,10.9916994 100.350311,10.7277425 100.094447,10.5140631 C99.8513759,10.3003837 99.7618234,10.0615656 99.8257895,9.81017806 C99.8769623,9.50851304 100.056067,9.28226428 100.337518,9.10629301 C100.618968,8.93032175 101.002764,8.84233612 101.488906,8.82976674 C102.000634,8.84233612 102.46119,8.905183 102.908952,9.04344613 C103.343921,9.18170927 103.70213,9.3199724 103.983581,9.48337429 L105.262901,6.59241784 L105.262901,6.59241784 L105.262901,6.59241784 Z" id="flowRoot4779"></path>
                                    <path d="M11.6678181,1.91661001 C9.18593647,6.26561406 7.20298979,10.5266325 4.93859262,14.9887609 L5.24562953,1.92917938 L0.384211864,1.92917938 L0.294659433,18.9858225 L6.78081405,18.9858225 L16.4396834,1.91661001 L11.6678181,1.91661001 L11.6678181,1.91661001 Z" id="flowRoot5004"></path>
                                </g>
                                <path d="M2.72005046,5.41935983 C8.74301934,8.23609711 20.773414,9.02976341 27.7445147,5.5438565 L28.6382456,0.991946807 C19.5765918,3.81646513 10.6625978,3.8475893 3.61378133,0.867450131 L2.72005046,5.41935983 L2.72005046,5.41935983 Z" id="path2444" fill="#41C940"></path>
                                <path d="M1.37556838,12.1421803 C7.39853726,14.9589176 19.4289319,15.7525839 26.4000326,12.266677 L27.2937635,7.71476728 C18.2321097,10.5392856 9.31811573,10.5704098 2.26929924,7.5902706 L1.37556838,12.1421803 L1.37556838,12.1421803 Z" id="path2451" fill="#41C940"></path>
                                <path d="M0.031086291,18.8650008 C6.05405517,21.6817381 18.0844498,22.4754044 25.0555505,18.9894974 L25.9492814,14.4375878 C16.8876276,17.2621061 7.97363364,17.2932302 0.924817157,14.3130911 L0.031086291,18.8650008 L0.031086291,18.8650008 Z" id="path2455" fill="#41C940"></path>
                                <g id="Group" transform="translate(27.822230, 0.011535)" fill="#FFFFFF">
                                    <path d="M24.2162207,5.88246791 L22.7473934,14.2237452 C22.6075051,14.9162579 22.3355001,15.4375878 21.9391499,15.7799536 C21.5427997,16.1223195 21.1231347,16.2857214 20.6723835,16.2857214 C20.081744,16.2779403 19.7009369,16.028947 19.5221907,15.5309603 C19.335673,15.0251925 19.3279014,14.3171177 19.4911045,13.3911737 L20.8122718,5.89024896 L16.5612215,5.89024896 L15.1312521,13.9903139 C14.7970745,15.9433555 14.9058765,17.4061914 15.4809729,18.3554786 C16.0482977,19.3047657 17.0352875,19.7794093 18.4186274,19.7716283 C19.4133887,19.7405041 20.2604902,19.530416 20.9599317,19.1180207 C21.6593733,18.7134065 22.1878402,18.2698871 22.5531041,17.8030246 L22.6230483,17.8030246 L22.5220178,19.5070728 L26.1902002,19.5070728 C26.2679159,18.9001515 26.3689463,18.2309819 26.4699768,17.4917829 C26.5710072,16.7525839 26.6953524,15.9666986 26.8352407,15.1263461 L28.4750426,5.88246791 L24.2162207,5.88246791 L24.2162207,5.88246791 Z" id="Shape"></path>
                                    <path d="M13.460364,1.81298284 C12.8541813,1.37724447 12.1391966,1.06600278 11.3076384,0.902600897 C10.4760801,0.73919901 9.4968619,0.661388588 8.39329857,0.66916963 C7.39853726,0.66916963 6.44263381,0.715855884 5.5333598,0.785885264 C4.62408579,0.855914644 4.01013154,0.94928715 3.41172044,1.05822174 L3.31846156,1.61845678 L3.29514685,1.6028947 L1.61648713,11.064642 L1.63203028,11.064642 L0.0466294365,19.3981382 C0.505152229,19.4759487 1.08024861,19.5226349 1.76414701,19.5771022 C2.44804542,19.6237885 3.24851741,19.6626937 4.15779142,19.6626937 C5.94525315,19.6626937 7.42962355,19.4992918 8.61867418,19.1880501 C9.79995324,18.8768084 10.7558567,18.433289 11.4863845,17.8652729 C12.1314251,17.3595052 12.6676636,16.775927 13.0795569,16.1145384 C13.4914503,15.4531498 13.7712269,14.745075 13.9111152,14.005876 C14.097633,12.900968 13.9499731,11.9594619 13.4681356,11.1735766 C12.9940696,10.3876914 12.2246839,9.8430184 11.16775,9.53177671 L11.1755216,9.46174733 C12.2479987,9.03379001 13.0873285,8.46577393 13.6701965,7.74991805 C14.260836,7.03406216 14.6183283,6.26373898 14.7582167,5.43894851 C14.8903334,4.6452822 14.8359324,3.9449884 14.6105568,3.33028607 C14.3851812,2.70780269 13.9966025,2.20981599 13.460364,1.81298284 L13.460364,1.81298284 Z M9.47354718,13.8813793 C9.28702944,14.7839802 8.87513608,15.4375878 8.2145524,15.857764 C7.55396871,16.2701593 6.80012616,16.4802474 5.96856787,16.4802474 C5.71987754,16.4802474 5.49450193,16.4802474 5.30798419,16.4724664 C5.12146644,16.4646853 4.95049184,16.4413422 4.80283196,16.410218 L5.69656283,11.3447595 L5.69656283,11.3447595 L6.77681144,11.3447595 C7.585055,11.3291975 8.27672498,11.5237235 8.83627822,11.9127756 C9.38805988,12.2940467 9.59789235,12.9554353 9.47354718,13.8813793 L9.47354718,13.8813793 Z M10.4605369,5.95249729 C10.3361918,6.64501005 9.98647098,7.19746405 9.41914617,7.62542137 C9.16268427,7.81994743 8.87513608,7.96000619 8.54873003,8.06894078 C7.67831388,8.31793413 7.00218705,8.23234266 6.3882328,8.06115973 L7.14984693,4.21732488 L7.21979108,3.88274006 C7.32082153,3.86717798 7.42962355,3.8516159 7.55396871,3.84383485 C7.77934432,3.82049173 8.05134937,3.80492964 8.36998385,3.80492964 C9.10051169,3.80492964 9.66006493,3.97611257 10.0486436,4.31847843 C10.4372222,4.65306324 10.5771105,5.20551724 10.4605369,5.95249729 L10.4605369,5.95249729 Z" id="Shape"></path>
                                    <path d="M74.1796619,8.94819855 L77.0085144,8.94819855 L77.5447529,5.88246791 L74.723672,5.88246791 L75.9204942,0.202307098 L71.5062409,1.39280656 L70.5192511,5.89024896 L68.8561346,5.89024896 L68.3121245,8.95597959 L69.9830126,8.95597959 L68.9882513,14.6205783 C68.8639061,15.1730323 68.8095051,15.849983 68.8095051,16.6436493 C68.8095051,17.4373156 69.0581955,18.1453904 69.5555761,18.7678738 C70.0529568,19.3903572 70.9855455,19.717161 72.3455707,19.7560662 C72.9206671,19.7560662 73.4258193,19.724942 73.8843421,19.6626937 C74.3428649,19.6004453 74.723672,19.530416 75.0034486,19.4448245 L75.5630018,16.1456626 C75.3764841,16.1923488 75.1977379,16.2312541 75.0267633,16.2468161 C74.8557887,16.2623782 74.6614994,16.2701593 74.4283522,16.2701593 C73.9232,16.2779403 73.5657077,16.1145384 73.3714183,15.7799536 C73.177129,15.4453688 73.1460427,14.8851338 73.285931,14.0992485 L74.1796619,8.94819855 L74.1796619,8.94819855 Z" id="Shape"></path>
                                    <path d="M63.3150032,5.61013144 C61.263308,5.67237977 59.5768767,6.40379774 58.2479378,7.80438534 C56.9189988,9.20497294 56.0641258,10.9090212 55.6988619,12.9165301 C55.333598,15.0640977 55.6211462,16.7370218 56.5615065,17.9275213 C57.5018668,19.1180207 59.0484098,19.724942 61.2011354,19.7482851 C62.0171505,19.7482851 62.8176225,19.6860368 63.610323,19.5615401 C64.4030234,19.4370435 65.1413228,19.2502984 65.8252212,18.993524 L65.7863633,16.044509 C65.2734395,16.2079109 64.7449726,16.3401887 64.1931909,16.4335612 C63.6336377,16.5269337 63.0429981,16.581401 62.4290439,16.581401 C61.5275415,16.581401 60.8047852,16.3946559 60.2607751,16.0056038 C59.7089934,15.6165517 59.4758463,15.0174115 59.5457904,14.2081831 L67.2241043,14.2081831 C67.3095916,13.9747518 67.3950789,13.7024153 67.465023,13.3911737 C67.5349672,13.079932 67.6049114,12.7531282 67.6670839,12.4263244 C68.047891,10.1231359 67.830287,8.40352559 67.0142718,7.29083655 C66.1982567,6.16258543 64.9625766,5.60235039 63.3150032,5.61013144 L63.3150032,5.61013144 Z M63.9678153,11.2669491 L60.0276279,11.2669491 C60.1597447,10.6522468 60.4395213,10.0686686 60.8669578,9.48509046 C61.2943943,8.90151229 61.8617191,8.58248956 62.5844754,8.54358435 C63.29946,8.58248956 63.7502113,8.88595021 63.9134143,9.45396629 C64.0766173,10.0219824 64.0921605,10.6289037 63.9678153,11.2669491 L63.9678153,11.2669491 Z" id="Shape"></path>
                                    <path d="M52.2560552,5.88246791 L51.805304,7.35308489 L51.7509029,7.35308489 C51.5332989,6.8006309 51.1835781,6.37267357 50.7095122,6.06921293 C50.2354463,5.76575228 49.6448067,5.61013144 48.9142789,5.61013144 C47.3444212,5.63347456 45.9377665,6.28708211 44.6787717,7.55539199 C43.419777,8.82370187 42.5726755,10.5588743 42.1374675,12.7764713 C41.818833,14.6205783 41.9975791,16.1767868 42.6581628,17.4295346 C43.3187465,18.6822824 44.4689393,19.3281089 46.1009696,19.3825762 C46.7382385,19.3825762 47.3366496,19.2502984 47.9195176,18.993524 C48.5023855,18.7367497 49.0075378,18.3632596 49.4427458,17.880835 L49.4816037,17.880835 L49.3572585,18.6355961 C49.1551976,19.717161 48.7433043,20.5263894 48.1215785,21.0710623 C47.4998526,21.6235163 46.7226954,21.8958528 45.7823351,21.9036338 C45.0984367,21.8958528 44.4844824,21.8180424 43.9249292,21.6624215 C43.3653759,21.5068007 42.9068532,21.3200557 42.5415892,21.1021865 L41.1971071,24.3468811 C41.7255741,24.6269986 42.3472999,24.8370867 43.0622846,24.9771455 C43.7772693,25.1172043 44.546655,25.1872336 45.347127,25.1872336 C47.4065938,25.1561095 49.0153093,24.7670574 50.1655021,24.0122963 C51.3156949,23.2575352 52.1550247,22.3238101 52.6757201,21.1877779 C53.1964155,20.0517458 53.5461362,18.9079326 53.7248824,17.7407762 L55.0693645,10.0920118 C55.2325675,9.16606773 55.387999,8.36462038 55.5278873,7.68766971 C55.6755472,7.01071904 55.8076639,6.40379774 55.9242375,5.88246791 L52.2560552,5.88246791 L52.2560552,5.88246791 Z M50.6084817,11.2280439 L50.149959,13.8658172 C49.9867559,14.7139508 49.7069793,15.3208721 49.3028575,15.671019 C48.8987357,16.028947 48.4557561,16.1923488 47.9816902,16.1845678 C47.3133349,16.1690057 46.8470405,15.857764 46.5750355,15.2430617 C46.3030304,14.6283594 46.256401,13.7802258 46.4351472,12.6986609 C46.6449796,11.5704098 47.002472,10.6678089 47.5153958,9.99863925 C48.0283196,9.32946961 48.6189591,8.9948848 49.295086,8.97932272 C49.7613803,8.97932272 50.1188727,9.15828669 50.3831061,9.52399567 C50.6628828,9.8974857 50.7328269,10.4655018 50.6084817,11.2280439 L50.6084817,11.2280439 Z" id="Shape"></path>
                                    <path d="M38.9977521,0 L37.762072,7.01850008 L37.6921278,7.01850008 C37.5289248,6.5983238 37.2258335,6.26373898 36.7673107,6.00696459 C36.3087879,5.7501902 35.7181484,5.61791248 34.9953921,5.61013144 C33.5343364,5.61791248 32.1743112,6.23261481 30.9386311,7.4464574 C29.6951795,8.66029998 28.8558496,10.4343776 28.3973268,12.7531282 C28.0553776,14.7995423 28.2185807,16.4724664 28.9102506,17.7641194 C29.6019206,19.0557724 30.7365702,19.724942 32.3064279,19.7716283 C33.0447273,19.7638472 33.759712,19.5848833 34.4591536,19.2347364 C35.1585951,18.8845895 35.7492347,18.3866028 36.2388437,17.7407762 L36.3087879,17.7407762 L36.1844427,19.5070728 L39.9070261,19.5070728 C39.9769702,18.9546188 40.0702291,18.3010113 40.1790311,17.5773744 C40.2878331,16.8459564 40.4121783,16.0989763 40.544295,15.3442152 L43.2410308,0.00778104221 L38.9977521,0.00778104221 L38.9977521,0 Z M36.9849147,11.4459131 L36.5419351,13.9591897 C36.3554173,14.8695717 36.0290113,15.5076171 35.5782601,15.849983 C35.1275088,16.1923488 34.6767576,16.3479697 34.2570927,16.3324076 C33.596509,16.3324076 33.1146715,16.0211659 32.8193517,15.4220257 C32.524032,14.8151044 32.469631,13.9280656 32.6639203,12.7531282 C32.850438,11.6949064 33.1923872,10.8156487 33.6819963,10.1075738 C34.1716054,9.39949899 34.8088743,9.03379001 35.5782601,9.00266584 C35.9746103,8.98710376 36.3398742,9.15828669 36.6818234,9.51621463 C37.016001,9.87414257 37.1170315,10.5199691 36.9849147,11.4459131 L36.9849147,11.4459131 Z" id="Shape"></path>
                                </g>
                            </g>
                        </g>
                    </g>
                </g>
                <path d="M87.96,26.62625 L87.96,32 L87.2325,32 L87.2325,29.555 L84.33375,29.555 L84.33375,32 L83.60625,32 L83.60625,26.62625 L84.33375,26.62625 L84.33375,29.0225 L87.2325,29.0225 L87.2325,26.62625 L87.96,26.62625 Z M95.2975,29.315 C95.2975,29.717502 95.2337506,30.0868733 95.10625,30.423125 C94.9787494,30.7593767 94.7987512,31.0487488 94.56625,31.29125 C94.3337488,31.5337512 94.0543766,31.7218743 93.728125,31.855625 C93.4018734,31.9893757 93.041252,32.05625 92.64625,32.05625 C92.251248,32.05625 91.8912516,31.9893757 91.56625,31.855625 C91.2412484,31.7218743 90.9625012,31.5337512 90.73,31.29125 C90.4974988,31.0487488 90.3175006,30.7593767 90.19,30.423125 C90.0624994,30.0868733 89.99875,29.717502 89.99875,29.315 C89.99875,28.912498 90.0624994,28.5431267 90.19,28.206875 C90.3175006,27.8706233 90.4974988,27.5806262 90.73,27.336875 C90.9625012,27.0931238 91.2412484,26.9037507 91.56625,26.76875 C91.8912516,26.6337493 92.251248,26.56625 92.64625,26.56625 C93.041252,26.56625 93.4018734,26.6337493 93.728125,26.76875 C94.0543766,26.9037507 94.3337488,27.0931238 94.56625,27.336875 C94.7987512,27.5806262 94.9787494,27.8706233 95.10625,28.206875 C95.2337506,28.5431267 95.2975,28.912498 95.2975,29.315 L95.2975,29.315 Z M94.55125,29.315 C94.55125,28.9849983 94.5062505,28.6887513 94.41625,28.42625 C94.3262496,28.1637487 94.1987508,27.9418759 94.03375,27.760625 C93.8687492,27.5793741 93.6687512,27.4400005 93.43375,27.3425 C93.1987488,27.2449995 92.9362515,27.19625 92.64625,27.19625 C92.3587486,27.19625 92.0975012,27.2449995 91.8625,27.3425 C91.6274988,27.4400005 91.4268758,27.5793741 91.260625,27.760625 C91.0943742,27.9418759 90.9662505,28.1637487 90.87625,28.42625 C90.7862496,28.6887513 90.74125,28.9849983 90.74125,29.315 C90.74125,29.6450016 90.7862496,29.9406237 90.87625,30.201875 C90.9662505,30.4631263 91.0943742,30.6843741 91.260625,30.865625 C91.4268758,31.0468759 91.6274988,31.1856245 91.8625,31.281875 C92.0975012,31.3781255 92.3587486,31.42625 92.64625,31.42625 C92.9362515,31.42625 93.1987488,31.3781255 93.43375,31.281875 C93.6687512,31.1856245 93.8687492,31.0468759 94.03375,30.865625 C94.1987508,30.6843741 94.3262496,30.4631263 94.41625,30.201875 C94.5062505,29.9406237 94.55125,29.6450016 94.55125,29.315 L94.55125,29.315 Z M99.41,31.4225 C99.6325011,31.4225 99.8312491,31.3850004 100.00625,31.31 C100.181251,31.2349996 100.329374,31.1300007 100.450625,30.995 C100.571876,30.8599993 100.664375,30.6987509 100.728125,30.51125 C100.791875,30.3237491 100.82375,30.1175011 100.82375,29.8925 L100.82375,26.62625 L101.5475,26.62625 L101.5475,29.8925 C101.5475,30.2025016 101.498125,30.4899987 101.399375,30.755 C101.300625,31.0200013 101.159376,31.249374 100.975625,31.443125 C100.791874,31.636876 100.567501,31.7887494 100.3025,31.89875 C100.037499,32.0087506 99.7400017,32.06375 99.41,32.06375 C99.0799984,32.06375 98.7825013,32.0087506 98.5175,31.89875 C98.2524987,31.7887494 98.0275009,31.636876 97.8425,31.443125 C97.6574991,31.249374 97.5156255,31.0200013 97.416875,30.755 C97.3181245,30.4899987 97.26875,30.2025016 97.26875,29.8925 L97.26875,26.62625 L97.9925,26.62625 L97.9925,29.88875 C97.9925,30.1137511 98.0243747,30.3199991 98.088125,30.5075 C98.1518753,30.6950009 98.2443744,30.8562493 98.365625,30.99125 C98.4868756,31.1262507 98.6356241,31.2318746 98.811875,31.308125 C98.9881259,31.3843754 99.1874989,31.4225 99.41,31.4225 L99.41,31.4225 Z M106.60125,27.46625 C106.57875,27.5037502 106.554375,27.5318749 106.528125,27.550625 C106.501875,27.5693751 106.47,27.57875 106.4325,27.57875 C106.39,27.57875 106.34,27.5575002 106.2825,27.515 C106.225,27.4724998 106.153125,27.4256253 106.066875,27.374375 C105.980625,27.3231247 105.876876,27.2762502 105.755625,27.23375 C105.634374,27.1912498 105.487501,27.17 105.315,27.17 C105.152499,27.17 105.009376,27.1918748 104.885625,27.235625 C104.761874,27.2793752 104.658125,27.3387496 104.574375,27.41375 C104.490625,27.4887504 104.4275,27.5768745 104.385,27.678125 C104.3425,27.7793755 104.32125,27.8887494 104.32125,28.00625 C104.32125,28.1562507 104.358125,28.2806245 104.431875,28.379375 C104.505625,28.4781255 104.603124,28.5624996 104.724375,28.6325 C104.845626,28.7025004 104.983124,28.7631247 105.136875,28.814375 C105.290626,28.8656253 105.448124,28.9187497 105.609375,28.97375 C105.770626,29.0287503 105.928124,29.0906247 106.081875,29.159375 C106.235626,29.2281253 106.373124,29.3149995 106.494375,29.42 C106.615626,29.5250005 106.713125,29.6537492 106.786875,29.80625 C106.860625,29.9587508 106.8975,30.1462489 106.8975,30.36875 C106.8975,30.6037512 106.8575,30.824374 106.7775,31.030625 C106.6975,31.236876 106.580626,31.4162492 106.426875,31.56875 C106.273124,31.7212508 106.084376,31.8412496 105.860625,31.92875 C105.636874,32.0162504 105.382501,32.06 105.0975,32.06 C104.747498,32.06 104.430001,31.9968756 104.145,31.870625 C103.859999,31.7443744 103.616251,31.5737511 103.41375,31.35875 L103.62375,31.01375 C103.64375,30.9862499 103.668125,30.9631251 103.696875,30.944375 C103.725625,30.9256249 103.7575,30.91625 103.7925,30.91625 C103.825,30.91625 103.861875,30.9293749 103.903125,30.955625 C103.944375,30.9818751 103.99125,31.0149998 104.04375,31.055 C104.09625,31.0950002 104.15625,31.1387498 104.22375,31.18625 C104.29125,31.2337502 104.368125,31.2774998 104.454375,31.3175 C104.540625,31.3575002 104.638749,31.3906249 104.74875,31.416875 C104.858751,31.4431251 104.982499,31.45625 105.12,31.45625 C105.292501,31.45625 105.446249,31.4325002 105.58125,31.385 C105.716251,31.3374998 105.830625,31.2706254 105.924375,31.184375 C106.018125,31.0981246 106.09,30.9950006 106.14,30.875 C106.19,30.7549994 106.215,30.6212507 106.215,30.47375 C106.215,30.3112492 106.178125,30.1781255 106.104375,30.074375 C106.030625,29.9706245 105.933751,29.8837503 105.81375,29.81375 C105.693749,29.7437496 105.556251,29.6843752 105.40125,29.635625 C105.246249,29.5868748 105.088751,29.5368753 104.92875,29.485625 C104.768749,29.4343747 104.611251,29.3750003 104.45625,29.3075 C104.301249,29.2399997 104.163751,29.1525005 104.04375,29.045 C103.923749,28.9374995 103.826875,28.8031258 103.753125,28.641875 C103.679375,28.4806242 103.6425,28.2812512 103.6425,28.04375 C103.6425,27.853749 103.679375,27.6700009 103.753125,27.4925 C103.826875,27.3149991 103.934374,27.1575007 104.075625,27.02 C104.216876,26.8824993 104.390624,26.7725004 104.596875,26.69 C104.803126,26.6074996 105.039999,26.56625 105.3075,26.56625 C105.607502,26.56625 105.880624,26.6137495 106.126875,26.70875 C106.373126,26.8037505 106.589999,26.9412491 106.7775,27.12125 L106.60125,27.46625 Z M112.23625,31.4075 L112.2325,32 L108.92125,32 L108.92125,26.62625 L112.2325,26.62625 L112.2325,27.21875 L109.64875,27.21875 L109.64875,29.00375 L111.74125,29.00375 L111.74125,29.57375 L109.64875,29.57375 L109.64875,31.4075 L112.23625,31.4075 Z M118.60625,26.62625 L118.60625,32 L117.87875,32 L117.87875,29.555 L114.98,29.555 L114.98,32 L114.2525,32 L114.2525,26.62625 L114.98,26.62625 L114.98,29.0225 L117.87875,29.0225 L117.87875,26.62625 L118.60625,26.62625 Z M125.94375,29.315 C125.94375,29.717502 125.880001,30.0868733 125.7525,30.423125 C125.624999,30.7593767 125.445001,31.0487488 125.2125,31.29125 C124.979999,31.5337512 124.700627,31.7218743 124.374375,31.855625 C124.048123,31.9893757 123.687502,32.05625 123.2925,32.05625 C122.897498,32.05625 122.537502,31.9893757 122.2125,31.855625 C121.887498,31.7218743 121.608751,31.5337512 121.37625,31.29125 C121.143749,31.0487488 120.963751,30.7593767 120.83625,30.423125 C120.708749,30.0868733 120.645,29.717502 120.645,29.315 C120.645,28.912498 120.708749,28.5431267 120.83625,28.206875 C120.963751,27.8706233 121.143749,27.5806262 121.37625,27.336875 C121.608751,27.0931238 121.887498,26.9037507 122.2125,26.76875 C122.537502,26.6337493 122.897498,26.56625 123.2925,26.56625 C123.687502,26.56625 124.048123,26.6337493 124.374375,26.76875 C124.700627,26.9037507 124.979999,27.0931238 125.2125,27.336875 C125.445001,27.5806262 125.624999,27.8706233 125.7525,28.206875 C125.880001,28.5431267 125.94375,28.912498 125.94375,29.315 L125.94375,29.315 Z M125.1975,29.315 C125.1975,28.9849983 125.1525,28.6887513 125.0625,28.42625 C124.9725,28.1637487 124.845001,27.9418759 124.68,27.760625 C124.514999,27.5793741 124.315001,27.4400005 124.08,27.3425 C123.844999,27.2449995 123.582501,27.19625 123.2925,27.19625 C123.004999,27.19625 122.743751,27.2449995 122.50875,27.3425 C122.273749,27.4400005 122.073126,27.5793741 121.906875,27.760625 C121.740624,27.9418759 121.6125,28.1637487 121.5225,28.42625 C121.4325,28.6887513 121.3875,28.9849983 121.3875,29.315 C121.3875,29.6450016 121.4325,29.9406237 121.5225,30.201875 C121.6125,30.4631263 121.740624,30.6843741 121.906875,30.865625 C122.073126,31.0468759 122.273749,31.1856245 122.50875,31.281875 C122.743751,31.3781255 123.004999,31.42625 123.2925,31.42625 C123.582501,31.42625 123.844999,31.3781255 124.08,31.281875 C124.315001,31.1856245 124.514999,31.0468759 124.68,30.865625 C124.845001,30.6843741 124.9725,30.4631263 125.0625,30.201875 C125.1525,29.9406237 125.1975,29.6450016 125.1975,29.315 L125.1975,29.315 Z M131.03125,31.38875 L131.03125,32 L127.9825,32 L127.9825,26.62625 L128.70625,26.62625 L128.70625,31.38875 L131.03125,31.38875 Z M137.49125,29.315 C137.49125,29.717502 137.427501,30.0837484 137.3,30.41375 C137.172499,30.7437517 136.992501,31.0262488 136.76,31.26125 C136.527499,31.4962512 136.248127,31.6781244 135.921875,31.806875 C135.595623,31.9356256 135.235002,32 134.84,32 L132.83375,32 L132.83375,26.62625 L134.84,26.62625 C135.235002,26.62625 135.595623,26.6906244 135.921875,26.819375 C136.248127,26.9481256 136.527499,27.1306238 136.76,27.366875 C136.992501,27.6031262 137.172499,27.8862484 137.3,28.21625 C137.427501,28.5462517 137.49125,28.912498 137.49125,29.315 L137.49125,29.315 Z M136.745,29.315 C136.745,28.9849983 136.7,28.6900013 136.61,28.43 C136.52,28.1699987 136.392501,27.9500009 136.2275,27.77 C136.062499,27.5899991 135.862501,27.4525005 135.6275,27.3575 C135.392499,27.2624995 135.130001,27.215 134.84,27.215 L133.56125,27.215 L133.56125,31.41125 L134.84,31.41125 C135.130001,31.41125 135.392499,31.3637505 135.6275,31.26875 C135.862501,31.1737495 136.062499,31.0368759 136.2275,30.858125 C136.392501,30.6793741 136.52,30.4600013 136.61,30.2 C136.7,29.9399987 136.745,29.6450016 136.745,29.315 L136.745,29.315 Z M148.04875,26.62625 L148.04875,32 L147.41125,32 L147.41125,28.05125 C147.41125,27.9987497 147.413125,27.9425003 147.416875,27.8825 C147.420625,27.8224997 147.425,27.7612503 147.43,27.69875 L145.585,31.05875 C145.5275,31.1712506 145.440001,31.2275 145.3225,31.2275 L145.2175,31.2275 C145.099999,31.2275 145.0125,31.1712506 144.955,31.05875 L143.0725,27.68375 C143.0875,27.8162507 143.095,27.9387494 143.095,28.05125 L143.095,32 L142.4575,32 L142.4575,26.62625 L142.99375,26.62625 C143.05875,26.62625 143.10875,26.6324999 143.14375,26.645 C143.17875,26.6575001 143.2125,26.6924997 143.245,26.75 L145.10125,30.0575 C145.13125,30.1175003 145.160625,30.1799997 145.189375,30.245 C145.218125,30.3100003 145.245,30.3762497 145.27,30.44375 C145.295,30.3762497 145.32125,30.3093753 145.34875,30.243125 C145.37625,30.1768747 145.40625,30.1137503 145.43875,30.05375 L147.26125,26.75 C147.29125,26.6924997 147.324375,26.6575001 147.360625,26.645 C147.396875,26.6324999 147.4475,26.62625 147.5125,26.62625 L148.04875,26.62625 Z M155.38625,29.315 C155.38625,29.717502 155.322501,30.0868733 155.195,30.423125 C155.067499,30.7593767 154.887501,31.0487488 154.655,31.29125 C154.422499,31.5337512 154.143127,31.7218743 153.816875,31.855625 C153.490623,31.9893757 153.130002,32.05625 152.735,32.05625 C152.339998,32.05625 151.980002,31.9893757 151.655,31.855625 C151.329998,31.7218743 151.051251,31.5337512 150.81875,31.29125 C150.586249,31.0487488 150.406251,30.7593767 150.27875,30.423125 C150.151249,30.0868733 150.0875,29.717502 150.0875,29.315 C150.0875,28.912498 150.151249,28.5431267 150.27875,28.206875 C150.406251,27.8706233 150.586249,27.5806262 150.81875,27.336875 C151.051251,27.0931238 151.329998,26.9037507 151.655,26.76875 C151.980002,26.6337493 152.339998,26.56625 152.735,26.56625 C153.130002,26.56625 153.490623,26.6337493 153.816875,26.76875 C154.143127,26.9037507 154.422499,27.0931238 154.655,27.336875 C154.887501,27.5806262 155.067499,27.8706233 155.195,28.206875 C155.322501,28.5431267 155.38625,28.912498 155.38625,29.315 L155.38625,29.315 Z M154.64,29.315 C154.64,28.9849983 154.595,28.6887513 154.505,28.42625 C154.415,28.1637487 154.287501,27.9418759 154.1225,27.760625 C153.957499,27.5793741 153.757501,27.4400005 153.5225,27.3425 C153.287499,27.2449995 153.025001,27.19625 152.735,27.19625 C152.447499,27.19625 152.186251,27.2449995 151.95125,27.3425 C151.716249,27.4400005 151.515626,27.5793741 151.349375,27.760625 C151.183124,27.9418759 151.055,28.1637487 150.965,28.42625 C150.875,28.6887513 150.83,28.9849983 150.83,29.315 C150.83,29.6450016 150.875,29.9406237 150.965,30.201875 C151.055,30.4631263 151.183124,30.6843741 151.349375,30.865625 C151.515626,31.0468759 151.716249,31.1856245 151.95125,31.281875 C152.186251,31.3781255 152.447499,31.42625 152.735,31.42625 C153.025001,31.42625 153.287499,31.3781255 153.5225,31.281875 C153.757501,31.1856245 153.957499,31.0468759 154.1225,30.865625 C154.287501,30.6843741 154.415,30.4631263 154.505,30.201875 C154.595,29.9406237 154.64,29.6450016 154.64,29.315 L154.64,29.315 Z M161.64375,26.62625 L159.45375,32 L158.80125,32 L156.61125,26.62625 L157.1925,26.62625 C157.2575,26.62625 157.31,26.6424998 157.35,26.675 C157.39,26.7075002 157.42,26.7487498 157.44,26.79875 L158.955,30.59 C158.9875,30.6750004 159.019375,30.7674995 159.050625,30.8675 C159.081875,30.9675005 159.11,31.0724995 159.135,31.1825 C159.16,31.0724995 159.18625,30.9675005 159.21375,30.8675 C159.24125,30.7674995 159.27125,30.6750004 159.30375,30.59 L160.815,26.79875 C160.83,26.7562498 160.859375,26.7168752 160.903125,26.680625 C160.946875,26.6443748 161,26.62625 161.0625,26.62625 L161.64375,26.62625 Z M164.08,32 L163.3525,32 L163.3525,26.62625 L164.08,26.62625 L164.08,32 Z M170.80625,26.62625 L170.80625,32 L170.4425,32 C170.385,32 170.336875,31.9900001 170.298125,31.97 C170.259375,31.9499999 170.22125,31.9162502 170.18375,31.86875 L167.075,27.81875 C167.08,27.8812503 167.08375,27.9424997 167.08625,28.0025 C167.08875,28.0625003 167.09,28.1187497 167.09,28.17125 L167.09,32 L166.4525,32 L166.4525,26.62625 L166.8275,26.62625 C166.86,26.62625 166.8875,26.628125 166.91,26.631875 C166.9325,26.635625 166.9525,26.641875 166.97,26.650625 C166.9875,26.659375 167.005,26.6718749 167.0225,26.688125 C167.04,26.7043751 167.05875,26.7249999 167.07875,26.75 L170.1875,30.79625 C170.1825,30.7312497 170.178125,30.6681253 170.174375,30.606875 C170.170625,30.5456247 170.16875,30.4875003 170.16875,30.4325 L170.16875,26.62625 L170.80625,26.62625 Z M177.54375,29.41625 L177.54375,31.47875 C177.273749,31.673751 176.985627,31.8193745 176.679375,31.915625 C176.373123,32.0118755 176.037502,32.06 175.6725,32.06 C175.239998,32.06 174.850002,31.9931257 174.5025,31.859375 C174.154998,31.7256243 173.858126,31.5381262 173.611875,31.296875 C173.365624,31.0556238 173.176251,30.7662517 173.04375,30.42875 C172.911249,30.0912483 172.845,29.720002 172.845,29.315 C172.845,28.904998 172.909374,28.5312517 173.038125,28.19375 C173.166876,27.8562483 173.349999,27.5668762 173.5875,27.325625 C173.825001,27.0843738 174.113748,26.8975007 174.45375,26.765 C174.793752,26.6324993 175.173748,26.56625 175.59375,26.56625 C175.806251,26.56625 176.003749,26.5818748 176.18625,26.613125 C176.368751,26.6443752 176.537499,26.6893747 176.6925,26.748125 C176.847501,26.8068753 176.991249,26.8781246 177.12375,26.961875 C177.256251,27.0456254 177.379999,27.1399995 177.495,27.245 L177.28875,27.575 C177.25625,27.6250002 177.214375,27.6568749 177.163125,27.670625 C177.111875,27.6843751 177.055,27.6725002 176.9925,27.635 C176.9325,27.5999998 176.86375,27.5575003 176.78625,27.5075 C176.70875,27.4574997 176.614376,27.4093752 176.503125,27.363125 C176.391874,27.3168748 176.260626,27.2775002 176.109375,27.245 C175.958124,27.2124998 175.778751,27.19625 175.57125,27.19625 C175.268748,27.19625 174.995001,27.2456245 174.75,27.344375 C174.504999,27.4431255 174.296251,27.5843741 174.12375,27.768125 C173.951249,27.9518759 173.81875,28.1743737 173.72625,28.435625 C173.63375,28.6968763 173.5875,28.9899984 173.5875,29.315 C173.5875,29.6525017 173.635625,29.9543737 173.731875,30.220625 C173.828125,30.4868763 173.965624,30.7131241 174.144375,30.899375 C174.323126,31.0856259 174.539999,31.2274995 174.795,31.325 C175.050001,31.4225005 175.336248,31.47125 175.65375,31.47125 C175.903751,31.47125 176.125624,31.4431253 176.319375,31.386875 C176.513126,31.3306247 176.702499,31.2525005 176.8875,31.1525 L176.8875,29.97125 L176.05125,29.97125 C176.00375,29.97125 175.965625,29.9575001 175.936875,29.93 C175.908125,29.9024999 175.89375,29.8687502 175.89375,29.82875 L175.89375,29.41625 L177.54375,29.41625 Z M184.46375,31.4225 C184.671251,31.4225 184.849999,31.3987502 185,31.35125 C185.150001,31.3037498 185.273125,31.2368754 185.369375,31.150625 C185.465625,31.0643746 185.53625,30.9618756 185.58125,30.843125 C185.62625,30.7243744 185.64875,30.5937507 185.64875,30.45125 C185.64875,30.1737486 185.550001,29.9543758 185.3525,29.793125 C185.154999,29.6318742 184.858752,29.55125 184.46375,29.55125 L183.30125,29.55125 L183.30125,31.4225 L184.46375,31.4225 Z M183.30125,27.2 L183.30125,29.03375 L184.26125,29.03375 C184.466251,29.03375 184.644374,29.0112502 184.795625,28.96625 C184.946876,28.9212498 185.071875,28.8587504 185.170625,28.77875 C185.269375,28.6987496 185.3425,28.6018756 185.39,28.488125 C185.4375,28.3743744 185.46125,28.2500007 185.46125,28.115 C185.46125,27.7974984 185.366251,27.5656257 185.17625,27.419375 C184.986249,27.2731243 184.691252,27.2 184.29125,27.2 L183.30125,27.2 Z M184.29125,26.62625 C184.621252,26.62625 184.905624,26.6587497 185.144375,26.72375 C185.383126,26.7887503 185.579374,26.8812494 185.733125,27.00125 C185.886876,27.1212506 186,27.2681241 186.0725,27.441875 C186.145,27.6156259 186.18125,27.8112489 186.18125,28.02875 C186.18125,28.1612507 186.160625,28.2881244 186.119375,28.409375 C186.078125,28.5306256 186.01625,28.6437495 185.93375,28.74875 C185.85125,28.8537505 185.746876,28.9481246 185.620625,29.031875 C185.494374,29.1156254 185.346251,29.1837497 185.17625,29.23625 C185.571252,29.3112504 185.868124,29.451874 186.066875,29.658125 C186.265626,29.864376 186.365,30.1349983 186.365,30.47 C186.365,30.6975011 186.323125,30.9049991 186.239375,31.0925 C186.155625,31.2800009 186.033126,31.4412493 185.871875,31.57625 C185.710624,31.7112507 185.512501,31.8156246 185.2775,31.889375 C185.042499,31.9631254 184.775002,32 184.475,32 L182.5775,32 L182.5775,26.62625 L184.29125,26.62625 Z M189.915,29.22875 C190.125001,29.22875 190.310624,29.2031253 190.471875,29.151875 C190.633126,29.1006247 190.768124,29.0281255 190.876875,28.934375 C190.985626,28.8406245 191.0675,28.7287507 191.1225,28.59875 C191.1775,28.4687494 191.205,28.3250008 191.205,28.1675 C191.205,27.8474984 191.100001,27.6062508 190.89,27.44375 C190.679999,27.2812492 190.365002,27.2 189.945,27.2 L189.15,27.2 L189.15,29.22875 L189.915,29.22875 Z M192.3975,32 L191.7525,32 C191.619999,32 191.5225,31.9487505 191.46,31.84625 L190.065,29.92625 C190.0225,29.8662497 189.976875,29.8231251 189.928125,29.796875 C189.879375,29.7706249 189.803751,29.7575 189.70125,29.7575 L189.15,29.7575 L189.15,32 L188.42625,32 L188.42625,26.62625 L189.945,26.62625 C190.285002,26.62625 190.578749,26.6606247 190.82625,26.729375 C191.073751,26.7981253 191.278124,26.8974994 191.439375,27.0275 C191.600626,27.1575007 191.72,27.3143741 191.7975,27.498125 C191.875,27.6818759 191.91375,27.8874989 191.91375,28.115 C191.91375,28.305001 191.88375,28.4824992 191.82375,28.6475 C191.76375,28.8125008 191.676876,28.9606243 191.563125,29.091875 C191.449374,29.2231257 191.310626,29.3349995 191.146875,29.4275 C190.983124,29.5200005 190.797501,29.5899998 190.59,29.6375 C190.6825,29.6900003 190.7625,29.7662495 190.83,29.86625 L192.3975,32 Z M199.0375,29.315 C199.0375,29.717502 198.973751,30.0868733 198.84625,30.423125 C198.718749,30.7593767 198.538751,31.0487488 198.30625,31.29125 C198.073749,31.5337512 197.794377,31.7218743 197.468125,31.855625 C197.141873,31.9893757 196.781252,32.05625 196.38625,32.05625 C195.991248,32.05625 195.631252,31.9893757 195.30625,31.855625 C194.981248,31.7218743 194.702501,31.5337512 194.47,31.29125 C194.237499,31.0487488 194.057501,30.7593767 193.93,30.423125 C193.802499,30.0868733 193.73875,29.717502 193.73875,29.315 C193.73875,28.912498 193.802499,28.5431267 193.93,28.206875 C194.057501,27.8706233 194.237499,27.5806262 194.47,27.336875 C194.702501,27.0931238 194.981248,26.9037507 195.30625,26.76875 C195.631252,26.6337493 195.991248,26.56625 196.38625,26.56625 C196.781252,26.56625 197.141873,26.6337493 197.468125,26.76875 C197.794377,26.9037507 198.073749,27.0931238 198.30625,27.336875 C198.538751,27.5806262 198.718749,27.8706233 198.84625,28.206875 C198.973751,28.5431267 199.0375,28.912498 199.0375,29.315 L199.0375,29.315 Z M198.29125,29.315 C198.29125,28.9849983 198.24625,28.6887513 198.15625,28.42625 C198.06625,28.1637487 197.938751,27.9418759 197.77375,27.760625 C197.608749,27.5793741 197.408751,27.4400005 197.17375,27.3425 C196.938749,27.2449995 196.676251,27.19625 196.38625,27.19625 C196.098749,27.19625 195.837501,27.2449995 195.6025,27.3425 C195.367499,27.4400005 195.166876,27.5793741 195.000625,27.760625 C194.834374,27.9418759 194.70625,28.1637487 194.61625,28.42625 C194.52625,28.6887513 194.48125,28.9849983 194.48125,29.315 C194.48125,29.6450016 194.52625,29.9406237 194.61625,30.201875 C194.70625,30.4631263 194.834374,30.6843741 195.000625,30.865625 C195.166876,31.0468759 195.367499,31.1856245 195.6025,31.281875 C195.837501,31.3781255 196.098749,31.42625 196.38625,31.42625 C196.676251,31.42625 196.938749,31.3781255 197.17375,31.281875 C197.408751,31.1856245 197.608749,31.0468759 197.77375,30.865625 C197.938751,30.6843741 198.06625,30.4631263 198.15625,30.201875 C198.24625,29.9406237 198.29125,29.6450016 198.29125,29.315 L198.29125,29.315 Z M201.8,28.98125 L202.07375,28.98125 C202.16875,28.98125 202.245,28.9693751 202.3025,28.945625 C202.36,28.9218749 202.4125,28.8812503 202.46,28.82375 L204.24875,26.79875 C204.29875,26.7337497 204.35125,26.6887501 204.40625,26.66375 C204.46125,26.6387499 204.52875,26.62625 204.60875,26.62625 L205.22375,26.62625 L203.17625,28.94 C203.12625,29.0000003 203.078125,29.0493748 203.031875,29.088125 C202.985625,29.1268752 202.93625,29.1587499 202.88375,29.18375 C202.95125,29.2062501 203.0125,29.2393748 203.0675,29.283125 C203.1225,29.3268752 203.17625,29.3837496 203.22875,29.45375 L205.36625,32 L204.73625,32 C204.68875,32 204.648125,31.996875 204.614375,31.990625 C204.580625,31.984375 204.55125,31.9743751 204.52625,31.960625 C204.50125,31.9468749 204.479375,31.9306251 204.460625,31.911875 C204.441875,31.8931249 204.42375,31.8712501 204.40625,31.84625 L202.55375,29.7125 C202.50375,29.6499997 202.45,29.6056251 202.3925,29.579375 C202.335,29.5531249 202.247501,29.54 202.13,29.54 L201.8,29.54 L201.8,32 L201.07625,32 L201.07625,26.62625 L201.8,26.62625 L201.8,28.98125 Z M210.36,31.4075 L210.35625,32 L207.045,32 L207.045,26.62625 L210.35625,26.62625 L210.35625,27.21875 L207.7725,27.21875 L207.7725,29.00375 L209.865,29.00375 L209.865,29.57375 L207.7725,29.57375 L207.7725,31.4075 L210.36,31.4075 Z M213.865,29.22875 C214.075001,29.22875 214.260624,29.2031253 214.421875,29.151875 C214.583126,29.1006247 214.718124,29.0281255 214.826875,28.934375 C214.935626,28.8406245 215.0175,28.7287507 215.0725,28.59875 C215.1275,28.4687494 215.155,28.3250008 215.155,28.1675 C215.155,27.8474984 215.050001,27.6062508 214.84,27.44375 C214.629999,27.2812492 214.315002,27.2 213.895,27.2 L213.1,27.2 L213.1,29.22875 L213.865,29.22875 Z M216.3475,32 L215.7025,32 C215.569999,32 215.4725,31.9487505 215.41,31.84625 L214.015,29.92625 C213.9725,29.8662497 213.926875,29.8231251 213.878125,29.796875 C213.829375,29.7706249 213.753751,29.7575 213.65125,29.7575 L213.1,29.7575 L213.1,32 L212.37625,32 L212.37625,26.62625 L213.895,26.62625 C214.235002,26.62625 214.528749,26.6606247 214.77625,26.729375 C215.023751,26.7981253 215.228124,26.8974994 215.389375,27.0275 C215.550626,27.1575007 215.67,27.3143741 215.7475,27.498125 C215.825,27.6818759 215.86375,27.8874989 215.86375,28.115 C215.86375,28.305001 215.83375,28.4824992 215.77375,28.6475 C215.71375,28.8125008 215.626876,28.9606243 215.513125,29.091875 C215.399374,29.2231257 215.260626,29.3349995 215.096875,29.4275 C214.933124,29.5200005 214.747501,29.5899998 214.54,29.6375 C214.6325,29.6900003 214.7125,29.7662495 214.78,29.86625 L216.3475,32 Z" id="HOUSEHOLD-MOVING-BRO" fill="#57C3F3"></path>
            </g>
        </g>
    </g>
</svg>