<?xml version="1.0" encoding="UTF-8"?>
<svg width="100px" height="100px" viewBox="0 0 100 100" version="1.1" xmlns="http://www.w3.org/2000/svg" xmlns:xlink="http://www.w3.org/1999/xlink">
    <title>icon / furniture / cabinet</title>
    <g id="icon-/-furniture-/-cabinet" stroke="none" stroke-width="1" fill="none" fill-rule="evenodd">
        <path d="M40.9479989,51.895 L40.9479989,38.417 C40.9479989,37.545 41.654,36.838 42.526,36.838 C43.398,36.838 44.105,37.545 44.105,38.417 L44.105,51.895 C44.105,52.767 43.399,53.474 42.526,53.474 C41.654,53.474 40.947,52.767 40.9479989,51.895 L40.9479989,51.895 Z M59.052,38.417 L59.052,51.895 C59.052,52.767 58.346,53.474 57.473,53.474 C56.601,53.474 55.895,52.767 55.895,51.895 L55.895,38.417 C55.895,37.545 56.601,36.838 57.473,36.838 C58.346,36.838 59.052,37.545 59.052,38.417 L59.052,38.417 Z M96.843,70.118 L51.579,70.118 L51.579,23.158 L95.895,23.158 C96.417,23.158 96.843,23.583 96.843,24.105 L96.843,70.118 Z M95.895,76.842 L51.579,76.842 L51.579,73.276 L96.843,73.276 L96.843,75.895 C96.843,76.417 96.417,76.842 95.895,76.842 L95.895,76.842 Z M48.421,70.118 L3.158,70.119 L3.158,24.105 C3.158,23.583 3.583,23.158 4.105,23.158 L48.421,23.158 L48.421,70.118 Z M48.421,76.842 L4.105,76.842 C3.583,76.842 3.158,76.417 3.158,75.895 L3.158,73.276 L48.421,73.276 L48.421,76.842 Z M95.895,20 L4.105,20 C1.842,20 0,21.841 0,24.105 L0,75.895 C0,78.159 1.842,80 4.105,80 L95.895,80 C98.159,80 100,78.159 100,75.895 L100,24.105 C100,21.841 98.159,20 95.895,20 L95.895,20 Z" id="icon_cabinet" fill="#3A4B60"></path>
    </g>
</svg>