<?xml version="1.0" encoding="UTF-8"?>
<svg width="100px" height="100px" viewBox="0 0 100 100" version="1.1" xmlns="http://www.w3.org/2000/svg" xmlns:xlink="http://www.w3.org/1999/xlink">
    <title>icon / furniture / camping-tent</title>
    <g id="icon-/-furniture-/-camping-tent" stroke="none" stroke-width="1" fill="none" fill-rule="evenodd">
        <path d="M69.6938,82.0645 L39.8508,24.1985 L61.6178,24.1985 L91.4608,82.0645 L69.6938,82.0645 Z M38.9428,82.0645 L38.9428,28.9475 L66.4118,82.0645 L38.9428,82.0645 Z M36.0078,47.0145 L12.8398,76.3605 C12.3798,76.9445 12.4278,77.7815 12.9548,78.3075 L16.7118,82.0645 L8.5398,82.0645 L36.0078,28.9475 L36.0078,47.0145 Z M19.8258,81.0275 L15.9528,77.1555 L30.4748,58.7605 L19.8258,81.0275 Z M36.0078,82.0645 L22.5838,82.0645 L36.0078,53.9955 L36.0078,82.0645 Z M99.4128,76.0955 C98.7638,75.6095 97.8438,75.7415 97.3578,76.3895 L94.0858,80.7525 L64.3108,23.0195 L69.8248,17.5055 C70.3978,16.9325 70.3978,16.0025 69.8248,15.4295 C69.2518,14.8565 68.3218,14.8565 67.7488,15.4295 L62.5248,20.6545 L57.2998,15.4295 C56.7268,14.8565 55.7978,14.8565 55.2248,15.4295 C54.6518,16.0025 54.6518,16.9325 55.2248,17.5055 L58.9808,21.2625 L40.4108,21.2625 L43.3458,17.3485 C43.8328,16.7005 43.7008,15.7805 43.0528,15.2935 C42.4038,14.8075 41.4848,14.9385 40.9978,15.5865 L37.3168,20.4955 L32.2508,15.4295 C31.6778,14.8565 30.7488,14.8565 30.1748,15.4295 C29.6018,16.0025 29.6018,16.9325 30.1748,17.5055 L35.6898,23.0195 L5.9138,80.7525 L2.6418,76.3895 C2.1558,75.7415 1.2358,75.6095 0.5878,76.0955 C-0.0612,76.5825 -0.1932,77.5025 0.2938,78.1505 L4.9898,84.4135 C5.2648,84.7775 5.7108,85.0005 6.1668,85.0005 L93.8328,85.0005 C94.2898,85.0005 94.7348,84.7795 95.0098,84.4135 L99.7068,78.1505 C100.1928,77.5025 100.0618,76.5825 99.4128,76.0955 L99.4128,76.0955 Z M61.6178,42.9845 L65.8868,50.7525 L62.9068,50.7525 L58.6368,42.9845 L61.6178,42.9845 Z M54.9488,42.1725 L60.6868,52.8775 C60.9358,53.3755 61.4438,53.6885 61.9998,53.6885 L68.2618,53.6885 C69.3328,53.6885 70.0548,52.5245 69.5748,51.5645 L63.8368,40.8605 C63.5888,40.3635 63.0798,40.0485 62.5248,40.0485 L56.2618,40.0485 C55.1918,40.0485 54.4688,41.2135 54.9488,42.1725 L54.9488,42.1725 Z" id="icon_camping-tent" fill="#3A4B60"></path>
    </g>
</svg>