<?xml version="1.0" encoding="UTF-8"?>
<svg width="100px" height="100px" viewBox="0 0 100 100" version="1.1" xmlns="http://www.w3.org/2000/svg">
    <title>icon / furniture / canopy-bed</title>
    <g id="icon-/-furniture-/-canopy-bed" stroke="none" stroke-width="1" fill="none" fill-rule="evenodd">
        <path d="M90.6247,21.2843 L9.3737,21.2843 C8.5697,21.2843 7.9157,20.6313 7.9157,19.8273 C7.9157,19.0223 8.5697,18.3693 9.3737,18.3693 L90.6267,18.3693 C91.4297,18.3693 92.0837,19.0213 92.0837,19.8253 L92.0827,19.8273 C92.0827,20.6313 91.4287,21.2843 90.6247,21.2843 L90.6247,21.2843 Z M15.5137,61.6083 C18.5487,66.6133 20.1987,72.1943 20.4267,78.2383 L10.9287,78.2383 L10.9287,66.5993 C11.7587,65.8473 13.4697,64.1873 15.5137,61.6083 L15.5137,61.6083 Z M17.0407,54.2973 C14.8057,57.9933 12.5527,60.7243 10.9287,62.4763 L10.9287,24.2003 L25.4917,24.2003 C25.1967,37.9733 20.7727,48.1303 17.0407,54.2973 L17.0407,54.2973 Z M82.9577,54.2973 C79.2267,48.1293 74.8017,37.9733 74.5067,24.2003 L89.0697,24.2003 L89.0697,62.4763 C87.4457,60.7243 85.1927,57.9923 82.9577,54.2973 L82.9577,54.2973 Z M84.4857,61.6103 C86.5297,64.1883 88.2397,65.8473 89.0697,66.5993 L89.0697,78.2383 L79.5717,78.2383 C79.7997,72.1903 81.4517,66.6113 84.4857,61.6103 L84.4857,61.6103 Z M54.9557,59.9673 C54.9557,58.8943 55.8277,58.0223 56.8997,58.0223 L69.9237,58.0223 C70.9947,58.0223 71.8667,58.8943 71.8667,59.9673 C71.8667,61.0383 70.9947,61.9103 69.9237,61.9103 L56.8997,61.9103 C55.8277,61.9103 54.9557,61.0383 54.9557,59.9673 L54.9557,59.9673 Z M28.1317,59.9673 C28.1317,58.8943 29.0037,58.0223 30.0747,58.0223 L43.0987,58.0223 C44.1707,58.0223 45.0427,58.8943 45.0427,59.9673 C45.0427,61.0383 44.1707,61.9103 43.0987,61.9103 L30.0747,61.9103 C29.0037,61.9103 28.1317,61.0383 28.1317,59.9673 L28.1317,59.9673 Z M79.5857,64.8263 C77.8217,69.0163 76.8267,73.5483 76.6557,78.2383 L23.3427,78.2383 C23.1717,73.5513 22.1767,69.0163 20.4137,64.8263 L79.5857,64.8263 Z M26.2517,39.8243 C27.4577,35.2473 28.2877,30.0323 28.4077,24.2003 L71.5907,24.2003 C71.7107,30.0323 72.5407,35.2473 73.7467,39.8243 L26.2517,39.8243 Z M74.5887,42.7403 C76.3087,48.1933 78.5177,52.6083 80.5347,55.9263 C81.2337,57.0743 81.9327,58.1333 82.6127,59.1013 C82.0207,60.0143 81.4727,60.9513 80.9657,61.9103 L74.3757,61.9103 C74.6367,61.3143 74.7827,60.6573 74.7827,59.9673 C74.7827,57.2873 72.6037,55.1073 69.9237,55.1073 L56.8997,55.1073 C54.2207,55.1073 52.0407,57.2873 52.0407,59.9673 C52.0407,60.6573 52.1867,61.3143 52.4467,61.9103 L47.5517,61.9103 C47.8117,61.3143 47.9587,60.6573 47.9587,59.9673 C47.9587,57.2873 45.7777,55.1073 43.0997,55.1073 L30.0747,55.1073 C27.3957,55.1073 25.2157,57.2873 25.2157,59.9673 C25.2157,60.6573 25.3617,61.3143 25.6227,61.9103 L19.0327,61.9103 C18.5257,60.9513 17.9767,60.0143 17.3847,59.1033 C18.0657,58.1343 18.7647,57.0743 19.4637,55.9263 C21.4807,52.6083 23.6897,48.1933 25.4097,42.7403 L74.5887,42.7403 Z M92.0827,82.6113 C92.0827,83.4163 91.4287,84.0693 90.6247,84.0693 L9.3737,84.0693 C8.5697,84.0693 7.9157,83.4163 7.9157,82.6113 C7.9157,81.8073 8.5697,81.1543 9.3737,81.1543 L90.6247,81.1543 C91.4287,81.1543 92.0827,81.8073 92.0827,82.6113 L92.0827,82.6113 Z M78.4767,97.0843 L87.2237,97.0843 L87.2237,86.9853 L78.4767,86.9853 L78.4767,97.0843 Z M12.7747,97.0843 L21.5217,97.0843 L21.5217,86.9853 L12.7747,86.9853 L12.7747,97.0843 Z M21.8287,10.3493 C24.6947,8.5953 28.5927,6.6683 33.5177,5.2153 C32.2777,6.0813 31.0837,7.0503 29.9427,8.1223 C26.7717,11.1013 24.8407,14.0683 24.0287,15.4533 L15.0867,15.4533 C16.5727,14.0543 18.8117,12.1943 21.8287,10.3493 L21.8287,10.3493 Z M40.7277,8.5943 C39.5267,11.3013 38.7617,13.9773 38.3857,15.4533 L27.4867,15.4533 C28.4497,14.0433 29.9537,12.0993 32.0157,10.1763 C35.4747,6.9473 39.3337,4.7873 43.5407,3.7123 C42.5357,5.0053 41.5967,6.6333 40.7277,8.5943 L40.7277,8.5943 Z M49.9997,2.9163 L49.9997,2.9163 L50.0007,2.9163 C54.2797,2.9163 57.3607,10.9283 58.6037,15.4533 L41.3957,15.4533 C42.6397,10.9283 45.7197,2.9163 49.9997,2.9163 L49.9997,2.9163 Z M67.9847,10.1763 C70.0457,12.0993 71.5497,14.0433 72.5137,15.4533 L61.6147,15.4533 C61.2387,13.9773 60.4737,11.3013 59.2727,8.5943 C58.4037,6.6333 57.4647,5.0053 56.4587,3.7123 C60.6667,4.7873 64.5257,6.9473 67.9847,10.1763 L67.9847,10.1763 Z M78.1717,10.3493 C81.1877,12.1943 83.4267,14.0543 84.9127,15.4533 L75.9717,15.4533 C75.1597,14.0683 73.2287,11.1013 70.0577,8.1223 C68.9157,7.0503 67.7217,6.0813 66.4817,5.2153 C71.4067,6.6683 75.3047,8.5953 78.1717,10.3493 L78.1717,10.3493 Z M90.6267,15.4533 L88.9767,15.4533 C87.8867,14.1983 84.9027,11.0723 79.8247,7.9433 C73.9457,4.3193 63.9977,0.0003 50.0007,0.0003 L49.9997,0.0003 C36.0017,0.0003 26.0547,4.3193 20.1747,7.9433 C15.0967,11.0723 12.1137,14.1983 11.0227,15.4533 L9.3737,15.4533 C6.9627,15.4533 4.9997,17.4153 4.9997,19.8273 C4.9997,21.7633 6.2657,23.4093 8.0127,23.9823 L8.0127,78.4563 C6.2657,79.0293 4.9997,80.6753 4.9997,82.6113 C4.9997,85.0233 6.9617,86.9853 9.3737,86.9853 L9.8587,86.9853 L9.8587,98.5423 C9.8587,99.3473 10.5127,100.0003 11.3167,100.0003 L22.9797,100.0003 C23.7847,100.0003 24.4377,99.3473 24.4377,98.5423 L24.4377,86.9853 L75.5607,86.9853 L75.5607,98.5423 C75.5607,99.3473 76.2127,100.0003 77.0187,100.0003 L88.6817,100.0003 C89.4857,100.0003 90.1397,99.3473 90.1397,98.5423 L90.1397,86.9853 L90.6247,86.9853 C93.0367,86.9853 94.9987,85.0233 94.9987,82.6113 C94.9987,80.6753 93.7327,79.0293 91.9857,78.4563 L91.9857,23.9823 C93.7327,23.4093 94.9987,21.7633 94.9987,19.8273 L94.9997,19.8273 C94.9997,17.4153 93.0377,15.4533 90.6267,15.4533 L90.6267,15.4533 Z"
              id="icon_canopy-bed" fill="#3A4B60"></path>
    </g>
</svg>