<?xml version="1.0" encoding="UTF-8"?>
<svg width="100px" height="100px" viewBox="0 0 100 100" version="1.1" xmlns="http://www.w3.org/2000/svg" xmlns:xlink="http://www.w3.org/1999/xlink">
    <title>icon / furniture / canoe_kayak</title>
    <g id="icon-/-furniture-/-canoe_kayak" stroke="none" stroke-width="1" fill="none" fill-rule="evenodd">
        <path d="M96.8992,89.7883 C96.8992,89.7453 96.8772,89.7233 96.8692,89.7153 L85.4732,78.3183 L77.3832,76.2953 L76.2852,77.3933 L78.3082,85.4853 L89.7032,96.8823 C89.7112,96.8893 89.7342,96.9113 89.7772,96.9113 C89.8202,96.9113 89.8422,96.8893 89.8492,96.8823 L96.8692,89.8613 C96.8772,89.8533 96.8992,89.8313 96.8992,89.7883 L96.8992,89.7883 Z M62.8532,60.6683 C68.2872,55.0693 73.0892,48.8553 77.1282,42.1813 C75.8142,37.6053 73.3472,33.4153 69.9622,30.0283 C66.5772,26.6423 62.3882,24.1773 57.8162,22.8623 C51.1812,26.8703 44.9822,31.6473 39.3282,37.1393 L41.8692,39.6813 C44.1772,37.8523 47.0112,36.8583 50.0012,36.8583 C53.5072,36.8583 56.8052,38.2253 59.2862,40.7053 C64.0382,45.4573 64.3772,52.9743 60.3102,58.1243 L62.8532,60.6683 Z M58.0982,55.9123 C60.9672,51.9903 60.6322,46.4393 57.0922,42.8983 C55.1982,41.0043 52.6792,39.9603 50.0002,39.9603 C47.8412,39.9603 45.7882,40.6393 44.0812,41.8923 L58.0982,55.9123 Z M41.8892,44.0893 C39.0332,48.0103 39.3722,53.5503 42.9072,57.0853 C44.8012,58.9803 47.3212,60.0233 50.0002,60.0233 C52.1512,60.0233 54.1982,59.3503 55.9022,58.1033 L41.8892,44.0893 Z M60.6582,62.8593 L58.1152,60.3153 C55.8092,62.1363 52.9822,63.1263 50.0002,63.1263 C46.4922,63.1263 43.1942,61.7603 40.7132,59.2793 C35.9672,54.5323 35.6242,47.0263 39.6772,41.8773 L37.1352,39.3333 C36.3452,40.1473 35.5672,40.9753 34.8032,41.8133 C30.3132,46.7443 26.3162,52.1073 22.8772,57.8213 C24.1922,62.3903 26.6572,66.5733 30.0392,69.9553 C33.4232,73.3413 37.6122,75.8083 42.1832,77.1223 C48.8122,73.1173 55.0072,68.3453 60.6582,62.8593 L60.6582,62.8593 Z M38.6042,79.1863 C34.5892,77.6183 30.9192,75.2243 27.8452,72.1503 C24.7762,69.0813 22.3842,65.4153 20.8172,61.4073 C19.1082,64.5243 17.5582,67.7313 16.1792,71.0113 C17.7842,73.5873 19.6882,75.9853 21.8492,78.1463 C24.0152,80.3123 26.4182,82.2223 29.0002,83.8273 C32.2762,82.4503 35.4932,80.8953 38.6042,79.1863 L38.6042,79.1863 Z M25.4962,85.2273 C23.4162,83.7773 21.4592,82.1433 19.6562,80.3413 C17.8582,78.5433 16.2282,76.5913 14.7822,74.5173 C12.9212,79.4373 11.4352,84.4993 10.3522,89.6453 C15.5372,88.5583 20.5942,87.0773 25.4962,85.2273 L25.4962,85.2273 Z M61.3962,20.7983 C65.4102,22.3663 69.0812,24.7613 72.1552,27.8343 C75.2282,30.9083 77.6222,34.5803 79.1902,38.5953 C80.8992,35.4823 82.4542,32.2663 83.8312,28.9893 C82.2242,26.4073 80.3162,24.0043 78.1502,21.8383 C75.9852,19.6723 73.5822,17.7643 71.0012,16.1573 C67.7232,17.5343 64.5072,19.0893 61.3962,20.7983 L61.3962,20.7983 Z M74.5042,14.7573 C76.5842,16.2073 78.5422,17.8413 80.3442,19.6443 C82.1502,21.4503 83.7862,23.4113 85.2382,25.4953 C87.0862,20.5933 88.5602,15.5353 89.6482,10.3403 C84.4632,11.4273 79.4052,12.9083 74.5042,14.7573 L74.5042,14.7573 Z M23.7142,22.6193 L21.6922,14.5283 L10.2962,3.1323 C10.2892,3.1243 10.2662,3.1003 10.2232,3.1003 C10.1802,3.1003 10.1582,3.1243 10.1502,3.1323 L3.1302,10.1513 C3.1232,10.1593 3.1002,10.1823 3.1002,10.2253 C3.1002,10.2673 3.1242,10.2903 3.1302,10.2983 L14.5262,21.6943 L22.6172,23.7183 L23.7142,22.6193 Z M99.0622,92.0543 L92.0432,99.0743 C90.8092,100.3093 88.7442,100.3093 87.5092,99.0743 L75.8112,87.3743 C75.6122,87.1753 75.4712,86.9273 75.4032,86.6533 L73.0632,77.2933 C72.9172,76.7103 73.1302,76.1603 73.5452,75.7473 L62.8512,65.0533 C47.8662,79.6123 29.1652,89.3153 8.6652,93.1423 C7.6122,93.3373 6.6592,92.3863 6.8552,91.3323 C8.1702,84.2893 10.2172,77.3803 12.9322,70.7463 C12.9502,70.6763 12.9712,70.6053 13.0002,70.5373 C16.7032,61.5323 21.6522,53.0373 27.6902,45.3963 C29.9612,42.5213 32.3882,39.7683 34.9412,37.1403 L24.2622,26.4593 C23.8482,26.8723 23.2992,27.0873 22.7152,26.9403 L13.3572,24.6003 C13.0852,24.5323 12.8362,24.3923 12.6362,24.1923 L0.9372,12.4923 C-0.3128,11.2413 -0.3128,9.2083 0.9372,7.9583 L7.9572,0.9373 C9.2072,-0.3127 11.2402,-0.3127 12.4902,0.9373 L24.1892,12.6383 C24.3882,12.8373 24.5292,13.0863 24.5972,13.3583 L26.9362,22.7203 C27.0832,23.3033 26.8692,23.8523 26.4562,24.2663 L37.1342,34.9453 C52.1232,20.3773 70.8292,10.6703 91.3362,6.8433 C92.3882,6.6473 93.3412,7.5983 93.1442,8.6523 C91.4072,17.9553 88.4362,27.0173 84.2812,35.5213 C79.9452,44.3963 74.3782,52.6303 67.7622,59.9623 C66.8752,60.9453 65.9692,61.9123 65.0472,62.8623 L75.7382,73.5543 C76.1512,73.1413 76.7002,72.9273 77.2842,73.0723 L86.6432,75.4133 C86.9162,75.4803 87.1652,75.6223 87.3632,75.8203 L99.0622,87.5213 C100.3122,88.7713 100.3122,90.8063 99.0622,92.0543 L99.0622,92.0543 Z M67.5572,41.6403 C68.0782,41.0323 68.0402,40.1003 67.4752,39.5343 L60.4562,32.5153 C59.8502,31.9093 58.8682,31.9093 58.2622,32.5153 C57.6572,33.1203 57.6572,34.1023 58.2622,34.7083 L65.2822,41.7283 C65.9132,42.3593 66.9782,42.3173 67.5572,41.6403 L67.5572,41.6403 Z M41.7372,65.2763 C42.6932,66.2313 41.9972,67.9253 40.6402,67.9253 C40.2442,67.9253 39.8462,67.7723 39.5442,67.4703 L32.5252,60.4493 C31.9192,59.8443 31.9192,58.8623 32.5252,58.2563 C33.1302,57.6503 34.1122,57.6503 34.7182,58.2563 L41.7372,65.2763 Z" id="icon_canoe_kayak" fill="#3A4B60"></path>
    </g>
</svg>