<?xml version="1.0" encoding="UTF-8"?>
<svg width="100px" height="100px" viewBox="0 0 100 100" version="1.1" xmlns="http://www.w3.org/2000/svg" xmlns:xlink="http://www.w3.org/1999/xlink">
    <!-- Generator: Sketch 63.1 (92452) - https://sketch.com -->
    <title>icon / furniture / captains-bed</title>
    <desc>Created with Sketch.</desc>
    <g id="icon-/-furniture-/-captains-bed" stroke="none" stroke-width="1" fill="none" fill-rule="evenodd">
        <path d="M22.3833,69.0898 L30.1823,69.0898 C31.0723,69.0898 31.4703,68.4118 31.4703,67.7398 C31.4703,67.0688 31.0723,66.3918 30.1823,66.3918 L22.3833,66.3918 C21.4923,66.3918 21.0943,67.0698 21.0943,67.7428 C21.0943,68.4128 21.4923,69.0898 22.3833,69.0898 L22.3833,69.0898 Z M78.2843,66.3918 L70.4853,66.3918 C69.5943,66.3918 69.1963,67.0698 69.1963,67.7428 C69.1963,68.4128 69.5943,69.0898 70.4853,69.0898 L78.2843,69.0898 C79.1753,69.0898 79.5733,68.4118 79.5733,67.7408 C79.5733,67.0688 79.1753,66.3918 78.2843,66.3918 L78.2843,66.3918 Z M2.6983,73.4518 L47.8183,73.4518 L47.8183,63.0268 L2.6983,63.0268 L2.6983,73.4518 Z M3.0143,60.0138 L96.9853,60.0138 L96.9853,53.9788 L96.8243,54.0268 C96.4143,54.1478 95.9893,54.2088 95.5603,54.2088 L29.4943,54.2088 C27.0463,54.2088 25.0543,52.2178 25.0543,49.7698 L25.0543,45.3898 L3.0143,45.3908 L3.0143,60.0138 Z M3.0143,42.3758 L8.2863,42.3758 L8.2863,20.4578 C8.2863,19.8198 7.7673,19.3008 7.1293,19.3008 L4.1723,19.3008 C3.5333,19.3008 3.0143,19.8198 3.0143,20.4578 L3.0143,42.3758 Z M3.0143,13.6508 C3.0143,15.1048 4.1963,16.2868 5.6503,16.2868 C7.1043,16.2868 8.2863,15.1048 8.2863,13.6508 C8.2863,12.1968 7.1043,11.0148 5.6503,11.0148 C4.1963,11.0148 3.0143,12.1968 3.0143,13.6508 L3.0143,13.6508 Z M11.3003,42.3768 L16.1713,42.3768 L11.3003,36.9628 L11.3003,42.3768 Z M11.3053,29.9538 C11.2513,31.5098 11.7303,32.9338 12.6553,33.9608 L18.6033,40.5738 C19.5903,41.6708 21.0583,42.3028 22.7373,42.3548 L22.9313,42.3608 C23.0503,42.3648 23.1673,42.3698 23.2833,42.3698 C23.6793,42.3698 24.0583,42.3148 24.4213,42.0108 C24.9473,41.5708 24.9843,41.0278 25.0223,40.4538 L25.0343,40.2868 C25.1613,38.6118 24.6883,37.0858 23.7003,35.9878 L17.7523,29.3758 C16.8143,28.3328 15.4853,27.7228 13.9103,27.6108 C13.8053,27.6038 13.7013,27.5928 13.5973,27.5828 C12.9983,27.5238 12.3803,27.4658 11.8493,27.9388 L11.8493,27.9388 C11.3213,28.4088 11.3163,29.0338 11.3103,29.6388 C11.3093,29.7438 11.3083,29.8488 11.3053,29.9538 L11.3053,29.9538 Z M28.0693,41.0208 L28.0703,49.7708 C28.0703,50.5568 28.7093,51.1948 29.4943,51.1948 L95.5603,51.1948 C96.3463,51.1948 96.9853,50.5568 96.9853,49.7708 L96.9853,46.2958 C96.9853,44.7158 96.1283,43.2958 94.7483,42.5898 C92.7113,41.5488 89.9763,41.0208 86.6193,41.0208 L28.0693,41.0208 Z M50.5143,73.4518 L97.3013,73.4518 L97.3013,63.0268 L50.5143,63.0268 L50.5143,73.4518 Z M50.5143,89.3018 L97.3013,89.3018 L97.3013,76.2138 L50.5143,76.2138 L50.5143,89.3018 Z M2.6983,89.3018 L47.8183,89.3018 L47.8183,76.2138 L2.6983,76.2138 L2.6983,89.3018 Z M100.0003,60.0868 L100.0003,73.5148 L100.0003,74.8008 L100.0003,90.6508 C100.0003,91.3948 99.3943,91.9998 98.6513,91.9998 L1.3493,91.9998 C0.6063,91.9998 0.0003,91.3948 0.0003,90.6508 L0.0003,74.8008 L0.0003,73.4908 L0.0003,63.0278 L0.0003,20.4578 C0.0003,19.3068 0.4623,18.2338 1.3013,17.4358 L1.3863,17.3558 L1.3113,17.2658 C0.4663,16.2508 0.0003,14.9678 0.0003,13.6508 C0.0003,10.5338 2.5353,7.9998 5.6513,7.9998 C8.7663,7.9998 11.3013,10.5338 11.3013,13.6508 C11.3013,14.9688 10.8363,16.2518 9.9903,17.2648 L9.9153,17.3548 L10.0003,17.4348 C10.8393,18.2328 11.3013,19.3068 11.3013,20.4578 L11.3013,24.7938 L11.4663,24.7388 C11.9963,24.5618 12.5303,24.4888 13.0533,24.5278 L14.1223,24.6038 C16.4583,24.7688 18.5433,25.7478 19.9933,27.3608 L25.9413,33.9728 C26.9163,35.0548 27.5883,36.4148 27.8873,37.9048 L27.9073,38.0068 L86.6193,38.0068 C90.4583,38.0068 93.6543,38.6458 96.1203,39.9068 C98.5133,41.1298 100.0003,43.5778 100.0003,46.2958 L100.0003,60.0868 Z M70.4853,84.1068 L78.2843,84.1068 C79.1753,84.1068 79.5733,83.4288 79.5733,82.7578 C79.5733,82.0858 79.1753,81.4078 78.2843,81.4078 L70.4853,81.4078 C69.5943,81.4078 69.1963,82.0868 69.1963,82.7588 C69.1963,83.4288 69.5943,84.1068 70.4853,84.1068 L70.4853,84.1068 Z M21.0943,82.7588 C21.0943,82.0868 21.4923,81.4078 22.3833,81.4078 L30.1823,81.4078 C31.0723,81.4078 31.4703,82.0858 31.4703,82.7568 C31.4703,83.4288 31.0723,84.1068 30.1823,84.1068 L22.3833,84.1068 C21.4923,84.1068 21.0943,83.4288 21.0943,82.7588 L21.0943,82.7588 Z" id="icon_captains-bed" fill="#3A4B60"></path>
    </g>
</svg>