<?xml version="1.0" encoding="UTF-8"?>
<svg width="100px" height="100px" viewBox="0 0 100 100" version="1.1" xmlns="http://www.w3.org/2000/svg" xmlns:xlink="http://www.w3.org/1999/xlink">
    <!-- Generator: Sketch 63.1 (92452) - https://sketch.com -->
    <title>icon / furniture / car-rims</title>
    <desc>Created with Sketch.</desc>
    <g id="icon-/-furniture-/-car-rims" stroke="none" stroke-width="1" fill="none" fill-rule="evenodd">
        <path d="M50,95.5742 C24.87,95.5742 4.426,75.1302 4.426,50.0002 C4.426,24.8702 24.87,4.4262 50,4.4262 C75.13,4.4262 95.574,24.8702 95.574,50.0002 C95.574,75.1302 75.13,95.5742 50,95.5742 L50,95.5742 Z M50,0.0002 C22.43,0.0002 0,22.4302 0,50.0002 C0,77.5692 22.43,100.0002 50,100.0002 C77.57,100.0002 100,77.5692 100,50.0002 C100,22.4302 77.57,0.0002 50,0.0002 L50,0.0002 Z M82.443,60.9032 L62.077,52.4692 L62.168,51.8792 C62.263,51.2592 62.311,50.6282 62.311,50.0002 C62.311,49.3722 62.263,48.7412 62.168,48.1212 L62.077,47.5312 L82.443,39.0952 L82.689,39.8932 C83.701,43.1582 84.214,46.5572 84.214,50.0002 C84.214,53.4422 83.701,56.8422 82.689,60.1052 L82.443,60.9032 Z M80.251,65.9672 C77.015,72.0752 72.075,77.0142 65.966,80.2522 L65.227,80.6432 L56.792,60.2782 L57.272,59.9242 C58.287,59.1782 59.179,58.2862 59.924,57.2722 L60.277,56.7912 L80.644,65.2272 L80.251,65.9672 Z M60.106,82.6902 C56.843,83.7012 53.442,84.2142 50,84.2142 C46.557,84.2142 43.157,83.7012 39.894,82.6902 L39.095,82.4422 L47.531,62.0762 L48.122,62.1682 C49.353,62.3582 50.647,62.3582 51.877,62.1682 L52.468,62.0762 L60.904,82.4422 L60.106,82.6902 Z M34.033,80.2532 C27.924,77.0142 22.985,72.0742 19.749,65.9672 L19.356,65.2272 L39.722,56.7912 L40.076,57.2722 C40.82,58.2852 41.712,59.1782 42.728,59.9242 L43.208,60.2782 L34.772,80.6442 L34.033,80.2532 Z M17.311,60.1062 C16.299,56.8412 15.786,53.4402 15.786,50.0002 C15.786,46.5592 16.299,43.1592 17.311,39.8932 L17.557,39.0952 L37.923,47.5312 L37.832,48.1212 C37.737,48.7412 37.689,49.3722 37.689,50.0002 C37.689,50.6282 37.737,51.2592 37.832,51.8792 L37.923,52.4692 L17.557,60.9042 L17.311,60.1062 Z M19.749,34.0332 C22.985,27.9262 27.924,22.9852 34.034,19.7472 L34.773,19.3552 L43.208,39.7212 L42.728,40.0762 C41.713,40.8212 40.821,41.7142 40.076,42.7272 L39.722,43.2092 L19.356,34.7722 L19.749,34.0332 Z M39.894,17.3092 C46.428,15.2862 53.586,15.2902 60.106,17.3092 L60.904,17.5572 L52.468,37.9242 L51.877,37.8322 C50.647,37.6412 49.353,37.6412 48.122,37.8322 L47.531,37.9242 L39.095,17.5572 L39.894,17.3092 Z M57.628,50.0002 C57.628,54.2062 54.207,57.6282 50,57.6282 C45.793,57.6282 42.372,54.2062 42.372,50.0002 C42.372,45.7942 45.793,42.3722 50,42.3722 C54.207,42.3722 57.628,45.7942 57.628,50.0002 L57.628,50.0002 Z M65.967,19.7482 C72.075,22.9852 77.015,27.9252 80.251,34.0332 L80.644,34.7722 L60.278,43.2092 L59.924,42.7272 C59.179,41.7142 58.287,40.8212 57.272,40.0762 L56.792,39.7212 L65.228,19.3562 L65.967,19.7482 Z M50,11.1042 C28.553,11.1042 11.104,28.5532 11.104,50.0002 C11.104,71.4472 28.553,88.8952 50,88.8952 C71.447,88.8952 88.896,71.4472 88.896,50.0002 C88.896,28.5532 71.447,11.1042 50,11.1042 L50,11.1042 Z" id="icon_car-rims" fill="#3A4B60"></path>
    </g>
</svg>