<?xml version="1.0" encoding="UTF-8"?>
<svg width="100px" height="100px" viewBox="0 0 100 100" version="1.1" xmlns="http://www.w3.org/2000/svg" xmlns:xlink="http://www.w3.org/1999/xlink">
    <!-- Generator: Sketch 63.1 (92452) - https://sketch.com -->
    <title>icon / furniture / card-table</title>
    <desc>Created with Sketch.</desc>
    <g id="icon-/-furniture-/-card-table" stroke="none" stroke-width="1" fill="none" fill-rule="evenodd">
        <path d="M95.9471,19.089 C78.5051,19.098 11.9171,19.102 3.8221,19.102 C3.3921,19.102 3.0501,18.754 3.0501,18.324 L3.0481,13.819 C3.0481,13.39 3.3881,13.041 3.8181,13.041 C12.4051,13.043 87.2291,13.06 95.8891,13.031 C96.4031,13.015 96.9771,13.045 96.9481,13.703 C96.9511,15.287 96.949651,16.872 96.9441,18.456 C96.9741,19.114 96.4651,19.098 95.9471,19.089 Z M90.8821,22.156 C91.5001,22.152 92.1171,22.1535438 92.7351,22.156 C92.9591,22.157 93.0831,22.267 93.0811,22.5 C93.0861,30.442 93.0821,73.198 93.0821,78.339 C93.0821,78.646 92.8331,78.8874444 92.5251,78.8874444 C92.0521,78.8874444 91.4041,78.8874444 91.1041,78.8874444 C90.7841,78.8874444 90.5241,78.627 90.5241,78.307 C90.5251,73.637 90.5221,35.523 90.5251,22.528 C90.5181,22.283 90.6401,22.157 90.8821,22.156 Z M90.1391,86.952 C89.5671,86.952 89.1031,86.487 89.1031,85.915 L89.1031,82.976 C89.1031,82.403 89.5671,81.939 90.1391,81.939 L93.4891,81.939 C94.0611,81.939 94.5261,82.403 94.5261,82.976 L94.5311,85.914 C94.5311,86.487 94.0671,86.952 93.4941,86.952 L90.1391,86.952 Z M79.1341,22.156 L87.4681,22.156 L87.4681,30.491 L79.1341,22.156 Z M12.5191,30.508 C12.5191,25.492 12.5191,22.157 12.5191,22.157 L20.8691,22.157 L12.5191,30.508 Z M7.2461,22.159 C7.8751,22.1545318 8.5041,22.153 9.1321,22.157 C9.5511,22.157 9.4721,22.556 9.4791,22.857 C9.4791,40.355 9.4801,60.852 9.4791,78.352 C9.4791,78.886 9.4781,78.887 8.9281,78.887 C8.4041,78.887 7.8791,78.867 7.3551,78.887 C7.0121,78.9 6.9151,78.764 6.9191,78.436 C6.9311,77.377 6.9091,39.078 6.9211,22.488 C6.9231,22.275 7.0381,22.161 7.2461,22.159 Z M9.6211,86.952 C8.6671,86.983 7.7111,86.978 6.7561,86.952 C5.9441,86.93 5.4381,86.353 5.4611,85.575 C5.4951,83.595 5.4511,84.613 5.4681,82.633 C5.4721,82.246 5.7891,81.935 6.1741,81.934 C7.5261,81.932 8.8771,81.931 10.2281,81.934 C10.7721,81.935 10.9291,82.094 10.9301,82.65 C10.9321,84.626 10.9331,83.601 10.9291,85.576 C10.9281,86.309 10.3531,86.928 9.6211,86.952 Z M2.2801,10 C1.0171,10 9.92638928e-05,11.024 9.92638928e-05,12.287 L0.0041,19.882 C0.0051,21.139 1.0201,22.16 2.2781,22.166 L3.8691,22.181 C3.8691,22.181 3.9121,61.286 3.8611,79.335 C3.8461,79.471 3.7801,79.633 3.6801,79.722 C2.7381,80.566 2.4321,81.621 2.4321,82.935 C2.4321,84.483 2.4341,83.336 2.4451,85.084 C2.4501,85.948 2.4551,86.771 2.8331,87.533 C3.4661,88.811 4.4581,89.706 5.8841,89.865 C7.2211,90.014 8.5841,90.025 9.9291,89.969 C12.4451,89.863 13.9611,87.952 13.9611,85.584 C13.9611,83.797 13.9351,83.696 13.9351,81.932 C13.9351,80.619 13.5061,79.89 12.5131,79.579 C12.5191,77.084 12.5191,50.115 12.5191,34.83 L25.1931,22.157 L74.8111,22.156 L87.4681,34.812 L87.4681,79.561 C86.4091,80.442 86.0421,81.519 86.0421,82.9 C86.0421,84.855 86.0341,83.793 86.0351,85.679 C86.0351,86.335 86.1541,86.988 86.4521,87.572 C87.0921,88.825 88.0801,89.708 89.4941,89.865 C90.8191,90.013 92.1701,90.016 93.5041,89.964 C96.1691,89.862 97.5081,88.009 97.5081,85.477 C97.5081,83.811 97.5091,83.968 97.5091,82.293 C97.5091,81.043 97.3401,80.659 96.4511,79.868 C96.1911,79.638 96.1251,79.398 96.1251,79.078 C96.0571,74.019 96.1251,22.156 96.1251,22.156 L97.7181,22.149 C98.9791,22.146 100.000099,21.124 100.000099,19.863 L100.000099,12.286 C100.000099,11.023 98.9761,10 97.7141,10 C91.9651,10.001 12.2951,10 2.2801,10 Z" id="icon_card-table" fill="#3A4B60"></path>
    </g>
</svg>