<?xml version="1.0" encoding="UTF-8"?>
<svg width="100px" height="100px" viewBox="0 0 100 100" version="1.1" xmlns="http://www.w3.org/2000/svg" xmlns:xlink="http://www.w3.org/1999/xlink">
    <title>icon / furniture / carpet-runner</title>
    <g id="icon-/-furniture-/-carpet-runner" stroke="none" stroke-width="1" fill="none" fill-rule="evenodd">
        <path d="M13.7079,72.978 C10.8259,72.978 8.4809,70.634 8.4809,67.751 C8.4809,64.87 10.8259,62.525 13.7079,62.525 C16.5909,62.525 18.9349,64.87 18.9349,67.751 C18.9349,70.634 16.5909,72.978 13.7079,72.978 L13.7079,72.978 Z M13.7089,59.566 C9.1949,59.566 5.5229,63.238 5.5229,67.751 C5.5229,72.265 9.1949,75.937 13.7089,75.937 C18.2229,75.937 21.8939,72.265 21.8939,67.751 C21.8939,63.238 18.2229,59.566 13.7089,59.566 L13.7089,59.566 Z M93.0979,97.041 L54.7339,97.041 C52.9939,97.041 51.5779,95.625 51.5779,93.886 C51.5779,92.145 52.9939,90.729 54.7339,90.729 C58.1049,90.729 60.8489,87.987 60.8489,84.615 L60.8489,30.177 L93.0979,30.177 L93.0979,97.041 Z M57.8899,84.615 C57.8899,86.355 56.4739,87.771 54.7339,87.771 C53.5799,87.771 52.4999,88.093 51.5779,88.65 L51.5779,81.46 L54.7339,81.46 C56.4739,81.46 57.8899,82.875 57.8899,84.615 L57.8899,84.615 Z M22.1989,78.501 C25.3739,75.988 27.4169,72.105 27.4169,67.751 L27.4169,15.187 L54.7329,15.187 C56.4739,15.187 57.8899,16.603 57.8899,18.343 L57.8899,79.38 C56.9679,78.822 55.8879,78.501 54.7329,78.501 L22.1989,78.501 Z M13.7079,78.501 C7.7809,78.501 2.9589,73.679 2.9589,67.751 C2.9589,61.824 7.7809,57.002 13.7079,57.002 C19.6359,57.002 24.4579,61.824 24.4579,67.751 C24.4579,73.679 19.6359,78.501 13.7079,78.501 L13.7079,78.501 Z M2.9589,13.707 C2.9589,7.78 7.7809,2.958 13.7079,2.958 C19.6359,2.958 24.4579,7.781 24.4579,13.707 L24.4579,59.26 C21.9439,56.086 18.0619,54.043 13.7079,54.043 C9.3539,54.043 5.4719,56.086 2.9589,59.26 L2.9589,13.707 Z M98.5209,36.525 C99.3379,36.525 99.9999,35.863 99.9999,35.045 C99.9999,34.228 99.3379,33.566 98.5209,33.566 L96.0559,33.566 L96.0559,30.177 L98.5209,30.177 C99.3379,30.177 99.9999,29.515 99.9999,28.698 C99.9999,27.882 99.3379,27.219 98.5209,27.219 L60.8489,27.219 L60.8489,18.343 C60.8489,14.972 58.1049,12.228 54.7329,12.228 L27.3359,12.228 C26.5949,5.363 20.7669,0 13.7079,0 C6.1489,0 -0.0001,6.149 -0.0001,13.707 L-0.0001,67.751 C-0.0001,75.311 6.1489,81.46 13.7079,81.46 L48.6189,81.46 L48.6189,93.886 C48.6189,97.257 51.3629,100 54.7339,100 L98.5209,100 C99.3379,100 99.9999,99.338 99.9999,98.52 C99.9999,97.704 99.3379,97.041 98.5209,97.041 L96.0559,97.041 L96.0559,93.652 L98.5209,93.652 C99.3379,93.652 99.9999,92.99 99.9999,92.173 C99.9999,91.356 99.3379,90.694 98.5209,90.694 L96.0559,90.694 L96.0559,87.305 L98.5209,87.305 C99.3379,87.305 99.9999,86.643 99.9999,85.825 C99.9999,85.008 99.3379,84.346 98.5209,84.346 L96.0559,84.346 L96.0559,80.958 L98.5209,80.958 C99.3379,80.958 99.9999,80.295 99.9999,79.478 C99.9999,78.661 99.3379,77.999 98.5209,77.999 L96.0559,77.999 L96.0559,74.61 L98.5209,74.61 C99.3379,74.61 99.9999,73.948 99.9999,73.131 C99.9999,72.313 99.3379,71.651 98.5209,71.651 L96.0559,71.651 L96.0559,68.263 L98.5209,68.263 C99.3379,68.263 99.9999,67.6 99.9999,66.783 C99.9999,65.966 99.3379,65.304 98.5209,65.304 L96.0559,65.304 L96.0559,61.915 L98.5209,61.915 C99.3379,61.915 99.9999,61.252 99.9999,60.436 C99.9999,59.618 99.3379,58.956 98.5209,58.956 L96.0559,58.956 L96.0559,55.567 L98.5209,55.567 C99.3379,55.567 99.9999,54.905 99.9999,54.088 C99.9999,53.27 99.3379,52.608 98.5209,52.608 L96.0559,52.608 L96.0559,49.22 L98.5209,49.22 C99.3379,49.22 99.9999,48.557 99.9999,47.74 C99.9999,46.923 99.3379,46.261 98.5209,46.261 L96.0559,46.261 L96.0559,42.873 L98.5209,42.873 C99.3379,42.873 99.9999,42.209 99.9999,41.393 C99.9999,40.576 99.3379,39.914 98.5209,39.914 L96.0559,39.914 L96.0559,36.525 L98.5209,36.525 Z" id="icon_carpet-runner" fill="#3A4B60"></path>
    </g>
</svg>