<?xml version="1.0" encoding="UTF-8"?>
<svg width="100px" height="100px" viewBox="0 0 100 100" version="1.1" xmlns="http://www.w3.org/2000/svg" xmlns:xlink="http://www.w3.org/1999/xlink">
    <title>icon / furniture / chaise-lounge_lr</title>
    <g id="icon-/-furniture-/-chaise-lounge_lr" stroke="none" stroke-width="1" fill="none" fill-rule="evenodd">
        <path d="M96.9231,63.0766 L16.9231,63.0766 C14.3781,63.0766 12.3081,61.0066 12.3081,58.4616 L12.3081,36.9236 C12.3081,36.0726 11.6201,35.3846 10.7691,35.3846 L9.2311,35.3846 C5.8371,35.3846 3.0761,32.6246 3.0761,29.2306 C3.0761,25.8376 5.8371,23.0766 9.2311,23.0766 L10.7691,23.0766 C15.0111,23.0766 18.4611,26.5276 18.4611,30.7686 L18.4611,55.3846 C18.4611,56.2356 19.1501,56.9236 20.0001,56.9236 L96.9231,56.9236 L96.9231,63.0766 Z M93.2381,67.1936 C93.2771,67.2896 93.3261,67.3786 93.3831,67.4646 C93.6861,67.9166 93.8461,68.4456 93.8461,68.9926 C93.8461,69.7176 93.5521,70.4286 93.0401,70.9396 L90.9401,73.0406 C89.9101,74.0686 89.2981,75.4726 89.2361,76.9236 L86.1531,76.9236 L86.1531,75.3846 C86.1531,74.6156 86.3351,73.8466 86.6801,73.1586 L86.8411,72.8336 C87.3991,71.7206 87.6931,70.4746 87.6931,69.2306 C87.6931,68.1776 87.4691,67.1276 87.0681,66.1536 L92.8141,66.1536 L93.2381,67.1936 Z M25.4661,72.8336 L25.6271,73.1586 C25.9721,73.8466 26.1531,74.6156 26.1531,75.3846 L26.1531,76.9236 L23.0721,76.9236 C23.0111,75.4726 22.3991,74.0686 21.3691,73.0406 L19.2691,70.9396 C18.7551,70.4266 18.4611,69.7156 18.4611,68.9926 C18.4611,68.4476 18.6211,67.9186 18.9251,67.4646 C18.9821,67.3786 19.0291,67.2896 19.0691,67.1936 L19.4931,66.1536 L25.2391,66.1536 C24.8381,67.1276 24.6151,68.1776 24.6151,69.2306 C24.6151,70.4746 24.9091,71.7206 25.4661,72.8336 L25.4661,72.8336 Z M25.9461,23.0766 C29.0431,23.0766 31.9521,24.2826 34.1431,26.4726 C36.9131,29.2426 40.5971,30.7686 44.5151,30.7686 L50.5621,30.7686 C53.6581,30.7686 56.5681,31.9746 58.7581,34.1646 L60.2971,35.7036 C63.0681,38.4736 66.7501,40.0006 70.6691,40.0006 C72.7621,40.0006 74.4611,41.6996 74.4611,43.7926 L74.4611,44.6156 L21.5381,44.6156 L21.5381,30.7686 C21.5381,27.7576 20.2921,25.0336 18.2901,23.0766 L25.9461,23.0766 Z M39.0931,26.3086 C39.0141,26.2666 38.9361,26.2246 38.8591,26.1806 C37.7161,25.5396 36.7201,24.6796 35.7161,23.8456 C34.6581,22.9676 33.5611,22.1806 32.3671,21.4976 C31.2361,20.8496 29.8961,20.4766 28.6131,20.2416 C27.7341,20.0806 26.8401,20.0006 25.9461,20.0006 L10.7691,20.0006 L9.2311,20.0006 C4.1401,20.0006 0.0001,24.1396 0.0001,29.2306 C0.0001,34.3216 4.1401,38.4616 9.2311,38.4616 L9.2311,58.4616 C9.2311,62.4476 12.2891,65.6966 16.1771,66.0786 C15.6631,66.9666 15.3851,67.9636 15.3851,68.9926 C15.3851,70.5256 16.0061,72.0306 17.0921,73.1156 L19.1931,75.2156 C19.7061,75.7276 20.0001,76.4386 20.0001,77.1616 L20.0001,78.4616 C20.0001,79.3116 20.6881,80.0006 21.5381,80.0006 L27.6931,80.0006 C28.5431,80.0006 29.2311,79.3116 29.2311,78.4616 L29.2311,75.3846 C29.2311,74.1396 28.9371,72.8946 28.3801,71.7816 L28.2181,71.4566 C27.8741,70.7686 27.6931,70.0006 27.6931,69.2306 C27.6931,68.4616 27.8741,67.6916 28.2181,67.0046 L28.6431,66.1536 L83.6641,66.1536 L84.0891,67.0046 C84.4341,67.6916 84.6151,68.4616 84.6151,69.2306 C84.6151,70.0006 84.4341,70.7686 84.0891,71.4566 L83.9281,71.7816 C83.3701,72.8946 83.0761,74.1396 83.0761,75.3846 L83.0761,78.4616 C83.0761,79.3116 83.7651,80.0006 84.6151,80.0006 L90.7691,80.0006 C91.6201,80.0006 92.3081,79.3116 92.3081,78.4616 L92.3081,77.1616 C92.3081,76.4366 92.6021,75.7256 93.1131,75.2146 L95.2141,73.1136 C96.3001,72.0286 96.9211,70.5246 96.9211,68.9906 C96.9211,67.9906 96.6551,67.0216 96.1691,66.1526 L98.4611,66.1526 C99.3131,66.1526 100.0001,65.4646 100.0001,64.6136 L100.0001,55.3836 C100.0001,54.5336 99.3131,53.8466 98.4611,53.8466 L96.9231,53.8466 L96.9231,50.7686 C96.9231,47.3756 94.1631,44.6156 90.7691,44.6156 L77.5381,44.6156 L77.5381,43.7926 C77.5381,40.0046 74.4571,36.9236 70.6691,36.9236 C67.5721,36.9236 64.6631,35.7176 62.4721,33.5276 L60.9341,31.9896 C58.1631,29.2186 54.4801,27.6916 50.5621,27.6916 C49.3921,27.6916 48.2271,27.6816 47.0601,27.7226 C45.8291,27.7646 44.5931,27.7466 43.3701,27.5906 C41.8861,27.4006 40.4151,27.0056 39.0931,26.3086 L39.0931,26.3086 Z M93.8461,50.7686 L93.8461,53.8466 L21.5381,53.8466 L21.5381,47.6916 L90.7691,47.6916 C92.4661,47.6916 93.8461,49.0726 93.8461,50.7686 L93.8461,50.7686 Z" id="icon_chaise-lounge_lr" fill="#3A4B60"></path>
    </g>
</svg>