<?xml version="1.0" encoding="UTF-8"?>
<svg width="100px" height="100px" viewBox="0 0 100 100" version="1.1" xmlns="http://www.w3.org/2000/svg">
    <title>icon / furniture / chaise-lounge_patio</title>
    <g id="icon-/-furniture-/-chaise-lounge_patio" stroke="none" stroke-width="1" fill="none" fill-rule="evenodd">
        <path d="M2.318,61.152 L97.681,61.152 L97.681,54.537 L2.318,54.537 L2.318,61.152 Z M83.798,72.682 L90.683,72.682 L90.683,63.47 L83.798,63.47 L83.798,72.682 Z M9.316,72.682 L16.202,72.682 L16.202,63.47 L9.316,63.47 L9.316,72.682 Z M20.501,52.218 L12.354,52.218 L12.354,44.071 L20.501,52.218 Z M5.498,33.936 L8.382,31.051 L29.548,52.218 L23.78,52.218 L5.498,33.936 Z M15.196,27.317 L35.435,47.556 C35.653,47.774 35.948,47.896 36.256,47.896 L94.027,47.882 L94.027,52.217 L32.826,52.217 L11.568,30.96 L15.196,27.317 Z M97.682,52.217 L97.682,52.218 L96.367,52.218 L96.367,47.882 C96.367,46.604 95.327,45.564 94.049,45.564 L36.735,45.577 L16.835,25.678 C15.931,24.774 14.461,24.774 13.556,25.678 L9.924,29.325 C9.015,28.513 7.615,28.539 6.741,29.412 L3.858,32.296 C3.42,32.734 3.178,33.317 3.178,33.936 C3.178,34.555 3.42,35.137 3.858,35.574 L10.036,41.752 L10.036,52.217 L2.318,52.217 C1.04,52.217 0,53.257 0,54.535 L0,61.152 C0,62.43 1.04,63.47 2.318,63.47 L6.998,63.47 L6.998,72.682 C6.998,73.96 8.038,75 9.316,75 L16.202,75 C17.48,75 18.519,73.96 18.519,72.682 L18.519,63.47 L81.48,63.47 L81.48,72.682 C81.48,73.96 82.52,75 83.799,75 L90.683,75 C91.962,75 93.002,73.96 93.002,72.682 L93.002,63.47 L97.682,63.47 C98.96,63.47 100,62.43 100,61.152 L100,54.536 C100,53.257 98.96,52.217 97.682,52.217 L97.682,52.217 Z"
              id="icon_chaise-lounge_patio" fill="#3A4B60"></path>
    </g>
</svg>