<?xml version="1.0" encoding="UTF-8"?>
<svg width="100px" height="100px" viewBox="0 0 100 100" version="1.1" xmlns="http://www.w3.org/2000/svg" xmlns:xlink="http://www.w3.org/1999/xlink">
    <title>icon / furniture / chair_lr</title>
    <g id="icon-/-furniture-/-chair_lr" stroke="none" stroke-width="1" fill="none" fill-rule="evenodd">
        <path d="M60.8145,35.7049 C59.8645,35.7049 59.0905,34.9319 59.0905,33.9799 C59.0905,33.0299 59.8645,32.2569 60.8145,32.2569 C61.7655,32.2569 62.5395,33.0299 62.5395,33.9799 C62.5395,34.9319 61.7655,35.7049 60.8145,35.7049 L60.8145,35.7049 Z M60.8145,28.5709 C57.8315,28.5709 55.4055,30.9979 55.4055,33.9799 C55.4055,36.9639 57.8325,39.3909 60.8145,39.3909 C63.7975,39.3909 66.2245,36.9639 66.2245,33.9799 C66.2245,30.9979 63.7975,28.5709 60.8145,28.5709 L60.8145,28.5709 Z M58.7135,19.1709 C57.7625,19.1709 56.9895,18.3969 56.9895,17.4459 C56.9895,16.4949 57.7625,15.7219 58.7135,15.7219 C59.6655,15.7219 60.4385,16.4949 60.4385,17.4459 C60.4385,18.3969 59.6655,19.1709 58.7135,19.1709 L58.7135,19.1709 Z M58.7135,12.0359 C55.7305,12.0359 53.3035,14.4629 53.3035,17.4459 C53.3035,20.4289 55.7305,22.8559 58.7135,22.8559 C61.6965,22.8559 64.1245,20.4289 64.1245,17.4459 C64.1245,14.4629 61.6965,12.0359 58.7135,12.0359 L58.7135,12.0359 Z M39.1855,32.2569 C40.1355,32.2569 40.9105,33.0299 40.9105,33.9799 C40.9105,34.9319 40.1355,35.7049 39.1855,35.7049 C38.2345,35.7049 37.4605,34.9319 37.4605,33.9799 C37.4605,33.0299 38.2345,32.2569 39.1855,32.2569 L39.1855,32.2569 Z M39.1855,39.3909 C42.1685,39.3909 44.5955,36.9639 44.5955,33.9799 C44.5955,30.9979 42.1685,28.5709 39.1855,28.5709 C36.2025,28.5709 33.7755,30.9979 33.7755,33.9799 C33.7755,36.9639 36.2025,39.3909 39.1855,39.3909 L39.1855,39.3909 Z M41.2865,15.7219 C42.2375,15.7219 43.0105,16.4949 43.0105,17.4459 C43.0105,18.3969 42.2375,19.1709 41.2865,19.1709 C40.3355,19.1709 39.5615,18.3969 39.5615,17.4459 C39.5615,16.4949 40.3355,15.7219 41.2865,15.7219 L41.2865,15.7219 Z M41.2865,22.8559 C44.2695,22.8559 46.6965,20.4299 46.6965,17.4459 C46.6965,14.4629 44.2695,12.0359 41.2865,12.0359 C38.3025,12.0359 35.8765,14.4629 35.8765,17.4459 C35.8765,20.4299 38.3025,22.8559 41.2865,22.8559 L41.2865,22.8559 Z M86.3145,70.7779 C86.3145,70.8859 86.2205,70.9779 86.1145,70.9779 L13.8855,70.9779 C13.7795,70.9779 13.6855,70.8859 13.6855,70.7779 L13.6855,52.4149 C13.6855,50.4169 15.3115,48.7909 17.3105,48.7909 L21.7715,48.7909 C22.8185,48.7909 23.8155,49.2509 24.5065,50.0539 C25.9035,51.6749 28.4195,51.6789 29.8205,50.0539 C30.5115,49.2509 31.5085,48.7909 32.5555,48.7909 L37.0165,48.7909 C38.0635,48.7909 39.0615,49.2509 39.7525,50.0539 C41.1495,51.6749 43.6655,51.6789 45.0655,50.0539 C45.7565,49.2509 46.7535,48.7909 47.8005,48.7909 L52.2625,48.7909 C53.3095,48.7909 54.3065,49.2509 54.9995,50.0539 C56.3955,51.6769 58.9135,51.6769 60.3105,50.0549 C60.9935,49.2629 61.9855,48.7909 63.0465,48.7909 L67.4445,48.7909 C68.4915,48.7909 69.4885,49.2509 70.1795,50.0539 C71.5805,51.6789 74.0965,51.6749 75.4935,50.0539 C76.1845,49.2509 77.1815,48.7909 78.2285,48.7909 L82.6895,48.7909 C84.6885,48.7909 86.3145,50.4169 86.3145,52.4149 L86.3145,70.7779 Z M84.1135,77.6809 C84.1135,77.7449 84.0515,77.8069 83.9865,77.8069 L16.0135,77.8069 C15.9485,77.8069 15.8865,77.7449 15.8865,77.6809 L15.8865,74.6649 L84.1135,74.6649 L84.1135,77.6809 Z M81.3765,95.2269 C81.3285,96.1499 80.6055,96.2929 80.2955,96.3109 C79.9845,96.3289 79.2445,96.2729 79.0915,95.3509 C79.0855,95.3169 79.0795,95.2839 79.0715,95.2509 L76.2185,81.4919 L81.7315,81.4919 L81.3765,95.2269 Z M20.9275,95.2509 C20.9205,95.2839 20.9145,95.3169 20.9085,95.3509 C20.7545,96.2729 20.0155,96.3289 19.7045,96.3109 C19.3945,96.2929 18.6715,96.1499 18.6235,95.2269 L18.2685,81.4919 L23.7805,81.4919 L20.9275,95.2509 Z M26.0995,7.1549 C26.3785,5.1759 28.0935,3.6849 30.0925,3.6849 L69.9065,3.6849 C71.9065,3.6849 73.6215,5.1759 73.9005,7.1549 L78.6055,45.1049 L78.2285,45.1049 C76.1755,45.1049 74.2225,45.9739 72.8365,47.4949 C71.4705,45.9959 69.5525,45.1349 67.5335,45.1099 C67.5245,45.1089 67.5165,45.1049 67.5075,45.1049 L63.0465,45.1049 C60.9945,45.1049 59.0415,45.9739 57.6545,47.4949 C56.2685,45.9739 54.3145,45.1049 52.2625,45.1049 L47.8005,45.1049 C45.7485,45.1049 43.7945,45.9739 42.4095,47.4949 C41.0235,45.9739 39.0695,45.1049 37.0175,45.1049 L32.5555,45.1049 C30.5025,45.1049 28.5485,45.9739 27.1635,47.4949 C25.7775,45.9739 23.8235,45.1049 21.7715,45.1049 L21.3945,45.1049 L26.0995,7.1549 Z M82.6905,45.1049 L82.3205,45.1049 L77.5555,6.6879 C77.5545,6.6799 77.5535,6.6709 77.5525,6.6629 C77.0275,2.8639 73.7415,-0.0001 69.9075,-0.0001 L30.0925,-0.0001 C26.2585,-0.0001 22.9715,2.8639 22.4475,6.6629 C22.4465,6.6709 22.4455,6.6799 22.4445,6.6879 L17.6795,45.1049 L17.3095,45.1049 C13.2795,45.1049 10.0005,48.3849 10.0005,52.4149 L10.0005,70.7779 C10.0005,72.3169 10.9015,73.6459 12.2015,74.2749 L12.2015,77.6809 C12.2015,79.2719 13.1835,80.6379 14.5735,81.2079 L14.9385,95.3489 C14.9395,95.3589 14.9395,95.3699 14.9405,95.3809 C15.0615,98.0679 17.1085,99.9999 19.8085,99.9999 C22.1995,99.9999 24.1125,98.4009 24.5345,96.0109 L27.5565,81.4919 L72.4435,81.4919 L75.4655,96.0109 C75.8875,98.4009 77.8005,99.9999 80.1915,99.9999 C82.8915,99.9999 84.9375,98.0679 85.0595,95.3809 C85.0605,95.3699 85.0605,95.3589 85.0605,95.3489 L85.4265,81.2079 C86.8165,80.6379 87.7985,79.2719 87.7985,77.6809 L87.7985,74.2749 C89.0985,73.6459 90.0005,72.3169 90.0005,70.7779 L90.0005,52.4149 C90.0005,48.3849 86.7205,45.1049 82.6905,45.1049 L82.6905,45.1049 Z" id="icon_chair_lr" fill="#3A4B60"></path>
    </g>
</svg>