<?xml version="1.0" encoding="UTF-8"?>
<svg width="100px" height="100px" viewBox="0 0 100 100" version="1.1" xmlns="http://www.w3.org/2000/svg">
    <title>icon / furniture / chair_dr</title>
    <g id="icon-/-furniture-/-chair_dr" stroke="none" stroke-width="1" fill="none" fill-rule="evenodd">
        <path d="M28.5601,55.3389 C28.5601,54.5209 29.2201,53.8549 30.0311,53.8549 L69.9691,53.8549 C70.7801,53.8549 71.4401,54.5209 71.4401,55.3389 L71.4401,63.4959 L28.5601,63.4959 L28.5601,55.3389 Z M34.7841,50.2299 L32.4941,6.2299 C32.4581,5.5449 32.6961,4.8949 33.1631,4.3969 C33.6301,3.8989 34.2621,3.6249 34.9411,3.6249 L65.0781,3.6249 C65.7541,3.6249 66.3821,3.8969 66.8461,4.3909 C67.3081,4.8819 67.5421,5.5259 67.5071,6.2029 C66.7841,20.0669 65.5561,43.6189 65.2191,50.2299 L34.7841,50.2299 Z M32.8521,67.1209 L30.8811,96.3749 L30.5211,96.3749 L30.5211,67.1209 L32.8521,67.1209 Z M69.4791,67.1209 L69.4791,96.3749 L69.1191,96.3749 L67.1481,67.1209 L69.4791,67.1209 Z M69.6081,50.2299 L68.7841,50.2299 C69.0801,44.4599 70.3351,20.3609 70.9811,7.9619 L71.0431,6.7709 C71.1361,4.9899 70.5181,3.2989 69.3041,2.0059 C68.0891,0.7129 66.4461,-0.0001 64.6801,-0.0001 L35.3201,-0.0001 C33.5551,-0.0001 31.9131,0.7129 30.6971,2.0059 C29.4811,3.2999 28.8641,4.9929 28.9561,6.7749 L31.2191,50.2299 L30.3921,50.2299 C27.4191,50.2299 25.0001,52.6729 25.0001,55.6749 L25.0001,64.6459 C25.0001,65.8409 25.8431,66.8419 26.9611,67.0709 L26.9611,97.3959 C26.9611,98.8309 28.1061,99.9999 29.5141,99.9999 L31.7681,99.9999 C33.1221,99.9999 34.2661,98.9139 34.3731,97.5229 L36.4201,67.1209 L63.5801,67.1209 L65.6271,97.5269 C65.7241,98.9129 66.8681,99.9999 68.2321,99.9999 L70.4831,99.9999 C71.8921,99.9999 73.0391,98.8309 73.0391,97.3959 L73.0391,67.0709 C74.1571,66.8419 75.0001,65.8409 75.0001,64.6459 L75.0001,55.6749 C75.0001,52.6729 72.5811,50.2299 69.6081,50.2299 L69.6081,50.2299 Z"
              id="Fill-1" fill="#3A4B60"></path>
    </g>
</svg>