<?xml version="1.0" encoding="UTF-8"?>
<svg width="100px" height="100px" viewBox="0 0 100 100" version="1.1" xmlns="http://www.w3.org/2000/svg">
    <title>icon / furniture / chair_folding</title>
    <g id="icon-/-furniture-/-chair_folding" stroke="none" stroke-width="1" fill="none" fill-rule="evenodd">
        <path d="M86.8686,46.7637 L82.0186,55.7337 C81.6976,56.3287 81.1376,56.7677 80.4806,56.9357 L69.2446,59.8227 C69.0756,59.8347 68.9086,59.8757 68.7526,59.9477 L83.0596,45.4077 C83.4856,44.9747 83.9766,44.6177 84.5176,44.3437 C84.8146,44.1947 85.0886,44.1377 85.3336,44.1377 C85.9786,44.1377 86.4286,44.5337 86.5816,44.6917 C86.7946,44.9097 87.4416,45.7037 86.8686,46.7637 L86.8686,46.7637 Z M69.6006,93.5937 C69.5956,93.6207 69.5906,93.6487 69.5866,93.6757 C69.3476,95.2327 68.3056,96.4417 66.8026,96.9097 C65.2996,97.3787 63.7556,96.9747 62.6746,95.8297 L51.3156,83.8057 L70.0976,62.5987 L76.3346,60.9967 L69.6006,93.5937 Z M49.3196,81.6927 L33.0156,63.3987 L35.5846,64.0587 C35.7046,64.0897 35.8256,64.1047 35.9456,64.1047 C35.9526,64.1047 35.9596,64.1037 35.9666,64.1037 L45.7156,67.3337 C47.1616,67.8137 48.6816,68.0537 50.2026,68.0537 C51.7226,68.0537 53.2436,67.8137 54.6896,67.3337 L64.5256,64.0747 C64.6096,64.0457 64.6896,64.0097 64.7656,63.9687 L64.8866,63.9377 L49.3196,81.6927 Z M36.1576,95.8297 C35.0756,96.9747 33.5326,97.3787 32.0286,96.9097 C30.5246,96.4417 29.4846,95.2327 29.2446,93.6757 C29.2406,93.6487 29.2356,93.6207 29.2296,93.5937 L22.4296,60.6787 L27.7456,62.0447 L47.3386,83.8207 L36.1576,95.8297 Z M17.9806,55.7337 L13.1316,46.7637 C12.5586,45.7037 13.2066,44.9097 13.4186,44.6917 C13.5726,44.5337 14.0216,44.1377 14.6666,44.1377 C14.9116,44.1377 15.1856,44.1947 15.4816,44.3437 C16.0236,44.6177 16.5136,44.9747 16.9396,45.4077 L31.2496,59.9497 L19.5186,56.9357 C18.8636,56.7677 18.3036,56.3287 17.9806,55.7337 L17.9806,55.7337 Z M48.5716,54.3957 L48.5716,65.0347 C47.9126,64.9407 47.2616,64.7897 46.6276,64.5797 L36.6086,61.2597 L23.6496,48.0887 L23.3726,46.0627 L48.5716,54.3957 Z M17.9356,18.5317 L17.9356,18.5277 L17.6986,17.5477 C16.7306,13.5467 16.5946,9.4607 17.2936,5.4047 C17.4646,4.4117 18.0866,3.6017 19.0006,3.1787 C19.9146,2.7567 20.9346,2.8087 21.8016,3.3227 L28.3086,7.1767 C33.1096,10.0207 38.3056,12.0787 43.7556,13.2967 L43.8066,13.3087 C45.3706,13.6507 46.9676,13.8577 48.5716,13.9317 L48.5716,51.3397 L22.9336,42.8627 L21.9816,35.9017 C21.8446,34.8977 21.6536,33.8897 21.4156,32.9067 L17.9356,18.5317 Z M51.4726,54.4627 L76.4296,46.2107 L76.1426,48.3007 L63.1956,61.4587 L53.7776,64.5797 C53.0286,64.8277 52.2556,64.9947 51.4726,65.0807 L51.4726,54.4627 Z M51.4726,13.9207 C53.0606,13.8347 54.6396,13.6177 56.1836,13.2707 C61.5886,12.0497 66.7456,9.9997 71.5126,7.1767 L78.0196,3.3227 C78.8866,2.8097 79.9066,2.7567 80.8206,3.1787 C81.7346,3.6017 82.3566,4.4117 82.5276,5.4037 C83.1326,8.9067 83.1096,12.5057 82.4546,15.9997 C81.0426,23.5287 78.5326,30.8347 77.4866,38.4747 C77.2796,39.9867 77.0736,41.4977 76.8666,43.0097 L51.4726,51.4077 L51.4726,13.9207 Z M88.6626,42.6687 C87.2126,41.1757 85.0726,40.8157 83.2136,41.7527 C82.3886,42.1687 81.6406,42.7137 80.9926,43.3717 L79.5436,44.8447 L80.7136,36.2947 C80.8376,35.3877 81.0106,34.4777 81.2246,33.5887 L83.1926,25.5427 C83.2096,25.4757 83.2146,25.4097 83.2216,25.3417 L84.9416,18.2317 C86.0046,13.8417 86.1536,9.3607 85.3876,4.9107 C85.0566,2.9927 83.8046,1.3617 82.0376,0.5447 C80.2706,-0.2703 78.2166,-0.1663 76.5416,0.8257 L70.0336,4.6797 C65.5276,7.3487 60.6536,9.2867 55.5456,10.4397 C51.9156,11.2597 48.0706,11.2717 44.4296,10.4737 L44.3836,10.4637 C39.2356,9.3147 34.3246,7.3677 29.7876,4.6807 L23.2796,0.8257 C21.6046,-0.1653 19.5516,-0.2703 17.7836,0.5447 C16.0166,1.3617 14.7646,2.9927 14.4346,4.9107 C13.1936,12.1077 15.0636,18.9947 16.7446,25.9387 C17.3616,28.4887 17.9786,31.0387 18.5966,33.5887 C18.8106,34.4777 18.9826,35.3877 19.1066,36.2947 L20.2486,44.6337 L19.0086,43.3727 C18.3596,42.7137 17.6116,42.1687 16.7876,41.7527 C14.9276,40.8167 12.7886,41.1757 11.3376,42.6697 C9.8866,44.1627 9.5886,46.3117 10.5786,48.1437 L15.4296,57.1147 C16.1346,58.4177 17.3616,59.3767 18.7976,59.7457 L19.3056,59.8767 C19.3096,59.9377 19.3176,59.9977 19.3306,60.0597 L26.3846,94.1607 C26.8036,96.7787 28.6316,98.8907 31.1656,99.6807 C31.8536,99.8947 32.5556,99.9987 33.2476,99.9987 C35.1186,99.9987 36.9306,99.2367 38.2726,97.8157 L49.3346,85.9347 L60.5646,97.8227 C61.9016,99.2387 63.7116,99.9997 65.5826,99.9997 C66.2746,99.9997 66.9766,99.8957 67.6656,99.6807 C70.1996,98.8907 72.0276,96.7787 72.4466,94.1607 L79.4726,60.1917 L81.2026,59.7457 C82.6386,59.3777 83.8656,58.4177 84.5706,57.1147 L89.4206,48.1447 C90.4116,46.3117 90.1136,44.1627 88.6626,42.6687 L88.6626,42.6687 Z"
              id="icon_chair_folding" fill="#3A4B60"></path>
    </g>
</svg>