<?xml version="1.0" encoding="UTF-8"?>
<svg width="100px" height="100px" viewBox="0 0 100 100" version="1.1" xmlns="http://www.w3.org/2000/svg" xmlns:xlink="http://www.w3.org/1999/xlink">
    <title>icon / furniture / chainsaw</title>
    <g id="icon-/-furniture-/-chainsaw" stroke="none" stroke-width="1" fill="none" fill-rule="evenodd">
        <path d="M40.9811,61.5178 C41.3631,61.5178 41.7441,61.3728 42.0351,61.0818 C42.6161,60.5018 42.6161,59.5618 42.0351,58.9828 L35.5931,52.5578 C35.0111,51.9778 34.0691,51.9778 33.4881,52.5578 C32.9061,53.1378 32.9061,54.0788 33.4881,54.6588 L39.9281,61.0818 C40.2191,61.3728 40.6001,61.5178 40.9811,61.5178 L40.9811,61.5178 Z M28.4021,57.6298 C27.8211,58.2098 27.8211,59.1508 28.4021,59.7308 L34.8431,66.1548 C35.1341,66.4448 35.5151,66.5898 35.8961,66.5898 C36.2781,66.5898 36.6591,66.4448 36.9501,66.1548 C37.5311,65.5748 37.5311,64.6338 36.9501,64.0538 L30.5081,57.6298 C29.9271,57.0498 28.9841,57.0498 28.4021,57.6298 L28.4021,57.6298 Z M46.0671,56.4468 C46.4481,56.4468 46.8291,56.3008 47.1201,56.0108 C47.7021,55.4308 47.7021,54.4908 47.1201,53.9108 L40.6781,47.4868 C40.0971,46.9068 39.1541,46.9068 38.5731,47.4868 C37.9911,48.0668 37.9911,49.0068 38.5731,49.5868 L45.0131,56.0108 C45.3041,56.3008 45.6861,56.4468 46.0671,56.4468 L46.0671,56.4468 Z M68.0981,29.7168 C67.5171,30.2968 67.5171,31.2378 68.0981,31.8178 C68.3891,32.1078 68.7701,32.2528 69.1511,32.2528 C69.5331,32.2528 69.9141,32.1078 70.2051,31.8178 L87.5461,14.5208 C88.1281,13.9408 88.1281,12.9998 87.5461,12.4208 C86.9651,11.8408 86.0221,11.8408 85.4411,12.4208 L68.0981,29.7168 Z M59.8791,54.0388 L53.9021,48.0778 L66.0351,35.9758 C66.6171,35.3958 66.6171,34.4558 66.0351,33.8758 C65.4541,33.2958 64.5101,33.2958 63.9291,33.8758 L51.7961,45.9768 L45.8191,40.0148 L68.9561,16.9388 L80.1901,5.7338 C83.8861,2.0478 89.8991,2.0478 93.5941,5.7338 L94.2521,6.3888 C97.9471,10.0758 97.9471,16.0718 94.2521,19.7568 L59.8791,54.0388 Z M48.7741,70.3998 L45.8401,67.4738 C43.9311,65.5708 40.8261,65.5708 38.9171,67.4738 L33.7331,72.6438 C31.8251,74.5478 31.8251,77.6448 33.7331,79.5478 L36.6681,82.4748 L31.5221,87.6068 L7.6611,63.8088 C6.3421,62.4948 6.3411,60.3548 7.6591,59.0398 L28.0981,38.6558 C29.9781,36.7808 32.5211,35.9578 34.9831,36.1898 L29.4191,41.7388 C28.8371,42.3188 28.8371,43.2588 29.4191,43.8388 C29.7101,44.1288 30.0911,44.2748 30.4721,44.2748 C30.8531,44.2748 31.2351,44.1288 31.5251,43.8388 L38.2211,37.1608 C38.9501,37.5478 39.6321,38.0458 40.2461,38.6578 L60.4231,58.7818 L48.7741,70.3998 Z M38.7731,80.3738 L35.8391,77.4488 C35.0911,76.7038 35.0911,75.4898 35.8391,74.7448 L41.0231,69.5748 C41.3961,69.2018 41.8871,69.0158 42.3781,69.0158 C42.8691,69.0158 43.3601,69.2018 43.7341,69.5748 L46.6681,72.5008 L38.7731,80.3738 Z M15.8811,76.2078 L23.8541,84.1608 L19.8091,88.1958 L11.8351,80.2438 L15.8811,76.2078 Z M23.2681,95.8388 C22.4981,96.6068 21.4741,97.0298 20.3851,97.0298 L20.3841,97.0298 C19.2951,97.0298 18.2721,96.6068 17.5021,95.8388 L4.1721,82.5438 C3.4021,81.7758 2.9781,80.7538 2.9781,79.6678 C2.9781,78.5818 3.4021,77.5618 4.1721,76.7928 L10.3201,70.6628 L13.7751,74.1088 L8.6771,79.1938 C8.0951,79.7738 8.0951,80.7138 8.6771,81.2938 L18.7551,91.3458 C19.3371,91.9258 20.2801,91.9258 20.8621,91.3458 L25.9601,86.2608 L29.4161,89.7068 L23.2681,95.8388 Z M96.3571,4.2888 L95.7001,3.6328 C90.8431,-1.2112 82.9411,-1.2112 78.0841,3.6328 L43.7121,37.9138 L42.3511,36.5568 C41.6881,35.8958 40.9621,35.3328 40.1951,34.8668 C41.3901,32.9498 41.7891,30.6328 41.2521,28.3688 C40.5601,25.4468 38.4431,23.1348 35.5861,22.1848 L21.6211,17.5418 C20.8401,17.2828 19.9981,17.7038 19.7371,18.4818 C19.4771,19.2598 19.8991,20.1008 20.6791,20.3608 L34.6441,25.0028 C36.5141,25.6248 37.9011,27.1378 38.3541,29.0508 C38.7371,30.6708 38.3911,32.3308 37.4301,33.6468 C33.5021,32.5028 29.0841,33.4718 25.9921,36.5548 L5.5531,56.9408 C3.0741,59.4128 3.0751,63.4368 5.5541,65.9098 L8.2141,68.5618 L2.0661,74.6928 C0.7341,76.0218 0.0001,77.7888 0.0001,79.6668 C0.0001,81.5478 0.7331,83.3148 2.0661,84.6438 L15.3961,97.9388 C16.7291,99.2678 18.5011,99.9998 20.3851,99.9998 L20.3861,99.9998 C22.2701,99.9988 24.0421,99.2678 25.3751,97.9388 L63.5821,59.8318 C64.1641,59.2518 64.1641,58.3118 63.5821,57.7318 L61.9861,56.1398 L96.3571,21.8588 C101.2141,17.0148 101.2141,9.1328 96.3571,4.2888 L96.3571,4.2888 Z" id="icon_" fill="#3A4B60"></path>
    </g>
</svg>