<?xml version="1.0" encoding="UTF-8"?>
<svg width="100px" height="100px" viewBox="0 0 100 100" version="1.1" xmlns="http://www.w3.org/2000/svg" xmlns:xlink="http://www.w3.org/1999/xlink">
    <title>icon / furniture / chair-floor-mat</title>
    <g id="icon-/-furniture-/-chair-floor-mat" stroke="none" stroke-width="1" fill="none" fill-rule="evenodd">
        <path d="M93.7551,91.094 L12.4991,91.094 C7.8381,91.094 4.0451,87.301 4.0451,82.639 L4.0451,82.365 C5.2891,78.301 9.0061,75.523 13.3221,75.523 C17.8141,75.523 21.6551,78.531 22.7381,82.865 L22.7381,84.453 C22.7381,85.532 23.6131,86.407 24.6921,86.407 L89.4531,86.407 C90.5311,86.407 91.4061,85.532 91.4061,84.453 L91.4061,28.799 C91.4061,27.72 90.5311,26.846 89.4531,26.846 L26.6451,26.846 L26.6451,22.158 L93.7551,22.158 C95.0441,22.158 96.0931,23.207 96.0931,24.496 L96.0931,88.755 L96.0941,88.755 C96.0941,90.045 95.0441,91.094 93.7551,91.094 L93.7551,91.094 Z M3.9051,75.402 L3.9051,18.332 L3.9061,18.332 C3.9061,13.135 8.1301,8.906 13.3221,8.906 C18.5151,8.906 22.7381,13.135 22.7381,18.332 L22.7381,75.402 C22.4611,75.135 22.1721,74.879 21.8711,74.637 C19.4611,72.689 16.4251,71.616 13.3221,71.616 C10.2191,71.616 7.1831,72.689 4.7741,74.637 C4.4731,74.879 4.1841,75.135 3.9051,75.402 L3.9051,75.402 Z M26.6451,82.5 L87.5001,82.5 L87.5001,30.752 L26.6451,30.752 L26.6451,82.5 Z M93.7551,18.251 L26.6451,18.251 C26.6011,10.937 20.6421,5 13.3221,5 C5.9771,5 0.0001,10.981 0.0001,18.332 L0.0001,82.636 C0.0001,82.913 0.0581,83.178 0.1631,83.418 C0.5671,89.872 5.9451,95 12.4991,95 L93.7551,95 C97.1981,95 100.0001,92.198 100.0001,88.755 L100.0001,24.496 C100.0001,21.053 97.1981,18.251 93.7551,18.251 L93.7551,18.251 Z" id="icon_chair-floor-mat" fill="#3A4B60"></path>
    </g>
</svg>