<?xml version="1.0" encoding="UTF-8"?>
<svg width="100px" height="100px" viewBox="0 0 100 100" version="1.1" xmlns="http://www.w3.org/2000/svg">
    <title>icon / furniture / changing-table</title>
    <g id="icon-/-furniture-/-changing-table" stroke="none" stroke-width="1" fill="none" fill-rule="evenodd">
        <path d="M69.2148,62.8673 L78.0738,62.8673 C78.8838,62.8673 79.5388,62.2113 79.5388,61.4023 C79.5388,60.5933 78.8838,59.9373 78.0738,59.9373 L69.2148,59.9373 C68.4058,59.9373 67.7498,60.5933 67.7498,61.4023 C67.7498,62.2113 68.4058,62.8673 69.2148,62.8673 L69.2148,62.8673 Z M30.7428,76.7373 L24.8838,76.7373 C24.0748,76.7373 23.4188,77.3923 23.4188,78.2023 C23.4188,79.0113 24.0748,79.6673 24.8838,79.6673 L30.7428,79.6673 C31.5518,79.6673 32.2078,79.0113 32.2078,78.2023 C32.2078,77.3923 31.5518,76.7373 30.7428,76.7373 L30.7428,76.7373 Z M69.3418,38.6383 L78.2008,38.6383 C79.0108,38.6383 79.6658,37.9813 79.6658,37.1733 C79.6658,36.3633 79.0108,35.7083 78.2008,35.7083 L69.3418,35.7083 C68.5328,35.7083 67.8768,36.3633 67.8768,37.1733 C67.8768,37.9813 68.5328,38.6383 69.3418,38.6383 L69.3418,38.6383 Z M97.0698,3.1543 C97.0698,3.0303 96.9698,2.9293 96.8448,2.9293 L91.2378,2.9293 C91.1138,2.9293 91.0148,3.0303 91.0148,3.1533 L91.0148,15.4363 C91.0148,16.1503 90.4368,16.7283 89.7228,16.7283 L10.2768,16.7283 C9.5638,16.7283 8.9858,16.1503 8.9858,15.4363 L8.9858,3.1543 C8.9858,3.0313 8.8848,2.9293 8.7608,2.9293 L3.1548,2.9293 C3.0298,2.9293 2.9298,3.0303 2.9298,3.1543 L2.9298,23.5643 L97.0698,23.5643 L97.0698,3.1543 Z M2.9288,29.4943 L97.0698,29.4943 L97.0698,26.4943 L2.9288,26.4943 L2.9288,29.4943 Z M51.5488,41.9223 L97.0698,41.9223 L97.0698,32.4243 L51.5488,32.4243 L51.5488,41.9223 Z M51.5488,54.4113 L97.0698,54.4113 L97.0698,44.8513 L51.5488,44.8513 L51.5488,54.4113 Z M51.5488,65.5283 L97.0698,65.5283 L97.0698,57.3413 L51.5488,57.3413 L51.5488,65.5283 Z M97.0698,68.4573 L2.9298,68.4573 L2.9298,87.7213 C2.9298,87.8463 3.0298,87.9463 3.1548,87.9463 L96.8458,87.9463 C96.9698,87.9463 97.0698,87.8463 97.0698,87.7213 L97.0698,68.4573 Z M92.2228,90.8763 L7.8468,90.8763 L7.8468,96.9723 L15.8378,96.9723 L15.8378,94.3143 C15.8378,93.4793 16.5168,92.8013 17.3518,92.8013 L82.7188,92.8013 C83.5538,92.8013 84.2328,93.4793 84.2328,94.3143 L84.2328,96.9723 L92.2228,96.9723 L92.2228,90.8763 Z M10.3048,65.5273 L14.1938,65.5273 L14.1938,52.7533 L10.3048,52.7533 L10.3048,65.5273 Z M26.0778,56.7953 L29.9738,56.7953 L29.9738,52.7913 L26.0778,52.7913 L26.0778,56.7953 Z M22.6398,59.4833 L22.6378,61.2063 C22.6357677,62.2793 22.6328,64.3193 22.6428,65.5273 L33.3348,65.5273 L33.3348,59.4833 L22.6398,59.4833 Z M2.9298,65.5273 L7.6008,65.5273 C7.6028,62.8343 7.6088,54.8433 7.6108,51.3543 C7.6118,50.6413 8.1908,50.0703 8.9028,50.0703 L10.9628,50.0703 L10.9578,44.8633 C10.9578,44.1493 11.5358,43.5703 12.2498,43.5703 L15.5288,43.5703 C16.2318,43.5703 16.7998,44.1393 16.7998,44.8413 C16.7998,45.5433 16.2318,46.1123 15.5288,46.1123 L13.5868,46.1123 L13.5868,50.0703 L15.5868,50.0703 C16.2998,50.0703 16.8778,50.6483 16.8778,51.3613 L16.8778,65.5273 L20.0618,65.5273 L20.0638,58.0863 C20.0638,57.3733 20.6418,56.7953 21.3558,56.7953 L23.3778,56.7953 L23.3798,51.4423 C23.3798,50.7293 23.9578,50.1513 24.6708,50.1513 L31.3448,50.1513 C32.0558,50.1513 32.6338,50.7263 32.6358,51.4383 L32.6558,56.7953 L34.6788,56.7953 C35.3928,56.7953 35.9708,57.3733 35.9708,58.0863 L35.9718,65.5273 L48.6188,65.5273 L48.6188,32.4243 L2.9298,32.4243 L2.9298,65.5273 Z M11.9148,13.7993 L88.0848,13.7993 L88.0848,8.7293 L11.9148,8.7293 L11.9148,13.7993 Z M99.9998,3.1543 L99.9998,87.7213 C99.9998,89.4623 98.5848,90.8763 96.8458,90.8763 L95.2498,90.8763 L95.2498,97.5383 C95.2498,98.8953 94.1588,100.0003 92.8188,100.0003 L83.6378,100.0003 C82.2968,100.0003 81.2058,98.8953 81.2058,97.5383 L81.2058,95.8283 L18.8648,95.8283 L18.8648,97.5383 C18.8648,98.8953 17.7748,100.0003 16.4338,100.0003 L7.2518,100.0003 C5.9118,100.0003 4.8208,98.8953 4.8208,97.5383 L4.8208,90.8763 L3.1548,90.8763 C1.4148,90.8763 -0.0002,89.4623 -0.0002,87.7213 L-0.0002,3.1543 C-0.0002,1.4153 1.4148,0.0003 3.1548,0.0003 L8.7618,0.0003 C10.5008,0.0003 11.9148,1.4153 11.9148,3.1543 L11.9148,5.7993 L88.0848,5.7993 L88.0848,3.1543 C88.0848,1.4153 89.4998,0.0003 91.2388,0.0003 L96.8458,0.0003 C98.5848,0.0003 99.9998,1.4153 99.9998,3.1543 L99.9998,3.1543 Z M54.8248,82.7923 L89.1608,82.7923 L89.1608,73.6123 L54.8248,73.6123 L54.8248,82.7923 Z M51.8958,83.1513 L51.8958,73.2523 C51.8958,71.8353 53.0478,70.6823 54.4658,70.6823 L89.5208,70.6823 C90.9378,70.6823 92.0908,71.8353 92.0908,73.2523 L92.0908,83.1513 C92.0908,84.5683 90.9378,85.7213 89.5208,85.7213 L54.4658,85.7213 C53.0478,85.7213 51.8958,84.5683 51.8958,83.1513 L51.8958,83.1513 Z M69.3418,51.3063 L78.2008,51.3063 C79.0108,51.3063 79.6658,50.6503 79.6658,49.8423 C79.6658,49.0323 79.0108,48.3773 78.2008,48.3773 L69.3418,48.3773 C68.5328,48.3773 67.8768,49.0323 67.8768,49.8423 C67.8768,50.6503 68.5328,51.3063 69.3418,51.3063 L69.3418,51.3063 Z M10.6458,82.7923 L44.9818,82.7923 L44.9818,73.6123 L10.6458,73.6123 L10.6458,82.7923 Z M7.7158,83.1513 L7.7158,73.2523 C7.7158,71.8353 8.8678,70.6823 10.2858,70.6823 L45.3408,70.6823 C46.7578,70.6823 47.9108,71.8353 47.9108,73.2523 L47.9108,83.1513 C47.9108,84.5683 46.7588,85.7213 45.3408,85.7213 L10.2858,85.7213 C8.8678,85.7213 7.7158,84.5683 7.7158,83.1513 L7.7158,83.1513 Z M76.3868,78.2023 C76.3868,79.0113 75.7318,79.6673 74.9218,79.6673 L69.0628,79.6673 C68.2538,79.6673 67.5978,79.0113 67.5978,78.2023 C67.5978,77.3923 68.2538,76.7373 69.0628,76.7373 L74.9218,76.7373 C75.7318,76.7373 76.3868,77.3923 76.3868,78.2023 L76.3868,78.2023 Z"
              id="icon_changing-table" fill="#3A4B60"></path>
    </g>
</svg>