<?xml version="1.0" encoding="UTF-8"?>
<svg width="100px" height="100px" viewBox="0 0 100 100" version="1.1" xmlns="http://www.w3.org/2000/svg">
    <title>icon / furniture / china-cabinet_glass</title>
    <g id="icon-/-furniture-/-china-cabinet_glass" stroke="none" stroke-width="1" fill="none" fill-rule="evenodd">
        <path d="M56.6067,84.7755 L56.6067,77.6975 C56.6067,76.9275 57.2307,76.3045 58.0007,76.3045 C58.7687,76.3045 59.3927,76.9275 59.3927,77.6975 L59.3927,84.7755 C59.3927,85.5455 58.7687,86.1685 58.0007,86.1685 C57.2307,86.1685 56.6067,85.5455 56.6067,84.7755 L56.6067,84.7755 Z M43.3927,77.6975 L43.3927,84.7755 C43.3927,85.5455 42.7687,86.1685 42.0007,86.1685 C41.2307,86.1685 40.6067,85.5455 40.6067,84.7755 L40.6067,77.6975 C40.6067,76.9275 41.2307,76.3045 42.0007,76.3045 C42.7687,76.3045 43.3927,76.9275 43.3927,77.6975 L43.3927,77.6975 Z M77.6437,97.4725 L77.6437,94.5645 C77.6437,93.8685 77.0777,93.3005 76.3797,93.3005 L23.6457,93.3005 C22.9487,93.3005 22.3807,93.8685 22.3807,94.5645 L22.3807,97.4725 L13.8637,97.4725 L13.8637,91.3395 L86.1337,91.3395 L86.1337,97.4725 L77.6437,97.4725 Z M14.0987,88.5795 L48.5267,88.5795 L48.5267,73.8935 L14.0987,73.8935 L14.0987,88.5795 Z M51.4727,88.5795 L85.9007,88.5795 L85.9007,73.8935 L51.4727,73.8935 L51.4727,88.5795 Z M14.0987,70.9475 L85.9007,70.9475 L85.9007,2.7605 L14.0987,2.7605 L14.0987,70.9475 Z M90.0007,1.3795 C90.0007,0.6315 89.4037,0.0245 88.6617,0.0025 L88.6617,0.0005 L11.3377,0.0005 L11.3377,0.0025 C10.5957,0.0245 10.0007,0.6315 10.0007,1.3795 C10.0007,2.1295 10.5957,2.7365 11.3377,2.7585 L11.3367,97.7885 C11.3367,99.0075 12.3157,100.0005 13.5187,100.0005 L22.7267,100.0005 C23.9297,100.0005 24.9087,99.0075 24.9087,97.7885 L24.9087,95.8285 L75.1177,95.8285 L75.1177,97.7885 C75.1177,99.0075 76.0957,100.0005 77.2987,100.0005 L86.4797,100.0005 C87.6827,100.0005 88.6617,99.0075 88.6617,97.7885 L88.6617,2.7585 C89.4037,2.7365 90.0007,2.1295 90.0007,1.3795 L90.0007,1.3795 Z M45.9277,25.2405 L38.5147,25.2405 C39.5727,23.9475 40.2087,22.2975 40.2087,20.5015 C40.2087,16.3655 36.8437,13.0015 32.7087,13.0015 C28.5727,13.0015 25.2087,16.3655 25.2087,20.5015 C25.2087,22.2975 25.8447,23.9475 26.9017,25.2405 L19.4897,25.2405 L19.4897,8.0015 L45.9277,8.0015 L45.9277,25.2405 Z M28.2087,20.5015 C28.2087,18.0195 30.2267,16.0015 32.7087,16.0015 C35.1897,16.0015 37.2087,18.0195 37.2087,20.5015 C37.2087,22.9825 35.1897,25.0015 32.7087,25.0015 C30.2267,25.0015 28.2087,22.9825 28.2087,20.5015 L28.2087,20.5015 Z M45.9277,45.2405 L38.5147,45.2405 C39.5727,43.9475 40.2087,42.2975 40.2087,40.5015 C40.2087,36.3655 36.8437,33.0015 32.7087,33.0015 C28.5727,33.0015 25.2087,36.3655 25.2087,40.5015 C25.2087,42.2975 25.8447,43.9475 26.9017,45.2405 L19.4897,45.2405 L19.4897,28.0015 L45.9277,28.0015 L45.9277,45.2405 Z M28.2087,40.5015 C28.2087,38.0195 30.2267,36.0015 32.7087,36.0015 C35.1897,36.0015 37.2087,38.0195 37.2087,40.5015 C37.2087,42.9825 35.1897,45.0015 32.7087,45.0015 C30.2267,45.0015 28.2087,42.9825 28.2087,40.5015 L28.2087,40.5015 Z M45.9277,65.2405 L38.5147,65.2405 C39.5727,63.9475 40.2087,62.2975 40.2087,60.5015 C40.2087,56.3655 36.8437,53.0015 32.7087,53.0015 C28.5727,53.0015 25.2087,56.3655 25.2087,60.5015 C25.2087,62.2975 25.8447,63.9475 26.9017,65.2405 L19.4897,65.2405 L19.4897,48.0015 L45.9277,48.0015 L45.9277,65.2405 Z M32.7087,65.0015 C30.2267,65.0015 28.2087,62.9825 28.2087,60.5015 C28.2087,58.0195 30.2267,56.0015 32.7087,56.0015 C35.1897,56.0015 37.2087,58.0195 37.2087,60.5015 C37.2087,62.9825 35.1897,65.0015 32.7087,65.0015 L32.7087,65.0015 Z M47.3077,5.2405 L18.1087,5.2405 C17.3457,5.2405 16.7277,5.8585 16.7277,6.6215 L16.7277,66.6215 C16.7277,67.3825 17.3457,68.0015 18.1087,68.0015 L47.3077,68.0015 C48.0707,68.0015 48.6887,67.3825 48.6887,66.6215 L48.6887,6.6215 C48.6887,5.8585 48.0707,5.2405 47.3077,5.2405 L47.3077,5.2405 Z M80.5107,25.2405 L73.0987,25.2405 C74.1557,23.9475 74.7927,22.2975 74.7927,20.5015 C74.7927,16.3655 71.4267,13.0015 67.2927,13.0015 C63.1557,13.0015 59.7927,16.3655 59.7927,20.5015 C59.7927,22.2975 60.4277,23.9475 61.4847,25.2405 L54.0727,25.2405 L54.0727,8.0015 L80.5107,8.0015 L80.5107,25.2405 Z M62.7927,20.5015 C62.7927,18.0195 64.8097,16.0015 67.2927,16.0015 C69.7727,16.0015 71.7927,18.0195 71.7927,20.5015 C71.7927,22.9825 69.7727,25.0015 67.2927,25.0015 C64.8097,25.0015 62.7927,22.9825 62.7927,20.5015 L62.7927,20.5015 Z M80.5107,45.2405 L73.0987,45.2405 C74.1557,43.9475 74.7927,42.2975 74.7927,40.5015 C74.7927,36.3655 71.4267,33.0015 67.2927,33.0015 C63.1557,33.0015 59.7927,36.3655 59.7927,40.5015 C59.7927,42.2975 60.4277,43.9475 61.4847,45.2405 L54.0727,45.2405 L54.0727,28.0015 L80.5107,28.0015 L80.5107,45.2405 Z M62.7927,40.5015 C62.7927,38.0195 64.8097,36.0015 67.2927,36.0015 C69.7727,36.0015 71.7927,38.0195 71.7927,40.5015 C71.7927,42.9825 69.7727,45.0015 67.2927,45.0015 C64.8097,45.0015 62.7927,42.9825 62.7927,40.5015 L62.7927,40.5015 Z M80.5107,65.2405 L73.0987,65.2405 C74.1557,63.9475 74.7927,62.2975 74.7927,60.5015 C74.7927,56.3655 71.4267,53.0015 67.2927,53.0015 C63.1557,53.0015 59.7927,56.3655 59.7927,60.5015 C59.7927,62.2975 60.4277,63.9475 61.4847,65.2405 L54.0727,65.2405 L54.0727,48.0015 L80.5107,48.0015 L80.5107,65.2405 Z M67.2927,65.0015 C64.8097,65.0015 62.7927,62.9825 62.7927,60.5015 C62.7927,58.0195 64.8097,56.0015 67.2927,56.0015 C69.7727,56.0015 71.7927,58.0195 71.7927,60.5015 C71.7927,62.9825 69.7727,65.0015 67.2927,65.0015 L67.2927,65.0015 Z M81.8917,5.2405 L52.6917,5.2405 C51.9287,5.2405 51.3117,5.8585 51.3117,6.6215 L51.3117,66.6215 C51.3117,67.3825 51.9287,68.0015 52.6917,68.0015 L81.8917,68.0015 C82.6537,68.0015 83.2717,67.3825 83.2717,66.6215 L83.2717,6.6215 C83.2717,5.8585 82.6537,5.2405 81.8917,5.2405 L81.8917,5.2405 Z"
              id="icon_china-cabinet_glass" fill="#3A4B60"></path>
    </g>
</svg>