<?xml version="1.0" encoding="UTF-8"?>
<svg width="100px" height="100px" viewBox="0 0 100 100" version="1.1" xmlns="http://www.w3.org/2000/svg" xmlns:xlink="http://www.w3.org/1999/xlink">
    <title>icon / furniture / christmas-tree_artificial</title>
    <g id="icon-/-furniture-/-christmas-tree_artificial" stroke="none" stroke-width="1" fill="none" fill-rule="evenodd">
        <path d="M73.6678,72.5873 C72.9768,72.8883 72.2308,73.1943 71.4528,73.4973 L71.2818,73.5633 L71.1668,73.4203 C70.3128,72.3633 69.0458,71.7583 67.6928,71.7583 C65.3998,71.7583 63.4458,73.5473 63.2448,75.8303 L63.2298,76.0143 L63.0498,76.0553 C58.7798,77.0143 54.3908,77.4943 49.9998,77.4943 C45.6078,77.4943 41.2188,77.0143 36.9488,76.0553 L36.7698,76.0143 L36.7538,75.8303 C36.5538,73.5473 34.5998,71.7583 32.3058,71.7583 C30.9548,71.7583 29.6888,72.3633 28.8338,73.4203 L28.7178,73.5633 L28.5468,73.4973 C27.7718,73.1963 27.0248,72.8893 26.3308,72.5873 L22.5738,70.9553 L29.0598,61.8773 L29.2438,61.9523 C30.3348,62.4023 31.4598,62.8233 32.5888,63.2033 L32.7528,63.2593 L32.7598,63.4323 C32.8558,65.8343 34.8158,67.7163 37.2208,67.7163 C38.8008,67.7163 40.2798,66.8623 41.0818,65.4903 L41.1678,65.3413 L41.3388,65.3683 C47.0738,66.2943 52.9258,66.2933 58.6608,65.3683 L58.8318,65.3413 L58.9178,65.4903 C59.7188,66.8633 61.1968,67.7163 62.7778,67.7163 C65.1838,67.7163 67.1448,65.8343 67.2398,63.4323 L67.2468,63.2593 L67.4108,63.2033 C68.5348,62.8253 69.6598,62.4043 70.7558,61.9523 L70.9398,61.8773 L77.4258,70.9553 L73.6678,72.5873 Z M67.6928,78.2453 C66.5788,78.2453 65.6728,77.3393 65.6728,76.2253 C65.6728,75.1093 66.5788,74.2033 67.6928,74.2033 C68.8088,74.2033 69.7148,75.1093 69.7148,76.2253 C69.7148,77.3393 68.8088,78.2453 67.6928,78.2453 L67.6928,78.2453 Z M45.8158,83.9473 L45.8158,79.8063 L46.0828,79.8213 C48.7108,79.9863 51.2918,79.9863 53.9158,79.8213 L54.1838,79.8063 L54.1838,83.9473 L45.8158,83.9473 Z M67.3978,86.3933 C67.8088,86.3933 68.1418,86.7263 68.1418,87.1363 L68.1418,88.8623 L31.8568,88.8623 L31.8568,87.1363 C31.8568,86.7263 32.1898,86.3933 32.6008,86.3933 L67.3978,86.3933 Z M71.3898,91.3083 C71.9168,91.3083 72.4068,91.5443 72.7358,91.9543 C73.0648,92.3653 73.1888,92.8963 73.0748,93.4083 L72.4198,96.2023 C72.2418,96.9973 71.5498,97.5543 70.7348,97.5543 L29.2648,97.5533 C28.4498,97.5533 27.7558,96.9973 27.5788,96.2023 L26.9248,93.4083 C26.8108,92.8953 26.9348,92.3633 27.2628,91.9543 C27.5918,91.5443 28.0838,91.3083 28.6098,91.3083 L71.3898,91.3083 Z M32.3058,78.2453 C31.1898,78.2453 30.2838,77.3393 30.2838,76.2253 C30.2838,75.1093 31.1898,74.2033 32.3058,74.2033 C33.4198,74.2033 34.3258,75.1093 34.3258,76.2253 C34.3258,77.3393 33.4198,78.2453 32.3058,78.2453 L32.3058,78.2453 Z M39.2408,63.2493 C39.2408,64.3633 38.3348,65.2703 37.2208,65.2703 C36.1048,65.2703 35.1988,64.3633 35.1988,63.2493 C35.1988,62.1343 36.1048,61.2283 37.2208,61.2283 C38.3348,61.2283 39.2408,62.1343 39.2408,63.2493 L39.2408,63.2493 Z M64.7998,63.2493 C64.7998,64.3633 63.8938,65.2703 62.7778,65.2703 C61.6638,65.2703 60.7578,64.3633 60.7578,63.2493 C60.7578,62.1343 61.6638,61.2283 62.7778,61.2283 C63.8938,61.2283 64.7998,62.1343 64.7998,63.2493 L64.7998,63.2493 Z M26.1108,57.9413 L32.9078,48.4233 L33.0898,48.4933 C34.4798,49.0223 35.8998,49.4893 37.3088,49.8793 L37.4778,49.9253 L37.4928,50.0993 C37.7028,52.3713 39.6558,54.1503 41.9388,54.1503 C43.6508,54.1503 45.2348,53.1493 45.9748,51.5983 L46.0488,51.4413 L46.2208,51.4553 C48.7558,51.6553 51.2568,51.6563 53.7778,51.4543 L53.9498,51.4413 L54.0248,51.5973 C54.7648,53.1483 56.3478,54.1503 58.0608,54.1503 C60.3438,54.1503 62.2968,52.3713 62.5068,50.0993 L62.5228,49.9253 L62.6908,49.8793 C64.0968,49.4903 65.5168,49.0233 66.9098,48.4943 L67.0918,48.4253 L73.8888,57.9413 L70.7528,59.3033 C69.4578,59.8643 68.1168,60.3833 66.7648,60.8423 L66.5838,60.9033 L66.4758,60.7453 C65.6388,59.5173 64.2568,58.7823 62.7778,58.7823 C60.4968,58.7823 58.5888,60.4903 58.3398,62.7573 L58.3178,62.9473 L58.1288,62.9783 C55.4328,63.4043 52.7158,63.6183 49.9998,63.6183 C47.2828,63.6183 44.5668,63.4043 41.8698,62.9783 L41.6808,62.9473 L41.6598,62.7573 C41.4098,60.4903 39.5018,58.7823 37.2208,58.7823 C35.7408,58.7823 34.3598,59.5173 33.5238,60.7453 L33.4158,60.9033 L33.2348,60.8423 C31.8998,60.3893 29.1648,59.2663 29.1378,59.2553 L29.0868,59.2333 L26.1108,57.9413 Z M43.9598,49.6843 C43.9598,50.7983 43.0538,51.7043 41.9388,51.7043 C40.8238,51.7043 39.9178,50.7983 39.9178,49.6843 C39.9178,48.5683 40.8238,47.6623 41.9388,47.6623 C43.0538,47.6623 43.9598,48.5683 43.9598,49.6843 L43.9598,49.6843 Z M60.0808,49.6843 C60.0808,50.7983 59.1748,51.7043 58.0608,51.7043 C56.9448,51.7043 56.0388,50.7983 56.0388,49.6843 C56.0388,48.5683 56.9448,47.6623 58.0608,47.6623 C59.1748,47.6623 60.0808,48.5683 60.0808,49.6843 L60.0808,49.6843 Z M29.4988,44.3243 L36.4848,34.5433 L36.6658,34.6113 C39.5048,35.6793 42.4748,36.4023 45.4908,36.7633 L45.6578,36.7823 L45.7038,36.9433 C46.2468,38.8563 48.0138,40.1913 49.9998,40.1913 C51.9848,40.1913 53.7518,38.8563 54.2958,36.9433 L54.3418,36.7823 L54.5088,36.7633 C57.5228,36.4023 60.4938,35.6793 63.3348,34.6113 L63.5158,34.5433 L70.5008,44.3243 L67.9608,45.4283 C66.0958,46.2383 64.1448,46.9303 62.1648,47.4853 L61.9808,47.5373 L61.8818,47.3743 C61.0628,46.0233 59.6338,45.2173 58.0608,45.2173 C55.9288,45.2173 54.0858,46.7343 53.6768,48.8253 L53.6408,49.0133 L53.4498,49.0273 C52.3068,49.1153 51.1548,49.1593 50.0048,49.1593 C48.8498,49.1593 47.6948,49.1153 46.5488,49.0263 L46.3578,49.0123 L46.3218,48.8243 C45.9128,46.7333 44.0698,45.2173 41.9388,45.2173 C40.3878,45.2173 38.9228,46.0443 38.1168,47.3763 L38.0178,47.5393 L37.8338,47.4873 C35.8588,46.9343 33.9098,46.2403 32.0398,45.4283 L29.4988,44.3243 Z M52.0208,35.7253 C52.0208,36.8403 51.1138,37.7463 49.9998,37.7463 C48.8848,37.7463 47.9788,36.8403 47.9788,35.7253 C47.9788,34.6103 48.8848,33.7043 49.9998,33.7043 C51.1138,33.7043 52.0208,34.6103 52.0208,35.7253 L52.0208,35.7253 Z M34.1208,30.8963 L45.5608,14.8793 L46.7118,14.8793 L48.0898,17.2663 C48.4868,17.9573 49.2018,18.3693 49.9998,18.3693 C50.7968,18.3693 51.5118,17.9563 51.9098,17.2663 L53.2878,14.8793 L54.4388,14.8793 L54.5148,14.9843 L65.8788,30.8963 L64.1478,31.6473 C61.0568,32.9903 57.7908,33.8863 54.4438,34.3083 L54.2478,34.3323 L54.1788,34.1483 C53.5218,32.4193 51.8428,31.2583 49.9998,31.2583 C48.1558,31.2583 46.4778,32.4193 45.8218,34.1483 L45.7518,34.3323 L45.5558,34.3083 C42.2088,33.8863 38.9428,32.9903 35.8518,31.6473 L34.1208,30.8963 Z M45.6098,8.0823 L44.3698,5.9353 L46.8498,5.9353 C47.6358,5.9353 48.3678,5.5133 48.7598,4.8323 L49.9998,2.6863 L51.2398,4.8323 C51.6318,5.5133 52.3628,5.9353 53.1498,5.9353 L55.6278,5.9353 L54.3898,8.0823 C53.9948,8.7623 53.9948,9.6073 54.3898,10.2873 L55.6278,12.4343 L53.1498,12.4343 C52.3628,12.4343 51.6318,12.8573 51.2398,13.5363 L49.9998,15.6843 L48.7598,13.5363 C48.3678,12.8573 47.6358,12.4343 46.8498,12.4343 L44.3698,12.4343 L45.6098,10.2873 C46.0038,9.6073 46.0038,8.7623 45.6098,8.0823 L45.6098,8.0823 Z M79.9188,71.6463 C80.0978,71.0023 79.9778,70.3193 79.5878,69.7753 L73.2398,60.8883 L75.1348,60.0653 C75.7478,59.7993 76.2018,59.2753 76.3818,58.6313 C76.5608,57.9873 76.4388,57.3053 76.0508,56.7603 L69.4108,47.4643 L71.7468,46.4483 C72.3608,46.1833 72.8148,45.6603 72.9938,45.0153 C73.1728,44.3713 73.0518,43.6903 72.6638,43.1443 L65.8338,33.5823 L67.1238,33.0193 C67.7388,32.7523 68.1928,32.2303 68.3708,31.5853 C68.5508,30.9413 68.4298,30.2593 68.0418,29.7143 L57.2168,14.5603 L57.4038,14.4113 C57.6288,14.2353 57.8138,14.0233 57.9538,13.7763 C58.3538,13.0863 58.3538,12.2623 57.9538,11.5703 L56.5758,9.1853 L57.9538,6.7983 C58.3538,6.1083 58.3538,5.2823 57.9538,4.5923 C57.5558,3.9013 56.8408,3.4893 56.0438,3.4893 L53.2878,3.4893 L51.9098,1.1033 C51.5118,0.4123 50.7968,0.0003 49.9998,0.0003 C49.2018,0.0003 48.4868,0.4113 48.0898,1.1033 L46.7118,3.4893 L43.9558,3.4893 C43.1578,3.4893 42.4428,3.9013 42.0458,4.5923 C41.6468,5.2823 41.6468,6.1083 42.0458,6.7983 L43.4238,9.1853 L42.0458,11.5703 C41.6468,12.2623 41.6468,13.0863 42.0458,13.7763 C42.1878,14.0233 42.3708,14.2363 42.5948,14.4113 L42.7818,14.5603 L31.9578,29.7153 C31.5698,30.2593 31.4488,30.9413 31.6278,31.5853 C31.8068,32.2313 32.2608,32.7533 32.8748,33.0193 L34.1658,33.5823 L27.3358,43.1443 C26.9468,43.6893 26.8258,44.3703 27.0048,45.0163 C27.1848,45.6603 27.6388,46.1823 28.2518,46.4483 L30.5878,47.4643 L23.9488,56.7603 C23.5598,57.3053 23.4388,57.9873 23.6188,58.6323 C23.7968,59.2753 24.2508,59.7993 24.8638,60.0653 L26.7588,60.8883 L20.4108,69.7753 C20.0218,70.3193 19.9018,71.0023 20.0818,71.6463 C20.2598,72.2913 20.7138,72.8153 21.3268,73.0803 L25.3548,74.8313 C26.1178,75.1623 26.9018,75.4833 27.6838,75.7843 L27.8548,75.8503 L27.8448,76.0343 C27.8408,76.0973 27.8388,76.1603 27.8388,76.2253 C27.8388,78.6883 29.8418,80.6913 32.3058,80.6913 C33.8708,80.6913 35.2968,79.8903 36.1178,78.5483 L36.2118,78.3953 L36.3878,78.4353 C38.6028,78.9343 40.8758,79.3163 43.1468,79.5663 L43.3698,79.5913 L43.3698,83.9473 L32.6008,83.9473 C30.8418,83.9473 29.4108,85.3773 29.4108,87.1363 L29.4108,88.8623 L28.6088,88.8623 C27.3378,88.8623 26.1508,89.4313 25.3548,90.4233 C24.5598,91.4163 24.2618,92.6963 24.5378,93.9393 L25.1918,96.7333 C25.6198,98.6553 27.2938,99.9993 29.2648,99.9993 L70.7348,100.0003 C72.7058,100.0003 74.3798,98.6563 74.8068,96.7333 L75.4618,93.9393 C75.7368,92.6963 75.4388,91.4153 74.6438,90.4233 C73.8488,89.4313 72.6618,88.8623 71.3898,88.8623 L70.5878,88.8623 L70.5878,87.1363 C70.5878,85.3773 69.1568,83.9473 67.3978,83.9473 L56.6288,83.9473 L56.6288,79.5913 L56.8538,79.5663 C59.1258,79.3153 61.3988,78.9343 63.6108,78.4353 L63.7858,78.3953 L63.8808,78.5483 C64.7028,79.8903 66.1288,80.6913 67.6928,80.6913 C70.1568,80.6913 72.1598,78.6883 72.1598,76.2253 C72.1598,76.1603 72.1578,76.0973 72.1538,76.0343 L72.1448,75.8513 L72.3148,75.7843 C73.1248,75.4713 73.9078,75.1503 74.6438,74.8303 L78.6718,73.0803 C79.2848,72.8143 79.7398,72.2913 79.9188,71.6463 L79.9188,71.6463 Z" id="icon_christmas-tree_artificial" fill="#3A4B60"></path>
    </g>
</svg>