<?xml version="1.0" encoding="UTF-8"?>
<svg width="100px" height="100px" viewBox="0 0 100 100" version="1.1" xmlns="http://www.w3.org/2000/svg" xmlns:xlink="http://www.w3.org/1999/xlink">
    <!-- Generator: Sketch 63.1 (92452) - https://sketch.com -->
    <title>icon / furniture / clothes-steamer</title>
    <desc>Created with Sketch.</desc>
    <g id="icon-/-furniture-/-clothes-steamer" stroke="none" stroke-width="1" fill="none" fill-rule="evenodd">
        <path d="M53.1348,55.1367 L74.7398,55.1367 L74.7398,54.1007 C74.7398,51.4077 73.4458,48.8487 71.2758,47.2527 L47.6268,29.8617 L47.1478,30.5687 C45.6618,32.7617 46.0368,35.7397 48.0198,37.4937 C52.2088,41.2007 55.2598,43.9307 57.0868,45.6057 L58.4888,46.8907 L56.8718,47.8937 C53.7498,49.8297 53.1968,53.3147 53.1348,55.1367 L53.1348,55.1367 Z M77.4168,95.5737 L74.8358,58.0207 L53.0868,58.0207 L50.5608,95.5757 C50.5338,95.9797 50.6718,96.3637 50.9468,96.6577 C51.2228,96.9527 51.5968,97.1157 51.9998,97.1157 L75.9778,97.1157 C76.3818,97.1157 76.7558,96.9527 77.0318,96.6577 C77.3078,96.3617 77.4438,95.9767 77.4168,95.5737 L77.4168,95.5737 Z M79.8598,86.6817 L80.1738,92.4437 L87.4838,88.1997 C89.1198,87.0767 90.1148,85.1627 90.1148,83.0977 L90.1148,66.1947 C90.1148,61.6877 86.4488,58.0207 81.9428,58.0207 L77.7278,58.0207 L78.1798,64.6077 L82.1018,64.6317 C84.4818,64.6317 86.4198,66.5727 86.4198,68.9577 L86.5488,79.9527 C86.5518,81.3847 85.8598,82.7197 84.6938,83.5307 L79.8598,86.6817 Z M78.3788,67.4917 L79.4778,83.4887 L83.0828,81.1387 C83.4378,80.8907 83.6648,80.4417 83.6638033,79.9747 L83.5348,68.9757 C83.5348,68.1677 82.8878,67.5167 82.0928,67.5167 L78.3788,67.4917 Z M92.9998,66.1947 L92.9998,83.0977 C92.9998,86.1157 91.5128,88.9347 89.0218,90.6377 L80.3018,95.7027 C80.2938,96.7837 79.8788,97.8357 79.1398,98.6257 C78.3248,99.4987 77.1728,99.9997 75.9778,99.9997 L51.9998,99.9997 C50.8068,99.9997 49.6548,99.4997 48.8398,98.6287 C48.0238,97.7567 47.6028,96.5737 47.6828,95.3827 L50.2928,56.5677 C50.2248,55.9877 49.7528,50.2687 53.8548,46.5657 C52.0088,44.8937 49.4058,42.5727 46.1078,39.6547 C43.0428,36.9427 42.4628,32.3397 44.7588,28.9507 L46.9208,25.7597 L72.9848,44.9297 C75.8898,47.0657 77.6248,50.4937 77.6248,54.1007 L77.6248,55.1367 L81.9428,55.1367 C88.0398,55.1367 92.9998,60.0967 92.9998,66.1947 L92.9998,66.1947 Z M67.3928,78.5777 L67.3928,68.4407 C67.3928,66.5397 65.8468,64.9937 63.9468,64.9937 C62.0468,64.9937 60.5008,66.5397 60.5008,68.4407 L60.5008,78.5777 C60.5008,80.4797 62.0468,82.0247 63.9468,82.0247 C65.8468,82.0247 67.3928,80.4797 67.3928,78.5777 L67.3928,78.5777 Z M70.2768,68.4407 L70.2768,78.5777 C70.2768,82.0697 67.4378,84.9087 63.9468,84.9087 C60.4558,84.9087 57.6158,82.0697 57.6158,78.5777 L57.6158,68.4407 C57.6158,64.9497 60.4558,62.1097 63.9468,62.1097 C67.4378,62.1097 70.2768,64.9497 70.2768,68.4407 L70.2768,68.4407 Z M20.5358,9.4487 C20.6468,10.0297 21.0658,10.4497 21.6018,10.5217 L21.7768,10.5437 C21.8408,10.5527 21.9048,10.5567 21.9688,10.5567 C22.3598,10.5567 22.7278,10.3967 23.0008,10.1037 C23.3168,9.7627 23.4488,9.2857 23.3538,8.8277 C22.9148,6.7297 21.1938,5.1327 19.0708,4.8517 C16.9468,4.5707 14.8708,5.6697 13.9038,7.5807 C13.6928,7.9977 13.6968,8.4927 13.9138,8.9047 C14.1308,9.3167 14.5198,9.5867 14.9818,9.6487 C15.6028,9.7257 16.2128,9.4277 16.4638,8.9117 C16.8728,8.0727 17.7678,7.5817 18.6928,7.7127 C19.6178,7.8347 20.3588,8.5327 20.5358,9.4487 L20.5358,9.4487 Z M42.3188,22.4307 C40.2238,22.0077 38.2748,21.1877 36.5258,19.9897 C36.9238,18.9217 37.0698,17.7867 36.9598,16.6157 C36.6908,13.7867 34.7678,11.3367 32.0598,10.3727 C31.6608,10.2317 31.2318,10.1257 30.7538,10.0507 L30.7568,10.0317 L30.5168,9.9987 C30.4438,9.9907 30.3728,9.9857 30.3008,9.9817 L30.1358,9.9687 C30.0588,9.9607 29.9818,9.9537 29.9058,9.9487 L29.9048,9.9487 C29.3598,9.9237 28.8088,9.9577 28.2648,10.0527 C28.3208,7.4807 27.3868,5.0327 25.6178,3.1347 C23.0918,0.4207 19.1448,-0.6793 15.4258,0.4247 C12.7978,1.2047 10.6158,3.1477 9.4808,5.6427 C8.0188,8.8577 8.3048,12.4777 10.2238,15.3337 C8.4878,16.5337 7.3418,18.3977 7.0658,20.4877 L7.0428,20.7317 L7.0448,20.7317 C7.0128,21.0237 6.9978,21.2947 6.99962353,21.5557 C7.0258,24.3487 8.6898,26.9457 11.2408,28.1737 C12.2638,28.6657 13.3578,28.8977 14.4428,28.9087 C14.2788,30.2507 14.4298,31.6457 14.8938,33.0577 C15.9318,36.2217 18.5228,38.7067 21.6558,39.5397 C22.5058,39.7677 23.3718,39.8787 24.2338,39.8787 C26.1728,39.8787 28.0828,39.3137 29.7158,38.2217 C32.0048,36.6897 33.5508,34.2487 33.9798,31.5027 L34.0058,31.4057 L34.0198,31.3997 C36.2948,30.4117 38.8078,29.9717 41.2838,30.1297 C42.0248,30.1617 42.6768,29.6267 42.7768,28.8817 C42.8288,28.4797 42.7158,28.0867 42.4578,27.7747 C42.2008,27.4627 41.8218,27.2717 41.4188,27.2467 C38.8708,27.0987 36.3528,27.4617 33.9378,28.3367 C33.5438,26.0987 32.3988,24.0617 30.6918,22.5747 C30.3898,22.3127 29.9848,22.1997 29.5818,22.2507 C29.1608,22.3107 28.7868,22.5487 28.5558,22.9067 C28.1658,23.5077 28.2798,24.2957 28.8278,24.7777 C30.4698,26.2237 31.3448,28.3957 31.1698,30.5857 C30.9868,32.7067 29.8428,34.6647 28.1108,35.8237 C26.4198,36.9547 24.3888,37.2837 22.3988,36.7537 C20.1978,36.1677 18.3728,34.4077 17.6348,32.1587 C17.1288,30.6187 17.1478,29.1407 17.6918,27.6407 C18.1028,26.5087 17.0268,25.4017 15.8838,25.7807 L15.8828,25.7807 C14.7178,26.1647 13.5778,26.0987 12.4938,25.5747 C10.9258,24.8207 9.9018,23.2337 9.8868,21.5327 C9.8848,21.3057 9.9018,21.0707 9.9358,20.8307 C9.9718,20.5707 10.0328,20.3137 10.1218,20.0427 C10.1418,19.9807 10.1678,19.9207 10.1928,19.8607 L10.2338,19.7627 C10.2958,19.6087 10.3638,19.4557 10.4438,19.3087 C10.5008,19.2007 10.5618,19.0997 10.6268,18.9987 C10.7008,18.8827 10.7838,18.7737 10.8678,18.6657 L10.9228,18.5967 C10.9898,18.5117 11.0558,18.4257 11.1348,18.3437 C11.1578,18.3177 11.1848,18.2947 11.2098,18.2727 L11.2828,18.2047 C11.7708,17.7387 12.3328,17.3917 12.9548,17.1727 L13.3168,17.0447 C13.6018,16.9717 13.8878,16.9247 14.1678,16.9057 C14.8288,16.8597 15.3738,16.3257 15.4658,15.6367 C15.5218,15.2127 15.3848,14.7907 15.0918,14.4797 C14.7898,14.1607 14.3618,13.9957 13.9238,14.0317 C13.6038,14.0557 13.2808,14.1017 12.9618,14.1677 C11.3808,12.1737 11.0118,9.5107 11.9818,7.1287 C12.8688,4.9497 14.8768,3.3367 17.2008,2.9737 C19.5618,2.6057 21.9238,3.4017 23.5078,5.1007 C24.9338,6.6327 25.5958,8.6987 25.3228,10.7697 C25.2988,10.9487 25.2608,11.1377 25.2158,11.3347 C23.9488,12.2397 23.0118,13.4837 22.5038,14.9377 C22.3588,15.3537 22.4068,15.8067 22.6378,16.1827 C22.8668,16.5547 23.2458,16.8007 23.6778,16.8577 C24.3518,16.9387 24.9948,16.5377 25.2378,15.8647 C25.5718,14.9347 26.1988,14.1467 27.0428,13.5907 C27.6308,13.2407 28.2778,12.9977 28.9518,12.8777 L29.1298,12.8467 C29.3988,12.8187 29.6878,12.8237 30.0178,12.8567 C30.0408,12.8597 30.0598,12.8577 30.1148,12.8587 C30.4478,12.9007 30.7768,12.9787 31.0928,13.0917 C32.7228,13.6707 33.9268,15.1977 34.0878,16.8907 C34.1848,17.8927 33.9728,18.8687 33.4748,19.7127 L32.8338,20.7927 L33.8178,21.5747 C36.1078,23.3957 38.8328,24.6667 41.6968,25.2507 C42.0938,25.3307 42.5088,25.2447 42.8378,25.0147 C43.1638,24.7867 43.3758,24.4457 43.4348,24.0487 C43.5488,23.2907 43.0578,22.5797 42.3188,22.4307 L42.3188,22.4307 Z M19.2948,31.0557 C19.1988,30.5987 19.3308,30.1207 19.6478,29.7807 C19.9638,29.4397 20.4148,29.2797 20.8718,29.3397 C21.5038,29.4227 22.0018,29.8637 22.1128,30.4347 C22.2898,31.3517 23.0298,32.0487 23.9548,32.1707 C24.8758,32.2947 25.7748,31.8117 26.1848,30.9717 C26.4388,30.4487 27.0318,30.1527 27.6668,30.2357 C28.1288,30.2967 28.5178,30.5687 28.7348,30.9797 C28.9518,31.3907 28.9558,31.8857 28.7448,32.3027 C27.8778,34.0157 26.1198,35.0747 24.2368,35.0747 C24.0188,35.0747 23.7988,35.0607 23.5778,35.0317 C21.4548,34.7517 19.7338,33.1547 19.2948,31.0557 L19.2948,31.0557 Z" id="icon_clothes-steamer" fill="#3A4B60"></path>
    </g>
</svg>