<?xml version="1.0" encoding="UTF-8"?>
<svg width="100px" height="100px" viewBox="0 0 100 100" version="1.1" xmlns="http://www.w3.org/2000/svg" xmlns:xlink="http://www.w3.org/1999/xlink">
    <title>icon / furniture / clothing-rack</title>
    <g id="icon-/-furniture-/-clothing-rack" stroke="none" stroke-width="1" fill="none" fill-rule="evenodd">
        <path d="M83.7638,97.1426 L83.3008,97.1426 C81.4378,97.1426 79.9218,95.6266 79.9218,93.7646 C79.9218,92.3226 80.8308,91.0936 82.1038,90.6086 L82.1038,92.6546 C82.1038,93.4436 82.7428,94.0836 83.5328,94.0836 C84.3218,94.0836 84.9608,93.4436 84.9608,92.6546 L84.9608,90.6086 C86.2348,91.0936 87.1428,92.3226 87.1428,93.7646 C87.1428,95.6266 85.6268,97.1426 83.7638,97.1426 L83.7638,97.1426 Z M14.0478,80.1326 L14.0478,75.5936 L32.2258,75.5936 L37.0348,75.5936 L85.9518,75.5936 L85.9518,80.1326 L14.0478,80.1326 Z M20.0778,93.9266 C20.0778,95.7006 18.6348,97.1426 16.8618,97.1426 L16.0738,97.1426 C14.2998,97.1426 12.8578,95.7006 12.8578,93.9266 C12.8578,92.5156 13.7728,91.3156 15.0388,90.8836 L15.0388,92.6546 C15.0388,93.4436 15.6788,94.0826 16.4678,94.0826 C17.2568,94.0826 17.8968,93.4436 17.8968,92.6546 L17.8968,90.8836 C19.1628,91.3156 20.0778,92.5156 20.0778,93.9266 L20.0778,93.9266 Z M17.8968,17.6486 L22.3678,17.6486 L22.3678,23.6166 L22.3678,25.4646 L22.3678,36.5586 L22.3678,49.5016 L22.3678,58.6346 C22.3678,61.5226 24.7178,63.8726 27.6068,63.8726 L37.3948,63.8726 C40.2838,63.8726 42.6328,61.5226 42.6328,58.6346 L42.6328,49.5016 L42.6328,36.5586 L42.6328,25.4646 L42.6328,23.6166 L42.6328,17.6486 L53.5188,17.6486 L53.5188,20.3646 C50.9508,20.6236 48.9378,22.8116 48.9378,25.4646 L48.9378,61.5196 C48.9378,62.8176 49.9898,63.8726 51.2828,63.8726 L58.6128,63.8726 C59.9058,63.8726 60.9568,62.8176 60.9568,61.5196 L60.9568,25.4646 C60.9568,22.8116 58.9448,20.6236 56.3758,20.3646 L56.3758,17.6486 L70.0098,17.6486 L70.0098,20.3646 C67.4418,20.6236 65.4298,22.8116 65.4298,25.4646 L65.4298,61.5196 C65.4298,62.8166 66.4818,63.8726 67.7748,63.8726 L75.1038,63.8726 C76.3968,63.8726 77.4488,62.8176 77.4488,61.5196 L77.4488,25.4646 C77.4488,22.8116 75.4368,20.6236 72.8678,20.3646 L72.8678,17.6486 L82.1038,17.6486 L82.1038,72.7366 L37.0348,72.7366 L32.2258,72.7366 L17.8968,72.7366 L17.8968,17.6486 Z M37.8298,35.1296 C37.9738,34.7076 38.0528,34.2556 38.0528,33.7856 C38.0528,31.4686 36.1668,29.5826 33.8508,29.5826 L31.1518,29.5826 C28.8338,29.5826 26.9498,31.4676 26.9498,33.7856 C26.9498,34.2556 27.0288,34.7076 27.1708,35.1296 L25.2258,35.1296 L25.2258,25.4646 L25.2258,25.0446 L39.7768,25.0446 L39.7768,25.4646 L39.7768,35.1296 L37.8298,35.1296 Z M29.8068,33.7856 C29.8068,33.0436 30.4098,32.4406 31.1518,32.4406 L33.8508,32.4406 C34.5918,32.4406 35.1958,33.0436 35.1958,33.7856 C35.1958,34.5266 34.5918,35.1306 33.8508,35.1306 L31.1518,35.1306 C30.4098,35.1306 29.8068,34.5266 29.8068,33.7856 L29.8068,33.7856 Z M37.8298,48.0736 C37.9738,47.6506 38.0528,47.1986 38.0528,46.7276 C38.0518,44.4116 36.1668,42.5256 33.8508,42.5256 L31.1518,42.5256 C28.8338,42.5256 26.9498,44.4116 26.9498,46.7276 C26.9498,47.1986 27.0288,47.6506 27.1708,48.0736 L25.2258,48.0736 L25.2258,37.9876 L31.1518,37.9876 L33.8508,37.9876 L39.7768,37.9876 L39.7768,48.0736 L37.8298,48.0736 Z M29.8068,46.7276 C29.8068,45.9866 30.4098,45.3826 31.1518,45.3826 L33.8508,45.3826 C34.5918,45.3826 35.1958,45.9866 35.1958,46.7276 C35.1958,47.4696 34.5918,48.0726 33.8508,48.0726 L31.1518,48.0726 C30.4098,48.0726 29.8068,47.4696 29.8068,46.7276 L29.8068,46.7276 Z M25.2258,22.1876 L39.7768,22.1876 L39.7768,17.6486 L25.2258,17.6486 L25.2258,22.1876 Z M25.2258,50.9306 L31.1518,50.9306 L33.8508,50.9306 L39.7768,50.9306 L39.7768,58.6346 C39.7768,59.9476 38.7078,61.0156 37.3948,61.0156 L27.6068,61.0156 C26.2928,61.0156 25.2258,59.9476 25.2258,58.6346 L25.2258,50.9306 Z M51.7948,61.0156 L58.0998,61.0156 L58.0998,30.5916 L51.7948,30.5916 L51.7948,61.0156 Z M58.0998,27.7346 L51.7948,27.7346 L51.7948,25.4646 C51.7948,24.2136 52.7978,23.1956 54.0318,23.1956 L55.8638,23.1956 C57.0968,23.1956 58.0998,24.2136 58.0998,25.4646 L58.0998,27.7346 Z M74.5908,27.7346 L68.2858,27.7346 L68.2858,25.4646 C68.2858,24.2136 69.2898,23.1956 70.5228,23.1956 L72.3548,23.1956 C73.5878,23.1956 74.5908,24.2136 74.5908,25.4646 L74.5908,27.7346 Z M74.5908,61.0156 L68.2868,61.0156 L68.2858,30.5916 L74.5908,30.5916 L74.5908,61.0156 Z M17.8968,8.8246 C17.8968,5.5346 20.5428,2.8566 23.7968,2.8566 L76.2028,2.8566 C79.4568,2.8566 82.1038,5.5346 82.1038,8.8246 L82.1038,14.7916 L72.8678,14.7916 L72.8678,14.3716 C72.8678,13.5816 72.2278,12.9426 71.4388,12.9426 C70.6498,12.9426 70.0098,13.5816 70.0098,14.3716 L70.0098,14.7916 L56.3758,14.7916 L56.3758,14.3716 C56.3758,13.5816 55.7368,12.9426 54.9478,12.9426 C54.1588,12.9426 53.5188,13.5816 53.5188,14.3716 L53.5188,14.7916 L42.6328,14.7916 L42.6328,14.3716 C42.6328,13.5816 41.9938,12.9426 41.2048,12.9426 C40.4158,12.9426 39.7768,13.5816 39.7768,14.3716 L39.7768,14.7916 L25.2258,14.7916 L25.2258,14.3716 C25.2258,13.5816 24.5858,12.9426 23.7968,12.9426 C23.0078,12.9426 22.3678,13.5816 22.3678,14.3716 L22.3678,14.7916 L17.8968,14.7916 L17.8968,8.8246 Z M84.9608,87.6446 L84.9608,82.9896 L86.4638,82.9896 C87.7568,82.9896 88.8088,81.9346 88.8088,80.6366 L88.8088,75.0896 C88.8088,73.7916 87.7568,72.7366 86.4638,72.7366 L84.9608,72.7366 L84.9608,8.8246 C84.9608,3.9586 81.0328,-0.0004 76.2028,-0.0004 L23.7968,-0.0004 C18.9678,-0.0004 15.0388,3.9586 15.0388,8.8246 L15.0388,72.7366 L13.5348,72.7366 C12.2428,72.7366 11.1908,73.7916 11.1908,75.0896 L11.1908,80.6366 C11.1908,81.9346 12.2428,82.9896 13.5348,82.9896 L15.0388,82.9896 L15.0388,87.9426 C12.1818,88.4356 9.9998,90.9306 9.9998,93.9266 C9.9998,97.2756 12.7248,99.9996 16.0738,99.9996 L16.8618,99.9996 C20.2108,99.9996 22.9358,97.2756 22.9358,93.9266 C22.9358,90.9306 20.7538,88.4356 17.8968,87.9426 L17.8968,82.9896 L82.1038,82.9896 L82.1038,87.6446 C79.2368,88.2046 77.0648,90.7346 77.0648,93.7646 C77.0648,97.2026 79.8628,99.9996 83.3008,99.9996 L83.7648,99.9996 C87.2018,99.9996 89.9998,97.2026 89.9998,93.7646 C89.9998,90.7346 87.8278,88.2046 84.9608,87.6446 L84.9608,87.6446 Z" id="icon_clothing-rack" fill="#3A4B60"></path>
    </g>
</svg>