<?xml version="1.0" encoding="UTF-8"?>
<svg width="100px" height="100px" viewBox="0 0 100 100" version="1.1" xmlns="http://www.w3.org/2000/svg">
    <title>icon / furniture / coat-rack</title>
    <g id="icon-/-furniture-/-coat-rack" stroke="none" stroke-width="1" fill="none" fill-rule="evenodd">
        <path d="M71.641,53.4211 C70.565,53.4211 69.689,52.5451 69.689,51.4681 C69.689,50.3911 70.565,49.5151 71.641,49.5151 C72.718,49.5151 73.594,50.3911 73.594,51.4681 C73.594,52.5451 72.718,53.4211 71.641,53.4211 L71.641,53.4211 Z M59.766,92.1881 C60.843,92.1881 61.719,93.0641 61.719,94.1411 L61.719,96.0941 L38.282,96.0941 L38.282,94.1411 C38.282,93.0641 39.159,92.1881 40.235,92.1881 L59.766,92.1881 Z M48.047,15.3771 C48.672,15.5391 49.327,15.6251 50,15.6251 C50.675,15.6251 51.329,15.5391 51.954,15.3781 L51.954,88.2811 L48.047,88.2811 L48.047,15.3771 Z M50,3.9061 C52.155,3.9061 53.907,5.6581 53.907,7.8131 C53.907,9.9661 52.155,11.7191 50,11.7191 C47.847,11.7191 46.094,9.9661 46.094,7.8131 C46.094,5.6581 47.847,3.9061 50,3.9061 L50,3.9061 Z M28.36,37.7951 C27.283,37.7951 26.407,36.9191 26.407,35.8421 C26.407,34.7661 27.283,33.8891 28.36,33.8891 C29.437,33.8891 30.313,34.7661 30.313,35.8421 C30.313,36.9191 29.437,37.7951 28.36,37.7951 L28.36,37.7951 Z M71.641,18.2641 C72.718,18.2641 73.594,19.1401 73.594,20.2171 C73.594,21.2941 72.718,22.1701 71.641,22.1701 C70.565,22.1701 69.689,21.2941 69.689,20.2171 C69.689,19.1401 70.565,18.2641 71.641,18.2641 L71.641,18.2641 Z M71.641,45.6091 C68.411,45.6091 65.783,48.2371 65.783,51.4681 C65.783,54.0141 67.415,56.1851 69.688,56.9911 L69.688,59.2801 C69.688,60.3581 68.812,61.2331 67.736,61.2331 L55.86,61.2331 L55.86,33.8891 L67.736,33.8891 C70.966,33.8891 73.594,31.2601 73.594,28.0291 L73.594,25.7401 C75.868,24.9341 77.5,22.7631 77.5,20.2171 C77.5,16.9851 74.872,14.3581 71.641,14.3581 C68.411,14.3581 65.783,16.9851 65.783,20.2171 C65.783,22.7631 67.415,24.9341 69.688,25.7401 L69.688,28.0291 C69.688,29.1071 68.812,29.9831 67.736,29.9831 L55.86,29.9831 L55.86,12.9721 C57.075,11.5941 57.813,9.7881 57.813,7.8131 C57.813,3.5051 54.308,0.0001 50,0.0001 C45.693,0.0001 42.188,3.5051 42.188,7.8131 C42.188,9.7881 42.927,11.5941 44.141,12.9721 L44.141,45.6081 L32.266,45.6081 C31.189,45.6081 30.313,44.7321 30.313,43.6541 L30.313,41.3651 C32.586,40.5601 34.219,38.3891 34.219,35.8421 C34.219,32.6111 31.591,29.9831 28.36,29.9831 C25.129,29.9831 22.5,32.6111 22.5,35.8421 C22.5,38.3881 24.133,40.5601 26.407,41.3651 L26.407,43.6541 C26.407,46.8861 29.036,49.5141 32.266,49.5141 L44.141,49.5141 L44.141,88.2811 L40.235,88.2811 C37.004,88.2811 34.375,90.9091 34.375,94.1411 L34.375,98.0471 C34.375,99.1251 35.25,100.0001 36.328,100.0001 L63.672,100.0001 C64.751,100.0001 65.625,99.1251 65.625,98.0471 L65.625,94.1411 C65.625,90.9091 62.997,88.2811 59.766,88.2811 L55.86,88.2811 L55.86,65.1401 L67.736,65.1401 C70.966,65.1401 73.594,62.5111 73.594,59.2801 L73.594,56.9911 C75.868,56.1851 77.5,54.0141 77.5,51.4681 C77.5,48.2371 74.872,45.6091 71.641,45.6091 L71.641,45.6091 Z"
              id="Fill-1" fill="#3A4B60"></path>
    </g>
</svg>