<?xml version="1.0" encoding="UTF-8"?>
<svg width="100px" height="100px" viewBox="0 0 100 100" version="1.1" xmlns="http://www.w3.org/2000/svg">
    <title>icon / furniture / coffee-maker</title>
    <g id="icon-/-furniture-/-coffee-maker" stroke="none" stroke-width="1" fill="none" fill-rule="evenodd">
        <path d="M94.0137,96.4117 L5.9867,96.4117 C4.6637,96.4117 3.5887,95.3367 3.5887,94.0147 C3.5887,92.6917 4.6637,91.6167 5.9867,91.6167 L94.0137,91.6167 C95.3357,91.6167 96.4107,92.6917 96.4107,94.0147 C96.4107,95.3367 95.3357,96.4117 94.0137,96.4117 L94.0137,96.4117 Z M7.7807,22.7537 L7.7807,5.9857 C7.7807,4.6637 8.8557,3.5887 10.1777,3.5887 L33.5347,3.5887 L33.5347,25.1507 L10.1777,25.1507 C8.8557,25.1507 7.7807,24.0757 7.7807,22.7537 L7.7807,22.7537 Z M43.7117,45.5077 L56.2877,45.5077 C61.8997,45.5077 66.4657,40.9407 66.4657,35.3287 L66.4657,28.7397 L88.0277,28.7397 L88.0277,88.0277 L11.9727,88.0277 L11.9727,28.7397 L33.5347,28.7397 L33.5347,35.3287 C33.5347,40.9407 38.1007,45.5077 43.7117,45.5077 L43.7117,45.5077 Z M37.1227,3.5887 L62.8767,3.5887 L62.8767,35.3287 C62.8767,38.9627 59.9207,41.9187 56.2877,41.9187 L43.7117,41.9187 C40.0787,41.9187 37.1227,38.9627 37.1227,35.3287 L37.1227,3.5887 Z M66.4657,3.5887 L89.8227,3.5887 C91.1447,3.5887 92.2197,4.6637 92.2197,5.9857 L92.2197,22.7537 C92.2197,24.0757 91.1447,25.1507 89.8227,25.1507 L66.4657,25.1507 L66.4657,3.5887 Z M94.0137,88.0277 L91.6177,88.0277 L91.6177,28.4437 L91.8177,28.3727 C94.2027,27.5167 95.8077,25.2607 95.8077,22.7537 L95.8077,5.9857 C95.8077,2.6847 93.1227,-0.0003 89.8227,-0.0003 L10.1777,-0.0003 C6.8767,-0.0003 4.1927,2.6847 4.1927,5.9857 L4.1927,22.7537 C4.1927,25.2607 5.7967,27.5167 8.1827,28.3727 L8.3827,28.4437 L8.3827,88.0277 L5.9867,88.0277 C2.6847,88.0277 -0.0003,90.7127 -0.0003,94.0147 C-0.0003,97.3147 2.6847,99.9997 5.9867,99.9997 L94.0137,99.9997 C97.3157,99.9997 99.9997,97.3147 99.9997,94.0147 C99.9997,90.7127 97.3157,88.0277 94.0137,88.0277 L94.0137,88.0277 Z M24.5477,10.1787 C24.5477,11.1677 23.7427,11.9727 22.7537,11.9727 L18.5617,11.9727 C17.5727,11.9727 16.7677,11.1677 16.7677,10.1787 C16.7677,9.1887 17.5727,8.3847 18.5617,8.3847 L22.7537,8.3847 C23.7427,8.3847 24.5477,9.1887 24.5477,10.1787 L24.5477,10.1787 Z M16.7677,18.5607 C16.7677,17.5717 17.5727,16.7667 18.5617,16.7667 L22.7537,16.7667 C23.7427,16.7667 24.5477,17.5717 24.5477,18.5607 C24.5477,19.5507 23.7427,20.3557 22.7537,20.3557 L18.5617,20.3557 C17.5727,20.3557 16.7677,19.5507 16.7677,18.5607 L16.7677,18.5607 Z M83.2327,10.1787 C83.2327,11.1677 82.4277,11.9727 81.4387,11.9727 L77.2457,11.9727 C76.2567,11.9727 75.4517,11.1677 75.4517,10.1787 C75.4517,9.1887 76.2567,8.3847 77.2457,8.3847 L81.4387,8.3847 C82.4277,8.3847 83.2327,9.1887 83.2327,10.1787 L83.2327,10.1787 Z M75.4517,18.5607 C75.4517,17.5717 76.2567,16.7667 77.2457,16.7667 L81.4387,16.7667 C82.4277,16.7667 83.2327,17.5717 83.2327,18.5607 C83.2327,19.5507 82.4277,20.3557 81.4387,20.3557 L77.2457,20.3557 C76.2567,20.3557 75.4517,19.5507 75.4517,18.5607 L75.4517,18.5607 Z M58.0817,14.3707 C58.0817,15.3597 57.2777,16.1647 56.2877,16.1647 L43.7117,16.1647 C42.7227,16.1647 41.9177,15.3597 41.9177,14.3707 L41.9177,10.1787 C41.9177,9.1887 42.7227,8.3847 43.7117,8.3847 L56.2877,8.3847 C57.2777,8.3847 58.0817,9.1887 58.0817,10.1787 L58.0817,14.3707 Z M49.9997,24.5477 C52.4777,24.5477 54.4937,26.5637 54.4937,29.0417 C54.4937,31.5187 52.4777,33.5347 49.9997,33.5347 C47.5227,33.5347 45.5057,31.5187 45.5057,29.0417 C45.5057,26.5637 47.5227,24.5477 49.9997,24.5477 L49.9997,24.5477 Z M49.9997,37.1227 C54.4557,37.1227 58.0817,33.4977 58.0817,29.0417 C58.0817,24.5847 54.4557,20.9597 49.9997,20.9597 C45.5437,20.9597 41.9177,24.5847 41.9177,29.0417 C41.9177,33.4977 45.5437,37.1227 49.9997,37.1227 L49.9997,37.1227 Z M62.8767,64.6717 C62.8767,70.8527 60.3257,76.5687 56.2207,79.5867 L56.1417,79.6437 L43.8587,79.6437 L43.7797,79.5867 C39.6737,76.5687 37.1227,70.8527 37.1227,64.6717 L37.1227,58.0827 L62.8767,58.0827 L62.8767,64.6717 Z M33.2327,71.2617 C30.7547,71.2617 28.7397,69.2457 28.7397,66.7667 L28.7397,62.2737 L33.5347,62.2737 L33.5347,64.6717 C33.5347,66.7087 33.7997,68.7997 34.3227,70.8867 L34.4157,71.2617 L33.2327,71.2617 Z M64.6707,54.4937 L35.3287,54.4937 C34.3397,54.4937 33.5347,55.2987 33.5347,56.2877 L33.5347,58.6857 L29.0407,58.6857 C26.8967,58.6857 25.1507,60.4307 25.1507,62.5757 L25.1507,66.7667 C25.1507,71.2247 28.7767,74.8497 33.2327,74.8497 L35.6827,74.8497 L35.7647,75.0237 C37.3227,78.3967 39.5847,81.1327 42.3097,82.9357 C42.6037,83.1307 42.9467,83.2327 43.2997,83.2327 L56.7007,83.2327 C57.0537,83.2327 57.3967,83.1307 57.6917,82.9357 C63.1027,79.3507 66.4657,72.3527 66.4657,64.6717 L66.4657,56.2877 C66.4657,55.2987 65.6597,54.4937 64.6707,54.4937 L64.6707,54.4937 Z"
              id="icon_coffee-maker" fill="#3A4B60"></path>
    </g>
</svg>