<?xml version="1.0" encoding="UTF-8"?>
<svg width="100px" height="100px" viewBox="0 0 100 100" version="1.1" xmlns="http://www.w3.org/2000/svg" xmlns:xlink="http://www.w3.org/1999/xlink">
    <title>icon / furniture / coffee-table</title>
    <g id="icon-/-furniture-/-coffee-table" stroke="none" stroke-width="1" fill="none" fill-rule="evenodd">
        <path d="M94.8649,74.57 L83.4039,44.216 L88.0219,44.216 L96.6169,74.57 L94.8649,74.57 Z M84.9189,56.742 L86.1469,60.074 L13.9489,60.074 L15.1599,56.742 L84.9189,56.742 Z M5.1359,74.57 L3.3829,74.57 L11.9779,44.216 L16.5949,44.216 L5.1359,74.57 Z M80.2869,44.216 L83.7759,53.812 L16.2239,53.812 L19.7129,44.216 L80.2869,44.216 Z M6.0599,41.287 L93.9389,41.287 L93.9389,37.953 L6.0599,37.953 L6.0599,41.287 Z M19.1929,28.761 L38.1819,28.761 L38.1819,25.428 L19.1929,25.428 L19.1929,28.761 Z M22.3239,35.023 L41.3129,35.023 L41.3129,31.691 L22.3239,31.691 L22.3239,35.023 Z M69.6469,26.994 L77.6769,26.994 L77.6769,31.006 C77.6769,32.557 76.8259,34.044 75.3999,34.655 C72.4739,35.909 69.6469,33.783 69.6469,31.009 L69.6469,26.994 Z M82.2729,26.994 C83.1909,26.994 83.9389,27.741 83.9389,28.66 C83.9389,29.58 83.1909,30.327 82.2729,30.327 C81.3539,30.327 80.6059,29.58 80.6059,28.66 C80.6059,27.741 81.3529,26.994 82.2729,26.994 L82.2729,26.994 Z M99.9489,75.649 L91.0579,44.216 L93.9919,44.216 C95.5809,44.216 96.8689,42.928 96.8689,41.341 L96.8689,37.901 C96.8689,36.312 95.5809,35.023 93.9919,35.023 L79.3219,35.023 C79.7879,34.37 80.1419,33.632 80.3599,32.839 C81.2959,33.268 82.3949,33.395 83.5449,33.085 C84.9779,32.697 86.1609,31.6 86.6209,30.188 C87.6559,27.01 85.3019,24.065 82.2729,24.065 C81.5369,24.065 80.8439,24.239 80.2259,24.547 C79.9579,24.252 79.5719,24.065 79.1409,24.065 L68.0279,24.065 C67.3039,24.065 66.7179,24.652 66.7179,25.376 L66.7179,31.009 C66.7179,32.505 67.1929,33.89 68.0009,35.024 L44.2429,35.024 L44.2429,30.072 C44.2429,29.348 43.6559,28.761 42.9319,28.761 L41.1119,28.761 L41.1119,23.81 C41.1119,23.087 40.5249,22.5 39.8009,22.5 L17.5739,22.5 C16.8489,22.5 16.2629,23.087 16.2629,23.81 L16.2629,30.381 C16.2629,31.104 16.8489,31.691 17.5739,31.691 L19.3939,31.691 L19.3939,35.024 L6.0079,35.024 C4.4189,35.024 3.1309,36.312 3.1309,37.901 L3.1309,41.34 C3.1309,42.928 4.4189,44.216 6.0079,44.216 L8.9409,44.216 L0.0519,75.649 C-0.0691,76.09 0.0229,76.561 0.3009,76.924 C0.5779,77.287 1.0089,77.5 1.4649,77.5 L6.1619,77.5 C6.7779,77.5 7.3279,77.114 7.5379,76.535 L12.8909,63.001 L87.1189,63.004 L92.4979,76.636 C92.6859,77.154 93.1779,77.5 93.7299,77.5 L98.5349,77.5 C98.9909,77.5 99.4229,77.287 99.6989,76.924 C99.9759,76.561 100.0679,76.09 99.9489,75.649 L99.9489,75.649 Z" id="Fill-1" fill="#3A4B60"></path>
    </g>
</svg>