<?xml version="1.0" encoding="UTF-8"?>
<svg width="100px" height="100px" viewBox="0 0 100 100" version="1.1" xmlns="http://www.w3.org/2000/svg" xmlns:xlink="http://www.w3.org/1999/xlink">
    <title>icon / furniture / computer-monitor</title>
    <g id="icon-/-furniture-/-computer-monitor" stroke="none" stroke-width="1" fill="none" fill-rule="evenodd">
        <path d="M88.4634,62.6595 C88.4634,61.7565 89.1944,61.0245 90.0974,61.0245 C91.0004,61.0245 91.7324,61.7565 91.7324,62.6595 C91.7324,63.5615 91.0004,64.2935 90.0974,64.2935 C89.1944,64.2935 88.4634,63.5615 88.4634,62.6595 L88.4634,62.6595 Z M96.7314,52.0725 L3.2684,52.0725 L3.2684,12.6105 C3.2684,10.2175 5.2164,8.2685 7.6104,8.2685 L92.3894,8.2685 C94.7834,8.2685 96.7314,10.2175 96.7314,12.6105 L96.7314,52.0725 Z M96.7314,66.1455 C96.7314,68.5405 94.7834,70.4885 92.3894,70.4885 L7.6104,70.4885 C5.2164,70.4885 3.2684,68.5405 3.2684,66.1455 L3.2684,55.3415 L96.7314,55.3415 L96.7314,66.1455 Z M42.5624,85.1125 L57.4084,85.1125 L57.4084,73.7575 L42.5624,73.7575 L42.5624,85.1125 Z M63.4804,88.3815 C64.4524,88.3815 65.2444,89.1725 65.2444,90.1445 L65.2444,91.7305 L34.7274,91.7305 L34.7274,90.1445 C34.7274,89.1725 35.5194,88.3815 36.4914,88.3815 L63.4804,88.3815 Z M92.3894,5.0005 L7.6104,5.0005 C3.4144,5.0005 0.0004,8.4145 0.0004,12.6105 L0.0004,66.1455 C0.0004,70.3435 3.4144,73.7575 7.6114,73.7575 L39.2944,73.7575 L39.2944,85.1125 L36.4914,85.1125 C33.7164,85.1125 31.4584,87.3705 31.4584,90.1455 L31.4584,93.3655 C31.4584,94.2675 32.1904,95.0005 33.0934,95.0005 L66.8784,95.0005 C67.7804,95.0005 68.5124,94.2675 68.5124,93.3655 L68.5124,90.1455 C68.5124,87.3705 66.2554,85.1125 63.4804,85.1125 L60.6774,85.1125 L60.6774,73.7575 L92.3884,73.7575 C96.5854,73.7575 100.0004,70.3435 100.0004,66.1455 L100.0004,12.6105 C100.0004,8.4145 96.5864,5.0005 92.3894,5.0005 L92.3894,5.0005 Z M80.0374,62.6595 C80.0374,63.5615 79.3064,64.2935 78.4034,64.2935 C77.5014,64.2935 76.7694,63.5615 76.7694,62.6595 C76.7694,61.7565 77.5014,61.0245 78.4034,61.0245 C79.3064,61.0245 80.0374,61.7565 80.0374,62.6595 L80.0374,62.6595 Z M84.2134,61.0245 C85.1164,61.0245 85.8484,61.7565 85.8484,62.6595 C85.8484,63.5615 85.1164,64.2935 84.2134,64.2935 C83.3114,64.2935 82.5794,63.5615 82.5794,62.6595 C82.5794,61.7565 83.3114,61.0245 84.2134,61.0245 L84.2134,61.0245 Z M49.9854,63.8525 C49.1274,63.8525 48.4284,63.1545 48.4284,62.2955 C48.4284,61.4365 49.1274,60.7375 49.9854,60.7375 C50.8444,60.7375 51.5434,61.4365 51.5434,62.2955 C51.5434,63.1545 50.8444,63.8525 49.9854,63.8525 L49.9854,63.8525 Z M49.9854,57.4695 C47.3244,57.4695 45.1594,59.6345 45.1594,62.2955 C45.1594,64.9565 47.3244,67.1225 49.9854,67.1225 C52.6474,67.1225 54.8124,64.9565 54.8124,62.2955 C54.8124,59.6345 52.6474,57.4695 49.9854,57.4695 L49.9854,57.4695 Z" id="icon_computer-monitor" fill="#3A4B60"></path>
    </g>
</svg>