<?xml version="1.0" encoding="UTF-8"?>
<svg width="100px" height="100px" viewBox="0 0 100 100" version="1.1" xmlns="http://www.w3.org/2000/svg">
    <title>icon / furniture / conference-table</title>
    <g id="icon-/-furniture-/-conference-table" stroke="none" stroke-width="1" fill="none" fill-rule="evenodd">
        <path d="M3.198,40.549 L96.801,40.549 L96.801,36.199 L3.198,36.199 L3.198,40.549 Z M96.801,64.801 L95.44,64.801 L89.927,43.747 L96.801,43.747 L96.801,64.801 Z M4.56,64.801 L3.198,64.801 L3.198,43.747 L10.073,43.747 L4.56,64.801 Z M98.4,33 L1.599,33 C0.717,33 0,33.717 0,34.599 L0,66.401 C0,67.283 0.717,68 1.599,68 L5.808,68 C6.543,68 7.181,67.502 7.359,66.789 L13.369,43.747 L86.63,43.747 L92.64,66.789 C92.819,67.502 93.457,68 94.192,68 L98.4,68 C99.281,68 100,67.283 100,66.401 L100,34.599 C100,33.717 99.281,33 98.4,33 L98.4,33 Z"
              id="icon_conference-table" fill="#3A4B60"></path>
    </g>
</svg>