<?xml version="1.0" encoding="UTF-8"?>
<svg width="230px" height="220px" viewBox="0 0 230 220" version="1.1" xmlns="http://www.w3.org/2000/svg" xmlns:xlink="http://www.w3.org/1999/xlink">
    <title>illustration</title>
    <defs>
        <path d="M68.5028636,33.4524474 C54.28912,36.6623704 -0.296464877,54.3645939 0.00121282237,115.789842 C0.297717407,177.214484 -3.24845983,199.81945 42.8316081,215.856926 C88.9102096,231.894705 159.456012,198.856655 192.186041,159.932582 C224.914604,121.007447 245.820964,92.7009751 214.758662,31.9315502 C194.955617,1.48659666 170.419496,-2.71161369 157.488113,1.25610251 C137.209223,7.47883748 82.715434,30.2414621 68.5028636,33.4524474 Z" id="path-1"></path>
        <path d="M24.1538193,90.2750739 C34.8204859,124.275074 36.1538193,146.275074 28.1538193,156.275074 C34.1538193,153.275074 37.1538193,144.275074 36.1538193,129.275074 C35.4871526,119.275074 31.4871526,106.275074 24.1538193,90.2750739 Z" id="path-3"></path>
        <linearGradient x1="38.293694%" y1="50.0000847%" x2="52.0306923%" y2="50.0000847%" id="linearGradient-4">
            <stop stop-color="#CC8241" offset="0%"></stop>
            <stop stop-color="#DEA861" offset="100%"></stop>
        </linearGradient>
        <linearGradient x1="0.309912458%" y1="31.7929837%" x2="79.9996505%" y2="60.9520611%" id="linearGradient-5">
            <stop stop-color="#DEA861" offset="0%"></stop>
            <stop stop-color="#E3B67B" offset="32.8%"></stop>
            <stop stop-color="#E9C596" offset="75.18%"></stop>
            <stop stop-color="#EBCBA0" offset="100%"></stop>
        </linearGradient>
        <linearGradient x1="64.1814735%" y1="50%" x2="17.8695625%" y2="50%" id="linearGradient-6">
            <stop stop-color="#CC8241" offset="0%"></stop>
            <stop stop-color="#DEA861" offset="100%"></stop>
        </linearGradient>
    </defs>
    <g id="simplified" stroke="none" stroke-width="1" fill="none" fill-rule="evenodd">
        <g id="instructions" transform="translate(-73.000000, -130.000000)">
            <g id="box" transform="translate(13.000000, 100.000000)">
                <g id="illustration" transform="translate(60.000004, 30.000080)">
                    <mask id="mask-2" fill="white">
                        <use xlink:href="#path-1"></use>
                    </mask>
                    <use id="shape" fill="#F0F1F3" fill-rule="nonzero" xlink:href="#path-1"></use>
                    <g id="person" mask="url(#mask-2)">
                        <g transform="translate(56.846176, 38.724846)">
                            <polygon id="Fill-3" fill="#C1976B" fill-rule="evenodd" points="66.8739617 66.6260708 56.8707912 76.9849846 45.2019158 68.5459408 45.22229 47.0830607 63.0821525 45.5009049"></polygon>
                            <path d="M45.8205014,55.7119221 C45.8205014,55.7119221 50.0712443,63.7736758 55.6411832,63.0407891 C61.2111221,62.3079024 63.5563595,53.952994 63.5563595,53.952994 L45.8205014,55.7119221 Z" id="Fill-5" fill="#967254" fill-rule="evenodd"></path>
                            <path d="M32.4213392,34.0329284 C32.4213392,34.0329284 28.8728484,21.044124 32.3742878,12.5121503 C36.7784972,1.77755882 52.23112,-4.96646457 65.3508179,4.55285416 C73.7760834,10.6660087 71.8381844,31.859333 71.8381844,31.859333 L44.175376,22.8871875 L32.4213392,34.0329284 Z" id="Fill-7" fill="#3A4B60" fill-rule="evenodd"></path>
                            <path d="M35.3971963,29.579645 C35.3971963,29.579645 33.0142885,28.3220114 31.4774251,30.8004877 C29.9393891,33.2780844 31.8717181,41.8925812 36.2315145,41.50635 C40.590578,41.1201187 35.3971963,29.579645 35.3971963,29.579645" id="Fill-9" fill="#967254" fill-rule="evenodd"></path>
                            <path d="M69.0928055,26.5947001 C69.0928055,26.5947001 71.2150988,24.9379364 73.16575,27.1074276 C75.1171342,29.2758928 74.7259192,38.0961842 70.3675886,38.4824155 C66.0086717,38.8685002 69.0928055,26.5947001 69.0928055,26.5947001" id="Fill-11" fill="#967254" fill-rule="evenodd"></path>
                            <path d="M69.6073946,24.1091148 C68.7411225,14.3287419 60.2768674,8.62702995 50.5293278,9.49051705 C40.7838402,10.3538576 33.4492567,17.4550899 34.3156754,27.2354629 C34.3156754,27.2354629 34.6551485,39.7791119 34.7089424,40.384916 C35.5318276,49.6746947 47.9495666,60.4573635 54.9890899,59.8338235 C63.1134321,59.1141287 72.1595992,44.1628004 71.5359126,37.1225442 C71.4822653,36.5167401 69.6073946,24.1091148 69.6073946,24.1091148" id="Fill-13" fill="#C1976B" fill-rule="evenodd"></path>
                            <path d="M48.2841828,24.6951571 C48.2841828,24.6951571 49.3854233,26.6402128 48.2201948,27.5704016 C47.7147781,27.9741738 45.6508042,28.6185268 43.4783821,29.1934039 L42.9101567,29.341592 C40.2558569,30.0238788 37.6277123,30.5632416 37.6420449,30.4002689 C37.7188166,29.5013439 37.7067654,27.9012958 39.8537816,26.9325101 C41.0276129,26.4029415 47.0607365,24.9810853 48.1240171,24.7324952 L48.2430004,24.7047314 C48.270075,24.6984284 48.2841828,24.6951571 48.2841828,24.6951571 Z M64.0131405,20.9857937 C66.3188458,21.4624995 66.656195,23.0267127 66.9275946,23.8870322 C67.0201754,24.1828859 57.3259867,24.0876794 55.9868248,23.4334173 C54.6460954,22.7799666 55.2974878,20.6421148 55.2974878,20.6421148 L55.3912918,20.6429335 C56.2484394,20.650811 62.7201461,20.7187925 64.0131405,20.9857937 Z" id="Combined-Shape" fill="#3A4B60" fill-rule="evenodd"></path>
                            <path d="M51.808347,44.6587155 C51.1282281,44.6062408 50.3406681,45.7139258 50.3406681,45.7139258 L53.1262239,45.8952419 C52.6995372,45.2290479 52.4881727,44.7113368 51.808347,44.6587155" id="Fill-19" fill="#967254" fill-rule="evenodd"></path>
                            <path d="M55.5553035,44.3544649 C54.8876437,44.4934202 54.5632681,45.7545717 54.5632681,45.7545717 L56.9970382,45.2482935 C56.9970382,45.2482935 56.2231099,44.2155096 55.5553035,44.3544649" id="Fill-21" fill="#967254" fill-rule="evenodd"></path>
                            <path d="M54.8166857,40.3596608 C53.8668645,35.5551487 53.853526,30.0184829 53.853526,29.9630767 L54.9659014,29.9626369 C54.9659014,30.0168705 54.9795331,35.4482939 55.9078074,40.1437523 L54.8166857,40.3596608 Z" id="Fill-23" fill="#967254" fill-rule="evenodd"></path>
                            <path d="M68.4018106,32.8813729 C69.3762568,37.0723121 67.2196644,41.1679762 63.5948068,42.0102096 C63.415787,42.0516421 63.2342265,42.0849966 63.0517323,42.1098387 L62.7774915,42.1406634 C59.3805617,42.4417332 56.1463327,39.774612 55.2539698,35.9369241 C55.2244918,35.8099929 55.1977933,35.6829092 55.1738637,35.5557668 L55.2052915,35.5856955 C54.4086437,34.7721912 53.5237563,34.383175 52.646784,34.460861 C51.8108467,34.5348216 51.0421225,35.0281975 50.4165524,35.8904884 C50.4184615,36.0493366 50.4143892,36.2076283 50.4062028,36.366425 C50.2029001,40.3011471 47.4881412,43.4950673 44.0909182,43.7961372 C43.8168185,43.820469 43.5386147,43.8253061 43.2629028,43.8113812 C41.4535521,43.7177183 39.7972282,42.8131895 38.5998379,41.2640136 C37.4135875,39.7289092 36.8190698,37.7424931 36.9259247,35.6697429 C37.1292274,31.7347276 39.8444261,28.5406608 43.2413559,28.2398841 C43.5153089,28.2155523 43.7935127,28.2104221 44.0684918,28.2249333 C45.8781357,28.3181564 47.5347527,29.2229784 48.7319965,30.7720077 C49.6473318,31.9556817 50.210088,33.4079957 50.3707268,34.9612455 C51.0160896,34.2897764 51.7721989,33.9028876 52.5909381,33.8304318 C53.4357121,33.7555974 54.2732071,34.0215143 55.0470048,34.6040953 C54.9197557,33.0275928 55.2171209,31.4777142 55.9182583,30.135393 C56.8251323,28.3999173 58.2963291,27.2180642 60.0618531,26.8080874 C60.3295034,26.7454988 60.6055085,26.7015256 60.8782889,26.677487 C64.2760982,26.3764171 67.5095943,29.0435384 68.4018106,32.8813729 Z M43.2972019,28.8700201 C40.2124818,29.1432403 37.7449988,32.0805036 37.557673,35.7021365 C37.4587333,37.6240586 38.0060531,39.4618452 39.1002529,40.8770495 C40.1833129,42.2778891 41.6734181,43.0954975 43.2961758,43.1796329 C43.5418394,43.192092 43.7905812,43.1875481 44.0350722,43.1658546 C47.1193526,42.8926345 49.5868355,39.9555177 49.7744545,36.3337382 C49.8739805,34.4119628 49.3256347,32.5741761 48.2315814,31.1589719 C47.1483749,29.7582788 45.6587094,28.9403772 44.036538,28.856535 C43.790288,28.8437828 43.541986,28.8483267 43.2972019,28.8700201 Z M60.9341349,27.3076229 C60.6897905,27.3293164 60.44442,27.3684525 60.2047661,27.4241519 C58.6221705,27.7920611 57.2994566,28.8589975 56.4793564,30.4282545 C55.6506081,32.0137816 55.4344065,33.919287 55.8706207,35.793718 C56.691747,39.3262319 59.6364857,41.7837476 62.7216455,41.5105274 C62.9661366,41.488834 63.2113604,41.4496978 63.4520404,41.394145 C66.736692,40.6304771 68.6813336,36.8757519 67.7861858,33.0242858 C66.9652061,29.492065 64.0192947,27.0344028 60.9341349,27.3076229 Z" id="Combined-Shape" fill="#FFFFFF" fill-rule="evenodd"></path>
                            <path d="M66.4859422,64.3530374 C66.3412703,64.3599265 82.4647777,71.2490615 93.5768058,75.8960029 C101.829403,79.3473129 106.397046,90.044234 107.428071,99.5179672 C109.182749,115.638836 119.007241,160.387285 100.380486,168.173767 L101.907382,191.275074 L12.4749776,191.275074 L13.8123492,134.890157 C13.3872749,125.631306 8.40408511,119.472713 8.31599212,117.179511 C8.01052495,109.240296 4.16316294,88.9342038 10.5756284,81.1475758 C16.9880938,73.3610944 31.0161315,70.8093295 45.0868232,65.2691458 C53.8821965,73.0079895 63.2631462,69.1969787 66.4859422,64.3530374 Z" id="Fill-31" fill="#1FB118" fill-rule="evenodd"></path>
                            <path d="M19.6140708,156.570294 C19.6140708,156.570294 25.1349063,161.098215 27.2724437,161.58236 L27.2724437,156.570294 L19.6140708,156.570294 Z" id="Fill-33" fill="#C1976B" fill-rule="evenodd"></path>
                            <path d="M21.8676242,93.0381787 L20.0354074,79.7551937 C20.0354074,79.7551937 23.9519539,75.9702736 26.1160218,72.4425968 C28.2800896,68.9150665 31.1810017,65.7088338 31.1810017,65.7088338 L36.9826794,61.7392263 C36.9826794,61.7392263 44.3112532,63.2659759 45.074628,62.6553347 C45.8380028,62.0445469 46.062999,60.2483882 46.062999,60.2483882 L37.8987878,57.3115646 L32.0971101,58.38026 L37.8987878,55.9375486 C37.8987878,55.9375486 44.1585196,60.6705309 44.3112532,60.6705309 C44.4639868,60.6705309 46.9068447,59.601689 47.0594318,58.8383142 C47.2121653,58.0749394 37.8987878,50.441045 37.8987878,50.441045 L30.2648934,52.4258487 L31.4863223,44.0285795 C31.4863223,44.0285795 37.5934672,34.2572943 33.6238597,31.5091158 L27.3641278,40.5170262 L20.0354074,53.6472777 C20.0354074,53.6472777 9.50074744,71.8159787 8.88995967,73.3427282 C8.27931847,74.8694778 7.32597946,90.8839316 7.32597946,90.8839316 L21.8676242,93.0381787 Z" id="Fill-37" fill="#C1976B" fill-rule="evenodd"></path>
                            <path d="M24.9884756,156.216457 C24.9884756,156.216457 13.6433895,156.846886 13.0131069,157.477168 C12.3828244,158.107304 11.7525418,163.779994 11.7525418,163.779994 C11.7525418,163.779994 10.4919767,166.301124 8.60112902,163.779994 C6.71028134,161.258717 5.44971622,155.586174 5.44971622,155.586174 C5.44971622,155.586174 5.44971622,158.107304 4.1891511,158.107304 C2.92858599,158.107304 1.66802087,149.283348 2.29830343,147.392647 C2.51465158,146.743456 3.39924582,145.574649 4.4679412,144.31936 C6.51284167,141.917397 9.23141158,139.198828 9.23141158,139.198828 L24.9884756,144.871517 L24.9884756,156.216457 Z" id="Fill-39" fill="#C1976B" fill-rule="evenodd"></path>
                            <path d="M4.19368034,87.1019431 L24.4997721,90.3081758 C24.4997721,90.3081758 32.5917207,121.912449 33.5076825,130.920506 C34.4237908,139.928416 33.2145278,153.4984 27.7181707,156.399458 C22.2218136,159.300224 13.8123785,160.998029 8.31602144,153.974776 C2.81951779,146.951523 -0.539448524,136.264129 0.0713392494,129.39361 C0.681980446,122.523237 4.19368034,87.1019431 4.19368034,87.1019431 L25.1538193,90.2750739" id="Fill-41" fill="#1FB118" fill-rule="evenodd"></path>
                            <g id="Path-2" fill="none" fill-rule="nonzero">
                                <use fill="#1FB118" xlink:href="#path-3"></use>
                                <use fill-opacity="0.15" fill="#000000" xlink:href="#path-3"></use>
                            </g>
                            <path d="M85.1538193,120.275074 C84.4871526,133.608407 82.4871526,141.275074 79.1538193,143.275074 C81.8204859,143.275074 83.8204859,143.275074 85.1538193,143.275074 L85.1538193,120.275074 Z" id="Path-3" fill="#1A9614" fill-rule="nonzero"></path>
                            <path d="M28.1538193,164.275074 C59.4871526,175.608407 83.4871526,176.941741 100.153819,168.275074 C81.4871526,170.941741 57.4871526,169.608407 28.1538193,164.275074 Z" id="Path-4" fill="#1A9614" fill-rule="nonzero"></path>
                        </g>
                    </g>
                    <path d="M184.731703,125.829188 L184.731703,122.853578 C186.341459,122.756017 187.621947,122.308863 188.573166,121.512115 C189.524386,120.715367 189.999996,119.690977 189.999996,118.438944 C189.999996,117.430814 189.756093,116.609676 189.268288,115.97553 C188.780484,115.341383 188.178858,114.861708 187.46341,114.536505 C186.747963,114.211302 185.813004,113.877969 184.658532,113.536505 C183.617882,113.211302 182.792679,112.914554 182.182923,112.646261 C181.573166,112.377969 181.060971,111.99992 180.646337,111.512115 C180.231703,111.02431 180.024386,110.390164 180.024386,109.609676 C180.024386,108.715367 180.43089,107.99992 181.243898,107.463334 C182.056906,106.926749 183.138207,106.658456 184.487801,106.658456 C185.252028,106.658456 186.032516,106.764147 186.829264,106.97553 C187.626012,107.186912 188.333329,107.495855 188.951215,107.902359 L189.41463,106.97553 C188.796744,106.569026 188.073166,106.239757 187.243898,105.987725 C186.41463,105.735692 185.577231,105.601546 184.731703,105.585286 L184.731703,102.99992 L183.878044,102.99992 L183.878044,105.609676 C182.365849,105.707237 181.162597,106.121871 180.268288,106.853578 C179.373979,107.585286 178.926825,108.520245 178.926825,109.658456 C178.926825,110.650326 179.166662,111.455204 179.646337,112.073091 C180.126012,112.690977 180.711378,113.158456 181.402435,113.47553 C182.093492,113.792603 183.024386,114.130001 184.195118,114.487725 C185.235768,114.796668 186.069101,115.089351 186.695118,115.365773 C187.321134,115.642196 187.845524,116.028375 188.268288,116.52431 C188.691053,117.020245 188.902435,117.666586 188.902435,118.463334 C188.902435,119.487725 188.47154,120.304798 187.609752,120.914554 C186.747963,121.52431 185.577231,121.829188 184.097557,121.829188 C183.089427,121.829188 182.081297,121.621871 181.073166,121.207237 C180.065036,120.792603 179.219508,120.219432 178.536581,119.487725 L177.999996,120.390164 C178.731703,121.121871 179.621947,121.715367 180.670727,122.170652 C181.719508,122.625936 182.788614,122.861708 183.878044,122.877969 L183.878044,125.829188 L184.731703,125.829188 Z" id="$" fill="#1FB118" mask="url(#mask-2)"></path>
                    <path d="M184.127996,53.9919198 C184.127996,52.7439198 184.367996,51.7359198 184.847996,50.9679198 C185.327996,50.1999198 186.035996,49.3839198 186.971996,48.5199198 C187.643996,47.8959198 188.177996,47.3439198 188.573996,46.8639198 C188.969996,46.3839198 189.305996,45.7899198 189.581996,45.0819198 C189.857996,44.3739198 189.995996,43.5399198 189.995996,42.5799198 C189.995996,40.7559198 189.401996,39.3699198 188.213996,38.4219198 C187.025996,37.4739198 185.471996,36.9999198 183.551996,36.9999198 C181.655996,36.9999198 180.119996,37.4919198 178.943996,38.4759198 C177.767996,39.4599198 177.119996,40.8519198 176.999996,42.6519198 L176.999996,42.6519198 L178.295996,42.7239198 C178.391996,41.3079198 178.889996,40.2339198 179.789996,39.5019198 C180.689996,38.7699198 181.907996,38.4039198 183.443996,38.4039198 C185.003996,38.4039198 186.245996,38.7699198 187.169996,39.5019198 C188.093996,40.2339198 188.555996,41.3079198 188.555996,42.7239198 C188.555996,43.9239198 188.327996,44.8899198 187.871996,45.6219198 C187.415996,46.3539198 186.731996,47.1519198 185.819996,48.0159198 C185.171996,48.6399198 184.655996,49.1859198 184.271996,49.6539198 C183.887996,50.1219198 183.557996,50.7159198 183.281996,51.4359198 C183.005996,52.1559198 182.867996,53.0079198 182.867996,53.9919198 L182.867996,53.9919198 L184.127996,53.9919198 Z M183.407996,61.8759198 C183.743996,61.8759198 184.037996,61.7499198 184.289996,61.4979198 C184.541996,61.2459198 184.667996,60.9279198 184.667996,60.5439198 C184.667996,60.1839198 184.541996,59.8839198 184.289996,59.6439198 C184.037996,59.4039198 183.743996,59.2839198 183.407996,59.2839198 C183.071996,59.2839198 182.783996,59.4039198 182.543996,59.6439198 C182.303996,59.8839198 182.183996,60.1839198 182.183996,60.5439198 C182.183996,60.9279198 182.303996,61.2459198 182.543996,61.4979198 C182.783996,61.7499198 183.071996,61.8759198 183.407996,61.8759198 Z" id="?" fill="#3A4B60" mask="url(#mask-2)"></path>
                    <g id="box" mask="url(#mask-2)">
                        <g transform="translate(30.375561, 137.999920) rotate(10.000000) translate(-30.375561, -137.999920) translate(12.999996, 122.999920)">
                            <path d="M28.1524887,23.173914 L28.1524887,9.95253394 L6.93176468,10.8625113 L6.93176468,24.0838914 C6.93176468,24.3868778 7.08162896,24.6897964 7.38149321,24.8629412 L15.7878733,29.7163575 C16.3857692,30.0615611 17.1223303,30.0615611 17.7202262,29.7163575 L27.7027602,23.9529638 C28.0026244,23.7798869 28.1524887,23.4769005 28.1524887,23.173914 L28.1524887,23.173914 Z" id="Path" fill="url(#linearGradient-4)" fill-rule="nonzero"></path>
                            <path d="M34.2302715,13.1479412 L29.2310633,10.261629 C29.0661312,10.1664027 29.0655204,9.92857466 29.2299095,9.83246606 L34.3015385,6.86789593 C34.8902036,6.5280543 34.9035068,5.68309955 34.3258371,5.32486425 L26.24681,0.314864253 C25.6416516,-0.0604072398 24.879095,-0.0724208145 24.2623982,0.283642534 L19.1706787,3.25920814 C18.7073077,3.53002262 18.1343213,3.53151584 17.6695249,3.2631448 L12.5798416,0.324638009 C11.8654751,-0.0878280543 10.9821041,-0.0739140271 10.2810407,0.36081448 L0.922262443,6.16445701 C0.253099548,6.57943439 0.268506787,7.55823529 0.950429864,7.95196833 L5.62662896,10.6517647 C5.79190045,10.7471267 5.79210407,10.9855656 5.62710407,11.0813348 L0.449728507,14.0854072 C-0.14979638,14.4315611 -0.14979638,15.2968778 0.449728507,15.6430317 L8.85644796,20.4966516 C9.45427602,20.8417873 10.1908371,20.8417873 10.7886652,20.4966516 L15.6912217,17.6520814 C16.1539819,17.3835747 16.725,17.3829638 17.188371,17.6504525 L22.2536199,20.5748416 C22.9461312,20.9746833 23.7993665,20.9746833 24.4919457,20.5748416 L34.2304072,14.9523529 C34.9247511,14.5512896 34.9247511,13.5488688 34.2302715,13.1479412 Z" id="Path" fill="url(#linearGradient-5)" fill-rule="nonzero"></path>
                            <path d="M7.38149321,10.0835973 L17.3640271,4.32020362 C17.9619231,3.975 18.6984842,3.975 19.2963801,4.32020362 L27.7027602,9.17361991 C28.3024208,9.51984163 28.3024208,10.3852941 27.7027602,10.7315158 L17.7202262,16.4949095 C17.1223303,16.8401131 16.3857692,16.8401131 15.7878733,16.4949095 L7.38149321,11.6414932 C6.78190045,11.2952715 6.78190045,10.429819 7.38149321,10.0835973 Z" id="Path" fill="url(#linearGradient-6)" fill-rule="nonzero"></path>
                            <g id="Group" stroke-width="1" fill="none" fill-rule="evenodd" transform="translate(25.520362, 20.158371)">
                                <polygon id="Path" fill="#5D3645" fill-rule="nonzero" points="1.92196833 1.46626697 0.979004525 0.0517873303 0.0359728507 2.5550905 0.532533937 2.26839367 0.532533937 3.11640271 1.42540724 2.60090498 1.42540724 1.75289593"></polygon>
                                <polygon id="Path" fill="#5D3645" fill-rule="nonzero" points="1.92196833 2.5271267 0.0359728507 3.6160181 0.0359728507 4.07470588 1.92196833 2.98581448"></polygon>
                            </g>
                        </g>
                    </g>
                    <path d="M80.3149235,30.1082832 C77.871919,30.1082832 75.0901742,30.5591551 72.6537657,31.4362739 C67.6918296,33.2224653 63.6423375,36.8084799 64.0108329,37.9591121 C64.052754,38.0901522 64.1774913,38.2080004 64.3812338,38.3097251 C65.763165,38.9986386 69.9925075,38.5489393 73.4320914,37.3475914 C77.4349719,35.9496833 81.9102713,32.9586261 83.6178973,30.444385 C82.6560568,30.2192422 81.5272647,30.1082832 80.3149235,30.1082832 M81.0831353,40.5328636 C81.569479,40.6340019 81.9936738,40.7801395 82.340036,40.9591105 C82.4951149,41.0391417 82.6372949,41.1262086 82.7661364,41.2200181 C83.8688377,40.1211278 84.4914982,39.1333431 84.2922996,38.5704861 C84.2458346,38.439446 84.1446962,38.3214512 83.9900571,38.2176745 C83.1218796,39.0301527 82.1323359,39.8168333 81.0831353,40.5328636 M78.6732573,41.1537652 C77.5148566,41.2682421 76.3448763,41.5876341 75.4026771,41.9917478 C74.3971566,42.4228318 73.5493532,42.9225139 72.8727522,43.4255674 C74.1179267,43.1030972 75.4909167,42.6469485 76.8181745,42.0730982 C77.4314541,41.8079398 78.0542612,41.4980753 78.6732573,41.1537652 M81.6874737,37.7505325 C79.3041262,37.7505325 76.0017387,38.6151922 73.7123472,39.7212648 C72.3997472,40.3553584 70.9832238,41.2421513 69.9234696,42.0933259 C68.5746649,43.1765325 68.410938,43.7113932 68.4408398,43.7952354 C68.4428919,43.8010985 68.4689827,43.8321729 68.5506262,43.8676446 C68.9862541,44.0567294 70.0251943,44.0133425 71.3600741,43.7647473 C72.2522904,42.8593391 73.5946456,41.9696146 75.1137732,41.3180784 C76.873141,40.5636448 78.5658161,40.3154894 79.9536104,40.3896575 C81.1272551,39.6415268 82.2522362,38.7904987 83.2310797,37.9117676 C82.7890024,37.8012483 82.2649884,37.7505325 81.6874737,37.7505325 M71.7268106,44.4442799 C71.389243,44.8140945 71.159996,45.1591376 71.045226,45.4493607 C70.9531754,45.6821255 70.9347067,45.8742884 70.9920184,46.0053285 C71.0308614,46.0941544 71.1649797,46.1857652 71.359781,46.2565621 C72.3979882,46.6344385 74.7806029,46.3752897 76.9712012,45.287979 C78.9363636,44.3125068 80.8426019,42.9855422 82.2221878,41.7358238 C82.1481663,41.6883327 82.0741447,41.6465582 82.0039342,41.6103536 C81.4718584,41.3356677 80.8404033,41.1851327 80.1655612,41.1313388 C79.1663435,41.7537062 78.1313609,42.303811 77.1089839,42.7457417 C75.4403475,43.4673419 73.4430847,44.100556 71.7268106,44.4442799 M76.9543448,50.661944 C76.8184676,50.661944 76.6877207,50.586017 76.6243993,50.4555631 C76.5360131,50.2735141 76.6117936,50.0542344 76.7938427,49.9658482 C81.1130371,47.8671539 83.1978066,43.993408 82.8935121,42.583334 C82.8659555,42.4555185 82.8143603,42.3392827 82.7470813,42.2341867 C81.1103987,43.7160836 78.9253703,45.1361249 77.2970427,45.9444989 C74.8412859,47.1632895 72.2761825,47.3699636 71.1092803,46.945329 C70.7100036,46.8000709 70.444552,46.5826967 70.3205476,46.2989229 C70.1812991,45.9807035 70.1958103,45.6039998 70.3636414,45.1796584 C70.4353177,44.9986354 70.5332313,44.813215 70.6550371,44.6251563 C69.6130188,44.7641116 68.7545153,44.755317 68.2586442,44.5399949 C67.9993489,44.4272769 67.8284397,44.2595924 67.7506071,44.0417785 C67.2654361,42.6831531 71.18638,40.1275772 73.3935415,39.0613737 C76.9801425,37.3285363 81.7113658,36.5547546 83.8474374,37.3357186 C85.726852,35.5039416 86.8960995,33.6191036 86.5041517,32.3299559 C86.3426234,31.7991994 85.8938036,31.3459822 85.1701513,30.9829102 C84.9199438,30.85744 84.6443784,30.745748 84.3460935,30.6475412 C83.7789858,31.5517768 82.8817859,32.5235846 81.6780928,33.5229489 C79.4375116,35.3831619 76.4452817,37.0715863 73.6736508,38.039583 C70.428282,39.1730656 65.827659,39.8493734 64.0543664,38.9655121 C63.6668159,38.7724697 63.4173412,38.5090702 63.3128316,38.1826425 C62.6803504,36.2075129 67.870654,32.3792059 72.4056103,30.7466275 C76.248575,29.3632306 80.9523884,29.0176012 84.0036888,29.7902104 C84.2962572,29.1981845 84.4051642,28.6457345 84.2824789,28.1636416 C84.1551032,27.66308 83.7572923,27.2149931 83.099893,26.8318399 C80.7911533,25.4862599 75.8909262,25.2753351 71.9438916,26.3519457 C66.4740651,27.8436633 62.8234099,31.8142968 60.7241292,34.8824537 C60.6097989,35.0495519 60.3818711,35.0920593 60.2147729,34.9780221 C60.0476748,34.8636918 60.0050208,34.6356175 60.1192045,34.4686659 C62.2879628,31.2990775 66.0664335,27.1952051 71.7511424,25.6448566 C75.8643957,24.5231002 81.0116056,24.766272 83.4689747,26.1986258 C84.3024134,26.6845297 84.815141,27.2847639 84.9927927,27.9830583 C85.1455263,28.5832925 85.0439482,29.2625319 84.702423,29.997031 C84.988542,30.0952378 85.254873,30.205464 85.4987777,30.327856 C86.409023,30.7844444 86.9831664,31.386291 87.2052311,32.1166859 C87.670321,33.6459273 86.487735,35.7192637 84.5230123,37.7002565 C84.7439044,37.8762959 84.8979572,38.0854617 84.9831186,38.3258486 C85.3091066,39.246794 84.5310741,40.4849328 83.2853133,41.7242442 C83.4461086,41.9401526 83.5554553,42.1764353 83.6099821,42.4288415 C84.0113109,44.2887613 81.6802914,48.4064119 77.1142607,50.6250065 C77.0626655,50.6500713 77.0079921,50.661944 76.9543448,50.661944" id="shape" fill="#3A4B60"></path>
                </g>
            </g>
        </g>
    </g>
</svg>