<?xml version="1.0" encoding="UTF-8"?>
<svg width="100px" height="100px" viewBox="0 0 100 100" version="1.1" xmlns="http://www.w3.org/2000/svg">
    <title>icon / furniture / credenza</title>
    <g id="icon-/-furniture-/-credenza" stroke="none" stroke-width="1" fill="none" fill-rule="evenodd">
        <path d="M17.8115,53.7322 C18.7715,53.7322 19.5525,52.9512 19.5525,51.9912 L19.5525,39.6562 C19.5525,38.6962 18.7715,37.9152 17.8115,37.9152 C16.8515,37.9152 16.0705,38.6962 16.0705,39.6562 L16.0705,51.9912 C16.0705,52.9512 16.8515,53.7322 17.8115,53.7322 L17.8115,53.7322 Z M3.4395,67.4162 L32.1825,67.4162 L32.1825,23.4392 L3.4395,23.4392 L3.4395,67.4162 Z M60.5255,67.4162 L64.3735,67.4162 L64.3735,47.5442 L35.6235,47.5442 L35.6235,67.4162 L46.6045,67.4162 L45.0185,62.6062 C44.7575,62.0992 44.8235,61.3542 45.1775,60.7922 C45.5475,60.2092 46.1985,59.8602 46.9195,59.8602 L60.2035,59.8602 C60.9215,59.8602 61.5705,60.2062 61.9405,60.7862 C62.3115,61.3662 62.3535,62.1012 62.0625,62.7262 L60.5255,67.4162 Z M49.8975,44.1042 L64.3735,44.1042 L64.3735,23.4392 L35.6235,23.4392 L35.6235,44.1042 L39.5725,44.1042 L38.1445,36.4732 C37.9285,35.8702 38.0035,35.1872 38.3445,34.6472 C38.7345,34.0352 39.4235,33.6692 40.1875,33.6692 L49.3145,33.6692 C50.0775,33.6692 50.7665,34.0322 51.1545,34.6402 C51.5015,35.1832 51.5745,35.8612 51.3635,36.4662 L49.8975,44.1042 Z M41.7595,37.1082 L43.0725,44.1042 L46.4325,44.1042 L47.7455,37.1082 L41.7595,37.1082 Z M48.8565,63.2992 L50.2185,67.4162 L56.9165,67.4162 L58.2655,63.2992 L48.8565,63.2992 Z M67.8135,67.4162 L96.5605,67.4162 L96.5605,23.4392 L67.8135,23.4392 L67.8135,67.4162 Z M99.9995,22.9732 L99.9995,67.8762 C99.9995,69.5182 98.6635,70.8552 97.0205,70.8552 L96.7785,70.8552 L96.7795,78.8562 C96.7795,79.4872 96.2665,80.0002 95.6355,80.0002 L92.2695,80.0002 C91.7255,80.0002 91.2535,79.6132 91.1485,79.0802 L89.4835,70.8552 L10.5165,70.8552 L8.8525,79.0792 C8.7455,79.6122 8.2735,80.0002 7.7285,80.0002 L4.3645,80.0002 C3.7335,80.0002 3.2205,79.4872 3.2205,78.8562 L3.2185,70.8552 L2.9735,70.8552 C1.3335,70.8552 -0.0005,69.5212 -0.0005,67.8812 L-0.0005,22.9732 C-0.0005,21.3342 1.3335,20.0002 2.9735,20.0002 L97.0265,20.0002 C98.6665,20.0002 99.9995,21.3342 99.9995,22.9732 L99.9995,22.9732 Z M80.4435,51.9912 L80.4435,39.6562 C80.4435,38.6962 81.2255,37.9152 82.1855,37.9152 C83.1455,37.9152 83.9265,38.6962 83.9265,39.6562 L83.9265,51.9912 C83.9265,52.9512 83.1455,53.7322 82.1855,53.7322 C81.2255,53.7322 80.4435,52.9512 80.4435,51.9912 L80.4435,51.9912 Z"
              id="Fill-1" fill="#3A4B60"></path>
    </g>
</svg>