<?xml version="1.0" encoding="UTF-8"?>
<svg width="100px" height="100px" viewBox="0 0 100 100" version="1.1" xmlns="http://www.w3.org/2000/svg" xmlns:xlink="http://www.w3.org/1999/xlink">
    <title>crib-mattress</title>
    <g id="crib-mattress" stroke="none" stroke-width="1" fill="none" fill-rule="evenodd">
        <path d="M30.0095,18.5439 C30.5115,18.4409 31.0255,18.3739 31.5175,18.2339 C33.7445,17.5999 35.1175,15.6429 35.2215,13.4339 C35.2735,12.3179 34.4595,11.4219 33.3975,11.3719 C32.4415,11.3279 31.4585,12.0729 31.4065,13.1979 C31.3645,14.0849 30.7885,14.6279 30.0085,14.6259 C29.2145,14.6229 28.7145,14.0949 28.6415,13.1809 C28.5545,12.1379 27.6785,11.3319 26.6685,11.3669 C25.6475,11.4019 24.8285,12.2519 24.8115,13.2949 C24.7705,16.0889 27.1445,18.4609 30.0095,18.5439 M69.9715,18.5439 C70.4735,18.4429 70.9855,18.3749 71.4775,18.2359 C73.5785,17.6479 75.1475,15.6319 75.1985,13.4909 C75.2255,12.3369 74.4585,11.4309 73.3825,11.3709 C72.4085,11.3159 71.4135,12.1109 71.3545,13.2309 C71.3365,13.6069 71.0925,14.0269 70.8325,14.3239 C70.4805,14.7239 69.9385,14.7339 69.4765,14.5409 C68.9135,14.3059 68.6425,13.8239 68.6025,13.1969 C68.5375,12.1349 67.6765,11.3399 66.6605,11.3669 C65.6035,11.3959 64.8045,12.2359 64.7945,13.3289 C64.7685,16.1119 67.1215,18.4559 69.9715,18.5439 M44.8235,13.4479 C44.8005,12.4169 45.2945,11.7259 46.2805,11.4269 C47.0245,11.2009 47.9465,11.5819 48.3665,12.3739 C48.5575,12.7319 48.5975,13.1739 48.6985,13.5779 C48.9475,14.5749 50.0335,15.0029 50.8115,14.3489 C51.0845,14.1179 51.2595,13.6859 51.3305,13.3169 C51.5025,12.4029 51.8785,11.7169 52.8345,11.4369 C53.8345,11.1429 55.0235,11.8949 55.1435,12.9299 C55.3775,14.9139 54.1545,17.0809 52.3295,17.9259 C51.5885,18.2709 50.8275,18.5219 50.1005,18.4689 C47.1815,18.4689 44.8925,16.2469 44.8235,13.4479 M28.7115,30.4559 C29.2145,30.3549 29.7275,30.2859 30.2195,30.1469 C32.4465,29.5119 33.8205,27.5549 33.9235,25.3459 C33.9755,24.2309 33.1625,23.3339 32.0995,23.2839 C31.1435,23.2399 30.1605,23.9849 30.1085,25.1109 C30.0665,25.9969 29.4905,26.5409 28.7105,26.5379 C27.9165,26.5349 27.4165,26.0069 27.3435,25.0929 C27.2575,24.0499 26.3815,23.2439 25.3705,23.2789 C24.3495,23.3149 23.5315,24.1639 23.5145,25.2079 C23.4725,28.0019 25.8475,30.3739 28.7115,30.4559 M27.7275,53.6139 C30.1695,53.0889 31.7975,51.0299 31.9115,48.5589 C31.9015,47.9499 31.6585,47.3169 31.0055,46.9229 C30.3465,46.5259 29.6445,46.5119 28.9845,46.9179 C28.4155,47.2689 28.1315,47.8039 28.0835,48.4869 C28.0055,49.5839 27.0655,50.1699 26.0975,49.7349 C25.5075,49.4719 25.3485,48.9419 25.3065,48.3459 C25.2505,47.5559 24.5765,46.8019 23.8475,46.6789 C22.8875,46.5189 22.0895,46.9069 21.6995,47.6969 C21.2605,48.5839 21.5115,49.4539 21.8075,50.2849 C22.6825,52.7269 25.3105,54.1349 27.7275,53.6139 M27.7065,42.1759 C28.4305,41.9779 29.1935,41.8649 29.8725,41.5649 C31.8085,40.7069 32.9195,38.8309 32.9075962,36.8349 C32.9015,35.7509 31.9975,34.9399 30.9235,34.9399 C29.9895,34.9409 29.1035,35.9089 29.0815,36.7839 C29.0485,37.9909 27.9375,38.5939 26.9725,37.9849 C26.4905,37.6799 26.3625,37.1979 26.3225,36.6529 C26.2645,35.8479 25.5395,35.0959 24.7505,34.9709 C23.9125,34.8379 23.0635,35.2849 22.7095,36.0319 C22.3735,36.7389 22.5155,37.4359 22.6825,38.1559 C23.1975,40.3799 25.3385,42.0479 27.7065,42.1759 M54.8445,46.9469 C54.1845,46.5169 53.4675,46.5159 52.7795,46.9149 C52.1295,47.2939 51.9165,47.9219 51.8445,48.6269 C51.7755,49.3199 51.2675,49.8259 50.5935,49.8949 C49.9735,49.9569 49.3825,49.5239 49.1945,48.8559 C49.1275,48.6239 49.0925,48.3839 49.0515,48.1439 C48.9305,47.4349 48.4005,46.8229 47.7285,46.6969 C46.9555,46.5519 46.2425,46.6639 45.7225,47.3379 C45.0755,48.1749 45.2585,49.1089 45.5125,49.9889 C46.2635,52.6069 48.9975,54.1389 51.5095,53.6199018 C53.7915,53.1499 55.6305,51.0679 55.6755,48.7089 C55.7535,48.0169 55.4925,47.3709 54.8445,46.9469 M75.5875,46.9259 C75.0315,47.2689 74.7725,47.7949 74.7075,48.4579 C74.5965,49.6069 73.7115,50.1769 72.7365,49.7429 C72.1765,49.4949 71.9815,49.0069 71.9395,48.4109 C71.8635,47.3209 71.0165,46.6079 69.9005,46.6509 C68.9005,46.6899 68.1525,47.4849 68.1365,48.5279 C68.0925,51.3099 70.4175,53.6819 73.6045,53.7519 C73.9585,53.6619 74.6615,53.5389 75.3235,53.3009 C77.1655,52.6339 78.5735,50.5289 78.5365,48.5759 C78.5065,47.0269 76.8955,46.1189 75.5875,46.9259 M71.2845,30.4559 C71.7875,30.3559 72.2985,30.2869 72.7905,30.1489 C74.8915,29.5609 76.4605,27.5449 76.5115,25.4029 C76.5395,24.2489 75.7715,23.3439 74.6955,23.2829 C73.7215,23.2289 72.7275,24.0229 72.6685,25.1429 C72.6495,25.5199 72.4055,25.9399 72.1455,26.2359 C71.7935,26.6359 71.2515,26.6469 70.7895,26.4529 C70.2265,26.2179 69.9555,25.7359 69.9165,25.1089 C69.8505,24.0469 68.9895,23.2519 67.9735,23.2789 C66.9175,23.3079 66.1185,24.1479 66.1075,25.2409 C66.0815,28.0249 68.4345,30.3679 71.2845,30.4559 M53.7265,34.9479 C52.5665,34.8629 51.7405,35.6229 51.5955,36.9059 C51.5095,37.6489 51.0075,38.1799 50.3455,38.2259 C49.6595,38.2719 49.1015,37.7949 48.9305,37.0369 C48.8455,36.6619 48.8005,36.2549 48.6195,35.9289 C48.1835,35.1429 47.2415,34.7709 46.4685,35.0029 C45.5855,35.2699 45.0195,36.0819 45.0545,37.0319 C45.1555,39.8389 47.4385,42.0529 50.2705,42.1749 C50.9945,41.9749 51.7455,41.8409 52.4385,41.5639 C54.3165,40.8179 55.6235,38.5669 55.4065,36.5679 C55.3175,35.7539 54.5455,35.0089 53.7265,34.9479 M74.6615,35.2039 C74.0505,35.5539 73.7465,36.1029 73.6815,36.8299 C73.5785,38.0009 72.5355,38.5719 71.6085,38.0009 C71.1455,37.7159 70.9695,37.2759 70.9335,36.7349 C70.8665,35.7019 69.9725,34.9219 68.9435,34.9509 C67.9495,34.9789 67.1435,35.8189 67.1205,36.8499 C67.0625,39.6789 69.4425,42.0659 72.3455,42.1729 C73.0555,41.9769 73.8025,41.8619 74.4685,41.5679 C76.4045,40.7149 77.4805,38.8729 77.5235,36.9349 C77.5585,35.4089 75.9605,34.4589 74.6615,35.2039 M44.8315,25.3599 C44.8075,24.3289 45.3025,23.6389 46.2885,23.3399 C47.0325,23.1129 47.9545,23.4949 48.3745,24.2859 C48.5655,24.6449 48.6055,25.0859 48.7065,25.4909 C48.9555,26.4869 50.0415,26.9149 50.8195,26.2619 C51.0925,26.0299 51.2675,25.5979 51.3385,25.2299 C51.5105,24.3159 51.8865,23.6289 52.8425,23.3489 C53.8425,23.0549 55.0315,23.8069 55.1515,24.8419 C55.3855,26.8259 54.1625,28.9939 52.3365,29.8389 C51.5965,30.1839 50.8355,30.4339 50.1085,30.3819 C47.1885,30.3819 44.9005,28.1589 44.8315,25.3599 M96.1205,71.3299 C95.5075,71.6719 94.9885,71.9929 94.4415,72.2599 C93.2835,72.8239 92.0625,73.1829 90.7655,73.2009 C89.5835,73.2199 23.9645,73.2079 10.2535,73.2239 C8.5395,73.2249 6.9085,72.9599 5.3795,72.1819 C4.8985,71.9379 4.4495,71.6349 3.8935,71.3039 C3.8775,71.5859 3.8325,86.5109 3.8555,87.4439 C3.8935,88.9849 4.4905,90.3039 5.5575,91.3959 C6.7445,92.6099 8.2115,93.1749 9.9155,93.1739 C22.2665,93.1639 65.3905,93.1659 89.8785,93.1779 C90.8515,93.1779 91.7825,93.0549 92.6635,92.6499 C94.3425,91.8769 95.4335,90.6009 95.9485,88.8149 C96.3205,87.5219 96.1165,86.2099 96.1615,84.9059 M96.1615,84.9059 C96.1635,84.8149 96.1425,71.5479 96.1205,71.3299 M3.8515,63.4939 C3.8705,65.2169 4.5195,66.6669 5.7795,67.8339 C7.0355,68.9969 8.5445,69.3799 10.2355,69.3789 C26.8605,69.3609 89.4165,69.4259 90.4465,69.3449 C91.1755,69.2869 91.9295,69.1479 92.5985,68.8659 C94.3725,68.1219 95.5905,66.7849 95.9405,64.8859 C96.1725,63.6299 96.0975,62.3179 96.154659,61.0299 C96.1575,60.9709 96.1175,60.9089 96.0805,60.7939 C95.9485,60.8699 95.8625,60.9129 95.7855,60.9669 C93.9895,62.1899 91.9925,62.7069 89.8365,62.7069 C77.6955,62.7069 13.0535,62.7229 9.5745,62.6849 C8.2275,62.6709 6.9115,62.3869 5.6925,61.7759 C5.1055,61.4829 4.5365,61.1559 3.9005,60.8129 C3.8815,61.0209 3.8525,61.1899 3.8515,61.3579 C3.84581983,62.0699 3.8425,62.7829 3.8515,63.4939 M3.87892452,53.0809 C3.8395,55.7639 5.8895,58.1959 8.5295,58.6929 C9.1285,58.8079 9.7455,58.8749 10.3565,58.8749 C35.8045,58.8849016 78.5815,58.8819 89.8005,58.8849016 C91.5695,58.8859 93.1675,58.4159 94.4195,57.1199 C95.8855,55.6039 96.4895,53.7949 96.0175,51.6979 C95.5655,49.6979 86.2235,14.1449 85.8775,12.5519 C85.4965,10.7959 84.9125,9.1689 83.3845,8.0479 C82.3775,7.3079 81.2635,6.8829 80.0155,6.8619 C79.0975,6.8469 48.9055,6.8579 20.9005,6.84889421 C19.6325,6.8479 18.4125,6.9759 17.2985,7.6159 C15.7275,8.5229 14.7875,9.8889 14.3795,11.6499 C14.0085,13.2539 3.8945,52.1429 3.87892452,53.0809 M99.9925,87.1749 C99.9885,90.8029 98.3745,93.5869 95.3535,95.5519 C93.9585,96.4579 92.3955,96.9559 90.7335,96.9719 C86.8645,97.0109 21.0505,96.9849 10.0745,96.999911 C7.0025,97.0039 4.4295,95.9199 2.3925,93.6269 C1.2935,92.3879 0.5455,90.9359 0.2555,89.2959 C0.1005,88.4149 0.0205,87.5089 0.0155,86.6129 C-0.0065,82.2759 -0.0095,57.8439 0.0365,52.3939 C0.0455,51.3199 0.4045,50.2449 0.6405,49.1789 C0.9175,47.9349 10.0525,13.1939 10.4785,11.5559 C10.7235,10.6059 10.9495,9.6339 11.3385,8.7379 C12.2445,6.6509 13.7665,5.1049 15.7975,4.0689 C17.2955,3.3049 18.8925,3.0189 20.5725,3.0189 C41.8435,3.0329 79.2585,2.9389 80.6735,3.0739 C84.1485,3.4089 86.7535,5.1539 88.4455,8.2289 C89.1165,9.4479 89.3895,10.7979 89.7125,12.1289 C90.0995,13.7119 99.5215,49.5999 99.7595,50.8979 C99.9195,51.7789 99.9875,52.6869 99.9885,53.5839 C99.9997456,67.2099 100.0045,73.5469 99.9925,87.1749 M67.0975,84.0049 C67.0975,83.2119 67.0995,82.4199 67.0965,81.6259 C67.0955,81.0279 67.0755,81.0059 66.4605,81.0059 C60.3745,81.0039 38.5235,81.0039 33.6835,81.0059 C32.9235,81.0059 32.9225,81.0079 32.9215,81.7439 C32.9195,82.5529 32.9475,83.3629 32.9135,84.1719 C32.8925,84.6529 33.0775,84.7709 33.5295,84.7729 C33.9705,84.7729 60.4055,84.7569 66.3615,84.7589 C67.0965,84.7609 67.0965,84.7589 67.0975,84.0049 M70.9145,79.1339 C70.9255,81.6249 70.9325,84.1179 70.9215,86.6089 C70.9175,87.7479 70.1655,88.5349 69.0245,88.5719 C67.9255,88.6079 31.7095,88.5519 30.6235,88.5159 C29.8475,88.4889 29.1235,87.6559 29.1165,86.8539 C29.0945,84.1999 29.0945,81.5459 29.1165,78.8939 C29.1245,78.0989 29.7945,77.3509 30.5925,77.2599 C31.4255,77.1659 32.2695,77.1619 33.1105,77.1609 C38.7425,77.1539 62.4695,77.1889 68.7025,77.1789 C69.6635,77.1779 70.4175,77.4809 70.7875,78.4259 C70.8745,78.6459 70.9125,78.8979 70.9145,79.1339" id="icon_crib-mattress" fill="#3A4B60"></path>
    </g>
</svg>