<?xml version="1.0" encoding="UTF-8"?>
<svg width="100px" height="100px" viewBox="0 0 100 100" version="1.1" xmlns="http://www.w3.org/2000/svg" xmlns:xlink="http://www.w3.org/1999/xlink">
    <title>icon / furniture / crib</title>
    <g id="icon-/-furniture-/-crib" stroke="none" stroke-width="1" fill="none" fill-rule="evenodd">
        <path d="M97.0319,95.5732 C97.0319,96.3772 96.3779,97.0312 95.5739,97.0312 L94.3229,97.0312 C93.5189,97.0312 92.8649,96.3772 92.8649,95.5732 L92.8649,74.2652 C92.8649,73.4462 92.1999,72.7812 91.3809,72.7812 L8.6189,72.7812 C7.7999,72.7812 7.1359,73.4462 7.1359,74.2652 L7.1359,95.5732 C7.1359,96.3782 6.4809,97.0312 5.6769,97.0312 L4.4269,97.0312 C3.6219,97.0312 2.9689,96.3782 2.9689,95.5732 L2.9689,22.6602 C2.9689,21.5112 3.9029,20.5762 5.0519,20.5762 C6.1999,20.5762 7.1349,21.5112 7.1349,22.6602 L7.1349,66.5162 C7.1349,67.3362 7.7999,68.0002 8.6189,68.0002 L91.3809,68.0002 C92.1999,68.0002 92.8649,67.3362 92.8649,66.5162 L92.8649,22.9682 C92.8649,21.8112 93.7639,20.8392 94.8709,20.8002 C95.4419,20.7822 95.9839,20.9872 96.3949,21.3832 C96.8049,21.7792 97.0319,22.3112 97.0319,22.8822 L97.0319,95.5732 Z M89.8969,81.7632 C89.7909,81.7692 89.6839,81.7722 89.5779,81.7722 C86.2009,81.7722 83.4399,79.0942 83.3039,75.7502 L89.8969,75.7502 L89.8969,81.7632 Z M10.3439,81.7722 C10.2629,81.7722 10.1829,81.7692 10.1029,81.7662 L10.1029,75.7502 L16.6169,75.7502 C16.4809,79.0942 13.7189,81.7722 10.3439,81.7722 L10.3439,81.7722 Z M17.1289,56.7652 L17.1289,65.0322 L10.1029,65.0322 L10.1029,62.2502 C10.1519,62.1532 10.1939,62.0512 10.2209,61.9412 C10.9719,58.8942 13.6929,56.7652 16.8369,56.7652 L17.1289,56.7652 Z M10.1029,41.5142 L17.1289,41.5142 L17.1289,53.7982 L16.8369,53.7982 C14.2539,53.7982 11.8719,54.8002 10.1029,56.4762 L10.1029,41.5142 Z M20.0969,65.0322 L23.5219,65.0322 L23.5219,41.5142 L20.0969,41.5142 L20.0969,65.0322 Z M26.4899,65.0322 L31.2259,65.0322 L31.2259,56.7652 L26.4899,56.7652 L26.4899,65.0322 Z M26.4899,53.7972 L31.2259,53.7972 L31.2259,41.5142 L26.4899,41.5142 L26.4899,53.7972 Z M34.1939,65.0322 L37.6189,65.0322 L37.6189,41.5142 L34.1939,41.5142 L34.1939,65.0322 Z M45.3239,56.7652 L45.3239,65.0322 L40.5879,65.0322 L40.5879,56.7632 C40.5999,56.7642 40.6119,56.7652 40.6249,56.7652 L45.3239,56.7652 Z M40.6249,53.7982 C40.6119,53.7982 40.5999,53.7992 40.5879,53.8002 L40.5879,41.5142 L45.3239,41.5142 L45.3239,53.7982 L40.6249,53.7982 Z M48.2919,65.0322 L51.7169,65.0322 L51.7169,41.5142 L48.2919,41.5142 L48.2919,65.0322 Z M54.6849,65.0322 L59.4209,65.0322 L59.4209,56.7652 L54.6849,56.7652 L54.6849,65.0322 Z M54.6839,53.7972 L59.4199,53.7972 L59.4199,41.5142 L54.6839,41.5142 L54.6839,53.7972 Z M62.3879,65.0322 L65.8139,65.0322 L65.8139,41.5142 L62.3879,41.5142 L62.3879,65.0322 Z M68.7819,65.0322 L73.5179,65.0322 L73.5179,56.7652 L68.7819,56.7652 L68.7819,65.0322 Z M68.7819,53.7972 L73.5179,53.7972 L73.5179,41.5142 L68.7819,41.5142 L68.7819,53.7972 Z M76.4859,65.0322 L79.9109,65.0322 L79.9109,41.5142 L76.4859,41.5142 L76.4859,65.0322 Z M82.8789,53.7992 L82.8789,41.5142 L89.8959,41.5142 L89.8959,56.5702 C88.1349,54.8562 85.7309,53.7972 83.0839,53.7972 L82.9169,53.7972 C82.9039,53.7972 82.8909,53.7992 82.8789,53.7992 L82.8789,53.7992 Z M82.8799,56.7632 C82.8919,56.7642 82.9039,56.7652 82.9169,56.7652 L83.0839,56.7652 C86.8409,56.7652 89.8969,59.8222 89.8969,63.5782 L89.8969,65.0322 L82.8799,65.0322 L82.8799,56.7632 Z M10.1029,38.5462 L89.8969,38.5462 L89.8969,35.3632 L10.1029,35.3632 L10.1029,38.5462 Z M35.1149,16.5002 C35.9989,16.5002 36.7189,17.2192 36.7189,18.1032 C36.7189,18.9872 35.9989,19.7062 35.1149,19.7062 C34.2309,19.7062 33.5119,18.9872 33.5119,18.1032 C33.5119,17.2192 34.2309,16.5002 35.1149,16.5002 L35.1149,16.5002 Z M21.1509,18.1032 C21.1509,18.9872 20.4319,19.7062 19.5489,19.7062 C18.6649,19.7062 17.9449,18.9872 17.9449,18.1032 C17.9449,17.2192 18.6649,16.5002 19.5489,16.5002 C20.4319,16.5002 21.1509,17.2192 21.1509,18.1032 L21.1509,18.1032 Z M98.4559,19.2472 C97.4609,18.2862 96.1489,17.7852 94.7649,17.8342 C92.0359,17.9312 89.8969,20.1862 89.8969,22.9682 L89.8969,32.3952 L10.1029,32.3952 L10.1029,22.6602 C10.1029,20.3912 8.5989,18.4672 6.5359,17.8312 L6.5359,2.9682 L25.7649,2.9682 L25.7649,7.5192 L23.5819,7.5192 C20.4299,7.5192 17.8669,10.0832 17.8669,13.2352 L17.8669,13.8542 C16.1769,14.5262 14.9769,16.1772 14.9769,18.1032 C14.9769,20.6232 17.0279,22.6742 19.5489,22.6742 C22.0689,22.6742 24.1199,20.6232 24.1199,18.1032 C24.1199,16.0292 22.7309,14.2752 20.8349,13.7182 L20.8349,13.2352 C20.8349,11.7192 22.0669,10.4872 23.5819,10.4872 L30.6849,10.4872 C32.2009,10.4872 33.4329,11.7192 33.4329,13.2352 L33.4329,13.8542 C31.7429,14.5262 30.5449,16.1772 30.5449,18.1032 C30.5449,20.6232 32.5939,22.6742 35.1149,22.6742 C37.6359,22.6742 39.6859,20.6232 39.6859,18.1032 C39.6859,16.0292 38.2979,14.2752 36.4009,13.7182 L36.4009,13.2352 C36.4009,10.0832 33.8379,7.5192 30.6849,7.5192 L28.7329,7.5192 L28.7329,1.4842 C28.7329,0.6642 28.0679,0.0002 27.2489,0.0002 L5.0519,0.0002 C4.2319,0.0002 3.5669,0.6642 3.5669,1.4842 L3.5669,17.8312 C1.5039,18.4672 -0.0001,20.3912 -0.0001,22.6602 L-0.0001,95.5732 C-0.0001,98.0142 1.9859,100.0002 4.4269,100.0002 L5.6769,100.0002 C8.1169,100.0002 10.1029,98.0142 10.1029,95.5732 L10.1029,84.7342 C10.1829,84.7362 10.2629,84.7402 10.3439,84.7402 C15.3559,84.7402 19.4479,80.7302 19.5849,75.7502 L80.3369,75.7502 C80.4729,80.7302 84.5639,84.7402 89.5779,84.7402 C89.6839,84.7402 89.7909,84.7352 89.8969,84.7322 L89.8969,95.5732 C89.8969,98.0142 91.8829,100.0002 94.3229,100.0002 L95.5739,100.0002 C98.0139,100.0002 99.9999,98.0142 99.9999,95.5732 L99.9999,22.8822 C99.9999,21.4992 99.4519,20.2082 98.4559,19.2472 L98.4559,19.2472 Z" id="Fill-1" fill="#3A4B60"></path>
    </g>
</svg>