<?xml version="1.0" encoding="UTF-8"?>
<svg width="100px" height="100px" viewBox="0 0 100 100" version="1.1" xmlns="http://www.w3.org/2000/svg">
    <title>icon / furniture / curio-cabinet</title>
    <g id="icon-/-furniture-/-curio-cabinet" stroke="none" stroke-width="1" fill="none" fill-rule="evenodd">
        <path d="M27.929,72.252 L72.07,72.252 L72.07,2.93 L27.929,2.93 L27.929,72.252 Z M27.929,87.211 L72.07,87.211 L72.07,75.182 L27.929,75.182 L27.929,87.211 Z M70.418,97.07 L61.746,97.07 L61.746,94.364 C61.746,93.555 61.091,92.899 60.281,92.899 L39.133,92.899 C38.324,92.899 37.668,93.555 37.668,94.364 L37.668,97.07 L29.582,97.07 L29.582,90.141 L70.418,90.141 L70.418,97.07 Z M75,2.413 C75,1.082 73.931,0 72.617,0 L27.383,0 C26.069,0 25,1.082 25,2.413 L25,72.769 C25,73.106 25.069,73.426 25.192,73.717 C25.069,74.008 25,74.329 25,74.665 L25,87.729 C25,88.801 25.695,89.711 26.652,90.024 L26.652,97.587 C26.652,98.917 27.721,100 29.035,100 L38.215,100 C39.529,100 40.597,98.917 40.597,97.587 L40.597,95.829 L58.816,95.829 L58.816,97.587 C58.816,98.917 59.885,100 61.199,100 L70.965,100 C72.279,100 73.347,98.917 73.347,97.587 L73.347,90.024 C74.305,89.711 75,88.801 75,87.729 L75,74.665 C75,74.33 74.931,74.008 74.807,73.717 C74.931,73.426 75,73.106 75,72.769 L75,2.413 Z M44.863,81.301 C44.863,80.492 45.519,79.836 46.328,79.836 L53.672,79.836 C54.481,79.836 55.136,80.492 55.136,81.301 C55.136,82.11 54.481,82.766 53.672,82.766 L46.328,82.766 C45.519,82.766 44.863,82.11 44.863,81.301 L44.863,81.301 Z M35.273,48.536 L64.695,48.536 L64.695,64.668 L52.199,64.668 L52.199,55.706 C52.199,54.375 51.131,53.293 49.816,53.293 L46.144,53.293 C45.819,53.293 45.509,53.36 45.226,53.48 C44.944,53.36 44.634,53.293 44.308,53.293 L40.051,53.293 C38.737,53.293 37.668,54.375 37.668,55.706 L37.668,64.668 L35.273,64.668 L35.273,48.536 Z M35.273,10.513 L64.695,10.513 L64.695,24.647 L54.035,24.647 L54.035,17.58 C54.035,16.249 52.967,15.167 51.652,15.167 L41.886,15.167 C40.573,15.167 39.504,16.249 39.504,17.581 L39.504,24.647 L35.273,24.647 L35.273,10.513 Z M43.019,24.647 L51.105,24.647 L51.105,18.097 L43.019,18.097 L43.019,24.647 Z M56.264,41.097 C57.132,41.432 57.715,42.309 57.715,43.279 C57.715,44.562 56.724,45.606 55.508,45.606 L52.57,45.606 C51.353,45.606 50.363,44.562 50.363,43.279 C50.363,42.309 50.946,41.432 51.813,41.097 C52.378,40.878 52.75,40.335 52.75,39.731 L52.75,35.264 L55.328,35.264 L55.328,39.731 C55.328,40.335 55.7,40.878 56.264,41.097 L56.264,41.097 Z M64.695,45.606 L60.112,45.606 C60.452,44.904 60.644,44.114 60.644,43.279 C60.644,41.469 59.717,39.796 58.258,38.844 L58.258,35.158 C58.796,34.941 59.176,34.414 59.176,33.799 C59.176,32.99 58.52,32.334 57.711,32.334 L50.367,32.334 C49.558,32.334 48.902,32.99 48.902,33.799 C48.902,34.414 49.283,34.941 49.82,35.158 L49.82,38.844 C48.361,39.796 47.433,41.469 47.433,43.279 C47.433,44.114 47.626,44.904 47.967,45.606 L35.273,45.606 L35.273,27.577 L64.695,27.577 L64.695,45.606 Z M46.691,64.668 L49.269,64.668 L49.269,56.223 L46.691,56.223 L46.691,64.668 Z M40.597,64.668 L43.761,64.668 L43.761,56.223 L40.597,56.223 L40.597,64.668 Z M33.808,67.598 L66.16,67.598 C66.969,67.598 67.625,66.943 67.625,66.133 L67.625,9.048 C67.625,8.24 66.969,7.583 66.16,7.583 L33.808,7.583 C33,7.583 32.343,8.239 32.343,9.048 L32.343,66.133 C32.343,66.943 33,67.598 33.808,67.598 L33.808,67.598 Z"
              id="Fill-1" fill="#3A4B60"></path>
    </g>
</svg>