<?xml version="1.0" encoding="UTF-8"?>
<svg width="100px" height="100px" viewBox="0 0 100 100" version="1.1" xmlns="http://www.w3.org/2000/svg" xmlns:xlink="http://www.w3.org/1999/xlink">
    <title>icon / furniture / daybed</title>
    <g id="icon-/-furniture-/-daybed" stroke="none" stroke-width="1" fill="none" fill-rule="evenodd">
        <path d="M42.0564,65.825 L42.0564,62.827 C42.0564,61.952 42.7674,61.241 43.6424,61.241 C44.5164,61.241 45.2294,61.952 45.2294,62.827 L45.2294,64.239 L56.6344,64.239 L56.6344,62.827 C56.6344,61.952 57.3464,61.241 58.2204,61.241 C59.0954,61.241 59.8074,61.952 59.8074,62.827 L59.8074,65.825 C59.8074,66.699 59.0954,67.412 58.2204,67.412 L43.6424,67.412 C42.7674,67.412 42.0564,66.699 42.0564,65.825 L42.0564,65.825 Z M92.1114,74.328 L96.8274,74.328 L96.8274,30.673 L92.1114,30.673 L92.1114,74.328 Z M11.0624,42.906 L11.0624,38.019 C19.7344,37.44 26.0524,34.291 32.1744,31.236 C37.8744,28.39 43.2594,25.702 49.9504,25.702 C56.6414,25.702 62.0264,28.39 67.7264,31.236 C73.8704,34.303 80.2104,37.465 88.9394,38.025 L88.9394,42.906 L11.0624,42.906 Z M11.0624,54.251 L88.9394,54.251 L88.9394,46.08 L11.0624,46.08 L11.0624,54.251 Z M11.0624,74.328 L88.9394,74.328 L88.9394,57.424 L11.0624,57.424 L11.0624,74.328 Z M7.8504,74.328 L3.1734,74.328 L3.1734,30.673 L7.8904,30.673 L7.8504,74.328 Z M98.4134,27.5 L90.5254,27.5 C89.6504,27.5 88.9394,28.212 88.9394,29.087 L88.9394,34.811 C80.9304,34.236 74.9504,31.262 69.1564,28.37 C63.1064,25.351 57.3914,22.5 49.9504,22.5 C42.5094,22.5 36.7954,25.35 30.7434,28.371 C24.9754,31.25 19.0214,34.21 11.0624,34.802 L11.0624,29.087 C11.0624,28.212 10.3504,27.5 9.4764,27.5 L1.5864,27.5 C0.7124,27.5 -0.0006,28.212 -0.0006,29.087 L-0.0006,75.914 C-0.0006,76.789 0.7124,77.5 1.5864,77.5 L98.4134,77.5 C99.2884,77.5 99.9994,76.789 99.9994,75.914 L99.9994,29.087 C99.9994,28.212 99.2884,27.5 98.4134,27.5 L98.4134,27.5 Z" id="icon_daybed" fill="#3A4B60"></path>
    </g>
</svg>