<?xml version="1.0" encoding="UTF-8"?>
<svg width="100px" height="100px" viewBox="0 0 100 100" version="1.1" xmlns="http://www.w3.org/2000/svg" xmlns:xlink="http://www.w3.org/1999/xlink">
    <!-- Generator: Sketch 63.1 (92452) - https://sketch.com -->
    <title>icon / furniture / default</title>
    <desc>Created with Sketch.</desc>
    <g id="icon-/-furniture-/-default" stroke="none" stroke-width="1" fill="none" fill-rule="evenodd">
        <path d="M83.2285,41.3017 C84.2285,41.3017 85.1705,41.6937 85.8815,42.4047 C86.5359615,43.0591615 86.9186124,43.9121556 86.9736092,44.8276131 L86.9805,45.0577 L86.9805,46.3577 L90.8755,46.3577 C91.5505,46.3577 92.0995,46.9067 92.0995,47.5817 C92.0995,48.217325 91.6169805,48.7413289 91.0004827,48.8043465 L90.8755,48.8107 L86.9805,48.8107 L86.9805,51.8197 C87.8565,52.0397 88.6545,52.4927 89.2985,53.1377 C90.1870333,54.0253 90.7027311,55.1820733 90.7675418,56.4185824 L90.7745,56.6847 L90.7745,65.1707 L93.3815,65.1707 C93.8009,65.1707 94.18142,65.37887 94.404233,65.721581 L94.4725,65.8407 L99.8355,75.2257 C100.0555,75.6077 100.0545,76.0627 99.8335,76.4457 C99.6352778,76.7870333 99.3003642,77.0074778 98.9186578,77.0522514 L98.7735,77.0607 L94.6055,77.0607 L94.6055,98.7717 C94.6055,99.4063875 94.1229805,99.9303328 93.5064827,99.9933467 L93.3815,99.9997 L39.4535,99.9997 C38.817875,99.9997 38.29475,99.5154227 38.2318423,98.8970572 L38.2255,98.7717 L38.2255,77.0607 L34.0615,77.0607 C33.6205,77.0607 33.2245,76.8307 33.0015,76.4477 C32.8041667,76.1090333 32.7798704,75.7103173 32.9300158,75.3569016 L32.9945,75.2267 L38.3655,65.8277 C38.55,65.4668 38.90784,65.22335 39.315819,65.178269 L39.4535,65.1707 L41.0415,65.1707 L41.0415,47.8367 C41.0415,46.8367 41.4335,45.8947 42.1445,45.1837 C42.7961923,44.5273923 43.6489734,44.1428953 44.5644144,44.0876254 L44.7945,44.0807 L62.8765,44.0807 C63.8755,44.0807 64.8185,44.4727 65.5295,45.1837 C66.1858077,45.8400077 66.5703047,46.6931438 66.6255746,47.6070391 L66.6325,47.8367 L66.6325,51.9197 L67.1765,51.9197 C68.1785,51.9197 69.1205,52.3107 69.8295,53.0197 C70.4839615,53.6778538 70.8666124,54.531132 70.9216092,55.4434651 L70.9285,55.6727 L70.9285,59.6407 L71.9815,65.1707 L73.4075,65.1707 L73.4075,56.6847 C73.4075,55.3467 73.9305,54.0867 74.8795,53.1377 C75.46,52.5572 76.16443,52.13222 76.938115,51.892649 L77.1985,51.8197 L77.1985,45.0577 C77.1985,44.0577 77.5895,43.1147 78.3015,42.4047 C78.9578077,41.7483923 79.8100917,41.3638953 80.7214964,41.3086254 L80.9505,41.3017 L83.2285,41.3017 Z M30.0058,-0.0004 C31.3138,-0.0004 32.4928,0.8676 33.0068,2.2146 C34.0648,4.9826 37.9768,15.5866 40.0798,21.2826 L40.0798,21.2826 L41.3788,24.8016 C41.7548,25.8286 41.7028,26.6976 41.2238,27.3836 C40.7308,28.0916 39.8888,28.4506 38.7278,28.4506 L38.7278,28.4506 L24.8918,28.4506 L24.8918,93.5836 L31.3568,93.5836 C33.1278,93.5836 34.5698,95.0216 34.5698,96.7916 C34.5698,98.5626 33.1278,99.9996 31.3568,99.9996 L31.3568,99.9996 L10.2558,99.9996 C8.4858,99.9996 7.0478,98.5626 7.0478,96.7916 C7.0478,95.0216 8.4858,93.5836 10.2558,93.5836 L10.2558,93.5836 L16.7218,93.5836 L16.7268,28.4506 L9.8808,28.4506 L9.8808,38.4546 C11.0028,38.9636 11.7328,40.0656 11.7328,41.3176 C11.7328,43.0526 10.3208,44.4646 8.5848,44.4646 C6.8448,44.4646 5.4328,43.0526 5.4328,41.3176 C5.4328,40.0656 6.1668,38.9596 7.2938,38.4546 L7.2938,38.4546 L7.2938,28.4506 L2.8938,28.4506 C1.7408,28.4506 0.9078,28.0956 0.4118,27.4056 C-0.0682,26.7226 -0.1282,25.8556 0.2298,24.8236 C1.4608,21.2906 6.7848,7.0466 8.6108,2.2196 C9.1208,0.8716 10.2988,-0.0004 11.6118,-0.0004 L11.6118,-0.0004 Z M53.8915,71.0127 L53.8915,97.5477 L92.1535,97.5477 L92.1535,77.0607 L58.0595,77.0607 C57.6428,77.0607 57.26174,76.85253 57.035147,76.50909 L56.9655,76.3897 L53.8915,71.0127 Z M51.4385,71.0127 L48.3585,76.3997 C48.1731,76.7633 47.81517,77.00783 47.407911,77.0531 L47.2705,77.0607 L40.6775,77.0607 L40.6775,97.5477 L51.4385,97.5477 L51.4385,71.0127 Z M31.7468,96.1696 L10.6458,96.1696 C10.3038,96.1696 10.0238,96.4506 10.0238,96.7916 C10.0238,97.1376 10.3038,97.4136 10.6458,97.4136 L10.6458,97.4136 L31.7468,97.4136 C32.0918,97.4136 32.3728,97.1376 32.3728,96.7916 C32.3728,96.4506 32.0918,96.1696 31.7468,96.1696 L31.7468,96.1696 Z M22.3048,28.4506 L19.3128,28.4506 L19.3128,93.5846 L22.3048,93.5846 L22.3048,28.4506 Z M71.7896,89.7744 C72.4646,89.7744 73.0136,90.3244 73.0136,90.9994 C73.0136,91.63315 72.5310805,92.1570367 71.9145827,92.220047 L71.7896,92.2264 L58.0596,92.2264 C57.3816,92.2264 56.8316,91.6754 56.8316,90.9994 C56.8316,90.3665875 57.3149984,89.8436383 57.934078,89.7807416 L58.0596,89.7744 L71.7896,89.7744 Z M78.4148,85.3486 C79.0918,85.3486 79.6428,85.8996 79.6428,86.5776 C79.6428,87.209475 79.1585227,87.7323656 78.5401572,87.7952587 L78.4148,87.8016 L58.0588,87.8016 C57.3818,87.8016 56.8308,87.2516 56.8308,86.5776 C56.8308,85.941975 57.3150773,85.4179711 57.9334428,85.3549535 L58.0588,85.3486 L78.4148,85.3486 Z M78.4148,80.9277 C79.0918,80.9277 79.6428,81.4767 79.6428,82.1517 C79.6428,82.7863875 79.1585227,83.3103328 78.5401572,83.3733467 L78.4148,83.3797 L58.0588,83.3797 C57.3818,83.3797 56.8308,82.8287 56.8308,82.1517 C56.8308,81.5188875 57.3150773,80.9968172 57.9334428,80.9340303 L58.0588,80.9277 L78.4148,80.9277 Z M92.6715,67.6227 L54.7765,67.6227 L58.7685,74.6047 L96.6595,74.6047 L92.6715,67.6227 Z M50.5525,67.6227 L40.1625,67.6227 L36.1715,74.6047 L46.5605,74.6047 L50.5525,67.6227 Z M62.8755,46.5367 L44.7945,46.5367 C44.4979286,46.5367 44.2167857,46.6358837 43.9882259,46.8191373 L43.8785,46.9177 L43.779086,47.0285892 C43.6249752,47.2207904 43.5293921,47.4484872 43.501812,47.6901781 L43.4935,47.8367 L43.4935,65.1707 L56.1135,65.1707 L57.1675,59.5937 L57.1635,55.6727 C57.1635,54.6727 57.5545,53.7307 58.2665,53.0197 C58.9209615,52.3652385 59.7739556,51.9817355 60.6894131,51.9266076 L60.9195,51.9197 L64.1795,51.9197 L64.1795,47.8367 C64.1795,47.4947 64.0425,47.1687 63.7945,46.9167 C63.5505,46.6717 63.2235,46.5367 62.8755,46.5367 Z M68.6885,60.9427 L59.4035,60.9427 L58.6045,65.1707 L69.4875,65.1707 L68.6885,60.9427 Z M85.7555,54.1177 L78.4255,54.1177 C77.7415,54.1177 77.0985,54.3867 76.6135,54.8737 C76.1752,55.3129 75.9151,55.87684 75.867463,56.481685 L75.8595,56.6847 L75.8595,65.1707 L88.3185,65.1707 L88.3185,56.6847 C88.3185,56.0007 88.0515,55.3587 87.5655,54.8757 C87.0795,54.3867 86.4375,54.1177 85.7555,54.1177 Z M85.756,56.087 C86.3888125,56.087 86.9108828,56.5703984 86.9736697,57.1861821 L86.98,57.311 L86.98,61.977 C86.98,62.608875 86.4974805,63.1317656 85.8809827,63.1946587 L85.756,63.201 L78.426,63.201 C77.7913125,63.201 77.2673672,62.7176016 77.2043533,62.1018179 L77.198,61.977 L77.198,57.311 C77.198,56.679125 77.6822773,56.1562344 78.3006428,56.0933413 L78.426,56.087 L85.756,56.087 Z M84.528,58.54 L79.65,58.54 L79.65,60.749 L84.528,60.749 L84.528,58.54 Z M67.1755,54.3727 L60.9195,54.3727 C60.5725,54.3727 60.2455,54.5077 60.0005,54.7527 C59.7879286,54.9678429 59.6569082,55.2388224 59.623812,55.5272248 L59.6155,55.6727 L59.6155,58.4897 L68.4765,58.4897 L68.4765,55.6727 C68.4765,55.3267 68.3395,55.0007 68.0915,54.7527 C67.8465,54.5077 67.5215,54.3727 67.1755,54.3727 Z M83.2275,43.7537 L80.9505,43.7537 C80.6075,43.7537 80.2825,43.8907 80.0345,44.1377 C79.8219286,44.3485571 79.6916429,44.6181898 79.6587566,44.9100732 L79.6505,45.0577 L79.6505,51.6647 L84.5285,51.6647 L84.5285,45.0577 C84.5285,44.7097 84.3915,44.3837 84.1445,44.1387 C83.8955,43.8907 83.5705,43.7537 83.2275,43.7537 Z M8.5848,40.7516 C8.2738,40.7516 8.0198,41.0066 8.0198,41.3176 C8.0198,41.6236 8.2738,41.8786 8.5848,41.8786 C8.8958,41.8786 9.1458,41.6236 9.1458,41.3176 C9.1458,41.0066 8.8958,40.7516 8.5848,40.7516 Z M30.0058,2.5856 L11.6118,2.5856 C11.3828,2.5856 11.1538,2.7976 11.0248,3.1386 C9.1338,8.1386 3.8308,22.3406 2.6738,25.6736 C2.6528,25.7426 2.6348,25.7986 2.6218,25.8466 C2.6908,25.8556 2.7818,25.8596 2.8938,25.8596 L2.8938,25.8596 L38.7278,25.8596 C38.8398,25.8596 38.9308,25.8556 38.9998,25.8466 C38.9868,25.8036 38.9698,25.7556 38.9478,25.6956 L38.9478,25.6956 L38.0108,23.1476 C36.1288,18.0526 31.7288,6.1226 30.5888,3.1386 C30.4588,2.8066 30.2348,2.5856 30.0058,2.5856 L30.0058,2.5856 Z" id="icon_default" fill="#3A4B60"></path>
    </g>
</svg>