<?xml version="1.0" encoding="UTF-8"?>
<svg width="100px" height="100px" viewBox="0 0 100 100" version="1.1" xmlns="http://www.w3.org/2000/svg">
    <title>icon / furniture / desk</title>
    <g id="icon-/-furniture-/-desk" stroke="none" stroke-width="1" fill="none" fill-rule="evenodd">
        <path d="M74.7185,32.7598 C74.7185,31.9558 75.3685,31.3048 76.1735,31.3048 L79.9975,31.3048 C80.8015,31.3048 81.4525,31.9558 81.4525,32.7598 C81.4525,33.5638 80.8015,34.2138 79.9975,34.2138 L76.1735,34.2138 C75.3685,34.2138 74.7185,33.5638 74.7185,32.7598 L74.7185,32.7598 Z M74.7185,46.6658 C74.7185,45.8618 75.3685,45.2108 76.1735,45.2108 L79.9975,45.2108 C80.8015,45.2108 81.4525,45.8618 81.4525,46.6658 C81.4525,47.4698 80.8015,48.1198 79.9975,48.1198 L76.1735,48.1198 C75.3685,48.1198 74.7185,47.4698 74.7185,46.6658 L74.7185,46.6658 Z M2.9085,27.1678 L97.0905,27.1678 L97.0905,22.9088 L2.9085,22.9088 L2.9085,27.1678 Z M64.1365,40.9788 L92.0315,40.9788 L92.0315,30.0778 L64.1365,30.0778 L64.1365,40.9788 Z M64.1365,55.5378 L92.0315,55.5378 L92.0315,43.8878 L64.1365,43.8878 L64.1365,55.5378 Z M87.1005,77.0908 L92.0315,77.0908 L92.0315,58.4468 L87.1005,58.4468 L87.1005,77.0908 Z M8.5845,77.0908 L13.5155,77.0908 L13.5155,30.0768 L8.5845,30.0768 L8.5845,77.0908 Z M97.5755,19.9998 L2.4245,19.9998 C1.0865,19.9998 -0.0005,21.0868 -0.0005,22.4238 L-0.0005,27.6528 C-0.0005,28.9888 1.0865,30.0768 2.4245,30.0768 L5.6755,30.0768 L5.6755,77.5758 C5.6755,78.9128 6.7625,79.9998 8.0995,79.9998 L13.9995,79.9998 C15.3365,79.9998 16.4245,78.9128 16.4245,77.5758 L16.4245,30.0768 L61.2285,30.0768 L61.2285,56.0228 C61.2285,57.3598 62.3165,58.4468 63.6525,58.4468 L84.1925,58.4468 L84.1925,77.5758 C84.1925,78.9128 85.2805,79.9998 86.6165,79.9998 L92.5175,79.9998 C93.8545,79.9998 94.9415,78.9128 94.9415,77.5758 L94.9415,30.0768 L97.5755,30.0768 C98.9125,30.0768 99.9995,28.9888 99.9995,27.6528 L99.9995,22.4238 C99.9995,21.0868 98.9125,19.9998 97.5755,19.9998 L97.5755,19.9998 Z"
              id="icon_desk" fill="#3A4B60"></path>
    </g>
</svg>