<?xml version="1.0" encoding="UTF-8"?>
<svg width="100px" height="100px" viewBox="0 0 100 100" version="1.1" xmlns="http://www.w3.org/2000/svg" xmlns:xlink="http://www.w3.org/1999/xlink">
    <title>icon / furniture / dining-table</title>
    <g id="icon-/-furniture-/-dining-table" stroke="none" stroke-width="1" fill="none" fill-rule="evenodd">
        <path d="M96.1954,30.0094 L3.8044,30.0094 C3.1584,30.0094 2.6324,29.4844 2.6324,28.8384 L2.6324,28.8044 C2.6324,28.1584 3.1584,27.6334 3.8044,27.6334 L96.1954,27.6334 C96.8414,27.6334 97.3674,28.1584 97.3674,28.8044 L97.3674,28.8384 C97.3674,29.4844 96.8414,30.0094 96.1954,30.0094 L96.1954,30.0094 Z M44.0944,32.6424 L60.3164,32.6424 C57.9674,35.1374 55.1554,36.4854 52.2054,36.4854 C49.2564,36.4854 46.4424,35.1374 44.0944,32.6424 L44.0944,32.6424 Z M89.2504,72.3664 L85.4724,72.3664 C83.8194,72.3664 82.3834,71.1714 82.0594,69.5254 C79.2614,55.3214 66.7064,45.0104 52.2054,45.0104 C37.7044,45.0104 25.1494,55.3214 22.3514,69.5254 C22.0274,71.1724 20.5914,72.3664 18.9384,72.3664 L15.1614,72.3664 L33.6164,32.6424 L40.6744,32.6424 C43.7554,36.8244 47.8264,39.1174 52.2054,39.1174 C56.5844,39.1174 60.6564,36.8244 63.7364,32.6424 L70.8004,32.6424 L89.2504,72.3664 Z M96.1954,24.9994 L3.8044,24.9994 C1.7074,24.9994 0.0004,26.7064 0.0004,28.8044 L0.0004,28.8384 C0.0004,30.9364 1.7074,32.6424 3.8044,32.6424 L30.7134,32.6424 L11.9044,73.1294 C11.7154,73.5364 11.7464,74.0134 11.9884,74.3914 C12.2294,74.7714 12.6484,74.9994 13.0974,74.9994 L18.9374,74.9994 C21.8454,74.9994 24.3684,72.9114 24.9344,70.0334 C27.4904,57.0604 38.9594,47.6434 52.2044,47.6434 C65.4514,47.6434 76.9214,57.0604 79.4764,70.0334 C80.0434,72.9114 82.5644,74.9994 85.4724,74.9994 L91.3124,74.9994 C91.7624,74.9994 92.1804,74.7714 92.4234,74.3914 C92.6644,74.0134 92.6964,73.5364 92.5074,73.1294 L73.7044,32.6434 L96.1954,32.6434 C98.2934,32.6434 100.0004,30.9364 100.0004,28.8384 L100.0004,28.8054 C100.0004,26.7064 98.2934,24.9994 96.1954,24.9994 L96.1954,24.9994 Z" id="icon_dining-table" fill="#3A4B60"></path>
    </g>
</svg>