<?xml version="1.0" encoding="UTF-8"?>
<svg width="100px" height="100px" viewBox="0 0 100 100" version="1.1" xmlns="http://www.w3.org/2000/svg">
    <title>icon / furniture / dog-crate</title>
    <g id="icon-/-furniture-/-dog-crate" stroke="none" stroke-width="1" fill="none" fill-rule="evenodd">
        <path d="M97.0699,58.72 C97.0699,59.058 96.7949,59.333 96.4569,59.333 L60.6639,59.333 L60.6639,55.237 L78.4659,55.237 C78.4669,55.237 78.4689,55.238 78.4699,55.238 C78.4719,55.238 78.4739,55.237 78.4759,55.237 L95.3249,55.237 C95.3259,55.237 95.3279,55.238 95.3299,55.238 C95.3309,55.238 95.3339,55.237 95.3349,55.237 L96.4569,55.237 C96.7949,55.237 97.0699,55.512 97.0699,55.851 L97.0699,58.72 Z M78.8849,87.071 L21.1149,87.071 C16.3899,87.071 12.2519,83.88 11.0509,79.311 L6.5699,62.263 L39.4759,62.263 C39.9699,64.167 41.7039,65.577 43.7599,65.577 L56.2399,65.577 C58.2969,65.577 60.0299,64.167 60.5229,62.263 L93.4299,62.263 L88.9489,79.311 C87.7479,83.88 83.6099,87.071 78.8849,87.071 L78.8849,87.071 Z M2.9289,58.72 L2.9289,55.851 C2.9289,55.512 3.2049,55.237 3.5429,55.237 L4.6659,55.237 C4.6669,55.237 4.6699,55.238 4.6709,55.238 C4.6729,55.238 4.6739,55.237 4.6749,55.237 L21.5239,55.237 C21.5249,55.237 21.5279,55.238 21.5289,55.238 C21.5309,55.238 21.5329,55.237 21.5339,55.237 L39.3369,55.237 L39.3369,59.333 L3.5429,59.333 C3.2049,59.333 2.9289,59.058 2.9289,58.72 L2.9289,58.72 Z M29.9809,37.942 L29.9809,52.307 L23.4279,52.307 L26.1949,41.781 C26.6739,39.962 27.9989,38.453 29.7409,37.744 C29.7619,37.736 29.8109,37.715 29.8839,37.764 C29.9209,37.788 29.9809,37.844 29.9809,37.942 L29.9809,37.942 Z M56.2399,48.993 L54.5009,48.993 L54.5009,37.811 C54.5009,37.53 54.7289,37.3 55.0099,37.3 L60.5069,37.3 C60.7889,37.3 61.0169,37.53 61.0169,37.811 L61.0169,52.307 L60.5229,52.307 C60.0299,50.403 58.2969,48.993 56.2399,48.993 L56.2399,48.993 Z M39.4759,52.307 L38.9819,52.307 L38.9819,37.811 C38.9819,37.53 39.2119,37.3 39.4919,37.3 L44.9899,37.3 C45.2699,37.3 45.4999,37.53 45.4999,37.811 L45.4999,48.993 L43.7599,48.993 C41.7039,48.993 39.9699,50.403 39.4759,52.307 L39.4759,52.307 Z M42.2659,53.417 C42.2659,52.593 42.9359,51.923 43.7599,51.923 L56.2399,51.923 C57.0639,51.923 57.7339,52.593 57.7339,53.417 L57.7339,61.154 C57.7339,61.978 57.0629,62.648 56.2399,62.648 L43.7599,62.648 C42.9369,62.648 42.2659,61.978 42.2659,61.154 L42.2659,53.417 Z M76.5719,52.307 L70.0189,52.307 L70.0189,37.942 C70.0189,37.844 70.0799,37.788 70.1159,37.764 C70.1889,37.715 70.2379,37.736 70.2589,37.744 C72.0019,38.453 73.3269,39.962 73.8039,41.781 L76.5719,52.307 Z M8.8789,43.521 C11.3589,34.088 19.9019,27.5 29.6559,27.5 L34.1269,27.5 L34.1289,27.5 L34.1309,27.5 L40.1449,27.5 L40.1459,27.5 L40.1489,27.5 L59.8509,27.5 L59.8529,27.5 L59.8549,27.5 L65.8699,27.5 L65.8719,27.5 L65.8739,27.5 L70.3429,27.5 C80.0979,27.5 88.6409,34.088 91.1209,43.521 L93.4299,52.307 L79.6009,52.307 L76.6379,41.035 C75.9269,38.331 73.9569,36.086 71.3649,35.032 C70.4159,34.645 69.3379,34.757 68.4809,35.333 C67.6089,35.919 67.0899,36.895 67.0899,37.942 L67.0899,52.307 L63.9479,52.307 L63.9479,37.811 C63.9479,35.914 62.4049,34.37 60.5079,34.37 L55.0109,34.37 C53.1149,34.37 51.5719,35.914 51.5719,37.811 L51.5719,48.993 L48.4279,48.993 L48.4279,37.811 C48.4279,35.914 46.8849,34.37 44.9889,34.37 L39.4919,34.37 C37.5949,34.37 36.0519,35.914 36.0519,37.811 L36.0519,52.307 L32.9099,52.307 L32.9099,37.942 C32.9099,36.895 32.3899,35.919 31.5189,35.333 C30.6629,34.757 29.5849,34.645 28.6339,35.032 C26.0439,36.086 24.0729,38.331 23.3619,41.035 L20.3989,52.307 L6.5699,52.307 L8.8789,43.521 Z M58.3879,20.637 L58.3879,24.571 L41.6119,24.571 L41.6119,20.637 C41.6119,19.705 42.3699,18.948 43.2999,18.948 L56.6989,18.948 C57.6309,18.948 58.3879,19.705 58.3879,20.637 L58.3879,20.637 Z M35.5919,20.637 C35.5919,16.387 39.0499,12.93 43.2999,12.93 L56.6989,12.93 C60.9499,12.93 64.4079,16.387 64.4079,20.637 L64.4079,24.571 L64.4069,24.571 L61.3179,24.571 L61.3179,20.637 C61.3179,18.09 59.2459,16.018 56.6989,16.018 L43.2999,16.018 C40.7539,16.018 38.6809,18.09 38.6809,20.637 L38.6809,24.571 L35.5929,24.571 L35.5919,24.571 L35.5919,20.637 Z M96.4599,52.308 L93.9549,42.777 C91.1359,32.057 81.4269,24.571 70.3429,24.571 L67.3369,24.571 L67.3369,20.637 C67.3369,14.772 62.5639,10 56.6989,10 L43.2999,10 C37.4359,10 32.6639,14.772 32.6639,20.637 L32.6639,24.571 L29.6559,24.571 C18.5729,24.571 8.8639,32.057 6.0459,42.777 L3.5399,52.308 C1.5879,52.31 -0.0001,53.898 -0.0001,55.851 L-0.0001,58.72 C-0.0001,60.673 1.5879,62.261 3.5399,62.263 L8.2169,80.055 C9.7569,85.91 15.0599,90 21.1149,90 L78.8849,90 C84.9389,90 90.2439,85.91 91.7829,80.055 C91.7829,80.055 92.4449,77.536 92.4449,77.535 L96.4599,62.263 C98.4129,62.261 99.9999,60.673 99.9999,58.72 L99.9999,55.851 C99.9999,53.898 98.4129,52.31 96.4599,52.308 L96.4599,52.308 Z M63.4109,77.241 C64.0169,77.921 64.2109,78.815 63.9169,79.572 C63.7029,80.123 63.2569,80.555 62.6599,80.787 C62.0189,81.037 61.2879,81.029 60.6029,80.763 C59.9549,80.512 59.4249,80.056 59.1129,79.479 C58.6009,78.535 57.6119,77.949 56.5319,77.949 L49.9999,77.949 L48.9999,77.949 L43.4679,77.949 C42.3879,77.949 41.3989,78.535 40.8869,79.479 C40.5749,80.056 40.0459,80.512 39.3959,80.763 C38.7129,81.029 37.9809,81.037 37.3399,80.787 C36.7439,80.555 36.2979,80.123 36.0839,79.572 C35.7899,78.815 35.9829,77.921 36.5899,77.241 C37.3629,76.37 37.3629,75.057 36.5899,74.188 C35.9829,73.507 35.7899,72.615 36.0839,71.858 C36.2979,71.305 36.7439,70.873 37.3399,70.641 C37.9809,70.391 38.7119,70.4 39.3959,70.665 C40.0459,70.916 40.5749,71.372 40.8869,71.949 C41.3989,72.893 42.3879,73.48 43.4679,73.48 L48.9999,73.48 L49.9999,73.48 L56.5319,73.48 C57.6119,73.48 58.6009,72.893 59.1129,71.949 C59.4249,71.372 59.9549,70.916 60.6029,70.665 C61.2889,70.4 62.0189,70.391 62.6599,70.641 C63.2569,70.873 63.7029,71.305 63.9169,71.858 C64.2109,72.615 64.0169,73.507 63.4109,74.188 C62.6369,75.057 62.6369,76.37 63.4109,77.241 L63.4109,77.241 Z M66.6479,70.797 C66.1329,69.469 65.0949,68.444 63.7229,67.91 C62.3979,67.394 60.9129,67.402 59.5449,67.933 C58.2479,68.436 57.1809,69.365 56.5319,70.549 L43.4679,70.549 C42.8189,69.365 41.7519,68.436 40.4559,67.933 C39.0869,67.402 37.6019,67.394 36.2769,67.91 C34.9049,68.444 33.8669,69.469 33.3519,70.797 C32.7209,72.423 32.9979,74.261 34.0599,75.714 C32.9979,77.166 32.7209,79.005 33.3519,80.63 C33.8669,81.958 34.9059,82.984 36.2769,83.517 C36.9299,83.772 37.6219,83.899 38.3199,83.899 C39.0369,83.899 39.7609,83.765 40.4559,83.495 C41.7519,82.992 42.8189,82.063 43.4629,80.877 L56.5379,80.877 C57.1809,82.063 58.2489,82.992 59.5449,83.495 C60.2389,83.765 60.9629,83.899 61.6799,83.899 C62.3779,83.899 63.0699,83.772 63.7229,83.517 C65.0939,82.984 66.1329,81.958 66.6479,80.63 C67.2779,79.005 67.0029,77.166 65.9389,75.714 C67.0029,74.261 67.2779,72.423 66.6479,70.797 L66.6479,70.797 Z"
              id="icon_dog-crate" fill="#3A4B60"></path>
    </g>
</svg>