<?xml version="1.0" encoding="UTF-8"?>
<svg width="100px" height="100px" viewBox="0 0 100 100" version="1.1" xmlns="http://www.w3.org/2000/svg" xmlns:xlink="http://www.w3.org/1999/xlink">
    <title>icon / furniture / drawing_painting-easel</title>
    <g id="icon-/-furniture-/-drawing_painting-easel" stroke="none" stroke-width="1" fill="none" fill-rule="evenodd">
        <path d="M60.7022,13.2632 C60.9732,12.9922 61.1282,12.6192 61.1282,12.2382 C61.1282,11.8552 60.9732,11.4822 60.7022,11.2122 C60.4332,10.9432 60.0582,10.7882 59.6782,10.7882 C59.2972,10.7882 58.9222,10.9432 58.6532,11.2122 C58.3822,11.4822 58.2272,11.8562 58.2272,12.2382 C58.2272,12.6192 58.3822,12.9922 58.6532,13.2632 C58.9222,13.5322 59.2972,13.6862 59.6782,13.6862 C60.0582,13.6862 60.4332,13.5322 60.7022,13.2632 L60.7022,13.2632 Z M39.2962,11.2122 C39.0272,11.4822 38.8732,11.8562 38.8732,12.2382 C38.8732,12.6192 39.0272,12.9922 39.2962,13.2632 C39.5662,13.5322 39.9392,13.6882 40.3222,13.6882 C40.7032,13.6882 41.0762,13.5322 41.3482,13.2632 C41.6182,12.9922 41.7722,12.6192 41.7722,12.2382 C41.7722,11.8552 41.6182,11.4822 41.3482,11.2122 C41.0772,10.9432 40.7032,10.7882 40.3222,10.7882 C39.9392,10.7882 39.5662,10.9432 39.2962,11.2122 L39.2962,11.2122 Z M7.9002,72.7822 L92.0992,72.7822 L92.0992,68.3592 L7.9002,68.3592 L7.9002,72.7822 Z M80.0942,97.0992 L75.9352,97.0992 C75.8972,97.0862 75.8382,97.0492 75.8092,97.0202 L65.5252,75.6822 L69.7712,75.6822 L80.0942,97.0992 Z M55.4492,82.6652 L55.4492,75.6822 L62.3062,75.6822 L65.6722,82.6652 L55.4492,82.6652 Z M47.4512,82.6652 L52.5492,82.6652 L52.5492,75.6822 L47.4512,75.6822 L47.4512,82.6652 Z M59.2802,88.3032 L55.6062,88.3032 L31.6112,88.3032 L32.9302,85.5652 L67.0692,85.5652 L68.3892,88.3032 L59.2802,88.3032 Z M47.4512,97.0992 L52.5492,97.0992 L52.5492,91.2022 L47.4512,91.2022 L47.4512,97.0992 Z M37.6932,75.6822 L44.5512,75.6822 L44.5512,82.6652 L34.3282,82.6652 L37.6932,75.6822 Z M24.1902,97.0202 C24.1612,97.0492 24.1022,97.0862 24.0632,97.0992 L19.9062,97.0992 L30.2282,75.6822 L34.4732,75.6822 L34.4732,75.6822 L24.1902,97.0202 Z M12.9352,13.5222 L34.1662,13.5222 L34.1662,15.3882 C34.1662,16.7212 35.2512,17.8052 36.5832,17.8052 L50.3842,17.8052 C50.3852,17.8052 50.3862,17.8052 50.3872,17.8052 L63.4162,17.8052 C64.7492,17.8052 65.8332,16.7212 65.8332,15.3882 L65.8332,13.5222 L87.0642,13.5222 L87.0642,65.4592 L12.9352,65.4592 L12.9352,13.5222 Z M37.0662,9.5702 L62.9322,9.5702 L62.9322,14.9052 L53.4812,14.9052 L53.4792,14.9052 L37.0662,14.9052 L37.0662,9.5702 Z M46.4042,2.9002 L53.5952,2.9002 L53.5952,6.6702 L51.4502,6.6702 L51.4502,5.6072 C51.4502,4.8062 50.8012,4.1572 50.0002,4.1572 C49.1992,4.1572 48.5502,4.8062 48.5502,5.6072 L48.5502,6.6702 L46.4042,6.6702 L46.4042,2.9002 Z M92.5482,65.4592 L89.9652,65.4592 L89.9652,13.0392 C89.9652,11.7062 88.8802,10.6222 87.5482,10.6222 L65.8332,10.6222 L65.8332,9.0872 C65.8332,7.7542 64.7492,6.6702 63.4162,6.6702 L56.4952,6.6702 L56.4952,2.4162 C56.4952,1.0842 55.4112,0.0002 54.0782,0.0002 L45.9222,0.0002 C44.5892,0.0002 43.5052,1.0842 43.5052,2.4162 L43.5052,6.6702 L36.5842,6.6702 C35.2512,6.6702 34.1672,7.7542 34.1672,9.0872 L34.1672,10.6222 L12.4522,10.6222 C11.1202,10.6222 10.0352,11.7062 10.0352,13.0382 L10.0352,65.4592 L7.4512,65.4592 C6.0992,65.4592 5.0002,66.5582 5.0002,67.9102 L5.0002,73.2312 C5.0002,74.5822 6.0992,75.6822 7.4512,75.6822 L27.0102,75.6822 L16.7112,97.0492 C16.3802,97.7362 16.4032,98.4712 16.7772,99.0652 C17.1502,99.6592 17.8012,100.0002 18.5642,100.0002 L24.0962,100.0002 C25.1832,100.0002 26.3162,99.2882 26.7882,98.3082 L30.2132,91.2032 L44.5512,91.2032 L44.5512,97.5832 C44.5512,98.9162 45.6352,100.0002 46.9672,100.0002 L53.0322,100.0002 C54.3642,100.0002 55.4482,98.9162 55.4482,97.5832 L55.4482,91.2032 L55.6062,91.2032 L59.2802,91.2032 L69.7862,91.2032 L73.2112,98.3082 C73.6832,99.2882 74.8152,100.0002 75.9032,100.0002 L81.4352,100.0002 C82.1982,100.0002 82.8492,99.6592 83.2232,99.0652 C83.5962,98.4712 83.6202,97.7362 83.2882,97.0492 L72.9902,75.6822 L92.5492,75.6822 C93.9002,75.6822 95.0002,74.5832 95.0002,73.2312 L95.0002,67.9102 C95.0002,66.5592 93.9002,65.4592 92.5482,65.4592 L92.5482,65.4592 Z" id="Fill-1" fill="#3A4B60"></path>
    </g>
</svg>