<?xml version="1.0" encoding="UTF-8"?>
<svg width="100px" height="100px" viewBox="0 0 100 100" version="1.1" xmlns="http://www.w3.org/2000/svg">
    <title>icon / furniture / drum-set</title>
    <g id="icon-/-furniture-/-drum-set" stroke="none" stroke-width="1" fill="none" fill-rule="evenodd">
        <path d="M96.5931,28.1941152 L85.2701,28.1941152 C85.2541,28.1931152 85.2391,28.1931152 85.2231,28.1931152 C85.2071,28.1931152 85.1921,28.1941152 85.1761,28.1941152 L73.8541,28.1941152 C73.5551,28.1941152 73.3111,27.9501152 73.3111,27.6501152 C73.3111,27.3501152 73.5541,27.1071152 73.8541,27.1071152 L82.3651,27.1071152 C83.0821,27.1071152 83.6901,26.5761152 83.7841,25.8651152 C83.8791,25.1541152 84.4861,24.6161152 85.2001,24.6041152 L85.2231,24.6041152 L85.2461,24.6041152 C85.9621,24.6161152 86.5691,25.1531152 86.6631,25.8651152 C86.7581,26.5761152 87.3651,27.1071152 88.0821,27.1071152 L96.5941,27.1071152 C96.8931,27.1071152 97.1371,27.3501152 97.1371,27.6501152 C97.1371,27.9501152 96.8931,28.1941152 96.5931,28.1941152 L96.5931,28.1941152 Z M96.5931,24.2431152 L89.1391,24.2431152 C88.6491,23.1901152 87.7471,22.3731152 86.6551,21.9861152 L86.6551,20.9391152 C86.6551,20.1491152 86.0141,19.5071152 85.2231,19.5071152 C84.4321,19.5071152 83.7911,20.1491152 83.7911,20.9391152 L83.7911,21.9871152 C82.6991,22.3741152 81.7981,23.1901152 81.3081,24.2431152 L73.8541,24.2431152 C71.9761,24.2431152 70.4471,25.7721152 70.4471,27.6501152 C70.4471,29.5291152 71.9761,31.0571152 73.8541,31.0571152 L83.7911,31.0571152 L83.7911,77.7391152 L76.7411,90.3701152 C76.3561,91.0601152 76.6031,91.9321152 77.2931,92.3171152 C77.9841,92.7031152 78.8561,92.4561152 79.2411,91.7641152 L85.2241,81.0481152 L91.2061,91.7641152 C91.4681,92.2351152 91.9551,92.5001152 92.4571,92.5001152 C92.6941,92.5001152 92.9331,92.4401152 93.1541,92.3171152 C93.8441,91.9321152 94.0911,91.0601152 93.7061,90.3701152 L86.6551,77.7361152 L86.6551,31.0571152 L96.5931,31.0571152 C98.4721,31.0571152 100.0001,29.5301152 100.0001,27.6501152 C100.0001,25.7721152 98.4721,24.2431152 96.5931,24.2431152 L96.5931,24.2431152 Z M32.0541,22.5481152 C31.9041,22.8071152 31.5721,22.8961152 31.3121,22.7461152 L11.6191,11.3771152 C11.4501,11.2791152 11.3891,11.1291152 11.3661,11.0471152 C11.3451,10.9651152 11.3231,10.8031152 11.4211,10.6341152 C11.5711,10.3751152 11.9041,10.2861152 12.1631,10.4351152 L19.5331,14.6911152 C20.1551,15.0491152 20.9461,14.8931152 21.3841,14.3241152 C21.8251,13.7501152 22.6331,13.5901152 23.2611,13.9521152 C23.8891,14.3151152 24.1541,15.0931152 23.8771,15.7641152 C23.6041,16.4271152 23.8641,17.1911152 24.4851,17.5491152 L31.8561,21.8051152 C32.0261,21.9031152 32.0861,22.0531152 32.1091,22.1351152 C32.1301,22.2151152 32.1521,22.3781152 32.0541,22.5481152 L32.0541,22.5481152 Z M34.8741,21.3941152 C34.6391,20.5151152 34.0751,19.7801152 33.2871,19.3251152 L26.8311,15.5981152 C26.9341,14.4411152 26.5621,13.2831152 25.8101,12.4021152 L26.3331,11.4961152 C26.7291,10.8101152 26.4931,9.9351152 25.8091,9.5401152 C25.1231,9.1451152 24.2481,9.3801152 23.8541,10.0641152 L23.3301,10.9701152 C22.1921,10.7591152 21.0021,11.0151152 20.0501,11.6831152 L13.5951,7.9561152 C11.9681,7.0161152 9.8801,7.5761152 8.9421,9.2031152 C8.4861,9.9911152 8.3641,10.9091152 8.6011,11.7881152 C8.8361,12.6671152 9.4001,13.4021152 10.1881,13.8571152 L18.7951,18.8251152 L8.4961,36.6631152 C7.6681,38.0951152 7.2321,39.7261152 7.2321,41.3791152 L7.2321,77.7401152 L0.1821,90.3701152 C-0.2039,91.0601152 0.0441,91.9321152 0.7351,92.3171152 C0.9551,92.4411152 1.1951,92.5001691 1.4311,92.5001691 C1.9331,92.5001691 2.4191,92.2351152 2.6821,91.7651152 L8.6641,81.0481152 L14.6471,91.7651152 C15.0321,92.4561152 15.9041,92.7041152 16.5941,92.3181152 C17.2841,91.9321152 17.5311,91.0601152 17.1471,90.3701152 L10.0951,77.7361152 L10.0951,41.3791152 C10.0951,40.2281152 10.3991,39.0921152 10.9761,38.0951152 L21.2741,20.2571152 L29.8801,25.2261152 C30.4151,25.5351152 31.0001,25.6811152 31.5781,25.6811152 C32.7561,25.6811152 33.9041,25.0701152 34.5331,23.9791152 C34.9891,23.1911152 35.1111,22.2721152 34.8741,21.3941152 L34.8741,21.3941152 Z M78.3061,54.6491152 L66.6231,54.6491152 C66.4101,54.4181152 66.1931,54.1911152 65.9701,53.9671152 L70.7201,53.9671152 C72.1781,53.9671152 73.4691,53.2381152 74.2451,52.1241152 L76.8741,52.1241152 C77.6641,52.1241152 78.3061,52.7661152 78.3061,53.5551152 L78.3061,54.6491152 Z M78.3061,63.1711152 C78.3061,63.9611152 77.6641,64.6021152 76.8741,64.6021152 L71.9491,64.6021152 C71.3301,62.0421152 70.2721,59.6511152 68.8621,57.5121152 L78.3061,57.5121152 L78.3061,63.1711152 Z M50.0001,89.6351152 C39.1281,89.6351152 30.2821,80.7911152 30.2821,69.9181152 C30.2821,59.0441152 39.1301,50.2001152 50.0001,50.2001152 C60.8561,50.2001152 69.7191,59.0271152 69.7191,69.9181152 C69.7181,80.7911152 60.8721,89.6351152 50.0001,89.6351152 L50.0001,89.6351152 Z M68.4811,89.5611152 C68.4041,89.6641152 68.2351,89.6571152 68.1671,89.5451152 L65.9721,85.8671152 C66.3761,85.4631152 66.7641,85.0431152 67.1361,84.6081152 L68.5111,89.3941152 C68.5291,89.4551152 68.5181,89.5111152 68.4811,89.5611152 L68.4811,89.5611152 Z M31.8311,89.5461152 C31.7671,89.6551152 31.5961,89.6641152 31.5201,89.5611152 C31.4821,89.5101152 31.4711,89.4551152 31.4891,89.3941152 L32.8641,84.6081152 C33.2371,85.0431152 33.6241,85.4621152 34.0291,85.8661152 L31.8311,89.5461152 Z M18.4941,78.3821152 C17.7051,78.3821152 17.0631,77.7391152 17.0631,76.9501152 L17.0631,57.5121152 L31.1391,57.5121152 C28.7881,61.0751152 27.4191,65.3401152 27.4191,69.9181152 C27.4191,72.9091152 28.0041,75.7661152 29.0651,78.3821152 L18.4941,78.3821152 Z M17.0631,53.5551152 C17.0631,52.7651152 17.7051,52.1241152 18.4941,52.1241152 L25.7551,52.1241152 C26.5311,53.2381152 27.8221,53.9671152 29.2801,53.9671152 L34.0301,53.9671152 C33.8081,54.1911152 33.5901,54.4181152 33.3771,54.6491152 L17.0631,54.6491152 L17.0631,53.5551152 Z M27.8491,41.4881152 L45.4341,41.4881152 L45.4341,43.1741152 L41.3601,43.1741152 C40.5701,43.1741152 39.9281,43.8151152 39.9281,44.6061152 C39.9281,45.3971152 40.5701,46.0381152 41.3601,46.0381152 L45.4341,46.0381152 L45.4341,47.8001152 C42.5621,48.3931152 39.8871,49.5321152 37.5241,51.1041152 L29.2801,51.1041152 C28.4901,51.1041152 27.8491,50.4631152 27.8491,49.6731152 L27.8491,41.4881152 Z M27.8491,37.6381152 C27.8491,36.8491152 28.4901,36.2071152 29.2801,36.2071152 L44.0021,36.2071152 C44.7921,36.2071152 45.4341,36.8491152 45.4341,37.6381152 L45.4341,38.6251152 L27.8491,38.6251152 L27.8491,37.6381152 Z M48.2971,46.0381152 L51.7031,46.0381152 L51.7031,47.4001152 C51.1411,47.3581152 50.5731,47.3371152 50.0001,47.3371152 C49.4271,47.3371152 48.8601,47.3581152 48.2971,47.4001152 L48.2971,46.0381152 Z M54.5671,46.0381152 L58.6411,46.0381152 C59.4311,46.0381152 60.0721,45.3971152 60.0721,44.6061152 C60.0721,43.8151152 59.4311,43.1741152 58.6411,43.1741152 L54.5671,43.1741152 L54.5671,41.4881152 L72.1511,41.4881152 L72.1511,49.6731152 C72.1511,50.4631152 71.5091,51.1041152 70.7191,51.1041152 L62.4771,51.1041152 C60.1141,49.5321152 57.4391,48.3921152 54.5671,47.8001152 L54.5671,46.0381152 Z M54.5671,37.6381152 C54.5671,36.8491152 55.2081,36.2071152 55.9981,36.2071152 L70.7201,36.2071152 C71.5091,36.2071152 72.1521,36.8491152 72.1521,37.6381152 L72.1521,38.6251152 L54.5671,38.6251152 L54.5671,37.6381152 Z M76.8741,49.2601152 L75.0151,49.2601152 L75.0151,37.6381152 C75.0151,35.2691152 73.0881,33.3431152 70.7201,33.3431152 L55.9981,33.3431152 C53.6301,33.3431152 51.7031,35.2691152 51.7031,37.6381152 L51.7031,43.1741152 L48.2971,43.1741152 L48.2971,37.6381152 C48.2971,35.2691152 46.3701,33.3431152 44.0021,33.3431152 L29.2801,33.3431152 C26.9121,33.3431152 24.9861,35.2691152 24.9861,37.6381152 L24.9861,49.2601152 L18.4941,49.2601152 C16.1261,49.2601152 14.1991,51.1871152 14.1991,53.5551152 L14.1991,76.9501152 C14.1991,79.3181152 16.1261,81.2451152 18.4941,81.2451152 L30.4701,81.2451152 C30.5551,81.3881152 30.6411,81.5331152 30.7271,81.6751152 L28.7371,88.6031152 C28.4691,89.5341152 28.6501,90.5101152 29.2321,91.2831152 C29.8141,92.0561152 30.7021,92.5001152 31.6701,92.5001152 C32.7401,92.5001152 33.7451,91.9281152 34.2901,91.0111152 L36.2141,87.7911152 C40.0301,90.7421152 44.8141,92.5001152 50.0001,92.5001152 C55.1861,92.5001152 59.9701,90.7421152 63.7861,87.7911152 L65.7071,91.0091152 C66.2541,91.9291152 67.2591,92.5001152 68.3291,92.5001152 C69.2961,92.5001152 70.1861,92.0561152 70.7681,91.2841152 C71.3501,90.5101152 71.5311,89.5341152 71.2631,88.6031152 L69.2731,81.6751152 C71.3711,78.2491152 72.5811,74.2221152 72.5811,69.9181152 C72.5811,69.0901152 72.5361,68.2711152 72.4491,67.4661152 L76.8741,67.4661152 C79.2421,67.4661152 81.1691,65.5391152 81.1691,63.1711152 L81.1691,53.5551152 C81.1691,51.1871152 79.2421,49.2601152 76.8741,49.2601152 L76.8741,49.2601152 Z"
              id="icon_drum-set" fill="#3A4B60"></path>
    </g>
</svg>