<?xml version="1.0" encoding="UTF-8"?>
<svg width="100px" height="100px" viewBox="0 0 100 100" version="1.1" xmlns="http://www.w3.org/2000/svg">
    <title>icon / furniture / dryer</title>
    <g id="icon-/-furniture-/-dryer" stroke="none" stroke-width="1" fill="none" fill-rule="evenodd">
        <path d="M84.875,7.8126 C84.875,5.2276 82.772,3.1256 80.188,3.1256 L20.812,3.1256 C18.228,3.1256 16.125,5.2276 16.125,7.8126 L16.125,26.8746 L84.875,26.8746 L84.875,7.8126 Z M84.875,29.9996 L16.125,29.9996 L16.125,82.9766 L28.479,82.9766 C29.341,82.9766 30.04,83.6746 30.04,84.5366 L30.04,96.8756 L80.188,96.8756 C82.772,96.8756 84.875,94.7726 84.875,92.1876 L84.875,29.9996 Z M20.812,96.8756 L26.915,96.8756 L26.915,86.1016 L16.125,86.1016 L16.125,92.1876 C16.125,94.7726 18.228,96.8756 20.812,96.8756 L20.812,96.8756 Z M88,7.8126 L88,92.1876 C88,96.4956 84.495,100.0006 80.188,100.0006 L20.812,100.0006 C16.505,100.0006 13,96.4956 13,92.1876 L13,7.8126 C13,3.5046 16.505,0.0006 20.812,0.0006 L80.188,0.0006 C84.495,0.0006 88,3.5046 88,7.8126 L88,7.8126 Z M32.035,11.7226 C30.985,10.6726 29.483,10.2776 28.021,10.6666 C26.653,11.0286 25.536,12.1456 25.174,13.5116 C24.785,14.9756 25.181,16.4766 26.23,17.5276 C27.015,18.3116 28.051,18.7306 29.135,18.7306 C29.502,18.7306 29.875,18.6826 30.246,18.5836 C31.612,18.2206 32.729,17.1026 33.092,15.7366 L33.092,15.7376 C33.48,14.2736 33.085,12.7736 32.035,11.7226 L32.035,11.7226 Z M36.603,13.1306 C37.09,15.6836 36.328,18.1896 34.513,20.0046 C32.696,21.8206 30.198,22.5826 27.639,22.0946 C24.639,21.5216 22.236,19.1196 21.663,16.1196 C21.176,13.5656 21.937,11.0606 23.753,9.2456 C25.208,7.7896 27.107,7.0106 29.118,7.0106 C29.616,7.0106 30.12,7.0586 30.627,7.1556 C33.627,7.7286 36.029,10.1306 36.603,13.1306 L36.603,13.1306 Z M76.771,8.0126 C75.805,8.0126 75.019,8.7986 75.019,9.7656 C75.019,10.7326 75.805,11.5186 76.771,11.5186 C77.738,11.5186 78.524,10.7326 78.524,9.7656 C78.524,8.7986 77.738,8.0126 76.771,8.0126 L76.771,8.0126 Z M49.521,8.0126 L44.814,8.0126 C43.903,8.0126 43.115,8.6396 42.979,9.4706 C42.895,9.9956 43.034,10.5026 43.373,10.9016 C43.707,11.2936 44.194,11.5186 44.709,11.5186 L49.417,11.5186 C50.327,11.5186 51.115,10.8926 51.251,10.0616 C51.336,9.5366 51.196,9.0286 50.857,8.6296 C50.523,8.2376 50.036,8.0126 49.521,8.0126 L49.521,8.0126 Z M59.685,80.2756 L52.574,68.2006 L52.428,68.2396 C51.8,68.4076 51.151,68.4926 50.501,68.4926 C47.084,68.4926 44.101,66.1816 43.245,62.8736 L43.207,62.7226 L29.217,62.7226 L29.236,62.9406 C30.222,73.8266 39.562,82.3536 50.501,82.3536 C53.636,82.3536 56.658,81.6856 59.484,80.3696 L59.685,80.2756 Z M52.275,57.3776 C51.088,56.7836 49.721,56.8196 48.518,57.4786 C47.557,58.0066 46.83,58.9486 46.576,59.9966 C46.229,61.4266 46.641,62.8846 47.678,63.8956 C48.446,64.6456 49.453,65.0446 50.504,65.0446 C50.871,65.0446 51.243,64.9966 51.612,64.8966 C52.675,64.6116 53.604,63.8456 54.099,62.8496 C55.232,60.5696 54.062,58.2766 52.275,57.3776 L52.275,57.3776 Z M29.217,59.2776 L43.207,59.2776 L43.245,59.1266 C44.101,55.8186 47.084,53.5076 50.501,53.5076 C51.165,53.5076 51.828,53.5966 52.472,53.7726 L52.619,53.8126 L59.613,41.9326 L59.726,41.7436 L59.526,41.6506 C56.687,40.3206 53.65,39.6456 50.501,39.6456 C39.562,39.6456 30.222,48.1726 29.236,59.0596 L29.217,59.2776 Z M62.701,43.4816 L55.61,55.5256 L55.723,55.6346 C57.187,57.0596 57.993,58.9656 57.993,61.0006 C57.993,63.0506 57.175,64.9666 55.689,66.3956 L55.575,66.5056 L62.664,78.5426 L62.842,78.4166 C65.55,76.4946 67.805,73.9276 69.365,70.9976 L69.521,70.7036 L66.847,70.7036 C64.837,70.7036 63.201,69.0676 63.201,67.0576 L63.201,54.9426 C63.201,52.9316 64.837,51.2956 66.847,51.2956 L69.521,51.2956 L69.365,51.0016 C67.813,48.0856 65.57,45.5306 62.879,43.6086 L62.701,43.4816 Z M70.77,54.7426 L66.646,54.7426 L66.646,67.2576 L70.918,67.2576 L70.961,67.1156 C71.555,65.1346 71.855,63.0776 71.855,61.0006 C71.855,59.7936 71.752,58.5786 71.548,57.3846 L71.538,57.3276 C71.356,56.2526 71.205,55.5176 71.091,55.1416 C71.039,54.9726 70.968,54.7426 70.77,54.7426 L70.77,54.7426 Z M62.536,82.6766 C58.199,85.0946 53.267,86.1386 48.27,85.7016 C36.582,84.6726 27.157,75.4766 25.859,63.8336 C25.062,56.6846 27.249,49.8106 32.018,44.4816 C36.727,39.2186 43.464,36.2006 50.501,36.2006 C60.762,36.2006 70.092,42.6626 73.723,52.2926 C74.328,53.5996 74.622,55.1726 74.882,56.5606 C75.162,58.0566 75.303,59.5706 75.301021,61.0586 C75.295,64.5996 74.779,67.4286 73.717,69.7206 C71.77,74.8886 68.088,79.3226 63.316,82.2316 C63.213,82.3336 63.102,82.4186 62.985,82.4876 C62.861,82.5596 62.725,82.6186 62.536,82.6766 L62.536,82.6766 Z M69.959,8.0126 L66.164,8.0126 C65.253,8.0126 64.462,8.6376 64.324,9.4676 C64.239,9.9826 64.382,10.5036 64.716,10.8976 C65.051,11.2916 65.538,11.5186 66.053,11.5186 L69.847,11.5186 C70.759,11.5186 71.55,10.8926 71.687,10.0636 C71.772,9.5476 71.63,9.0276 71.297,8.6336 C70.961,8.2396 70.474,8.0126 69.959,8.0126 L69.959,8.0126 Z M60.576,8.6296 C60.915,9.0286 61.055,9.5366 60.97,10.0616 C60.834,10.8926 60.046,11.5186 59.136,11.5186 L56.334,11.5186 C55.819,11.5186 55.332,11.2936 54.998,10.9016 C54.659,10.5026 54.52,9.9956 54.604,9.4706 C54.74,8.6396 55.528,8.0126 56.439,8.0126 L59.24,8.0126 C59.755,8.0126 60.242,8.2376 60.576,8.6296 L60.576,8.6296 Z"
              id="icon_dryer" fill="#3A4B60"></path>
    </g>
</svg>