<?xml version="1.0" encoding="UTF-8"?>
<svg width="100px" height="100px" viewBox="0 0 100 100" version="1.1" xmlns="http://www.w3.org/2000/svg" xmlns:xlink="http://www.w3.org/1999/xlink">
    <title>duffel-bag</title>
    <g id="duffel-bag" stroke="none" stroke-width="1" fill="none" fill-rule="evenodd">
        <path d="M33.15938,68.8671657 C33.15938,67.9388803 33.9121,67.1871341 34.83942,67.1871341 L63.74445,67.1871341 C64.67274,67.1871341 65.42546,67.9388803 65.42546,68.8671657 C65.42546,69.795451 64.67274,70.5471973 63.74445,70.5471973 L34.83942,70.5471973 C33.9121,70.5471973 33.15938,69.795451 33.15938,68.8671657 L33.15938,68.8671657 Z M87.64913,94.6389668 L94.63895,94.6389668 L94.63895,87.403773 L87.64913,87.403773 L87.64913,94.6389668 Z M4.36105,94.6389668 L11.35184,94.6389668 L11.35184,87.403773 L4.36105,87.403773 L4.36105,94.6389668 Z M4.36105,84.0437098 L11.35184,84.0437098 L11.35184,60.8520957 L4.36105,60.8520957 L4.36105,84.0437098 Z M49.50097,4.73884631 L79.95606,57.4900925 L19.04394,57.4900925 L49.50097,4.73884631 Z M81.23452,94.6389668 L84.28808,94.6389668 L84.28808,60.8511257 L81.23452,60.8511257 L81.23452,94.6389668 Z M21.12847,94.6389668 L77.8725,94.6389668 L77.8725,87.403773 L21.12847,87.403773 L21.12847,94.6389668 Z M21.12847,84.0437098 L77.8725,84.0437098 L77.8725,60.8520957 L21.12847,60.8520957 L21.12847,84.0437098 Z M14.71289,94.6389668 L17.76645,94.6389668 L17.76645,60.8511257 L14.71289,60.8511257 L14.71289,94.6389668 Z M87.64913,84.0437098 L94.63895,84.0437098 L94.63895,60.8520957 L87.64913,60.8520957 L87.64913,84.0437098 Z M83.838,57.4900925 L52.08311,2.49136754 C50.93463,0.502877486 48.06537,0.502877486 46.91786,2.49136754 L15.16297,57.4900925 L3.98178,57.4900925 C2.33472,57.4900925 1,58.8248059 1,60.4718576 L1,95.0182349 C1,96.6652867 2.33472,98 3.98178,98 L95.01725,98 C96.66528,98 98,96.6652867 98,95.0182349 L98,60.4718576 C98,58.8248059 96.66528,57.4900925 95.01725,57.4900925 L83.838,57.4900925 Z" id="icon_duffel-bag" fill="#3A4B60"></path>
    </g>
</svg>