<?xml version="1.0" encoding="UTF-8"?>
<svg width="100px" height="100px" viewBox="0 0 100 100" version="1.1" xmlns="http://www.w3.org/2000/svg">
    <title>icon / furniture / end-table</title>
    <g id="icon-/-furniture-/-end-table" stroke="none" stroke-width="1" fill="none" fill-rule="evenodd">
        <path d="M96.0523983,6.27252254 C95.8853983,7.07852254 95.1763983,7.71052254 94.3343983,7.79452254 C94.1503983,7.81352254 93.9623983,7.80952254 93.7773983,7.80952254 C79.1823983,7.81052254 64.5863983,7.81052254 49.9913983,7.81052254 L6.09539826,7.81052254 C4.99539826,7.81052254 4.25039826,7.31152254 3.98739826,6.40252254 C3.64639826,5.22052254 4.44339826,4.04352254 5.66339826,3.93252254 C5.86139826,3.91452254 6.05939826,3.90852254 6.25839826,3.90852254 C35.4233983,3.90752254 64.5873983,3.90752254 93.7523983,3.90752254 C94.2253983,3.90752254 94.6923983,3.91752254 95.1183983,4.17152254 C95.8463983,4.60652254 96.2243983,5.44352254 96.0523983,6.27252254 M91.0127049,58.7265225 C91.0113983,62.3395225 88.8153983,65.2265225 85.3253983,66.1565225 C84.6773983,66.3305225 83.9783983,66.3785225 83.3023983,66.3795225 C61.1073983,66.3905225 38.9113983,66.3905225 16.7153983,66.3865225 C12.8603983,66.3865225 9.89939826,63.9945225 9.12239826,60.2555225 C9.01839826,59.7515225 8.99839826,59.2215225 8.99839826,58.7045225 C8.99139826,43.1835225 8.99234888,27.6645225 8.99234888,12.1445225 L8.99234888,11.7345225 L90.9953983,11.7345225 C90.9953983,11.7345225 91.0153983,43.1945225 91.0127049,58.7265225 M91.0113983,93.7705225 C91.0113983,95.0865225 90.1403983,95.9895225 88.8303983,96.0645225 C87.7083983,96.1275225 86.7673983,95.2515225 86.6043983,94.0085225 C86.0463983,89.7615225 83.5003983,70.3815225 83.5003983,70.3115225 C86.3063983,70.2635225 88.7913983,69.3585225 90.9833983,67.5025225 C90.9953983,67.6575225 91.0153983,85.1325225 91.0113983,93.7705225 M15.0263983,81.6885225 C14.6143983,84.8055225 13.5233983,93.0785225 13.3923983,94.0975225 C13.2443983,95.2485225 12.2453983,96.1265225 11.1553983,96.0625225 C9.88739826,95.9885225 8.99839826,95.1085225 8.99739826,93.8685225 C8.99039826,85.1575225 9.00039826,67.6365225 9.01039826,67.5015225 C11.2013983,69.3475225 13.6863983,70.2515225 16.5193983,70.3035225 C16.4343983,70.9715225 15.4413983,78.5455225 15.0263983,81.6885225 M99.9563983,5.16952254 C99.5923983,2.29752254 97.1073983,0.00152254249 94.2123983,-1.20792265e-13 C64.7363983,-1.20792265e-13 35.2603983,-1.20792265e-13 5.78439826,0.00452254249 C5.41539826,0.00452254249 5.03939826,0.0445225425 4.67739826,0.121522542 C2.06139826,0.668522542 0.0253982595,3.03152254 1.50508403e-13,5.52752254 C-0.0306017405,8.53752254 1.75039826,10.9185225 4.55539826,11.5525225 C4.99139826,11.6515225 5.08139826,11.8005225 5.08139826,12.2185225 C5.07039826,39.3065225 5.07139826,66.3935225 5.07539826,93.4805225 C5.07539826,93.9385225 5.08639826,94.4025225 5.16039826,94.8515225 C5.62939826,97.6975225 8.07439826,99.8655225 10.9083983,99.9705225 C13.8533983,100.079523 16.4473983,98.1865225 17.1043983,95.3315225 C17.4083983,94.0075225 20.3703983,71.0525225 20.4713983,70.3105225 L79.5293983,70.3105225 C79.5593983,70.4945225 82.0823983,89.7635225 82.7463983,94.5855225 C83.0893983,97.0755225 84.4743983,98.8095225 86.8523983,99.6305225 C89.1483983,100.424523 91.2363983,99.9185225 93.0163983,98.2795225 C94.3803983,97.0225225 94.9373983,95.4115225 94.9373983,93.5745225 C94.9343983,66.4745225 94.9333983,11.7345225 94.9333983,11.7345225 C94.9333983,11.7345225 95.0003983,11.6435225 95.2143983,11.6035225 C98.4043983,11.0105225 100.315398,7.99652254 99.9563983,5.16952254 M83.1993983,56.9465225 C83.1993983,57.9885225 82.6063983,58.5775225 81.5613983,58.5785225 C80.1533983,58.5795225 30.5053983,58.5785225 18.4883983,58.5785225 C17.3763983,58.5785225 16.8063636,58.0185225 16.8063636,56.9215225 C16.8053983,51.7525225 16.8263983,41.0295225 16.8263983,41.0295225 L40.2503983,41.0295225 C40.2503983,41.7865225 40.2293983,42.5165225 40.2543983,43.2455225 C40.3533983,46.1665225 42.8703983,48.7285225 45.7863983,48.7865225 C48.5883983,48.8415225 51.3923983,48.8275225 54.1943983,48.7855225 C55.6213983,48.7635225 56.8633983,48.1745225 57.8993983,47.1925225 C59.1623983,45.9955225 59.7803983,44.5165225 59.7653983,42.7745225 C59.7603983,42.1965225 59.7643983,41.6175225 59.7643983,41.0215225 L83.1823983,41.0215225 C83.1893983,41.1595225 83.1993983,41.2795225 83.1993983,41.4005225 C83.200553,46.5825225 83.2013983,51.7645225 83.1993983,56.9465225 M55.7903983,43.3325225 C55.6773983,44.2495225 54.8273983,44.9015225 53.8143983,44.9095225 C51.2733983,44.9285225 48.7323983,44.9315225 46.1923983,44.9085225 C44.9573983,44.8965225 44.1493983,44.0275225 44.1393983,42.7875225 C44.1353983,42.2085225 44.1383983,41.6285225 44.1383983,41.0235225 L55.8103983,41.0235225 C55.8103983,41.8085225 55.8833983,42.5805225 55.7903983,43.3325225 M16.8053983,21.2385225 C16.8063983,20.0735225 17.3453983,19.5295225 18.5103983,19.5295225 C25.6033983,19.5285225 32.6963983,19.5295225 39.7883983,19.5295225 L40.2423983,19.5295225 C40.2423983,20.1695225 40.2473983,20.7735225 40.2413983,21.3765225 C40.2303983,22.4425225 40.4653983,23.4515225 41.0183983,24.3595225 C42.1563983,26.2305225 43.8113983,27.2835225 46.0293983,27.3065225 C48.6703983,27.3355225 51.3123983,27.3185225 53.9523983,27.3125225 C57.0483983,27.3065225 59.6753983,24.7435225 59.7563983,21.6475225 C59.7743983,20.9575225 59.7593983,20.2655225 59.7593983,19.5295225 L60.2073983,19.5295225 C67.3003983,19.5295225 74.3933983,19.5285225 81.4863983,19.5295225 C82.3863983,19.5295225 82.9493983,19.8925225 83.1443983,20.6075225 C83.1893983,20.7715225 83.1983983,20.9495225 83.1983983,21.1215225 C83.2000551,26.3285225 83.2000551,31.5345225 83.2000551,36.7405225 C83.2000551,36.8485225 83.1873983,36.9575225 83.1803983,37.0845225 L16.8053983,37.0845225 C16.8053983,37.0845225 16.8053983,26.3825225 16.8053983,21.2385225 M44.1883983,19.5485225 L55.7973983,19.5485225 C55.7973983,20.3565225 55.8793983,21.1545225 55.7753983,21.9265225 C55.6593983,22.7745225 54.7993983,23.4105225 53.9213983,23.4145225 C51.3063983,23.4255225 48.6903983,23.4255225 46.0743983,23.4145225 C45.1473983,23.4105225 44.3093983,22.7285225 44.2053983,21.8145225 C44.1213983,21.0745225 44.1883983,20.3165225 44.1883983,19.5485225 M86.9193983,19.6455225 C86.2823983,17.1995225 84.1833983,15.6215225 81.5973983,15.6215225 C64.2983983,15.6215225 22.1593983,15.6145225 18.3893983,15.6235225 C15.2293983,15.6295225 12.8863983,17.9745225 12.8853983,21.1265225 C12.8833983,33.0525225 12.8843983,44.9795225 12.8883983,56.9055225 C12.8883983,57.2995225 12.9123983,57.7025225 12.9883983,58.0875225 C13.5043983,60.7365225 15.6683983,62.4845225 18.4303983,62.4845225 C27.5703983,62.4873339 79.4413983,62.4885225 81.5923983,62.4855225 C84.7593983,62.4815225 87.1183983,60.1355225 87.1193983,56.9655225 C87.1243983,45.0145225 87.1233983,33.0635225 87.1143983,21.1125225 C87.1133983,20.6235225 87.0423983,20.1205225 86.9193983,19.6455225"
              id="icon_end-table" fill="#3A4B60"></path>
    </g>
</svg>