<?xml version="1.0" encoding="UTF-8"?>
<svg width="100px" height="100px" viewBox="0 0 100 100" version="1.1" xmlns="http://www.w3.org/2000/svg">
    <title>icon / furniture / entertainment-center</title>
    <g id="icon-/-furniture-/-entertainment-center" stroke="none" stroke-width="1" fill="none" fill-rule="evenodd">
        <path d="M84.198,17.93 L96.762,17.93 L96.762,3.237 L84.198,3.237 L84.198,17.93 Z M28.136,73.818 L96.762,73.818 L96.762,21.168 L28.136,21.168 L28.136,73.818 Z M51.618,96.762 L96.762,96.762 L96.762,77.057 L51.618,77.057 L51.618,96.762 Z M3.238,96.762 L48.382,96.762 L48.382,77.057 L3.238,77.057 L3.238,96.762 Z M3.238,73.789 L24.896,73.789 L24.896,58.428 L3.238,58.428 L3.238,73.789 Z M3.238,55.191 L24.896,55.191 L24.896,39.798 L3.238,39.798 L3.238,55.191 Z M3.238,36.56 L24.896,36.56 L24.896,3.237 L3.238,3.237 L3.238,36.56 Z M80.96,17.805 L80.96,3.237 L28.136,3.237 L28.136,17.93 L80.96,17.805 Z M100,98.38 C100,99.274 99.273,100 98.381,100 L1.619,100 C0.727,100 0,99.274 0,98.38 L0,1.619 C0,0.726 0.727,0 1.619,0 L98.381,0 C99.273,0 100,0.726 100,1.619 L100,98.38 Z M31.619,85.29 L22.26,85.29 C21.191,85.29 20.713,86.104 20.713,86.911 C20.713,87.715 21.191,88.528 22.26,88.528 L31.619,88.528 C32.687,88.528 33.165,87.714 33.165,86.908 C33.165,86.103 32.687,85.29 31.619,85.29 L31.619,85.29 Z M79.288,86.909 C79.288,87.714 78.81,88.528 77.741,88.528 L68.382,88.528 C67.313,88.528 66.835,87.715 66.835,86.911 C66.835,86.104 67.313,85.29 68.382,85.29 L77.741,85.29 C78.81,85.29 79.288,86.103 79.288,86.909 L79.288,86.909 Z"
              id="icon_entertainment-center" fill="#3A4B60"></path>
    </g>
</svg>