<?xml version="1.0" encoding="UTF-8"?>
<svg width="100px" height="100px" viewBox="0 0 100 100" version="1.1" xmlns="http://www.w3.org/2000/svg" xmlns:xlink="http://www.w3.org/1999/xlink">
    <!-- Generator: Sketch 63.1 (92452) - https://sketch.com -->
    <title>icon / furniture / entertainment-center_glass</title>
    <desc>Created with Sketch.</desc>
    <g id="icon-/-furniture-/-entertainment-center_glass" stroke="none" stroke-width="1" fill="none" fill-rule="evenodd">
        <path d="M20.4448,43.3877 C21.0628,43.3877 21.5638,42.8867 21.5638,42.2687 L21.5638,39.1477 C21.5638,38.5297 21.0628,38.0287 20.4448,38.0287 C19.8268,38.0287 19.3258,38.5297 19.3258,39.1477 L19.3258,42.2687 C19.3258,42.8867 19.8268,43.3877 20.4448,43.3877 L20.4448,43.3877 Z M67.1858,44.8137 C66.5678,44.8137 66.0668,45.3147 66.0668,45.9327 L66.0668,49.0537 C66.0668,49.6717 66.5678,50.1727 67.1858,50.1727 C67.8038,50.1727 68.3048,49.6717 68.3048,49.0537 L68.3048,45.9327 C68.3048,45.3147 67.8038,44.8137 67.1858,44.8137 L67.1858,44.8137 Z M57.7118,44.8137 C57.0938,44.8137 56.5928,45.3147 56.5928,45.9327 L56.5928,49.0537 C56.5928,49.6717 57.0938,50.1727 57.7118,50.1727 C58.3298,50.1727 58.8308,49.6717 58.8308,49.0537 L58.8308,45.9327 C58.8308,45.3147 58.3298,44.8137 57.7118,44.8137 L57.7118,44.8137 Z M96.7618,73.8187 L96.7618,52.1787 L64.0668,71.2377 L64.0668,73.8187 L96.7618,73.8187 Z M51.6178,96.7617 L96.7618,96.7617 L96.7618,77.0567 L51.6178,77.0567 L51.6178,96.7617 Z M3.2378,96.7617 L48.3818,96.7617 L48.3818,77.0567 L3.2378,77.0567 L3.2378,96.7617 Z M3.2378,3.2377 L3.2378,28.5077 L24.8958,15.8817 L24.8958,3.2377 L3.2378,3.2377 Z M24.8958,19.7857 L3.2378,32.4117 L3.2378,38.6267 L24.8958,26.0017 L24.8958,19.7857 Z M24.8958,29.9077 L3.2378,42.5327 L3.2378,58.3047 L24.8958,45.6797 L24.8958,29.9077 Z M3.2378,73.7887 L24.8958,73.7887 L24.8958,49.5827 L3.2378,62.2087 L3.2378,73.7887 Z M28.1358,73.8187 L60.8308,73.8187 L60.8308,21.1687 L28.1358,21.1687 L28.1358,73.8187 Z M28.1358,17.9297 L80.9598,17.8047 L80.9598,3.2377 L28.1358,3.2377 L28.1358,17.9297 Z M84.1978,17.9297 L96.7618,17.9297 L96.7618,3.2377 L84.1978,3.2377 L84.1978,17.9297 Z M96.7618,38.1557 L96.7618,21.1677 L64.0668,21.1677 L64.0668,57.2137 L96.7618,38.1557 Z M64.0668,67.3317 L96.7618,48.2737 L96.7618,42.0587 L64.0668,61.1177 L64.0668,67.3317 Z M99.9998,1.6187 L99.9998,98.3797 C99.9998,99.2747 99.2728,99.9997 98.3808,99.9997 L1.6188,99.9997 C0.7268,99.9997 -0.0002,99.2747 -0.0002,98.3797 L-0.0002,1.6187 C-0.0002,0.7257 0.7268,-0.0003 1.6188,-0.0003 L98.3808,-0.0003 C99.2728,-0.0003 99.9998,0.7257 99.9998,1.6187 L99.9998,1.6187 Z M22.2598,88.5287 L31.6188,88.5287 C32.6868,88.5287 33.1648,87.7137 33.1648,86.9087 C33.1648,86.1027 32.6868,85.2897 31.6188,85.2897 L22.2598,85.2897 C21.1908,85.2897 20.7128,86.1047 20.7128,86.9107 C20.7128,87.7147 21.1908,88.5287 22.2598,88.5287 L22.2598,88.5287 Z M66.8348,86.9107 C66.8348,86.1047 67.3128,85.2897 68.3818,85.2897 L77.7408,85.2897 C78.8098,85.2897 79.2878,86.1027 79.2878,86.9087 C79.2878,87.7137 78.8098,88.5287 77.7408,88.5287 L68.3818,88.5287 C67.3128,88.5287 66.8348,87.7147 66.8348,86.9107 L66.8348,86.9107 Z" id="icon_entertainment-center_glass" fill="#3A4B60"></path>
    </g>
</svg>