<?xml version="1.0" encoding="UTF-8"?>
<svg width="100px" height="100px" viewBox="0 0 100 100" version="1.1" xmlns="http://www.w3.org/2000/svg" xmlns:xlink="http://www.w3.org/1999/xlink">
    <title>icon / furniture / exercise-bike</title>
    <g id="icon-/-furniture-/-exercise-bike" stroke="none" stroke-width="1" fill="none" fill-rule="evenodd">
        <path d="M48.229,77.655976 L51.771,77.655976 L51.771,70.878976 L48.229,70.878976 L48.229,77.655976 Z M28.968,84.126976 C23.531,84.126976 19.108,79.703976 19.108,74.267976 C19.108,68.829976 23.531,64.406976 28.968,64.406976 C33.907,64.406976 38.009,68.057976 38.719,72.802976 L28.968,72.802976 C28.159,72.802976 27.503,73.457976 27.503,74.267976 C27.503,75.075976 28.159,75.732976 28.968,75.732976 L38.719,75.732976 C38.009,80.476976 33.907,84.126976 28.968,84.126976 L28.968,84.126976 Z M53.235,67.948976 L46.764,67.948976 C45.955,67.948976 45.299,68.604976 45.299,69.413976 L45.299,72.802976 L41.671,72.802976 C40.942,66.438976 35.525,61.477976 28.968,61.477976 C21.916,61.477976 16.178,67.214976 16.178,74.267976 C16.178,81.319976 21.916,87.056976 28.968,87.056976 C35.525,87.056976 40.942,82.096976 41.671,75.732976 L45.299,75.732976 L45.299,79.120976 C45.299,79.929976 45.955,80.585976 46.764,80.585976 L53.235,80.585976 C54.045,80.585976 54.7,79.929976 54.7,79.120976 L54.7,69.413976 C54.7,68.604976 54.045,67.948976 53.235,67.948976 L53.235,67.948976 Z M94.57,97.070976 L5.43,97.070976 L5.43,95.188976 C5.43,94.273976 6.174,93.528976 7.09,93.528976 L92.91,93.528976 C93.825,93.528976 94.57,94.273976 94.57,95.188976 L94.57,97.070976 Z M12.637,74.267976 C12.637,65.262976 19.963,57.935976 28.968,57.935976 C30.847,57.935976 32.691,58.252976 34.449,58.878976 C34.459,58.882976 34.469,58.886976 34.48,58.889976 L81.677,74.520976 C81.679,74.521976 81.681,74.521976 81.683,74.522976 C82.486,74.784976 83.228,75.163976 83.892,75.633976 C83.938,75.670976 83.986,75.705976 84.038,75.738976 C86.093,77.261976 87.363,79.689976 87.363,82.356976 C87.363,86.901976 83.665,90.598976 79.121,90.598976 L28.968,90.598976 C19.963,90.598976 12.637,83.272976 12.637,74.267976 L12.637,74.267976 Z M9.401,64.712976 L9.401,61.171976 L14.858,61.171976 C13.86,62.245976 12.982,63.433976 12.248,64.712976 L9.401,64.712976 Z M28.364,55.016976 C27.16,55.053976 25.984,55.201976 24.846,55.451976 L22.563,41.757976 L26.154,41.757976 L28.364,55.016976 Z M20.891,38.827976 L20.886,38.827976 L12.637,38.827976 L12.637,37.056976 C12.637,34.295976 14.883,32.050976 17.643,32.050976 L33.822,32.050976 C36.582,32.050976 38.828,34.295976 38.828,37.056976 L38.828,38.827976 L20.891,38.827976 Z M78.223,63.902976 L84.767,64.913976 C84.768,64.913976 84.769,64.914976 84.769,64.914976 L84.771,64.914976 L84.92,64.937976 L83.714,72.173976 C83.352,72.010976 82.98,71.863976 82.595,71.738976 L77.213,69.955976 L78.223,63.902976 Z M83.014,44.992976 L86.605,44.992976 L83.803,61.800976 L80.303,61.258976 L83.014,44.992976 Z M80.586,38.521976 L82.851,38.521976 C82.852,38.521976 82.853,38.522976 82.853,38.522976 C82.855,38.522976 82.855,38.521976 82.857,38.521976 L89.411,38.521976 C89.412,38.521976 89.413,38.522976 89.413,38.522976 C89.415,38.522976 89.416,38.521976 89.418,38.521976 L91.756,38.521976 C92.732,38.521976 93.526,39.316976 93.526,40.292976 C93.526,41.269976 92.732,42.063976 91.756,42.063976 L88.286,42.063976 L88.275,42.063976 L80.586,42.063976 L80.586,38.521976 Z M83.443,19.416976 L84.689,15.991976 L89.811,19.405976 C90.389,19.790976 90.689,20.484976 90.575,21.169976 L88.171,35.592976 L84.58,35.592976 L86.737,22.651976 C86.832,22.082976 86.585,21.511976 86.105,21.191976 L83.443,19.416976 Z M76.646,9.71097602 L78.964,3.34197602 L85.332,5.65997602 L83.015,12.028976 L76.646,9.71097602 Z M76.375,30.272976 L70.006,27.953976 L75.645,12.463976 L82.013,14.781976 L76.375,30.272976 Z M70.879,42.063976 L77.656,42.063976 L77.656,38.521976 L70.879,38.521976 L70.879,42.063976 Z M67.949,42.063976 L64.253,42.063976 C59.708,42.063976 56.011,38.365976 56.011,33.821976 L56.011,27.349976 C56.011,27.123976 56.053,26.902976 56.138,26.692976 L62.608,10.513976 C62.886,9.82197602 63.552,9.40197602 64.255,9.40197602 C64.474,9.40197602 64.695,9.44197602 64.91,9.52797602 C65.35,9.70297602 65.694,10.038976 65.881,10.473976 C66.066,10.908976 66.072,11.389976 65.896,11.828976 L59.657,27.428976 C59.588,27.602976 59.553,27.786976 59.553,27.972976 L59.553,33.821976 C59.553,36.412976 61.661,38.521976 64.253,38.521976 L67.949,38.521976 L67.949,42.063976 Z M92.91,90.598976 L86.653,90.598976 C88.889,88.554976 90.293,85.616976 90.293,82.356976 C90.293,79.016976 88.822,75.950976 86.4,73.875976 L88.054,63.956976 C88.118,63.571976 88.025,63.175976 87.796,62.858976 C87.566,62.540976 87.22,62.328976 86.833,62.268976 L86.698,62.247976 L89.574,44.992976 L91.756,44.992976 C94.348,44.992976 96.456,42.883976 96.456,40.291976 C96.456,37.699976 94.348,35.591976 91.756,35.591976 L91.141,35.591976 L93.465,21.651976 C93.769,19.829976 92.972,17.990976 91.436,16.967976 L85.721,13.157976 L88.587,5.28497602 C88.72,4.92097602 88.702,4.51797602 88.537,4.16497602 C88.373,3.81397602 88.076,3.54097602 87.711,3.40797602 L78.59,0.0879760212 C77.829,-0.187023979 76.988,0.203976021 76.712,0.963976021 L66.752,28.327976 C66.619,28.693976 66.637,29.096976 66.801,29.447976 C66.965,29.800976 67.263,30.072976 67.627,30.205976 L76.749,33.526976 C76.914,33.585976 77.084,33.613976 77.25,33.613976 C77.849,33.613976 78.41,33.244976 78.627,32.650976 L82.412,22.249976 L83.691,23.103976 L81.61,35.591976 L64.252,35.591976 C63.276,35.591976 62.481,34.797976 62.481,33.821976 L62.481,28.254976 L68.617,12.917976 C69.083,11.751976 69.067,10.473976 68.573,9.32097602 C68.078,8.16597602 67.164,7.27397602 65.998,6.80797602 C63.592,5.84497602 60.851,7.01997602 59.889,9.42597602 L53.417,25.603976 C53.193,26.160976 53.08,26.748976 53.08,27.349976 L53.08,33.821976 C53.08,39.981976 58.092,44.992976 64.252,44.992976 L80.043,44.992976 L77.407,60.811976 L77.239,60.784976 C76.444,60.663976 75.702,61.200976 75.57,61.991976 L74.398,69.023976 L35.416,56.113976 C34.099,55.645976 32.74,55.325976 31.357,55.155976 L29.124,41.757976 L40.293,41.757976 C41.102,41.757976 41.758,41.101976 41.758,40.292976 L41.758,37.057976 C41.758,32.681976 38.197,29.120976 33.821,29.120976 L17.643,29.120976 C13.267,29.120976 9.707,32.681976 9.707,37.057976 L9.707,40.292976 C9.707,41.101976 10.363,41.757976 11.172,41.757976 L19.593,41.757976 L22.018,56.304976 C20.701,56.815976 19.454,57.467976 18.295,58.241976 L7.936,58.241976 C7.127,58.241976 6.471,58.897976 6.471,59.706976 L6.471,66.178976 C6.471,66.987976 7.127,67.643976 7.936,67.643976 L10.881,67.643976 C10.122,69.709976 9.707,71.941976 9.707,74.267976 C9.707,81.144976 13.331,87.190976 18.769,90.598976 L7.09,90.598976 C4.559,90.598976 2.5,92.657976 2.5,95.188976 L2.5,98.534976 C2.5,99.343976 3.156,99.999976 3.965,99.999976 L96.035,99.999976 C96.845,99.999976 97.5,99.343976 97.5,98.534976 L97.5,95.188976 C97.5,92.656976 95.44,90.598976 92.91,90.598976 L92.91,90.598976 Z" id="icon_exercise-bike" fill="#3A4B60"></path>
    </g>
</svg>