<?xml version="1.0" encoding="UTF-8"?>
<svg width="12px" height="14px" viewBox="0 0 12 14" version="1.1" xmlns="http://www.w3.org/2000/svg" xmlns:xlink="http://www.w3.org/1999/xlink">
    <title>icon / trash-can / filled</title>
    <g id="simplified" stroke="none" stroke-width="1" fill="none" fill-rule="evenodd">
        <g id="all-items---adding" transform="translate(-118.000000, -724.000000)" fill="#F6511D">
            <g id="content" transform="translate(8.000000, 130.000000)">
                <g id="table" transform="translate(0.000000, 100.000000)">
                    <g id="table-/-td-/-item-sizing" transform="translate(0.000000, 450.000000)">
                        <g id="lg" transform="translate(45.000000, 40.000000)">
                            <g id="icon-/-trash-can-/-filled" transform="translate(64.000000, 4.000000)">
                                <path d="M11.246278,4.58696 C11.463558,4.58696 11.634918,4.77232 11.617278,4.98904 L10.953958,13.18968 C10.916998,13.64748 10.535358,14 10.076438,14 L3.92371795,14 C3.46479795,14 3.08287795,13.64748 3.04591795,13.18968 L2.38287795,4.98904 C2.36523795,4.77232 2.53659795,4.58696 2.75387795,4.58696 L11.246278,4.58696 Z M4.24515795,5.54904 L4.20679795,5.5496 C3.97383795,5.56388 3.79687795,5.76464 3.81115795,5.99732 L4.22695795,12.72964 C4.24039795,12.95364 4.42659795,13.1264 4.64807795,13.1264 C4.65675795,13.1264 4.66571795,13.12584 4.67439795,13.12528 C4.90735795,13.111 5.08459795,12.91052 5.07003795,12.67756 L4.65451795,5.94552 C4.64023795,5.71228 4.43891795,5.5356 4.20679795,5.5496 L4.24515795,5.54904 Z M7.00483795,5.54876 C6.77159795,5.54876 6.58231795,5.73804 6.58231795,5.97128 L6.58231795,12.7036 C6.58231795,12.93684 6.77159795,13.12612 7.00483795,13.12612 C7.23835795,13.12612 7.42707795,12.93684 7.42707795,12.7036 L7.42707795,5.97128 C7.42707795,5.73804 7.23807795,5.54876 7.00483795,5.54876 L7.00483795,5.54876 Z M9.79195795,5.5496 C9.55843795,5.53588 9.35907795,5.7134 9.34535795,5.94636 L8.94859795,12.67868 C8.93487795,12.91164 9.11267795,13.11156 9.34563795,13.12556 C9.35403795,13.12584 9.36243795,13.12612 9.37083795,13.12612 C9.59287795,13.12612 9.77907795,12.9528 9.79223795,12.72852 L10.188998,5.9962 C10.202438,5.76324 10.024918,5.56332 9.79195795,5.5496 L9.79195795,5.5496 Z M11.794798,2.08404 C12.025798,2.08404 12.231318,2.23188 12.304398,2.45112 L12.582158,3.283 C12.635358,3.44344 12.565918,3.60696 12.435718,3.68872 C12.383078,3.72204 12.320078,3.74192 12.251198,3.74192 L1.74895795,3.74192 C1.68007795,3.74192 1.61707795,3.72204 1.56443795,3.68872 C1.43423795,3.60696 1.36479795,3.44344 1.41799795,3.283 L1.69575795,2.45112 C1.76855795,2.23188 1.97435795,2.08404 2.20535795,2.08404 L11.794798,2.08404 Z M8.22563795,0 C8.66103795,0 9.01495795,0.35448 9.01495795,0.78988 L9.01495795,1.23872 L8.17019795,1.23872 L8.17019795,0.84504 L5.82995795,0.84504 L5.82995795,1.23872 L4.98519795,1.23872 L4.98519795,0.78988 C4.98519795,0.35448 5.33911795,0 5.77451795,0 L8.22563795,0 Z" id="icon_trash-can-_-filled"></path>
                            </g>
                        </g>
                    </g>
                </g>
            </g>
        </g>
    </g>
</svg>