<?xml version="1.0" encoding="UTF-8"?>
<svg width="100px" height="100px" viewBox="0 0 100 100" version="1.1" xmlns="http://www.w3.org/2000/svg" xmlns:xlink="http://www.w3.org/1999/xlink">
    <!-- Generator: Sketch 63.1 (92452) - https://sketch.com -->
    <title>icon / furniture / fireplace-tools</title>
    <desc>Created with Sketch.</desc>
    <g id="icon-/-furniture-/-fireplace-tools" stroke="none" stroke-width="1" fill="none" fill-rule="evenodd">
        <path d="M13.7144,97.042 C14.6624,95.471 16.3454,94.511 18.1984,94.511 L81.8014,94.511 C83.6544,94.511 85.3374,95.471 86.2854,97.042 L13.7144,97.042 Z M76.2394,8.995 C76.2394,9.853 75.5424,10.55 74.6844,10.55 C73.8274,10.55 73.1304,9.853 73.1304,8.995 L73.1304,4.097 C73.1304,3.238 73.8274,2.541 74.6844,2.541 C75.5424,2.541 76.2394,3.238 76.2394,4.097 L76.2394,8.995 Z M82.0724,21.39 L76.3284,21.39 L76.3284,17.865 L79.8134,17.865 C81.0594,17.865 82.0724,18.878 82.0724,20.124 L82.0724,21.39 Z M54.5864,19.54 C54.3464,19.773 54.1894,20.084 54.1434,20.415 L54.0094,21.39 L50.5604,21.39 L50.3564,20.163 C50.2964,19.799 50.1054,19.47 49.8184,19.236 L48.1304,17.865 L56.3034,17.865 L54.5864,19.54 Z M53.5994,24.348 L52.4434,32.723 L51.0524,24.348 L53.5994,24.348 Z M21.4884,68.412 C21.2804,68.699 21.2244,69.058 21.3414,69.413 L22.6394,72.5 L21.0124,83.973 C20.9944,84.271 21.1024,84.568 21.3074,84.786 C21.5164,85.008 21.7984,85.13 22.1034,85.13 L38.0774,85.13 C38.6534,85.13 39.1324,84.679 39.1664,84.123 L40.8064,72.502 L40.8154,72.435 L39.2984,68.713 C39.1514,68.263 38.7334,67.961 38.2604,67.961 L31.8784,67.961 L31.8784,24.348 L47.9824,24.348 L51.0484,42.811 L48.7694,59.306 C48.7274,60.006 48.6244,60.815 48.5254,61.221 C44.7524,63.962 44.2894,68.05 44.5684,71.007 C45.0514,76.109 46.8944,79.033 47.7264,80.118 L47.6084,82.83 C47.5714,83.664 48.2204,84.372 49.0524,84.409 L49.1214,84.41 C49.9334,84.41 50.5974,83.774 50.6334,82.963 L50.7774,79.663 C50.7964,79.24 50.6344,78.825 50.3364,78.525 C50.3134,78.503 48.0964,76.148 47.5834,70.721 C47.2784,67.508 48.2394,65.105 50.4574,63.563 C50.5304,63.512 50.5884,63.472 50.6234,63.443 C50.9664,63.18 51.6064,62.688 51.7794,59.602 L52.7144,52.846 L53.7954,59.349 C54.0284,62.571 54.8074,63.067 55.1814,63.306 C55.2284,63.336 55.2984,63.377 55.3914,63.433 C58.0404,64.964 59.2014,67.336 58.8444,70.481 C58.2344,75.852 55.6584,78.129 55.5514,78.22 C55.1874,78.524 54.9834,78.988 55.0084,79.463 L55.1824,82.764 C55.2244,83.567 55.8884,84.197 56.6934,84.197 C56.7224,84.197 56.7534,84.197 56.7734,84.195 C57.1764,84.174 57.5484,83.997 57.8194,83.696 C58.0894,83.396 58.2274,83.008 58.2064,82.604 L58.0684,79.98 C59.0674,78.888 61.2714,75.952 61.8534,70.823 C62.3364,66.57 60.6454,63.057 57.0894,60.918 C56.9794,60.521 56.8584,59.73 56.8124,59.076 C56.8094,59.029 56.8034,58.983 56.7954,58.935 L54.1094,42.76 L56.6564,24.348 L73.3004,24.348 L73.3004,72.989 C73.3004,75.278 74.1064,78.746 75.6464,80.944 C75.9324,81.352 75.9754,81.6 75.9554,81.68 C75.9324,81.773 75.7544,82.003 75.2304,82.275 C71.5394,84.185 68.7014,81.389 68.5834,81.271 C68.0004,80.674 67.0394,80.66 66.4424,81.242 C65.8434,81.824 65.8304,82.785 66.4124,83.384 C67.5724,84.574 69.9014,85.963 72.6494,85.963 C74.0074,85.963 75.3444,85.627 76.6234,84.963 C77.8734,84.316 78.6374,83.455 78.8954,82.402 C79.1484,81.373 78.8894,80.297 78.1264,79.205 C77.1184,77.768 76.3284,75.038 76.3284,72.989 L76.3284,24.348 L82.0724,24.348 L82.0724,91.563 C81.9834,91.557 81.8924,91.553 81.8014,91.553 L18.1984,91.553 C18.1074,91.553 18.0174,91.557 17.9274,91.563 L17.9274,24.348 L28.8504,24.348 L28.8504,67.961 L22.3724,67.961 C22.0184,67.961 21.6954,68.126 21.4884,68.412 L21.4884,68.412 Z M36.3924,82.102 L24.3364,82.102 L25.7544,72.098 L25.2894,70.99 L36.9574,70.99 L37.7024,72.821 L36.3924,82.102 Z M57.0664,21.39 L60.1804,18.314 C60.3044,18.193 60.4034,18.046 60.4814,17.865 L73.3004,17.865 L73.3004,21.39 L57.0664,21.39 Z M31.8784,21.39 L31.8784,17.865 L43.4364,17.865 C43.5204,17.993 43.6194,18.103 43.7324,18.194 L47.4634,21.227 L47.4904,21.39 L31.8784,21.39 Z M30.3634,2.541 C31.2214,2.541 31.9184,3.238 31.9184,4.097 L31.9184,8.995 C31.9184,9.853 31.2214,10.55 30.3634,10.55 C29.5064,10.55 28.8094,9.853 28.8094,8.995 L28.8094,4.097 C28.8094,3.238 29.5064,2.541 30.3634,2.541 L30.3634,2.541 Z M28.8504,21.39 L17.9274,21.39 L17.9274,20.124 C17.9274,18.878 18.9414,17.865 20.1864,17.865 L28.8504,17.865 L28.8504,21.39 Z M85.0314,92.219 L85.0314,20.124 C85.0314,17.248 82.6914,14.907 79.8134,14.907 L76.3284,14.907 L76.3284,12.737 C77.8234,12.081 78.7804,10.63 78.7804,8.995 L78.7804,4.097 C78.7804,1.838 76.9434,0 74.6844,0 C72.4264,0 70.5894,1.838 70.5894,4.097 L70.5894,8.995 C70.5894,10.725 71.6714,12.244 73.3004,12.831 L73.3004,14.907 L60.9324,14.907 L62.3654,3.196 C62.4144,2.794 62.3044,2.398 62.0554,2.079 C61.8064,1.761 61.4474,1.558 61.0444,1.509 C60.2184,1.413 59.4604,2.008 59.3594,2.828 L57.8814,14.907 L45.9064,14.907 L44.0964,2.58 C44.0374,2.18 43.8274,1.826 43.5044,1.586 C43.1804,1.343 42.7814,1.241 42.3784,1.303 C41.5524,1.424 40.9784,2.194 41.0994,3.021 L42.8454,14.907 L31.8784,14.907 L31.8784,12.783 C33.4294,12.163 34.4594,10.663 34.4594,8.995 L34.4594,4.097 C34.4594,1.838 32.6224,0 30.3634,0 C28.1054,0 26.2684,1.838 26.2684,4.097 L26.2684,8.995 C26.2684,10.662 27.2984,12.162 28.8504,12.783 L28.8504,14.907 L20.1864,14.907 C17.3094,14.907 14.9684,17.248 14.9684,20.124 L14.9684,92.219 C11.9444,93.516 10.0004,96.454 10.0004,99.752 L10.0004,100 L90.0004,100 L90.0004,99.752 C90.0004,96.454 88.0554,93.516 85.0314,92.219 L85.0314,92.219 Z" id="icon_fireplace-tools" fill="#3A4B60"></path>
    </g>
</svg>