<?xml version="1.0" encoding="UTF-8"?>
<svg width="100px" height="100px" viewBox="0 0 100 100" version="1.1" xmlns="http://www.w3.org/2000/svg">
    <title>icon / furniture / fireplace_portable</title>
    <g id="icon-/-furniture-/-fireplace_portable" stroke="none" stroke-width="1" fill="none" fill-rule="evenodd">
        <path d="M10.435,21.865 L89.565,21.865 L89.565,14.159 L10.435,14.159 L10.435,21.865 Z M26.64,28.96 L73.36,28.96 L73.36,24.801 L26.64,24.801 L26.64,28.96 Z M86.018,85.817 L73.436,85.817 L73.436,60.927 C73.436,48.384 63.231,38.179 50.688,38.179 C38.145,38.179 27.94,48.384 27.94,60.927 L27.94,85.817 L13.982,85.817 L13.982,24.801 L23.705,24.801 L23.705,30.427 C23.705,31.237 24.363,31.895 25.173,31.895 L74.828,31.895 C75.637,31.895 76.296,31.237 76.296,30.427 L76.296,24.801 L86.018,24.801 L86.018,85.817 Z M55.92,85.67 L55.83,85.817 L45.359,85.817 L45.272,85.661 C43.642,82.779 43.111,79.935 43.736,77.438 C44.124,75.888 44.947,74.455 46.182,73.181 L46.663,72.687 L46.708,73.374 C46.855,75.625 47.928,77.522 49.652,78.579 C51.621,79.785 54.122,79.674 56.175,78.282 L56.462,78.088 L56.619,78.397 C57.687,80.486 57.424,83.204 55.92,85.67 L55.92,85.67 Z M57.658,74.889 C57.367,74.596 56.969,74.429 56.557,74.456 C56.146,74.472 55.759,74.662 55.493,74.977 C54.23,76.474 52.54,76.906 51.186,76.077 C49.898,75.287 48.892,73.185 50.297,69.859 C50.541,69.279 50.389,68.61 49.922,68.193 C49.454,67.774 48.77,67.699 48.222,68.009 C44.299,70.222 41.761,73.237 40.889,76.725 C40.203,79.464 40.526,82.379 41.85,85.388 L42.04,85.817 L41.314,85.817 L41.222,85.704 C39.466,83.561 38.501,80.895 38.501,78.198 C38.501,74.938 40.476,71.497 42.386,68.171 C44.212,64.993 45.932,61.998 45.857,59.214 L45.843,58.693 L46.305,58.935 C48.571,60.122 53.801,63.525 53.446,69.452 C53.414,69.997 53.683,70.512 54.151,70.796 C54.619,71.078 55.201,71.078 55.668,70.797 C56.809,70.111 57.797,69.219 58.523,68.22 L58.726,67.942 L58.979,68.175 C61.436,70.45 62.965,74.313 62.872,78.015 C62.831,79.656 62.416,82.751 60.094,85.042 L59.171,85.953 L59.59,84.726 C60.843,81.051 60.121,77.374 57.658,74.889 L57.658,74.889 Z M70.502,85.817 L63.3,85.817 L63.618,85.341 C64.982,83.296 65.739,80.787 65.806,78.087 C65.933,72.99 63.653,67.934 59.996,65.207 C59.949,65.173 59.899,65.141 59.847,65.111 C59.274,64.781 58.603,64.696 57.96,64.867 C57.383,65.025 56.882,65.381 56.549,65.873 L56.174,66.431 L56.001,65.781 C55.339,63.286 53.881,61.029 51.667,59.07 C49.235,56.918 46.682,55.838 46.195,55.644 C45.687,55.43 45.118,55.392 44.588,55.532 C43.26,55.888 42.469,57.257 42.824,58.585 C43.36,60.583 41.654,63.553 39.848,66.698 C37.838,70.198 35.565,74.154 35.565,78.198 C35.565,80.685 36.216,83.161 37.448,85.361 L37.703,85.817 L30.875,85.817 L30.875,60.927 C30.875,50.001 39.763,41.114 50.688,41.114 C61.613,41.114 70.502,50.001 70.502,60.927 L70.502,85.817 Z M82.106,96.902 L75.211,96.902 L75.211,94.286 C75.211,93.433 74.515,92.738 73.662,92.738 L26.339,92.738 C25.485,92.738 24.789,93.433 24.789,94.286 L24.789,96.902 L17.893,96.902 L17.893,88.751 L82.106,88.751 L82.106,96.902 Z M45.343,11.224 L54.656,11.224 L54.656,8.738 L45.343,8.738 L45.343,11.224 Z M45.343,5.827 L54.656,5.827 L54.656,2.909 L45.343,2.909 L45.343,5.827 Z M91.033,24.801 C91.841,24.801 92.5,24.144 92.5,23.333 L92.5,12.692 C92.5,11.882 91.841,11.224 91.033,11.224 L57.565,11.224 L57.565,1.454 C57.565,0.653 56.913,0 56.111,0 L43.889,0 C43.087,0 42.434,0.653 42.434,1.454 L42.434,7.282 L42.434,11.224 L8.967,11.224 C8.158,11.224 7.5,11.882 7.5,12.692 L7.5,23.333 C7.5,24.144 8.158,24.801 8.967,24.801 L11.047,24.801 L11.047,85.817 L8.966,85.817 C8.156,85.817 7.5,86.473 7.5,87.282 C7.5,88.091 8.156,88.747 8.966,88.747 L14.796,88.751 L14.796,97.69 C14.796,98.964 15.834,100 17.109,100 L25.574,100 C26.85,100 27.888,98.964 27.888,97.69 L27.888,95.835 L72.113,95.835 L72.113,97.69 C72.113,98.964 73.151,100 74.427,100 L82.891,100 C84.168,100 85.206,98.964 85.206,97.69 L85.206,88.751 L91.035,88.747 C91.843,88.747 92.5,88.091 92.5,87.282 C92.5,86.473 91.843,85.817 91.035,85.817 L88.953,85.817 L88.953,24.801 L91.033,24.801 Z"
              id="Fill-1" fill="#3A4B60"></path>
    </g>
</svg>