<?xml version="1.0" encoding="UTF-8"?>
<svg width="100px" height="100px" viewBox="0 0 100 100" version="1.1" xmlns="http://www.w3.org/2000/svg" xmlns:xlink="http://www.w3.org/1999/xlink">
    <title>icon / furniture / fishing-pole</title>
    <g id="icon-/-furniture-/-fishing-pole" stroke="none" stroke-width="1" fill="none" fill-rule="evenodd">
        <path d="M75.1209,95.4894 C75.1209,96.4794 74.2339,97.2664 73.2139,97.0974 C72.4119,96.9664 71.8579,96.2104 71.8579,95.3974 L71.8579,75.7284 C71.8579,75.4574 72.0789,75.2374 72.3499,75.2374 L74.6299,75.2374 C74.9009,75.2374 75.1209,75.4574 75.1209,75.7284 L75.1209,95.4894 Z M68.7879,63.1464 L72.0509,63.1464 L72.0509,59.8834 L68.7879,59.8834 L68.7879,63.1464 Z M65.7449,51.5684 C66.0309,48.0604 68.7879,45.2074 72.0509,44.5684 L72.0509,57.0044 L68.7879,57.0044 L68.7879,56.8114 C68.7879,54.5704 67.5609,52.6124 65.7449,51.5684 L65.7449,51.5684 Z M65.9079,66.0244 C65.9079,67.2554 65.2499,68.3204 64.2229,68.8444 C64.1099,66.0934 62.1669,63.8134 59.5749,63.2094 L59.5749,56.9374 C59.5749,55.4054 60.6069,53.9984 62.1099,53.7064 C64.1319,53.3134 65.9079,54.8594 65.9079,56.8114 L65.9079,66.0244 Z M61.3389,69.7164 C61.1019,70.9544 60.0899,71.9674 58.8519,72.2034 C56.6249,72.6284 54.6979,70.7024 55.1239,68.4744 C55.3599,67.2364 56.3729,66.2244 57.6109,65.9884 C59.8379,65.5624 61.7649,67.4884 61.3389,69.7164 L61.3389,69.7164 Z M65.7169,33.7794 C65.7169,29.9854 68.5959,26.8194 72.0509,26.1424 L72.0509,41.4184 C68.5959,40.7404 65.7169,37.5744 65.7169,33.7794 L65.7169,33.7794 Z M65.7169,15.3544 C65.7169,11.5604 68.5959,8.3944 72.0509,7.7174 L72.0509,22.9924 C68.5959,22.3144 65.7169,19.1484 65.7169,15.3544 L65.7169,15.3544 Z M35.0689,53.9324 L26.1169,53.9324 C26.7259,52.0134 28.5029,50.6704 30.5939,50.6704 C32.6829,50.6704 34.4599,52.0134 35.0689,53.9324 L35.0689,53.9324 Z M30.5939,60.0744 C28.5029,60.0744 26.7259,58.5394 26.1169,56.8114 L35.0689,56.8114 C34.4599,58.5394 32.6839,60.0744 30.5939,60.0744 L30.5939,60.0744 Z M30.5939,66.1204 C29.6929,66.1204 28.9619,65.3884 28.9619,64.4894 C28.9619,63.5904 29.6929,62.8574 30.5939,62.8574 C31.4929,62.8574 32.2249,63.5904 32.2249,64.4894 C32.2249,65.3884 31.4929,66.1204 30.5939,66.1204 L30.5939,66.1204 Z M76.5259,72.3584 L74.9299,72.3584 L74.9299,1.4394 C74.9299,0.6444 74.2849,0.0004 73.4899,0.0004 C72.6949,0.0004 72.0509,0.6444 72.0509,1.4394 L72.0509,4.7274 C60.7259,5.0864 50.1719,9.6644 42.1199,17.7164 C34.0359,25.8004 29.4759,36.4504 29.1499,47.8304 C25.6459,48.4964 22.9999,51.5814 22.9999,55.2764 C22.9999,58.1184 24.5789,60.5984 26.8989,61.8964 C26.0409,63.1154 25.7749,64.7724 26.4989,66.4634 C27.1979,68.0934 28.9109,68.9044 30.6829,69.0024 C31.5409,69.0494 32.2249,69.7614 32.2249,70.6314 C32.2249,71.5304 31.4929,72.2614 30.5929,72.2614 C29.9919,72.2614 29.4669,71.9354 29.1829,71.4514 C28.9029,70.9714 28.4399,70.6304 27.8849,70.6314 C26.7869,70.6314 26.1009,71.8084 26.6249,72.7734 C27.5309,74.4434 29.4599,75.4814 31.5649,75.0394 C33.3219,74.6704 34.7199,73.2144 35.0319,71.4464 C35.2969,69.9454 34.8119,68.5474 33.8919,67.5594 C34.6429,66.7544 35.1029,65.6754 35.1029,64.4894 C35.1029,63.5244 34.7989,62.6314 34.2809,61.8964 C36.6009,60.5994 38.1749,58.1184 38.1749,55.2764 C38.1749,51.5954 35.5379,48.5214 32.0549,47.8384 C32.3779,37.2244 36.6619,27.2944 44.2029,19.7524 C50.1269,13.8284 57.5249,9.9144 65.5699,8.3504 C63.9309,10.2244 62.9329,12.6754 62.9329,15.3544 C62.9329,19.2844 65.0739,22.7204 68.2489,24.5674 C65.0739,26.4144 62.9329,29.8504 62.9329,33.7794 C62.9329,37.7094 65.0739,41.1464 68.2489,42.9924 C65.4679,44.6104 63.4819,47.4494 63.0329,50.7704 C62.9679,50.7684 62.8549,50.7654 62.7899,50.7654 C59.4559,50.7654 56.6959,53.4784 56.6959,56.8114 L56.6959,63.2474 C54.5409,63.7854 52.8119,65.5394 52.3269,67.7164 C51.4499,71.6464 54.4409,75.1404 58.2249,75.1404 C60.4939,75.1404 62.4289,73.8854 63.4629,72.0314 C66.4789,71.6944 68.7869,69.1304 68.7869,66.0244 L72.0509,66.0244 L72.0509,72.3584 L70.4529,72.3584 C69.6399,72.3584 68.9789,73.0174 68.9789,73.8324 L68.9789,95.2884 C68.9789,97.6424 70.6959,99.7494 73.0389,99.9774 C75.7269,100.2404 77.9999,98.1254 77.9999,95.4894 L77.9999,73.8324 C77.9999,73.0174 77.3399,72.3584 76.5259,72.3584 L76.5259,72.3584 Z" id="icon_fishing-pole" fill="#3A4B60"></path>
    </g>
</svg>