<?xml version="1.0" encoding="UTF-8"?>
<svg width="100px" height="100px" viewBox="0 0 100 100" version="1.1" xmlns="http://www.w3.org/2000/svg" xmlns:xlink="http://www.w3.org/1999/xlink">
    <title>icon / furniture / folding-table</title>
    <g id="icon-/-furniture-/-folding-table" stroke="none" stroke-width="1" fill="none" fill-rule="evenodd">
        <path d="M96.9448,18.456 C96.9748,19.114 96.4658,19.098 95.9478,19.089 C78.5058,19.098 11.9178,19.102 3.8228,19.102 C3.3928,19.102 3.0508,18.754 3.0508,18.324 L3.0488,13.819 C3.0488,13.39 3.3888,13.041 3.8188,13.041 C12.4058,13.043 87.2298,13.06 95.8898,13.031 C96.4038,13.015 96.9778,13.045 96.9488,13.703 C96.9518,15.287 96.9504382,16.872 96.9448,18.456 L96.9448,18.456 Z M90.5258,22.528 C90.5188,22.283 90.6408,22.157 90.8828,22.156 C91.5008,22.152 92.1178,22.1533617 92.7358,22.156 C92.9598,22.157 93.0838,22.267 93.0818,22.5 C93.0868,30.442 93.0828,70.198 93.0828,75.339 C93.0828,75.646 92.8338,75.8874444 92.5258,75.8874444 C92.0528,75.8874444 91.4048,75.888 91.1048,75.8874444 C90.7848,75.8874444 90.5248,75.627 90.5248,75.307 C90.5258,70.637 90.5228,35.523 90.5258,22.528 L90.5258,22.528 Z M93.4948,86.952 L90.1398,86.952 C89.5678,86.952 89.1038,86.487 89.1038,85.915 L89.1038,79.976 C89.1038,79.403 89.5678,78.939 90.1398,78.939 L93.4898,78.939 C94.0618,78.939 94.5268,79.403 94.5268,79.976 L94.5318,85.914 C94.5318,86.487 94.0678,86.952 93.4948,86.952 L93.4948,86.952 Z M87.4778,61.32 C87.4698,61.553 87.3498,61.604 87.1538,61.513 C86.3858,61.155 85.6198,60.796 84.8528,60.436 C74.8638,55.745 63.4828,50.506 53.6578,45.847 C55.2878,43.958 55.5228,41.164 53.8848,39.204 C53.7208,39.007 53.7588,38.77 53.9918,38.661 C59.9278,35.883 82.0818,25.569 87.2048,23.156 C87.3878,23.069 87.4668,23.142 87.4748,23.327 C87.4888,35.991 87.4808,48.656 87.4778,61.32 L87.4778,61.32 Z M49.9878,44.3140292 C48.9288,44.309 48.0138,43.374 48.0278,42.314 C48.1778,39.74 51.8798,39.783 51.9658,42.34 C51.9948,43.402 51.0498,44.32 49.9878,44.3140292 L49.9878,44.3140292 Z M81.8958,22.173 C81.8958,22.173 51.8498,36.319 50.3408,37.008 C50.1608,37.09 49.8818,37.098 49.7038,37.018 C42.3498,33.6 17.9238,22.151 17.9238,22.151 L81.8958,22.173 Z M12.8478,61.516 C12.6518,61.602 12.5308,61.547 12.5228,61.317 C12.5128,48.77 12.5228,36.224 12.5198,23.677 C12.5198,23.596 12.5178,23.514 12.5208,23.433 C12.5328,23.076 12.5818,23.057 12.9158,23.212 C18.8288,25.96 40.9488,36.285 46.0988,38.692 C46.3228,38.798 46.3488,38.932 46.1778,39.126 C45.4698,39.93 45.0988,40.89 45.0068,41.942 C44.8568,43.399 45.4858,44.727 46.3678,45.862 C45.1208,46.446 22.8198,56.873 12.8478,61.516 L12.8478,61.516 Z M6.9218,22.488 C6.9238,22.275 7.0388,22.161 7.2468,22.159 C7.8758,22.1545318 8.5048,22.153 9.1328,22.157 C9.5518,22.157 9.4728,22.556 9.4798,22.857 C9.4798,40.355 9.4808,57.853 9.4798,75.352 C9.4798,75.886 9.4788,75.887 8.9288,75.887 C8.4048,75.887 7.8798,75.867 7.3558,75.887 C7.0128,75.9 6.9158,75.764 6.9198,75.436 C6.9318,74.377 6.9098,39.078 6.9218,22.488 L6.9218,22.488 Z M10.9298,85.576 C10.9288,86.309 10.3538,86.928 9.6218,86.952 C8.6678,86.983 7.7118,86.979 6.7568,86.952 C5.9448,86.93 5.4388,86.354 5.4618,85.575 C5.4958,83.595 5.4518,81.613 5.4688,79.633 C5.4728,79.246 5.7898,78.935 6.1748,78.934 C7.5268,78.932 8.8778,78.931 10.2288,78.934 C10.7728,78.935 10.9298,79.094 10.9308,79.65 C10.9328,81.626 10.9338,83.601 10.9298,85.576 L10.9298,85.576 Z M100.000799,12.286 C100.000799,11.023 98.9768,10 97.7148,10 C91.9658,10.001 78.3238,10.004 71.6608,10.007 C51.3278,10.001 12.2958,10 2.2808,10 C1.0178,10 0.000799263893,11.024 0.000799263893,12.287 L0.0048,19.882 C0.0058,21.139 1.0208,22.16 2.2788,22.166 L3.8698,22.181 C3.8698,22.181 3.9128,58.286 3.8618,76.335 C3.8468,76.471 3.7808,76.633 3.6808,76.722 C2.7388,77.566 2.4328,78.621 2.4328,79.935 C2.4328,81.483 2.4348,83.336 2.4458,85.084 C2.4508,85.948 2.4558,86.771 2.8338,87.533 C3.4668,88.811 4.4588,89.706 5.8848,89.865 C7.2218,90.014 8.5848,90.025 9.9298,89.969 C12.4458,89.863 13.9618,87.952 13.9618,85.584 C13.9618,83.797 13.9358,80.696 13.9358,78.932 C13.9358,77.619 13.5068,76.89 12.5138,76.579 C12.5218,72.887 12.5288,69.195 12.5078,65.503 C12.5068,65.097 12.6858,64.926 13.0058,64.781 C14.3788,64.156 46.0628,49.338 49.7278,47.671 C49.8898,47.597 50.1398,47.609 50.3098,47.679 C52.0428,48.462 71.0938,57.409 78.9248,61.011 C81.6548,62.298 84.3908,63.571 87.1308,64.836 C87.3338,64.931 87.4848,65.05 87.4838,65.332 C87.4748,69.075 87.4838,72.818 87.4688,76.56 C86.4098,77.442 86.0428,78.519 86.0428,79.9 C86.0428,81.855 86.0348,83.793 86.0358,85.679 C86.0358,86.335 86.1548,86.988 86.4528,87.572 C87.0928,88.825 88.0808,89.708 89.4948,89.865 C90.8198,90.013 92.1708,90.016 93.5048,89.964 C96.1698,89.862 97.5088,88.009 97.5088,85.477 C97.5088,83.811 97.5098,80.968 97.5098,79.293 C97.5098,78.043 97.3408,77.659 96.4518,76.868 C96.1918,76.638 96.1258,76.398 96.1258,76.078 C96.0578,71.019 96.1258,22.156 96.1258,22.156 L97.7188,22.149 C98.9798,22.146 100.000799,21.124 100.000799,19.863 L100.000799,12.286 Z" id="icon_folding-table" fill="#3A4B60"></path>
    </g>
</svg>