<?xml version="1.0" encoding="UTF-8"?>
<svg width="100px" height="100px" viewBox="0 0 100 100" version="1.1" xmlns="http://www.w3.org/2000/svg" xmlns:xlink="http://www.w3.org/1999/xlink">
    <title>icon / furniture / food-processor</title>
    <g id="icon-/-furniture-/-food-processor" stroke="none" stroke-width="1" fill="none" fill-rule="evenodd">
        <path d="M31.9707,65.3888 L31.9707,73.0838 C31.9707,73.9268 31.2867,74.6118 30.4437,74.6118 C29.5997,74.6118 28.9157,73.9268 28.9157,73.0838 L28.9157,65.3888 C28.9157,64.5458 29.5997,63.8618 30.4437,63.8618 C31.2867,63.8618 31.9707,64.5458 31.9707,65.3888 L31.9707,65.3888 Z M11.6917,65.3888 L11.6917,73.0838 C11.6917,73.9268 11.0077,74.6118 10.1637,74.6118 C9.3207,74.6118 8.6367,73.9268 8.6367,73.0838 L8.6367,65.3888 C8.6367,64.5458 9.3207,63.8618 10.1637,63.8618 C11.0077,63.8618 11.6917,64.5458 11.6917,65.3888 L11.6917,65.3888 Z M21.8307,65.3888 L21.8307,73.0838 C21.8307,73.9268 21.1477,74.6118 20.3037,74.6118 C19.4597,74.6118 18.7767,73.9268 18.7767,73.0838 L18.7767,65.3888 C18.7767,64.5458 19.4597,63.8618 20.3037,63.8618 C21.1477,63.8618 21.8307,64.5458 21.8307,65.3888 L21.8307,65.3888 Z M16.7607,65.3888 L16.7607,73.0838 C16.7607,73.9268 16.0767,74.6118 15.2347,74.6118 C14.3907,74.6118 13.7067,73.9268 13.7067,73.0838 L13.7067,65.3888 C13.7067,64.5458 14.3907,63.8618 15.2347,63.8618 C16.0767,63.8618 16.7607,64.5458 16.7607,65.3888 L16.7607,65.3888 Z M37.0407,65.3888 L37.0407,73.0838 C37.0407,73.9268 36.3577,74.6118 35.5137,74.6118 C34.6697,74.6118 33.9867,73.9268 33.9867,73.0838 L33.9867,65.3888 C33.9867,64.5458 34.6697,63.8618 35.5137,63.8618 C36.3567,63.8618 37.0407,64.5458 37.0407,65.3888 L37.0407,65.3888 Z M26.9017,65.3888 L26.9017,73.0838 C26.9017,73.9268 26.2177,74.6118 25.3737,74.6118 C24.5307,74.6118 23.8467,73.9268 23.8467,73.0838 L23.8467,65.3888 C23.8467,64.5458 24.5307,63.8618 25.3737,63.8618 C26.2177,63.8618 26.9017,64.5458 26.9017,65.3888 L26.9017,65.3888 Z M96.9457,60.8808 C96.9457,62.2008 96.0807,63.3228 94.8897,63.7128 L94.8897,40.1348 C96.0807,40.5248 96.9457,41.6458 96.9457,42.9668 L96.9457,60.8808 Z M85.4007,63.8618 L91.8347,63.8618 L91.8347,39.9858 L85.4007,39.9858 L85.4007,63.8618 Z M82.3467,85.9678 C82.3467,86.5068 81.9077,86.9458 81.3687,86.9458 L4.0327,86.9458 C3.4927,86.9458 3.0547,86.5068 3.0547,85.9678 L3.0547,32.9278 C3.0547,30.4548 5.0667,28.4438 7.5387,28.4438 L39.3897,28.4438 C41.8617,28.4438 43.8727,30.4548 43.8727,32.9278 L43.8727,76.9308 C43.8727,77.7748 44.5567,78.4578 45.4007,78.4578 L70.0517,78.4578 L82.3467,78.4578 L82.3467,85.9678 Z M46.9277,70.7638 L59.0907,70.7638 L58.9487,75.4038 L46.9277,75.4038 L46.9277,70.7638 Z M46.9277,36.1378 L61.2777,36.1378 L61.2777,37.7138 C60.5987,37.8548 60.0817,38.4448 60.0607,39.1628 L59.1847,67.7088 L46.9277,67.7088 L46.9277,36.1378 Z M46.9277,32.9278 L46.9277,31.1238 L48.2687,28.4438 L61.2777,28.4438 L61.2777,33.0828 L46.9277,33.0828 L46.9277,32.9278 Z M62.1477,70.7638 L68.3307,70.7638 L68.4737,75.4038 L62.0047,75.4038 L62.1477,70.7638 Z M63.0687,40.7378 L67.4087,40.7378 L68.2377,67.7088 L62.2407,67.7088 L63.0687,40.7378 Z M64.3327,37.6828 L66.1457,37.6828 L66.1457,36.1378 L64.3327,36.1378 L64.3327,37.6828 Z M64.3307,33.0838 L66.1447,33.0838 L66.1447,28.4438 L64.3307,28.4438 L64.3307,33.0838 Z M82.3467,70.7638 L82.3467,75.4038 L71.5297,75.4038 L71.3867,70.7638 L82.3317,70.7638 L82.3467,70.7638 Z M69.1997,36.1378 L82.3307,36.1378 L82.3467,36.1378 L82.3467,67.7088 L82.3317,67.7088 L71.2927,67.7088 L70.4167,39.1628 C70.3947,38.4448 69.8787,37.8538 69.1997,37.7138 L69.1997,36.1378 Z M69.1997,28.4438 L81.0057,28.4438 L82.3467,31.1238 L82.3467,33.0828 L82.3307,33.0828 L69.1997,33.0828 L69.1997,28.4438 Z M70.0117,25.3888 L77.1157,25.3888 L77.1157,13.0548 L70.0117,13.0548 L70.0117,25.3888 Z M93.9637,36.9308 L85.4017,36.9308 L85.4017,30.7638 C85.4017,30.5268 85.3457,30.2928 85.2397,30.0808 L83.3167,26.2338 C83.0577,25.7158 82.5287,25.3888 81.9497,25.3888 L80.1707,25.3888 L80.1707,13.0548 L81.9497,13.0548 C82.7937,13.0548 83.4777,12.3708 83.4777,11.5278 C83.4777,10.6838 82.7937,9.9998 81.9497,9.9998 L65.2397,9.9998 C64.3957,9.9998 63.7117,10.6838 63.7117,11.5278 C63.7117,12.3708 64.3957,13.0548 65.2397,13.0548 L66.9567,13.0548 L66.9567,25.3888 L62.8047,25.3888 L47.3247,25.3888 C46.7457,25.3888 46.2167,25.7158 45.9577,26.2338 L45.0787,27.9908 C43.6967,26.3988 41.6587,25.3888 39.3897,25.3888 L7.5387,25.3888 C3.3817,25.3888 -0.0003,28.7708 -0.0003,32.9278 L-0.0003,85.9678 C-0.0003,88.1918 1.8087,89.9998 4.0327,89.9998 L81.3687,89.9998 C83.5917,89.9998 85.4017,88.1918 85.4017,85.9678 L85.4017,66.9158 L93.9637,66.9158 C97.2917,66.9158 99.9997,64.2078 99.9997,60.8798 L99.9997,42.9668 C99.9997,39.6388 97.2917,36.9308 93.9637,36.9308 L93.9637,36.9308 Z" id="icon_food-processor" fill="#3A4B60"></path>
    </g>
</svg>