<?xml version="1.0" encoding="UTF-8"?>
<svg width="100px" height="100px" viewBox="0 0 100 100" version="1.1" xmlns="http://www.w3.org/2000/svg" xmlns:xlink="http://www.w3.org/1999/xlink">
    <title>icon / furniture / foosball-table</title>
    <g id="icon-/-furniture-/-foosball-table" stroke="none" stroke-width="1" fill="none" fill-rule="evenodd">
        <path d="M10.7197,37.104 C10.0557,37.104 9.5147,36.563 9.5147,35.899 C9.5147,35.235 10.0557,34.695 10.7197,34.695 C11.3837,34.695 11.9247,35.235 11.9247,35.899 C11.9247,36.563 11.3837,37.104 10.7197,37.104 L10.7197,37.104 Z M8.0117,33.192 C7.1427,34.06 6.6407,35.418 7.0137,36.897 C7.3457,38.21 8.4087,39.274 9.7227,39.605 C11.2007,39.978 12.5597,39.474 13.4277,38.607 C14.2967,37.738 14.7987,36.38 14.4247,34.901 C14.0927,33.588 13.0307,32.526 11.7177,32.194 C10.2387,31.82 8.8807,32.323 8.0117,33.192 L8.0117,33.192 Z M2.6267,40.629 L97.3727,40.629 L97.3727,31.169 L2.6267,31.169 L2.6267,40.629 Z M79.5387,54.729 L20.4597,54.729 L20.4007,54.646 L12.2647,43.256 L87.7357,43.256 L79.5387,54.729 Z M84.1327,74.874 L82.0347,74.874 L73.2767,57.356 L75.3757,57.356 L75.4297,57.465 L84.1327,74.874 Z M26.5807,57.642 L17.9657,74.874 L15.8667,74.874 L24.6237,57.356 L26.7237,57.356 L26.5807,57.642 Z M8.4007,25.125 L9.4077,25.125 L9.4077,28.542 L6.1227,28.542 L8.4007,25.125 Z M90.5937,25.125 L91.5997,25.125 L93.8777,28.542 L90.5937,28.542 L90.5937,25.125 Z M97.9997,28.542 L97.0327,28.542 L93.9797,23.961 C93.3707,23.048 92.3467,22.5 91.2487,22.5 C89.4367,22.5 87.9677,23.969 87.9677,25.781 L87.9677,28.542 L79.3697,28.542 L79.3697,27.337 C79.3697,26.613 78.7827,26.025 78.0577,26.025 C77.3327,26.025 76.7447,26.613 76.7447,27.337 L76.7447,28.542 L68.1477,28.542 L68.1477,27.337 C68.1477,26.613 67.5597,26.025 66.8347,26.025 L66.8337,26.025 C66.1087,26.025 65.5217,26.613 65.5217,27.337 L65.5217,28.542 L56.9247,28.542 L56.9247,27.337 C56.9247,26.613 56.3367,26.025 55.6127,26.025 L55.6117,26.025 C54.8857,26.025 54.2977,26.613 54.2977,27.337 L54.2977,28.542 L45.7017,28.542 L45.7017,27.337 C45.7017,26.613 45.1147,26.025 44.3887,26.025 L44.3877,26.025 C43.6627,26.025 43.0747,26.613 43.0747,27.337 L43.0747,28.542 L34.4797,28.542 L34.4797,27.337 C34.4797,26.613 33.8917,26.025 33.1657,26.025 L33.1647,26.025 C32.4407,26.025 31.8527,26.613 31.8527,27.337 L31.8527,28.542 L23.2557,28.542 L23.2557,27.337 C23.2557,26.613 22.6687,26.025 21.9437,26.025 L21.9427,26.025 C21.2177,26.025 20.6297,26.613 20.6297,27.337 L20.6297,28.542 L12.0317,28.542 L12.0317,25.781 C12.0317,23.969 10.5637,22.5 8.7507,22.5 C7.6547,22.5 6.6297,23.048 6.0207,23.961 L2.9667,28.542 L1.9997,28.542 C0.8957,28.542 -0.0003,29.438 -0.0003,30.542 L-0.0003,41.256 C-0.0003,42.361 0.8957,43.256 1.9997,43.256 L9.0347,43.256 L9.0957,43.338 L18.5107,56.519 C18.8857,57.044 19.4917,57.356 20.1377,57.356 L21.6877,57.356 L21.5447,57.642 L12.6877,75.357 C12.1957,76.341 12.9107,77.5 14.0117,77.5 L18.6737,77.5 C19.2347,77.5 19.7467,77.183 19.9977,76.681 L29.6597,57.356 L70.3397,57.356 L70.3937,57.465 L80.0017,76.681 C80.2527,77.183 80.7657,77.5 81.3257,77.5 L85.9887,77.5 C87.0887,77.5 87.8047,76.341 87.3127,75.357 L78.3127,57.356 L79.8637,57.356 C80.5087,57.356 81.1157,57.044 81.4907,56.518 L90.9647,43.256 L97.9997,43.256 C99.1047,43.256 99.9997,42.361 99.9997,41.256 L99.9997,30.542 C99.9997,29.438 99.1047,28.542 97.9997,28.542 L97.9997,28.542 Z M21.9427,37.104 C21.2787,37.104 20.7377,36.563 20.7377,35.899 C20.7377,35.235 21.2787,34.695 21.9427,34.695 C22.6067,34.695 23.1477,35.235 23.1477,35.899 C23.1477,36.563 22.6067,37.104 21.9427,37.104 L21.9427,37.104 Z M19.2347,33.192 C18.3657,34.06 17.8637,35.418 18.2377,36.897 C18.5697,38.21 19.6317,39.274 20.9457,39.605 C22.4247,39.978 23.7827,39.474 24.6517,38.607 C25.5197,37.738 26.0217,36.38 25.6487,34.902 C25.3167,33.588 24.2527,32.526 22.9407,32.194 C21.4607,31.82 20.1027,32.323 19.2347,33.192 L19.2347,33.192 Z M89.2807,37.104 C88.6157,37.104 88.0747,36.563 88.0747,35.899 C88.0747,35.235 88.6157,34.695 89.2807,34.695 C89.9447,34.695 90.4857,35.235 90.4857,35.899 C90.4857,36.563 89.9447,37.104 89.2807,37.104 L89.2807,37.104 Z M86.5737,33.192 C85.7037,34.06 85.2007,35.418 85.5747,36.897 C85.9077,38.21 86.9707,39.274 88.2837,39.605 C89.7627,39.978 91.1197,39.474 91.9897,38.607 C92.8577,37.738 93.3607,36.38 92.9867,34.902 C92.6547,33.588 91.5907,32.526 90.2787,32.194 C88.7997,31.82 87.4417,32.323 86.5737,33.192 L86.5737,33.192 Z M78.0577,37.104 C77.3937,37.104 76.8527,36.563 76.8527,35.899 C76.8527,35.235 77.3937,34.695 78.0577,34.695 C78.7217,34.695 79.2627,35.235 79.2627,35.899 C79.2627,36.563 78.7217,37.104 78.0577,37.104 L78.0577,37.104 Z M75.3497,33.192 C74.4807,34.06 73.9787,35.418 74.3527,36.897 C74.6847,38.21 75.7467,39.274 77.0607,39.605 C78.5387,39.978 79.8967,39.474 80.7667,38.607 C81.6347,37.738 82.1367,36.38 81.7637,34.902 C81.4317,33.588 80.3677,32.526 79.0557,32.194 C77.5757,31.82 76.2177,32.323 75.3497,33.192 L75.3497,33.192 Z M66.8347,37.104 C66.1707,37.104 65.6297,36.563 65.6297,35.899 C65.6297,35.235 66.1707,34.695 66.8347,34.695 C67.4987,34.695 68.0387,35.235 68.0387,35.899 C68.0387,36.563 67.4987,37.104 66.8347,37.104 L66.8347,37.104 Z M64.1267,33.192 C63.2577,34.06 62.7557,35.417 63.1287,36.897 C63.4607,38.209 64.5247,39.273 65.8377,39.604 C67.3157,39.977 68.6727,39.475 69.5417,38.607 C70.4107,37.739 70.9137,36.38 70.5397,34.902 C70.2087,33.588 69.1457,32.526 67.8317,32.194 C66.3537,31.82 64.9957,32.323 64.1267,33.192 L64.1267,33.192 Z M44.3877,37.104 C43.7237,37.104 43.1847,36.563 43.1847,35.899 C43.1847,35.235 43.7237,34.695 44.3877,34.695 C45.0527,34.695 45.5927,35.235 45.5927,35.899 C45.5927,36.563 45.0527,37.104 44.3877,37.104 L44.3877,37.104 Z M41.6817,33.191 C40.8127,34.06 40.3097,35.417 40.6837,36.896 C41.0147,38.209 42.0777,39.273 43.3917,39.604 C44.8697,39.977 46.2277,39.474 47.0967,38.607 C47.9647,37.739 48.4677,36.38 48.0937,34.901 C47.7617,33.588 46.6987,32.526 45.3857,32.194 C43.9077,31.819 42.5487,32.322 41.6817,33.191 L41.6817,33.191 Z M33.1647,37.104 C32.5007,37.104 31.9607,36.563 31.9607,35.899 C31.9607,35.235 32.5007,34.695 33.1647,34.695 C33.8287,34.695 34.3697,35.235 34.3697,35.899 C34.3697,36.563 33.8287,37.104 33.1647,37.104 L33.1647,37.104 Z M30.4587,33.191 C29.5897,34.06 29.0867,35.417 29.4597,36.896 C29.7917,38.209 30.8557,39.273 32.1687,39.604 C33.6467,39.977 35.0037,39.474 35.8737,38.607 C36.7417,37.739 37.2447,36.38 36.8707,34.901 C36.5387,33.588 35.4767,32.526 34.1627,32.194 C32.6847,31.819 31.3257,32.322 30.4587,33.191 L30.4587,33.191 Z M55.6127,37.104 C54.9487,37.104 54.4077,36.563 54.4077,35.899 C54.4077,35.235 54.9487,34.695 55.6127,34.695 C56.2767,34.695 56.8157,35.235 56.8157,35.899 C56.8157,36.563 56.2767,37.104 55.6127,37.104 L55.6127,37.104 Z M52.9047,33.192 C52.0347,34.06 51.5327,35.417 51.9067,36.897 C52.2387,38.209 53.3017,39.273 54.6147,39.604 C56.0927,39.977 57.4497,39.475 58.3197,38.607 C59.1877,37.739 59.6907,36.38 59.3177,34.902 C58.9867,33.588 57.9227,32.526 56.6097,32.194 C55.1297,31.82 53.7727,32.323 52.9047,33.192 L52.9047,33.192 Z" id="icon_foosball-table" fill="#3A4B60"></path>
    </g>
</svg>