<?xml version="1.0" encoding="UTF-8"?>
<svg width="100px" height="100px" viewBox="0 0 100 100" version="1.1" xmlns="http://www.w3.org/2000/svg">
    <title>icon / furniture / freezer_chest</title>
    <g id="icon-/-furniture-/-freezer_chest" stroke="none" stroke-width="1" fill="none" fill-rule="evenodd">
        <path d="M36.1052,86.394 C36.8432,86.394 37.4412,85.795 37.4412,85.057 L37.4412,83.177 C37.4412,82.439 36.8432,81.84 36.1052,81.84 C35.3672,81.84 34.7682,82.439 34.7682,83.177 L34.7682,85.057 C34.7682,85.795 35.3672,86.394 36.1052,86.394 L36.1052,86.394 Z M30.7582,86.394 C31.4972,86.394 32.0952,85.795 32.0952,85.057 L32.0952,83.177 C32.0952,82.439 31.4972,81.84 30.7582,81.84 C30.0202,81.84 29.4212,82.439 29.4212,83.177 L29.4212,85.057 C29.4212,85.795 30.0202,86.394 30.7582,86.394 L30.7582,86.394 Z M63.8922,86.394 C64.6302,86.394 65.2292,85.795 65.2292,85.057 L65.2292,83.177 C65.2292,82.439 64.6302,81.84 63.8922,81.84 C63.1542,81.84 62.5562,82.439 62.5562,83.177 L62.5562,85.057 C62.5562,85.795 63.1542,86.394 63.8922,86.394 L63.8922,86.394 Z M25.4102,86.394 C26.1482,86.394 26.7472,85.795 26.7472,85.057 L26.7472,83.177 C26.7472,82.439 26.1482,81.84 25.4102,81.84 C24.6712,81.84 24.0742,82.439 24.0742,83.177 L24.0742,85.057 C24.0742,85.795 24.6712,86.394 25.4102,86.394 L25.4102,86.394 Z M62.2062,46.338 L53.1242,46.338 L56.2272,43.235 C56.4702,42.992 56.7992,42.856 57.1422,42.856 L60.0302,42.856 C60.7452,42.856 61.3242,42.277 61.3242,41.562 C61.3242,40.847 60.7452,40.267 60.0302,40.267 L58.6592,40.267 C57.9442,40.267 57.3652,39.688 57.3652,38.973 L57.3652,37.602 C57.3652,36.887 56.7852,36.308 56.0702,36.308 C55.3562,36.308 54.7762,36.887 54.7762,37.602 L54.7762,40.49 C54.7762,40.832 54.6402,41.162 54.3972,41.405 L51.2932,44.507 L51.2932,35.426 C51.2932,34.711 50.7142,34.132 50.0002,34.132 C49.2852,34.132 48.7062,34.711 48.7062,35.426 L48.7062,44.508 L45.6022,41.405 C45.3592,41.162 45.2232,40.832 45.2232,40.49 L45.2232,37.602 C45.2232,36.887 44.6432,36.308 43.9282,36.308 C43.2132,36.308 42.6342,36.887 42.6342,37.602 L42.6342,38.973 C42.6342,39.688 42.0552,40.267 41.3402,40.267 L39.9692,40.267 C39.2552,40.267 38.6752,40.846 38.6752,41.561 C38.6752,42.276 39.2542,42.855 39.9692,42.856 L42.8572,42.856 C43.2002,42.856 43.5292,42.993 43.7722,43.235 L46.8762,46.338 L37.7932,46.338 C37.0792,46.338 36.5002,46.917 36.5002,47.632 C36.5002,48.347 37.0792,48.926 37.7932,48.926 L46.8752,48.926 L43.7722,52.03 C43.5292,52.272 43.2002,52.409 42.8572,52.409 L39.9692,52.409 C39.2542,52.409 38.6752,52.988 38.6752,53.703 C38.6752,54.417 39.2542,54.997 39.9692,54.997 L41.3402,54.997 C42.0552,54.997 42.6342,55.577 42.6342,56.291 L42.6342,57.663 C42.6342,58.376 43.2132,58.957 43.9282,58.957 C44.6432,58.957 45.2232,58.376 45.2232,57.662 L45.2232,54.775 C45.2232,54.432 45.3592,54.102 45.6022,53.86 L48.7062,50.756 L48.7062,59.838 C48.7062,60.553 49.2852,61.132 50.0002,61.132 C50.7142,61.132 51.2932,60.553 51.2932,59.838 L51.2932,50.756 L54.3972,53.86 C54.6402,54.102 54.7762,54.432 54.7762,54.775 L54.7762,57.662 C54.7762,58.376 55.3562,58.957 56.0712,58.957 C56.7862,58.957 57.3652,58.376 57.3652,57.662 L57.3652,56.291 C57.3652,55.577 57.9442,54.997 58.6592,54.997 L60.0292,54.997 C60.7442,54.997 61.3242,54.417 61.3242,53.703 C61.3242,52.988 60.7442,52.409 60.0292,52.409 L57.1422,52.409 C56.7992,52.409 56.4702,52.272 56.2272,52.03 L53.1252,48.926 L62.2062,48.926 C62.9202,48.926 63.5002,48.347 63.5002,47.632 C63.5002,46.917 62.9202,46.338 62.2062,46.338 L62.2062,46.338 Z M2.6742,77.136 L97.3272,77.136 L97.3272,18.128 L2.6742,18.128 L2.6742,77.136 Z M97.3272,79.809 L2.6732,79.809 L2.6732,86.614 C2.6732,87.608 3.4792,88.414 4.4732,88.414 L95.5262,88.414 C96.5202,88.414 97.3272,87.608 97.3272,86.614 L97.3272,79.809 Z M7.4262,94.827 L92.5752,94.827 L92.5752,91.1 L7.4262,91.1 L7.4262,94.827 Z M2.6732,14.248 L2.6732,15.456 L97.3272,15.456 L97.3272,14.248 C97.3272,12.525 95.9302,11.128 94.2082,11.128 L5.7922,11.128 C4.0702,11.128 2.6732,12.525 2.6732,14.248 L2.6732,14.248 Z M21.8342,8.456 L78.1412,8.456 L78.1542,5.173 L21.8342,5.173 L21.8342,8.456 Z M100.0002,14.248 L100.0002,86.599 C100.0002,89.08 97.9932,91.092 95.5122,91.099 L95.2482,91.1 L95.2482,95.701 C95.2482,96.695 94.4422,97.5 93.4482,97.5 L6.5512,97.5 C5.5572,97.5 4.7512,96.695 4.7512,95.701 L4.7512,91.1 L4.4882,91.099 C2.0072,91.092 0.0002,89.08 0.0002,86.599 L0.0002,14.248 C0.0002,11.048 2.5932,8.456 5.7922,8.456 L19.1612,8.456 L19.1612,5.173 L11.3362,5.173 C10.5982,5.173 10.0002,4.575 10.0002,3.836 C10.0002,3.099 10.5982,2.5 11.3362,2.5 L88.6642,2.5 C89.4022,2.5 90.0002,3.099 90.0002,3.836 C90.0002,4.575 89.4022,5.173 88.6642,5.173 L80.8302,5.173 L80.8162,8.456 L94.2082,8.456 C97.4012,8.456 100.0002,11.054 100.0002,14.248 L100.0002,14.248 Z M69.2392,86.394 C69.9772,86.394 70.5762,85.795 70.5762,85.057 L70.5762,83.177 C70.5762,82.439 69.9772,81.84 69.2392,81.84 C68.5012,81.84 67.9022,82.439 67.9022,83.177 L67.9022,85.057 C67.9022,85.795 68.5012,86.394 69.2392,86.394 L69.2392,86.394 Z M73.2492,85.057 L73.2492,83.177 C73.2492,82.439 73.8472,81.84 74.5852,81.84 C75.3242,81.84 75.9212,82.439 75.9212,83.177 L75.9212,85.057 C75.9212,85.795 75.3242,86.394 74.5852,86.394 C73.8472,86.394 73.2492,85.795 73.2492,85.057 L73.2492,85.057 Z"
              id="icon_freezer" fill="#3A4B60"></path>
    </g>
</svg>