<?xml version="1.0" encoding="UTF-8"?>
<svg width="100px" height="100px" viewBox="0 0 100 100" version="1.1" xmlns="http://www.w3.org/2000/svg" xmlns:xlink="http://www.w3.org/1999/xlink">
    <!-- Generator: Sketch 63.1 (92452) - https://sketch.com -->
    <title>icon / furniture / futon-frame</title>
    <desc>Created with Sketch.</desc>
    <g id="icon-/-furniture-/-futon-frame" stroke="none" stroke-width="1" fill="none" fill-rule="evenodd">
        <path d="M5.779,56.885 L93.324,56.885 L93.324,52.793 L5.779,52.793 L5.779,56.885 Z M79.362,64.842 L84.351,64.842 L84.351,59.63 L79.362,59.63 L79.362,64.842 Z M71.285,64.842 L76.274,64.842 L76.274,59.63 L71.285,59.63 L71.285,64.842 Z M63.208,64.842 L68.198,64.842 L68.198,59.63 L63.208,59.63 L63.208,64.842 Z M55.133,64.842 L60.122,64.842 L60.122,59.63 L55.133,59.63 L55.133,64.842 Z M47.057,64.842 L52.046,64.842 L52.046,59.63 L47.057,59.63 L47.057,64.842 Z M38.981,64.842 L43.97,64.842 L43.97,59.63 L38.981,59.63 L38.981,64.842 Z M30.905,64.842 L35.894,64.842 L35.894,59.63 L30.905,59.63 L30.905,64.842 Z M22.829,64.842 L27.818,64.842 L27.818,59.63 L22.829,59.63 L22.829,64.842 Z M14.752,64.842 L19.741,64.842 L19.741,59.63 L14.752,59.63 L14.752,64.842 Z M14.752,29.235 C14.752,28.602 15.268,28.087 15.901,28.087 L19.741,28.087 L19.741,50.047 L14.752,50.047 L14.752,29.235 Z M22.829,50.047 L27.818,50.047 L27.818,28.087 L22.829,28.087 L22.829,50.047 Z M30.904,50.047 L35.893,50.047 L35.893,28.087 L30.904,28.087 L30.904,50.047 Z M38.98,50.047 L43.969,50.047 L43.969,28.087 L38.98,28.087 L38.98,50.047 Z M47.057,50.047 L52.046,50.047 L52.046,28.087 L47.057,28.087 L47.057,50.047 Z M55.133,50.047 L60.122,50.047 L60.122,28.087 L55.133,28.087 L55.133,50.047 Z M63.208,50.047 L68.198,50.047 L68.198,28.087 L63.208,28.087 L63.208,50.047 Z M71.285,50.047 L76.274,50.047 L76.274,28.087 L71.285,28.087 L71.285,50.047 Z M79.361,28.087 L83.202,28.087 C83.835,28.087 84.351,28.602 84.351,29.235 L84.351,50.047 L79.361,50.047 L79.361,28.087 Z M98.46,42.049 L92.172,42.049 C91.321,42.049 90.632,42.738 90.632,43.589 L90.632,43.597 C90.632,44.443 91.325,45.137 92.172,45.137 L93.324,45.137 L93.324,50.047 L87.438,50.047 L87.438,29.235 C87.438,26.896 85.541,25 83.202,25 L15.901,25 C13.562,25 11.666,26.896 11.666,29.235 L11.666,50.047 L5.779,50.047 L5.779,45.137 L7.828,45.137 C8.679,45.137 9.368,44.447 9.368,43.597 L9.368,43.589 C9.368,42.742 8.675,42.049 7.828,42.049 L1.54,42.049 C0.689,42.049 0,42.738 0,43.589 L0,43.597 C0,44.443 0.693,45.137 1.54,45.137 L2.692,45.137 L2.692,72.99 L2.692,72.99 C2.137,72.99 1.687,73.439 1.687,73.995 C1.687,74.55 2.137,75 2.692,75 L5.778,75 C6.333,75 6.783,74.55 6.783,73.995 C6.783,73.44 6.333,72.99 5.779,72.99 L5.779,59.63 L11.666,59.63 L11.666,67.175 C11.666,67.589 12.005,67.929 12.419,67.929 L86.684,67.929 C87.098,67.929 87.438,67.589 87.438,67.175 L87.438,59.63 L93.324,59.63 L93.324,72.99 C92.769,72.99 92.319,73.439 92.319,73.995 C92.319,74.55 92.769,75 93.324,75 L96.41,75 C96.965,75 97.415,74.55 97.415,73.995 C97.415,73.44 96.966,72.99 96.411,72.99 L96.411,45.137 L98.46,45.137 C99.311,45.137 100,44.447 100,43.597 L100,43.589 C100,42.742 99.307,42.049 98.46,42.049 L98.46,42.049 Z" id="icon_futon-frame" fill="#3A4B60"></path>
    </g>
</svg>