<?xml version="1.0" encoding="UTF-8"?>
<svg width="100px" height="100px" viewBox="0 0 100 100" version="1.1" xmlns="http://www.w3.org/2000/svg" xmlns:xlink="http://www.w3.org/1999/xlink">
    <title>icon / furniture / futon-mattress</title>
    <g id="icon-/-furniture-/-futon-mattress" stroke="none" stroke-width="1" fill="none" fill-rule="evenodd">
        <path d="M31.4458,51.186 L32.9638,51.186 L32.9638,52.598 C32.9638,53.407 33.6188,54.063 34.4278,54.063 C35.2368,54.063 35.8928,53.407 35.8928,52.598 L35.8928,51.186 L37.3048,51.186 C38.1138,51.186 38.7698,50.53 38.7698,49.721 C38.7698,48.912 38.1138,48.256 37.3048,48.256 L35.8928,48.256 L35.8928,46.739 C35.8928,45.929 35.2368,45.274 34.4278,45.274 C33.6188,45.274 32.9638,45.929 32.9638,46.739 L32.9638,48.256 L31.4458,48.256 C30.6358,48.256 29.9808,48.912 29.9808,49.721 C29.9808,50.53 30.6358,51.186 31.4458,51.186 L31.4458,51.186 Z M15.8208,39.077 L17.3388,39.077 L17.3388,40.489 C17.3388,41.297 17.9938,41.954 18.8028,41.954 C19.6118,41.954 20.2678,41.297 20.2678,40.489 L20.2678,39.077 L21.6798,39.077 C22.4888,39.077 23.1448,38.42 23.1448,37.612 C23.1448,36.802 22.4888,36.147 21.6798,36.147 L20.2678,36.147 L20.2678,34.629 C20.2678,33.82 19.6118,33.165 18.8028,33.165 C17.9938,33.165 17.3388,33.82 17.3388,34.629 L17.3388,36.147 L15.8208,36.147 C15.0108,36.147 14.3558,36.802 14.3558,37.612 C14.3558,38.42 15.0108,39.077 15.8208,39.077 L15.8208,39.077 Z M15.8208,51.186 L17.3388,51.186 L17.3388,52.598 C17.3388,53.407 17.9938,54.063 18.8028,54.063 C19.6118,54.063 20.2678,53.407 20.2678,52.598 L20.2678,51.186 L21.6798,51.186 C22.4888,51.186 23.1448,50.53 23.1448,49.721 C23.1448,48.912 22.4888,48.256 21.6798,48.256 L20.2678,48.256 L20.2678,46.739 C20.2678,45.929 19.6118,45.274 18.8028,45.274 C17.9938,45.274 17.3388,45.929 17.3388,46.739 L17.3388,48.256 L15.8208,48.256 C15.0108,48.256 14.3558,48.912 14.3558,49.721 C14.3558,50.53 15.0108,51.186 15.8208,51.186 L15.8208,51.186 Z M31.4458,39.077 L32.9638,39.077 L32.9638,40.489 C32.9638,41.297 33.6188,41.954 34.4278,41.954 C35.2368,41.954 35.8928,41.297 35.8928,40.489 L35.8928,39.077 L37.3048,39.077 C38.1138,39.077 38.7698,38.42 38.7698,37.612 C38.7698,36.802 38.1138,36.147 37.3048,36.147 L35.8928,36.147 L35.8928,34.629 C35.8928,33.82 35.2368,33.165 34.4278,33.165 C33.6188,33.165 32.9638,33.82 32.9638,34.629 L32.9638,36.147 L31.4458,36.147 C30.6358,36.147 29.9808,36.802 29.9808,37.612 C29.9808,38.42 30.6358,39.077 31.4458,39.077 L31.4458,39.077 Z M62.6958,51.186 L64.2138,51.186 L64.2138,52.598 C64.2138,53.407 64.8688,54.063 65.6778,54.063 C66.4868,54.063 67.1428,53.407 67.1428,52.598 L67.1428,51.186 L68.5548,51.186 C69.3638,51.186 70.0198,50.53 70.0198,49.721 C70.0198,48.912 69.3638,48.256 68.5548,48.256 L67.1428,48.256 L67.1428,46.739 C67.1428,45.929 66.4868,45.274 65.6778,45.274 C64.8688,45.274 64.2138,45.929 64.2138,46.739 L64.2138,48.256 L62.6958,48.256 C61.8858,48.256 61.2308,48.912 61.2308,49.721 C61.2308,50.53 61.8858,51.186 62.6958,51.186 L62.6958,51.186 Z M78.3208,39.077 L79.8388,39.077 L79.8388,40.489 C79.8388,41.297 80.4938,41.954 81.3028,41.954 C82.1118,41.954 82.7678,41.297 82.7678,40.489 L82.7678,39.077 L84.1798,39.077 C84.9888,39.077 85.6448,38.42 85.6448,37.612 C85.6448,36.802 84.9888,36.147 84.1798,36.147 L82.7678,36.147 L82.7678,34.629 C82.7678,33.82 82.1118,33.165 81.3028,33.165 C80.4938,33.165 79.8388,33.82 79.8388,34.629 L79.8388,36.147 L78.3208,36.147 C77.5108,36.147 76.8558,36.802 76.8558,37.612 C76.8558,38.42 77.5108,39.077 78.3208,39.077 L78.3208,39.077 Z M78.3208,51.186 L79.8388,51.186 L79.8388,52.598 C79.8388,53.407 80.4938,54.063 81.3028,54.063 C82.1118,54.063 82.7678,53.407 82.7678,52.598 L82.7678,51.186 L84.1798,51.186 C84.9888,51.186 85.6448,50.53 85.6448,49.721 C85.6448,48.912 84.9888,48.256 84.1798,48.256 L82.7678,48.256 L82.7678,46.739 C82.7678,45.929 82.1118,45.274 81.3028,45.274 C80.4938,45.274 79.8388,45.929 79.8388,46.739 L79.8388,48.256 L78.3208,48.256 C77.5108,48.256 76.8558,48.912 76.8558,49.721 C76.8558,50.53 77.5108,51.186 78.3208,51.186 L78.3208,51.186 Z M62.6958,39.077 L64.2138,39.077 L64.2138,40.489 C64.2138,41.297 64.8688,41.954 65.6778,41.954 C66.4868,41.954 67.1428,41.297 67.1428,40.489 L67.1428,39.077 L68.5548,39.077 C69.3638,39.077 70.0198,38.42 70.0198,37.612 C70.0198,36.802 69.3638,36.147 68.5548,36.147 L67.1428,36.147 L67.1428,34.629 C67.1428,33.82 66.4868,33.165 65.6778,33.165 C64.8688,33.165 64.2138,33.82 64.2138,34.629 L64.2138,36.147 L62.6958,36.147 C61.8858,36.147 61.2308,36.802 61.2308,37.612 C61.2308,38.42 61.8858,39.077 62.6958,39.077 L62.6958,39.077 Z M47.0708,39.077 L48.5888,39.077 L48.5888,40.489 C48.5888,41.297 49.2438,41.954 50.0528,41.954 C50.8618,41.954 51.5178,41.297 51.5178,40.489 L51.5178,39.077 L52.9298,39.077 C53.7388,39.077 54.3948,38.42 54.3948,37.612 C54.3948,36.802 53.7388,36.147 52.9298,36.147 L51.5178,36.147 L51.5178,34.629 C51.5178,33.82 50.8618,33.165 50.0528,33.165 C49.2438,33.165 48.5888,33.82 48.5888,34.629 L48.5888,36.147 L47.0708,36.147 C46.2608,36.147 45.6058,36.802 45.6058,37.612 C45.6058,38.42 46.2608,39.077 47.0708,39.077 L47.0708,39.077 Z M45.6058,49.721 C45.6058,48.912 46.2608,48.256 47.0708,48.256 L48.5888,48.256 L48.5888,46.739 C48.5888,45.929 49.2438,45.274 50.0528,45.274 C50.8618,45.274 51.5178,45.929 51.5178,46.739 L51.5178,48.256 L52.9298,48.256 C53.7388,48.256 54.3948,48.912 54.3948,49.721 C54.3948,50.53 53.7388,51.186 52.9298,51.186 L51.5178,51.186 L51.5178,52.598 C51.5178,53.407 50.8618,54.063 50.0528,54.063 C49.2438,54.063 48.5888,53.407 48.5888,52.598 L48.5888,51.186 L47.0708,51.186 C46.2608,51.186 45.6058,50.53 45.6058,49.721 L45.6058,49.721 Z M97.0708,69.066 C97.0708,69.343 96.8438,69.571 96.5658,69.571 L3.4338,69.571 C3.1558,69.571 2.9298,69.344 2.9298,69.066 L2.9298,61.207 C2.9298,60.929 3.1558,60.704 3.4338,60.704 L96.5658,60.704 C96.8438,60.704 97.0708,60.929 97.0708,61.207 L97.0708,69.066 Z M8.2038,34.825 C8.2038,32.401 10.1748,30.43 12.5978,30.43 L87.4028,30.43 C89.8258,30.43 91.7978,32.401 91.7978,34.825 L91.7978,57.774 L8.2038,57.774 L8.2038,34.825 Z M96.5658,57.774 L94.7268,57.774 L94.7268,34.825 C94.7268,30.786 91.4418,27.5 87.4028,27.5 L12.5978,27.5 C8.5588,27.5 5.2738,30.786 5.2738,34.825 L5.2738,57.774 L3.4338,57.774 C1.5408,57.774 0.0008,59.314 0.0008,61.207 L0.0008,69.066 C0.0008,70.959 1.5408,72.5 3.4338,72.5 L96.5658,72.5 C98.4598,72.5 100.0008,70.959 100.0008,69.066 L100.0008,61.207 C100.0008,59.314 98.4598,57.774 96.5658,57.774 L96.5658,57.774 Z" id="icon_futon-mattress" fill="#3A4B60"></path>
    </g>
</svg>