<?xml version="1.0" encoding="UTF-8"?>
<svg width="100px" height="100px" viewBox="0 0 100 100" version="1.1" xmlns="http://www.w3.org/2000/svg" xmlns:xlink="http://www.w3.org/1999/xlink">
    <title>icon / furniture / garden-hose</title>
    <g id="icon-/-furniture-/-garden-hose" stroke="none" stroke-width="1" fill="none" fill-rule="evenodd">
        <path d="M37.99,52.275 C39.562,52.275 40.842,53.554 40.842,55.127 C40.842,56.699 39.562,57.978 37.99,57.978 C36.417,57.978 35.137,56.699 35.137,55.127 C35.137,53.554 36.417,52.275 37.99,52.275 L37.99,52.275 Z M37.99,60.921 C41.185,60.921 43.784,58.322 43.784,55.127 C43.784,51.931 41.185,49.333 37.99,49.333 C34.795,49.333 32.195,51.931 32.195,55.127 C32.195,58.322 34.795,60.921 37.99,60.921 L37.99,60.921 Z M97.058,17.452 L82.7,18.665 L82.7,12.628 L97.058,14.217 L97.058,17.452 Z M79.758,10.984 L79.758,20.265 L79.758,20.806 L76.732,20.806 L76.732,18.858 L76.732,12.39 L76.732,10.443 L79.758,10.443 L79.758,10.984 Z M73.79,17.387 L59.171,17.387 C57.128,16.009 54.944,14.826 52.646,13.862 L73.79,13.862 L73.79,17.387 Z M73.037,48.909 C73.037,58.204 69.301,67.164 62.744,73.715 L61.088,70.358 C61.094,70.351 61.101,70.345 61.108,70.338 C66.527,64.494 69.511,56.884 69.511,48.91 C69.511,31.528 55.371,17.387 37.99,17.387 C20.609,17.387 6.468,31.528 6.468,48.91 C6.468,56.935 9.453,64.509 14.892,70.358 L13.236,73.714 C6.679,67.164 2.942,58.204 2.942,48.909 C2.942,29.585 18.665,13.862 37.99,13.862 C57.315,13.862 73.037,29.585 73.037,48.909 L73.037,48.909 Z M29.009,48.396 C30.824,45.142 34.261,43.123 37.99,43.123 C41.718,43.123 45.156,45.142 46.97,48.396 L63.719,82.34 L12.261,82.34 L29.009,48.396 Z M62.265,48.909 C62.265,35.523 51.376,24.633 37.99,24.633 C24.604,24.633 13.714,35.523 13.714,48.909 C13.714,54.131 15.334,59.069 18.401,63.246 L16.295,67.515 C11.841,62.338 9.41,55.806 9.41,48.909 C9.41,33.151 22.231,20.33 37.99,20.33 C53.749,20.33 66.57,33.151 66.57,48.909 C66.57,55.771 64.132,62.334 59.684,67.513 L57.578,63.244 C60.643,59.064 62.265,54.119 62.265,48.909 L62.265,48.909 Z M52.248,48.909 C52.248,49.902 52.146,50.879 51.947,51.833 L49.594,47.062 L49.561,47.001 C47.232,42.794 42.799,40.18 37.99,40.18 C33.181,40.18 28.747,42.794 26.418,47.001 C26.407,47.021 26.396,47.042 26.386,47.062 L24.033,51.832 C23.834,50.878 23.732,49.901 23.732,48.909 C23.732,41.047 30.129,34.652 37.99,34.652 C45.851,34.652 52.248,41.047 52.248,48.909 L52.248,48.909 Z M37.99,31.71 C28.506,31.71 20.79,39.425 20.79,48.909 C20.79,51.231 21.245,53.483 22.142,55.605 C22.146,55.615 22.152,55.625 22.156,55.634 L19.896,60.214 C17.773,56.835 16.656,52.97 16.656,48.909 C16.656,37.146 26.226,27.576 37.99,27.576 C49.754,27.576 59.324,37.146 59.324,48.909 C59.324,52.962 58.207,56.833 56.083,60.215 L53.823,55.634 C54.728,53.504 55.189,51.243 55.189,48.909 C55.189,39.425 47.473,31.71 37.99,31.71 L37.99,31.71 Z M66.082,85.283 L66.086,85.283 L66.092,85.283 L67.931,85.283 C68.229,85.283 68.472,85.526 68.472,85.825 L68.472,89.016 C68.472,89.315 68.229,89.557 67.931,89.557 L8.049,89.557 C7.75,89.557 7.508,89.315 7.508,89.016 L7.508,85.825 C7.508,85.526 7.75,85.283 8.049,85.283 L66.082,85.283 Z M98.691,11.437 L82.657,9.662 C82.441,8.435 81.371,7.5 80.083,7.5 L76.406,7.5 C74.964,7.5 73.79,8.673 73.79,10.117 L73.79,10.92 C73.79,10.92 36.996,10.927 36.945,10.934 C16.479,11.49 0,28.311 0,48.909 C0,59.316 4.32,69.335 11.867,76.488 L8.98,82.34 L8.049,82.34 C6.128,82.34 4.564,83.904 4.564,85.825 L4.564,89.016 C4.564,90.937 6.128,92.5 8.049,92.5 L67.931,92.5 C69.852,92.5 71.415,90.937 71.415,89.016 L71.415,85.825 C71.415,83.904 69.852,82.34 67.931,82.34 L67,82.34 L64.112,76.489 C71.659,69.335 75.979,59.316 75.979,48.909 C75.979,37.527 70.946,27.298 62.99,20.33 L73.79,20.33 L73.79,21.132 C73.79,22.575 74.964,23.749 76.406,23.749 L80.083,23.749 C81.358,23.749 82.422,22.831 82.652,21.622 L98.652,20.27 C99.415,20.206 100,19.568 100,18.803 L100,12.9 C100,12.15 99.436,11.52 98.691,11.437 L98.691,11.437 Z" id="Fill-1" fill="#3A4B60"></path>
    </g>
</svg>