<?xml version="1.0" encoding="UTF-8"?>
<svg width="100px" height="100px" viewBox="0 0 100 100" version="1.1" xmlns="http://www.w3.org/2000/svg">
    <title>icon / furniture / generator</title>
    <g id="icon-/-furniture-/-generator" stroke="none" stroke-width="1" fill="none" fill-rule="evenodd">
        <path d="M88.6511,70.1924 C87.5051,68.0724 85.1721,66.7404 82.7581,66.8844 C81.2491,66.9744 79.7731,67.6314 78.7021,68.7024 C77.5181,69.8854 76.8661,71.4604 76.8661,73.1344 C76.8661,74.8084 77.5181,76.3824 78.7021,77.5664 C81.1461,80.0104 85.1231,80.0104 87.5671,77.5664 C89.4791,75.6554 89.9401,72.5754 88.6511,70.1924 L88.6511,70.1924 Z M89.6071,79.6074 C87.8231,81.3924 85.4781,82.2854 83.1341,82.2854 C80.7901,82.2854 78.4461,81.3924 76.6611,79.6074 C74.9321,77.8794 73.9801,75.5804 73.9801,73.1344 C73.9801,70.6894 74.9321,68.3904 76.6611,66.6614 C78.4371,64.8854 80.9441,63.9064 83.4531,63.9934 C85.1341,64.0504 86.8021,64.5834 88.2031,65.5164 C90.3641,66.9574 91.8361,69.3264 92.1811,71.8994 C92.2471,72.3854 92.2721,72.8764 92.2591,73.3644 C92.1971,75.6824 91.2621,77.9534 89.6071,79.6074 L89.6071,79.6074 Z M40.0491,33.0354 C40.0491,32.1294 39.3131,31.3934 38.4081,31.3934 C37.5041,31.3934 36.7661,32.1294 36.7661,33.0354 C36.7661,33.9404 37.5031,34.6764 38.4081,34.6764 C39.3131,34.6764 40.0491,33.9404 40.0491,33.0354 L40.0491,33.0354 Z M42.9361,33.0354 C42.9361,35.5314 40.9051,37.5624 38.4081,37.5624 C35.9121,37.5624 33.8801,35.5314 33.8801,33.0354 C33.8801,30.5394 35.9121,28.5074 38.4081,28.5074 C40.9051,28.5074 42.9361,30.5394 42.9361,33.0354 L42.9361,33.0354 Z M63.6071,35.0994 L62.0641,36.6414 C61.5011,37.2054 61.5011,38.1194 62.0641,38.6814 C62.3461,38.9634 62.7151,39.1044 63.0851,39.1044 C63.4541,39.1044 63.8231,38.9634 64.1051,38.6814 L65.6471,37.1394 C66.2111,36.5764 66.2111,35.6624 65.6471,35.0994 C65.0841,34.5364 64.1711,34.5364 63.6071,35.0994 L63.6071,35.0994 Z M69.3531,37.6624 C69.3531,34.2054 66.5411,31.3934 63.0851,31.3934 C59.6281,31.3934 56.8161,34.2054 56.8161,37.6624 C56.8161,41.1184 59.6281,43.9304 63.0851,43.9304 C66.5411,43.9304 69.3531,41.1184 69.3531,37.6624 L69.3531,37.6624 Z M72.2391,37.6624 C72.2391,42.7104 68.1321,46.8164 63.0851,46.8164 C58.0371,46.8164 53.9301,42.7104 53.9301,37.6624 C53.9301,32.6144 58.0371,28.5064 63.0851,28.5064 C68.1321,28.5064 72.2391,32.6144 72.2391,37.6624 L72.2391,37.6624 Z M97.1141,73.1334 C97.1141,65.4254 90.8421,59.1544 83.1341,59.1544 C75.4251,59.1544 69.1541,65.4254 69.1541,73.1334 C69.1541,80.8424 75.4251,87.1144 83.1341,87.1144 C90.8421,87.1144 97.1141,80.8424 97.1141,73.1334 L97.1141,73.1334 Z M67.8111,63.8804 C67.8111,62.9754 67.0751,62.2394 66.1701,62.2394 L52.2891,62.2394 C51.3831,62.2394 50.6471,62.9754 50.6471,63.8804 L50.6471,70.0494 C50.6471,70.9554 51.3831,71.6914 52.2891,71.6914 L66.3311,71.6914 C66.5001,69.7084 67.0131,67.8224 67.8111,66.0924 L67.8111,63.8804 Z M47.7611,70.0494 L47.7611,63.8804 C47.7611,61.3834 49.7931,59.3524 52.2891,59.3524 L57.0151,59.3524 L57.0151,56.0704 L46.0201,56.0704 L46.0201,59.2544 C46.0201,60.8994 44.6811,62.2394 43.0351,62.2394 L27.1391,62.2394 C26.6301,63.1574 25.6501,63.7814 24.5281,63.7814 L22.8861,63.7814 L22.8861,71.6914 L48.0711,71.6914 C47.8721,71.1814 47.7611,70.6294 47.7611,70.0494 L47.7611,70.0494 Z M20.0001,63.7814 L18.3581,63.7814 C16.7131,63.7814 15.3731,62.4424 15.3731,60.7964 L15.3731,55.7544 L12.6331,55.0684 C10.6141,54.5634 9.2041,52.7574 9.2041,50.6764 L9.2041,43.3574 C8.2861,42.8484 7.6621,41.8694 7.6621,40.7464 L7.6621,40.6474 L2.8861,40.6474 L2.8861,66.9644 C2.8861,69.5714 5.0061,71.6914 7.6121,71.6914 L20.0001,71.6914 L20.0001,63.7814 Z M15.2741,83.8314 C14.3691,83.8314 13.6321,84.5674 13.6321,85.4724 L13.6321,87.1144 L16.9161,87.1144 L16.9161,85.4724 C16.9161,84.5674 16.1791,83.8314 15.2741,83.8314 L15.2741,83.8314 Z M2.8861,37.7604 L7.6611,37.7604 L7.6611,25.2244 L2.8861,25.2244 L2.8861,37.7604 Z M2.8861,22.3384 L62.4871,22.3384 L66.1701,22.3384 L81.6911,22.3384 L81.6911,17.6124 C81.6911,15.0054 79.5711,12.8854 76.9651,12.8854 L7.6121,12.8854 C5.0061,12.8854 2.8861,15.0054 2.8861,17.6124 L2.8861,22.3384 Z M78.4091,37.7604 L81.6911,37.7604 L81.6911,25.2244 L78.4091,25.2244 L78.4091,37.7604 Z M66.0701,59.3524 L66.1701,59.3524 C68.0511,59.3524 69.6681,60.5074 70.3501,62.1454 C73.1511,58.8914 77.1701,56.7154 81.6911,56.3314 L81.6911,40.6474 L78.4081,40.6474 L78.4081,53.0854 C78.4081,54.7304 77.0691,56.0704 75.4221,56.0704 L66.0701,56.0704 L66.0701,59.3524 Z M15.3731,43.7314 L12.0891,43.7314 L12.0891,50.6764 C12.0891,51.4304 12.6011,52.0864 13.3341,52.2684 L15.3741,52.7794 L15.3731,43.7314 Z M27.5131,59.3524 L36.9651,59.3524 L36.9651,54.6274 C36.9651,54.5724 36.9211,54.5274 36.8661,54.5274 L27.5131,54.5274 L27.5131,59.3524 Z M24.6271,43.7314 L18.2591,43.7314 L18.2591,60.7964 C18.2591,60.8504 18.3031,60.8954 18.3581,60.8954 L24.5281,60.8954 C24.5831,60.8954 24.6281,60.8504 24.6281,60.7964 L24.6271,43.7314 Z M39.8511,54.6274 L39.8511,59.3524 L43.0351,59.3524 C43.0891,59.3524 43.1341,59.3084 43.1341,59.2544 L43.1341,43.7484 C43.0301,43.7384 42.9241,43.7314 42.8181,43.7314 L27.5131,43.7314 L27.5131,51.6414 L36.8661,51.6414 C38.5121,51.6414 39.8511,52.9804 39.8511,54.6274 L39.8511,54.6274 Z M46.0201,45.5024 L46.0201,53.1834 L54.6631,53.1834 L46.0201,45.5024 Z M59.9011,56.0604 L59.9011,59.3524 L63.1841,59.3524 L63.1841,56.0704 C63.1841,56.0704 60.0051,56.0664 59.9011,56.0604 L59.9011,56.0604 Z M75.4221,53.1834 C75.4781,53.1834 75.5221,53.1394 75.5221,53.0854 L75.5221,25.2244 L66.1701,25.2244 L62.4871,25.2244 L10.5471,25.2244 L10.5471,40.7464 C10.5471,40.8004 10.5921,40.8454 10.6471,40.8454 L42.8181,40.8454 C44.3061,40.8454 45.7381,41.3894 46.8501,42.3794 L58.1011,52.3804 C58.6851,52.8984 59.4361,53.1834 60.2161,53.1834 L75.4221,53.1834 Z M100.0001,73.1334 C100.0001,82.4334 92.4341,90.0004 83.1341,90.0004 C74.3211,90.0004 67.0651,83.2044 66.3311,74.5774 L16.7161,74.5774 L16.7161,81.1814 C18.5071,81.7864 19.8011,83.4804 19.8011,85.4724 L19.8011,88.5564 C19.8011,89.3534 19.1551,90.0004 18.3581,90.0004 L12.1891,90.0004 C11.3921,90.0004 10.7471,89.3534 10.7471,88.5564 L10.7471,85.4724 C10.7471,83.4804 12.0401,81.7864 13.8311,81.1814 L13.8311,74.5774 L7.6121,74.5774 C3.4151,74.5774 0.0001,71.1624 0.0001,66.9644 L0.0001,17.6124 C0.0001,13.4154 3.4151,10.0004 7.6121,10.0004 L76.9651,10.0004 C81.1631,10.0004 84.5781,13.4154 84.5781,17.6124 L84.5781,56.3314 C93.2041,57.0654 100.0001,64.3204 100.0001,73.1334 L100.0001,73.1334 Z M16.8161,34.6764 L15.2741,34.6764 C14.4771,34.6764 13.8311,35.3224 13.8311,36.1194 C13.8311,36.9164 14.4771,37.5624 15.2741,37.5624 L16.8161,37.5624 C17.6131,37.5624 18.2591,36.9164 18.2591,36.1194 C18.2591,35.3224 17.6131,34.6764 16.8161,34.6764 L16.8161,34.6764 Z M27.7121,33.0354 C27.7121,32.1294 26.9751,31.3934 26.0701,31.3934 C25.1651,31.3934 24.4281,32.1294 24.4281,33.0354 C24.4281,33.9404 25.1651,34.6764 26.0701,34.6764 C26.9751,34.6764 27.7121,33.9404 27.7121,33.0354 L27.7121,33.0354 Z M30.5971,33.0354 C30.5971,35.5314 28.5661,37.5624 26.0701,37.5624 C23.5741,37.5624 21.5431,35.5314 21.5431,33.0354 C21.5431,30.5394 23.5731,28.5074 26.0701,28.5074 C28.5661,28.5074 30.5971,30.5394 30.5971,33.0354 L30.5971,33.0354 Z M18.2591,29.9504 C18.2591,30.7474 17.6131,31.3934 16.8161,31.3934 L15.2741,31.3934 C14.4771,31.3934 13.8311,30.7474 13.8311,29.9504 C13.8311,29.1534 14.4771,28.5074 15.2741,28.5074 L16.8161,28.5074 C17.6131,28.5074 18.2591,29.1534 18.2591,29.9504 L18.2591,29.9504 Z"
              id="Fill-1" fill="#3A4B60"></path>
    </g>
</svg>