<?xml version="1.0" encoding="UTF-8"?>
<svg width="100px" height="100px" viewBox="0 0 100 100" version="1.1" xmlns="http://www.w3.org/2000/svg" xmlns:xlink="http://www.w3.org/1999/xlink">
    <title>icon / furniture / golf-bag</title>
    <g id="icon-/-furniture-/-golf-bag" stroke="none" stroke-width="1" fill="none" fill-rule="evenodd">
        <path d="M74.1726,48.0723 C74.1756,48.0753 74.1756,48.0793 74.1726,48.0823 L67.3896,54.8623 C67.3866,54.8653 67.3826,54.8653 67.3796,54.8623 L47.4616,34.9443 C47.4586,34.9413 47.4586,34.9373 47.4616,34.9343 C48.6026,33.7953 49.7416,32.6543 50.8836,31.5143 C50.8866,31.5113 50.8906,31.5113 50.8936,31.5143 L55.7936,36.4083 C56.7636,37.3783 57.5046,37.3793 58.3736,37.2793 C58.4656,37.2683 62.8176,36.8713 62.9586,36.8663 C62.9606,36.8663 62.9616,36.8673 62.9626,36.8683 C63.0146,36.9183 63.0806,36.9843 63.1416,37.0453 L74.1726,48.0723 Z M65.3076,56.9443 L48.4676,73.7773 C48.4646,73.7803 48.4606,73.7803 48.4576,73.7773 L28.5786,53.9053 C28.5756,53.9033 28.5756,53.8983 28.5786,53.8953 L29.8346,52.6333 C29.9326,52.5353 30.0116,52.4263 30.0756,52.3113 C30.0756,52.3103 30.0756,52.3103 30.0766,52.3093 C34.0526,48.3353 44.2486,38.1453 45.3796,37.0153 C45.3826,37.0123 45.3866,37.0134066 45.3886,37.0153 L65.3076,56.9343 C65.3106,56.9363 65.3106,56.9413 65.3076,56.9443 L65.3076,56.9443 Z M35.8606,86.3803 L29.7376,80.2593 C29.3556,79.8773 29.1456,79.3653 29.1456,78.8173 C29.1456,78.2703 29.3556,77.7593 29.7366,77.3773 L38.8286,68.2943 L46.3906,75.8533 L35.8606,86.3803 Z M27.6576,94.5793 L9.3156,76.2393 C9.3106,76.2343 9.3066,76.2293 9.3016,76.2243 C9.2966,76.2183 9.2906,76.2153 9.2856,76.2103 L7.7296,74.6533 C9.6936,72.6883 26.5086,55.9783 26.5086,55.9783 L36.7566,66.2223 L27.6656,75.3043 C26.7306,76.2403 26.2156,77.4873 26.2156,78.8173 C26.2156,80.1483 26.7316,81.3953 27.6656,82.3313 L33.7886,88.4513 L27.6576,94.5793 Z M20.2086,96.8073 L5.4926,82.1023 L8.2646,79.3323 L22.9766,94.0403 L20.2086,96.8073 Z M4.1126,57.1563 C3.2856,56.3293 2.8786,55.2953 2.9346,54.1673 C2.9906,53.0373 3.5136,51.9233 4.4056,51.0313 L9.1566,46.2823 L11.4636,48.5893 L7.5776,52.4683 C7.1066,52.9403 6.8466,53.5693 6.8466,54.2403 C6.8466,54.9113 7.1066,55.5403 7.5786,56.0123 L14.9066,63.3333 C14.1386,64.1023 13.3686,64.8713 12.6006,65.6393 L4.1126,57.1563 Z M10.1926,42.9563 L20.6176,32.5333 C20.6776,32.4743 20.7806,32.4743 20.8396,32.5333 L25.2186,36.9123 L25.2196,36.9123 C25.2476,36.9403 25.2636,36.9773 25.2636,37.0213 C25.2636,37.0643 25.2486,37.1013 25.2186,37.1313 L14.7976,47.5493 C14.7416,47.6033 14.6466,47.6093 14.5836,47.5613 C14.5736,47.5523 14.5646,47.5443 14.5536,47.5343 L10.2596,43.2423 L10.1936,43.1763 C10.1936,43.1763 10.1936,43.1763 10.1936,43.1763 L10.1936,43.1753 C10.1636,43.1453 10.1486,43.1083 10.1486,43.0653 C10.1486,43.0213 10.1626,42.9853 10.1926,42.9563 L10.1926,42.9563 Z M28.0656,36.1363 L31.9076,32.2913 L38.9326,39.3173 C31.6126,46.6323 24.2946,53.9473 16.9796,61.2613 L9.9496,54.2403 L13.8016,50.3943 C14.8536,50.7043 16.0376,50.4433 16.8636,49.6253 L27.2906,39.2033 C27.8726,38.6213 28.1936,37.8463 28.1936,37.0213 C28.1936,36.7173 28.1496,36.4203 28.0656,36.1363 L28.0656,36.1363 Z M28.6966,26.7503 C30.4666,24.9793 33.3486,24.9793 35.1186,26.7503 L43.3126,34.9393 C42.5426,35.7083 41.7736,36.4763 41.0046,37.2463 L33.6796,29.9193 C32.7026,28.9423 31.1126,28.9423 30.1346,29.9203 L26.2536,33.8033 L23.9466,31.4973 L28.6966,26.7503 Z M83.7396,36.3063 C85.1996,36.2003 86.7146,36.9153 88.2286,38.4283 L91.4946,41.6933 C93.4106,43.6093 93.2156,45.5913 92.1706,46.7053 C91.1246,47.8223 89.1236,48.1193 87.0136,46.2643 C84.5416,44.0963 81.9966,40.1483 80.6136,37.7013 C81.6616,36.8493 82.7096,36.3813 83.7396,36.3063 L83.7396,36.3063 Z M64.4646,8.8513 C62.6116,6.7443 62.9086,4.7453 64.0236,3.6993 C64.5346,3.2193 65.2306,2.9183 66.0176,2.9183 C66.9456,2.9183 68.0026,3.3373 69.0396,4.3733 L72.3066,7.6383 C73.7226,9.0533 74.4406,10.4663 74.439601,11.8363 C74.4386,12.9593 73.9666,14.1043 73.0336,15.2493 C70.5846,13.8683 66.6356,11.3233 64.4646,8.8513 L64.4646,8.8513 Z M92.3596,20.5343 L95.6256,23.8003 C97.5416,25.7153 97.3466,27.6963 96.3016,28.8103 C95.2546,29.9273 93.2546,30.2243 91.1446,28.3713 C88.6736,26.2033 86.1276,22.2553 84.7446,19.8063 C87.2966,17.7283 89.7956,17.9713 92.3596,20.5343 L92.3596,20.5343 Z M89.2116,30.5733 C90.8976,32.0533 92.6176,32.6523 94.1686,32.6523 C95.8966,32.6523 97.4136,31.9093 98.4406,30.8143 C100.4456,28.6733 100.8356,24.8643 97.6966,21.7273 L94.4306,18.4623 C90.4406,14.4733 85.8626,14.4723 81.8716,18.4623 L65.2836,35.0443 L65.2046,34.9663 C64.2626,34.0233 63.6836,33.8403 62.1036,33.9853 L58.4206,34.3283 C58.3226,34.3373 58.2356,34.3463 58.1516,34.3553 L74.3776,18.1223 C74.3786,18.1223 74.3786,18.1213 74.3796,18.1203 C76.3616,16.1413 77.3676,14.0273 77.3686,11.8383 C77.3696,9.6623 76.3636,7.5523 74.3776,5.5673 L71.1106,2.3013 C67.9716,-0.8367 64.1606,-0.4457 62.0196,1.5633 C59.9436,3.5093 59.1346,7.2263 62.2646,10.7863 C64.5016,13.3343 68.2316,15.8453 70.9326,17.4243 L55.9446,32.4193 L52.6176,29.0963 C52.1586,28.6313 51.5446,28.3743 50.8886,28.3743 C50.2326,28.3743 49.6176,28.6313 49.1656,29.0893 C47.9046,30.3493 46.6456,31.6093 45.3846,32.8693 L37.1906,24.6773 C34.2766,21.7653 29.5376,21.7663 26.6256,24.6773 L21.6126,29.6883 C20.5626,29.3763 19.3756,29.6343 18.5466,30.4623 L8.1216,40.8843 C7.5386,41.4663 7.2186,42.2403 7.2186,43.0653 C7.2186,43.3703 7.2626,43.6673 7.3466,43.9503 L2.3346,48.9593 C0.9276,50.3663 0.1016,52.1643 0.0086,54.0203 C-0.0894,55.9703 0.6336,57.8203 2.0416,59.2283 L10.5276,67.7123 C8.7906,69.4493 7.0536,71.1863 5.3166,72.9233 C4.8496,73.3833 4.5926,73.9973 4.5926,74.6533 C4.5926,75.3093 4.8496,75.9243 5.3086,76.3753 L6.1936,77.2603 L3.0386,80.4143 C2.1146,81.3373 2.0586,82.7963 2.9226,83.6763 L18.6256,99.3683 C19.0236,99.7723 19.5636,99.9973 20.1476,100.0003 L20.1576,100.0003 C20.7946,100.0003 21.4276,99.7313 21.8986,99.2613 L25.0486,96.1123 L25.9416,97.0063 C26.4136,97.4703 27.0336,97.7043 27.6556,97.7043 C28.2796,97.7043 28.9046,97.4683 29.3836,96.9983 L76.6046,49.7953 C77.5446,48.8413 77.5416,47.2973 76.5966,46.3523 L74.2416,43.9983 L78.4416,39.8013 C80.0196,42.5013 82.5316,46.2303 85.0806,48.4673 C86.7676,49.9473 88.4866,50.5463 90.0376,50.5463 C91.7656,50.5463 93.2836,49.8033 94.3096,48.7093 C96.3166,46.5673 96.7056,42.7593 93.5676,39.6223 L90.3006,36.3563 C88.1576,34.2153 85.8806,33.2143 83.5296,33.3843 C81.5136,33.5303 79.5666,34.5303 77.7426,36.3563 L77.7416,36.3563 L72.1696,41.9263 L67.3576,37.1163 L82.5716,21.9063 C84.1506,24.6073 86.6636,28.3373 89.2116,30.5733 L89.2116,30.5733 Z" id="Fill-1" fill="#3A4B60"></path>
    </g>
</svg>