<?xml version="1.0" encoding="UTF-8"?>
<svg width="100px" height="100px" viewBox="0 0 100 100" version="1.1" xmlns="http://www.w3.org/2000/svg" xmlns:xlink="http://www.w3.org/1999/xlink">
    <title>icon / furniture / guitar</title>
    <g id="icon-/-furniture-/-guitar" stroke="none" stroke-width="1" fill="none" fill-rule="evenodd">
        <path d="M95.6531,13.3298 L85.1571,20.0318 L79.9681,14.8448 L86.6701,4.3478 C87.4901,3.0628 89.1421,2.5748 90.5141,3.2118 L90.5901,3.2478 C92.5551,4.1858 94.0491,3.6818 95.0391,3.3468 C95.9451,3.0398 96.0201,3.0148 96.5031,3.4968 C96.9981,3.9918 96.9721,4.0658 96.6621,4.9708 C96.3241,5.9558 95.8141,7.4448 96.7551,9.4148 L96.7881,9.4858 C97.4251,10.8568 96.9371,12.5108 95.6531,13.3298 L95.6531,13.3298 Z M79.1691,25.6128 L74.3881,20.8328 L78.0971,17.1238 L82.8771,21.9038 L79.1691,25.6128 Z M72.3061,32.4758 L67.5271,27.6948 L72.3131,22.9078 L77.0931,27.6878 L72.3061,32.4758 Z M65.4441,39.3378 L60.6651,34.5578 L65.4511,29.7698 L70.2311,34.5508 L65.4441,39.3378 Z M70.7551,52.7708 C70.6361,56.5998 69.0571,60.0758 66.1871,62.8268 C64.0021,64.9208 62.0921,66.0948 60.4081,67.1298 C57.7991,68.7318 55.5481,70.1168 53.9851,73.8928 C53.2151,75.7538 52.9061,77.6548 52.5781,79.6688 C52.1671,82.1938 51.6931,84.7168 50.5141,87.0158 C49.2991,89.3868 47.4291,91.3878 45.3271,93.0038 C44.2521,93.8298 43.0971,94.5578 41.8851,95.1638 C37.1731,97.5288 32.0211,97.6718 26.5591,95.5508 C21.0601,93.4138 16.4071,89.4678 13.4721,86.5328 C10.1661,83.2258 5.8211,77.9988 3.9051,71.8788 C1.9161,65.5228 3.0451,59.6228 7.2611,54.3408 C11.6521,48.8398 16.0671,48.1208 20.3361,47.4258 C22.3491,47.0978 24.2511,46.7868 26.1111,46.0178 C29.8861,44.4558 31.2711,42.2028 32.8741,39.5948 C33.9091,37.9098 35.0831,36.0008 37.1861,33.8008 C39.5581,31.3308 42.7061,29.6918 46.1261,29.3368 C49.3951,28.9978 52.6821,29.7888 55.6151,31.2208 C56.5461,31.6758 57.4441,32.1938 58.3081,32.7638 L44.3781,46.6938 C40.6991,45.9328 36.7171,46.9748 33.8671,49.8238 C29.3701,54.3218 29.3701,61.6398 33.8671,66.1368 C36.1161,68.3858 39.0701,69.5108 42.0231,69.5108 C44.9771,69.5108 47.9311,68.3858 50.1791,66.1368 C53.0291,63.2868 54.0711,59.3058 53.3091,55.6258 L67.2401,41.6938 C69.6541,45.3538 70.8671,49.1548 70.7551,52.7708 L70.7551,52.7708 Z M50.6221,57.9798 C50.6221,60.2768 49.7271,62.4368 48.1031,64.0608 C44.7511,67.4138 39.2961,67.4148 35.9421,64.0608 C32.5901,60.7088 32.5901,55.2528 35.9421,51.8988 C37.6191,50.2228 39.8201,49.3848 42.0231,49.3848 C44.2241,49.3848 46.4271,50.2238 48.1031,51.8988 C49.7271,53.5228 50.6221,55.6838 50.6221,57.9798 L50.6221,57.9798 Z M50.1781,49.8238 C49.3471,48.9918 48.4201,48.3158 47.4311,47.7918 L51.7271,43.4958 L56.5071,48.2748 L52.2111,52.5718 C51.6871,51.5838 51.0101,50.6548 50.1781,49.8238 L50.1781,49.8238 Z M63.3691,41.4128 L58.5831,46.1998 L53.8021,41.4198 L58.5901,36.6328 L63.3691,41.4128 Z M97.4971,15.6248 C99.8161,13.9648 100.6591,10.8518 99.4501,8.2498 L99.4011,8.1458 C98.9791,7.2628 99.1621,6.7288 99.4381,5.9228 C99.8081,4.8428 100.3681,3.2118 98.5781,1.4218 C96.8061,-0.3502 95.1771,0.2018 94.0981,0.5658 C93.2831,0.8418 92.7451,1.0238 91.8501,0.5978 L91.7511,0.5498 C89.1481,-0.6592 86.0361,0.1838 84.3761,2.5038 L83.6491,1.7768 C83.0771,1.2038 82.1471,1.2048 81.5741,1.7768 C81.0011,2.3508 81.0011,3.2798 81.5741,3.8528 L82.7521,5.0298 L81.8061,6.5108 L81.0581,5.7618 C80.4861,5.1878 79.5561,5.1888 78.9831,5.7618 C78.4101,6.3348 78.4101,7.2648 78.9831,7.8378 L80.1891,9.0438 L79.2551,10.5078 L78.6681,9.9198 C78.0941,9.3468 77.1651,9.3468 76.5911,9.9198 C76.0181,10.4928 76.0181,11.4228 76.5911,11.9958 L77.6371,13.0418 L76.9471,14.1228 L60.4231,30.6478 C54.8831,26.8348 48.9711,25.4988 43.6231,26.7818 C43.3111,26.8558 43.0051,26.9458 42.6981,27.0378 C42.6521,27.0518 42.6061,27.0618 42.5601,27.0758 C39.8001,27.9278 37.2471,29.4938 35.0541,31.7818 C32.7431,34.1938 31.4261,36.3348 30.3741,38.0578 C28.8751,40.4958 27.8841,42.1068 24.9891,43.3058 C23.4431,43.9448 21.7051,44.2278 19.8641,44.5278 C15.2701,45.2758 10.0641,46.1248 4.9671,52.5098 C-6.9189,67.3998 5.5041,82.7148 11.3961,88.6078 C14.5311,91.7418 19.5211,95.9658 25.4971,98.2858 C28.4391,99.4298 31.3121,99.9998 34.0981,99.9998 C36.3661,99.9998 38.6231,99.6038 40.7581,98.8448 C42.8491,98.1008 44.7991,97.0208 46.5931,95.7208 C48.4051,94.4098 50.0681,92.8508 51.4231,91.0678 C52.6741,89.4218 53.6301,87.5758 54.2721,85.6108 C54.8231,83.9268 55.1401,82.1828 55.4261,80.4368 C55.4431,80.3378 55.4591,80.2388 55.4751,80.1408 C55.7751,78.2998 56.0581,76.5598 56.6971,75.0158 C57.8951,72.1188 59.5071,71.1288 61.9451,69.6308 C63.6651,68.5728 65.8061,67.2578 68.2171,64.9458 C75.0941,58.3548 75.4921,48.5068 69.3531,39.5808 L85.8791,23.0548 L86.9601,22.3638 L88.0061,23.4098 C88.6021,24.0068 89.6101,23.9668 90.1591,23.3258 C90.6511,22.7518 90.6161,21.8688 90.0821,21.3338 L89.4941,20.7458 L90.9581,19.8118 L92.1641,21.0178 C92.7601,21.6148 93.7691,21.5748 94.3171,20.9338 C94.8091,20.3588 94.7741,19.4768 94.2391,18.9428 L93.4911,18.1938 L94.9701,17.2498 L96.1481,18.4268 C96.7451,19.0238 97.7531,18.9828 98.3011,18.3428 C98.7941,17.7678 98.7571,16.8858 98.2231,16.3508 L97.4971,15.6248 Z M37.2941,78.3068 L35.6291,79.9718 C35.4211,80.1798 35.0831,80.1798 34.8751,79.9718 L20.0331,65.1288 C19.8261,64.9208 19.8261,64.5818 20.0331,64.3748 L21.6981,62.7098 C21.9061,62.5018 22.2441,62.5018 22.4521,62.7098 L37.2941,77.5528 C37.5021,77.7608 37.5021,78.0998 37.2941,78.3068 L37.2941,78.3068 Z M24.5271,60.6348 C23.1741,59.2818 20.9741,59.2818 19.6231,60.6348 L17.9581,62.2988 C16.6051,63.6508 16.6051,65.8508 17.9581,67.2038 L32.7991,82.0468 C33.4761,82.7228 34.3641,83.0608 35.2521,83.0608 C36.1401,83.0598 37.0281,82.7228 37.7051,82.0468 L39.3691,80.3828 C40.7211,79.0298 40.7211,76.8298 39.3691,75.4768 L24.5271,60.6348 Z" id="icon_guitar" fill="#3A4B60"></path>
    </g>
</svg>