<?xml version="1.0" encoding="UTF-8"?>
<svg width="100px" height="100px" viewBox="0 0 100 100" version="1.1" xmlns="http://www.w3.org/2000/svg" xmlns:xlink="http://www.w3.org/1999/xlink">
    <!-- Generator: Sketch 63.1 (92452) - https://sketch.com -->
    <title>icon / furniture / gun-safe</title>
    <desc>Created with Sketch.</desc>
    <g id="icon-/-furniture-/-gun-safe" stroke="none" stroke-width="1" fill="none" fill-rule="evenodd">
        <path d="M31.452,33.505 L33.07,33.505 L33.07,16.95 L31.452,16.95 L31.452,33.505 Z M35.187,34.564 L35.187,15.893 C35.187,15.309 34.712,14.834 34.129,14.834 L30.395,14.834 C29.811,14.834 29.335,15.309 29.335,15.893 L29.335,34.564 C29.335,35.146 29.811,35.621 30.395,35.621 L34.129,35.621 C34.712,35.621 35.187,35.146 35.187,34.564 L35.187,34.564 Z M40.685,59.712 C40.685,60.238 40.257,60.666 39.73,60.666 C39.204,60.666 38.775,60.238 38.775,59.712 C38.775,59.186 39.204,58.757 39.73,58.757 C40.257,58.757 40.685,59.186 40.685,59.712 L40.685,59.712 Z M58.253,24.027 L55.411,24.027 C55.273,23.2 54.944,22.408 54.453,21.723 L56.466,19.709 C57.469,20.95 58.085,22.437 58.253,24.027 L58.253,24.027 Z M45.54,21.718 C45.046,22.4 44.727,23.176 44.587,24.027 L41.745,24.027 C41.914,22.437 42.529,20.95 43.532,19.709 L45.54,21.718 Z M46.347,24.299 C46.476,23.528 46.823,22.854 47.379,22.293 C47.679,21.992 47.722,21.532 47.497,21.185 L47.512,21.17 L44.791,18.45 C46.032,17.447 47.52,16.832 49.108,16.663 L49.108,20.386 L49.112,20.511 L49.13,20.511 C49.216,20.912 49.578,21.213 49.999,21.213 C51.09,21.213 52.12,21.69 52.823,22.522 C53.531,23.359 53.833,24.457 53.651,25.536 C53.314,27.547 51.399,28.901 49.381,28.57 C48.408,28.407 47.556,27.873 46.982,27.065 C46.408,26.257 46.183,25.274 46.347,24.299 L46.347,24.299 Z M49.108,30.33 L49.108,33.172 C47.519,33.003 46.031,32.387 44.79,31.385 L46.803,29.374 C47.491,29.871 48.266,30.192 49.108,30.33 L49.108,30.33 Z M50.89,19.505 L50.89,16.663 C52.479,16.833 53.967,17.448 55.207,18.45 L53.195,20.461 C52.509,19.965 51.734,19.644 50.89,19.505 L50.89,19.505 Z M55.207,31.385 C53.967,32.387 52.479,33.003 50.89,33.172 L50.89,30.329 C51.716,30.193 52.509,29.863 53.194,29.372 L55.207,31.385 Z M54.456,28.114 C54.953,27.426 55.273,26.651 55.411,25.808 L58.253,25.808 C58.085,27.397 57.469,28.885 56.466,30.126 L54.456,28.114 Z M45.544,28.112 L43.531,30.126 C42.528,28.885 41.914,27.396 41.745,25.808 L44.587,25.808 C44.725,26.634 45.054,27.426 45.544,28.112 L45.544,28.112 Z M49.999,14.835 C44.439,14.835 39.916,19.358 39.916,24.918 C39.916,30.478 44.439,35.001 49.999,35.001 C55.559,35.001 60.082,30.478 60.082,24.918 C60.082,19.358 55.559,14.835 49.999,14.835 L49.999,14.835 Z M40.685,53.902 L40.685,56.392 C40.685,56.918 40.257,57.347 39.73,57.347 C39.204,57.347 38.775,56.918 38.775,56.392 L38.775,53.902 C38.775,53.376 39.204,52.948 39.73,52.948 C40.257,52.948 40.685,53.376 40.685,53.902 L40.685,53.902 Z M72.531,17.551 L74.149,17.551 L74.149,14.066 L72.531,14.066 L72.531,17.551 Z M70.415,77.656 L70.415,83.257 C70.415,83.841 70.89,84.315 71.472,84.315 L72.282,84.315 L72.282,88.548 L27.717,88.548 L27.717,7.718 L72.282,7.718 L72.282,11.95 L71.472,11.95 C70.89,11.95 70.415,12.425 70.415,13.008 L70.415,18.61 C70.415,19.193 70.89,19.668 71.472,19.668 L72.282,19.668 L72.282,76.598 L71.472,76.598 C70.89,76.598 70.415,77.073 70.415,77.656 L70.415,77.656 Z M72.531,82.199 L74.149,82.199 L74.149,78.714 L72.531,78.714 L72.531,82.199 Z M75.206,11.95 L74.398,11.95 L74.398,6.66 C74.398,6.076 73.923,5.602 73.339,5.602 L26.66,5.602 C26.076,5.602 25.601,6.076 25.601,6.66 L25.601,89.605 C25.601,90.189 26.076,90.664 26.66,90.664 L73.339,90.664 C73.923,90.664 74.398,90.189 74.398,89.605 L74.398,84.315 L75.206,84.315 C75.79,84.315 76.266,83.841 76.266,83.257 L76.266,77.656 C76.266,77.073 75.79,76.598 75.206,76.598 L74.398,76.598 L74.398,19.668 L75.206,19.668 C75.79,19.668 76.266,19.193 76.266,18.61 L76.266,13.008 C76.266,12.425 75.79,11.95 75.206,11.95 L75.206,11.95 Z M40.56,49.629 L38.899,49.629 C37,49.629 35.456,51.173 35.456,53.072 L35.456,57.64 C34.544,56.598 34.045,55.283 34.045,53.902 C34.045,50.768 36.595,48.218 39.73,48.218 C42.864,48.218 45.415,50.768 45.415,53.902 C45.415,55.263 44.904,56.608 44.004,57.643 L44.004,53.072 C44.004,51.173 42.459,49.629 40.56,49.629 L40.56,49.629 Z M41.687,72.454 L41.627,72.88 C41.492,73.817 40.678,74.524 39.73,74.524 C38.782,74.524 37.967,73.817 37.834,72.88 L37.772,72.454 C37.502,70.564 37.365,68.636 37.365,66.721 L37.365,53.072 C37.365,52.227 38.054,51.538 38.899,51.538 L40.56,51.538 C41.407,51.538 42.096,52.227 42.096,53.072 L42.096,66.721 C42.096,68.631 41.958,70.56 41.687,72.454 L41.687,72.454 Z M39.73,46.309 C35.544,46.309 32.137,49.716 32.137,53.902 C32.137,56.403 33.377,58.737 35.456,60.159 L35.456,66.72 C35.456,68.718 35.6,70.739 35.883,72.724 L35.943,73.149 C36.21,75.021 37.838,76.434 39.73,76.434 C41.622,76.434 43.25,75.021 43.517,73.149 L43.576,72.724 C43.859,70.746 44.004,68.726 44.004,66.721 L44.004,60.159 C46.083,58.735 47.322,56.401 47.322,53.902 C47.322,49.716 43.917,46.309 39.73,46.309 L39.73,46.309 Z M77.884,4.793 L77.884,91.473 C77.884,92.948 76.683,94.149 75.206,94.149 L24.793,94.149 C23.316,94.149 22.115,92.948 22.115,91.473 L22.115,4.793 C22.115,3.317 23.316,2.116 24.793,2.116 L75.206,2.116 C76.683,2.116 77.884,3.317 77.884,4.793 L77.884,4.793 Z M27.717,97.884 L29.335,97.884 L29.335,96.266 L27.717,96.266 L27.717,97.884 Z M70.664,97.884 L72.282,97.884 L72.282,96.266 L70.664,96.266 L70.664,97.884 Z M75.206,0 L24.793,0 C22.15,0 20,2.15 20,4.793 L20,91.473 C20,94.115 22.15,96.266 24.793,96.266 L25.601,96.266 L25.601,98.942 C25.601,99.525 26.076,100 26.66,100 L30.395,100 C30.977,100 31.451,99.525 31.451,98.942 L31.451,96.266 L68.547,96.266 L68.547,98.942 C68.547,99.525 69.021,100 69.604,100 L73.339,100 C73.923,100 74.398,99.525 74.398,98.942 L74.398,96.266 L75.206,96.266 C77.85,96.266 80,94.115 80,91.473 L80,4.793 C80,2.15 77.85,0 75.206,0 L75.206,0 Z" id="icon_gun-safe" fill="#3A4B60"></path>
    </g>
</svg>