<?xml version="1.0" encoding="UTF-8"?>
<svg width="100px" height="100px" viewBox="0 0 100 100" version="1.1" xmlns="http://www.w3.org/2000/svg" xmlns:xlink="http://www.w3.org/1999/xlink">
    <!-- Generator: Sketch 63.1 (92452) - https://sketch.com -->
    <title>icon / furniture / gun-cabinet_wood</title>
    <desc>Created with Sketch.</desc>
    <g id="icon-/-furniture-/-gun-cabinet_wood" stroke="none" stroke-width="1" fill="none" fill-rule="evenodd">
        <path d="M72.387,68.358 L75.511,68.358 L75.511,8.001 L72.387,8.001 L72.387,68.358 Z M54.072,68.358 L59.258,68.358 L59.258,8.001 L54.072,8.001 L54.072,68.358 Z M62.012,68.358 L64.792,68.358 L64.792,8.001 L62.012,8.001 L62.012,68.358 Z M67.545,68.358 L69.633,68.358 L69.633,8.001 L67.545,8.001 L67.545,68.358 Z M78.272,6.621 L78.272,69.737 C78.272,70.5 77.654,71.118 76.891,71.118 L52.692,71.118 C51.929,71.118 51.311,70.5 51.311,69.737 L51.311,6.621 C51.311,5.859 51.929,5.24 52.692,5.24 L76.891,5.24 C77.654,5.24 78.272,5.859 78.272,6.621 L78.272,6.621 Z M41.076,68.358 L45.928,68.358 L45.928,8.001 L41.076,8.001 L41.076,68.358 Z M24.489,68.358 L28.185,68.358 L28.185,8.001 L24.489,8.001 L24.489,68.358 Z M30.939,68.358 L34.284,68.358 L34.284,8.001 L30.939,8.001 L30.939,68.358 Z M37.038,68.358 L38.321,68.358 L38.321,8.001 L37.038,8.001 L37.038,68.358 Z M48.688,6.621 L48.688,69.737 C48.688,70.5 48.071,71.118 47.308,71.118 L23.108,71.118 C22.346,71.118 21.728,70.5 21.728,69.737 L21.728,6.621 C21.728,5.859 22.346,5.24 23.108,5.24 L47.308,5.24 C48.071,5.24 48.688,5.859 48.688,6.621 L48.688,6.621 Z M80.912,72.195 L80.901,72.195 L80.901,2.761 L19.099,2.761 L19.107,73.917 L80.912,73.917 L80.912,72.195 Z M19.107,87.979 L80.912,87.979 L80.912,76.671 L19.107,76.671 L19.107,87.979 Z M79.359,90.732 L20.661,90.732 L20.661,97.246 L28.262,97.246 L28.262,94.702 C28.262,93.941 28.879,93.325 29.639,93.325 L69.809,93.325 C70.57,93.325 71.186,93.941 71.186,94.702 L71.186,97.246 L79.359,97.246 L79.359,90.732 Z M83.662,2.759 L83.666,74.403 C83.666,74.72 83.601,75.021 83.485,75.294 C83.601,75.567 83.666,75.87 83.666,76.186 L83.666,88.465 C83.666,89.473 83.013,90.328 82.112,90.622 L82.112,97.731 C82.112,98.982 81.108,100 79.873,100 L70.672,100 C69.437,100 68.432,98.982 68.432,97.731 L68.432,96.079 L31.015,96.079 L31.015,97.731 C31.015,98.982 30.012,100 28.776,100 L20.147,100 C18.912,100 17.907,98.982 17.907,97.731 L17.907,90.622 C17.008,90.328 16.354,89.473 16.354,88.465 L16.354,76.186 C16.354,75.869 16.419,75.567 16.535,75.294 C16.419,75.021 16.354,74.72 16.354,74.403 L16.354,72.195 L16.339,72.195 L16.339,2.759 C15.595,2.736 15,2.129 15,1.38 C15,0.632 15.595,0.025 16.339,0.002 L16.339,0 L83.662,0 L83.662,0.002 C84.404,0.025 85,0.632 85,1.38 C85,2.129 84.404,2.736 83.662,2.759 L83.662,2.759 Z M45.171,82.423 C45.171,81.662 45.788,81.046 46.548,81.046 L53.452,81.046 C54.212,81.046 54.828,81.662 54.828,82.423 C54.828,83.184 54.212,83.8 53.452,83.8 L46.548,83.8 C45.788,83.8 45.171,83.184 45.171,82.423 L45.171,82.423 Z" id="icon_gun-cabinet_wood" fill="#3A4B60"></path>
    </g>
</svg>