<?xml version="1.0" encoding="UTF-8"?>
<svg width="100px" height="100px" viewBox="0 0 100 100" version="1.1" xmlns="http://www.w3.org/2000/svg" xmlns:xlink="http://www.w3.org/1999/xlink">
    <title>icon / furniture / hamper</title>
    <g id="icon-/-furniture-/-hamper" stroke="none" stroke-width="1" fill="none" fill-rule="evenodd">
        <path d="M46.24,81.4529 C46.887,81.4529 47.413,80.9279 47.413,80.2799 L47.413,77.7729 C47.413,77.1259 46.887,76.6009 46.24,76.6009 C45.593,76.6009 45.067,77.1259 45.067,77.7729 L45.067,80.2799 C45.067,80.9279 45.593,81.4529 46.24,81.4529 L46.24,81.4529 Z M42.48,43.8519 C43.128,43.8519 43.652,43.3269 43.652,42.6799 L43.652,40.1729 C43.652,39.5249 43.128,38.9999 42.48,38.9999 C41.832,38.9999 41.307,39.5249 41.307,40.1729 L41.307,42.6799 C41.307,43.3269 41.832,43.8519 42.48,43.8519 L42.48,43.8519 Z M42.48,58.8919 C43.128,58.8919 43.652,58.3669 43.652,57.7199 L43.652,55.2129 C43.652,54.5649 43.128,54.0409 42.48,54.0409 C41.832,54.0409 41.307,54.5649 41.307,55.2129 L41.307,57.7199 C41.307,58.3669 41.832,58.8919 42.48,58.8919 L42.48,58.8919 Z M46.24,66.4129 C46.887,66.4129 47.413,65.8879 47.413,65.2399 L47.413,62.7329 C47.413,62.0859 46.887,61.5599 46.24,61.5599 C45.593,61.5599 45.067,62.0859 45.067,62.7329 L45.067,65.2399 C45.067,65.8879 45.593,66.4129 46.24,66.4129 L46.24,66.4129 Z M42.48,73.9319 C43.128,73.9319 43.652,73.4079 43.652,72.7599 L43.652,70.2539 C43.652,69.6049 43.128,69.0809 42.48,69.0809 C41.832,69.0809 41.307,69.6049 41.307,70.2539 L41.307,72.7599 C41.307,73.4079 41.832,73.9319 42.48,73.9319 L42.48,73.9319 Z M50,88.9739 C50.648,88.9739 51.173,88.4479 51.173,87.8009 L51.173,85.2939 C51.173,84.6459 50.648,84.1209 50,84.1209 C49.352,84.1209 48.828,84.6459 48.828,85.2939 L48.828,87.8009 C48.828,88.4479 49.352,88.9739 50,88.9739 L50,88.9739 Z M50,73.9319 C50.648,73.9319 51.173,73.4079 51.173,72.7599 L51.173,70.2539 C51.173,69.6049 50.648,69.0809 50,69.0809 C49.352,69.0809 48.828,69.6049 48.828,70.2539 L48.828,72.7599 C48.828,73.4079 49.352,73.9319 50,73.9319 L50,73.9319 Z M50,58.8919 C50.648,58.8919 51.173,58.3669 51.173,57.7199 L51.173,55.2129 C51.173,54.5649 50.648,54.0409 50,54.0409 C49.352,54.0409 48.828,54.5649 48.828,55.2129 L48.828,57.7199 C48.828,58.3669 49.352,58.8919 50,58.8919 L50,58.8919 Z M42.48,88.9739 C43.128,88.9739 43.652,88.4479 43.652,87.8009 L43.652,85.2939 C43.652,84.6459 43.128,84.1209 42.48,84.1209 C41.832,84.1209 41.307,84.6459 41.307,85.2939 L41.307,87.8009 C41.307,88.4479 41.832,88.9739 42.48,88.9739 L42.48,88.9739 Z M50,43.8519 C50.648,43.8519 51.173,43.3269 51.173,42.6799 L51.173,40.1729 C51.173,39.5249 50.648,38.9999 50,38.9999 C49.352,38.9999 48.828,39.5249 48.828,40.1729 L48.828,42.6799 C48.828,43.3269 49.352,43.8519 50,43.8519 L50,43.8519 Z M46.24,51.3719 C46.887,51.3719 47.413,50.8479 47.413,50.1999 L47.413,47.6929 C47.413,47.0459 46.887,46.5199 46.24,46.5199 C45.593,46.5199 45.067,47.0459 45.067,47.6929 L45.067,50.1999 C45.067,50.8479 45.593,51.3719 46.24,51.3719 L46.24,51.3719 Z M46.24,36.3319 C46.887,36.3319 47.413,35.8069 47.413,35.1589 L47.413,32.6519 C47.413,32.0049 46.887,31.4799 46.24,31.4799 C45.593,31.4799 45.067,32.0049 45.067,32.6519 L45.067,35.1589 C45.067,35.8069 45.593,36.3319 46.24,36.3319 L46.24,36.3319 Z M31.2,51.3719 C31.847,51.3719 32.372,50.8479 32.372,50.1999 L32.372,47.6929 C32.372,47.0459 31.847,46.5199 31.2,46.5199 C30.552,46.5199 30.027,47.0459 30.027,47.6929 L30.027,50.1999 C30.027,50.8479 30.552,51.3719 31.2,51.3719 L31.2,51.3719 Z M31.2,66.4129 C31.847,66.4129 32.372,65.8879 32.372,65.2399 L32.372,62.7329 C32.372,62.0859 31.847,61.5599 31.2,61.5599 C30.552,61.5599 30.027,62.0859 30.027,62.7329 L30.027,65.2399 C30.027,65.8879 30.552,66.4129 31.2,66.4129 L31.2,66.4129 Z M31.2,81.4529 C31.847,81.4529 32.372,80.9279 32.372,80.2799 L32.372,77.7729 C32.372,77.1259 31.847,76.6009 31.2,76.6009 C30.552,76.6009 30.027,77.1259 30.027,77.7729 L30.027,80.2799 C30.027,80.9279 30.552,81.4529 31.2,81.4529 L31.2,81.4529 Z M38.719,36.3319 C39.368,36.3319 39.892,35.8069 39.892,35.1589 L39.892,32.6519 C39.892,32.0049 39.368,31.4799 38.719,31.4799 C38.072,31.4799 37.547,32.0049 37.547,32.6519 L37.547,35.1589 C37.547,35.8069 38.072,36.3319 38.719,36.3319 L38.719,36.3319 Z M77.655,21.6259 C77.655,20.8899 77.056,20.2919 76.321,20.2919 L42.329,20.2919 L41.548,21.1229 C41.238,21.4559 40.798,21.6459 40.342,21.6459 C39.886,21.6459 39.446,21.4559 39.135,21.1229 L38.354,20.2919 L23.679,20.2919 C22.944,20.2919 22.345,20.8899 22.345,21.6259 C22.345,22.3609 22.944,22.9599 23.679,22.9599 L76.321,22.9599 C77.056,22.9599 77.655,22.3609 77.655,21.6259 L77.655,21.6259 Z M75.107,25.3049 L24.893,25.3049 L27.233,95.1559 C27.281,96.5569 28.417,97.6549 29.819,97.6549 L31.2,97.6549 C31.935,97.6549 32.534,97.0569 32.534,96.3209 C32.534,95.6729 33.058,95.1479 33.706,95.1479 L66.294,95.1479 C66.942,95.1479 67.467,95.6729 67.467,96.3209 C67.467,97.0569 68.065,97.6549 68.801,97.6549 L70.181,97.6549 C71.583,97.6549 72.719,96.5569 72.767,95.1559 L75.107,25.3049 Z M26.976,17.9459 L36.154,17.9459 L32.324,13.8639 L29.767,13.8639 C28.229,13.8639 26.976,15.1159 26.976,16.6539 L26.976,17.9459 Z M31.163,11.0729 L68.837,11.0729 L68.837,6.9769 C68.837,4.6699 66.959,2.7919 64.65,2.7919 L35.349,2.7909 C33.041,2.7909 31.163,4.6689 31.163,6.9759 L31.163,11.0729 Z M40.342,19.0379 L45.193,13.8639 L35.49,13.8639 L40.342,19.0379 Z M48.367,13.8639 L44.532,17.9459 L73.023,17.9459 L73.023,16.6539 C73.023,15.1159 71.771,13.8639 70.232,13.8639 L48.367,13.8639 Z M80,21.6259 C80,23.2569 78.932,24.6419 77.46,25.1239 L75.111,95.2369 C75.019,97.9079 72.853,99.9999 70.181,99.9999 L68.801,99.9999 C67.181,99.9999 65.803,98.9489 65.313,97.4929 L34.687,97.4929 C34.197,98.9489 32.818,99.9999 31.2,99.9999 L29.819,99.9999 C27.146,99.9999 24.981,97.9079 24.889,95.2369 L22.541,25.1239 C21.067,24.6419 20,23.2569 20,21.6259 C20,19.5969 21.651,17.9459 23.679,17.9459 L24.186,17.9459 L24.186,16.6539 C24.186,14.0579 25.968,11.8709 28.372,11.2499 L28.372,6.9759 C28.372,3.1299 31.502,-0.0001 35.349,-0.0001 L64.65,0.0009 C68.497,0.0009 71.627,3.1309 71.627,6.9769 L71.628,6.9759 L71.628,11.2499 C74.033,11.8709 75.814,14.0579 75.814,16.6539 L75.814,17.9459 L76.321,17.9459 C78.349,17.9459 80,19.5969 80,21.6259 L80,21.6259 Z M31.2,36.3319 C31.847,36.3319 32.372,35.8069 32.372,35.1589 L32.372,32.6519 C32.372,32.0049 31.847,31.4799 31.2,31.4799 C30.552,31.4799 30.027,32.0049 30.027,32.6519 L30.027,35.1589 C30.027,35.8069 30.552,36.3319 31.2,36.3319 L31.2,36.3319 Z M38.719,81.4529 C39.368,81.4529 39.892,80.9279 39.892,80.2799 L39.892,77.7729 C39.892,77.1259 39.368,76.6009 38.719,76.6009 C38.072,76.6009 37.547,77.1259 37.547,77.7729 L37.547,80.2799 C37.547,80.9279 38.072,81.4529 38.719,81.4529 L38.719,81.4529 Z M34.96,88.9739 C35.607,88.9739 36.133,88.4479 36.133,87.8009 L36.133,85.2939 C36.133,84.6459 35.607,84.1209 34.96,84.1209 C34.312,84.1209 33.787,84.6459 33.787,85.2939 L33.787,87.8009 C33.787,88.4479 34.312,88.9739 34.96,88.9739 L34.96,88.9739 Z M38.719,51.3719 C39.368,51.3719 39.892,50.8479 39.892,50.1999 L39.892,47.6929 C39.892,47.0459 39.368,46.5199 38.719,46.5199 C38.072,46.5199 37.547,47.0459 37.547,47.6929 L37.547,50.1999 C37.547,50.8479 38.072,51.3719 38.719,51.3719 L38.719,51.3719 Z M34.96,73.9319 C35.607,73.9319 36.133,73.4079 36.133,72.7599 L36.133,70.2539 C36.133,69.6049 35.607,69.0809 34.96,69.0809 C34.312,69.0809 33.787,69.6049 33.787,70.2539 L33.787,72.7599 C33.787,73.4079 34.312,73.9319 34.96,73.9319 L34.96,73.9319 Z M34.96,58.8919 C35.607,58.8919 36.133,58.3669 36.133,57.7199 L36.133,55.2129 C36.133,54.5649 35.607,54.0409 34.96,54.0409 C34.312,54.0409 33.787,54.5649 33.787,55.2129 L33.787,57.7199 C33.787,58.3669 34.312,58.8919 34.96,58.8919 L34.96,58.8919 Z M34.96,43.8519 C35.607,43.8519 36.133,43.3269 36.133,42.6799 L36.133,40.1729 C36.133,39.5249 35.607,38.9999 34.96,38.9999 C34.312,38.9999 33.787,39.5249 33.787,40.1729 L33.787,42.6799 C33.787,43.3269 34.312,43.8519 34.96,43.8519 L34.96,43.8519 Z M38.719,66.4129 C39.368,66.4129 39.892,65.8879 39.892,65.2399 L39.892,62.7329 C39.892,62.0859 39.368,61.5599 38.719,61.5599 C38.072,61.5599 37.547,62.0859 37.547,62.7329 L37.547,65.2399 C37.547,65.8879 38.072,66.4129 38.719,66.4129 L38.719,66.4129 Z M65.041,58.8919 C65.688,58.8919 66.213,58.3669 66.213,57.7199 L66.213,55.2129 C66.213,54.5649 65.688,54.0409 65.041,54.0409 C64.392,54.0409 63.868,54.5649 63.868,55.2129 L63.868,57.7199 C63.868,58.3669 64.392,58.8919 65.041,58.8919 L65.041,58.8919 Z M65.041,88.9739 C65.688,88.9739 66.213,88.4479 66.213,87.8009 L66.213,85.2939 C66.213,84.6459 65.688,84.1209 65.041,84.1209 C64.392,84.1209 63.868,84.6459 63.868,85.2939 L63.868,87.8009 C63.868,88.4479 64.392,88.9739 65.041,88.9739 L65.041,88.9739 Z M65.041,73.9319 C65.688,73.9319 66.213,73.4079 66.213,72.7599 L66.213,70.2539 C66.213,69.6049 65.688,69.0809 65.041,69.0809 C64.392,69.0809 63.868,69.6049 63.868,70.2539 L63.868,72.7599 C63.868,73.4079 64.392,73.9319 65.041,73.9319 L65.041,73.9319 Z M68.801,81.4529 C69.448,81.4529 69.973,80.9279 69.973,80.2799 L69.973,77.7729 C69.973,77.1259 69.448,76.6009 68.801,76.6009 C68.153,76.6009 67.628,77.1259 67.628,77.7729 L67.628,80.2799 C67.628,80.9279 68.153,81.4529 68.801,81.4529 L68.801,81.4529 Z M68.801,51.3719 C69.448,51.3719 69.973,50.8479 69.973,50.1999 L69.973,47.6929 C69.973,47.0459 69.448,46.5199 68.801,46.5199 C68.153,46.5199 67.628,47.0459 67.628,47.6929 L67.628,50.1999 C67.628,50.8479 68.153,51.3719 68.801,51.3719 L68.801,51.3719 Z M53.761,81.4529 C54.408,81.4529 54.932,80.9279 54.932,80.2799 L54.932,77.7729 C54.932,77.1259 54.408,76.6009 53.761,76.6009 C53.112,76.6009 52.588,77.1259 52.588,77.7729 L52.588,80.2799 C52.588,80.9279 53.112,81.4529 53.761,81.4529 L53.761,81.4529 Z M61.28,36.3319 C61.928,36.3319 62.453,35.8069 62.453,35.1589 L62.453,32.6519 C62.453,32.0049 61.928,31.4799 61.28,31.4799 C60.633,31.4799 60.108,32.0049 60.108,32.6519 L60.108,35.1589 C60.108,35.8069 60.633,36.3319 61.28,36.3319 L61.28,36.3319 Z M68.801,36.3319 C69.448,36.3319 69.973,35.8069 69.973,35.1589 L69.973,32.6519 C69.973,32.0049 69.448,31.4799 68.801,31.4799 C68.153,31.4799 67.628,32.0049 67.628,32.6519 L67.628,35.1589 C67.628,35.8069 68.153,36.3319 68.801,36.3319 L68.801,36.3319 Z M68.801,66.4129 C69.448,66.4129 69.973,65.8879 69.973,65.2399 L69.973,62.7329 C69.973,62.0859 69.448,61.5599 68.801,61.5599 C68.153,61.5599 67.628,62.0859 67.628,62.7329 L67.628,65.2399 C67.628,65.8879 68.153,66.4129 68.801,66.4129 L68.801,66.4129 Z M65.041,43.8519 C65.688,43.8519 66.213,43.3269 66.213,42.6799 L66.213,40.1729 C66.213,39.5249 65.688,38.9999 65.041,38.9999 C64.392,38.9999 63.868,39.5249 63.868,40.1729 L63.868,42.6799 C63.868,43.3269 64.392,43.8519 65.041,43.8519 L65.041,43.8519 Z M61.28,51.3719 C61.928,51.3719 62.453,50.8479 62.453,50.1999 L62.453,47.6929 C62.453,47.0459 61.928,46.5199 61.28,46.5199 C60.633,46.5199 60.108,47.0459 60.108,47.6929 L60.108,50.1999 C60.108,50.8479 60.633,51.3719 61.28,51.3719 L61.28,51.3719 Z M53.761,36.3319 C54.408,36.3319 54.932,35.8069 54.932,35.1589 L54.932,32.6519 C54.932,32.0049 54.408,31.4799 53.761,31.4799 C53.112,31.4799 52.588,32.0049 52.588,32.6519 L52.588,35.1589 C52.588,35.8069 53.112,36.3319 53.761,36.3319 L53.761,36.3319 Z M57.52,73.9319 C58.168,73.9319 58.693,73.4079 58.693,72.7599 L58.693,70.2539 C58.693,69.6049 58.168,69.0809 57.52,69.0809 C56.873,69.0809 56.347,69.6049 56.347,70.2539 L56.347,72.7599 C56.347,73.4079 56.873,73.9319 57.52,73.9319 L57.52,73.9319 Z M53.761,51.3719 C54.408,51.3719 54.932,50.8479 54.932,50.1999 L54.932,47.6929 C54.932,47.0459 54.408,46.5199 53.761,46.5199 C53.112,46.5199 52.588,47.0459 52.588,47.6929 L52.588,50.1999 C52.588,50.8479 53.112,51.3719 53.761,51.3719 L53.761,51.3719 Z M53.761,66.4129 C54.408,66.4129 54.932,65.8879 54.932,65.2399 L54.932,62.7329 C54.932,62.0859 54.408,61.5599 53.761,61.5599 C53.112,61.5599 52.588,62.0859 52.588,62.7329 L52.588,65.2399 C52.588,65.8879 53.112,66.4129 53.761,66.4129 L53.761,66.4129 Z M57.52,88.9739 C58.168,88.9739 58.693,88.4479 58.693,87.8009 L58.693,85.2939 C58.693,84.6459 58.168,84.1209 57.52,84.1209 C56.873,84.1209 56.347,84.6459 56.347,85.2939 L56.347,87.8009 C56.347,88.4479 56.873,88.9739 57.52,88.9739 L57.52,88.9739 Z M57.52,43.8519 C58.168,43.8519 58.693,43.3269 58.693,42.6799 L58.693,40.1729 C58.693,39.5249 58.168,38.9999 57.52,38.9999 C56.873,38.9999 56.347,39.5249 56.347,40.1729 L56.347,42.6799 C56.347,43.3269 56.873,43.8519 57.52,43.8519 L57.52,43.8519 Z M61.28,66.4129 C61.928,66.4129 62.453,65.8879 62.453,65.2399 L62.453,62.7329 C62.453,62.0859 61.928,61.5599 61.28,61.5599 C60.633,61.5599 60.108,62.0859 60.108,62.7329 L60.108,65.2399 C60.108,65.8879 60.633,66.4129 61.28,66.4129 L61.28,66.4129 Z M61.28,81.4529 C61.928,81.4529 62.453,80.9279 62.453,80.2799 L62.453,77.7729 C62.453,77.1259 61.928,76.6009 61.28,76.6009 C60.633,76.6009 60.108,77.1259 60.108,77.7729 L60.108,80.2799 C60.108,80.9279 60.633,81.4529 61.28,81.4529 L61.28,81.4529 Z M56.347,57.7199 L56.347,55.2129 C56.347,54.5649 56.873,54.0409 57.52,54.0409 C58.168,54.0409 58.693,54.5649 58.693,55.2129 L58.693,57.7199 C58.693,58.3669 58.168,58.8919 57.52,58.8919 C56.873,58.8919 56.347,58.3669 56.347,57.7199 L56.347,57.7199 Z" id="icon_hamper" fill="#3A4B60"></path>
    </g>
</svg>