<?xml version="1.0" encoding="UTF-8"?>
<svg width="100px" height="100px" viewBox="0 0 100 100" version="1.1" xmlns="http://www.w3.org/2000/svg" xmlns:xlink="http://www.w3.org/1999/xlink">
    <!-- Generator: Sketch 63.1 (92452) - https://sketch.com -->
    <title>icon / furniture / hand-truck_dolly</title>
    <desc>Created with Sketch.</desc>
    <g id="icon-/-furniture-/-hand-truck_dolly" stroke="none" stroke-width="1" fill="none" fill-rule="evenodd">
        <path d="M31.231,91.0381 C30.268,91.0381 29.483,90.2631 29.483,89.3101 C29.483,88.3571 30.268,87.5821 31.231,87.5821 C32.194,87.5821 32.978,88.3571 32.978,89.3101 C32.978,90.2631 32.194,91.0381 31.231,91.0381 L31.231,91.0381 Z M31.231,85.6251 C29.188,85.6251 27.527,87.2781 27.527,89.3101 C27.527,91.3421 29.188,92.9951 31.231,92.9951 C33.273,92.9951 34.934,91.3421 34.934,89.3101 C34.934,87.2781 33.273,85.6251 31.231,85.6251 L31.231,85.6251 Z M41.954,89.9611 C41.967,89.7451 41.987,89.5301 41.987,89.3101 C41.987,85.8531 40.32,82.7831 37.751,80.8281 L43.735,67.7511 L49.795,87.8291 L41.954,89.9611 Z M31.231,97.1731 C26.858,97.1731 23.301,93.6451 23.301,89.3101 C23.301,84.9751 26.858,81.4471 31.231,81.4471 C35.603,81.4471 39.16,84.9751 39.16,89.3101 C39.16,93.6451 35.603,97.1731 31.231,97.1731 L31.231,97.1731 Z M18.544,5.6201 C18.33,6.0361 17.966,6.3401 17.52,6.4761 L12.332,8.0641 C11.438,8.3421 10.511,7.8641 10.206,6.9861 L10.198,6.9631 C10.05,6.5191 10.086,6.0461 10.301,5.6311 C10.515,5.2151 10.878,4.9111 11.325,4.7751 L16.512,3.1871 C17.417,2.9111 18.349,3.3961 18.646,4.2861 L18.656,4.3161 C18.793,4.7521 18.754,5.2141 18.544,5.6201 L18.544,5.6201 Z M82.423,78.9571 L53.259,86.8881 L28.051,3.3681 C27.703,2.2191 26.86,1.3071 25.712,0.8671 C24.87,0.5441 23.933,0.5701 23.071,0.8361 L20.606,1.5971 C19.393,0.2371 17.469,-0.3549 15.604,0.2171 L10.416,1.8041 C9.162,2.1881 8.141,3.0411 7.54,4.2071 C6.948,5.3531 6.839,6.6561 7.231,7.8831 L7.252,7.9471 C7.928,9.9761 9.783,11.2521 11.806,11.2521 C12.279,11.2521 12.762,11.1821 13.241,11.0351 L18.429,9.4471 C19.684,9.0621 20.705,8.2091 21.306,7.0431 C21.642,6.3901 21.805,5.6851 21.825,4.9751 L24.269,4.2211 C24.362,4.1911 24.435,4.2181 24.481,4.2411 C24.527,4.2661 24.588,4.3131 24.616,4.4061 L42.119,62.3971 L34.469,79.1171 C33.446,78.7961 32.359,78.6201 31.231,78.6201 C25.3,78.6201 20.474,83.4161 20.474,89.3101 C20.474,95.2051 25.3,100.0001 31.231,100.0001 C35.429,100.0001 39.064,97.5921 40.835,94.0981 L83.3,82.5501 C84.189,82.3081 84.846,81.4751 84.749,80.5591 C84.626,79.3941 83.508,78.6681 82.423,78.9571 L82.423,78.9571 Z M89.518,72.2951 L56.944,81.6301 C56.768,81.6801 56.622,81.6231 56.552,81.5841 C56.481,81.5461 56.356,81.4531 56.305,81.2741 L47.172,49.4221 C47.12,49.2431 47.178,49.1001 47.216,49.0281 C47.255,48.9591 47.347,48.8331 47.527,48.7811 L58.017,45.7731 L60.022,52.4741 C60.357,53.5931 61.389,54.3191 62.505,54.3191 C62.749,54.3191 62.996,54.2841 63.241,54.2121 L70.027,52.1901 C70.695,51.9911 71.244,51.5431 71.573,50.9291 C71.901,50.3131 71.969,49.6071 71.762,48.9421 L69.737,42.4131 L80.1,39.4471 C80.278,39.3961 80.423,39.4531 80.493,39.4921 C80.564,39.5311 80.689,39.6231 80.74,39.8021 L89.873,71.6521 C89.952,71.9281 89.793,72.2161 89.518,72.2951 L89.518,72.2951 Z M68.64,49.3621 L62.85,51.0871 L61.003,44.9181 L65.451,43.6421 L66.75,43.2691 L68.64,49.3621 Z M46.045,45.4321 L39.765,23.5261 C39.713,23.3481 39.771,23.2041 39.809,23.1351 C39.848,23.0631 39.94,22.9381 40.119,22.8871 L45.567,21.3241 L47.499,27.7781 C47.834,28.8971 48.866,29.6241 49.981,29.6241 C50.225,29.6241 50.473,29.5901 50.718,29.5171 L57.504,27.4951 C58.172,27.2961 58.721,26.8481 59.049,26.2331 C59.378,25.6181 59.445,24.9121 59.238,24.2471 L57.29,17.9631 L62.742,16.3991 C63.019,16.3251 63.304,16.4801 63.383,16.7551 L69.663,38.6591 C69.715,38.8381 69.657,38.9821 69.619,39.0521 C69.58,39.1221 69.488,39.2481 69.308,39.2991 L46.685,45.7861 C46.414,45.8631 46.124,45.7051 46.045,45.4321 L46.045,45.4321 Z M56.116,24.6671 L50.326,26.3921 L48.554,20.4681 L54.303,18.8191 L56.116,24.6671 Z M92.859,70.7971 L83.726,38.9461 C83.46,38.0161 82.846,37.2441 82,36.7751 C81.154,36.3061 80.174,36.1911 79.243,36.4621 L72.745,38.3201 C72.721,38.1461 72.698,37.9741 72.649,37.8031 L66.369,15.8981 C65.817,13.9761 63.806,12.8591 61.886,13.4151 L55.114,15.3561 L55.114,15.3551 L45.845,18.0141 L45.845,18.0151 L39.263,19.9011 C38.332,20.1691 37.562,20.7811 37.092,21.6281 C36.623,22.4751 36.511,23.4541 36.778,24.3831 L43.059,46.2881 C43.271,47.0241 43.702,47.6351 44.255,48.0861 C44.008,48.7891 43.976,49.5481 44.186,50.2781 L53.319,82.1301 C53.585,83.0601 54.199,83.8321 55.045,84.3011 C55.591,84.6031 56.191,84.7571 56.797,84.7571 C57.133,84.7571 57.47,84.7111 57.802,84.6141 L90.375,75.2801 C92.295,74.7281 93.41,72.7181 92.859,70.7971 L92.859,70.7971 Z" id="icon_hand-truck_dolly" fill="#3A4B60"></path>
    </g>
</svg>