<?xml version="1.0" encoding="UTF-8"?>
<svg width="100px" height="100px" viewBox="0 0 100 100" version="1.1" xmlns="http://www.w3.org/2000/svg" xmlns:xlink="http://www.w3.org/1999/xlink">
    <title>icon / furniture / hospital-bed</title>
    <g id="icon-/-furniture-/-hospital-bed" stroke="none" stroke-width="1" fill="none" fill-rule="evenodd">
        <path d="M97.0641,51.2623 C97.0641,53.9063 94.9141,56.0563 92.2701,56.0563 L7.7301,56.0563 C5.0861,56.0563 2.9351,53.9063 2.9351,51.2623 L2.9351,32.4753 C2.9351,31.5583 3.6811,30.8123 4.5991,30.8123 C5.5161,30.8123 6.2621,31.5583 6.2621,32.4753 L6.2621,51.2623 C6.2621,52.0733 6.9191,52.7303 7.7301,52.7303 L32.4581,52.7303 C33.3011,53.6893 34.5361,54.2953 35.9101,54.2953 L81.3111,54.2953 C82.6851,54.2953 83.9191,53.6893 84.7631,52.7303 L92.2701,52.7303 C93.0811,52.7303 93.7381,52.0733 93.7381,51.2623 L93.7381,37.1723 C93.7381,36.2553 94.4841,35.5083 95.4011,35.5083 C96.3181,35.5083 97.0641,36.2553 97.0641,37.1723 L97.0641,51.2623 Z M84.5401,59.0903 C84.5401,60.0073 83.7931,60.7533 82.8761,60.7533 L17.1231,60.7533 C16.2061,60.7533 15.4601,60.0073 15.4601,59.0903 L15.4601,58.9913 L84.5401,58.9913 L84.5401,59.0903 Z M49.2171,69.3073 L29.2991,63.6893 L69.1351,63.6893 L49.2171,69.3073 Z M69.1351,77.9743 L29.2991,77.9743 L49.2171,72.3573 L69.1351,77.9743 Z M9.1981,39.9173 L21.3281,45.9833 C21.9721,46.3053 22.6641,46.4683 23.3821,46.4683 C25.1361,46.4683 26.7131,45.4943 27.4991,43.9253 C27.5951,43.7323 27.6751,43.5353 27.7431,43.3363 L31.3111,43.3363 L31.3111,49.6973 C31.3111,49.7293 31.3131,49.7613 31.3141,49.7943 L9.1981,49.7943 L9.1981,39.9173 Z M9.3721,34.8643 C9.6641,34.2813 10.2521,33.9443 10.8641,33.9443 C11.1131,33.9443 11.3671,34.0003 11.6041,34.1183 L24.1281,40.3813 C24.9491,40.7913 25.2831,41.7933 24.8731,42.6133 C24.5881,43.1813 24.0181,43.5333 23.3821,43.5333 C23.1241,43.5333 22.8751,43.4743 22.6401,43.3583 L10.1171,37.0953 C9.2961,36.6853 8.9621,35.6833 9.3721,34.8643 L9.3721,34.8643 Z M17.5381,7.8263 C17.5381,7.6673 17.6671,7.5383 17.8261,7.5383 L18.9431,7.5383 C19.1021,7.5383 19.2311,7.6673 19.2311,7.8263 L19.2311,34.6513 L17.5381,33.8043 L17.5381,7.8263 Z M34.2471,43.3363 L82.9741,43.3363 L82.9741,49.6973 C82.9741,50.6143 82.2281,51.3603 81.3111,51.3603 L35.9101,51.3603 C34.9931,51.3603 34.2471,50.6143 34.2471,49.6973 L34.2471,43.3363 Z M85.9101,49.6973 L85.9101,43.3363 L90.8021,43.3363 L90.8021,49.7943 L85.9081,49.7943 C85.9081,49.7613 85.9101,49.7293 85.9101,49.6973 L85.9101,49.6973 Z M89.2371,88.8353 C89.2371,90.6163 87.7881,92.0643 86.0071,92.0643 C84.2271,92.0643 82.7791,90.6163 82.7791,88.8353 C82.7791,87.0553 84.2271,85.6073 86.0071,85.6073 C87.7881,85.6073 89.2371,87.0553 89.2371,88.8353 L89.2371,88.8353 Z M17.2211,88.8353 C17.2211,90.6163 15.7721,92.0643 13.9921,92.0643 C12.2111,92.0643 10.7631,90.6163 10.7631,88.8353 C10.7631,87.0553 12.2111,85.6073 13.9921,85.6073 C15.7721,85.6073 17.2211,87.0553 17.2211,88.8353 L17.2211,88.8353 Z M32.0961,14.9103 C32.4291,14.9103 32.7111,15.1933 32.7111,15.5273 L32.7111,17.5673 L25.6801,17.5673 L25.6801,15.5273 C25.6801,15.1933 25.9621,14.9103 26.2961,14.9103 L32.0961,14.9103 Z M32.7111,26.6273 C32.7111,26.9613 32.4291,27.2433 32.0961,27.2433 L26.2961,27.2433 C25.9621,27.2433 25.6801,26.9613 25.6801,26.6273 L25.6801,20.1053 L32.7111,20.1053 L32.7111,26.6273 Z M95.4011,32.5743 C92.8651,32.5743 90.8021,34.6363 90.8021,37.1723 L90.8021,40.4013 L27.7401,40.4013 C27.3661,39.2893 26.5701,38.3203 25.4421,37.7553 L21.7691,35.9193 L21.7691,11.7703 L27.9261,11.7703 L27.9261,12.3723 L26.2961,12.3723 C24.5571,12.3723 23.1421,13.7873 23.1421,15.5273 L23.1421,26.6273 C23.1421,28.3663 24.5571,29.7823 26.2961,29.7823 L27.9261,29.7823 L27.9261,33.1053 C27.9261,33.8043 28.4961,34.3733 29.1961,34.3733 C29.8961,34.3733 30.4651,33.8043 30.4651,33.1053 L30.4651,29.7823 L32.0961,29.7823 C33.8351,29.7823 35.2501,28.3663 35.2501,26.6273 L35.2501,15.5273 C35.2501,13.7873 33.8351,12.3723 32.0961,12.3723 L30.4651,12.3723 L30.4651,11.7703 L30.8501,11.7703 C31.5501,11.7703 32.1201,11.2003 32.1201,10.5003 C32.1201,9.8003 31.5501,9.2313 30.8501,9.2313 L30.4551,9.2313 C30.3781,8.6063 29.8371,8.1163 29.1961,8.1163 C28.5431,8.1163 28.0121,8.5963 27.9371,9.2313 L21.7691,9.2313 L21.7691,7.8263 C21.7691,6.2683 20.5011,4.9993 18.9431,4.9993 L17.8261,4.9993 C16.2671,4.9993 15.0001,6.2683 15.0001,7.8263 L15.0001,32.5343 L12.9171,31.4933 C11.6661,30.8673 10.2621,30.8693 9.0641,31.3773 C8.5701,29.3703 6.7561,27.8763 4.5991,27.8763 C2.0631,27.8763 0.0001,29.9403 0.0001,32.4753 L0.0001,51.2623 C0.0001,55.5243 3.4671,58.9913 7.7301,58.9913 L12.5241,58.9913 L12.5241,59.0903 C12.5241,61.6253 14.5871,63.6893 17.1231,63.6893 L18.4861,63.6893 L43.8101,70.8313 L18.4861,77.9743 L17.1231,77.9743 C14.5871,77.9743 12.5241,80.0373 12.5241,82.5743 L12.5241,82.8493 C9.8321,83.5093 7.8281,85.9423 7.8281,88.8353 C7.8281,92.2353 10.5931,94.9993 13.9921,94.9993 C17.3911,94.9993 20.1571,92.2353 20.1571,88.8353 C20.1571,85.9423 18.1521,83.5093 15.4601,82.8493 L15.4601,82.5743 C15.4601,81.6563 16.2061,80.9093 17.1231,80.9093 L18.6831,80.9093 C18.6851,80.9093 18.6861,80.9103 18.6881,80.9103 C18.6901,80.9103 18.6921,80.9093 18.6931,80.9093 L79.7411,80.9093 C79.7431,80.9093 79.7451,80.9103 79.7461,80.9103 C79.7481,80.9103 79.7501,80.9093 79.7511,80.9093 L82.8761,80.9093 C83.7931,80.9093 84.5401,81.6563 84.5401,82.5743 L84.5401,82.8493 C81.8471,83.5093 79.8431,85.9423 79.8431,88.8353 C79.8431,92.2353 82.6091,94.9993 86.0071,94.9993 C89.4071,94.9993 92.1721,92.2353 92.1721,88.8353 C92.1721,85.9423 90.1681,83.5093 87.4751,82.8493 L87.4751,82.5743 C87.4751,80.0373 85.4131,77.9743 82.8761,77.9743 L79.9491,77.9743 L54.6241,70.8313 L79.9491,63.6893 L82.8761,63.6893 C85.4131,63.6893 87.4751,61.6253 87.4751,59.0903 L87.4751,58.9913 L92.2701,58.9913 C96.5321,58.9913 100.0001,55.5243 100.0001,51.2623 L100.0001,37.1723 C100.0001,34.6363 97.9371,32.5743 95.4011,32.5743 L95.4011,32.5743 Z" id="icon_hospital-bed" fill="#3A4B60"></path>
    </g>
</svg>