<?xml version="1.0" encoding="UTF-8"?>
<svg width="100px" height="100px" viewBox="0 0 100 100" version="1.1" xmlns="http://www.w3.org/2000/svg" xmlns:xlink="http://www.w3.org/1999/xlink">
    <title>icon / furniture / humidifier</title>
    <g id="icon-/-furniture-/-humidifier" stroke="none" stroke-width="1" fill="none" fill-rule="evenodd">
        <path d="M46.8649774,48.3336 L46.8859774,48.3336 C47.6949774,48.3336 48.3509774,47.6776 48.3509774,46.8686 C48.3509774,46.0596 47.6949774,45.4036 46.8859774,45.4036 L46.8649774,45.4036 C46.0559774,45.4036 45.3999774,46.0596 45.3999774,46.8686 C45.3999774,47.6776 46.0559774,48.3336 46.8649774,48.3336 L46.8649774,48.3336 Z M56.2619774,43.6366 L56.2749774,43.6366 C57.0839774,43.6366 57.7329774,42.9806 57.7329774,42.1716 C57.7329774,41.3626 57.0719774,40.7066 56.2619774,40.7066 C55.4539774,40.7066 54.7979774,41.3626 54.7979774,42.1716 C54.7979774,42.9806 55.4539774,43.6366 56.2619774,43.6366 L56.2619774,43.6366 Z M50.0119774,43.6366 L50.0279774,43.6366 C50.8369774,43.6366 51.4849774,42.9806 51.4849774,42.1716 C51.4849774,41.3626 50.8219774,40.7066 50.0119774,40.7066 C49.2039774,40.7066 48.5479774,41.3626 48.5479774,42.1716 C48.5479774,42.9806 49.2039774,43.6366 50.0119774,43.6366 L50.0119774,43.6366 Z M59.3939774,48.3336 L59.4059774,48.3336 C60.2149774,48.3336 60.8649774,47.6776 60.8649774,46.8686 C60.8649774,46.0596 60.2029774,45.4036 59.3939774,45.4036 C58.5849774,45.4036 57.9289774,46.0596 57.9289774,46.8686 C57.9289774,47.6776 58.5849774,48.3336 59.3939774,48.3336 L59.3939774,48.3336 Z M43.7339774,43.6366 L43.7459774,43.6366 C44.5549774,43.6366 45.2049774,42.9806 45.2049774,42.1716 C45.2049774,41.3626 44.5429774,40.7066 43.7339774,40.7066 C42.9259774,40.7066 42.2689774,41.3626 42.2689774,42.1716 C42.2689774,42.9806 42.9259774,43.6366 43.7339774,43.6366 L43.7339774,43.6366 Z M40.6059774,48.3336 L40.6179774,48.3336 C41.4279774,48.3336 42.0769774,47.6776 42.0769774,46.8686 C42.0769774,46.0596 41.4149774,45.4036 40.6059774,45.4036 C39.7979774,45.4036 39.1409774,46.0596 39.1409774,46.8686 C39.1409774,47.6776 39.7979774,48.3336 40.6059774,48.3336 L40.6059774,48.3336 Z M64.0909774,84.5456 L62.5249774,84.5456 C61.7159774,84.5456 61.0599774,85.2006 61.0599774,86.0106 C61.0599774,86.8186 61.7159774,87.4756 62.5249774,87.4756 L64.0909774,87.4756 C64.8989774,87.4756 65.5549774,86.8186 65.5549774,86.0106 C65.5549774,85.2006 64.8989774,84.5456 64.0909774,84.5456 L64.0909774,84.5456 Z M79.1419774,74.9496 L20.8569774,74.9496 C20.2539774,77.3456 20.2869774,79.8686 20.9809774,82.2986 L23.5579774,91.3186 C24.5259774,94.7056 27.6609774,97.0696 31.1819774,97.0696 L68.8169774,97.0696 C72.3389774,97.0696 75.4729774,94.7056 76.4409774,91.3186 L79.0189774,82.2986 C79.7129774,79.8686 79.7449774,77.3456 79.1419774,74.9496 L79.1419774,74.9496 Z M21.9549774,72.0206 L78.0459774,72.0206 C77.9949774,71.9206 77.9479774,71.8196 77.8949774,71.7216 L69.5499774,54.7376 C69.2429774,54.6556 68.8479774,54.5966 68.2989774,54.5966 C67.1269774,54.5966 66.6189774,54.8566 65.9149774,55.2176 C65.0939774,55.6386 64.0739774,56.1626 62.1929774,56.1626 C60.3129774,56.1626 59.2939774,55.6386 58.4729774,55.2176 C57.7689774,54.8566 57.2609774,54.5966 56.0899774,54.5966 C54.9179774,54.5966 54.4099774,54.8566 53.7069774,55.2176 C52.8859774,55.6386 51.8659774,56.1626 49.9859774,56.1626 C48.1059774,56.1626 47.0859774,55.6386 46.2649774,55.2176 C45.5619774,54.8566 45.0539774,54.5966 43.8819774,54.5966 C42.7089774,54.5966 42.2009774,54.8566 41.4969774,55.2176 C40.6769774,55.6386 39.6559774,56.1626 37.7759774,56.1626 C35.8959774,56.1626 34.8759774,55.6386 34.0549774,55.2176 C33.3519774,54.8566 32.8439774,54.5966 31.6719774,54.5966 C31.1999774,54.5966 30.8079774,54.6426 30.4519774,54.7336 L22.1049774,71.7216 C22.0529774,71.8196 22.0049774,71.9206 21.9549774,72.0206 L21.9549774,72.0206 Z M32.0829774,51.6766 C33.7029774,51.7466 34.6339774,52.2226 35.3919774,52.6106 C36.0949774,52.9716 36.6029774,53.2326 37.7759774,53.2326 C38.9489774,53.2326 39.4569774,52.9716 40.1599774,52.6106 C40.9799774,52.1896 42.0009774,51.6666 43.8819774,51.6666 C45.7609774,51.6666 46.7819774,52.1896 47.6019774,52.6106 C48.3049774,52.9716 48.8139774,53.2326 49.9859774,53.2326 C51.1579774,53.2326 51.6659774,52.9716 52.3689774,52.6106 C53.1889774,52.1896 54.2099774,51.6666 56.0899774,51.6666 C57.9689774,51.6666 58.9899774,52.1896 59.8099774,52.6106 C60.5129774,52.9716 61.0209774,53.2326 62.1929774,53.2326 C63.3659774,53.2326 63.8739774,52.9716 64.5779774,52.6106 C65.3409774,52.2196 66.2769774,51.7396 67.9159774,51.6746 L60.2889774,37.3746 L39.7109774,37.3746 L32.0829774,51.6766 Z M41.2729774,34.4446 L58.7259774,34.4446 L57.8619774,32.8226 C57.2989774,31.7676 56.2069774,31.1106 55.0109774,31.1106 L44.9899774,31.1106 C43.7939774,31.1106 42.7009774,31.7676 42.1379774,32.8226 L41.2729774,34.4446 Z M48.3339774,28.1816 L51.6659774,28.1816 L51.6659774,26.5156 C51.6659774,25.5966 50.9189774,24.8496 49.9999774,24.8496 C49.0819774,24.8496 48.3339774,25.5966 48.3339774,26.5156 L48.3339774,28.1816 Z M81.8359774,83.1036 L79.2579774,92.1246 C77.9329774,96.7616 73.6389774,99.9996 68.8169774,99.9996 L31.1819774,99.9996 C26.3599774,99.9996 22.0669774,96.7616 20.7419774,92.1246 L18.1649774,83.1036 C16.9379774,78.8126 17.4199774,74.2806 19.5199774,70.3436 L39.5529774,31.4436 C40.6259774,29.4326 42.7099774,28.1816 44.9899774,28.1816 L45.4039774,28.1816 L45.4039774,26.5156 C45.4039774,23.9806 47.4659774,21.9196 49.9999774,21.9196 C52.5339774,21.9196 54.5949774,23.9806 54.5949774,26.5156 L54.5949774,28.1816 L55.0109774,28.1816 C57.2899774,28.1816 59.3739774,29.4326 60.4469774,31.4436 L80.4799774,70.3436 C82.5799774,74.2806 83.0609774,78.8126 81.8359774,83.1036 L81.8359774,83.1036 Z M54.2649774,83.8166 L53.2499774,84.8316 C52.9649774,85.1176 52.5899774,85.2606 52.2149774,85.2606 C51.8399774,85.2606 51.4649774,85.1176 51.1779774,84.8316 C50.6059774,84.2596 50.6059774,83.3316 51.1779774,82.7596 L52.1929774,81.7446 C51.5079774,81.3926 50.7539774,81.2146 49.9999774,81.2146 C48.7709774,81.2146 47.5429774,81.6826 46.6069774,82.6166 C44.7359774,84.4876 44.7359774,87.5316 46.6069774,89.4026 C48.4779774,91.2726 51.5219774,91.2726 53.3919774,89.4026 C54.9019774,87.8936 55.1919774,85.6206 54.2649774,83.8166 L54.2649774,83.8166 Z M55.4649774,80.5456 C58.4769774,83.5586 58.4769774,88.4616 55.4649774,91.4746 C53.9579774,92.9806 51.9779774,93.7336 49.9999774,93.7336 C48.0209774,93.7336 46.0419774,92.9806 44.5359774,91.4746 C41.5229774,88.4616 41.5229774,83.5586 44.5359774,80.5456 C47.5489774,77.5326 52.4509774,77.5326 55.4649774,80.5456 L55.4649774,80.5456 Z M37.4739774,84.5456 L35.9089774,84.5456 C35.0989774,84.5456 34.4439774,85.2006 34.4439774,86.0106 C34.4439774,86.8186 35.0989774,87.4756 35.9089774,87.4756 L37.4739774,87.4756 C38.2839774,87.4756 38.9389774,86.8186 38.9389774,86.0106 C38.9389774,85.2006 38.2839774,84.5456 37.4739774,84.5456 L37.4739774,84.5456 Z M53.1229774,48.3336 L53.1429774,48.3336 C53.9529774,48.3336 54.6079774,47.6776 54.6079774,46.8686 C54.6079774,46.0596 53.9529774,45.4036 53.1429774,45.4036 L53.1229774,45.4036 C52.3139774,45.4036 51.6579774,46.0596 51.6579774,46.8686 C51.6579774,47.6776 52.3139774,48.3336 53.1229774,48.3336 L53.1229774,48.3336 Z M49.9999774,7.6266 C50.8079774,7.6266 51.4649774,6.9716 51.4649774,6.1616 C51.4649774,5.3536 50.8079774,4.6966 49.9999774,4.6966 L49.9839774,4.6966 C49.1759774,4.6966 48.5269774,5.3536 48.5269774,6.1616 C48.5269774,6.9716 49.1899774,7.6266 49.9999774,7.6266 L49.9999774,7.6266 Z M50.0149774,14.0906 L49.9999774,14.0906 C49.1899774,14.0906 48.5429774,14.7466 48.5429774,15.5556 C48.5429774,16.3636 49.2069774,17.0206 50.0149774,17.0206 C50.8249774,17.0206 51.4799774,16.3636 51.4799774,15.5556 C51.4799774,14.7466 50.8249774,14.0906 50.0149774,14.0906 L50.0149774,14.0906 Z M53.1259774,12.3236 L53.1459774,12.3236 C53.9559774,12.3236 54.6109774,11.6676 54.6109774,10.8586 C54.6109774,10.0496 53.9559774,9.3946 53.1459774,9.3946 L53.1259774,9.3946 C52.3169774,9.3946 51.6609774,10.0496 51.6609774,10.8586 C51.6609774,11.6676 52.3169774,12.3236 53.1259774,12.3236 L53.1259774,12.3236 Z M46.8689774,2.9296 L46.8889774,2.9296 C47.6979774,2.9296 48.3539774,2.2726 48.3539774,1.4646 C48.3539774,0.6556 47.6979774,-0.0004 46.8889774,-0.0004 L46.8689774,-0.0004 C46.0589774,-0.0004 45.4039774,0.6556 45.4039774,1.4646 C45.4039774,2.2726 46.0589774,2.9296 46.8689774,2.9296 L46.8689774,2.9296 Z M56.2779774,7.6266 C57.0869774,7.6266 57.7429774,6.9716 57.7429774,6.1616 C57.7429774,5.3536 57.0869774,4.6966 56.2779774,4.6966 L56.2659774,4.6966 C55.4569774,4.6966 54.8069774,5.3536 54.8069774,6.1616 C54.8069774,6.9716 55.4689774,7.6266 56.2779774,7.6266 L56.2779774,7.6266 Z M40.6179774,2.9296 C41.4279774,2.9296 42.0829774,2.2726 42.0829774,1.4646 C42.0829774,0.6556 41.4279774,-0.0004 40.6179774,-0.0004 L40.6059774,-0.0004 C39.7979774,-0.0004 39.1469774,0.6556 39.1469774,1.4646 C39.1469774,2.2726 39.8089774,2.9296 40.6179774,2.9296 L40.6179774,2.9296 Z M53.1259774,2.9296 L53.1459774,2.9296 C53.9559774,2.9296 54.6109774,2.2726 54.6109774,1.4646 C54.6109774,0.6556 53.9559774,-0.0004 53.1459774,-0.0004 L53.1259774,-0.0004 C52.3169774,-0.0004 51.6609774,0.6556 51.6609774,1.4646 C51.6609774,2.2726 52.3169774,2.9296 53.1259774,2.9296 L53.1259774,2.9296 Z M46.8689774,12.3236 L46.8889774,12.3236 C47.6979774,12.3236 48.3539774,11.6676 48.3539774,10.8586 C48.3539774,10.0496 47.6979774,9.3946 46.8889774,9.3946 L46.8689774,9.3946 C46.0589774,9.3946 45.4039774,10.0496 45.4039774,10.8586 C45.4039774,11.6676 46.0589774,12.3236 46.8689774,12.3236 L46.8689774,12.3236 Z M59.4059774,2.9296 C60.2149774,2.9296 60.8709774,2.2726 60.8709774,1.4646 C60.8709774,0.6556 60.2149774,-0.0004 59.4059774,-0.0004 L59.3939774,-0.0004 C58.5849774,-0.0004 57.9349774,0.6556 57.9349774,1.4646 C57.9349774,2.2726 58.5969774,2.9296 59.4059774,2.9296 L59.4059774,2.9296 Z M42.2789774,6.1616 C42.2789774,5.3536 42.9279774,4.6966 43.7369774,4.6966 L43.7499774,4.6966 C44.5579774,4.6966 45.2149774,5.3536 45.2149774,6.1616 C45.2149774,6.9716 44.5579774,7.6266 43.7499774,7.6266 C42.9399774,7.6266 42.2789774,6.9716 42.2789774,6.1616 L42.2789774,6.1616 Z" id="icon_humidifier" fill="#3A4B60"></path>
    </g>
</svg>