<?xml version="1.0" encoding="UTF-8"?>
<svg width="100px" height="100px" viewBox="0 0 100 100" version="1.1" xmlns="http://www.w3.org/2000/svg" xmlns:xlink="http://www.w3.org/1999/xlink">
    <title>icon / furniture / hutch</title>
    <g id="icon-/-furniture-/-hutch" stroke="none" stroke-width="1" fill="none" fill-rule="evenodd">
        <path d="M60.972,56.4016 C61.773,56.4016 62.421,57.0506 62.421,57.8506 C62.421,58.6506 61.773,59.2986 60.972,59.2986 C60.172,59.2986 59.524,58.6506 59.524,57.8506 C59.524,57.0506 60.172,56.4016 60.972,56.4016 L60.972,56.4016 Z M55.446,77.1766 C54.646,77.1766 53.998,77.8246 53.998,78.6246 L53.998,81.8086 C53.998,82.6086 54.646,83.2556 55.446,83.2556 C56.245,83.2556 56.893,82.6086 56.893,81.8086 L56.893,78.6246 C56.893,77.8246 56.245,77.1766 55.446,77.1766 L55.446,77.1766 Z M44.447,77.1766 C43.648,77.1766 42.999,77.8246 42.999,78.6246 L42.999,81.8086 C42.999,82.6086 43.648,83.2556 44.447,83.2556 C45.246,83.2556 45.894,82.6086 45.894,81.8086 L45.894,78.6246 C45.894,77.8246 45.246,77.1766 44.447,77.1766 L44.447,77.1766 Z M26.846,25.1046 L73.249,25.1046 L73.249,2.8946 L26.846,2.8946 L26.846,25.1046 Z M73.249,60.5106 L67.06,60.5106 L67.06,54.6516 C67.06,53.3526 66.002,52.2956 64.703,52.2956 L54.199,52.2956 L54.199,50.3286 L59.805,50.3286 C61.469,50.3286 62.822,48.9746 62.822,47.3116 L62.822,35.0746 C62.822,33.4106 61.469,32.0576 59.805,32.0576 L40.29,32.0576 C38.627,32.0576 37.274,33.4106 37.274,35.0746 L37.274,47.3116 C37.274,48.9746 38.627,50.3286 40.29,50.3286 L45.897,50.3286 L45.897,52.2956 L42.408,52.2956 L35.393,52.2956 C34.093,52.2956 33.035,53.3526 33.035,54.6516 L33.035,60.5106 L26.846,60.5106 L26.846,27.9996 L73.249,27.9996 L73.249,60.5106 Z M51.447,97.1056 L73.201,97.1056 L73.201,63.4066 L51.447,63.4066 L51.447,97.1056 Z M48.791,52.2956 L51.303,52.2956 L51.303,50.3286 L48.791,50.3286 L48.791,52.2956 Z M40.29,47.4336 C40.223,47.4336 40.168,47.3796 40.168,47.3116 L40.168,35.0746 C40.168,35.0066 40.223,34.9526 40.29,34.9526 L59.805,34.9526 C59.872,34.9526 59.927,35.0066 59.927,35.0746 L59.927,47.3116 C59.927,47.3796 59.872,47.4336 59.805,47.4336 L40.29,47.4336 Z M42.408,55.1906 L46.409,55.1906 L64.164,55.1906 L64.164,60.5106 L35.931,60.5106 L35.931,55.1906 L42.408,55.1906 Z M26.846,97.1056 L48.553,97.1056 L48.553,63.4066 L26.846,63.4066 L26.846,97.1056 Z M76.144,97.1096 L76.144,2.8896 C76.901,2.8426 77.5,2.2156 77.5,1.4476 C77.5,0.6476 76.852,0.0006 76.053,0.0006 L23.948,0.0006 C23.149,0.0006 22.5,0.6476 22.5,1.4476 C22.5,2.2476 23.149,2.8946 23.948,2.8946 L23.951,2.8946 L23.905,97.1076 C23.125,97.1306 22.5,97.7676 22.5,98.5526 C22.5,99.3516 23.149,100.0006 23.949,100.0006 L76.053,100.0006 C76.853,100.0006 77.5,99.3516 77.5,98.5526 C77.5,97.7836 76.901,97.1576 76.144,97.1096 L76.144,97.1096 Z M67.581,20.3076 L64.78,20.3076 L64.78,16.9886 C64.78,15.9636 63.947,15.1306 62.923,15.1306 L53.16,15.1306 C52.137,15.1306 51.304,15.9636 51.304,16.9886 L51.304,20.3076 L42.772,20.3076 L42.772,11.2606 C42.772,10.2376 41.939,9.4046 40.915,9.4046 L32.419,9.4046 L32.419,7.6916 L67.582,7.6916 L67.582,20.3076 L67.581,20.3076 Z M54.199,20.3076 L61.885,20.3076 L61.885,18.0266 L54.199,18.0266 L54.199,20.3076 Z M32.42,20.2136 L34.701,20.2136 L34.701,12.2996 L32.42,12.2996 L32.42,20.2136 Z M37.595,20.2136 L39.876,20.2136 L39.876,12.2996 L37.595,12.2996 L37.595,20.2136 Z M31.346,4.7976 C30.342,4.7976 29.525,5.6146 29.525,6.6196 L29.525,21.3806 C29.525,22.3846 30.342,23.2026 31.346,23.2026 L68.655,23.2026 C69.66,23.2026 70.477,22.3846 70.477,21.3806 L70.477,6.6196 C70.477,5.6146 69.66,4.7976 68.655,4.7976 L31.346,4.7976 Z" id="icon_hutch" fill="#3A4B60"></path>
    </g>
</svg>