<?xml version="1.0" encoding="UTF-8"?>
<svg width="300px" height="170px" viewBox="0 0 300 170" version="1.1" xmlns="http://www.w3.org/2000/svg" xmlns:xlink="http://www.w3.org/1999/xlink">
    <title>illustration_lr</title>
    <defs>
        <path d="M148.496361,54.4285127 C148.496361,57.4544208 146.042899,59.9072653 143.017402,59.9072653 L18.8128787,59.9072653 C15.7871761,59.9072653 13.3341261,57.4544208 13.3341261,54.4285127 L13.3341261,5.47854695 C13.3341261,2.45305003 15.7871761,5.32907052e-14 18.8128787,5.32907052e-14 L143.017402,5.32907052e-14 C146.042899,5.32907052e-14 148.496361,2.45305003 148.496361,5.47854695 L148.496361,54.4285127 Z" id="path-1"></path>
    </defs>
    <g id="simplified" stroke="none" stroke-width="1" fill="none" fill-rule="evenodd">
        <g id="intro" transform="translate(-38.000000, -545.000000)">
            <g id="prescreen-(2s)" transform="translate(13.000000, 50.000000)">
                <g id="illustration_lr" transform="translate(24.999979, 495.168753)">
                    <path d="M299.808156,165.780658 C299.808156,167.916025 172.06244,169.646936 144.070528,169.646936 C83.0650446,169.646936 0,167.916025 0,165.780658 C0,163.646114 116.077382,161.914791 144.070528,161.914791 C172.06244,161.914791 299.808156,163.646114 299.808156,165.780658" id="shadow" fill-opacity="0.103228802" fill="#000000"></path>
                    <g id="Group-3" transform="translate(7.757108, 79.675579)" fill-rule="nonzero">
                        <g id="Fill-10">
                            <use fill="#57C3F3" xlink:href="#path-1"></use>
                            <use fill-opacity="0.249435745" fill="#000000" xlink:href="#path-1"></use>
                        </g>
                        <path d="M6.16860864e-05,37.9855106 L6.16860864e-05,57.6563811 C6.16860864e-05,61.0005894 2.7113708,63.7116929 6.05578478,63.7116929 L155.774496,63.7116929 C159.11891,63.7116929 161.830425,61.0005894 161.830425,57.6563811 L161.830425,37.9855106 L6.16860864e-05,37.9855106 Z" id="Fill-12" fill="#57C3F3"></path>
                        <path d="M14.0919397,63.7116929 L10.4393009,85.1325977 L6.60366004,85.1325977 L6.60366004,63.7116929 L14.0919397,63.7116929 Z M153.57294,63.7116929 L153.57294,85.1325977 L149.737505,85.1325977 L146.084661,63.7116929 L153.57294,63.7116929 Z" id="Combined-Shape" fill="#F0F1F3"></path>
                        <path d="M161.830363,48.6492666 C161.830363,51.6749692 159.377313,54.1280192 156.351405,54.1280192 L144.937012,54.1280192 C141.911309,54.1280192 139.457848,51.6749692 139.457848,48.6492666 L139.457848,20.2792186 C139.457848,17.2535161 141.911309,14.8006717 144.937012,14.8006717 L156.351405,14.8006717 C159.377313,14.8006717 161.830363,17.2535161 161.830363,20.2792186 L161.830363,48.6492666 Z" id="Fill-18" fill="#57C3F3"></path>
                        <path d="M22.3723098,48.6492666 C22.3723098,51.6749692 19.9192598,54.1280192 16.8933516,54.1280192 L5.47875257,54.1280192 C2.45284441,54.1280192 -6.66133815e-15,51.6749692 -6.66133815e-15,48.6492666 L-6.66133815e-15,20.2792186 C-6.66133815e-15,17.2535161 2.45284441,14.8006717 5.47875257,14.8006717 L16.8933516,14.8006717 C19.9192598,14.8006717 22.3723098,17.2535161 22.3723098,20.2792186 L22.3723098,48.6492666 Z" id="Fill-20" fill="#57C3F3"></path>
                    </g>
                    <path d="M222.326648,14.0890199 C222.326648,14.0890199 232.189225,15.2881974 238.708005,24.0825771 C245.226785,32.8765456 244.377162,36.9811378 244.377162,36.9811378 C244.377162,36.9811378 242.268115,34.8373406 238.361741,34.6613297 C235.534668,34.5340507 236.604304,30.9558465 235.557903,30.0038245 C234.511707,29.0520082 232.179561,29.2444688 231.284085,27.7154764 C230.388814,26.1862783 231.379082,26.3090336 229.997313,24.460096 C228.776546,22.8262371 227.081206,24.2117066 226.175243,21.6624263 C225.687306,20.2897053 225.28244,16.4649623 222.326648,14.0890199" id="Fill-22" fill="#3A6D09"></path>
                    <path d="M260.190103,19.8656546 C260.190103,19.8656546 253.672351,20.6581151 249.3644,26.4699726 C245.05645,32.2816244 245.032392,35.8045168 245.032392,35.8045168 C245.032392,35.8045168 247.575504,33.7719602 249.593256,33.4610624 C251.441371,33.1762783 250.754599,31.0121247 251.446511,30.3831323 C252.137601,29.7541398 253.67852,29.8812132 254.2705,28.8707951 C254.862276,27.860377 254.207581,27.9413914 255.12074,26.71939 C255.9278,25.6398835 257.048019,26.555305 257.646785,24.8704524 C257.968992,23.9636669 258.23671,21.4355655 260.190103,19.8656546" id="Fill-24" fill="#43840B"></path>
                    <path d="M244.390672,35.8044551 C244.390672,35.8044551 249.275798,12.044414 232.091494,5.68434189e-14 C232.091494,5.68434189e-14 232.180322,5.945305 232.002872,7.78704592 C231.84146,9.4601782 232.747012,11.8118574 233.660788,12.7838245 C234.574976,13.7559973 235.966203,15.1579164 236.196498,16.2598355 C236.426998,17.3621659 235.072166,19.6607951 235.591768,21.1869088 C236.110754,22.7130226 237.496018,23.0954764 238.020966,24.4330363 C238.546121,25.7703907 238.114112,27.7363263 239.0795,28.7773818 C240.044887,29.8186429 241.80109,30.4013708 242.591494,31.7093215 C243.381899,33.0172721 244.390672,35.8044551 244.390672,35.8044551" id="Fill-26" fill="#4A990D"></path>
                    <path d="M253.366573,35.1923852 L253.366573,38.4625703 L251.730979,38.4623852 L251.731151,41.9664222 C251.731151,46.2237903 248.279815,49.6751268 244.022858,49.6751268 C239.76549,49.6751268 236.313948,46.2237903 236.313948,41.9664222 L236.312979,38.4623852 L234.678979,38.4625703 L234.678979,35.1923852 L253.366573,35.1923852 Z" id="Combined-Shape" fill="#57C3F3" fill-rule="nonzero"></path>
                    <polygon id="Fill-31" fill="#FFFFFF" opacity="0.25154913" points="236.313845 38.4626525 242.672858 38.4626525 236.313845 40.4869842"></polygon>
                    <polygon id="Fill-32" fill="#7DC93A" points="242.575435 13.6854078 232.510733 10.7736189 232.367416 10.3648458 242.416491 13.2719054"></polygon>
                    <polygon id="Fill-33" fill="#7DC93A" points="243.15294 15.3458328 235.245401 14.5504935 234.927306 14.1637217 243.033475 14.9792118"></polygon>
                    <polygon id="Fill-34" fill="#7DC93A" points="245.014359 26.7961069 238.233619 25.2590953 238.158568 24.8801371 245.002639 26.4313365"></polygon>
                    <polygon id="Fill-35" fill="#7DC93A" points="245.032228 27.9729952 238.483016 27.435915 238.426676 27.0771076 245.029554 27.6187114"></polygon>
                    <polygon id="Fill-36" fill="#7DC93A" points="237.030103 4.39011652 232.113516 3.05851953 232.113105 2.69272104 236.588842 3.90485264"></polygon>
                    <g id="boxes" transform="translate(201.126888, 48.333372)">
                        <polygon id="Fill-37" fill="#B58D68" points="26.2264565 13.795682 57.188965 13.795682 57.188965 -8.8817842e-15 26.2264565 -8.8817842e-15"></polygon>
                        <path d="M35.3110692,4.06918437 C35.3112748,3.01764222 36.2575394,2.16616861 37.4254626,2.1665797 C38.5931803,2.1665797 39.5396504,3.01867032 39.5396504,4.07000685 L37.5835846,4.06938999 L37.5831734,6.43751885 C37.5831734,6.66472927 37.7682317,6.84978753 37.9956477,6.84978753 C38.2226525,6.84978753 38.4079164,6.66493489 38.4079164,6.43772447 L38.7251885,6.43793009 C38.7247772,6.83971213 38.397841,7.16705963 37.9956477,7.16726525 C37.5932488,7.16664839 37.2667238,6.83971213 37.2659013,6.43731323 L37.2667238,4.06897875 L35.3110692,4.06918437 Z" id="Fill-38" fill="#373737"></path>
                        <path d="M32.4827827,3.77179575 L32.483194,2.16528444 L34.8091707,2.1659013 L34.808965,3.77261823 C34.808965,4.3611035 34.3716107,4.84595613 33.8040987,4.92347498 L33.8036875,6.84890336 L34.5542015,6.8493146 L34.5542015,7.16596984 L32.7361069,7.16576422 L32.7356957,6.84849212 L33.4864154,6.84890336 L33.4864154,4.92326936 C32.9197258,4.84554489 32.4827827,4.36048663 32.4827827,3.77179575" id="Fill-39" fill="#373737"></path>
                        <polygon id="Fill-40" fill="#373737" points="28.2531117 7.16442769 31.3405003 7.16545579 31.3405003 6.84859493 28.2531117 6.84756683"></polygon>
                        <polygon id="Fill-41" fill="#373737" points="30.5906237 2.16479095 31.2784236 2.85259082 30.749157 2.85217958 30.749157 6.37219328 30.4314736 6.37219328 30.4320905 2.8523852 29.9032351 2.85217958"></polygon>
                        <polygon id="Fill-42" fill="#373737" points="28.3169568 2.85193283 29.0049623 2.16433859 29.6925565 2.85193283 29.1639068 2.85193283 29.1620562 6.37215216 28.8451953 6.37215216 28.8464291 2.85213845"></polygon>
                        <polygon id="Fill-43" fill="#B58D68" points="18.2960932 116.474846 59.3471556 116.474846 59.3471556 77.9547635 18.2960932 77.9547635"></polygon>
                        <polygon id="Fill-44" fill="#C1976B" points="-1.42108547e-14 116.474846 41.0510624 116.474846 41.0510624 77.9547635 -1.42108547e-14 77.9547635"></polygon>
                        <polygon id="Fill-45" fill="#967254" points="48.8751816 77.954743 48.8751816 86.790658 49.3234339 87.2393215 49.8516724 86.7703016 50.3788828 87.2393215 50.9069157 86.7707128 51.4355655 87.2395271 51.9644208 86.7707128 52.4934818 87.2397327 53.0194585 86.7737971 53.0194585 77.954743"></polygon>
                        <path d="M11.1173544,83.241035 C11.11756,81.9174572 12.3091295,80.8459698 13.7793146,80.8459698 C15.2490884,80.8463811 16.4404524,81.9184853 16.4404524,83.2420631 L13.9777382,83.2414462 L13.9773269,86.2223235 C13.9773269,86.5083413 14.2105003,86.7411035 14.4967238,86.7413091 C14.782536,86.7413091 15.0155038,86.5085469 15.0150925,86.2225291 L15.4148184,86.2227347 C15.4142015,86.7285607 15.0027553,87.1406237 14.4963125,87.1406237 C13.990281,87.1402125 13.5786292,86.7285607 13.578218,86.2217066 L13.5790404,83.2408293 L11.1173544,83.241035 Z" id="Fill-46" fill="#373737"></path>
                        <path d="M7.5573475,82.8667443 L7.55775874,80.8446744 L10.4862029,80.8454969 L10.4853804,82.8677724 C10.4851748,83.6084167 9.93472927,84.2186977 9.22081563,84.316573 L9.22040439,86.7402193 L10.1646127,86.7406306 L10.1646127,87.1393283 L7.87626456,87.1389171 L7.8756477,86.7398081 L8.82108979,86.7402193 L8.82108979,84.3161618 C8.10758739,84.2182865 7.5573475,83.6077999 7.5573475,82.8667443" id="Fill-47" fill="#373737"></path>
                        <polygon id="Fill-48" fill="#373737" points="2.23330363 87.1373749 6.11932145 87.1386086 6.11932145 86.7397053 2.23330363 86.7386772"></polygon>
                        <polygon id="Fill-49" fill="#373737" points="5.17583276 80.8438725 6.04108293 81.7097395 5.37507882 81.7093283 5.3748732 86.1402399 4.97494174 86.1402399 4.97596984 81.7093283 4.31037697 81.7093283"></polygon>
                        <polygon id="Fill-50" fill="#373737" points="2.31361892 81.7087114 3.17948595 80.8432557 4.04494174 81.7091227 3.37955449 81.7091227 3.37749829 86.1398286 2.97859493 86.1398286 2.97982865 81.7091227"></polygon>
                        <polygon id="Fill-51" fill="#B58D68" points="29.3208362 44.6475668 63.7318026 44.6475668 63.7318026 13.795682 29.3208362 13.795682"></polygon>
                        <polygon id="Fill-52" fill="#C1976B" points="15.435915 44.6475668 49.8468814 44.6475668 49.8468814 13.795682 15.435915 13.795682"></polygon>
                        <polygon id="Fill-53" fill="#967254" points="54.9210966 13.795682 54.9210966 22.631597 55.3691432 23.0804661 55.8975874 22.6114462 56.4245922 23.0804661 56.9528307 22.6114462 57.4812748 23.0804661 58.0101302 22.6114462 58.5391912 23.0806717 59.0651679 22.6145305 59.0651679 13.795682"></polygon>
                        <polygon id="Fill-54" fill="#FFFFFF" points="19.206621 42.0928787 29.6860589 42.0957574 29.6872927 37.3041878 19.2074435 37.3017204"></polygon>
                        <polygon id="Fill-55" fill="#373737" points="19.7732694 38.6001302 25.4948595 38.6005415 25.4952707 37.9359767 19.773475 37.9341261"></polygon>
                        <polygon id="Fill-56" fill="#373737" points="19.7724674 39.7645785 29.1874092 39.7664291 29.188026 39.1008362 19.7728787 39.0985744"></polygon>
                        <polygon id="Fill-57" fill="#373737" points="19.7728787 40.9278136 29.1869979 40.9311035 29.188026 40.2650994 19.7724674 40.26366"></polygon>
                        <polygon id="Fill-58" fill="#C1976B" points="2.4158453e-13 57.7143249 38.8217272 57.7143249 38.8217272 44.6475668 2.4158453e-13 44.6475668"></polygon>
                        <polygon id="Fill-59" fill="#B58D68" points="21.6398903 57.7143249 60.4620288 57.7143249 60.4620288 44.6475668 21.6398903 44.6475668"></polygon>
                        <path d="M31.6241535,49.3369637 C31.6241535,48.2739068 32.5811103,47.4133859 33.7611652,47.4135915 C34.9418369,47.4137971 35.8983825,48.2747293 35.8983825,49.3373749 L33.9205209,49.3369637 L33.9205209,51.7303838 C33.9205209,51.9600617 34.1076354,52.1471761 34.3373132,52.1471761 C34.5671967,52.1471761 34.7543112,51.9602673 34.7538999,51.7310007 L35.074462,51.7310007 C35.0742563,52.1368951 34.7438245,52.4677382 34.3371076,52.4679438 C33.9305963,52.4671213 33.6001645,52.1364839 33.5997533,51.7301782 L33.6003701,49.3365524 L31.6241535,49.3369637 Z" id="Fill-60" fill="#373737"></path>
                        <path d="M28.7655586,49.0361618 L28.7663811,47.412584 L31.1174435,47.4132008 L31.1170322,49.0369842 C31.116621,49.6318437 30.6743317,50.1214256 30.101268,50.1999726 L30.1008568,52.1461686 L30.8595956,52.1465798 L30.8591844,52.4669363 L29.0217615,52.4663194 L29.0213502,52.1457574 L29.7802947,52.1461686 L29.7805003,50.1999726 C29.2074366,50.12122 28.7655586,49.6310212 28.7655586,49.0361618" id="Fill-61" fill="#373737"></path>
                        <polygon id="Fill-62" fill="#373737" points="24.4911035 52.4650446 27.6109801 52.465867 27.6109801 52.1457162 24.4911035 52.1448938"></polygon>
                        <polygon id="Fill-63" fill="#373737" points="26.8535161 47.4120905 27.5485127 48.1072927 27.0136943 48.1066758 27.0132831 51.664318 26.6925154 51.664318 26.6931323 48.1072927 26.1589308 48.107087"></polygon>
                        <polygon id="Fill-64" fill="#373737" points="24.5555449 48.1064702 25.2507471 47.4114736 25.945538 48.1066758 25.4109253 48.1066758 25.4096916 51.664318 25.0897464 51.664318 25.0903633 48.1066758"></polygon>
                        <polygon id="Fill-65" fill="#FFFFFF" points="47.4665593 51.9823304 57.9459973 51.9850034 57.947231 47.1936395 47.467793 47.191172"></polygon>
                        <polygon id="Fill-66" fill="#373737" points="48.032817 48.4895819 53.7548184 48.4899931 53.7554352 47.8254284 48.0336395 47.8235778"></polygon>
                        <polygon id="Fill-67" fill="#373737" points="48.0324058 49.6538245 57.4471419 49.6556751 57.4483756 48.9902879 48.032817 48.988026"></polygon>
                        <polygon id="Fill-68" fill="#373737" points="48.0326114 50.8172858 57.4467306 50.8203701 57.4479644 50.1545716 48.0324058 50.1529267"></polygon>
                        <polygon id="Fill-69" fill="#B58D68" points="4.4107608 77.9547635 54.7252228 77.9547635 54.7252228 57.7143249 4.4107608 57.7143249"></polygon>
                        <polygon id="Fill-70" fill="#FFFFFF" points="6.85634681 74.285305 24.3731391 74.2881837 24.3745785 69.4970254 6.85737491 69.4945579"></polygon>
                        <polygon id="Fill-71" fill="#373737" points="7.42301576 70.7929678 20.1821659 70.793379 20.1825771 70.1288143 7.42322138 70.1267581"></polygon>
                        <polygon id="Fill-72" fill="#373737" points="7.4223989 71.9570048 23.8749006 71.9588554 23.8753119 71.2936737 7.42281014 71.2914119"></polygon>
                        <polygon id="Fill-73" fill="#373737" points="7.42281014 73.1202605 23.8742838 73.123756 23.8751062 72.4575463 7.4223989 72.4561069"></polygon>
                        <polygon id="Fill-74" fill-opacity="0.0988308566" fill="#000000" points="4.4107608 60.2107608 54.7252228 60.2107608 54.7252228 57.7143249 4.4107608 57.7143249"></polygon>
                        <polygon id="Fill-75" fill-opacity="0.0988308566" fill="#000000" points="26.2264565 13.795682 57.188965 13.795682 57.188965 11.3119945 26.2264565 11.3119945"></polygon>
                    </g>
                    <path d="M273.252419,152.198677 C270.130692,139.961186 271.864071,128.830548 273.836792,123.150699 C275.983879,116.968931 278.846114,113.730411 278.966813,113.59573 L279.841727,114.379349 L279.404373,113.987437 L279.842138,114.378938 C279.813557,114.410809 276.991213,117.616018 274.925346,123.596484 C273.019452,129.113687 271.536929,140.723626 275.415134,151.635689 L273.252419,152.198677 Z" id="Fill-227" fill="#43840B"></path>
                    <path d="M267.298252,137.252858 C267.052125,129.930514 265.90538,121.12976 260.907779,118.352447 C257.592152,116.510706 254.461583,119.311871 254.427245,119.331611 L253.342392,116.937368 C253.50586,116.842783 257.3927,114.653749 261.282214,116.815024 C265.680226,119.258821 268.099349,126.121809 268.472344,137.213585 L267.298252,137.252858 Z" id="Fill-228" fill="#43840B"></path>
                    <path d="M269.098849,123.846765 C268.755463,123.222296 268.42133,122.570685 268.098917,121.88926 C264.095079,113.437855 273.675956,104.829973 279.203029,112.811124 C279.203029,112.81318 279.203235,112.815648 279.203235,112.817498 C279.65231,116.449164 281.841755,120.454853 283.942166,124.43669 C286.435106,129.162049 289.260535,132.935387 293.220781,135.23669 C291.098574,135.936621 288.634832,136.285147 286.044016,136.076032 C285.492337,134.236552 286.61523,129.510781 284.97109,129.706326 C283.275339,129.908245 285.141549,134.739294 285.67719,136.04231 C283.798026,135.85355 281.85841,135.367464 279.938533,134.507766 C279.71194,132.33148 283.680617,126.800912 281.571775,126.255812 C279.273763,125.660953 279.519479,133.775963 279.538396,134.323119 C277.722358,133.45828 276.590007,132.855195 274.889116,131.241076 C274.686785,126.268149 280.777053,122.166025 278.32647,120.945668 C275.610021,119.592687 273.794393,130.209273 273.794393,130.209273 C273.793982,130.21133 273.793777,130.212975 273.793571,130.215031 C272.246278,128.667944 270.782467,126.771714 269.453955,124.475346 C271.822084,120.09255 278.159301,117.318526 275.955463,115.548958 C273.730446,113.762529 270.194805,121.327916 269.098849,123.846765" id="Fill-229" fill="#43840B"></path>
                    <path d="M283.116374,109.940089 C284.142008,108.508766 287.268876,110.264558 286.683886,111.935428 C286.09828,113.606299 280.94379,112.972577 283.116374,109.940089 M283.942351,124.436731 C286.435086,129.161885 289.260514,132.935428 293.220761,135.236525 C293.271755,135.219253 293.323982,135.203215 293.374976,135.185531 C293.515415,133.484229 294.095881,131.267231 294.778129,128.19218 C292.664764,127.254345 288.88464,126.325147 289.56257,124.879842 C290.239061,123.43721 293.540706,125.8734 295.192042,127.219801 C295.454414,125.968807 295.643379,124.976484 295.767779,123.621446 C292.427889,121.291768 287.717539,121.558458 288.508766,119.872166 C289.288684,118.209109 293.947629,121.049548 295.855579,122.604654 C295.982447,120.660514 296.090603,119.563735 295.60904,117.577649 C291.487793,115.736936 285.09218,117.647971 285.376552,115.057156 C285.666477,112.41329 293.230836,115.260103 295.247149,116.067985 C294.962776,115.06538 294.578472,114.070178 294.063598,113.094716 C289.699308,104.821583 279.277855,103.817334 279.206299,112.816306 C279.205476,112.814661 279.204037,112.813221 279.203009,112.811165 C279.203009,112.813221 279.203215,112.815483 279.203215,112.817539 C279.652289,116.449205 281.841734,120.454894 283.942351,124.436731" id="Fill-230" fill="#4A990D"></path>
                    <path d="M246.877402,122.532934 C244.34889,125.414085 242.543749,128.274469 242.015716,131.51854 C242.040596,131.548355 242.064654,131.579198 242.089123,131.609013 C243.265888,131.267272 244.90098,131.087971 247.136895,130.757951 C247.224078,129.100857 246.87843,126.32889 248.020857,126.4134 C249.161227,126.496881 248.37329,129.334236 247.894606,130.786326 C248.799952,130.641158 249.51366,130.513674 250.454167,130.250069 C251.159856,127.414565 249.774592,124.325942 251.107217,124.423406 C252.421542,124.520665 251.711124,128.371727 251.158005,130.048561 C252.493304,129.635469 253.256361,129.426971 254.463763,128.595236 C254.642241,125.361241 251.722433,121.564051 253.531892,121.090507 C255.378979,120.608122 255.408382,126.407642 255.383297,127.966038 C255.982886,127.518814 256.55122,127.005997 257.07329,126.410727 C261.500295,121.366244 259.503722,114.123681 253.453139,116.381391 C253.454167,116.380158 253.454373,116.378513 253.456018,116.377073 C253.454373,116.37769 253.453139,116.378513 253.452111,116.379335 C251.132714,117.610795 249.008451,120.103941 246.877402,122.532934" id="Fill-231" fill="#43840B"></path>
                    <path d="M281.827423,156.312481 C281.827423,160.071837 279.649082,163.322694 276.485613,164.87122 L268.122625,164.871837 C264.958746,163.323516 262.779582,160.072454 262.779582,156.312481 C262.779582,154.279925 264.544626,148.182666 264.544626,148.182666 L280.062173,148.182666 C280.062173,148.182666 281.827423,154.279925 281.827423,156.312481" id="Fill-232" fill="#3A4B60"></path>
                    <path d="M255.267265,137.62172 C255.408732,137.130288 255.569527,136.630014 255.750473,136.120075 C257.996463,129.796429 267.225936,130.274702 265.992214,137.130493 C265.991186,137.131727 265.990158,137.132961 265.989541,137.134606 C264.378095,139.207258 263.461439,142.352632 262.51209,145.440432 C261.385497,149.104997 260.910514,152.453729 261.757875,155.629123 C260.324702,154.910685 258.895641,153.839404 257.684949,152.420829 C258.336354,151.20623 261.300576,149.373331 260.366237,148.640089 C259.401672,147.882995 257.903112,151.283955 257.515723,152.217882 C256.656025,151.169836 255.916203,149.940432 255.376038,148.530905 C256.363633,147.310137 261.182344,146.509452 260.386388,145.164284 C259.519698,143.698005 255.533544,147.946943 255.266443,148.234812 C254.780973,146.875045 254.510788,145.994784 254.464524,144.31281 C256.880768,141.682927 262.053557,142.683269 261.426415,140.821172 C260.731008,138.757361 254.430596,143.23392 254.430596,143.23392 C254.429157,143.234949 254.428334,143.235771 254.427274,143.236594 C254.424222,141.666683 254.64074,139.961062 255.129088,138.121172 C258.552461,137.092865 263.179123,138.893276 262.955202,136.877581 C262.729431,134.842145 257.099753,136.896703 255.267265,137.62172" id="Fill-233" fill="#43840B"></path>
                    <path d="M262.512173,145.440514 C261.385579,149.104873 260.910596,152.453605 261.757958,155.629205 C261.792707,155.646477 261.82684,155.664983 261.86159,155.681844 C262.795312,154.887944 264.213269,154.055182 266.117724,152.837704 C265.518547,151.290617 264.067896,148.903571 265.144729,148.512276 C266.219712,148.121803 266.663029,151.032358 266.82074,152.553331 C267.587498,152.050384 268.18647,151.641611 268.935956,151.016319 C268.418615,148.140103 265.88928,145.89 267.145415,145.433523 C268.384483,144.983009 269.313269,148.786984 269.49586,150.543598 C270.544935,149.619746 271.155422,149.11721 271.916422,147.863955 C270.754256,144.840925 266.535751,142.572522 267.99257,141.399664 C269.479411,140.202748 271.882084,145.481432 272.497505,146.913167 C272.860631,146.259294 273.169472,145.558951 273.402029,144.802474 C275.374339,138.386916 270.586881,132.597676 265.991679,137.135099 C265.991885,137.134277 265.991885,137.132632 265.992296,137.130576 C265.991268,137.131809 265.99024,137.133043 265.989623,137.134483 C264.377971,139.207341 263.461316,142.352509 262.512173,145.440514" id="Fill-234" fill="#3A6D09"></path>
                    <path d="M193.457457,92.3398149 L193.457387,104.610815 L198.679616,104.611234 L206.342879,166.537073 L204.561796,166.537485 L199.363387,124.531815 L185.783387,124.531815 L180.583797,166.553934 L178.805387,166.537073 L186.468444,104.611234 L191.690387,104.610815 L191.690768,92.3398149 L193.457457,92.3398149 Z M197.117724,106.378334 L188.030336,106.378334 L186.001387,122.764815 L199.145387,122.764815 L197.117724,106.378334 Z" id="Combined-Shape" fill="#F0F1F3" fill-rule="nonzero"></path>
                    <path d="M201.106799,71.716902 L184.041755,71.716902 L180.446073,95.9735161 C180.446073,96.4850994 185.875682,96.9000411 192.573968,96.9000411 C199.272461,96.9000411 204.702276,96.4850994 204.702276,95.9735161 L201.106799,71.716902 Z" id="Fill-238" fill="#57C3F3" fill-rule="nonzero"></path>
                </g>
            </g>
        </g>
    </g>
</svg>