<?xml version="1.0" encoding="UTF-8"?>
<svg width="100px" height="100px" viewBox="0 0 100 100" version="1.1" xmlns="http://www.w3.org/2000/svg" xmlns:xlink="http://www.w3.org/1999/xlink">
    <title>illustration_box-calculator</title>
    <defs>
        <path d="M56.696086,79.951828 L1.72060215,79.951828 C0.770064516,79.951828 0.000172043011,79.1810753 0.000172043011,78.2313978 L0.000172043011,1.72043011 C0.000172043011,0.769892473 0.770064516,0 1.72060215,0 L56.696086,0 C57.6457634,0 58.4165161,0.769892473 58.4165161,1.72043011 L58.4165161,78.2313978 C58.4165161,79.1810753 57.6457634,79.951828 56.696086,79.951828" id="path-1"></path>
    </defs>
    <g id="simplified" stroke="none" stroke-width="1" fill="none" fill-rule="evenodd">
        <g id="popup-/-box-calculator-/-loader" transform="translate(-143.000000, -152.000000)">
            <g id="modal" transform="translate(13.000000, 100.000000)">
                <g id="content" transform="translate(30.000000, 30.000000)">
                    <g id="Group" transform="translate(75.000000, 0.000000)">
                        <g id="illustration_box-calculator" transform="translate(25.000000, 22.000000)">
                            <g id="calculator" transform="translate(16.000000, 12.000000)">
                                <mask id="mask-2" fill="white">
                                    <use xlink:href="#path-1"></use>
                                </mask>
                                <use id="Fill-1" fill="#3A4B60" xlink:href="#path-1"></use>
                                <path d="M28.5929462,60.6935914 L20.2101505,60.6935914 C19.7344516,60.6935914 19.3499355,61.0789677 19.3499355,61.5538065 L19.3499355,69.9383226 C19.3499355,70.4131613 19.7344516,70.7985376 20.2101505,70.7985376 L28.5929462,70.7985376 C29.0686452,70.7985376 29.4531613,70.4131613 29.4531613,69.9383226 L29.4531613,61.5538065 C29.4531613,61.0789677 29.0686452,60.6935914 28.5929462,60.6935914 M16.1955269,60.6935914 L7.81187097,60.6935914 C7.33617204,60.6935914 6.95165591,61.0789677 6.95165591,61.5538065 L6.95165591,69.9383226 C6.95165591,70.4131613 7.33617204,70.7985376 7.81187097,70.7985376 L16.1955269,70.7985376 C16.6703656,70.7985376 17.0557419,70.4131613 17.0557419,69.9383226 L17.0557419,61.5538065 C17.0557419,61.0789677 16.6703656,60.6935914 16.1955269,60.6935914 M40.9912258,48.1955269 L32.6075699,48.1955269 C32.1327312,48.1955269 31.7473548,48.580043 31.7473548,49.0557419 L31.7473548,57.4385376 C31.7473548,57.9142366 32.1327312,58.2987527 32.6075699,58.2987527 L40.9912258,58.2987527 C41.4669247,58.2987527 41.8514409,57.9142366 41.8514409,57.4385376 L41.8514409,49.0557419 C41.8514409,48.580043 41.4669247,48.1955269 40.9912258,48.1955269 M28.5929462,48.1955269 L20.2101505,48.1955269 C19.7344516,48.1955269 19.3499355,48.580043 19.3499355,49.0557419 L19.3499355,57.4385376 C19.3499355,57.9142366 19.7344516,58.2987527 20.2101505,58.2987527 L28.5929462,58.2987527 C29.0686452,58.2987527 29.4531613,57.9142366 29.4531613,57.4385376 L29.4531613,49.0557419 C29.4531613,48.580043 29.0686452,48.1955269 28.5929462,48.1955269 M16.1955269,48.1955269 L7.81187097,48.1955269 C7.33617204,48.1955269 6.95165591,48.580043 6.95165591,49.0557419 L6.95165591,57.4385376 C6.95165591,57.9142366 7.33617204,58.2987527 7.81187097,58.2987527 L16.1955269,58.2987527 C16.6703656,58.2987527 17.0557419,57.9142366 17.0557419,57.4385376 L17.0557419,49.0557419 C17.0557419,48.580043 16.6703656,48.1955269 16.1955269,48.1955269 M40.9912258,35.6966022 L32.6075699,35.6966022 C32.1327312,35.6966022 31.7473548,36.0819785 31.7473548,36.5568172 L31.7473548,44.9404731 C31.7473548,45.4153118 32.1327312,45.8006882 32.6075699,45.8006882 L40.9912258,45.8006882 C41.4669247,45.8006882 41.8514409,45.4153118 41.8514409,44.9404731 L41.8514409,36.5568172 C41.8514409,36.0819785 41.4669247,35.6966022 40.9912258,35.6966022 M28.5929462,35.6966022 L20.2101505,35.6966022 C19.7344516,35.6966022 19.3499355,36.0819785 19.3499355,36.5568172 L19.3499355,44.9404731 C19.3499355,45.4153118 19.7344516,45.8006882 20.2101505,45.8006882 L28.5929462,45.8006882 C29.0686452,45.8006882 29.4531613,45.4153118 29.4531613,44.9404731 L29.4531613,36.5568172 C29.4531613,36.0819785 29.0686452,35.6966022 28.5929462,35.6966022 M16.1955269,35.6966022 L7.81187097,35.6966022 C7.33617204,35.6966022 6.95165591,36.0819785 6.95165591,36.5568172 L6.95165591,44.9404731 C6.95165591,45.4153118 7.33617204,45.8006882 7.81187097,45.8006882 L16.1955269,45.8006882 C16.6703656,45.8006882 17.0557419,45.4153118 17.0557419,44.9404731 L17.0557419,36.5568172 C17.0557419,36.0819785 16.6703656,35.6966022 16.1955269,35.6966022 M40.9912258,23.1976774 L32.6075699,23.1976774 C32.1327312,23.1976774 31.7473548,23.5830538 31.7473548,24.0578925 L31.7473548,32.4415484 C31.7473548,32.9163871 32.1327312,33.3017634 32.6075699,33.3017634 L40.9912258,33.3017634 C41.4669247,33.3017634 41.8514409,32.9163871 41.8514409,32.4415484 L41.8514409,24.0578925 C41.8514409,23.5830538 41.4669247,23.1976774 40.9912258,23.1976774 M28.5929462,23.1976774 L20.2101505,23.1976774 C19.7344516,23.1976774 19.3499355,23.5830538 19.3499355,24.0578925 L19.3499355,32.4415484 C19.3499355,32.9163871 19.7344516,33.3017634 20.2101505,33.3017634 L28.5929462,33.3017634 C29.0686452,33.3017634 29.4531613,32.9163871 29.4531613,32.4415484 L29.4531613,24.0578925 C29.4531613,23.5830538 29.0686452,23.1976774 28.5929462,23.1976774 M16.1955269,33.3017634 L7.81187097,33.3017634 C7.33617204,33.3017634 6.95165591,32.9163871 6.95165591,32.4415484 L6.95165591,24.0578925 C6.95165591,23.5830538 7.33617204,23.1976774 7.81187097,23.1976774 L16.1955269,23.1976774 C16.6703656,23.1976774 17.0557419,23.5830538 17.0557419,24.0578925 L17.0557419,32.4415484 C17.0557419,32.9163871 16.6703656,33.3017634 16.1955269,33.3017634" id="Fill-4" fill="#F0F1F3" fill-rule="nonzero" mask="url(#mask-2)"></path>
                                <path d="M40.9913118,70.7981935 L32.6076559,70.7981935 C32.1328172,70.7981935 31.7474409,70.4128172 31.7474409,69.9379785 L31.7474409,61.5534624 C31.7474409,61.0786237 32.1328172,60.6932473 32.6076559,60.6932473 L40.9913118,60.6932473 C41.4670108,60.6932473 41.8515269,61.0786237 41.8515269,61.5534624 L41.8515269,69.9379785 C41.8515269,70.4128172 41.4670108,70.7981935 40.9913118,70.7981935" id="Fill-6" fill="#1FB118" mask="url(#mask-2)"></path>
                                <path d="M53.3896774,60.6935914 L45.0060215,60.6935914 C44.5303226,60.6935914 44.1458065,61.0789677 44.1458065,61.5538065 L44.1458065,69.9383226 C44.1458065,70.4131613 44.5303226,70.7985376 45.0060215,70.7985376 L53.3896774,70.7985376 C53.8645161,70.7985376 54.2498925,70.4131613 54.2498925,69.9383226 L54.2498925,61.5538065 C54.2498925,61.0789677 53.8645161,60.6935914 53.3896774,60.6935914 M53.3896774,48.1955269 L45.0060215,48.1955269 C44.5303226,48.1955269 44.1458065,48.580043 44.1458065,49.0557419 L44.1458065,57.4385376 C44.1458065,57.9142366 44.5303226,58.2987527 45.0060215,58.2987527 L53.3896774,58.2987527 C53.8645161,58.2987527 54.2498925,57.9142366 54.2498925,57.4385376 L54.2498925,49.0557419 C54.2498925,48.580043 53.8645161,48.1955269 53.3896774,48.1955269 M53.3896774,35.6966022 L45.0060215,35.6966022 C44.5303226,35.6966022 44.1458065,36.0819785 44.1458065,36.5568172 L44.1458065,44.9404731 C44.1458065,45.4153118 44.5303226,45.8006882 45.0060215,45.8006882 L53.3896774,45.8006882 C53.8645161,45.8006882 54.2498925,45.4153118 54.2498925,44.9404731 L54.2498925,36.5568172 C54.2498925,36.0819785 53.8645161,35.6966022 53.3896774,35.6966022 M53.3896774,33.3017634 L45.0060215,33.3017634 C44.5303226,33.3017634 44.1458065,32.9163871 44.1458065,32.4415484 L44.1458065,24.0578925 C44.1458065,23.5830538 44.5303226,23.1976774 45.0060215,23.1976774 L53.3896774,23.1976774 C53.8645161,23.1976774 54.2498925,23.5830538 54.2498925,24.0578925 L54.2498925,32.4415484 C54.2498925,32.9163871 53.8645161,33.3017634 53.3896774,33.3017634" id="Fill-8" fill="#CCCFD5" fill-rule="nonzero" mask="url(#mask-2)"></path>
                                <path d="M53.3896774,18.6783656 L7.81204301,18.6783656 C7.33634409,18.6783656 6.95182796,18.2929892 6.95182796,17.8181505 L6.95182796,7.8448172 C6.95182796,7.36997849 7.33634409,6.98460215 7.81204301,6.98460215 L53.3896774,6.98460215 C53.8645161,6.98460215 54.2498925,7.36997849 54.2498925,7.8448172 L54.2498925,17.8181505 C54.2498925,18.2929892 53.8645161,18.6783656 53.3896774,18.6783656" id="Fill-10" fill="#FFFFFF" mask="url(#mask-2)"></path>
                                <path d="M34.6443011,67.2652903 L38.9574194,67.2652903 L38.9574194,66.5366882 L34.6443011,66.5366882 L34.6443011,67.2652903 Z M34.6443011,65.4037849 L38.9574194,65.4037849 L38.9574194,64.6665806 L34.6443011,64.6665806 L34.6443011,65.4037849 Z" id="Fill-12" fill="#FFFFFF" mask="url(#mask-2)"></path>
                                <path d="M51.3625806,65.5882151 L51.3625806,66.3254194 L49.6576344,66.3254194 L49.6576344,68.1963871 L48.7449462,68.1963871 L48.7449462,66.3254194 L47.0503226,66.3254194 L47.0503226,65.5882151 L48.7449462,65.5882151 L48.7449462,63.7095054 L49.6576344,63.7095054 L49.6576344,65.5882151 L51.3625806,65.5882151 Z M23.9372043,68.1963871 L25.0374194,68.1963871 L25.0374194,67.2475699 L23.9372043,67.2475699 L23.9372043,68.1963871 Z M11.3539785,63.9107957 C11.1853763,64.2875699 11.1010753,64.8217634 11.1010753,65.5133763 L11.1010753,66.1275699 C11.1010753,66.8183226 11.1853763,67.3525161 11.3539785,67.7301505 C11.5234409,68.1077849 11.8193548,68.296172 12.2451613,68.296172 C12.6709677,68.296172 12.9668817,68.1077849 13.1363441,67.7301505 C13.3049462,67.3525161 13.3892473,66.8183226 13.3892473,66.1275699 L13.3892473,65.5133763 C13.3892473,64.8217634 13.3049462,64.2875699 13.1363441,63.9107957 C12.9668817,63.5323011 12.6709677,63.343914 12.2451613,63.343914 C11.8193548,63.343914 11.5234409,63.5323011 11.3539785,63.9107957 L11.3539785,63.9107957 Z M13.3789247,62.9843441 C13.6782796,63.1710108 13.9105376,63.491871 14.0713978,63.9452043 C14.2331183,64.3993978 14.3139785,65.023914 14.3139785,65.8204731 C14.3139785,66.616172 14.2331183,67.2415484 14.0713978,67.6948817 C13.9105376,68.1490753 13.6782796,68.4690753 13.3789247,68.6566022 C13.0778495,68.8432688 12.7002151,68.9378925 12.2451613,68.9378925 C11.7909677,68.9378925 11.4133333,68.8449892 11.1122581,68.6609032 C10.8111828,68.475957 10.5806452,68.155957 10.4189247,67.6991828 C10.2580645,67.2424086 10.1772043,66.616172 10.1772043,65.8204731 C10.1772043,65.023914 10.2580645,64.3976774 10.4189247,63.9409032 C10.5806452,63.4849892 10.8111828,63.164129 11.1122581,62.9791828 C11.4133333,62.7950968 11.7909677,62.7030538 12.2451613,62.7030538 C12.7002151,62.7030538 13.0778495,62.7968172 13.3789247,62.9843441 L13.3789247,62.9843441 Z M47.8202151,53.651871 L50.5935484,53.651871 L50.5935484,52.7916559 L47.8202151,52.7916559 L47.8202151,53.651871 Z M38.2305376,50.6884301 C38.5866667,50.9748817 38.763871,51.3817634 38.763871,51.9090753 C38.763871,52.2428387 38.6787097,52.5163871 38.5066667,52.7305806 C38.3337634,52.943914 38.0929032,53.1202581 37.7858065,53.2613333 L37.7858065,53.2966022 C38.1221505,53.3963871 38.3922581,53.571871 38.5935484,53.823914 C38.7965591,54.0750968 38.8972043,54.3907957 38.8972043,54.771871 C38.8972043,55.2983226 38.7053763,55.7172473 38.3243011,56.0277849 C37.9423656,56.3374624 37.4443011,56.4923011 36.8283871,56.4923011 C36.1531183,56.4923011 35.6309677,56.3305806 35.2602151,56.0054194 C34.8903226,55.6802581 34.7053763,55.239828 34.7053763,54.684129 L34.7053763,54.6135914 L35.6292473,54.6135914 L35.6292473,54.7099355 C35.6292473,55.0849892 35.7264516,55.3688602 35.9208602,55.5624086 C36.1144086,55.7550968 36.3956989,55.8514409 36.7621505,55.8514409 C37.1363441,55.8514409 37.4313978,55.7585376 37.648172,55.5701505 C37.8649462,55.3834839 37.9724731,55.0996129 37.9724731,54.7193978 C37.9724731,54.0045591 37.5578495,53.6475699 36.7286022,53.6475699 L36.1023656,53.6475699 L36.1023656,53.0067097 L36.751828,53.0067097 C37.0589247,53.0067097 37.3178495,52.9163871 37.5268817,52.7348817 C37.735914,52.5533763 37.84,52.291871 37.84,51.9529462 C37.84,51.6019785 37.7427957,51.3387527 37.5483871,51.1624086 C37.3548387,50.9869247 37.1070968,50.8991828 36.8060215,50.8991828 C36.4903226,50.8991828 36.2374194,50.9912258 36.0464516,51.176172 C35.8563441,51.3602581 35.7608602,51.6312258 35.7608602,51.9882151 L35.7608602,52.0673548 L34.8369892,52.0673548 L34.8369892,51.9090753 C34.8369892,51.5813333 34.9195699,51.2931613 35.083871,51.0436989 C35.2498925,50.7950968 35.4804301,50.6024086 35.7780645,50.4647742 C36.0748387,50.3271398 36.4137634,50.2583226 36.7948387,50.2583226 C37.3969892,50.2583226 37.8752688,50.4019785 38.2305376,50.6884301 L38.2305376,50.6884301 Z M25.9612903,50.6445591 C26.3251613,50.9026237 26.5058065,51.2948817 26.5058065,51.8213333 C26.5058065,52.1430538 26.4232258,52.4510108 26.2580645,52.7434839 C26.0937634,53.035957 25.895914,53.2991828 25.6645161,53.5331613 C25.4331183,53.768 25.1268817,54.0484301 24.7458065,54.376172 C24.6941935,54.4234839 24.5531183,54.5490753 24.3217204,54.7538065 C24.0911828,54.9593978 23.8984946,55.1555269 23.7453763,55.3421935 C23.6567742,55.4419785 23.5905376,55.5443441 23.5466667,55.6492903 L26.5393548,55.6492903 L26.5393548,56.3873548 L22.4352688,56.3873548 L22.4352688,56.2729462 C22.4352688,55.8110108 22.6116129,55.3748817 22.9634409,54.9645591 C23.088172,54.8123011 23.2292473,54.6652043 23.3875269,54.5215484 C23.5449462,54.3778925 23.747957,54.2006882 23.9974194,53.9899355 C24.3423656,53.6914409 24.6176344,53.4402581 24.8223656,53.2355269 C25.027957,53.0299355 25.2008602,52.8062796 25.3402151,52.5628387 C25.4787097,52.3202581 25.5492473,52.0699355 25.5492473,51.8127312 C25.5492473,51.5727312 25.4692473,51.3645591 25.3126882,51.1890753 C25.1544086,51.0135914 24.8929032,50.9258495 24.5255914,50.9258495 C24.1591398,50.9258495 23.8907527,51.0325161 23.7221505,51.2458495 C23.5535484,51.460043 23.4692473,51.736172 23.4692473,52.075957 L23.4692473,52.4355269 L22.5341935,52.4355269 C22.5273118,52.4183226 22.5195699,52.3778925 22.5126882,52.3125161 C22.5049462,52.2488602 22.5015054,52.1723011 22.5015054,52.0845591 C22.5015054,51.4763871 22.6941935,51.0196129 23.0787097,50.7150968 C23.464086,50.4105806 23.9501075,50.2583226 24.535914,50.2583226 C25.1234409,50.2583226 25.5982796,50.3873548 25.9612903,50.6445591 L25.9612903,50.6445591 Z M14.424086,55.7464946 L14.424086,56.3873548 L10.0782796,56.3873548 L10.0782796,55.7464946 L11.8709677,55.7464946 L11.8709677,51.4609032 L10.0670968,51.4609032 L10.0670968,51.004129 C10.3896774,50.9748817 10.7784946,50.9009032 11.2335484,50.7804731 C11.6877419,50.6609032 12.0843011,50.5215484 12.4206452,50.3632688 L12.7741935,50.3632688 L12.7741935,55.7464946 L14.424086,55.7464946 Z M51.396129,43.3069247 L50.3062366,43.3069247 L49.1733333,41.6209032 L48.0077419,43.3069247 L47.0167742,43.3069247 L48.7002151,40.9714409 L47.0941935,38.6884301 L48.1832258,38.6884301 L49.2283871,40.2686452 L50.3062366,38.6884301 L51.3187097,38.6884301 L49.7015054,40.9103656 L51.396129,43.3069247 Z M36.0197849,41.159828 C35.8288172,41.4049892 35.7333333,41.7181075 35.7333333,42.0991828 C35.7333333,42.4793978 35.8288172,42.7925161 36.0197849,43.0385376 C36.2107527,43.2845591 36.4851613,43.4075699 36.8447312,43.4075699 C37.2043011,43.4075699 37.4769892,43.2845591 37.6645161,43.0385376 C37.852043,42.7925161 37.944086,42.4793978 37.944086,42.0991828 C37.944086,41.7181075 37.852043,41.4049892 37.6645161,41.159828 C37.4769892,40.9129462 37.2043011,40.7899355 36.8447312,40.7899355 C36.4851613,40.7899355 36.2107527,40.9129462 36.0197849,41.159828 L36.0197849,41.159828 Z M38.2202151,38.3495054 C38.5204301,38.7064946 38.6709677,39.1804731 38.6709677,39.7723011 L37.7582796,39.7723011 C37.7582796,39.3507957 37.6774194,39.0256344 37.5156989,38.7968172 C37.3548387,38.5688602 37.1156989,38.4553118 36.8008602,38.4553118 C36.3673118,38.4553118 36.0713978,38.6436989 35.9096774,39.0213333 C35.7488172,39.3989677 35.6636559,39.9684301 35.6567742,40.7288602 C35.8176344,40.5473548 36.012043,40.4071398 36.24,40.3073548 C36.4670968,40.2084301 36.7165591,40.1585376 36.9875269,40.1585376 C37.5965591,40.1585376 38.0619355,40.340043 38.3845161,40.7030538 C38.707957,41.0660645 38.8696774,41.5314409 38.8696774,42.0991828 C38.8696774,42.4905806 38.7845161,42.8346667 38.615914,43.1305806 C38.4473118,43.4264946 38.2124731,43.6527312 37.9113978,43.8110108 C37.6111828,43.9692903 37.2739785,44.0484301 36.8997849,44.0484301 C36.1806452,44.0484301 35.6404301,43.823914 35.2774194,43.3766022 C34.9144086,42.9284301 34.732043,42.1723011 34.732043,41.1064946 C34.732043,40.2867097 34.8154839,39.6363871 34.9797849,39.1529462 C35.1449462,38.6703656 35.3815054,38.3262796 35.6894624,38.1206882 C35.9982796,37.9168172 36.3827957,37.8135914 36.8447312,37.8135914 C37.4615054,37.8135914 37.9191398,37.9925161 38.2202151,38.3495054 L38.2202151,38.3495054 Z M23.624086,38.6566022 L23.4812903,40.4923011 C23.8692473,40.1817634 24.3131183,40.0269247 24.812043,40.0269247 C25.3324731,40.0269247 25.7591398,40.1938065 26.0937634,40.5267097 C26.4275269,40.8604731 26.5944086,41.3430538 26.5944086,41.976172 C26.5944086,42.6316559 26.4068817,43.1409032 26.0335484,43.503914 C25.6584946,43.8669247 25.1449462,44.0484301 24.4929032,44.0484301 C23.8477419,44.0484301 23.3341935,43.8712258 22.9531183,43.5168172 C22.5711828,43.1632688 22.3810753,42.6815484 22.3810753,42.0725161 L23.316129,42.0725161 C23.316129,42.4768172 23.4270968,42.8011183 23.6507527,43.0471398 C23.8752688,43.2931613 24.1556989,43.416172 24.4929032,43.416172 C24.8447312,43.416172 25.1268817,43.2931613 25.3402151,43.0471398 C25.5526882,42.8011183 25.6584946,42.444129 25.6584946,41.976172 C25.6584946,41.5667097 25.5604301,41.2475699 25.3617204,41.0187527 C25.163871,40.7899355 24.8997849,40.6763871 24.5703226,40.6763871 C24.3346237,40.6763871 24.1169892,40.7391828 23.9156989,40.8647742 C23.7126882,40.9912258 23.5578495,41.159828 23.4477419,41.3705806 L22.5901075,41.2553118 L22.8430108,37.9193978 L26.2752688,37.9193978 L26.2752688,38.6566022 L23.624086,38.6566022 Z M12.2451613,39.3860645 C11.9853763,39.9357419 11.7187097,40.432086 11.4477419,40.8742366 C11.175914,41.3163871 10.96,41.6303656 10.7991398,41.8178925 L12.8670968,41.8178925 L12.8670968,39.9211183 C12.9694624,39.7284301 13.0503226,39.5486452 13.1088172,39.3809032 C13.168172,39.2140215 13.2412903,38.9903656 13.3290323,38.7090753 L13.7694624,38.7090753 L13.7694624,41.8178925 L14.5384946,41.8178925 L14.5384946,42.4587527 L13.7694624,42.4587527 L13.7694624,43.9426237 L12.8670968,43.9426237 L12.8670968,42.4587527 L9.95096774,42.4587527 L9.95096774,41.8092903 C10.3475269,41.2295054 10.7182796,40.5895054 11.0623656,39.8901505 C11.4073118,39.1907957 11.6894624,38.4983226 11.9096774,37.8135914 L12.8232258,37.8135914 C12.6984946,38.3116559 12.5049462,38.8355269 12.2451613,39.3860645 L12.2451613,39.3860645 Z M47.9578495,31.7697204 L49.6851613,24.8854194 L50.4550538,24.8854194 L48.7389247,31.7697204 L47.9578495,31.7697204 Z M35.9363441,26.2196129 C35.7505376,26.4664946 35.6567742,26.7796129 35.6567742,27.159828 C35.6567742,27.540043 35.7505376,27.8531613 35.9363441,28.0991828 C36.123871,28.3452043 36.3974194,28.4682151 36.7569892,28.4682151 C37.1156989,28.4682151 37.3909677,28.3452043 37.5810753,28.0991828 C37.7729032,27.8531613 37.8675269,27.540043 37.8675269,27.159828 C37.8675269,26.7796129 37.7729032,26.4664946 37.5810753,26.2196129 C37.3909677,25.9744516 37.1156989,25.8514409 36.7569892,25.8514409 C36.3974194,25.8514409 36.123871,25.9744516 35.9363441,26.2196129 L35.9363441,26.2196129 Z M38.3243011,25.8815484 C38.688172,26.3297204 38.8696774,27.0867097 38.8696774,28.1516559 C38.8696774,28.9654194 38.787957,29.6157419 38.6270968,30.1017634 C38.4662366,30.5869247 38.2339785,30.931871 37.9337634,31.1374624 C37.6326882,31.3421935 37.255914,31.4445591 36.8008602,31.4445591 C36.1694624,31.4445591 35.7006452,31.2664946 35.3926882,30.9095054 C35.083871,30.5525161 34.9298925,30.0776774 34.9298925,29.4867097 L35.8434409,29.4867097 C35.8434409,29.9073548 35.9277419,30.2325161 36.0972043,30.4613333 C36.2649462,30.6892903 36.5144086,30.8036989 36.8447312,30.8036989 C37.255914,30.8036989 37.5380645,30.616172 37.6911828,30.2419785 C37.8460215,29.8677849 37.9303226,29.2991828 37.944086,28.5378925 C37.5931183,28.9129462 37.1492473,29.1004731 36.6133333,29.1004731 C36.0043011,29.1004731 35.5389247,28.9189677 35.2163441,28.555957 C34.8929032,28.1929462 34.732043,27.7275699 34.732043,27.159828 C34.732043,26.7675699 34.8172043,26.4234839 34.9858065,26.1275699 C35.1544086,25.8325161 35.3892473,25.6054194 35.6894624,25.4471398 C35.9905376,25.2888602 36.3268817,25.2105806 36.7019355,25.2105806 C37.4202151,25.2105806 37.9612903,25.4342366 38.3243011,25.8815484 L38.3243011,25.8815484 Z M23.7496774,26.131871 C23.5664516,26.3193978 23.4752688,26.5740215 23.4752688,26.8966022 C23.4752688,27.2183226 23.5664516,27.4729462 23.7496774,27.6604731 C23.9329032,27.8471398 24.1789247,27.9409032 24.4877419,27.9409032 C24.7948387,27.9409032 25.0425806,27.8471398 25.2301075,27.6604731 C25.4167742,27.4729462 25.5105376,27.2183226 25.5105376,26.8966022 C25.5105376,26.5740215 25.4167742,26.3193978 25.2301075,26.131871 C25.0425806,25.9452043 24.7948387,25.8514409 24.4877419,25.8514409 C24.1789247,25.8514409 23.9329032,25.9452043 23.7496774,26.131871 L23.7496774,26.131871 Z M23.6395699,28.875957 C23.4425806,29.072086 23.3436559,29.3430538 23.3436559,29.6888602 C23.3436559,30.0338065 23.4425806,30.3056344 23.6395699,30.5052043 C23.8382796,30.703914 24.1204301,30.8036989 24.4877419,30.8036989 C24.8541935,30.8036989 25.1363441,30.703914 25.3341935,30.5052043 C25.5329032,30.3056344 25.631828,30.0338065 25.631828,29.6888602 C25.631828,29.3430538 25.5329032,29.072086 25.3341935,28.875957 C25.1363441,28.679828 24.8541935,28.5817634 24.4877419,28.5817634 C24.1204301,28.5817634 23.8382796,28.679828 23.6395699,28.875957 L23.6395699,28.875957 Z M25.9010753,25.6845591 C26.2348387,26.0002581 26.4008602,26.4011183 26.4008602,26.8871398 C26.4008602,27.1804731 26.3311828,27.4454194 26.1926882,27.6819785 C26.0533333,27.9185376 25.8477419,28.1077849 25.575914,28.248 C26.2288172,28.5060645 26.5556989,28.9860645 26.5556989,29.6888602 C26.5556989,30.2101505 26.3853763,30.6325161 26.043871,30.9576774 C25.7032258,31.2819785 25.1836559,31.4445591 24.4877419,31.4445591 C23.7901075,31.4445591 23.2722581,31.2819785 22.9307527,30.9576774 C22.5901075,30.6325161 22.4197849,30.2101505 22.4197849,29.6888602 C22.4197849,28.9860645 22.7423656,28.5060645 23.3875269,28.248 C23.1234409,28.1077849 22.9212903,27.9185376 22.7819355,27.6819785 C22.6425806,27.4454194 22.5729032,27.1804731 22.5729032,26.8871398 C22.5729032,26.4011183 22.7397849,26.0002581 23.0735484,25.6845591 C23.4073118,25.368 23.8787097,25.2105806 24.4877419,25.2105806 C25.095914,25.2105806 25.5673118,25.368 25.9010753,25.6845591 L25.9010753,25.6845591 Z M12.7346237,28.2746667 C12.283871,29.1469247 12.0584946,30.0191828 12.0584946,30.8914409 C12.0584946,31.0497204 12.0619355,31.1985376 12.0688172,31.3396129 L11.0460215,31.3396129 C11.0460215,30.4088602 11.2610753,29.4927312 11.6894624,28.5912258 C12.1187097,27.6897204 12.6408602,26.8432688 13.2576344,26.0535914 L10.0997849,26.0535914 L10.0997849,25.3155269 L14.3905376,25.3155269 L14.3905376,25.7809032 C13.7376344,26.5714409 13.1862366,27.4024086 12.7346237,28.2746667 L12.7346237,28.2746667 Z" id="Fill-14" fill="#3A4B60" mask="url(#mask-2)"></path>
                                <path d="M47.4101505,13.9298925 L48.039828,13.8627957 C48.0733763,14.2017204 48.1499355,14.4658065 48.2686452,14.6541935 C48.3882151,14.8434409 48.5585376,14.9956989 48.7796129,15.1101075 C49.0006882,15.2245161 49.2501505,15.2821505 49.5271398,15.2821505 C49.9245591,15.2821505 50.2333763,15.1849462 50.4527312,14.9913978 C50.6729462,14.7969892 50.7830538,14.5449462 50.7830538,14.2344086 C50.7830538,14.0529032 50.7434839,13.8937634 50.6626237,13.7587097 C50.5834839,13.6236559 50.4630538,13.5126882 50.3013333,13.4258065 C50.1413333,13.3389247 49.7938065,13.2167742 49.2578925,13.0584946 C48.7821935,12.9165591 48.4432688,12.7746237 48.2419785,12.631828 C48.039828,12.4890323 47.8832688,12.3075269 47.7714409,12.088172 C47.6596129,11.8688172 47.6036989,11.6193548 47.6036989,11.3423656 C47.6036989,10.8443011 47.7645591,10.4365591 48.0862796,10.12 C48.408,9.80430108 48.8424086,9.64602151 49.3886452,9.64602151 C49.7636989,9.64602151 50.0914409,9.72 50.3735914,9.86795699 C50.6540215,10.0167742 50.8725161,10.2292473 51.0290753,10.5070968 C51.183914,10.784086 51.2673548,11.1101075 51.2785376,11.4851613 L50.635957,11.5445161 C50.6024086,11.1436559 50.4828387,10.8468817 50.2763871,10.6533333 C50.0716559,10.4606452 49.7817634,10.3634409 49.4092903,10.3634409 C49.0316559,10.3634409 48.7434839,10.4486022 48.543914,10.6180645 C48.3452043,10.7875269 48.2462796,11.0068817 48.2462796,11.2752688 C48.2462796,11.5247312 48.3193978,11.7174194 48.4647742,11.8550538 C48.6101505,11.991828 48.9370323,12.1311828 49.4471398,12.2713978 C49.9452043,12.4090323 50.2953118,12.5294624 50.4966022,12.6301075 C50.8045591,12.7875269 51.0368172,12.9948387 51.1933763,13.2503226 C51.3507957,13.5066667 51.4299355,13.812043 51.4299355,14.1673118 C51.4299355,14.52 51.3473548,14.8408602 51.1821935,15.1298925 C51.016172,15.4197849 50.7925161,15.64 50.5086452,15.7913978 C50.223914,15.9419355 49.8815484,16.0176344 49.4806882,16.0176344 C48.8570323,16.0176344 48.3589677,15.8292473 47.9882151,15.4541935 C47.6166022,15.0791398 47.4247742,14.5716129 47.4101505,13.9298925 L47.4101505,13.9298925 Z M42.9456344,15.9126882 L42.9456344,9.7544086 L46.5955269,9.7544086 L46.5955269,10.4812903 L43.6131613,10.4812903 L43.6131613,12.3634409 L46.4062796,12.3634409 L46.4062796,13.0894624 L43.6131613,13.0894624 L43.6131613,15.1858065 L46.7125161,15.1858065 L46.7125161,15.9126882 L42.9456344,15.9126882 Z M37.7155269,15.9126882 L39.6725161,12.7015054 L37.9469247,9.7544086 L38.7417634,9.7544086 L39.663914,11.332043 C39.8540215,11.6554839 39.9873548,11.9092473 40.0656344,12.0916129 C40.1740215,11.8722581 40.3073548,11.6382796 40.4656344,11.3905376 L41.4867097,9.7544086 L42.2058495,9.7544086 L40.4372473,12.6524731 L42.3443441,15.9126882 L41.5211183,15.9126882 L40.2471398,13.7165591 C40.1757419,13.5944086 40.1043441,13.4567742 40.0312258,13.3036559 C39.9168172,13.528172 39.8342366,13.6821505 39.7852043,13.7647312 L38.5181075,15.9126882 L37.7155269,15.9126882 Z M33.2381075,12.9243011 C33.2381075,13.6830108 33.4058495,14.2722581 33.7396129,14.692043 C34.0750968,15.1109677 34.4819785,15.32 34.9602581,15.32 C35.4505806,15.32 35.8617634,15.1083871 36.1929462,14.6851613 C36.5258495,14.2619355 36.6910108,13.64 36.6910108,12.8184946 C36.6910108,12.2894624 36.6049892,11.8154839 36.4346667,11.3982796 C36.3030538,11.0791398 36.1052043,10.8227957 35.8402581,10.6309677 C35.576172,10.4391398 35.2862796,10.3427957 34.9731613,10.3427957 C34.4690753,10.3427957 34.0544516,10.5526882 33.7284301,10.9733333 C33.4015484,11.3939785 33.2381075,12.0443011 33.2381075,12.9243011 L33.2381075,12.9243011 Z M32.5499355,12.9131183 C32.5499355,11.8636559 32.7804731,11.055914 33.2424086,10.4916129 C33.7043441,9.92817204 34.279828,9.64602151 34.9688602,9.64602151 C35.4144516,9.64602151 35.8196129,9.7716129 36.1869247,10.0236559 C36.5542366,10.2756989 36.8449892,10.6421505 37.0583226,11.1221505 C37.2733763,11.6021505 37.380043,12.1741935 37.380043,12.8374194 C37.380043,13.7509677 37.1727312,14.4941935 36.7581075,15.067957 C36.3021935,15.7010753 35.7043441,16.0176344 34.9645591,16.0176344 C34.2196129,16.0176344 33.6209032,15.6924731 33.1667097,15.0430108 C32.7555269,14.4546237 32.5499355,13.7449462 32.5499355,12.9131183 L32.5499355,12.9131183 Z M28.6772473,15.1858065 L29.9357419,15.1858065 C30.2127312,15.1858065 30.4174624,15.1608602 30.5490753,15.1101075 C30.740043,15.0378495 30.8854194,14.9174194 30.9843441,14.7513978 C31.084129,14.5845161 31.1340215,14.3754839 31.1340215,14.1234409 C31.1340215,13.8911828 31.0858495,13.6941935 30.9912258,13.5333333 C30.8957419,13.3724731 30.7667097,13.2546237 30.6058495,13.1797849 C30.444129,13.1058065 30.1912258,13.0688172 29.8462796,13.0688172 L28.6772473,13.0688172 L28.6772473,15.1858065 Z M28.6772473,12.3419355 L29.7705806,12.3419355 C30.0570323,12.3419355 30.260043,12.3221505 30.3813333,12.2834409 C30.5550968,12.2249462 30.6892903,12.1260215 30.7830538,11.9875269 C30.8768172,11.8490323 30.924129,11.6606452 30.924129,11.4223656 C30.924129,11.2012903 30.8811183,11.0172043 30.795957,10.8701075 C30.7099355,10.7230108 30.5963871,10.6215054 30.4544516,10.5655914 C30.3133763,10.5096774 30.0587527,10.4812903 29.6905806,10.4812903 L28.6772473,10.4812903 L28.6772473,12.3419355 Z M28.0088602,15.9126882 L28.0088602,9.7544086 L29.9056344,9.7544086 C30.2901505,9.7544086 30.5938065,9.81462366 30.8183226,9.93333333 C31.0428387,10.052043 31.2260645,10.2378495 31.3697204,10.4890323 C31.5125161,10.7410753 31.583914,11.0197849 31.583914,11.3243011 C31.583914,11.6073118 31.5219785,11.8619355 31.3989677,12.088172 C31.2750968,12.3152688 31.1021935,12.4967742 30.8776774,12.6344086 C31.1701505,12.7410753 31.4015484,12.9225806 31.5701505,13.1780645 C31.7387527,13.4344086 31.8230538,13.7509677 31.8230538,14.1260215 C31.8230538,14.4993548 31.7464946,14.8262366 31.5942366,15.1075269 C31.4419785,15.3888172 31.2372473,15.5935484 30.9826237,15.7217204 C30.728,15.848172 30.3778925,15.9126882 29.9331613,15.9126882 L28.0088602,15.9126882 Z" id="Fill-15" fill="#3A4B60" mask="url(#mask-2)"></path>
                                <polygon id="Fill-16" fill-opacity="0.251577524" fill="#000000" mask="url(#mask-2)" points="0 79.9517419 2.78365591 79.9517419 2.78365591 -8.60215054e-05 0 -8.60215054e-05"></polygon>
                            </g>
                            <g id="Group-2" transform="translate(-0.000143, -0.000071)" fill="#CCCFD5">
                                <polygon id="Fill-1" points="69.8312375 0 67.1613893 14.2875661 52.2114762 17.6188097 67.1613893 20.9500533 69.8312375 35.2376194 72.50061 20.9500533 87.4495714 17.6188097 72.50061 14.2875661"></polygon>
                                <polygon id="Fill-2" points="12.6480952 25.8971905 0 28.7157619 12.6480952 31.5343333 14.9071429 43.6219524 17.1652381 31.5343333 29.8133333 28.7157619 17.1652381 25.8971905 14.9071429 13.8095714"></polygon>
                                <polygon id="Fill-3" points="85.1951628 56.1407079 74.2858095 58.5719572 85.1951628 61.0027255 87.1429524 71.4291001 89.0907419 61.0027255 100.000095 58.5719572 89.0907419 56.1407079 87.1429524 45.7143333"></polygon>
                            </g>
                        </g>
                    </g>
                </g>
            </g>
        </g>
    </g>
</svg>