<?xml version="1.0" encoding="UTF-8"?>
<svg width="100px" height="100px" viewBox="0 0 100 100" version="1.1" xmlns="http://www.w3.org/2000/svg" xmlns:xlink="http://www.w3.org/1999/xlink">
    <!-- Generator: Sketch 63.1 (92452) - https://sketch.com -->
    <title>icon / furniture / inversion-table</title>
    <desc>Created with Sketch.</desc>
    <g id="icon-/-furniture-/-inversion-table" stroke="none" stroke-width="1" fill="none" fill-rule="evenodd">
        <path d="M64.6943,30.0654 L67.7353,37.7774 L64.0193,43.2614 L59.8533,32.8094 L64.6943,30.0654 Z M44.0833,31.3354 L54.8623,31.0684 L40.3853,39.2744 L44.0833,31.3354 Z M53.2523,27.1294 L45.8363,27.3134 L49.6493,18.3174 L53.2523,27.1294 Z M30.6503,37.4484 L44.3683,7.7224 C45.6393,4.8894 48.2563,3.9334 50.2673,3.9784 C52.2883,4.0254 54.8533,5.1044 55.9933,7.9954 L63.2213,26.3294 L58.3683,29.0814 L57.5483,27.0234 L57.5063,27.0244 L52.2403,14.1444 C51.8133,13.1024 50.8113,12.4234 49.6863,12.4174 L49.6693,12.4174 C48.5513,12.4174 47.5493,13.0814 47.1123,14.1124 L40.9823,28.5744 L34.4243,42.6534 L33.9373,42.9294 L30.6503,37.4484 Z M65.7983,47.7244 L72.2053,38.2714 L68.1883,28.0844 L100.0003,10.0504 L96.5063,3.0724 C96.0163,2.0894 94.8243,1.6924 93.8383,2.1844 C92.8563,2.6754 92.4593,3.8704 92.9513,4.8524 L94.7533,8.4544 L66.7153,24.3484 L59.6923,6.5364 C58.1423,2.6034 54.5653,0.0994 50.3593,0.0024 C46.1103,-0.0836 42.4683,2.2404 40.7493,6.0754 L26.1593,37.6894 L30.4763,44.8914 L1.0073,61.5974 C0.0523,62.1384 -0.2827,63.3524 0.2583,64.3084 C0.6253,64.9534 1.2983,65.3164 1.9903,65.3164 C2.3233,65.3164 2.6593,65.2334 2.9693,65.0574 L31.5323,48.8654 L9.0373,97.1714 C8.5733,98.1674 9.0053,99.3504 10.0003,99.8144 C10.9943,100.2764 12.1763,99.8464 12.6413,98.8504 L37.4933,45.4864 L56.3613,34.7894 L81.7993,98.7484 C82.1103,99.5264 82.8573,100.0004 83.6473,100.0004 C83.8913,100.0004 84.1413,99.9554 84.3833,99.8574 C85.4033,99.4524 85.9003,98.2954 85.4933,97.2744 L65.7983,47.7244 Z" id="icon_-inversion-table" fill="#3A4B60"></path>
    </g>
</svg>