<?xml version="1.0" encoding="UTF-8"?>
<svg width="100px" height="100px" viewBox="0 0 100 100" version="1.1" xmlns="http://www.w3.org/2000/svg" xmlns:xlink="http://www.w3.org/1999/xlink">
    <title>icon / furniture / ironing-board</title>
    <g id="icon-/-furniture-/-ironing-board" stroke="none" stroke-width="1" fill="none" fill-rule="evenodd">
        <path d="M85.9375,20.6254 C85.9375,21.4874 85.2385,22.1874 84.3755,22.1874 C83.5115,22.1874 82.8125,21.4874 82.8125,20.6254 C82.8125,19.7624 83.5115,19.0634 84.3755,19.0634 C85.2385,19.0634 85.9375,19.7624 85.9375,20.6254 L85.9375,20.6254 Z M79.6875,20.6254 C79.6875,21.4874 78.9885,22.1874 78.1255,22.1874 C77.2615,22.1874 76.5625,21.4874 76.5625,20.6254 C76.5625,19.7624 77.2615,19.0634 78.1255,19.0634 C78.9885,19.0634 79.6875,19.7624 79.6875,20.6254 L79.6875,20.6254 Z M73.4375,20.6254 C73.4375,21.4874 72.7385,22.1874 71.8745,22.1874 C71.0115,22.1874 70.3125,21.4874 70.3125,20.6254 C70.3125,19.7624 71.0115,19.0634 71.8745,19.0634 C72.7385,19.0634 73.4375,19.7624 73.4375,20.6254 L73.4375,20.6254 Z M64.7255,21.2624 C66.8095,17.9284 70.4005,15.9384 74.3325,15.9384 L87.8425,15.9384 L90.1865,25.3124 L62.1945,25.3124 L64.7255,21.2624 Z M59.3755,28.4374 L92.1875,28.4374 C92.6685,28.4374 93.1235,28.2164 93.4185,27.8364 C93.7145,27.4574 93.8205,26.9624 93.7035,26.4954 L90.6245,14.1834 L90.6245,6.5624 C90.6245,5.6994 89.9255,5.0004 89.0625,5.0004 L73.4375,5.0004 C72.5745,5.0004 71.8745,5.6994 71.8745,6.5624 C71.8745,7.4254 72.5745,8.1254 73.4375,8.1254 L87.4995,8.1254 L87.4995,12.8134 L74.3325,12.8134 C69.3155,12.8134 64.7345,15.3524 62.0765,19.6054 L58.0495,26.0474 C57.7495,26.5284 57.7335,27.1364 58.0085,27.6324 C58.2845,28.1294 58.8065,28.4374 59.3755,28.4374 L59.3755,28.4374 Z M95.3125,37.8124 L4.6875,37.8124 C3.8265,37.8124 3.1245,37.1114 3.1245,36.2504 C3.1245,35.3884 3.8265,34.6884 4.6875,34.6884 L95.3125,34.6884 C96.1735,34.6884 96.8755,35.3884 96.8755,36.2504 C96.8755,37.1114 96.1735,37.8124 95.3125,37.8124 L95.3125,37.8124 Z M42.1875,64.5394 L17.9115,40.9374 L66.4635,40.9374 L42.1875,64.5394 Z M95.3125,31.5634 L4.6875,31.5634 C2.1025,31.5634 -0.0005,33.6654 -0.0005,36.2504 C-0.0005,38.8344 2.1025,40.9374 4.6875,40.9374 L13.4275,40.9374 L39.9465,66.7194 L13.5705,92.3164 C12.9515,92.9184 12.9375,93.9074 13.5395,94.5264 C13.8455,94.8424 14.2515,95.0004 14.6595,95.0004 C15.0515,95.0004 15.4455,94.8534 15.7485,94.5584 L42.1875,68.8974 L68.5895,94.5584 C68.8935,94.8534 69.2865,95.0004 69.6785,95.0004 C70.0855,95.0004 70.4925,94.8414 70.7985,94.5264 C71.4005,93.9074 71.3865,92.9184 70.7675,92.3164 L44.4285,66.7194 L70.9475,40.9374 L95.3125,40.9374 C97.8975,40.9374 100.0005,38.8344 100.0005,36.2504 C100.0005,33.6654 97.8975,31.5634 95.3125,31.5634 L95.3125,31.5634 Z" id="icon_ironing-board" fill="#3A4B60"></path>
    </g>
</svg>