<?xml version="1.0" encoding="UTF-8"?>
<svg width="100px" height="100px" viewBox="0 0 100 100" version="1.1" xmlns="http://www.w3.org/2000/svg" xmlns:xlink="http://www.w3.org/1999/xlink">
    <!-- Generator: Sketch 63.1 (92452) - https://sketch.com -->
    <title>icon / furniture / jewelry-cabinet</title>
    <desc>Created with Sketch.</desc>
    <g id="icon-/-furniture-/-jewelry-cabinet" stroke="none" stroke-width="1" fill="none" fill-rule="evenodd">
        <path d="M61.2842,65.9883 C61.2842,66.4833 60.8802,66.8873 60.3852,66.8873 C59.8882,66.8873 59.4862,66.4833 59.4862,65.9883 C59.4862,65.4923 59.8882,65.0893 60.3852,65.0893 C60.8802,65.0893 61.2842,65.4923 61.2842,65.9883 L61.2842,65.9883 Z M51.8682,65.1293 C51.8682,65.6243 51.4642,66.0283 50.9692,66.0283 C50.4732,66.0283 50.0692,65.6243 50.0692,65.1293 C50.0692,64.6333 50.4732,64.2293 50.9692,64.2293 C51.4642,64.2293 51.8682,64.6333 51.8682,65.1293 L51.8682,65.1293 Z M72.7972,90.5253 L72.7172,90.4693 C72.5082,90.3213 72.2562,90.2503 72.0132,90.2613 C71.7042,90.2743 71.4222,90.4093 71.2192,90.6373 L68.0842,94.1613 L65.7952,96.3393 L69.8742,89.2253 L72.3722,87.4103 L73.3372,88.4963 C73.5362,88.7203 73.8232,88.8593 74.1252,88.8753 C74.1552,88.8773 74.1902,88.8773 74.2272,88.8753 L74.5472,88.8603 L72.7972,90.5253 Z M67.1502,86.9083 L49.9982,84.2553 L50.0262,82.7763 L50.1592,82.7953 L67.3452,85.2353 L67.2842,86.9293 L67.1502,86.9083 Z M51.1112,87.5303 L51.0302,87.4723 C50.8032,87.3083 50.5212,87.2353 50.2392,87.2713 C49.9052,87.3123 49.6082,87.5003 49.4272,87.7833 L47.2292,91.2173 L44.9992,93.3433 L48.9812,86.3813 L49.0622,86.3933 L51.8512,86.8253 L51.1112,87.5303 Z M50.9062,80.6233 L50.0492,80.5013 L50.0812,70.9543 L50.8492,71.0293 L50.8502,71.1353 L50.9062,80.6233 Z M47.1202,68.3963 L47.6022,60.8283 L47.7232,60.8403 L55.0502,61.4933 L55.0422,61.6083 L54.5722,69.1253 L47.1202,68.3963 Z M46.3992,44.1883 L27.2582,40.6803 L28.2452,26.5793 L28.3772,26.6033 L47.2982,30.0693 L47.0892,33.3663 L46.3992,44.1883 Z M46.2482,46.5613 L45.3942,59.9793 L45.2822,59.9793 L25.9102,59.9443 L25.9192,59.8173 L27.0992,42.9473 L27.2312,42.9703 L46.2552,46.4563 L46.2482,46.5613 Z M45.2402,62.4053 L44.8632,68.3103 L44.7552,68.3133 L25.2912,68.7873 L25.7472,62.2783 L45.2482,62.2783 L45.2402,62.4053 Z M29.1922,13.0473 L29.3232,13.0713 L48.1612,16.5233 L48.1542,16.6293 L47.4432,27.8013 L28.4032,24.3123 L29.1922,13.0473 Z M29.9412,2.3423 L30.0722,2.3673 L48.8432,5.8063 L48.3052,14.2553 L29.3502,10.7813 L29.9412,2.3423 Z M49.1682,38.1143 L65.8562,39.1773 L65.6382,43.1693 L65.5142,43.1583 L48.8192,41.7133 L49.0492,38.1073 L49.1682,38.1143 Z M49.3482,33.3983 L50.6802,12.4993 L50.7882,12.4953 L67.3422,11.9833 L67.3352,12.1123 L65.9832,36.8433 L49.1942,35.8133 L49.3482,33.3983 Z M51.0962,5.9333 L51.2012,5.9253 L67.7362,4.7633 L67.4692,9.6523 L67.3592,9.6553 L50.8262,10.1933 L51.0962,5.9333 Z M64.9562,72.4093 C65.2452,72.4363 65.5462,72.3933 65.8182,72.2803 L67.6542,71.5163 L67.4282,82.9673 L53.1662,80.9423 L53.1092,71.2513 L64.9562,72.4093 Z M56.8112,61.6503 L56.9322,61.6613 L64.5922,62.3433 L64.1692,70.0623 L56.3142,69.2953 L56.8112,61.6503 Z M48.3522,49.0383 L48.6742,44.0023 L48.7952,44.0123 L65.5122,45.5033 L65.2382,50.5003 L65.1152,50.4893 L48.3522,49.0383 Z M65.1102,52.8353 L65.1032,52.9503 L64.7192,60.0093 L64.5962,59.9993 L47.7482,58.5403 L48.2082,51.3263 L48.3292,51.3383 L65.1102,52.8353 Z M68.5572,34.7543 C68.8452,35.0523 69.1752,35.2833 69.5372,35.4383 L69.6152,35.4723 L69.6102,35.5543 L67.7792,69.0193 L66.4562,69.5693 L68.3682,34.5553 L68.5572,34.7543 Z M68.5992,30.3153 L69.9562,5.4893 L71.1782,6.2293 L71.1742,6.3013 L69.9162,29.8193 L69.8372,29.8433 C69.4532,29.9623 69.1032,30.1533 68.7972,30.4133 L68.5852,30.5923 L68.5992,30.3153 Z M71.3932,85.2953 L69.6002,86.4653 L69.6112,86.2313 L70.8802,53.7053 L71.3932,85.2953 Z M71.4512,32.6893 C71.4512,33.0943 71.1212,33.4253 70.7152,33.4253 C70.3102,33.4253 69.9802,33.0943 69.9802,32.6893 C69.9802,32.2843 70.3102,31.9543 70.7152,31.9543 C71.1212,31.9543 71.4512,32.2843 71.4512,32.6893 L71.4512,32.6893 Z M76.3242,85.1553 C75.9152,84.9773 75.4352,85.0573 75.1062,85.3593 L74.2622,86.1383 L73.6552,85.4553 L73.6542,85.4113 L72.4592,35.1063 L72.5092,35.0693 C73.2702,34.4933 73.7082,33.6263 73.7082,32.6893 C73.7082,31.6303 73.1532,30.6693 72.2252,30.1213 L72.1632,30.0843 L72.1672,30.0113 L73.4612,5.7863 C73.4872,5.3023 73.2462,4.8453 72.8322,4.5933 L69.6972,2.6913 C69.3802,2.5003 69.0192,2.4073 68.6422,2.4363 L50.0962,3.7413 L50.0812,3.7383 L29.8342,0.0293 C29.3362,-0.0627 28.8162,0.0633 28.4142,0.3763 C28.0122,0.6873 27.7632,1.1573 27.7262,1.6643 L23.0052,69.1443 C22.9692,69.6443 23.1472,70.1403 23.4942,70.5043 C23.8422,70.8683 24.3282,71.0643 24.8332,71.0573 L45.8742,70.5443 L47.8232,70.7333 L47.7782,82.1763 L47.7422,84.1623 L47.7052,84.1963 C47.5962,84.2963 47.5182,84.3893 47.4592,84.4943 L42.9942,92.3033 C42.8962,92.4743 42.8452,92.6693 42.8452,92.8663 L42.8452,95.8783 C42.8452,96.3303 43.1132,96.7373 43.5282,96.9153 C43.9402,97.0903 44.4292,97.0013 44.7522,96.6953 L48.8762,92.7713 L49.0602,92.5483 L50.6192,90.1073 L50.7102,90.1413 C51.1162,90.2923 51.5782,90.2003 51.8892,89.9033 L53.7932,88.0943 C54.0082,87.8913 54.1322,87.6143 54.1412,87.3133 L54.1462,87.1793 L54.2792,87.2013 L67.1992,89.1993 L67.1992,89.3333 L67.1822,89.3623 L63.7872,95.3003 C63.6902,95.4693 63.6382,95.6633 63.6382,95.8613 L63.6382,98.8743 C63.6382,99.3263 63.9072,99.7333 64.3222,99.9113 C64.7342,100.0863 65.2222,99.9973 65.5462,99.6913 L69.7362,95.6993 L72.1362,93.0043 L72.2202,93.0533 C72.6542,93.3113 73.2112,93.2483 73.5762,92.9003 L76.6492,89.9763 C76.8722,89.7643 77.0002,89.4673 77.0002,89.1583 L77.0002,86.1883 C77.0002,85.7403 76.7342,85.3353 76.3242,85.1553 L76.3242,85.1553 Z" id="icon_jewelry-cabinet" fill="#3A4B60"></path>
    </g>
</svg>