<?xml version="1.0" encoding="UTF-8"?>
<svg width="100px" height="100px" viewBox="0 0 100 100" version="1.1" xmlns="http://www.w3.org/2000/svg">
    <title>icon / furniture / juicer</title>
    <g id="icon-/-furniture-/-juicer" stroke="none" stroke-width="1" fill="none" fill-rule="evenodd">
        <path d="M96.7605,86.2846 C96.7605,88.2506 95.1615,89.8486 93.1975,89.8486 L91.3615,89.8486 L91.3615,68.8986 L96.7605,68.8986 L96.7605,86.2846 Z M88.1205,96.6516 C88.1205,96.7126 88.0725,96.7606 88.0135,96.7606 L67.2795,96.7606 C67.2195,96.7606 67.1705,96.7126 67.1705,96.6516 L67.1705,75.8096 L70.7345,75.8096 C71.2335,75.8096 71.7035,75.5806 72.0115,75.1866 C72.3185,74.7946 72.4275,74.2816 72.3055,73.7976 L71.0805,68.8986 L88.1205,68.8986 L88.1205,96.6516 Z M60.2595,72.5696 L63.9315,72.5696 L63.9315,68.8986 L60.2595,68.8986 L60.2595,72.5696 Z M32.7215,60.2596 C34.6865,60.2596 36.2845,61.8576 36.2845,63.8226 C36.2845,65.7876 34.6865,67.3866 32.7215,67.3866 C30.7565,67.3866 29.1575,65.7876 29.1575,63.8226 C29.1575,61.8576 30.7565,60.2596 32.7215,60.2596 L32.7215,60.2596 Z M57.0195,96.6516 C57.0195,96.7126 56.9715,96.7606 56.9115,96.7606 L20.5185,96.7606 L20.5185,41.2526 L31.1015,41.2526 L31.1015,57.2166 C28.1295,57.9446 25.9175,60.6296 25.9175,63.8226 C25.9175,67.5746 28.9705,70.6266 32.7215,70.6266 C36.4725,70.6266 39.5255,67.5746 39.5255,63.8226 C39.5255,60.6296 37.3135,57.9446 34.3415,57.2166 L34.3415,41.2526 L57.0195,41.2526 L57.0195,96.6516 Z M4.9675,96.6516 L4.9675,41.2526 L17.2795,41.2526 L17.2795,96.7606 L5.0755,96.7606 C5.0165,96.7606 4.9675,96.7126 4.9675,96.6516 L4.9675,96.6516 Z M4.9675,34.4496 C4.9675,32.4836 6.5665,30.8856 8.5315,30.8856 L31.1015,30.8856 L31.1015,38.0136 L4.9675,38.0136 L4.9675,34.4496 Z M50.1085,10.1506 L50.1085,16.6646 L34.3415,26.3666 L34.3415,10.1506 L50.1085,10.1506 Z M30.8855,6.8036 L30.8855,3.3476 C30.8855,3.2886 30.9345,3.2396 30.9935,3.2396 L53.4555,3.2396 C53.5155,3.2396 53.5645,3.2886 53.5645,3.3476 L53.5645,6.8036 C53.5645,6.8626 53.5155,6.9116 53.4555,6.9116 L30.9935,6.9116 C30.9345,6.9116 30.8855,6.8626 30.8855,6.8036 L30.8855,6.8036 Z M50.1085,27.6456 L38.4445,27.6456 L50.1085,20.4686 L50.1085,27.6456 Z M57.0195,34.4496 L57.0195,38.0136 L34.3415,38.0136 L34.3415,30.8856 L53.4555,30.8856 C55.4205,30.8856 57.0195,32.4836 57.0195,34.4496 L57.0195,34.4496 Z M67.7625,68.9796 L68.6595,72.5696 L67.1705,72.5696 L67.1705,68.8986 L67.6575,68.8986 C67.7065,68.8986 67.7505,68.9316 67.7625,68.9796 L67.7625,68.9796 Z M88.1205,63.7156 L88.1205,65.6586 L67.6575,65.6586 L67.1705,65.6586 L67.1705,63.7156 L88.1205,63.7156 Z M98.3805,65.6586 L91.3615,65.6586 L91.3615,63.7156 L91.4685,63.7156 C92.3635,63.7156 93.0885,62.9896 93.0885,62.0956 C93.0885,61.2006 92.3635,60.4746 91.4685,60.4746 L63.8225,60.4746 C62.9285,60.4746 62.2025,61.2006 62.2025,62.0956 C62.2025,62.9896 62.9285,63.7156 63.8225,63.7156 L63.9315,63.7156 L63.9315,65.6586 L60.2595,65.6586 L60.2595,41.2526 L60.3665,41.2526 C61.2615,41.2526 61.9875,40.5276 61.9875,39.6336 C61.9875,38.7386 61.2615,38.0136 60.3665,38.0136 L60.2595,38.0136 L60.2595,34.4496 C60.2595,30.6976 57.2065,27.6456 53.4555,27.6456 L53.3475,27.6456 L53.3475,18.4736 L56.0325,16.8226 C56.7945,16.3526 57.0315,15.3556 56.5635,14.5946 C56.0945,13.8316 55.0965,13.5946 54.3345,14.0626 L53.3475,14.6706 L53.3475,10.1506 L53.4555,10.1506 C55.3015,10.1506 56.8035,8.6496 56.8035,6.8036 L56.8035,3.3476 C56.8035,1.5016 55.3015,0.0006 53.4555,0.0006 L30.9935,0.0006 C29.1475,0.0006 27.6465,1.5016 27.6465,3.3476 L27.6465,6.8036 C27.6465,8.6496 29.1475,10.1506 30.9935,10.1506 L31.1015,10.1506 L31.1015,27.6456 L8.5315,27.6456 C4.7805,27.6456 1.7285,30.6976 1.7285,34.4496 L1.7285,38.0136 L1.6195,38.0136 C0.7255,38.0136 -0.0005,38.7386 -0.0005,39.6336 C-0.0005,40.5276 0.7255,41.2526 1.6195,41.2526 L1.7285,41.2526 L1.7285,96.6516 C1.7285,98.4986 3.2295,100.0006 5.0755,100.0006 L56.9115,100.0006 C58.7575,100.0006 60.2595,98.4986 60.2595,96.6516 L60.2595,75.8096 L63.9315,75.8096 L63.9315,96.6516 C63.9315,98.4986 65.4325,100.0006 67.2795,100.0006 L88.0135,100.0006 C89.8595,100.0006 91.3615,98.4986 91.3615,96.6516 L91.3615,93.0886 L93.1975,93.0886 C96.9475,93.0886 99.9995,90.0366 99.9995,86.2846 L99.9995,67.2786 C99.9995,66.3846 99.2755,65.6586 98.3805,65.6586 L98.3805,65.6586 Z M32.7215,86.3926 C29.8035,86.3926 27.4295,84.0186 27.4295,81.1016 C27.4295,78.1836 29.8035,75.8096 32.7215,75.8096 C35.6395,75.8096 38.0135,78.1836 38.0135,81.1016 C38.0135,84.0186 35.6395,86.3926 32.7215,86.3926 L32.7215,86.3926 Z M32.7215,72.5696 C28.0175,72.5696 24.1905,76.3976 24.1905,81.1016 C24.1905,85.8056 28.0175,89.6336 32.7215,89.6336 C37.4255,89.6336 41.2525,85.8056 41.2525,81.1016 C41.2525,76.3976 37.4255,72.5696 32.7215,72.5696 L32.7215,72.5696 Z"
              id="Fill-1" fill="#3A4B60"></path>
    </g>
</svg>