<?xml version="1.0" encoding="UTF-8"?>
<svg width="100px" height="100px" viewBox="0 0 100 100" version="1.1" xmlns="http://www.w3.org/2000/svg">
    <title>icon / furniture / jukebox</title>
    <g id="icon-/-furniture-/-jukebox" stroke="none" stroke-width="1" fill="none" fill-rule="evenodd">
        <path d="M79.554,34.4206 L79.554,32.9546 C79.554,32.7006 79.348,32.4946 79.094,32.4946 L70.405,32.4946 C70.207,32.4946 70.039,32.6196 69.974,32.7946 C69.968,32.8156 69.961,32.8366 69.955,32.8576 C69.949,32.8886 69.945,32.9206 69.945,32.9546 L69.945,34.4126 L69.945,34.9766 L69.945,34.9866 C69.945,35.2406 70.151,35.4476 70.405,35.4476 L79.094,35.4476 C79.348,35.4476 79.554,35.2406 79.554,34.9866 L79.554,34.9766 L79.554,34.4206 Z M79.554,38.8526 C79.554,38.5996 79.348,38.3926 79.094,38.3926 L70.405,38.3926 C70.151,38.3926 69.945,38.5996 69.945,38.8526 L69.945,40.8856 C69.945,40.9186 69.949,40.9516 69.955,40.9826 C69.961,41.0036 69.968,41.0246 69.974,41.0456 C70.039,41.2206 70.207,41.3456 70.405,41.3456 L79.094,41.3456 C79.348,41.3456 79.554,41.1386 79.554,40.8856 L79.554,38.8526 Z M76.957,44.2906 L72.539,44.2906 L72.539,84.8476 L74.452,84.8476 C74.47,84.8476 74.486,84.8476 74.503,84.8486 L75.485,84.8486 C76.297,84.8486 76.957,84.1886 76.957,83.3756 L76.957,44.2906 Z M72.98,87.7936 L27.02,87.7936 L27.02,96.5636 C27.02,96.8336 27.241,97.0546 27.511,97.0546 L31.325,97.0546 C31.596,97.0546 31.816,96.8336 31.816,96.5636 L31.816,95.1956 C31.816,93.3016 33.358,91.7596 35.252,91.7596 L64.747,91.7596 C66.642,91.7596 68.184,93.3016 68.184,95.1956 L68.184,96.5636 C68.184,96.8336 68.405,97.0546 68.675,97.0546 L72.49,97.0546 C72.76,97.0546 72.98,96.8336 72.98,96.5636 L72.98,87.7936 Z M25.547,84.8476 L27.46,84.8476 L27.46,44.2906 L23.041,44.2906 L23.041,83.3756 C23.041,84.1886 23.702,84.8486 24.515,84.8486 L25.496,84.8486 C25.513,84.8476 25.531,84.8476 25.547,84.8476 L25.547,84.8476 Z M29.595,41.3456 C29.792,41.3456 29.961,41.2206 30.027,41.0456 C30.032,41.0246 30.037,41.0036 30.044,40.9826 C30.051,40.9516 30.055,40.9186 30.055,40.8846 L30.055,38.8526 C30.055,38.5996 29.849,38.3926 29.595,38.3926 L20.906,38.3926 C20.652,38.3926 20.446,38.5996 20.446,38.8526 L20.446,40.8846 C20.446,41.1386 20.652,41.3456 20.906,41.3456 L29.595,41.3456 Z M20.446,34.9766 L20.446,34.9766 L20.446,34.9866 C20.446,35.2396 20.652,35.4466 20.906,35.4466 L29.595,35.4466 C29.849,35.4466 30.055,35.2396 30.055,34.9866 L30.055,34.3816 L30.056,34.3816 L30.056,32.9546 C30.056,32.9206 30.052,32.8886 30.044,32.8576 C30.038,32.8366 30.033,32.8156 30.027,32.7946 C29.961,32.6196 29.793,32.4946 29.595,32.4946 L20.907,32.4946 C20.652,32.4946 20.446,32.7006 20.446,32.9546 L20.446,34.9766 Z M23.044,29.5496 L27.463,29.5496 C27.552,23.6606 29.887,18.1366 34.062,13.9596 C36.392,11.6296 39.204,9.8396 42.275,8.7186 C41.818,7.9926 41.274,7.3126 40.646,6.6836 C40.164,6.1986 39.851,5.6046 39.722,4.9676 C36.493,6.3026 33.526,8.2746 30.974,10.8186 C25.942,15.8376 23.134,22.4776 23.044,29.5496 L23.044,29.5496 Z M42.733,4.6036 C44.016,5.8906 45.026,7.3586 45.737,8.9726 C45.743,8.9866 45.75,9.0026 45.757,9.0186 L45.771,9.0506 C46.096,9.8026 46.86,10.2526 47.676,10.1676 C48.444,10.0886 49.225,10.0496 50,10.0496 C50.775,10.0496 51.556,10.0886 52.324,10.1676 C53.14,10.2526 53.905,9.8026 54.23,9.0506 L54.243,9.0186 C54.249,9.0026 54.256,8.9866 54.263,8.9726 C54.974,7.3586 55.985,5.8906 57.267,4.6036 C57.422,4.4476 57.405,4.2716 57.381,4.1796 C57.353,4.0746 57.28,3.9386 57.092,3.8866 C54.779,3.2546 52.389,2.9396 50,2.94059763 C47.611,2.9396 45.221,3.2546 42.908,3.8866 C42.721,3.9386 42.648,4.0746 42.619,4.1796 C42.595,4.2716 42.577,4.4476 42.733,4.6036 L42.733,4.6036 Z M69.592,29.6466 C69.528,24.5086 67.496,19.6866 63.855,16.0426 C61.716,13.9026 59.11,12.2876 56.266,11.3276 C55.365,12.4536 53.996,13.1236 52.524,13.1236 C52.358,13.1236 52.192,13.1146 52.024,13.0976 C51.356,13.0286 50.678,12.9946 50,12.9946 C49.323,12.9946 48.645,13.0286 47.977,13.0976 C47.809,13.1146 47.642,13.1236 47.477,13.1236 C46.004,13.1236 44.635,12.4536 43.734,11.3276 C40.89,12.2876 38.284,13.9026 36.145,16.0426 C32.503,19.6866 30.472,24.5086 30.408,29.6466 C31.193,29.8396 31.871,30.3056 32.337,30.9376 L34.97,30.9376 C35.713,23.2996 42.17,17.3096 49.999,17.3096 L50,17.3096 C57.83,17.3096 64.287,23.2996 65.03,30.9376 L67.662,30.9376 C68.129,30.3056 68.808,29.8396 69.592,29.6466 L69.592,29.6466 Z M66.999,34.4106 L66.999,33.8826 L63.387,33.8826 L63.387,34.4076 L63.387,34.9766 L63.387,39.9566 L66.999,39.9566 L66.999,38.8526 C66.999,38.1356 67.222,37.4696 67.603,36.9196 C67.222,36.3706 66.999,35.7046 66.999,34.9866 L66.999,34.9766 L66.999,34.4106 Z M30.406,84.8476 L69.595,84.8476 L69.595,44.1926 C68.809,44.0006 68.129,43.5346 67.663,42.9016 L60.147,42.9016 L60.147,51.2626 L60.816,51.2626 C62.71,51.2626 64.252,52.8036 64.252,54.6976 L64.252,59.4446 C64.253,59.4766 64.253,59.5086 64.252,59.5406 L64.252,61.5756 C64.253,61.6076 64.253,61.6406 64.252,61.6726 L64.252,69.2236 C64.252,72.2206 63.323,75.0066 61.735,77.3036 C61.685,77.3936 61.625,77.4786 61.555,77.5576 C58.964,81.1406 54.75,83.4766 50,83.4766 C45.25,83.4766 41.036,81.1406 38.445,77.5576 C38.375,77.4786 38.316,77.3936 38.266,77.3036 C36.679,75.0066 35.748,72.2206 35.748,69.2236 L35.748,61.6726 C35.746,61.6406 35.746,61.6076 35.748,61.5756 L35.748,59.5406 C35.746,59.5086 35.746,59.4766 35.748,59.4446 L35.748,54.6976 C35.748,52.8036 37.289,51.2626 39.184,51.2626 L39.854,51.2626 L39.854,42.9016 L32.337,42.9016 C31.871,43.5346 31.192,44.0006 30.406,44.1926 L30.406,84.8476 Z M39.559,34.3896 L39.559,34.9766 L39.559,39.9566 L48.528,39.9566 L48.528,34.9766 L48.527,34.9766 L48.527,33.8826 L39.559,33.8826 L39.559,34.3896 Z M62.067,30.9376 C61.337,24.9266 56.204,20.2546 50,20.2536 C43.796,20.2546 38.662,24.9266 37.934,30.9376 L39.262,30.9376 C39.983,25.6556 44.524,21.5726 50,21.5726 C55.477,21.5726 60.018,25.6556 60.738,30.9376 L62.067,30.9376 Z M61.306,54.6976 C61.306,54.4286 61.086,54.2076 60.816,54.2076 L59.7,54.2076 L61.306,56.6716 L61.306,54.6976 Z M60.361,73.7516 C60.969,72.3636 61.307,70.8326 61.307,69.2236 L61.307,64.4466 L57.799,69.8246 L60.361,73.7516 Z M51.759,79.0906 L52.514,80.2486 C54.946,79.6936 57.083,78.3536 58.641,76.5086 L56.041,72.5216 L51.759,79.0906 Z M50,76.3946 L54.283,69.8246 L50,63.2566 L45.717,69.8246 L50,76.3946 Z M41.359,76.5086 C42.917,78.3536 45.053,79.6936 47.487,80.2486 L48.242,79.0906 L43.958,72.5216 L41.359,76.5086 Z M38.693,64.4456 L38.693,69.2236 C38.693,70.8326 39.032,72.3636 39.64,73.7516 L42.2,69.8246 L38.693,64.4456 Z M40.3,54.2076 L39.184,54.2076 C38.914,54.2076 38.693,54.4286 38.693,54.6976 L38.693,56.6716 L40.3,54.2076 Z M39.675,60.5586 L43.958,67.1286 L48.242,60.5596 L44.101,54.2076 L43.817,54.2076 L39.675,60.5586 Z M52.383,54.2076 L47.617,54.2076 L50,57.8626 L52.383,54.2076 Z M51.759,60.5596 L56.041,67.1276 L60.325,60.5586 L56.183,54.2076 L55.9,54.2076 L51.759,60.5596 Z M47.51,44.2906 L52.491,44.2906 C52.525,44.2906 52.553,44.2636 52.553,44.2286 L52.553,42.9016 L47.448,42.9016 L47.448,44.2286 C47.448,44.2626 47.475,44.2906 47.51,44.2906 L47.51,44.2906 Z M49.999,25.8356 L50,25.8356 C53.119,25.8356 55.738,28.0196 56.408,30.9376 L57.754,30.9376 C57.063,27.2866 53.849,24.5176 50,24.5176 L49.999,24.5176 C46.151,24.5176 42.938,27.2866 42.245,30.9376 L43.592,30.9376 C44.263,28.0196 46.88,25.8356 49.999,25.8356 L49.999,25.8356 Z M46.684,30.9376 L50,30.9376 L53.317,30.9376 C52.75,29.6676 51.477,28.7806 50,28.7806 L49.999,28.7806 C48.523,28.7806 47.249,29.6676 46.684,30.9376 L46.684,30.9376 Z M44.501,44.2286 L44.501,42.9016 L42.799,42.9016 L42.799,51.2626 L42.995,51.2626 C43.01,51.2616 43.026,51.2616 43.04,51.2626 L56.958,51.2626 C56.974,51.2616 56.99,51.2616 57.006,51.2626 L57.2,51.2626 L57.2,42.9016 L55.498,42.9016 L55.498,44.2286 C55.498,45.8876 54.149,47.2356 52.49,47.2356 L47.509,47.2356 C45.851,47.2356 44.501,45.8876 44.501,44.2286 L44.501,44.2286 Z M60.441,34.4056 L60.441,33.8826 L51.473,33.8826 L51.473,34.3986 L51.473,34.9766 L51.473,39.9566 L60.441,39.9566 L60.441,34.9766 L60.441,34.4056 Z M33.001,34.9766 L33.001,34.9866 C33.001,35.7046 32.778,36.3706 32.398,36.9196 C32.778,37.4696 33.001,38.1356 33.001,38.8526 L33.001,39.9566 L36.615,39.9566 L36.615,34.9766 L36.614,34.9766 L36.614,33.8826 L33.001,33.8826 L33.001,34.9766 Z M57.725,8.7186 C60.796,9.8396 63.609,11.6296 65.938,13.9596 C70.113,18.1366 72.448,23.6606 72.536,29.5496 L76.956,29.5496 C76.866,22.4776 74.059,15.8376 69.027,10.8186 C66.474,8.2746 63.506,6.3026 60.279,4.9676 C60.15,5.6046 59.835,6.1986 59.354,6.6836 C58.726,7.3126 58.183,7.9926 57.725,8.7186 L57.725,8.7186 Z M82.5,32.9546 L82.499,32.9546 L82.499,34.4236 L82.499,34.9766 L82.499,34.9866 C82.499,35.7046 82.277,36.3706 81.897,36.9206 C82.277,37.4696 82.499,38.1356 82.499,38.8526 L82.499,40.8856 C82.499,42.4836 81.392,43.8296 79.904,44.1926 L79.904,83.3756 C79.904,85.6626 78.156,87.5506 75.926,87.7726 L75.926,96.5636 C75.926,98.4576 74.384,99.9995976 72.49,99.9995976 L68.674,99.9995976 C66.78,99.9995976 65.239,98.4576 65.239,96.5636 L65.239,95.1956 C65.239,94.9256 65.018,94.7046 64.747,94.7046 L35.252,94.7046 C34.982,94.7046 34.762,94.9256 34.762,95.1956 L34.762,96.5636 C34.762,98.4576 33.22,99.9995976 31.325,99.9995976 L27.511,99.9995976 C25.616,99.9995976 24.075,98.4576 24.075,96.5636 L24.075,87.7726 C21.844,87.5506 20.096,85.6626 20.096,83.3756 L20.096,44.1926 C18.608,43.8296 17.5,42.4836 17.5,40.8856 L17.5,38.8526 C17.5,38.1356 17.722,37.4696 18.103,36.9206 C17.722,36.3706 17.5,35.7046 17.5,34.9866 L17.5,34.3716 L17.501,34.3716 L17.501,32.9546 L17.5,32.9546 C17.5,31.3556 18.609,30.0106 20.098,29.6466 C20.162,21.7486 23.281,14.3306 28.893,8.7336 C34.789,2.8546 42.438,-0.0034 50,-0.000402359292 C57.563,-0.0034 65.211,2.8546 71.107,8.7336 C76.72,14.3306 79.837,21.7486 79.903,29.6466 C81.392,30.0106 82.5,31.3556 82.5,32.9546 L82.5,32.9546 Z M53.404,51.0196 C54.217,51.0196 54.877,50.3596 54.877,49.5466 L54.877,49.3506 C54.877,48.5366 54.217,47.8776 53.404,47.8776 C52.59,47.8776 51.931,48.5366 51.931,49.3506 L51.931,49.5466 C51.931,50.3596 52.59,51.0196 53.404,51.0196 L53.404,51.0196 Z M45.123,49.5466 L45.123,49.3506 C45.123,48.5366 45.783,47.8776 46.596,47.8776 C47.409,47.8776 48.069,48.5366 48.069,49.3506 L48.069,49.5466 C48.069,50.3596 47.409,51.0196 46.596,51.0196 C45.783,51.0196 45.123,50.3596 45.123,49.5466 L45.123,49.5466 Z"
              id="icon_jukebox" fill="#3A4B60"></path>
    </g>
</svg>