<?xml version="1.0" encoding="UTF-8"?>
<svg width="100px" height="100px" viewBox="0 0 100 100" version="1.1" xmlns="http://www.w3.org/2000/svg">
    <title>icon / furniture / keyboard-stand</title>
    <g id="icon-/-furniture-/-keyboard-stand" stroke="none" stroke-width="1" fill="none" fill-rule="evenodd">
        <path d="M66.6261,89.182 C66.6261,88.08 67.5221,87.184 68.6241,87.184 L92.9911,87.184 C94.0931,87.184 94.9891,88.08 94.9891,89.182 L94.9891,91.714 C94.9891,92.818 94.0931,93.714 92.9911,93.714 L68.6241,93.714 C67.5221,93.714 66.6261,92.818 66.6261,91.714 L66.6261,89.182 Z M52.6591,61.74 L59.8201,53.707 L86.2801,83.398 L71.9581,83.398 L52.6591,61.74 Z M28.1281,83.398 L13.8031,83.398 L73.4661,16.602 L87.7911,16.602 L28.1281,83.398 Z M33.4601,89.182 L33.4601,91.714 C33.4601,92.818 32.5631,93.714 31.4621,93.714 L7.0951,93.714 C5.9921,93.714 5.0961,92.818 5.0961,91.714 L5.0961,89.182 C5.0961,88.08 5.9921,87.184 7.0951,87.184 L31.4621,87.184 C32.5631,87.184 33.4601,88.08 33.4601,89.182 L33.4601,89.182 Z M12.4951,16.639 L26.8161,16.639 L47.5881,39.991 L40.4261,48.022 L12.4951,16.639 Z M5.7821,12.854 C4.6811,12.854 3.7841,11.957 3.7841,10.855 L3.7841,8.323 C3.7841,7.22 4.6811,6.324 5.7821,6.324 L30.1491,6.324 C31.2521,6.324 32.1481,7.22 32.1481,8.323 L32.1481,10.855 C32.1481,11.957 31.2521,12.854 30.1491,12.854 L5.7821,12.854 Z M68.1331,10.818 L68.1331,8.286 C68.1331,7.182 69.0291,6.286 70.1311,6.286 L94.2171,6.286 C95.3191,6.286 96.2161,7.182 96.2161,8.286 L96.2161,10.818 C96.2161,11.919 95.3191,12.816 94.2171,12.816 L70.1311,12.816 C69.0291,12.816 68.1331,11.919 68.1331,10.818 L68.1331,10.818 Z M68.6241,97.5 L92.9911,97.5 C96.1801,97.5 98.7731,94.905 98.7731,91.714 L98.7731,89.182 C98.7731,85.993 96.1801,83.398 92.9911,83.398 L91.3531,83.398 L62.3561,50.864 L92.8591,16.602 L94.2171,16.602 C97.4051,16.602 100.0001,14.007 100.0001,10.818 L100.0001,8.286 C100.0001,5.095 97.4051,2.5 94.2171,2.5 L70.1311,2.5 C66.9421,2.5 64.3491,5.095 64.3491,8.286 L64.3491,10.818 C64.3491,13.045 65.6011,15.037 67.6171,16.018 L68.5221,16.458 L50.1231,37.147 L31.7601,16.495 L32.6641,16.055 C34.6811,15.075 35.9331,13.082 35.9331,10.855 L35.9331,8.323 C35.9331,5.132 33.3381,2.538 30.1491,2.538 L5.7821,2.538 C2.5941,2.538 0.0001,5.132 0.0001,8.323 L0.0001,10.855 C0.0001,14.044 2.5941,16.64 5.7821,16.64 L7.4211,16.64 L7.6481,16.895 L37.8921,50.866 L8.7321,83.398 L7.0951,83.398 C3.9061,83.398 1.3121,85.993 1.3121,89.182 L1.3121,91.714 C1.3121,94.905 3.9061,97.5 7.0951,97.5 L31.4621,97.5 C34.6501,97.5 37.2451,94.905 37.2451,91.714 L37.2451,89.182 C37.2451,86.954 35.9921,84.962 33.9761,83.982 L33.0651,83.539 L50.1271,64.585 L67.0151,83.542 L66.1091,83.982 C64.0931,84.962 62.8411,86.954 62.8411,89.182 L62.8411,91.714 C62.8411,94.905 65.4361,97.5 68.6241,97.5 L68.6241,97.5 Z"
              id="icon_keyboard-stand" fill="#3A4B60"></path>
    </g>
</svg>