<?xml version="1.0" encoding="UTF-8"?>
<svg width="100px" height="100px" viewBox="0 0 100 100" version="1.1" xmlns="http://www.w3.org/2000/svg" xmlns:xlink="http://www.w3.org/1999/xlink">
    <title>icon / furniture / keyboard_piano</title>
    <g id="icon-/-furniture-/-keyboard_piano" stroke="none" stroke-width="1" fill="none" fill-rule="evenodd">
        <path d="M97.0701,33.4392 C97.0701,37.8602 93.4731,41.4562 89.0531,41.4562 L10.9461,41.4562 C6.5261,41.4562 2.9291,37.8602 2.9291,33.4392 L2.9291,22.9832 C2.9291,21.9302 3.7861,21.0752 4.8391,21.0752 L9.2081,21.0752 L9.2081,30.2672 C9.2081,31.0772 9.8631,31.7322 10.6731,31.7322 L89.3271,31.7322 C90.1361,31.7322 90.7921,31.0772 90.7921,30.2672 L90.7921,21.0752 L95.1621,21.0752 C96.2141,21.0752 97.0701,21.9312 97.0701,22.9832 L97.0701,33.4392 Z M37.5141,76.3772 L30.7341,76.3772 L59.3051,44.3852 L66.0861,44.3852 L37.5141,76.3772 Z M69.2411,76.3772 L62.4611,76.3772 L51.9631,64.6192 L55.3531,60.8182 L69.2411,76.3772 Z M73.8831,79.3072 C74.2591,79.3072 74.5661,79.6142 74.5661,79.9902 L74.5661,81.3872 C74.5661,81.7642 74.2601,82.0702 73.8831,82.0702 L60.4321,82.0702 C60.0551,82.0702 59.7501,81.7642 59.7501,81.3872 L59.7501,79.9902 C59.7501,79.6142 60.0551,79.3072 60.4321,79.3072 L73.8831,79.3072 Z M40.2261,81.3872 C40.2261,81.7642 39.9201,82.0702 39.5441,82.0702 L26.0911,82.0702 C25.7161,82.0702 25.4091,81.7642 25.4091,81.3872 L25.4091,79.9902 C25.4091,79.6142 25.7161,79.3072 26.0911,79.3072 L39.5441,79.3072 C39.9201,79.3072 40.2261,79.6142 40.2261,79.9902 L40.2261,81.3872 Z M44.6211,44.3852 L55.3801,44.3852 L50.0001,50.4162 L44.6211,44.3852 Z M33.9151,44.3852 L40.6951,44.3852 L48.0371,52.6172 L44.6471,56.4172 L33.9151,44.3852 Z M12.1371,28.8032 L20.4451,28.8032 L20.4451,21.0752 L12.1371,21.0752 L12.1371,28.8032 Z M23.3751,28.8032 L31.6801,28.8032 L31.6801,21.0752 L23.3751,21.0752 L23.3751,28.8032 Z M34.6091,28.8032 L42.9171,28.8032 L42.9171,21.0752 L34.6091,21.0752 L34.6091,28.8032 Z M45.8461,28.8032 L54.1541,28.8032 L54.1541,21.0752 L45.8461,21.0752 L45.8461,28.8032 Z M57.0841,28.8032 L65.3911,28.8032 L65.3911,21.0752 L57.0841,21.0752 L57.0841,28.8032 Z M68.3201,28.8032 L76.6261,28.8032 L76.6261,21.0752 L68.3201,21.0752 L68.3201,28.8032 Z M79.5551,28.8032 L87.8621,28.8032 L87.8621,21.0752 L79.5551,21.0752 L79.5551,28.8032 Z M95.1621,18.1452 L81.8071,18.1452 L81.8071,17.0532 C81.8071,15.9192 80.8881,15.0002 79.7551,15.0002 L76.4151,15.0002 C75.2811,15.0002 74.3611,15.9182 74.3611,17.0532 L74.3611,18.1452 L70.5731,18.1452 L70.5731,17.0532 C70.5731,15.9192 69.6531,15.0002 68.5191,15.0002 L65.1791,15.0002 C64.0461,15.0002 63.1271,15.9182 63.1271,17.0532 L63.1271,18.1452 L59.3381,18.1452 L59.3381,17.0532 C59.3381,15.9192 58.4191,15.0002 57.2851,15.0002 L53.9451,15.0002 C52.8111,15.0002 51.8911,15.9182 51.8911,17.0532 L51.8911,18.1452 L36.8681,18.1452 L36.8681,17.0532 C36.8681,15.9192 35.9481,15.0002 34.8141,15.0002 L31.4741,15.0002 C30.3411,15.0002 29.4221,15.9182 29.4221,17.0532 L29.4221,18.1452 L25.6321,18.1452 L25.6321,17.0532 C25.6321,15.9192 24.7141,15.0002 23.5801,15.0002 L20.2401,15.0002 C19.1061,15.0002 18.1861,15.9182 18.1861,17.0532 L18.1861,18.1452 L4.8391,18.1452 C2.1711,18.1452 0.0001,20.3152 0.0001,22.9832 L0.0001,33.4392 C0.0001,39.4752 4.9111,44.3852 10.9461,44.3852 L29.9881,44.3852 L42.6831,58.6172 L26.8081,76.3772 L26.0911,76.3772 C24.1001,76.3772 22.4791,77.9992 22.4791,79.9902 L22.4791,81.3872 C22.4791,83.3792 24.1001,85.0002 26.0911,85.0002 L39.5441,85.0002 C41.5361,85.0002 43.1561,83.3792 43.1561,81.3872 L43.1561,79.9902 C43.1561,78.5622 42.3211,77.3292 41.1151,76.7432 L50.0001,66.8192 L58.8601,76.7432 C57.6551,77.3292 56.8201,78.5622 56.8201,79.9902 L56.8201,81.3872 C56.8201,83.3792 58.4401,85.0002 60.4321,85.0002 L73.8831,85.0002 C75.8761,85.0002 77.4961,83.3792 77.4961,81.3872 L77.4961,79.9902 C77.4961,77.9992 75.8761,76.3772 73.8831,76.3772 L73.1671,76.3772 L57.3161,58.6172 L70.0111,44.3852 L89.0531,44.3852 C95.0901,44.3852 100.0001,39.4752 100.0001,33.4392 L100.0001,22.9832 C100.0001,20.3152 97.8301,18.1452 95.1621,18.1452 L95.1621,18.1452 Z" id="icon_keyboard-piano" fill="#3A4B60"></path>
    </g>
</svg>