<?xml version="1.0" encoding="UTF-8"?>
<svg width="100px" height="100px" viewBox="0 0 100 100" version="1.1" xmlns="http://www.w3.org/2000/svg" xmlns:xlink="http://www.w3.org/1999/xlink">
    <title>icon / furniture / kids-chair</title>
    <g id="icon-/-furniture-/-kids-chair" stroke="none" stroke-width="1" fill="none" fill-rule="evenodd">
        <path d="M44.0213,15.8959 C42.9353,15.8959 42.0513,15.0129 42.0513,13.9269 C42.0513,12.8409 42.9353,11.9579 44.0213,11.9579 L55.9793,11.9579 C57.0653,11.9579 57.9483,12.8409 57.9483,13.9269 C57.9483,15.0129 57.0653,15.8959 55.9793,15.8959 L44.0213,15.8959 Z M76.0613,65.9679 L23.9383,65.9679 L23.9383,61.9579 C23.9383,59.7469 25.7373,57.9479 27.9483,57.9479 L72.0513,57.9479 C74.2633,57.9479 76.0613,59.7469 76.0613,61.9579 L76.0613,65.9679 Z M76.0613,96.0619 L70.8463,96.0619 L68.2473,69.9059 L76.0613,69.9059 L76.0613,96.0619 Z M34.2993,84.1039 L35.7093,69.9059 L64.2893,69.9059 L65.7003,84.1039 L34.2993,84.1039 Z M29.1543,96.0619 L23.9383,96.0619 L23.9383,69.9059 L31.7523,69.9059 L29.1543,96.0619 Z M34.0313,54.0099 L65.9673,54.0099 L65.9673,45.9889 L34.0313,45.9889 L34.0313,54.0099 Z M28.0533,38.0419 L28.0533,7.9479 C28.0533,5.7369 29.8523,3.9379 32.0633,3.9379 L67.9363,3.9379 C70.1483,3.9379 71.9473,5.7369 71.9473,7.9479 L71.9473,38.0419 C71.9473,40.2529 70.1483,42.0519 67.9363,42.0519 L32.0633,42.0519 C29.8523,42.0519 28.0533,40.2529 28.0533,38.0419 L28.0533,38.0419 Z M72.0513,54.0099 L69.9063,54.0099 L69.9063,45.7759 L70.5853,45.5349 C73.7553,44.4109 75.8843,41.3989 75.8843,38.0419 L75.8843,7.9479 C75.8843,3.5659 72.3193,-0.0001 67.9363,-0.0001 L32.0633,-0.0001 C27.6803,-0.0001 24.1153,3.5659 24.1153,7.9479 L24.1153,38.0419 C24.1153,41.3989 26.2453,44.4109 29.4153,45.5349 L30.0933,45.7759 L30.0933,54.0099 L27.9483,54.0099 C23.5653,54.0099 20.0003,57.5759 20.0003,61.9579 L20.0003,98.0309 C20.0003,99.1169 20.8833,100.0009 21.9683,100.0009 L30.9373,100.0009 C31.9543,100.0009 32.7963,99.2379 32.8973,98.2259 L33.9083,88.0419 L66.0903,88.0419 L67.1033,98.2259 C67.2043,99.2379 68.0453,100.0009 69.0623,100.0009 L78.0313,100.0009 C79.1173,100.0009 80.0003,99.1169 80.0003,98.0309 L80.0003,61.9579 C80.0003,57.5759 76.4343,54.0099 72.0513,54.0099 L72.0513,54.0099 Z" id="icon_kids-chair" fill="#3A4B60"></path>
    </g>
</svg>