<?xml version="1.0" encoding="UTF-8"?>
<svg width="100px" height="100px" viewBox="0 0 100 100" version="1.1" xmlns="http://www.w3.org/2000/svg">
    <title>icon / furniture / kids-bookcase</title>
    <g id="icon-/-furniture-/-kids-bookcase" stroke="none" stroke-width="1" fill="none" fill-rule="evenodd">
        <path d="M21.9196,15.4854 C21.9196,14.5534 22.6776,13.7964 23.6086,13.7964 L76.3916,13.7964 C77.3216,13.7964 78.0806,14.5534 78.0806,15.4854 L78.0806,39.4384 C78.0806,40.3694 77.3216,41.1274 76.3916,41.1274 L62.3276,41.1274 C62.3126,41.0894 62.3046,41.0504 62.2856,41.0134 L53.3856,22.9714 C52.9096,22.0074 51.7426,21.6114 50.7786,22.0874 L47.3096,23.7984 L47.3096,22.5814 L40.4646,22.5814 C39.3906,22.5814 38.5186,23.4524 38.5186,24.5274 L38.5186,25.2664 L35.7806,25.2664 L35.7806,22.2894 C35.7806,21.2144 34.9096,20.3424 33.8356,20.3424 L28.9366,20.3424 C27.8616,20.3424 26.9906,21.2144 26.9906,22.2894 L26.9906,41.1274 L23.6086,41.1274 C22.6776,41.1274 21.9196,40.3694 21.9196,39.4384 L21.9196,15.4854 Z M32.8106,25.2664 L32.8106,41.1274 L29.9626,41.1274 L29.9626,23.3144 L32.8106,23.3144 L32.8106,25.2664 Z M35.7816,41.1274 L38.5186,41.1274 L38.5186,28.2384 L35.7816,28.2384 L35.7816,41.1274 Z M41.6006,41.1274 L44.3376,41.1274 L44.3376,25.5524 L41.6006,25.5524 L41.6006,41.1274 Z M52.5396,41.1274 L47.3096,41.1274 L47.3096,30.5244 L52.5396,41.1274 Z M55.8536,41.1274 L48.6206,26.4654 L51.1736,25.2054 L59.0276,41.1274 L55.8536,41.1274 Z M23.6086,44.0984 L76.3916,44.0984 C78.9606,44.0984 81.0516,42.0074 81.0516,39.4384 L81.0516,15.4854 C81.0516,12.9154 78.9606,10.8244 76.3916,10.8244 L23.6086,10.8244 C21.0386,10.8244 18.9486,12.9154 18.9486,15.4854 L18.9486,39.4384 C18.9486,42.0074 21.0396,44.0984 23.6086,44.0984 L23.6086,44.0984 Z M78.0806,78.5584 C78.0806,79.4904 77.3216,80.2484 76.3916,80.2484 L73.9686,80.2484 L73.9686,63.8354 C73.9686,62.7604 73.0976,61.8894 72.0226,61.8894 L65.1776,61.8894 L65.1776,63.1074 L61.7076,61.3954 C60.7436,60.9194 59.5766,61.3154 59.1016,62.2794 L50.2366,80.2484 L44.2896,80.2484 L44.2896,77.9394 C44.2896,76.1504 42.8396,74.7004 41.0506,74.7004 L27.2446,74.7004 C25.4556,74.7004 24.0056,76.1504 24.0056,77.9394 L24.0056,80.2484 L23.6086,80.2484 C22.6776,80.2484 21.9196,79.4904 21.9196,78.5594 L21.9196,54.6064 C21.9196,53.6744 22.6776,52.9174 23.6086,52.9174 L76.3916,52.9174 C77.3216,52.9174 78.0806,53.6744 78.0806,54.6064 L78.0806,78.5584 Z M56.7266,80.2484 L53.5506,80.2484 L61.3136,64.5134 L63.8666,65.7734 L56.7266,80.2484 Z M65.1776,80.2484 L60.0396,80.2484 L65.1776,69.8324 L65.1776,80.2484 Z M68.1496,80.2484 L70.8866,80.2484 L70.8866,64.8614 L68.1496,64.8614 L68.1496,80.2484 Z M41.3046,80.2484 L26.9906,80.2484 L26.9906,78.6074 C26.9906,78.0984 27.4036,77.6854 27.9116,77.6854 L40.3826,77.6854 C40.8926,77.6854 41.3046,78.0984 41.3046,78.6074 L41.3046,80.2484 Z M76.3916,49.9454 L23.6086,49.9454 C21.0386,49.9454 18.9486,52.0364 18.9486,54.6064 L18.9486,78.5594 C18.9486,81.1294 21.0386,83.2194 23.6086,83.2194 L76.3916,83.2194 C78.9606,83.2194 81.0516,81.1294 81.0516,78.5594 L81.0516,54.6064 C81.0516,52.0364 78.9606,49.9454 76.3916,49.9454 L76.3916,49.9454 Z M87.0286,86.3404 C87.0286,88.1764 85.5356,89.6704 83.6996,89.6704 L16.3006,89.6704 C14.4646,89.6704 12.9716,88.1764 12.9716,86.3404 L12.9716,6.3004 C12.9716,4.4644 14.4646,2.9714 16.3006,2.9714 L83.6996,2.9714 C85.5356,2.9714 87.0286,4.4644 87.0286,6.3004 L87.0286,86.3404 Z M82.2146,95.7524 C82.2146,96.4564 81.6416,97.0284 80.9376,97.0284 L72.0386,97.0284 C71.3346,97.0284 70.7616,96.4564 70.7616,95.7524 L70.7616,92.6414 L82.2146,92.6414 L82.2146,95.7524 Z M29.2376,95.7524 C29.2376,96.4564 28.6656,97.0284 27.9616,97.0284 L19.0636,97.0284 C18.3586,97.0284 17.7856,96.4564 17.7856,95.7524 L17.7856,92.6414 L29.2376,92.6414 L29.2376,95.7524 Z M83.6996,0.0004 L16.3006,0.0004 C12.8256,0.0004 9.9996,2.8264 9.9996,6.3004 L9.9996,86.3404 C9.9996,89.3034 12.0556,91.7934 14.8156,92.4634 L14.8156,95.7524 C14.8156,98.0944 16.7206,100.0004 19.0636,100.0004 L27.9616,100.0004 C30.3046,100.0004 32.2096,98.0944 32.2096,95.7524 L32.2096,92.6414 L67.7906,92.6414 L67.7906,95.7524 C67.7906,98.0944 69.6966,100.0004 72.0386,100.0004 L80.9376,100.0004 C83.2796,100.0004 85.1856,98.0944 85.1856,95.7524 L85.1856,92.4634 C87.9446,91.7934 89.9996,89.3034 89.9996,86.3404 L89.9996,6.3004 C89.9996,2.8264 87.1736,0.0004 83.6996,0.0004 L83.6996,0.0004 Z"
              id="icon_kids-bookcase" fill="#3A4B60"></path>
    </g>
</svg>