<?xml version="1.0" encoding="UTF-8"?>
<svg width="100px" height="100px" viewBox="0 0 100 100" version="1.1" xmlns="http://www.w3.org/2000/svg">
    <title>icon / furniture / kids-table_chairs-set</title>
    <g id="icon-/-furniture-/-kids-table_chairs-set" stroke="none" stroke-width="1" fill="none" fill-rule="evenodd">
        <path d="M56.2358,18.427 C56.2358,19.279 55.5438,19.972 54.6908,19.972 L45.3088,19.972 C44.4578,19.972 43.7638,19.279 43.7638,18.427 C43.7638,17.574 44.4578,16.882 45.3088,16.882 L54.6908,16.882 C55.5438,16.882 56.2358,17.574 56.2358,18.427 L56.2358,18.427 Z M4.3948,42.696 C3.5878,42.696 2.9298,42.038 2.9298,41.231 L2.9298,38.301 C2.9298,37.492 3.5878,36.836 4.3948,36.836 L95.6058,36.836 C96.4138,36.836 97.0708,37.492 97.0708,38.301 L97.0708,41.231 C97.0708,42.038 96.4138,42.696 95.6058,42.696 L4.3948,42.696 Z M93.9048,83.711 L88.1878,83.711 L76.1618,45.625 L81.8788,45.625 L93.9048,83.711 Z M95.7558,89.571 L90.3968,89.571 C90.1818,89.571 89.9958,89.433 89.9308,89.229 L89.1138,86.641 L94.8308,86.641 L95.7558,89.571 Z M37.4718,49.875 L62.5278,49.875 L62.5278,45.625 L37.4718,45.625 L37.4718,49.875 Z M66.7638,52.965 C68.4998,52.965 69.9108,54.376 69.9108,56.112 L69.9108,59.257 L30.0898,59.257 L30.0898,56.112 C30.0898,54.376 31.5018,52.965 33.2358,52.965 L66.7638,52.965 Z M69.9108,82.868 L65.8178,82.868 L63.7788,62.347 L69.9108,62.347 L69.9108,82.868 Z M38.2188,73.487 L39.3268,62.347 L60.6728,62.347 L61.7808,73.487 L38.2188,73.487 Z M34.1818,82.868 L30.0898,82.868 L30.0898,62.347 L36.2208,62.347 L34.1818,82.868 Z M11.8118,83.711 L6.0948,83.711 L18.1228,45.625 L23.8398,45.625 L11.8118,83.711 Z M10.0698,89.229 C10.0058,89.433 9.8178,89.571 9.6038,89.571 L4.2448,89.571 L5.1708,86.641 L10.8868,86.641 L10.0698,89.229 Z M32.7808,13.736 C32.7808,12.001 34.1918,10.589 35.9268,10.589 L64.0728,10.589 C65.8078,10.589 67.2188,12.001 67.2188,13.736 L67.2188,33.906 L32.7808,33.906 L32.7808,13.736 Z M100.0008,41.231 L100.0008,38.301 C100.0008,35.877 98.0288,33.906 95.6058,33.906 L70.3088,33.906 L70.3088,13.736 C70.3088,10.297 67.5118,7.5 64.0728,7.5 L35.9268,7.5 C32.4888,7.5 29.6908,10.297 29.6908,13.736 L29.6908,33.906 L4.3948,33.906 C1.9708,33.906 0.0008,35.877 0.0008,38.301 L0.0008,41.231 C0.0008,43.654 1.9708,45.625 4.3948,45.625 L15.0498,45.625 L1.2508,89.323 C1.0168,90.063 1.1518,90.876 1.6098,91.501 C2.0678,92.126 2.8038,92.5 3.5788,92.5 L9.6038,92.5 C11.1018,92.5 12.4118,91.54 12.8638,90.112 L26.9118,45.625 L34.3818,45.625 L34.3818,49.875 L33.2358,49.875 C29.7978,49.875 27.0008,52.673 27.0008,56.112 L27.0008,84.413 C27.0008,85.266 27.6928,85.958 28.5458,85.958 L35.5818,85.958 C36.3798,85.958 37.0408,85.361 37.1188,84.567 L37.9128,76.576 L62.0878,76.576 L62.8818,84.567 C62.9608,85.361 63.6218,85.958 64.4188,85.958 L71.4558,85.958 C72.3068,85.958 73.0008,85.266 73.0008,84.413 L73.0008,56.112 C73.0008,52.673 70.2028,49.875 66.7638,49.875 L65.6178,49.875 L65.6178,45.625 L73.0888,45.625 L85.6678,85.456 C85.6878,85.566 85.7218,85.67 85.7658,85.77 L87.1368,90.112 C87.5888,91.54 88.8978,92.5 90.3968,92.5 L96.4218,92.5 C97.1968,92.5 97.9328,92.126 98.3908,91.501 C98.8488,90.876 98.9828,90.062 98.7498,89.323 L84.9508,45.625 L95.6058,45.625 C98.0288,45.625 100.0008,43.654 100.0008,41.231 L100.0008,41.231 Z"
              id="icon_kids-table_chairs-set" fill="#3A4B60"></path>
    </g>
</svg>