<?xml version="1.0" encoding="UTF-8"?>
<svg width="100px" height="100px" viewBox="0 0 100 100" version="1.1" xmlns="http://www.w3.org/2000/svg">
    <title>icon / furniture / kids-dresser</title>
    <g id="icon-/-furniture-/-kids-dresser" stroke="none" stroke-width="1" fill="none" fill-rule="evenodd">
        <path d="M85.3559,24.6233 C85.3559,24.1513 84.9719,23.7683 84.5019,23.7683 L15.4979,23.7683 C15.0259,23.7683 14.6429,24.1513 14.6429,24.6233 L14.6429,35.0763 C14.6429,35.5483 15.0259,35.9323 15.4979,35.9323 L84.5019,35.9323 C84.9719,35.9323 85.3559,35.5483 85.3559,35.0763 L85.3559,24.6233 Z M88.6929,24.6233 L88.6929,35.0763 C88.6929,37.3883 86.8119,39.2693 84.5019,39.2693 L15.4979,39.2693 C13.1859,39.2693 11.3059,37.3883 11.3059,35.0763 L11.3059,24.6233 C11.3059,22.3113 13.1859,20.4313 15.4979,20.4313 L84.5019,20.4313 C86.8119,20.4313 88.6929,22.3113 88.6929,24.6233 L88.6929,24.6233 Z M52.8359,29.8503 C52.8359,31.4173 51.5659,32.6873 49.9999,32.6873 C48.4319,32.6873 47.1619,31.4173 47.1619,29.8503 C47.1619,28.2823 48.4319,27.0123 49.9999,27.0123 C51.5659,27.0123 52.8359,28.2823 52.8359,29.8503 L52.8359,29.8503 Z M85.3559,47.2673 C85.3559,46.7963 84.9719,46.4123 84.5019,46.4123 L15.4979,46.4123 C15.0269,46.4123 14.6429,46.7963 14.6429,47.2673 L14.6429,57.7213 C14.6429,58.1923 15.0269,58.5763 15.4979,58.5763 L84.5019,58.5763 C84.9719,58.5763 85.3559,58.1923 85.3559,57.7213 L85.3559,47.2673 Z M88.6929,47.2673 L88.6929,57.7213 C88.6929,60.0323 86.8119,61.9133 84.5019,61.9133 L15.4979,61.9133 C13.1869,61.9133 11.3059,60.0323 11.3059,57.7213 L11.3059,47.2673 C11.3059,44.9563 13.1869,43.0753 15.4979,43.0753 L84.5019,43.0753 C86.8119,43.0753 88.6929,44.9563 88.6929,47.2673 L88.6929,47.2673 Z M52.8359,52.4943 C52.8359,54.0603 51.5669,55.3313 49.9999,55.3313 C48.4319,55.3313 47.1619,54.0603 47.1619,52.4943 C47.1619,50.9273 48.4319,49.6563 49.9999,49.6563 C51.5669,49.6563 52.8359,50.9273 52.8359,52.4943 L52.8359,52.4943 Z M49.9999,72.3013 C51.5669,72.3013 52.8369,73.5713 52.8369,75.1393 C52.8369,76.7053 51.5669,77.9763 49.9999,77.9763 C48.4319,77.9763 47.1619,76.7053 47.1619,75.1393 C47.1619,73.5713 48.4319,72.3013 49.9999,72.3013 L49.9999,72.3013 Z M85.3569,80.3653 C85.3569,80.8373 84.9729,81.2213 84.5019,81.2213 L15.4979,81.2213 C15.0269,81.2213 14.6429,80.8373 14.6429,80.3653 L14.6429,69.9113 C14.6429,69.4393 15.0269,69.0563 15.4979,69.0563 L84.5019,69.0563 C84.9729,69.0563 85.3569,69.4393 85.3569,69.9113 L85.3569,80.3653 Z M84.5019,65.7203 L15.4979,65.7203 C13.1869,65.7203 11.3059,67.6003 11.3059,69.9113 L11.3059,80.3653 C11.3059,82.6773 13.1869,84.5573 15.4979,84.5573 L84.5019,84.5573 C86.8129,84.5573 88.6929,82.6773 88.6929,80.3653 L88.6929,69.9113 C88.6929,67.6003 86.8129,65.7203 84.5019,65.7203 L84.5019,65.7203 Z M78.8979,89.3583 L21.1009,89.3583 C18.4779,89.3583 16.3439,91.4923 16.3439,94.1153 L16.3439,95.5883 C16.3439,96.3093 15.7579,96.8943 15.0389,96.8943 L7.7229,96.8943 C7.0019,96.8943 6.4169,96.3093 6.4169,95.5883 L6.4169,16.1493 L93.5829,16.1493 L93.5829,95.5883 C93.5829,96.3093 92.9969,96.8943 92.2769,96.8943 L84.9609,96.8943 C84.2409,96.8943 83.6549,96.3093 83.6549,95.5883 L83.6549,94.1163 C83.6549,91.4923 81.5209,89.3583 78.8979,89.3583 L78.8979,89.3583 Z M3.1049,11.2863 L3.1049,4.8643 C3.1049,3.8943 3.8939,3.1053 4.8639,3.1053 L95.1349,3.1053 C96.1059,3.1053 96.8949,3.8943 96.8949,4.8643 L96.8949,11.2863 C96.8949,12.2563 96.1059,13.0453 95.1349,13.0453 L4.8639,13.0453 C3.8939,13.0453 3.1049,12.2563 3.1049,11.2863 L3.1049,11.2863 Z M84.9609,100.0003 L92.2769,100.0003 C94.7089,100.0003 96.6879,98.0213 96.6879,95.5883 L96.6879,15.8933 L96.8489,15.8323 C98.7339,15.1173 100.0009,13.2913 100.0009,11.2863 L100.0009,4.8643 C100.0009,2.1823 97.8169,0.0003 95.1349,0.0003 L4.8639,0.0003 C2.1819,0.0003 0.0009,2.1823 0.0009,4.8643 L0.0009,11.2863 C0.0009,13.2923 1.2649,15.1183 3.1499,15.8323 L3.3109,15.8933 L3.3109,95.5883 C3.3109,98.0213 5.2909,100.0003 7.7229,100.0003 L15.0389,100.0003 C17.4709,100.0003 19.4499,98.0213 19.4499,95.5883 L19.4499,94.1153 C19.4499,93.2053 20.1899,92.4653 21.0999,92.4653 L78.8979,92.4653 C79.8079,92.4653 80.5489,93.2053 80.5489,94.1153 L80.5489,95.5883 C80.5489,98.0213 82.5279,100.0003 84.9609,100.0003 L84.9609,100.0003 Z"
              id="icon_kids-dresser" fill="#3A4B60"></path>
    </g>
</svg>