<?xml version="1.0" encoding="UTF-8"?>
<svg width="100px" height="100px" viewBox="0 0 100 100" version="1.1" xmlns="http://www.w3.org/2000/svg" xmlns:xlink="http://www.w3.org/1999/xlink">
    <title>icon / furniture / kids-swing-set</title>
    <g id="icon-/-furniture-/-kids-swing-set" stroke="none" stroke-width="1" fill="none" fill-rule="evenodd">
        <path d="M94.0554,77.1212 L86.8634,29.2592 C86.7574,28.5542 86.1524,28.0322 85.4404,28.0322 L80.3664,28.0322 L80.3664,25.1532 L87.9204,25.1532 C88.6264,25.1532 89.2394,25.6812 89.3444,26.3802 L96.9654,77.1212 L94.0554,77.1212 Z M76.5984,71.3632 L59.3244,71.3632 C58.5304,71.3632 57.8854,70.7192 57.8854,69.9242 C57.8854,69.1302 58.5314,68.4842 59.3244,68.4842 L76.5984,68.4842 C77.3924,68.4842 78.0374,69.1292 78.0374,69.9242 C78.0374,70.7182 77.3914,71.3632 76.5984,71.3632 L76.5984,71.3632 Z M57.9234,22.8862 C57.9234,22.6212 58.1394,22.4052 58.4044,22.4052 L60.1994,22.4052 C60.4644,22.4052 60.6794,22.6212 60.6794,22.8862 L60.6794,30.2472 C60.6794,30.5132 60.4644,30.7282 60.1994,30.7282 L58.4044,30.7282 C58.1394,30.7282 57.9234,30.5132 57.9234,30.2472 L57.9234,22.8862 Z M63.0004,30.9112 L72.8824,30.9112 C73.1434,32.0112 74.0274,32.8652 75.1424,33.0792 C75.1374,33.0782 75.1314,33.0782 75.1264,33.0772 L75.1594,65.6052 L60.7634,65.6052 L60.7324,33.0812 C61.8524,32.8712 62.7404,32.0142 63.0004,30.9112 L63.0004,30.9112 Z M63.0844,28.0322 L72.7984,28.0322 L72.7984,25.1532 L63.0844,25.1532 L63.0844,28.0322 Z M75.2034,22.8862 C75.2034,22.6212 75.4194,22.4052 75.6854,22.4052 L77.4804,22.4052 C77.7444,22.4052 77.9604,22.6212 77.9604,22.8862 L77.9604,30.2472 C77.9604,30.5132 77.7444,30.7282 77.4804,30.7282 L75.6854,30.7282 C75.4194,30.7282 75.2034,30.5132 75.2034,30.2472 L75.2034,22.8862 Z M44.4464,28.0322 L55.5184,28.0322 L55.5184,25.1532 L44.4464,25.1532 L44.4464,28.0322 Z M40.6754,71.3632 L23.4024,71.3632 C22.6084,71.3632 21.9624,70.7182 21.9624,69.9242 C21.9624,69.1292 22.6074,68.4842 23.4024,68.4842 L40.6754,68.4842 C41.4694,68.4842 42.1154,69.1302 42.1154,69.9242 C42.1154,70.7192 41.4704,71.3632 40.6754,71.3632 L40.6754,71.3632 Z M22.0034,22.8862 C22.0034,22.6212 22.2194,22.4052 22.4844,22.4052 L24.2794,22.4052 C24.5434,22.4052 24.7594,22.6212 24.7594,22.8862 L24.7594,30.2472 C24.7594,30.5132 24.5434,30.7282 24.2794,30.7282 L22.4844,30.7282 C22.2194,30.7282 22.0034,30.5132 22.0034,30.2472 L22.0034,22.8862 Z M27.0804,30.9112 L36.9624,30.9112 C37.2234,32.0112 38.1074,32.8652 39.2224,33.0792 C39.2164,33.0782 39.2104,33.0782 39.2044,33.0772 L39.2364,65.6052 L24.8414,65.6052 L24.8104,33.0822 C25.9304,32.8722 26.8204,32.0152 27.0804,30.9112 L27.0804,30.9112 Z M27.1644,28.0322 L36.8784,28.0322 L36.8784,25.1532 L27.1644,25.1532 L27.1644,28.0322 Z M39.2844,22.8862 C39.2844,22.6212 39.4994,22.4052 39.7654,22.4052 L41.5604,22.4052 C41.8254,22.4052 42.0404,22.6212 42.0404,22.8862 L42.0404,30.2472 C42.0404,30.5132 41.8254,30.7282 41.5604,30.7282 L39.7654,30.7282 C39.4994,30.7282 39.2844,30.5132 39.2844,30.2472 L39.2844,22.8862 Z M19.5984,28.0322 L14.4924,28.0322 C13.7804,28.0322 13.1744,28.5542 13.0694,29.2592 L5.9444,77.1212 L3.0344,77.1212 L10.5884,26.3802 C10.6944,25.6812 11.3054,25.1532 12.0124,25.1532 L19.5984,25.1532 L19.5984,28.0322 Z M99.9784,77.7962 L92.1914,25.9522 C91.8754,23.8552 90.0394,22.2752 87.9204,22.2752 L80.2984,22.2752 C80.0174,20.9752 78.8644,20.0002 77.4804,20.0002 L75.6854,20.0002 C74.3014,20.0002 73.1474,20.9752 72.8674,22.2752 L63.0174,22.2752 C62.7364,20.9752 61.5824,20.0002 60.1994,20.0002 L58.4044,20.0002 C57.0204,20.0002 55.8674,20.9752 55.5854,22.2752 L44.3784,22.2752 C44.0974,20.9752 42.9444,20.0002 41.5604,20.0002 L39.7654,20.0002 C38.3814,20.0002 37.2274,20.9752 36.9474,22.2752 L27.0974,22.2752 C26.8164,20.9752 25.6624,20.0002 24.2794,20.0002 L22.4844,20.0002 C21.1004,20.0002 19.9474,20.9752 19.6654,22.2752 L12.0124,22.2752 C9.8924,22.2752 8.0564,23.8552 7.7424,25.9522 L0.0214,77.7962 C-0.1526,78.9562 0.7454,80.0002 1.9194,80.0002 L6.7704,80.0002 C7.7204,80.0002 8.5274,79.3052 8.6684,78.3652 L15.7324,30.9112 L19.6824,30.9112 C19.9414,32.0072 20.8194,32.8622 21.9314,33.0782 L21.9624,65.8502 C20.2794,66.4442 19.0174,68.0912 19.0864,70.0802 C19.1684,72.4382 21.2464,74.2422 23.6064,74.2422 L40.4614,74.2422 C42.7794,74.2422 44.8424,72.5102 44.9864,70.1972 C45.1094,68.2042 43.8714,66.4752 42.1154,65.8522 L42.0834,33.0842 C43.2074,32.8772 44.1004,32.0172 44.3624,30.9112 L55.6024,30.9112 C55.8624,32.0112 56.7464,32.8652 57.8614,33.0792 C57.8584,33.0782 57.8564,33.0792 57.8534,33.0782 L57.8844,65.8522 C56.1284,66.4752 54.8914,68.2042 55.0144,70.1972 C55.1584,72.5102 57.2214,74.2422 59.5384,74.2422 L76.3934,74.2422 C78.7534,74.2422 80.8304,72.4382 80.9134,70.0802 C80.9834,68.0912 79.7204,66.4442 78.0374,65.8502 L78.0054,33.0842 C79.1284,32.8762 80.0204,32.0162 80.2824,30.9112 L84.2014,30.9112 L91.3314,78.3652 C91.4724,79.3052 92.2794,80.0002 93.2294,80.0002 L98.0794,80.0002 C99.2534,80.0002 100.1524,78.9562 99.9784,77.7962 L99.9784,77.7962 Z" id="icon_kids-swing-set" fill="#3A4B60"></path>
    </g>
</svg>