<?xml version="1.0" encoding="UTF-8"?>
<svg width="100px" height="100px" viewBox="0 0 100 100" version="1.1" xmlns="http://www.w3.org/2000/svg">
    <title>icon / furniture / kids-rocker</title>
    <g id="icon-/-furniture-/-kids-rocker" stroke="none" stroke-width="1" fill="none" fill-rule="evenodd">
        <path d="M96.9062,84.2239 C96.6902,84.7379 96.2892,85.1359 95.7742,85.3459 C84.8752,89.8079 73.3232,92.0709 61.4412,92.0709 C49.5582,92.0709 38.0072,89.8079 27.1072,85.3459 C26.5932,85.1359 26.1912,84.7379 25.9752,84.2239 C25.7602,83.7109 25.7592,83.1459 25.9692,82.6309 C26.2992,81.8259 27.0782,81.3369 27.8992,81.3369 C28.1612,81.3369 28.4272,81.3879 28.6842,81.4929 C39.0812,85.7479 50.1012,87.9069 61.4412,87.9069 C72.7802,87.9069 83.8012,85.7479 94.1972,81.4929 C94.7122,81.2819 95.2772,81.2849 95.7912,81.4989 C96.3032,81.7139 96.7022,82.1159 96.9122,82.6309 C97.1232,83.1459 97.1212,83.7109 96.9062,84.2239 L96.9062,84.2239 Z M61.4392,69.9489 C69.7462,69.9489 77.1742,75.2109 79.9952,82.9139 C73.9502,84.2849 67.7472,84.9769 61.4412,84.9769 C55.1352,84.9769 48.9312,84.2849 42.8862,82.9149 C45.7072,75.2109 53.1332,69.9489 61.4392,69.9489 L61.4392,69.9489 Z M45.8572,59.1559 C46.0932,59.2469 46.3172,59.3249 46.5492,59.4119 C46.6112,59.4359 46.6612,59.4609 46.7252,59.4849 C53.7972,62.1389 61.4432,63.1369 68.9332,62.0309 C71.7872,61.6089 74.5962,60.9149 77.3322,60.0039 L86.8852,80.9669 C85.5472,81.3989 84.1942,81.7979 82.8402,82.1609 C79.6712,73.1759 71.0682,67.0189 61.4392,67.0189 C51.8102,67.0189 43.2102,73.1759 40.0422,82.1609 C38.6922,81.7989 37.3392,81.3999 35.9962,80.9669 L45.8572,59.1559 Z M31.3492,45.5969 C26.3982,39.6529 19.9792,27.7729 16.1992,19.1129 L16.1302,18.9519 C14.7822,15.8589 13.0582,12.6329 10.4872,12.1589 C9.2362,11.9269 7.7862,12.3629 6.1772,13.4529 C5.2272,14.0959 3.9302,13.8469 3.2862,12.8969 C2.6422,11.9459 2.8912,10.6489 3.8432,10.0049 C6.3872,8.2809 8.8782,7.6269 11.2432,8.0639 C14.4132,8.6489 16.5892,11.1159 18.0412,13.4949 L20.4672,18.4639 C21.6772,21.1679 23.1492,24.1909 24.7402,27.2199 L24.7662,27.2749 C24.7792,27.2999 24.7942,27.3249 24.8072,27.3489 C26.3632,30.3059 28.0282,33.2609 29.6712,35.9259 C29.6952,35.9699 29.7212,36.0129 29.7512,36.0549 C31.4242,38.7589 33.0702,41.1559 34.5492,42.9309 C43.7222,53.9449 58.5662,55.2239 60.2282,55.3339 C71.6772,56.0929 81.1832,50.9509 86.2952,48.1849 C87.2162,47.6869 88.1252,47.1609 89.0372,46.6049 C90.6532,45.6169 92.2262,44.5519 93.7362,43.4189 C94.1802,43.0859 94.7292,42.9469 95.2792,43.0249 C95.8302,43.1039 96.3172,43.3919 96.6502,43.8369 C96.9842,44.2829 97.1252,44.8299 97.0462,45.3809 C96.9672,45.9309 96.6782,46.4179 96.2332,46.7509 C93.7172,48.6379 91.0402,50.3529 88.2762,51.8469 C83.0312,54.6849 77.6282,57.1929 71.7812,58.5159 C64.5082,60.1619 57.1542,59.7159 50.0512,57.5209 C44.6542,55.8449 37.0302,52.4159 31.3492,45.5969 L31.3492,45.5969 Z M26.5872,16.2989 L27.7292,18.5339 C28.7672,20.5639 28.2692,22.9999 26.6642,24.4829 C26.6642,24.4829 21.9652,14.5869 21.4742,13.6279 C23.5142,13.3629 25.6062,14.3809 26.5872,16.2989 L26.5872,16.2989 Z M58.3202,38.0559 C70.4562,36.0449 80.9942,34.3009 86.3982,44.7659 C85.9012,45.0539 85.4012,45.3369 84.8962,45.6109 C80.0492,48.2329 71.0232,53.1159 60.4222,52.4109 C58.8882,52.3099 45.1912,51.1309 36.8002,41.0559 C36.1852,40.3189 35.5392,39.4649 34.8742,38.5249 C42.1142,40.7399 50.3282,39.3799 58.3202,38.0559 L58.3202,38.0559 Z M99.6242,81.5209 C99.1162,80.2819 98.1572,79.3149 96.9232,78.7969 C95.6892,78.2799 94.3262,78.2739 93.0872,78.7819 C91.9602,79.2429 90.8242,79.6769 89.6812,80.0869 L80.0882,59.0079 C84.0662,57.4539 87.3242,55.6939 89.6702,54.4239 C92.5602,52.8619 95.3592,51.0689 97.9902,49.0959 C99.0612,48.2929 99.7562,47.1209 99.9452,45.7959 C100.1352,44.4709 99.7982,43.1509 98.9942,42.0799 C98.1912,41.0089 97.0192,40.3149 95.6942,40.1249 C94.3692,39.9349 93.0502,40.2729 91.9782,41.0769 C90.9792,41.8259 89.9512,42.5409 88.9002,43.2259 C82.5032,31.0829 69.9742,33.1569 57.8422,35.1659 C48.7172,36.6779 39.2882,38.2369 31.9982,34.1289 C30.6622,31.9499 29.3102,29.5719 28.0182,27.1599 C31.0542,24.8929 32.1132,20.6719 30.3382,17.1999 L29.1952,14.9649 C27.4492,11.5519 23.4842,9.9309 19.9082,10.9729 C18.1462,8.3999 15.5582,5.8809 11.7742,5.1829 C8.6252,4.6019 5.4042,5.4089 2.1992,7.5789 C-0.0878,9.1289 -0.6898,12.2509 0.8612,14.5389 C2.4112,16.8279 5.5332,17.4279 7.8212,15.8779 C8.8752,15.1629 9.6162,14.9769 9.9552,15.0389 C10.5882,15.1569 11.7062,16.1329 13.4432,20.1199 L13.5122,20.2819 C17.3772,29.1349 23.9712,41.3179 29.0972,47.4719 C33.3052,52.5229 38.4672,55.8419 43.1562,58.0079 L33.1992,80.0869 C32.0562,79.6769 30.9222,79.2429 29.7952,78.7819 C27.2372,77.7359 24.3042,78.9639 23.2582,81.5209 C22.7512,82.7599 22.7562,84.1219 23.2732,85.3569 C23.7912,86.5909 24.7592,87.5499 25.9972,88.0579 C37.2512,92.6639 49.1762,94.9999 61.4402,94.9999 C73.7052,94.9999 85.6312,92.6639 96.8842,88.0579 C98.1232,87.5509 99.0902,86.5909 99.6072,85.3569 C100.1252,84.1219 100.1312,82.7599 99.6242,81.5209 L99.6242,81.5209 Z"
              id="icon_kids-rocker" fill="#3A4B60"></path>
    </g>
</svg>