<?xml version="1.0" encoding="UTF-8"?>
<svg width="100px" height="100px" viewBox="0 0 100 100" version="1.1" xmlns="http://www.w3.org/2000/svg" xmlns:xlink="http://www.w3.org/1999/xlink">
    <!-- Generator: Sketch 63.1 (92452) - https://sketch.com -->
    <title>icon / furniture / kitchen-island_portable</title>
    <desc>Created with Sketch.</desc>
    <g id="icon-/-furniture-/-kitchen-island_portable" stroke="none" stroke-width="1" fill="none" fill-rule="evenodd">
        <path d="M61.8184,26.2549 C61.8184,25.4179 62.4964,24.7399 63.3334,24.7399 L75.4554,24.7399 C76.2914,24.7399 76.9694,25.4179 76.9694,26.2549 C76.9694,27.0919 76.2914,27.7709 75.4554,27.7709 L63.3334,27.7709 C62.4964,27.7709 61.8184,27.0919 61.8184,26.2549 L61.8184,26.2549 Z M41.8184,36.4239 L41.8184,48.5449 C41.8184,49.3829 41.1394,50.0609 40.3024,50.0609 C39.4654,50.0609 38.7884,49.3829 38.7884,48.5449 L38.7884,36.4239 C38.7884,35.5869 39.4654,34.9089 40.3024,34.9089 C41.1394,34.9089 41.8184,35.5869 41.8184,36.4239 L41.8184,36.4239 Z M76.9694,40.0199 C76.9694,40.8569 76.2914,41.5339 75.4554,41.5339 L63.3334,41.5339 C62.4964,41.5339 61.8184,40.8569 61.8184,40.0199 C61.8184,39.1829 62.4964,38.5039 63.3334,38.5039 L75.4554,38.5039 C76.2914,38.5039 76.9694,39.1829 76.9694,40.0199 L76.9694,40.0199 Z M76.9694,55.3579 C76.9694,56.1939 76.2914,56.8729 75.4554,56.8729 L63.3334,56.8729 C62.4964,56.8729 61.8184,56.1939 61.8184,55.3579 C61.8184,54.5209 62.4964,53.8429 63.3334,53.8429 L75.4554,53.8429 C76.2914,53.8429 76.9694,54.5209 76.9694,55.3579 L76.9694,55.3579 Z M55.1514,32.7509 L83.6364,32.7509 L83.6364,22.1819 L55.1514,22.1819 L55.1514,32.7509 Z M55.1514,47.9679 L83.6364,47.9679 L83.6364,35.7809 L55.1514,35.7809 L55.1514,47.9679 Z M55.1514,62.7879 L83.6364,62.7879 L83.6364,50.9979 L55.1514,50.9979 L55.1514,62.7879 Z M54.8484,65.8179 L83.9394,65.8179 C85.4424,65.8179 86.6674,64.5939 86.6674,63.0909 L86.6674,21.8789 C86.6674,20.3749 85.4424,19.1509 83.9394,19.1509 L54.8484,19.1509 C53.3454,19.1509 52.1214,20.3749 52.1214,21.8789 L52.1214,63.0909 C52.1214,64.5939 53.3454,65.8179 54.8484,65.8179 L54.8484,65.8179 Z M16.3634,62.7879 L44.8484,62.7879 L44.8484,22.1819 L16.3634,22.1819 L16.3634,62.7879 Z M16.0604,65.8179 L45.1514,65.8179 C46.6544,65.8179 47.8794,64.5939 47.8794,63.0909 L47.8794,21.8789 C47.8794,20.3749 46.6544,19.1509 45.1514,19.1509 L16.0604,19.1509 C14.5574,19.1509 13.3334,20.3749 13.3334,21.8789 L13.3334,63.0909 C13.3334,64.5939 14.5574,65.8179 16.0604,65.8179 L16.0604,65.8179 Z M96.9694,11.3629 C96.9694,11.8639 96.5614,12.2729 96.0604,12.2729 L3.9394,12.2729 C3.4384,12.2729 3.0304,11.8639 3.0304,11.3629 L3.0304,8.9399 C3.0304,8.4389 3.4384,8.0299 3.9394,8.0299 L96.0604,8.0299 C96.5614,8.0299 96.9694,8.4389 96.9694,8.9399 L96.9694,11.3629 Z M90.0004,78.3329 L10.0004,78.3329 C9.4994,78.3329 9.0904,77.9249 9.0904,77.4239 L9.0904,72.7349 L90.9094,72.7349 L90.9094,77.4239 C90.9094,77.9249 90.5014,78.3329 90.0004,78.3329 L90.0004,78.3329 Z M79.0904,86.6529 L79.0704,86.6509 L75.5504,81.3629 L79.0904,81.3629 L79.0904,86.6529 Z M78.1084,89.0259 L80.0054,89.3389 C79.8504,89.6919 79.5004,89.9399 79.0904,89.9399 C78.5694,89.9399 78.1544,89.5349 78.1084,89.0259 L78.1084,89.0259 Z M82.1214,88.9399 C82.1214,90.6099 80.7614,91.9699 79.0904,91.9699 C77.4204,91.9699 76.0604,90.6099 76.0604,88.9399 C76.0604,88.3519 76.2364,87.8069 76.5274,87.3419 L77.1924,88.3409 C77.1324,88.5309 77.0904,88.7299 77.0904,88.9399 C77.0904,90.0419 77.9884,90.9399 79.0904,90.9399 C80.0724,90.9399 80.8844,90.2279 81.0524,89.2939 C81.3654,89.1269 81.5904,88.8099 81.5904,88.4219 L81.5904,87.2319 C81.9244,87.7189 82.1214,88.3059 82.1214,88.9399 L82.1214,88.9399 Z M19.7174,86.6509 L19.6974,86.6529 L19.6974,81.3629 L23.2374,81.3629 L19.7174,86.6509 Z M18.7834,89.3389 L20.6794,89.0259 C20.6344,89.5349 20.2184,89.9399 19.6974,89.9399 C19.2884,89.9399 18.9374,89.6919 18.7834,89.3389 L18.7834,89.3389 Z M19.6974,91.9699 C18.0264,91.9699 16.6674,90.6099 16.6674,88.9399 C16.6674,88.3059 16.8634,87.7189 17.1974,87.2319 L17.1974,88.4219 C17.1974,88.8099 17.4224,89.1269 17.7354,89.2939 C17.9044,90.2279 18.7164,90.9399 19.6974,90.9399 C20.7994,90.9399 21.6974,90.0419 21.6974,88.9399 C21.6974,88.7299 21.6564,88.5309 21.5954,88.3409 L22.2604,87.3419 C22.5514,87.8069 22.7274,88.3519 22.7274,88.9399 C22.7274,90.6099 21.3674,91.9699 19.6974,91.9699 L19.6974,91.9699 Z M9.0914,69.7049 L90.9094,69.7049 L90.9094,15.3029 L9.0914,15.3029 L9.0914,69.7049 Z M96.0604,4.9999 L3.9394,4.9999 C1.7674,4.9999 0.0004,6.7679 0.0004,8.9399 L0.0004,11.3629 C0.0004,13.5359 1.7674,15.3029 3.9394,15.3029 L6.0604,15.3029 L6.0604,77.4239 C6.0604,79.5969 7.8284,81.3629 10.0004,81.3629 L17.1974,81.3629 L17.1974,83.4229 C15.0984,84.3759 13.6364,86.4839 13.6364,88.9399 C13.6364,92.2859 16.3494,94.9999 19.6974,94.9999 C23.0444,94.9999 25.7574,92.2859 25.7574,88.9399 C25.7574,87.2869 25.0934,85.7899 24.0214,84.6959 L26.2404,81.3629 L72.5474,81.3629 L74.7664,84.6969 L74.7664,84.6959 C73.6934,85.7899 73.0304,87.2869 73.0304,88.9399 C73.0304,92.2859 75.7444,94.9999 79.0904,94.9999 C82.4384,94.9999 85.1514,92.2859 85.1514,88.9399 C85.1514,86.4839 83.6894,84.3759 81.5904,83.4229 L81.5904,81.3629 L90.0004,81.3629 C92.1724,81.3629 93.9394,79.5969 93.9394,77.4239 L93.9394,15.3029 L96.0604,15.3029 C98.2324,15.3029 100.0004,13.5359 100.0004,11.3629 L100.0004,8.9399 C100.0004,6.7679 98.2324,4.9999 96.0604,4.9999 L96.0604,4.9999 Z" id="icon_kitchen-island_portable" fill="#3A4B60"></path>
    </g>
</svg>