<?xml version="1.0" encoding="UTF-8"?>
<svg width="100px" height="100px" viewBox="0 0 100 100" version="1.1" xmlns="http://www.w3.org/2000/svg" xmlns:xlink="http://www.w3.org/1999/xlink">
    <title>icon / furniture / kitchen-stool</title>
    <g id="icon-/-furniture-/-kitchen-stool" stroke="none" stroke-width="1" fill="none" fill-rule="evenodd">
        <path d="M72.0095,41.3725 L27.9905,41.3725 L27.9905,32.3345 L49.9995,32.3345 L72.0095,32.3345 L72.0095,41.3725 Z M30.6145,48.0675 L69.3855,48.0675 L69.3855,44.3625 L30.6145,44.3625 L30.6145,48.0675 Z M66.8085,96.9075 C66.7625,96.9545 66.6845,97.0095 66.5675,97.0095 C66.4015,97.0095 66.2575,96.8855 66.2345,96.7215 L59.1435,51.0595 L66.0565,51.0595 L66.9055139,96.6665 C66.9065,96.7825 66.8535,96.8615 66.8085,96.9075 L66.8085,96.9075 Z M34.5735,96.7215 C34.5495,96.8855 34.4055,97.0095 34.2385,97.0095 C34.1225,97.0095 34.0445,96.9545 33.9995,96.9075 C33.9535,96.8615 33.9005,96.7825 33.9035,96.6655 L34.7505,51.0595 L41.6635,51.0595 L34.5735,96.7215 Z M36.2565,6.3625 L36.2755,6.3525 C40.5725,4.1115 45.2865,2.9905 49.9995,2.9905 C54.7135,2.9905 59.4275,4.1115 63.7255,6.3525 L63.7425,6.3625 C67.8915,8.5295 70.1405,13.2465 69.2145,17.8325 L66.8915,29.3435 L33.1095,29.3435 L30.7855,17.8325 C29.8605,13.2465 32.1095,8.5295 36.2565,6.3625 L36.2565,6.3625 Z M72.1855,29.3435 L69.9425,29.3435 L72.1465,18.4245 C73.3335,12.5415 70.4485,6.4915 65.1295,3.7125 L65.1115,3.7025 C60.3785,1.2335 55.1895,0.0005 49.9995,0.0005 C44.8105,0.0005 39.6205,1.2335 34.8895,3.7025 L34.8705,3.7125 C29.5515,6.4915 26.6655,12.5415 27.8545,18.4245 L30.0575,29.3435 L27.8155,29.3435 C26.2635,29.3435 24.9995,30.6055 24.9995,32.1585 L24.9995,41.5485 C24.9995,43.0355 26.1605,44.2545 27.6235,44.3535 L27.6235,48.4355 C27.6235,49.8825 28.7995,51.0595 30.2455,51.0595 L31.7585,51.0595 L30.9115,96.6125 C30.8965,97.5125 31.2345,98.3615 31.8655,99.0045 C32.4955,99.6455 33.3395,100.0005 34.2395,100.0005 C35.8765,100.0005 37.2915,98.7785 37.5315,97.1605 L44.6875,51.0595 L56.1195,51.0595 L63.2745,97.1605 C63.5145,98.7785 64.9305,100.0005 66.5675,100.0005 C67.4685,100.0005 68.3105,99.6455 68.9425,99.0045 C69.5725,98.3615 69.9105,97.5125 69.8955,96.6125 L69.0485,51.0595 L69.7535,51.0595 C71.1995,51.0595 72.3765,49.8835 72.3765,48.4355 L72.3765,44.3535 C73.8395,44.2545 74.9995,43.0355 74.9995,41.5495 L74.9995,32.1585 C74.9995,30.6055 73.7385,29.3435 72.1855,29.3435 L72.1855,29.3435 Z" id="icon_kitchen-stool" fill="#3A4B60"></path>
    </g>
</svg>