<?xml version="1.0" encoding="UTF-8"?>
<svg width="100px" height="100px" viewBox="0 0 100 100" version="1.1" xmlns="http://www.w3.org/2000/svg" xmlns:xlink="http://www.w3.org/1999/xlink">
    <title>icon / furniture / ladder</title>
    <g id="icon-/-furniture-/-ladder" stroke="none" stroke-width="1" fill="none" fill-rule="evenodd">
        <path d="M88.866297,95.5066 C88.330297,96.2726 87.527297,96.7826 86.606297,96.9456 C86.402297,96.9816 86.195297,96.9996 85.991297,96.9996 C84.294297,96.9996 82.847297,95.7826 82.553297,94.1116 L71.317297,29.7326 L75.595297,13.5336 L89.445297,92.8916 C89.608297,93.8116 89.402297,94.7406 88.866297,95.5066 L88.866297,95.5066 Z M50.924297,94.2476 C50.527297,95.7266 49.178297,96.7586 47.642297,96.7586 C47.356297,96.7586 47.068297,96.7216 46.773297,96.6436 C45.904297,96.4106 45.176297,95.8496 44.720297,95.0616 C44.266297,94.2746 44.144297,93.3616 44.377297,92.4926 L67.601297,5.7516 C67.998297,4.2746 69.347297,3.2406 70.884297,3.2406 C71.170297,3.2406 71.456297,3.2776 71.735297,3.3526 C71.741297,3.3536 71.747297,3.3556 71.753297,3.3576 C72.622297,3.5896 73.350297,4.1516 73.805297,4.9386 C74.260297,5.7256 74.382297,6.6376 74.149297,7.5066 L50.924297,94.2476 Z M23.398297,76.4916 L23.398297,76.4926 L22.321297,76.4926 C21.428297,76.4926 20.701297,75.7656 20.701297,74.8716 C20.701297,73.9786 21.428297,73.2516 22.321297,73.2516 L25.136297,73.2516 L46.171297,73.2516 L45.303297,76.4916 L23.398297,76.4916 Z M17.405297,94.2476 C17.009297,95.7266 15.659297,96.7586 14.123297,96.7586 C13.837297,96.7586 13.551297,96.7216 13.271297,96.6486 C13.265297,96.6466 13.260297,96.6456 13.254297,96.6436 C12.385297,96.4106 11.656297,95.8496 11.201297,95.0616 C10.747297,94.2746 10.625297,93.3616 10.857297,92.4926 L34.083297,5.7526 C34.479297,4.2746 35.828297,3.2406 37.363297,3.2406 C37.650297,3.2406 37.938297,3.2786 38.233297,3.3566 C39.102297,3.5896 39.831297,4.1516 40.286297,4.9386 C40.740297,5.7256 40.863297,6.6376 40.630297,7.5066 L39.990297,9.8936 L38.420297,9.8936 C34.795297,9.8936 32.407297,13.9066 34.162297,17.0966 C34.835297,18.3206 36.051297,19.2226 37.417297,19.5136 C36.437297,22.7216 35.669297,26.0186 34.800297,29.2626 L34.779297,29.3386 L33.209297,29.3386 C29.736297,29.3386 27.337297,33.0536 28.792297,36.2256 C29.422297,37.5996 30.721297,38.6456 32.201297,38.9576 L29.568297,48.7836 L27.998297,48.7836 C24.108297,48.7836 21.769297,53.3426 24.067297,56.5036 C24.767297,57.4666 25.827297,58.1556 26.991297,58.4026 L23.890297,70.0136 L22.320297,70.0136 C18.430297,70.0136 16.092297,74.5716 18.389297,77.7326 C19.090297,78.6946 20.149297,79.3846 21.313297,79.6326 L17.405297,94.2476 Z M38.136297,29.3376 L40.740297,19.6146 L60.532297,19.6146 L57.928297,29.3376 L38.136297,29.3376 Z M34.286297,35.8186 L33.210297,35.8186 C32.316297,35.8186 31.590297,35.0926 31.590297,34.1986 C31.590297,33.3056 32.316297,32.5786 33.210297,32.5786 L36.023297,32.5786 L57.058297,32.5786 L56.190297,35.8186 L34.286297,35.8186 Z M32.925297,48.7816 L35.529297,39.0606 L55.322297,39.0606 L52.718297,48.7816 L32.925297,48.7816 Z M50.112297,58.5036 L47.040297,70.0106 L27.247297,70.0106 L30.319297,58.5036 L50.112297,58.5036 Z M29.076297,55.2636 L29.076297,55.2636 L27.999297,55.2636 C27.105297,55.2636 26.379297,54.5366 26.379297,53.6436 C26.379297,52.7496 27.105297,52.0226 27.999297,52.0226 L30.813297,52.0226 L51.848297,52.0226 L50.980297,55.2636 L29.076297,55.2636 Z M62.268297,13.1336 L61.400297,16.3746 L39.497297,16.3746 L38.420297,16.3746 C37.526297,16.3746 36.800297,15.6486 36.800297,14.7536 C36.800297,13.8606 37.526297,13.1336 38.420297,13.1336 L41.233297,13.1336 L62.268297,13.1336 Z M92.400297,92.3696 L77.217297,5.3726 C76.668297,2.2616 73.983297,0.0596 70.940297,0.0006 C70.902297,0.0006 70.845297,0.0006 70.789297,-0.0004 C67.814297,0.0276 65.241297,2.0406 64.471297,4.9136 L63.137297,9.8936 L43.345297,9.8936 L43.760297,8.3456 C44.217297,6.6406 43.980297,4.8556 43.093297,3.3186 C42.209297,1.7866 40.789297,0.6916 39.092297,0.2316 C39.086297,0.2296 39.078297,0.2276 39.072297,0.2266 C38.513297,0.0756 37.938297,0.0006 37.363297,0.0006 C34.364297,0.0006 31.727297,2.0206 30.952297,4.9136 L7.72729696,91.6536 C7.27029696,93.3596 7.50729696,95.1456 8.39429696,96.6826 C9.27829696,98.2116 10.696297,99.3076 12.390297,99.7676 C12.399297,99.7706 12.407297,99.7726 12.415297,99.7746 C12.973297,99.9246 13.548297,99.9996 14.123297,99.9996 C17.124297,99.9996 19.761297,97.9796 20.535297,95.0866 L24.641297,79.7336 L44.434297,79.7336 L41.247297,91.6536 C40.790297,93.3596 41.026297,95.1456 41.914297,96.6826 C42.798297,98.2136 44.218297,99.3086 45.915297,99.7696 C45.922297,99.7716 45.928297,99.7726 45.934297,99.7746 C46.493297,99.9246 47.068297,99.9996 47.643297,99.9996 C50.642297,99.9996 53.279297,97.9796 54.054297,95.0866 L69.483297,36.6746 L79.597297,94.6276 C80.153297,97.7806 82.896297,99.9996 85.991297,99.9996 C86.366297,99.9996 86.746297,99.9676 87.128297,99.9006 C90.663297,99.2776 93.023297,95.9046 92.400297,92.3696 L92.400297,92.3696 Z" id="Fill-1" fill="#3A4B60"></path>
    </g>
</svg>