<?xml version="1.0" encoding="UTF-8"?>
<svg width="100px" height="100px" viewBox="0 0 100 100" version="1.1" xmlns="http://www.w3.org/2000/svg" xmlns:xlink="http://www.w3.org/1999/xlink">
    <title>icon / furniture / lamp_floor</title>
    <g id="icon-/-furniture-/-lamp_floor" stroke="none" stroke-width="1" fill="none" fill-rule="evenodd">
        <path d="M70.7987801,29.5604938 C70.7197677,29.5703704 70.616064,29.5753086 70.487669,29.5753086 L29.5049529,29.5753086 C29.3765578,29.5753086 29.2728541,29.5703704 29.1938418,29.5604938 C29.2086566,29.5061728 29.2284097,29.4419753 29.2531011,29.362963 C30.5765578,25.5506173 36.6407554,9.30864198 38.8037183,3.59012346 C38.9518665,3.2 39.2135949,2.95802469 39.4753233,2.95802469 L60.5123603,2.95802469 C60.7740887,2.95802469 61.0308788,3.20987654 61.179027,3.59012346 C62.4827307,7.00246914 67.5148295,20.6469136 69.6679159,26.4740741 L70.7395208,29.3876543 C70.7642122,29.4567901 70.7839653,29.5111111 70.7987801,29.5604938 L70.7987801,29.5604938 Z M53.6629776,92.6617284 L53.6629776,87.1604938 L59.1691504,92.6617284 L53.6629776,92.6617284 Z M49.2827307,92.6617284 L49.2827307,32.5382716 L50.7049529,32.5382716 L50.7049529,92.6617284 L49.2827307,92.6617284 Z M46.3197677,87.1555556 L46.3197677,92.6617284 L40.8185332,92.6617284 L46.3197677,87.1555556 Z M38.6555702,47.254321 C38.6555702,47.6049383 38.3691504,47.8962963 38.0135949,47.8962963 C37.6580393,47.8962963 37.3666813,47.6049383 37.3666813,47.254321 C37.3666813,46.8987654 37.6580393,46.6074074 38.0135949,46.6074074 C38.3691504,46.6074074 38.6555702,46.8987654 38.6555702,47.254321 L38.6555702,47.254321 Z M35.924706,95.6197531 L64.0580393,95.6197531 C64.4531011,95.6197531 64.7740887,95.9407407 64.7740887,96.3308642 C64.7740887,96.7259259 64.4531011,97.0419753 64.0580393,97.0419753 L35.924706,97.0419753 C35.5345825,97.0419753 35.2135949,96.7259259 35.2135949,96.3308642 C35.2135949,95.9407407 35.5345825,95.6197531 35.924706,95.6197531 L35.924706,95.6197531 Z M73.5197677,28.3654321 L72.033348,24.3407407 C69.6284097,17.8271605 65.1543356,5.69876543 63.9444591,2.53333333 C63.3568048,0.992592593 62.0086566,0 60.5123603,0 L39.4753233,0 C37.9740887,0 36.6259406,0.997530864 36.0432245,2.5382716 C33.9543356,8.05925926 27.8654467,24.3506173 26.4580393,28.3901235 C26.0481628,29.5703704 26.1172986,30.562963 26.6654467,31.3432099 C27.233348,32.1333333 28.1864344,32.5382716 29.5049529,32.5382716 L36.5370517,32.5382716 L36.5370517,43.9802469 C35.2481628,44.5580247 34.4086566,45.8222222 34.4086566,47.254321 C34.4086566,49.2395062 36.0234714,50.854321 38.0135949,50.854321 C39.9987801,50.854321 41.6135949,49.2395062 41.6135949,47.254321 C41.6135949,45.8222222 40.779027,44.562963 39.4950764,43.9802469 L39.4950764,32.5382716 L46.324706,32.5382716 L46.3197677,82.9728395 L36.6358171,92.6617284 L35.924706,92.6617284 C33.9000146,92.6617284 32.2555702,94.3061728 32.2555702,96.3308642 C32.2555702,98.3555556 33.9000146,100 35.924706,100 L64.0580393,100 C66.0827307,100 67.7321134,98.3555556 67.7321134,96.3308642 C67.7321134,94.3061728 66.0827307,92.6617284 64.0580393,92.6617284 L63.3518665,92.6617284 L53.6629776,82.9728395 L53.6629776,32.5382716 L70.487669,32.5382716 C71.816064,32.5382716 72.779027,32.1283951 73.3419899,31.3185185 C73.8901381,30.5333333 73.9493974,29.5407407 73.5197677,28.3654321 L73.5197677,28.3654321 Z" id="icon_floor-lamp" fill="#3A4B60"></path>
    </g>
</svg>