<?xml version="1.0" encoding="UTF-8"?>
<svg width="100px" height="100px" viewBox="0 0 100 100" version="1.1" xmlns="http://www.w3.org/2000/svg" xmlns:xlink="http://www.w3.org/1999/xlink">
    <title>icon / furniture / lamp_table</title>
    <g id="icon-/-furniture-/-lamp_table" stroke="none" stroke-width="1" fill="none" fill-rule="evenodd">
        <path d="M85.6415,40.6779 L14.3585,40.6779 C13.5575,40.6779 12.9055,40.0269 12.9055,39.2259 C12.9055,38.4239 13.5575,37.7729 14.3585,37.7729 L85.6415,37.7729 C86.4435,37.7729 87.0945,38.4239 87.0945,39.2259 C87.0945,40.0269 86.4435,40.6779 85.6415,40.6779 L85.6415,40.6779 Z M45.6415,57.9659 L54.3585,57.9659 L54.3585,43.5829 L45.6415,43.5829 L45.6415,57.9659 Z M57.6935,79.1019 L55.7595,91.2829 L44.2405,91.2829 L42.3075,79.1019 C41.3545,73.0979 42.2195,67.0169 44.8075,61.5159 L45.1115,60.8709 L54.8885,60.8709 L55.1925,61.5159 C57.7815,67.0169 58.6455,73.0979 57.6935,79.1019 L57.6935,79.1019 Z M59.4915,94.1889 C61.2355,94.1889 62.6935,95.4419 63.0105,97.0949 L36.9895,97.0949 C37.3075,95.4419 38.7645,94.1889 40.5085,94.1889 L59.4915,94.1889 Z M48.4505,2.9059 L51.5495,2.9059 C69.3205,2.9059 83.8195,17.1819 84.1815,34.8659 L15.8175,34.8659 C16.1805,17.1819 30.6795,2.9059 48.4505,2.9059 L48.4505,2.9059 Z M27.1455,56.1579 L27.1455,65.8549 C27.1455,66.5669 26.5665,67.1459 25.8555,67.1459 L24.1455,67.1459 C23.4335,67.1459 22.8545,66.5669 22.8545,65.8549 L22.8545,56.1579 C22.8545,55.4469 23.4335,54.8669 24.1455,54.8669 L25.8555,54.8669 C26.5665,54.8669 27.1455,55.4469 27.1455,56.1579 L27.1455,56.1579 Z M87.0915,35.1159 C86.8605,15.7129 71.0055,-0.0001 51.5495,-0.0001 L48.4505,-0.0001 C28.9945,-0.0001 13.1395,15.7129 12.9085,35.1159 C11.2155,35.7139 9.9995,37.3299 9.9995,39.2259 C9.9995,41.6279 11.9545,43.5829 14.3585,43.5829 L23.5725,43.5829 L23.5725,52.0539 C21.5575,52.3329 19.9995,54.0679 19.9995,56.1579 L19.9995,65.8549 C19.9995,68.1409 21.8595,69.9999 24.1445,69.9999 L25.8545,69.9999 C28.1405,69.9999 29.9995,68.1409 29.9995,65.8549 L29.9995,56.1579 C29.9995,54.0679 28.4425,52.3329 26.4275,52.0539 L26.4275,43.5829 L42.7365,43.5829 L42.7365,59.0939 L42.1785,60.2789 C39.3415,66.3079 38.3935,72.9749 39.4375,79.5579 L41.2985,91.2829 L40.5085,91.2829 C36.9305,91.2829 34.0195,94.1949 34.0195,97.7729 C34.0195,98.9999 35.0185,99.9999 36.2465,99.9999 L63.7525,99.9999 C64.9815,99.9999 65.9805,98.9999 65.9805,97.7729 C65.9805,94.1949 63.0705,91.2829 59.4915,91.2829 L58.7015,91.2829 L60.5625,79.5579 C61.6065,72.9749 60.6585,66.3079 57.8215,60.2789 L57.2635,59.0939 L57.2635,43.5829 L85.6415,43.5829 C88.0445,43.5829 89.9995,41.6279 89.9995,39.2259 C89.9995,37.3299 88.7845,35.7139 87.0915,35.1159 L87.0915,35.1159 Z" id="icon_lamp_table" fill="#3A4B60"></path>
    </g>
</svg>