<?xml version="1.0" encoding="UTF-8"?>
<svg width="100px" height="100px" viewBox="0 0 100 100" version="1.1" xmlns="http://www.w3.org/2000/svg" xmlns:xlink="http://www.w3.org/1999/xlink">
    <title>icon / furniture / leaf-blower</title>
    <g id="icon-/-furniture-/-leaf-blower" stroke="none" stroke-width="1" fill="none" fill-rule="evenodd">
        <path d="M97.0556,41.5652 L69.7466,42.8702 L69.7466,36.1412 L97.0556,37.4462 L97.0556,41.5652 Z M66.8016,43.0072 L54.3626,43.5872 C53.8916,43.6102 53.4586,43.8562 53.2006,44.2512 C52.9416,44.6442 52.8866,45.1382 53.0546,45.5812 C53.5186,46.8052 53.8396,48.0742 54.0106,49.3532 C54.1076,50.0862 54.7326,50.6312 55.4696,50.6312 L60.4386,50.6312 C60.9946,50.6312 61.4486,51.0852 61.4486,51.6412 C61.4486,52.1972 60.9946,52.6502 60.4386,52.6502 L55.4696,52.6502 C54.7326,52.6502 54.1076,53.1972 54.0106,53.9272 C53.7206,56.1022 53.0096,58.1612 51.9306,60.0642 C50.7356,62.1762 49.1076,64.0152 47.1546,65.4562 C44.9016,67.1082 42.2896,68.1802 39.5206,68.5822 C39.4566,68.5922 39.3916,68.6032 39.3266,68.6122 C38.5946,68.7102 38.0486,69.3332 38.0486,70.0712 L38.0486,76.0462 C38.0486,76.6022 37.5956,77.0552 37.0386,77.0552 C36.4836,77.0552 36.0306,76.6022 36.0306,76.0462 L36.0306,70.0712 C36.0306,69.3332 35.4846,68.7092 34.7526,68.6112 C26.2946,67.4832 19.9156,60.1872 19.9156,51.6402 C19.9156,51.3112 19.9296,50.9592 19.9556,50.5342 C19.9896,50.0092 19.7406,49.5062 19.3036,49.2152 L7.8376,41.5652 C7.8276,41.5592 7.8196,41.5522 7.8096,41.5462 C7.0266,41.0492 6.7946,40.0082 7.2916,39.2242 L15.4886,26.3232 C15.7376,25.9302 16.1216,25.6772 16.5416,25.5842 C16.5426,25.5842 16.5436,25.5832 16.5446,25.5832 C16.5956,25.5712 16.6486,25.5632 16.7006,25.5562 C16.7066,25.5552 16.7126,25.5552 16.7186,25.5542 C16.7656,25.5492 16.8146,25.5452 16.8626,25.5437556 C16.8736,25.5432 16.8846,25.5437556 16.8956,25.5437556 C16.9386,25.5437556 16.9806,25.5437556 17.0246,25.5462 C17.0436,25.5482 17.0616,25.5512 17.0806,25.5532 C17.1166,25.5562 17.1506,25.5602 17.1856,25.5662 C17.2106,25.5702 17.2356,25.5772 17.2606,25.5822 C17.2886,25.5882 17.3186,25.5922 17.3466,25.6002 C17.3756,25.6082 17.4046,25.6192 17.4326,25.6282 C17.4566,25.6362 17.4806,25.6432 17.5046,25.6522 C17.5356,25.6652 17.5676,25.6792 17.5986,25.6942 C17.6186,25.7022 17.6386,25.7102 17.6596,25.7192 C17.6906,25.7362 17.7216,25.7542 17.7516,25.7722 L17.8106,25.8042 C17.8156,25.8082 17.8216,25.8122 17.8266,25.8152 L32.2886,34.7302 C32.6136,34.9302 33.0026,34.9962 33.3746,34.9152 C33.8616,34.8082 34.3116,34.7292 34.7526,34.6692 C35.4846,34.5722 36.0306,33.9482 36.0306,33.2102 L36.0306,27.2352 C36.0306,26.6792 36.4836,26.2262 37.0386,26.2262 C37.5956,26.2262 38.0486,26.6792 38.0486,27.2352 L38.0486,33.2102 C38.0486,33.9482 38.5946,34.5722 39.3256,34.6692 C39.4206,34.6822 39.5136,34.6972 39.6066,34.7122 L39.7336,34.7332 C39.7866,34.7422 39.8406,34.7482 39.8946,34.7502 L66.8016,36.0052 L66.8016,43.0072 Z M4.6026,38.0102 C4.4096,38.4002 4.2586,38.8092 4.1716,39.2352 L3.7236,38.9522 C2.9416,38.4542 2.7086,37.4132 3.2066,36.6292 L8.9766,27.5382 C8.9846,27.5272 8.9936,27.5182 9.0006,27.5072 L11.4026,23.7272 C11.6436,23.3472 12.0176,23.0852 12.4556,22.9872 C12.8946,22.8892 13.3446,22.9672 13.7236,23.2092 C13.7236,23.2092 14.1716,23.4932 14.1516,23.5092 C12.9216,24.5232 12.1876,26.0262 11.3446,27.3542 C10.2146,29.1332 9.0836,30.9122 7.9536,32.6912 C6.9986,34.1952 6.0736,35.7252 5.0766,37.2032 C4.9026,37.4612 4.7416,37.7302 4.6026,38.0102 L4.6026,38.0102 Z M98.5966,34.5702 L40.9936,31.8522 L40.9936,27.2352 C40.9936,25.0542 39.2196,23.2802 37.0386,23.2802 C34.8596,23.2802 33.0856,25.0542 33.0856,27.2352 L33.0856,31.7602 L15.3036,20.7232 C14.2596,20.0602 13.0206,19.8432 11.8146,20.1132 C10.6086,20.3812 9.5786,21.1052 8.9166,22.1472 L7.6526,24.1372 C7.6446,24.1502 7.6336,24.1602 7.6256,24.1722 L0.7206,35.0492 C-0.6484,37.2042 -0.0084,40.0692 2.1446,41.4372 L16.9776,51.2032 C16.9726,51.3532 16.9716,51.4982 16.9716,51.6402 C16.9716,61.2212 23.8126,69.4622 33.0856,71.3182 L33.0856,76.0462 C33.0856,78.2262 34.8596,80.0002 37.0386,80.0002 C39.2196,80.0002 40.9936,78.2262 40.9936,76.0462 L40.9936,71.3182 C40.9936,71.3112 43.6176,70.6042 43.8616,70.5162 C44.8126,70.1712 45.7366,69.7532 46.6236,69.2692 C48.2106,68.4032 49.6726,67.3382 50.9716,66.0812 C53.7996,63.3422 55.8166,59.7602 56.6526,55.9102 C56.6746,55.8052 56.6976,55.7002 56.7176,55.5942 L60.4386,55.5942 C62.6186,55.5942 64.3926,53.8212 64.3926,51.6412 C64.3926,49.4612 62.6186,47.6862 60.4386,47.6862 L56.7156,47.6862 C56.6316,47.2692 56.5346,46.8522 56.4226,46.4392 L98.5966,44.4422 C99.3816,44.4052 99.9996,43.7572 99.9996,42.9702 L99.9996,36.0412 C99.9996,35.2532 99.3816,34.6052 98.5966,34.5702 L98.5966,34.5702 Z M19.6636,41.6022 L18.9466,41.1462 C18.1626,40.6492 17.9306,39.6072 18.4276,38.8252 L19.8586,36.5732 C20.1786,36.0692 20.7236,35.7942 21.2816,35.7942 C21.5886,35.7942 21.9006,35.8782 22.1806,36.0552 L23.4606,36.8682 C21.9656,38.2452 20.6816,39.8442 19.6636,41.6022 L19.6636,41.6022 Z M26.4876,35.2262 C26.3356,35.1802 26.1966,35.1182 26.0746,35.0402 L23.7596,33.5692 C21.6056,32.2012 18.7406,32.8402 17.3716,34.9942 L15.9426,37.2452 C14.5736,39.3992 15.2126,42.2642 17.3666,43.6322 L19.4336,44.9452 C19.6716,45.0962 19.9456,45.1742 20.2226,45.1742 C20.3596,45.1742 20.4976,45.1562 20.6326,45.1172 C21.0376,45.0002 21.3736,44.7132 21.5536,44.3322 C22.7716,41.7572 24.6286,39.5072 26.9276,37.8232 C27.3776,37.4932 27.6016,36.9382 27.5086,36.3892 C27.4156,35.8392 27.0196,35.3892 26.4876,35.2262 L26.4876,35.2262 Z M39.1636,58.2992 L39.1636,55.9342 L43.1016,55.9342 C42.1036,57.1152 40.7286,57.9662 39.1636,58.2992 L39.1636,58.2992 Z M39.1636,46.8772 L39.1636,44.4522 C40.7556,44.7902 42.1516,45.6642 43.1526,46.8772 L39.1636,46.8772 Z M39.1636,49.8222 L44.5956,49.8222 C44.7086,50.3222 44.7696,50.8412 44.7696,51.3762 C44.7696,51.9302 44.7036,52.4702 44.5826,52.9892 L39.1636,52.9892 L39.1636,49.8222 Z M36.2186,46.8772 L32.2296,46.8772 C33.2296,45.6642 34.6266,44.7902 36.2186,44.4522 L36.2186,46.8772 Z M35.1826,52.9892 L30.7996,52.9892 C30.6786,52.4702 30.6126,51.9302 30.6126,51.3762 C30.6126,50.8412 30.6736,50.3222 30.7856,49.8222 L36.2186,49.8222 L36.2186,52.9892 L35.1826,52.9892 Z M32.2806,55.9342 L36.2186,55.9342 L36.2186,58.2992 C34.6526,57.9662 33.2786,57.1152 32.2806,55.9342 L32.2806,55.9342 Z M47.7146,51.3762 C47.7146,45.8482 43.2186,41.3512 37.6906,41.3512 C33.4516,41.3512 29.8206,43.9992 28.3576,47.7252 C28.3296,47.7872 28.3036,47.8492 28.2836,47.9152 C27.8846,48.9942 27.6666,50.1592 27.6666,51.3762 C27.6666,52.6112 27.8926,53.7942 28.3036,54.8862 C28.3256,54.9612 28.3536,55.0302 28.3866,55.0982 C29.8676,58.7882 33.4796,61.4002 37.6906,61.4002 C41.8686,61.4002 45.4566,58.8302 46.9596,55.1882 C47.0286,55.0692 47.0796,54.9382 47.1116,54.8002 C47.5016,53.7312 47.7146,52.5782 47.7146,51.3762 L47.7146,51.3762 Z" id="icon_leaf-blower" fill="#3A4B60"></path>
    </g>
</svg>