<?xml version="1.0" encoding="UTF-8"?>
<svg width="100px" height="100px" viewBox="0 0 100 100" version="1.1" xmlns="http://www.w3.org/2000/svg">
    <title>icon / furniture / lingerie-cabinet</title>
    <g id="icon-/-furniture-/-lingerie-cabinet" stroke="none" stroke-width="1" fill="none" fill-rule="evenodd">
        <path d="M71.9975,3.0014 L28.0015,3.0014 L28.0015,21.8464 L71.9975,21.8474 L71.9975,3.0014 Z M28.0015,43.6944 L71.9975,43.6944 L71.9975,24.8484 L28.0015,24.8484 L28.0015,43.6944 Z M28.0015,65.5404 L71.9975,65.5404 L71.9975,46.6944 L28.0015,46.6944 L28.0015,65.5404 Z M28.0015,87.6164 L71.9975,87.6164 L71.9975,68.5424 L28.0015,68.5424 L28.0015,87.6164 Z M70.8195,90.6194 L29.1785,90.6194 L29.1785,97.4734 L37.6685,97.4734 L37.6685,94.5644 C37.6685,93.8674 38.2355,93.3014 38.9335,93.3014 L61.0655,93.3014 C61.7635,93.3014 62.3295,93.8674 62.3295,94.5644 L62.3295,97.4734 L70.8195,97.4734 L70.8195,90.6194 Z M73.3475,97.7874 C73.3475,99.0074 72.3685,100.0004 71.1655,100.0004 L61.9845,100.0004 C60.7815,100.0004 59.8035,99.0074 59.8035,97.7874 L59.8035,95.8274 L40.1955,95.8274 L40.1955,97.7874 C40.1955,99.0074 39.2175,100.0004 38.0145,100.0004 L28.8335,100.0004 C27.6305,100.0004 26.6515,99.0074 26.6515,97.7874 L26.6515,90.6204 L26.4565,90.6144 C25.6405,90.5894 25.0005,89.9334 25.0005,89.1174 L25.0005,1.5004 C25.0005,0.6734 25.6735,0.0004 26.5005,0.0004 L73.4985,0.0004 C74.3265,0.0004 75.0005,0.6734 75.0005,1.5004 L75.0005,89.1174 C75.0005,89.9334 74.3595,90.5894 73.5435,90.6144 L73.3475,90.6204 L73.3475,97.7874 Z M51.8735,10.7854 L48.1265,10.7854 C47.2985,10.7854 46.6255,11.4594 46.6255,12.2854 C46.6255,13.1134 47.2985,13.7874 48.1265,13.7874 L51.8735,13.7874 C52.7005,13.7874 53.3735,13.1134 53.3735,12.2854 C53.3735,11.4594 52.7005,10.7854 51.8735,10.7854 L51.8735,10.7854 Z M51.8735,32.7704 L48.1265,32.7704 C47.2985,32.7704 46.6255,33.4434 46.6255,34.2714 C46.6255,35.0984 47.2985,35.7724 48.1265,35.7724 L51.8735,35.7724 C52.7005,35.7724 53.3735,35.0984 53.3735,34.2714 C53.3735,33.4434 52.7005,32.7704 51.8735,32.7704 L51.8735,32.7704 Z M51.8735,76.4644 L48.1265,76.4644 C47.2985,76.4644 46.6255,77.1374 46.6255,77.9654 C46.6255,78.7934 47.2985,79.4664 48.1265,79.4664 L51.8735,79.4664 C52.7005,79.4664 53.3735,78.7934 53.3735,77.9654 C53.3735,77.1374 52.7005,76.4644 51.8735,76.4644 L51.8735,76.4644 Z M53.3735,56.1184 C53.3735,56.9454 52.7005,57.6184 51.8735,57.6184 L48.1265,57.6184 C47.2985,57.6184 46.6255,56.9454 46.6255,56.1184 C46.6255,55.2904 47.2985,54.6164 48.1265,54.6164 L51.8735,54.6164 C52.7005,54.6164 53.3735,55.2904 53.3735,56.1184 L53.3735,56.1184 Z"
              id="icon_lingerie-cabinet" fill="#3A4B60"></path>
    </g>
</svg>