<?xml version="1.0" encoding="UTF-8"?>
<svg width="100px" height="100px" viewBox="0 0 100 100" version="1.1" xmlns="http://www.w3.org/2000/svg" xmlns:xlink="http://www.w3.org/1999/xlink">
    <title>icon / furniture / litter-box</title>
    <g id="icon-/-furniture-/-litter-box" stroke="none" stroke-width="1" fill="none" fill-rule="evenodd">
        <path d="M96.9523,60.4797 L76.0623,60.4797 C73.9793,60.4797 72.1993,61.8977 71.7303,63.9267 L70.5523,69.0367 C70.1853,70.6267 68.7903,71.7367 67.1593,71.7367 L32.8413,71.7367 C31.2103,71.7367 29.8143,70.6267 29.4473,69.0367 L28.2693,63.9267 C27.8013,61.8977 26.0193,60.4797 23.9353,60.4797 C23.9353,60.4797 4.3063,60.4807 3.0493,60.4807 C2.9833,60.4807 2.9303,60.4267 2.9303,60.3617 L2.9303,57.3217 C2.9303,57.2557 2.9833,57.2027 3.0493,57.2027 L26.5063,57.2027 C28.6113,57.2027 30.4113,58.6357 30.8853,60.6867 L32.0043,65.5397 C32.4003,67.2587 33.9093,68.4597 35.6743,68.4597 L64.3253,68.4597 C66.0903,68.4597 67.5993,67.2587 67.9953,65.5397 L69.1143,60.6867 C69.5883,58.6357 71.3893,57.2027 73.4933,57.2027 L96.9513,57.2027 C97.0163,57.2027 97.0693,57.2557 97.0693,57.3217 L97.0693,60.3607 L97.0703,60.3607 C97.0703,60.4257 97.0173,60.4797 96.9523,60.4797 L96.9523,60.4797 Z M88.3443,90.8277 C88.1943,91.5477 87.5513,92.0717 86.8143,92.0717 L13.1843,92.0717 C12.4483,92.0717 11.8063,91.5477 11.6553,90.8277 L6.3693,63.4107 L23.9353,63.4097 C24.6463,63.4097 25.2553,63.8927 25.4143,64.5857 L26.5923,69.6957 C27.2673,72.6227 29.8373,74.6667 32.8413,74.6667 L67.1593,74.6667 C70.1633,74.6667 72.7313,72.6227 73.4073,69.6957 L74.5863,64.5857 C74.7453,63.8927 75.3523,63.4097 76.0623,63.4097 L93.6303,63.4097 L88.3443,90.8277 Z M36.4743,41.6197 C40.8183,39.2087 45.7813,37.9247 50.7483,37.9247 C55.7303,37.9247 60.6663,39.2027 65.0213,41.6197 L87.8283,54.2727 L73.4943,54.2727 C70.0163,54.2727 67.0423,56.6397 66.2613,60.0277 L65.1413,64.8807 C65.0543,65.2627 64.7183,65.5307 64.3263,65.5307 L35.6753,65.5307 C35.2823,65.5307 34.9473,65.2627 34.8583,64.8807 L33.7393,60.0277 C32.9583,56.6397 29.9833,54.2727 26.5063,54.2727 L13.6693,54.2727 L36.4743,41.6197 Z M10.3833,39.7417 C10.3833,39.7417 31.3293,27.6937 31.3453,27.6837 C34.7183,25.7447 39.1393,26.9437 41.0753,30.3077 L44.0443,35.4697 C43.9703,35.4857 43.8963,35.5037 43.8223,35.5207 C40.7233,36.1957 37.7193,37.3217 34.9443,38.8617 L9.7093,52.8627 C9.7093,52.8627 7.7603,49.4737 7.7583,49.4707 C5.8203,46.1027 7.0233,41.6727 10.3833,39.7417 L10.3833,39.7417 Z M4.7233,16.3997 C3.8773,15.1367 3.6493,13.6257 3.9643,12.2417 C4.2783,10.8537 5.1373,9.5917 6.4613,8.8307 C9.1133,7.3037 12.5673,8.3967 13.8823,11.1447 L22.8933,28.9047 L15.6883,33.0497 C15.6883,33.0497 4.7283,16.4087 4.7233,16.3997 L4.7233,16.3997 Z M96.9513,54.2727 L94.3313,54.2727 L66.5533,38.8607 C61.7293,36.1847 56.2643,34.7697 50.7483,34.7697 C49.6233,34.7697 48.5003,34.8327 47.3843,34.9487 C47.3843,34.9487 43.8113,28.7377 43.8103,28.7347 C41.0183,23.8827 34.6283,22.1567 29.7723,24.9497 L25.6353,27.3287 C25.6353,27.3287 16.7253,9.7787 16.7233,9.7727 C14.6043,5.4257 9.0973,3.6747 4.8883,6.0947 C0.6993,8.5047 -0.6137,14.1647 2.1083,18.1657 L12.9473,34.6257 C12.9473,34.6257 8.8113,37.0047 8.8093,37.0057 C3.9583,39.7967 2.2323,46.1907 5.0233,51.0437 L6.8813,54.2727 L3.0493,54.2727 C1.3683,54.2727 0.0003,55.6397 0.0003,57.3217 L0.0003,60.3607 C0.0003,62.0417 1.3683,63.4097 3.0493,63.4097 L3.3773,63.4097 L8.7873,91.4237 C9.2193,93.4967 11.0683,95.0007 13.1843,95.0007 L86.8153,95.0007 C88.9323,95.0007 90.7813,93.4967 91.2133,91.4237 L96.6233,63.4097 L96.9533,63.4097 C98.6333,63.4097 100.0003,62.0417 100.0003,60.3607 L100.0003,57.3217 C100.0003,55.6397 98.6323,54.2727 96.9513,54.2727 L96.9513,54.2727 Z" id="icon_litter-box" fill="#3A4B60"></path>
    </g>
</svg>