<?xml version="1.0" encoding="UTF-8"?>
<svg width="100px" height="100px" viewBox="0 0 100 100" version="1.1" xmlns="http://www.w3.org/2000/svg">
    <title>icon / furniture / long-garden-tool_rake-shovel-etc</title>
    <g id="icon-/-furniture-/-long-garden-tool_rake-shovel-etc" stroke="none" stroke-width="1" fill="none"
       fill-rule="evenodd">
        <path d="M2.9329,4.3197 C2.9329,4.6897 3.0769,5.0387 3.3379,5.2997 L9.4989,11.4607 L11.4599,9.4997 L5.2999,3.3397 C5.0379,3.0777 4.6899,2.9327 4.3199,2.9327 C3.9489,2.9327 3.6009,3.0777 3.3389,3.3397 C3.0769,3.6007 2.9329,3.9487 2.9329,4.3197 L2.9329,4.3197 Z M11.5729,13.5337 L12.7869,14.7467 L14.7459,12.7867 L13.5339,11.5727 L11.5729,13.5337 Z M1.2649,7.3737 C0.4499,6.5577 -0.0001,5.4727 -0.0001,4.3197 C-0.0001,3.1657 0.4499,2.0817 1.2659,1.2647 C2.0809,0.4497 3.1649,0.0007 4.3199,0.0007 C5.4729,0.0007 6.5579,0.4497 7.3729,1.2647 L49.9249,43.8157 L47.8509,45.8897 L16.8209,14.8597 L14.8599,16.8217 L45.8899,47.8507 L43.8159,49.9247 L1.2649,7.3737 Z M73.3599,71.3987 L63.7719,61.8107 L61.8099,63.7717 L71.3989,73.3607 L73.3599,71.3987 Z M61.6979,59.7377 L57.8039,55.8427 L55.8429,57.8047 L59.7369,61.6977 L61.6979,59.7377 Z M99.5439,84.5347 C100.1309,85.0927 100.1549,86.0217 99.5959,86.6087 C99.0369,87.1957 98.1099,87.2177 97.5229,86.6607 L81.3509,71.2767 C80.3119,70.2877 78.6689,70.2787 77.6649,71.2457 L95.4249,88.6877 C96.0019,89.2557 96.0109,90.1837 95.4439,90.7607 C95.1569,91.0537 94.7769,91.2007 94.3979,91.2007 C94.0259,91.2007 93.6549,91.0607 93.3699,90.7807 L75.5899,73.3187 L73.3189,75.5897 L90.7809,93.3697 C91.3479,93.9477 91.3389,94.8767 90.7619,95.4437 C90.4769,95.7237 90.1049,95.8637 89.7349,95.8637 C89.3549,95.8637 88.9749,95.7167 88.6889,95.4247 L71.2459,77.6647 C70.2789,78.6697 70.2869,80.3117 71.2769,81.3507 L86.6609,97.5227 C87.2189,98.1087 87.1959,99.0377 86.6089,99.5957 C86.3249,99.8657 85.9609,99.9997 85.5979,99.9997 C85.2099,99.9997 84.8249,99.8467 84.5359,99.5447 L69.1519,83.3727 C67.0649,81.1777 67.0879,77.6717 69.2039,75.5537 L69.3249,75.4337 L50.0749,56.1837 L52.1489,54.1097 L53.7699,55.7307 L55.7299,53.7697 L54.1099,52.1487 L56.1839,50.0747 L75.4339,69.3257 L75.5539,69.2037 C77.6709,67.0877 81.1779,67.0647 83.3719,69.1517 L99.5439,84.5347 Z M24.9649,93.2797 C20.0229,98.2227 12.0349,98.3047 6.9859,93.5327 C6.8979,93.4487 6.8079,93.3677 6.7209,93.2797 L6.7179,93.2827 C6.7189,93.2817 6.7189,93.2807 6.7199,93.2797 C6.6329,93.1927 6.5509,93.1027 6.4669,93.0137 C1.6959,87.9657 1.7769,79.9777 6.7199,75.0347 L19.5769,62.1777 L25.5709,68.1727 L23.0629,70.6797 C22.2269,71.5147 21.7669,72.6267 21.7669,73.8087 C21.7659,74.9907 22.2269,76.1017 23.0629,76.9377 C23.8989,77.7747 25.0099,78.2347 26.1919,78.2347 C27.3739,78.2347 28.4859,77.7737 29.3219,76.9377 L31.8289,74.4297 L37.8229,80.4237 L24.9649,93.2797 Z M40.2539,57.6597 L42.3429,59.7477 L27.2369,74.8527 C26.9569,75.1327 26.5859,75.2857 26.1929,75.2857 C25.7979,75.2857 25.4269,75.1327 25.1479,74.8527 C24.8699,74.5747 24.7159,74.2037 24.7159,73.8087 C24.7159,73.4147 24.8699,73.0447 25.1489,72.7647 L40.2539,57.6597 Z M84.7319,17.3577 L44.4279,57.6617 L42.3389,55.5747 L82.6439,15.2687 L84.7319,17.3577 Z M86.0429,11.8697 L88.1319,13.9577 L86.8169,15.2727 L84.7289,13.1837 L86.0429,11.8697 Z M95.5749,2.9507 C95.9679,2.9507 96.3399,3.1047 96.6189,3.3827 C96.8979,3.6627 97.0509,4.0327 97.0509,4.4267 C97.0509,4.8217 96.8969,5.1927 96.6189,5.4707 L90.2179,11.8727 L88.1289,9.7847 L94.5309,3.3827 C94.8099,3.1037 95.1809,2.9507 95.5749,2.9507 L95.5749,2.9507 Z M40.9509,79.3817 L33.9139,72.3447 L98.7039,7.5557 C99.5389,6.7207 99.9999,5.6087 99.9999,4.4267 C99.9999,3.2447 99.5389,2.1337 98.7039,1.2977 C97.8689,0.4627 96.7569,0.0017 95.5749,0.0017 C94.3919,0.0017 93.2809,0.4627 92.4459,1.2987 L27.6559,66.0867 L20.6199,59.0487 C20.0429,58.4737 19.1099,58.4737 18.5349,59.0487 L4.6349,72.9487 C1.5439,76.0397 -0.0001,80.0967 -0.0001,84.1567 C-0.0001,88.2157 1.5439,92.2747 4.6349,95.3647 C4.6349,95.3637 4.6369,95.3637 4.6369,95.3637 L4.6349,95.3657 C7.7259,98.4557 11.7849,100.0007 15.8429,100.0007 C19.9029,100.0007 23.9599,98.4557 27.0509,95.3657 L40.9509,81.4657 C41.5259,80.8907 41.5259,79.9577 40.9509,79.3817 L40.9509,79.3817 Z"
              id="icon_long-garden-tool" fill="#3A4B60"></path>
    </g>
</svg>