<?xml version="1.0" encoding="UTF-8"?>
<svg width="100px" height="100px" viewBox="0 0 100 100" version="1.1" xmlns="http://www.w3.org/2000/svg" xmlns:xlink="http://www.w3.org/1999/xlink">
    <title>icon / furniture / massage-chair</title>
    <g id="icon-/-furniture-/-massage-chair" stroke="none" stroke-width="1" fill="none" fill-rule="evenodd">
        <path d="M3.8964,11.8283 L25.1284,50.6913 L28.3054,50.6913 L28.3054,46.4083 C28.3054,44.9563 28.7034,43.5323 29.4564,42.2903 L29.8114,41.7033 L11.3254,7.6423 C11.0924,7.2143 10.7054,6.9043 10.2354,6.7723 C9.7654,6.6403 9.2744,6.7013 8.8494,6.9443 L4.5754,9.4133 C3.7234,9.9043 3.4254,10.9653 3.8964,11.8283 L3.8964,11.8283 Z M15.7584,82.4933 C15.0044,83.2473 14.3834,84.1413 14.0294,85.1463 C12.3724,89.8493 16.0474,94.2613 20.7024,94.2613 L28.0194,94.2613 L25.0144,73.2353 L15.7584,82.4933 Z M71.4934,94.2613 L71.4934,54.4313 L26.1924,54.4313 L26.2344,54.7233 L31.7984,94.2613 L71.4934,94.2613 Z M71.4934,46.4213 C71.4934,44.0633 69.5814,42.1523 67.2234,42.1523 L36.3154,42.1523 C33.9584,42.1523 32.0454,44.0633 32.0454,46.4213 L32.0454,50.6913 L71.4934,50.6913 L71.4934,46.4213 Z M50.4674,26.1333 L71.4934,26.1333 L71.4934,17.5943 L50.4674,17.5943 L50.4674,26.1333 Z M30.9064,25.3393 C32.0614,24.6733 32.8274,23.5273 33.0074,22.1953 C33.1314,21.2763 32.9124,20.2703 32.3874,19.3643 L26.3814,8.9613 C25.9034,8.1333 25.2454,7.5083 24.4804,7.1543 C23.1744,6.5493 21.7234,6.6053 20.4974,7.3093 L16.6164,9.5503 L26.5504,27.8533 L30.9064,25.3393 Z M75.2334,81.9803 L89.3934,81.9803 L85.4734,70.2223 C84.8924,68.4743 83.2654,67.3013 81.4234,67.3013 L75.2334,67.3013 L75.2334,81.9803 Z M75.2334,94.2613 L96.2594,94.2613 L96.2594,89.9903 C96.2594,87.6323 94.3474,85.7213 91.9894,85.7213 L75.2334,85.7213 L75.2334,94.2613 Z M2.8654,6.0803 L6.6304,3.9063 C7.8724,3.1903 9.3314,2.8633 10.7384,3.1353 C12.4584,3.4673 13.8834,4.5143 14.7074,6.0293 L14.8324,6.2613 L18.6264,4.0713 C22.4554,1.8633 27.3644,3.1793 29.5704,7.0033 L35.7094,17.6393 C37.9214,21.4693 36.6094,26.3673 32.7784,28.5793 L28.3354,31.1433 L32.7094,39.2003 L33.6844,38.8583 C34.5284,38.5633 35.4174,38.4123 36.3114,38.4123 L59.2114,38.4123 L59.2114,29.8733 L50.4834,29.8733 C48.4084,29.8733 46.7264,28.1903 46.7264,26.1153 L46.7264,17.6103 C46.7264,15.5353 48.4084,13.8533 50.4834,13.8533 L71.4754,13.8533 C73.5504,13.8533 75.2334,15.5353 75.2334,17.6103 L75.2334,26.1153 C75.2334,28.1903 73.5504,29.8733 71.4754,29.8733 L62.9534,29.8733 L62.9534,38.4123 L67.2234,38.4123 C71.6474,38.4123 75.2334,41.9983 75.2334,46.4213 L75.2334,63.5613 L81.4224,63.5613 C84.8714,63.5613 87.9324,65.7673 89.0224,69.0393 L93.3684,82.0723 L94.0024,82.2363 C97.5344,83.1513 100.0004,86.3383 100.0004,89.9853 L100.0004,96.5003 C100.0004,97.3283 99.3284,98.0003 98.5004,98.0003 L20.7894,98.0003 C14.9804,98.0003 10.0914,93.4403 9.8924,87.8353 C9.7864,84.8673 10.8814,82.0783 12.9764,79.9853 L24.3534,68.6073 L24.3344,68.4793 L22.2154,53.1603 L22.1344,53.0103 L0.7024,13.7843 C-0.7896,11.0553 0.1704,7.6353 2.8654,6.0803 L2.8654,6.0803 Z" id="icon_massage-chair" fill="#3A4B60"></path>
    </g>
</svg>