<?xml version="1.0" encoding="UTF-8"?>
<svg width="100px" height="100px" viewBox="0 0 100 100" version="1.1" xmlns="http://www.w3.org/2000/svg" xmlns:xlink="http://www.w3.org/1999/xlink">
    <title>icon / furniture / metal-locker</title>
    <g id="icon-/-furniture-/-metal-locker" stroke="none" stroke-width="1" fill="none" fill-rule="evenodd">
        <path d="M62.9424,15.8719 L85.5924,15.8719 C86.4014,15.8719 87.0574,15.2169 87.0574,14.4069 C87.0574,13.5989 86.4014,12.9419 85.5924,12.9419 L62.9424,12.9419 C62.1334,12.9419 61.4774,13.5989 61.4774,14.4069 C61.4774,15.2169 62.1334,15.8719 62.9424,15.8719 L62.9424,15.8719 Z M62.9424,22.3439 L85.5924,22.3439 C86.4014,22.3439 87.0574,21.6879 87.0574,20.8789 C87.0574,20.0689 86.4014,19.4139 85.5924,19.4139 L62.9424,19.4139 C62.1334,19.4139 61.4774,20.0689 61.4774,20.8789 C61.4774,21.6879 62.1334,22.3439 62.9424,22.3439 L62.9424,22.3439 Z M9.4014,84.1279 L42.0634,84.1279 L42.0634,9.4009 L9.4014,9.4009 L9.4014,84.1279 Z M44.9934,7.9359 L44.9934,85.5929 C44.9934,86.4009 44.3384,87.0579 43.5284,87.0579 L7.9364,87.0579 C7.1274,87.0579 6.4714,86.4009 6.4714,85.5929 L6.4714,7.9359 C6.4714,7.1269 7.1274,6.4719 7.9364,6.4719 L43.5284,6.4719 C44.3384,6.4719 44.9934,7.1269 44.9934,7.9359 L44.9934,7.9359 Z M70.8794,32.3559 L77.6564,32.3559 L77.6564,28.8149 L70.8794,28.8149 L70.8794,32.3559 Z M80.5864,27.3509 L80.5864,33.8209 C80.5864,34.6309 79.9304,35.2859 79.1214,35.2859 L69.4144,35.2859 C68.6044,35.2859 67.9494,34.6309 67.9494,33.8209 L67.9494,27.3509 C67.9494,26.5409 68.6044,25.8859 69.4144,25.8859 L79.1214,25.8859 C79.9294,25.8859 80.5864,26.5409 80.5864,27.3509 L80.5864,27.3509 Z M85.5924,44.9929 C86.4014,44.9929 87.0574,44.3379 87.0574,43.5279 C87.0574,42.7199 86.4014,42.0629 85.5924,42.0629 L82.3564,42.0629 C81.5474,42.0629 80.8914,42.7199 80.8914,43.5279 L80.8914,56.4719 C80.8914,57.2799 81.5474,57.9359 82.3564,57.9359 L85.5924,57.9359 C86.4014,57.9359 87.0574,57.2799 87.0574,56.4719 C87.0574,55.6619 86.4014,55.0069 85.5924,55.0069 L83.8214,55.0069 L83.8214,44.9929 L85.5924,44.9929 Z M57.9364,84.1279 L90.5984,84.1279 L90.5984,9.4009 L57.9364,9.4009 L57.9364,84.1279 Z M93.5284,7.9359 L93.5284,85.5929 C93.5284,86.4009 92.8734,87.0579 92.0634,87.0579 L56.4714,87.0579 C55.6624,87.0579 55.0064,86.4009 55.0064,85.5929 L55.0064,7.9359 C55.0064,7.1269 55.6624,6.4719 56.4714,6.4719 L92.0634,6.4719 C92.8734,6.4719 93.5284,7.1269 93.5284,7.9359 L93.5284,7.9359 Z M62.9424,80.5859 L69.4144,80.5859 C70.2234,80.5859 70.8794,79.9309 70.8794,79.1209 C70.8794,78.3119 70.2234,77.6559 69.4144,77.6559 L62.9424,77.6559 C62.1334,77.6559 61.4774,78.3119 61.4774,79.1209 C61.4774,79.9309 62.1334,80.5859 62.9424,80.5859 L62.9424,80.5859 Z M62.9424,74.1139 L69.4144,74.1139 C70.2234,74.1139 70.8794,73.4589 70.8794,72.6489 C70.8794,71.8409 70.2234,71.1849 69.4144,71.1849 L62.9424,71.1849 C62.1334,71.1849 61.4774,71.8409 61.4774,72.6489 C61.4774,73.4589 62.1334,74.1139 62.9424,74.1139 L62.9424,74.1139 Z M62.9424,67.6429 L69.4144,67.6429 C70.2234,67.6429 70.8794,66.9869 70.8794,66.1789 C70.8794,65.3689 70.2234,64.7139 69.4144,64.7139 L62.9424,64.7139 C62.1334,64.7139 61.4774,65.3689 61.4774,66.1789 C61.4774,66.9869 62.1334,67.6429 62.9424,67.6429 L62.9424,67.6429 Z M97.0704,88.8279 L97.0704,88.8279 L97.0704,4.6999 C97.0704,3.7239 96.2754,2.9299 95.2984,2.9299 L53.2354,2.9299 C52.2584,2.9299 51.4644,3.7239 51.4644,4.6999 L51.4644,88.8279 C51.4644,89.8049 52.2584,90.5989 53.2354,90.5989 L59.7074,90.5989 L88.8284,90.5989 L95.2994,90.5989 C96.2764,90.5989 97.0704,89.8049 97.0704,88.8279 L97.0704,88.8279 Z M90.2934,97.0699 L93.8354,97.0699 L93.8354,93.5279 L90.2934,93.5279 L90.2934,97.0699 Z M54.7004,97.0699 L58.2424,97.0699 L58.2424,93.5279 L54.7004,93.5279 L54.7004,97.0699 Z M48.5354,4.6999 C48.5354,3.7239 47.7404,2.9299 46.7634,2.9299 L4.7004,2.9299 C3.7234,2.9299 2.9294,3.7239 2.9294,4.6999 L2.9294,88.8279 C2.9294,89.8049 3.7234,90.5989 4.7004,90.5989 L11.1714,90.5989 L40.2934,90.5989 L46.7634,90.5989 C47.7404,90.5989 48.5354,89.8049 48.5354,88.8279 L48.5354,4.6999 Z M41.7574,97.0699 L45.2994,97.0699 L45.2994,93.5279 L41.7574,93.5279 L41.7574,97.0699 Z M6.1654,97.0699 L9.7074,97.0699 L9.7074,93.5279 L6.1654,93.5279 L6.1654,97.0699 Z M100.0004,4.6999 L100.0004,88.8279 C100.0004,90.9079 98.6404,92.6769 96.7644,93.2939 L96.7644,98.5349 C96.7644,99.3449 96.1084,99.9999 95.2994,99.9999 L88.8284,99.9999 C88.0184,99.9999 87.3634,99.3449 87.3634,98.5349 L87.3634,93.5279 L61.1714,93.5279 L61.1714,98.5349 C61.1714,99.3449 60.5164,99.9999 59.7074,99.9999 L53.2354,99.9999 C52.4264,99.9999 51.7704,99.3449 51.7704,98.5349 L51.7704,93.2939 C51.1014,93.0739 50.4994,92.7069 50.0004,92.2319 C49.5014,92.7069 48.8984,93.0729 48.2294,93.2939 L48.2294,98.5349 C48.2294,99.3449 47.5734,99.9999 46.7644,99.9999 L40.2934,99.9999 C39.4844,99.9999 38.8284,99.3449 38.8284,98.5349 L38.8284,93.5279 L12.6364,93.5279 L12.6364,98.5349 C12.6364,99.3449 11.9804,99.9999 11.1714,99.9999 L4.7004,99.9999 C3.8914,99.9999 3.2354,99.3449 3.2354,98.5349 L3.2354,93.2939 C1.3594,92.6769 0.0004,90.9079 0.0004,88.8279 L0.0004,4.6999 C0.0004,2.1079 2.1084,-0.0001 4.7004,-0.0001 L46.7644,-0.0001 C48.0174,-0.0001 49.1564,0.4939 50.0004,1.2959 C50.8434,0.4939 51.9824,-0.0001 53.2354,-0.0001 L95.2994,-0.0001 C97.8914,-0.0001 100.0004,2.1079 100.0004,4.6999 L100.0004,4.6999 Z M14.4074,15.8719 L37.0574,15.8719 C37.8664,15.8719 38.5224,15.2169 38.5224,14.4069 C38.5224,13.5989 37.8664,12.9419 37.0574,12.9419 L14.4074,12.9419 C13.5984,12.9419 12.9424,13.5989 12.9424,14.4069 C12.9424,15.2169 13.5984,15.8719 14.4074,15.8719 L14.4074,15.8719 Z M14.4074,22.3439 L37.0574,22.3439 C37.8664,22.3439 38.5224,21.6879 38.5224,20.8789 C38.5224,20.0689 37.8664,19.4139 37.0574,19.4139 L14.4074,19.4139 C13.5984,19.4139 12.9424,20.0689 12.9424,20.8789 C12.9424,21.6879 13.5984,22.3439 14.4074,22.3439 L14.4074,22.3439 Z M37.0574,44.9929 C37.8664,44.9929 38.5224,44.3379 38.5224,43.5279 C38.5224,42.7199 37.8664,42.0629 37.0574,42.0629 L33.8214,42.0629 C33.0124,42.0629 32.3564,42.7199 32.3564,43.5279 L32.3564,56.4719 C32.3564,57.2799 33.0124,57.9359 33.8214,57.9359 L37.0574,57.9359 C37.8664,57.9359 38.5224,57.2799 38.5224,56.4719 C38.5224,55.6619 37.8664,55.0069 37.0574,55.0069 L35.2864,55.0069 L35.2864,44.9929 L37.0574,44.9929 Z M22.3444,32.3559 L29.1214,32.3559 L29.1214,28.8149 L22.3444,28.8149 L22.3444,32.3559 Z M32.0504,27.3509 L32.0504,33.8209 C32.0504,34.6309 31.3944,35.2859 30.5864,35.2859 L20.8794,35.2859 C20.0704,35.2859 19.4144,34.6309 19.4144,33.8209 L19.4144,27.3509 C19.4144,26.5409 20.0704,25.8859 20.8794,25.8859 L30.5864,25.8859 C31.3944,25.8859 32.0504,26.5409 32.0504,27.3509 L32.0504,27.3509 Z M14.4074,67.6429 L20.8794,67.6429 C21.6874,67.6429 22.3434,66.9869 22.3434,66.1789 C22.3434,65.3689 21.6874,64.7139 20.8794,64.7139 L14.4074,64.7139 C13.5984,64.7139 12.9424,65.3689 12.9424,66.1789 C12.9424,66.9869 13.5984,67.6429 14.4074,67.6429 L14.4074,67.6429 Z M14.4074,74.1139 L20.8794,74.1139 C21.6874,74.1139 22.3434,73.4589 22.3434,72.6489 C22.3434,71.8409 21.6874,71.1849 20.8794,71.1849 L14.4074,71.1849 C13.5984,71.1849 12.9424,71.8409 12.9424,72.6489 C12.9424,73.4589 13.5984,74.1139 14.4074,74.1139 L14.4074,74.1139 Z M12.9424,79.1209 C12.9424,78.3119 13.5984,77.6559 14.4074,77.6559 L20.8794,77.6559 C21.6874,77.6559 22.3434,78.3119 22.3434,79.1209 C22.3434,79.9309 21.6874,80.5859 20.8794,80.5859 L14.4074,80.5859 C13.5984,80.5859 12.9424,79.9309 12.9424,79.1209 L12.9424,79.1209 Z" id="icon_metal-locker" fill="#3A4B60"></path>
    </g>
</svg>