<?xml version="1.0" encoding="UTF-8"?>
<svg width="100px" height="100px" viewBox="0 0 100 100" version="1.1" xmlns="http://www.w3.org/2000/svg" xmlns:xlink="http://www.w3.org/1999/xlink">
    <title>icon / furniture / microwave</title>
    <g id="icon-/-furniture-/-microwave" stroke="none" stroke-width="1" fill="none" fill-rule="evenodd">
        <path d="M84.783,66.86 C84.783,68.686 86.267,70.171 88.094,70.171 C88.44,70.171 88.783,70.116 89.114,70.007 L89.492,69.884 L85.069,65.462 L84.946,65.839 C84.838,66.171 84.783,66.513 84.783,66.86 L84.783,66.86 Z M86.695,63.836 L91.12,68.259 L91.243,67.88 C91.35,67.547 91.405,67.204 91.405,66.86 C91.405,65.034 89.92,63.549 88.094,63.549 C87.747,63.549 87.403,63.604 87.073,63.713 L86.695,63.836 Z M82.482,66.86 C82.482,63.766 84.999,61.249 88.094,61.249 C91.187,61.249 93.705,63.766 93.705,66.86 C93.705,69.955 91.187,72.471 88.094,72.471 C84.999,72.471 82.482,69.955 82.482,66.86 L82.482,66.86 Z M69.779,71.569 C70.516,71.569 71.116,70.969 71.116,70.232 L71.116,29.767 C71.116,29.029 70.516,28.43 69.779,28.43 C69.042,28.43 68.442,29.029 68.442,29.767 L68.442,70.232 C68.442,70.969 69.042,71.569 69.779,71.569 L69.779,71.569 Z M11.103,68.895 L60.698,68.895 L60.698,31.103 L11.103,31.103 L11.103,68.895 Z M8.43,70.232 L8.43,29.767 C8.43,29.029 9.03,28.43 9.767,28.43 L62.035,28.43 C62.772,28.43 63.371,29.029 63.371,29.767 L63.371,70.232 C63.371,70.969 62.772,71.569 62.035,71.569 L9.767,71.569 C9.03,71.569 8.43,70.969 8.43,70.232 L8.43,70.232 Z M84.771,36.161 L91.416,36.161 C92.139,36.161 92.728,35.562 92.728,34.825 C92.728,34.088 92.139,33.488 91.416,33.488 L84.771,33.488 C84.048,33.488 83.459,34.088 83.459,34.825 C83.459,35.562 84.048,36.161 84.771,36.161 L84.771,36.161 Z M97.327,24.709 C97.327,23.587 96.414,22.673 95.292,22.673 L78.86,22.673 L78.86,77.325 L95.292,77.325 C96.414,77.325 97.327,76.413 97.327,75.291 L97.327,24.709 Z M76.187,22.673 L4.709,22.673 C3.586,22.673 2.673,23.587 2.673,24.709 L2.673,75.291 C2.673,76.413 3.586,77.325 4.709,77.325 L76.187,77.325 L76.187,22.673 Z M100,24.709 L100,75.291 C100,77.886 97.887,80 95.292,80 L4.709,80 C2.112,80 0,77.886 0,75.291 L0,24.709 C0,22.112 2.112,20 4.709,20 L95.292,20 C97.887,20 100,22.112 100,24.709 L100,24.709 Z M91.405,51.685 C91.405,49.86 89.92,48.375 88.094,48.375 C87.747,48.375 87.403,48.429 87.073,48.538 L86.695,48.661 L91.12,53.085 L91.243,52.705 C91.35,52.372 91.405,52.03 91.405,51.685 L91.405,51.685 Z M89.492,54.71 L85.069,50.287 L84.946,50.665 C84.838,50.996 84.783,51.339 84.783,51.685 C84.783,53.511 86.267,54.996 88.094,54.996 C88.44,54.996 88.783,54.942 89.114,54.833 L89.492,54.71 Z M93.705,51.685 C93.705,54.78 91.187,57.297 88.094,57.297 C84.999,57.297 82.482,54.78 82.482,51.685 C82.482,48.591 84.999,46.075 88.094,46.075 C91.187,46.075 93.705,48.591 93.705,51.685 L93.705,51.685 Z M91.416,28.43 L84.771,28.43 C84.048,28.43 83.459,29.029 83.459,29.767 C83.459,30.504 84.048,31.103 84.771,31.103 L91.416,31.103 C92.139,31.103 92.728,30.504 92.728,29.767 C92.728,29.029 92.139,28.43 91.416,28.43 L91.416,28.43 Z M83.459,39.883 C83.459,39.146 84.048,38.547 84.771,38.547 L91.416,38.547 C92.139,38.547 92.728,39.146 92.728,39.883 C92.728,40.62 92.139,41.219 91.416,41.219 L84.771,41.219 C84.048,41.219 83.459,40.62 83.459,39.883 L83.459,39.883 Z" id="icon_microwave" fill="#3A4B60"></path>
    </g>
</svg>