<?xml version="1.0" encoding="UTF-8"?>
<svg width="100px" height="100px" viewBox="0 0 100 100" version="1.1" xmlns="http://www.w3.org/2000/svg" xmlns:xlink="http://www.w3.org/1999/xlink">
    <title>icon / furniture / microwave-cart</title>
    <g id="icon-/-furniture-/-microwave-cart" stroke="none" stroke-width="1" fill="none" fill-rule="evenodd">
        <path d="M40.068,6.3921 L40.068,6.3921 C40.068,5.6231 40.691,4.9991 41.461,4.9991 L58.539,4.9991 C59.308,4.9991 59.931,5.6231 59.931,6.3921 C59.931,7.1621 59.308,7.7861 58.539,7.7861 L41.461,7.7861 C40.691,7.7861 40.068,7.1621 40.068,6.3921 L40.068,6.3921 Z M43.392,68.7421 L43.392,75.8201 C43.392,76.5891 42.769,77.2121 42,77.2121 C41.23,77.2121 40.607,76.5891 40.607,75.8201 L40.607,68.7421 C40.607,67.9721 41.23,67.3491 42,67.3491 C42.769,67.3491 43.392,67.9721 43.392,68.7421 L43.392,68.7421 Z M56.607,75.8201 L56.607,68.7421 C56.607,67.9721 57.23,67.3491 58,67.3491 C58.769,67.3491 59.392,67.9721 59.392,68.7421 L59.392,75.8201 C59.392,76.5891 58.769,77.2121 58,77.2121 C57.23,77.2121 56.607,76.5891 56.607,75.8201 L56.607,75.8201 Z M19.192,19.8611 C19.192,19.7021 19.321,19.5731 19.48,19.5731 L80.519,19.5731 C80.678,19.5731 80.807,19.7021 80.807,19.8611 L80.807,48.9501 C80.807,49.1081 80.678,49.2371 80.52,49.2371 L19.48,49.2371 C19.322,49.2371 19.192,49.1071 19.192,48.9491 L19.192,19.8611 Z M19.48,52.0231 L80.519,52.0231 C82.216,52.0231 83.592,50.6471 83.592,48.9501 L83.592,19.8611 C83.592,18.1631 82.216,16.7881 80.519,16.7881 L19.48,16.7881 C17.783,16.7881 16.407,18.1631 16.407,19.8611 L16.407,48.9501 C16.407,50.6471 17.783,52.0231 19.48,52.0231 L19.48,52.0231 Z M23.362,95.8231 C23.176,96.5781 22.556,97.1961 21.8,97.3771 C20.196,97.7641 18.78,96.3491 19.167,94.7441 C19.349,93.9891 19.966,93.3691 20.721,93.1831 C22.333,92.7871 23.758,94.2111 23.362,95.8231 L23.362,95.8231 Z M22.548,90.7281 C18.961,89.7761 15.762,92.9721 16.714,96.5611 C17.132,98.1371 18.407,99.4121 19.984,99.8301 C23.572,100.7821 26.768,97.5831 25.817,93.9961 C25.399,92.4201 24.125,91.1461 22.548,90.7281 L22.548,90.7281 Z M80.83,95.8231 C80.644,96.5781 80.024,97.1961 79.269,97.3771 C77.664,97.7641 76.249,96.3491 76.635,94.7441 C76.817,93.9891 77.435,93.3691 78.19,93.1831 C79.801,92.7871 81.226,94.2111 80.83,95.8231 L80.83,95.8231 Z M80.017,90.7281 C76.429,89.7761 73.231,92.9721 74.183,96.5611 C74.601,98.1371 75.876,99.4121 77.452,99.8301 C81.041,100.7821 84.237,97.5831 83.285,93.9961 C82.867,92.4201 81.592,91.1461 80.017,90.7281 L80.017,90.7281 Z M87.714,56.0251 L12.285,56.0251 L12.285,13.0871 C12.285,12.9201 12.42,12.7851 12.587,12.7851 L87.714,12.7851 L87.714,56.0251 Z M87.714,86.4081 C87.714,86.5741 87.579,86.7091 87.414,86.7091 L51.392,86.7091 L51.392,58.8101 L87.714,58.8101 L87.714,86.4081 Z M12.587,86.7091 C12.421,86.7091 12.285,86.5731 12.285,86.4071 L12.285,58.8101 L48.607,58.8101 L48.607,86.7091 L12.587,86.7091 Z M10.284,3.0871 C10.284,2.9201 10.42,2.7861 10.586,2.7861 L89.413,2.7861 C89.58,2.7861 89.714,2.9201 89.714,3.0871 L89.714,9.6981 C89.714,9.8651 89.58,9.9991 89.413,9.9991 L10.586,9.9991 C10.42,9.9991 10.284,9.8651 10.284,9.6981 L10.284,3.0871 Z M89.413,0.0001 L10.586,0.0001 C8.881,0.0001 7.5,1.3821 7.5,3.0861 L7.5,9.6991 C7.5,11.0191 8.334,12.1371 9.5,12.5781 L9.5,86.4081 C9.5,88.1121 10.881,89.4941 12.587,89.4941 L15.231,89.4941 C13.77,91.0211 12.926,93.0581 12.901,95.1761 C12.892,95.8671 13.362,96.4551 13.993,96.5441 C14.056,96.5531 14.118,96.5581 14.18,96.5581 C14.522,96.5581 14.844,96.4241 15.089,96.1781 C15.377,95.8871 15.506,95.4861 15.442,95.0771 C15.208,93.5431 15.635,92.1851 16.616,91.3501 C19.229,89.1261 22.316,88.8291 24.819,90.6711 C26.298,91.7611 26.904,93.5721 27.079,95.4011 C27.111,95.7281 27.266,96.0311 27.517,96.2471 C27.8,96.4921 28.178,96.5971 28.548,96.5431 C29.173,96.4491 29.638,95.8621 29.63,95.1781 C29.605,93.0591 28.762,91.0221 27.3,89.4941 L72.7,89.4941 C71.238,91.0211 70.395,93.0581 70.37,95.1761 C70.361,95.8671 70.831,96.4551 71.462,96.5441 C71.871,96.6031 72.268,96.4691 72.556,96.1781 C72.844,95.8881 72.973,95.4861 72.912,95.0771 C72.675,93.5431 73.103,92.1851 74.085,91.3501 C76.698,89.1261 79.785,88.8291 82.287,90.6711 C83.766,91.7611 84.372,93.5721 84.547,95.4011 C84.579,95.7281 84.735,96.0311 84.986,96.2471 C85.269,96.4921 85.647,96.5971 86.017,96.5431 C86.642,96.4491 87.107,95.8621 87.098,95.1781 C87.074,93.0591 86.231,91.0221 84.768,89.4941 L86.603,89.4941 C88.756,89.4941 90.5,87.7491 90.5,85.5981 L90.5,12.5781 C91.666,12.1371 92.5,11.0191 92.5,9.6991 L92.5,3.0861 C92.5,1.3821 91.118,0.0001 89.413,0.0001 L89.413,0.0001 Z" id="icon_microwave-cart" fill="#3A4B60"></path>
    </g>
</svg>