<?xml version="1.0" encoding="UTF-8"?>
<svg width="100px" height="100px" viewBox="0 0 100 100" version="1.1" xmlns="http://www.w3.org/2000/svg" xmlns:xlink="http://www.w3.org/1999/xlink">
    <title>icon / furniture / miter-saw</title>
    <g id="icon-/-furniture-/-miter-saw" stroke="none" stroke-width="1" fill="none" fill-rule="evenodd">
        <path d="M97.03,90.89 L2.97,90.89 L2.97,82.276 L7.926,82.276 C8.412,86.614 12.1,89.998 16.566,89.998 C21.032,89.998 24.72,86.614 25.206,82.276 L97.03,82.276 L97.03,90.89 Z M84.454,97.03 L91.285,97.03 L91.285,93.861 L84.454,93.861 L84.454,97.03 Z M15.547,97.03 L15.546,97.03 L8.715,97.03 L8.715,93.861 L15.547,93.861 L15.547,97.03 Z M10.841,74.706 L79.273,6.269 L81.742,8.738 L22.726,67.759 C22.447,68.037 22.291,68.415 22.291,68.809 L22.291,81.302 C22.291,84.459 19.722,87.028 16.566,87.028 C13.409,87.028 10.841,84.459 10.841,81.302 L10.841,74.706 Z M15.886,36.952 C16.58,28.217 20.379,19.99 26.584,13.785 C32.788,7.579 41.014,3.78 49.749,3.086 C57.797,2.448 65.83,4.46 72.569,8.772 L21.571,59.775 C17.26,53.035 15.247,44.998 15.886,36.952 L15.886,36.952 Z M49.276,45.407 L58.195,36.488 C59.74,38.986 59.432,42.314 57.267,44.478 C56.044,45.702 54.417,46.376 52.686,46.376 C51.462,46.376 50.291,46.037 49.276,45.407 L49.276,45.407 Z M77.796,21.097 L76.956,25.572 C76.826,26.266 77.203,26.956 77.858,27.222 L82.076,28.931 L80.003,32.984 C79.681,33.614 79.847,34.383 80.402,34.823 L83.967,37.655 L80.839,40.963 C80.352,41.478 80.297,42.264 80.705,42.841 L83.334,46.559 L79.402,48.855 C78.792,49.211 78.517,49.949 78.746,50.618 L80.218,54.924 L75.799,56.011 C75.111,56.18 74.638,56.81 74.669,57.517 L74.864,62.068 L70.314,61.872 C69.606,61.843 68.976,62.315 68.808,63.001 L67.721,67.421 L63.415,65.95 C62.746,65.721 62.009,65.995 61.653,66.606 L59.357,70.537 L55.64,67.91 C55.062,67.5 54.276,67.556 53.762,68.042 L50.454,71.172 L47.623,67.606 C47.182,67.051 46.413,66.885 45.783,67.207 L41.731,69.28 L40.022,65.062 C39.757,64.407 39.066,64.03 38.372,64.16 L33.897,64.999 L33.519,61.166 L47.138,47.546 C48.741,48.714 50.665,49.347 52.686,49.347 C55.211,49.347 57.584,48.364 59.368,46.578 C62.695,43.251 63.016,38.04 60.336,34.348 L73.964,20.719 L77.796,21.097 Z M98.514,79.305 L25.261,79.305 L25.261,69.424 L30.801,63.883 L31.1,66.904 C31.141,67.318 31.354,67.696 31.687,67.946 C32.02,68.196 32.443,68.294 32.852,68.217 L37.724,67.303 L39.586,71.898 C39.743,72.285 40.053,72.587 40.444,72.732 C40.834,72.877 41.268,72.852 41.638,72.662 L46.051,70.406 L49.134,74.287 C49.393,74.614 49.777,74.816 50.192,74.845 C50.227,74.848 50.262,74.849 50.297,74.849 C50.676,74.849 51.041,74.704 51.317,74.443 L54.918,71.037 L58.965,73.899 C59.304,74.139 59.73,74.226 60.136,74.138 C60.544,74.05 60.894,73.795 61.104,73.435 L63.604,69.154 L68.295,70.757 C68.689,70.892 69.122,70.855 69.487,70.655 C69.853,70.454 70.118,70.111 70.218,69.706 L71.401,64.893 L76.352,65.105 C76.772,65.123 77.173,64.965 77.467,64.671 C77.76,64.377 77.918,63.973 77.9,63.557 L77.688,58.605 L82.501,57.421 C82.906,57.322 83.25,57.057 83.45,56.692 C83.649,56.326 83.686,55.893 83.551,55.498 L81.949,50.807 L86.23,48.308 C86.59,48.098 86.844,47.746 86.932,47.339 C87.021,46.932 86.934,46.507 86.694,46.167 L83.833,42.12 L87.238,38.52 C87.524,38.217 87.67,37.809 87.64,37.393 C87.611,36.978 87.408,36.594 87.083,36.335 L83.201,33.253 L85.458,28.84 C85.647,28.469 85.673,28.036 85.527,27.645 C85.383,27.255 85.08,26.944 84.693,26.787 L80.098,24.925 L81.012,20.052 C81.09,19.643 80.991,19.221 80.741,18.888 C80.492,18.555 80.113,18.342 79.699,18.301 L76.679,18.002 L84.892,9.788 C85.472,9.208 85.472,8.268 84.892,7.688 L80.323,3.119 C79.742,2.538 78.802,2.538 78.222,3.119 L74.715,6.626 C67.321,1.723 58.424,-0.583 49.512,0.125 C40.076,0.874 31.186,4.98 24.483,11.684 C17.78,18.388 13.675,27.278 12.926,36.716 C12.217,45.627 14.522,54.527 19.426,61.92 L8.305,73.04 C8.026,73.32 7.87,73.698 7.87,74.091 L7.87,79.305 L1.485,79.305 C0.665,79.305 0,79.97 0,80.79 L0,92.375 C0,93.196 0.665,93.861 1.485,93.861 L5.745,93.861 L5.745,98.515 C5.745,99.335 6.41,100 7.23,100 L17.031,100 C17.851,100 18.516,99.335 18.516,98.515 L18.516,93.861 L81.483,93.861 L81.483,98.515 C81.483,99.335 82.148,100 82.968,100 L92.77,100 C93.591,100 94.256,99.335 94.256,98.515 L94.256,93.861 L98.514,93.861 C99.335,93.861 100,93.196 100,92.375 L100,80.79 C100,79.97 99.335,79.305 98.514,79.305 L98.514,79.305 Z M16.549,79.008 C17.531,79.008 18.331,79.807 18.331,80.79 C18.331,81.773 17.531,82.573 16.549,82.573 C15.566,82.573 14.766,81.773 14.766,80.79 C14.767,79.807 15.566,79.008 16.549,79.008 L16.549,79.008 Z M16.549,85.542 C19.169,85.542 21.301,83.411 21.301,80.789 C21.301,78.169 19.17,76.036 16.549,76.036 C13.928,76.036 11.797,78.169 11.797,80.789 C11.797,83.411 13.928,85.542 16.549,85.542 L16.549,85.542 Z" id="icon_miter-saw" fill="#3A4B60"></path>
    </g>
</svg>