<?xml version="1.0" encoding="UTF-8"?>
<svg width="100px" height="100px" viewBox="0 0 100 100" version="1.1" xmlns="http://www.w3.org/2000/svg">
    <title>icon / furniture / mobility-scooter</title>
    <g id="icon-/-furniture-/-mobility-scooter" stroke="none" stroke-width="1" fill="none" fill-rule="evenodd">
        <path d="M86.17,77.7681892 C87.033,77.7681892 87.735,77.0661892 87.735,76.2021892 C87.735,75.3371892 87.033,74.6351892 86.17,74.6351892 C85.307,74.6351892 84.605,75.3371892 84.605,76.2021892 C84.605,77.0661892 85.307,77.7681892 86.17,77.7681892 L86.17,77.7681892 Z M3.133,76.2031892 C3.133,82.0831892 7.932,86.8691892 13.831,86.8691892 C19.729,86.8691892 24.527,82.0831892 24.528,76.2031892 C24.528,70.3211892 19.729,65.5361892 13.831,65.5361892 C7.932,65.5361892 3.133,70.3211892 3.133,76.2031892 L3.133,76.2031892 Z M7.221,64.0691892 L7.799,63.7871892 C9.689,62.8691892 11.718,62.4031892 13.83,62.4031892 C19.15,62.4031892 24.061,65.5141892 26.341,70.3291892 L26.449,70.5591892 L36.52,70.5591892 L36.52,54.3801892 L7.221,54.3791892 L7.221,64.0691892 Z M23.084,51.2481892 L45.513,51.2481892 C48.03,51.2481892 50.079,49.2071892 50.079,46.6981892 C50.079,44.1891892 48.03,42.1481892 45.513,42.1481892 L27.378,42.1481892 C25.011,42.1481892 22.876,40.6571892 22.065,38.4351892 L13.82,16.1271892 C13.165,14.3361892 11.439,13.1311892 9.524,13.1311892 C8.992,13.1311892 8.466,13.2241892 7.964,13.4091892 C6.816,13.8261892 5.901,14.6631892 5.387,15.7661892 C4.874,16.8661892 4.821,18.0991892 5.236,19.2401892 L14.951,45.5701892 C16.191,48.9661892 19.459,51.2481892 23.084,51.2481892 L23.084,51.2481892 Z M27.438,73.6901892 L27.507,74.1541892 C27.609,74.8291892 27.66,75.5181892 27.66,76.2031892 C27.66,76.8851892 27.609,77.5751892 27.507,78.2501892 L27.437,78.7131892 L72.562,78.7131892 L72.492,78.2501892 C72.391,77.5761892 72.34,76.8861892 72.34,76.2031892 C72.34,75.5241892 72.391,74.8341892 72.492,74.1541892 L72.562,73.6901892 L27.438,73.6901892 Z M61.092,70.5591892 L73.552,70.5591892 L73.659,70.3291892 C74.352,68.8671892 75.285,67.5491892 76.434,66.4131892 L76.629,66.2181892 L71.749,54.8821892 L71.385,55.7621892 C69.589,60.0841892 66.493,66.0381892 61.941,69.8461892 L61.092,70.5591892 Z M79.14,64.1261892 L79.205,64.2771892 L79.592,64.0671892 C81.167,63.2121892 82.872,62.6811892 84.659,62.4871892 L85.215,62.4271892 L67.732,24.2571892 L67.489,23.7351892 L67.081,24.1421892 C66.048,25.1741892 64.678,25.7621892 63.222,25.7991892 L62.627,25.8151892 L79.14,64.1261892 Z M63.078,22.6701892 C64.47,22.6701892 65.601,21.5441892 65.601,20.1601892 C65.601,18.7741892 64.47,17.6481892 63.078,17.6481892 L50.816,17.6481892 C49.425,17.6481892 48.294,18.7741892 48.294,20.1601892 C48.294,21.5441892 49.425,22.6701892 50.816,22.6701892 L63.078,22.6701892 Z M76.149,35.1691892 L82.854,49.7811892 L82.913,49.9091892 L83.265,49.7741892 C85.614,48.8771892 87.913,47.3821892 89.736,45.5641892 C92.459,42.8471892 94.135,39.4101892 94.585,35.6201892 L94.638,35.1691892 L76.149,35.1691892 Z M86.17,65.5361892 C80.272,65.5361892 75.472,70.3211892 75.472,76.2031892 C75.472,82.0831892 80.272,86.8691892 86.17,86.8691892 C92.069,86.8691892 96.867,82.0831892 96.867,76.2031892 C96.867,70.3211892 92.069,65.5361892 86.17,65.5361892 L86.17,65.5361892 Z M0,76.2031892 C0,72.5701892 1.411,69.1361892 3.972,66.5371892 L4.088,66.4191892 L4.088,52.8141892 C4.088,51.9501892 4.791,51.2471892 5.654,51.2471892 L15.035,51.2471892 L14.41,50.5721892 C13.349,49.4251892 12.541,48.1031892 12.007,46.6421892 L2.294,20.3121892 C1.59,18.3861892 1.681,16.3021892 2.547,14.4421892 C3.416,12.5791892 4.961,11.1651892 6.896,10.4631892 C10.884,9.01518921 15.312,11.0761892 16.763,15.0561892 L25.009,37.3631892 C25.37,38.3511892 26.323,39.0161892 27.378,39.0161892 L45.513,39.0161892 C49.758,39.0161892 53.211,42.4611892 53.211,46.6981892 C53.211,50.9341892 49.758,54.3801892 45.513,54.3801892 L39.653,54.3801892 L39.653,70.5591892 L53.92,70.5501892 C57.915,69.8601892 61.652,66.7371892 65.027,61.2691892 C67.67,56.9861892 69.299,52.5171892 69.877,50.7951892 L69.925,50.6501892 L59.249,25.8941892 L59.209,25.8031892 L50.816,25.8031892 C47.698,25.8031892 45.161,23.2711892 45.161,20.1601892 C45.161,17.0471892 47.698,14.5151892 50.816,14.5151892 L63.078,14.5151892 C65.33,14.5151892 67.371,15.8581892 68.276,17.9391892 L74.709,32.0381892 L96.27,32.0381892 C97.134,32.0381892 97.836,32.7401892 97.836,33.6041892 C97.836,38.9581892 95.746,43.9951892 91.95,47.7821892 C89.886,49.8411892 87.283,51.5541892 84.62,52.6061892 L84.226,52.7631892 L88.729,62.5761892 L88.761,62.6451892 L88.962,62.6851892 C95.358,63.9981892 100,69.6831892 100,76.2031892 C100,83.8101892 93.796,89.9991892 86.17,89.9991892 C80.85,89.9991892 75.939,86.8891892 73.659,82.0751892 L73.551,81.8451892 L26.45,81.8451892 L26.341,82.0751892 C24.062,86.8891892 19.151,89.9991892 13.831,89.9991892 C6.205,89.9991892 0,83.8101892 0,76.2031892 L0,76.2031892 Z M12.263,76.2021892 C12.263,75.3371892 12.966,74.6351892 13.83,74.6351892 C14.693,74.6351892 15.396,75.3371892 15.396,76.2021892 C15.396,77.0661892 14.693,77.7681892 13.83,77.7681892 C12.966,77.7681892 12.263,77.0661892 12.263,76.2021892 L12.263,76.2021892 Z"
              id="icon_mobility-scooter" fill="#3A4B60"></path>
    </g>
</svg>