<?xml version="1.0" encoding="UTF-8"?>
<svg width="100px" height="100px" viewBox="0 0 100 100" version="1.1" xmlns="http://www.w3.org/2000/svg" xmlns:xlink="http://www.w3.org/1999/xlink">
    <title>icon / furniture / moped_scooter</title>
    <g id="icon-/-furniture-/-moped_scooter" stroke="none" stroke-width="1" fill="none" fill-rule="evenodd">
        <path d="M2.9587,76.7461 C3.0067,76.8071 3.0647,76.8051 3.0837,76.8061 C3.1317,76.8051 3.1767,76.7821 3.2057,76.7431 L6.8307,71.8461 L4.1637,71.8461 L2.9307,76.6121 C2.9257,76.6301 2.9107,76.6851 2.9587,76.7461 L2.9587,76.7461 Z M44.0567,68.9221 C44.8637,68.9221 45.5187,69.5761 45.5187,70.3841 C45.5187,71.1911 44.8637,71.8461 44.0567,71.8461 L40.2297,71.8461 C41.1507,75.0651 44.1437,77.4151 47.6057,77.4151 L63.3127,77.4151 C68.9267,77.4151 73.7437,73.5991 75.0267,68.1341 L78.5737,53.0351 C79.0317,51.0831 78.7677,49.0331 77.8277,47.2621 L68.4557,31.9761 C67.8627,30.8581 68.2357,29.4531 69.2917,28.7841 L71.2877,27.4891 C72.8207,26.4951 73.3057,24.4761 72.3927,22.8951 C71.9187,22.0731 71.1487,21.4981 70.2277,21.2751 C69.3057,21.0531 68.3577,21.2131 67.5617,21.7271 L62.7817,24.8081 C63.7567,25.1281 64.4637,26.0451 64.4637,27.1251 L64.4637,30.3031 C64.4637,31.6461 63.3707,32.7381 62.0267,32.7381 L61.1387,32.7381 L70.0887,47.2251 C71.3577,49.6211 71.7167,52.3951 71.0967,55.0361 L68.3867,66.5741 C67.8297,68.9401 65.7437,70.5941 63.3127,70.5941 L51.2697,70.5941 C50.7567,70.5941 50.3067,70.3291 50.0457,69.9301 C49.6657,69.5931 49.4717,69.0681 49.5837,68.5351 L52.6967,53.7331 C52.9707,52.4341 52.6467,51.0991 51.8107,50.0671 C50.9747,49.0361 49.7327,48.4451 48.4047,48.4451 L28.9347,48.4451 C17.5017,48.4451 7.4957,56.5651 5.1427,67.7541 L4.8957,68.9221 L44.0567,68.9221 Z M22.9117,87.0761 C27.1537,87.0761 30.7147,84.1131 31.6397,80.1491 L24.7467,82.8251 C24.1377,83.0611 23.5097,83.1741 22.8927,83.1741 C20.8347,83.1741 18.8867,81.9281 18.0977,79.8951 C17.0717,77.2551 18.3857,74.2721 21.0257,73.2471 L24.6357,71.8461 L16.5017,71.8461 C14.8727,73.5151 13.9457,75.7701 13.9457,78.1121 C13.9457,83.0551 17.9677,87.0761 22.9117,87.0761 L22.9117,87.0761 Z M32.9867,76.4891 L38.1407,74.4881 C37.7237,73.6641 37.4117,72.7761 37.2237,71.8461 L32.7137,71.8461 L22.0857,75.9731 C20.9477,76.4141 20.3807,77.6991 20.8227,78.8381 C21.0367,79.3891 21.4527,79.8231 21.9937,80.0611 C22.5347,80.3001 23.1367,80.3131 23.6877,80.1001 L32.6357,76.6261 C32.7447,76.5661 32.8627,76.5191 32.9867,76.4891 L32.9867,76.4891 Z M61.5397,27.6111 L50.3837,27.6111 C49.7757,27.6111 49.2817,28.1061 49.2817,28.7141 C49.2817,29.3201 49.7757,29.8151 50.3837,29.8151 L61.5397,29.8151 L61.5397,27.6111 Z M52.7927,43.2261 C52.7927,41.8671 51.6877,40.7621 50.3277,40.7621 L20.8537,40.7621 C19.9857,40.7621 19.2487,41.4261 19.2097,42.2431 C19.1897,42.6761 19.3417,43.0851 19.6397,43.3961 C19.9367,43.7081 20.3377,43.8801 20.7687,43.8801 C21.9497,43.8801 22.9117,44.8421 22.9117,46.0241 L22.9117,46.2011 C24.8797,45.7531 26.8997,45.5211 28.9347,45.5211 L48.4047,45.5211 C50.0127,45.5211 51.5407,46.0431 52.7927,46.9851 L52.7927,43.2261 Z M96.7857,61.0321 C96.7097,57.6101 94.2277,54.7681 90.8257,54.2451 L81.5877,52.8211 C81.5437,53.1161 81.4887,53.4111 81.4207,53.7041 L79.6977,61.0321 L96.7857,61.0321 Z M88.6207,79.4011 C88.4097,79.5081 88.1847,79.5591 87.9637,79.5591 C87.4297,79.5591 86.9137,79.2651 86.6567,78.7551 L85.7067,76.8721 C85.5137,77.2441 85.4027,77.6651 85.4027,78.1121 C85.4027,79.6041 86.6177,80.8201 88.1117,80.8201 C89.6047,80.8201 90.8197,79.6041 90.8197,78.1121 C90.8197,76.6621 89.6757,75.4781 88.2437,75.4091 L89.2677,77.4371 C89.6307,78.1571 89.3417,79.0371 88.6207,79.4011 L88.6207,79.4011 Z M79.1467,78.1121 C79.1467,83.0551 83.1677,87.0761 88.1117,87.0761 C93.0557,87.0761 97.0767,83.0551 97.0767,78.1121 C97.0767,73.1691 93.0557,69.1461 88.1117,69.1461 C87.1337,69.1461 86.1907,69.3071 85.3097,69.5981 L86.8387,72.6261 C87.2477,72.5311 87.6737,72.4791 88.1117,72.4791 C91.2177,72.4791 93.7437,75.0061 93.7437,78.1121 C93.7437,81.2181 91.2177,83.7441 88.1117,83.7441 C85.0057,83.7441 82.4797,81.2181 82.4797,78.1121 C82.4797,76.4941 83.1647,75.0361 84.2597,74.0071 L82.7197,70.9551 C80.5517,72.5931 79.1467,75.1911 79.1467,78.1121 L79.1467,78.1121 Z M47.8197,12.9241 C45.7247,12.9241 44.0197,14.6291 44.0197,16.7251 C44.0197,18.8201 45.7247,20.5251 47.8197,20.5251 C49.9157,20.5251 51.6207,18.8201 51.6207,16.7251 C51.6207,14.6291 49.9157,12.9241 47.8197,12.9241 L47.8197,12.9241 Z M0.0997,75.8791 C0.0997,75.8791 1.6807,69.8401 1.7357,69.7381 L2.2797,67.1511 C3.5627,61.0551 6.9337,55.5351 11.7717,51.6081 C14.2327,49.6101 17.0217,48.0711 19.9867,47.0391 L19.9867,46.7341 C19.0547,46.5681 18.1837,46.1071 17.5227,45.4151 C16.6697,44.5191 16.2297,43.3451 16.2897,42.1051 C16.4017,39.7121 18.4067,37.8371 20.8527,37.8371 L50.3267,37.8371 C53.2987,37.8371 55.7167,40.2551 55.7167,43.2261 L55.7167,52.7001 C55.7167,52.7111 55.7157,52.7221 55.7157,52.7311 C55.7227,53.2651 55.6697,53.8021 55.5587,54.3361 L52.7537,67.6701 L63.3127,67.6701 C64.3797,67.6701 65.2957,66.9441 65.5397,65.9051 L68.2497,54.3671 C68.7077,52.4151 68.4427,50.3651 67.5037,48.5941 L57.8287,32.7381 L50.3837,32.7381 C48.1647,32.7381 46.3577,30.9331 46.3577,28.7141 C46.3577,26.4931 48.1647,24.6881 50.3837,24.6881 L53.9487,24.6881 L53.9487,19.4871 C52.8937,21.8211 50.5437,23.4501 47.8197,23.4501 C44.1117,23.4501 41.0957,20.4331 41.0957,16.7251 C41.0957,13.0161 44.1117,10.0001 47.8197,10.0001 C51.2487,10.0001 54.0847,12.5791 54.4927,15.8991 L55.0217,15.8991 C56.0427,15.8991 56.8737,16.7301 56.8737,17.7521 L56.8737,24.6881 L57.9437,24.6881 C58.2967,24.3011 58.6947,23.9601 59.1377,23.6801 L65.9767,19.2691 C67.4527,18.3171 69.2067,18.0201 70.9137,18.4331 C72.6217,18.8471 74.0457,19.9111 74.9247,21.4331 C76.6157,24.3631 75.7177,28.1001 72.8797,29.9421 L71.2477,31.0011 L80.4117,45.8921 C81.0727,47.1411 81.4847,48.4911 81.6427,49.8711 L91.2717,51.3541 C96.1617,52.1081 99.7117,56.2471 99.7117,61.1951 L99.7117,61.7161 C99.7117,62.9511 98.7057,63.9571 97.4707,63.9571 L82.4627,63.9571 L83.9797,66.9651 C85.2677,66.4851 86.6587,66.2231 88.1117,66.2231 C94.6667,66.2231 99.9997,71.5561 99.9997,78.1121 C99.9997,84.6671 94.6667,90.0001 88.1117,90.0001 C81.5567,90.0001 76.2237,84.6671 76.2237,78.1121 C76.2237,74.0511 78.2707,70.4601 81.3867,68.3151 L79.1877,63.9571 L79.0117,63.9571 L77.8727,68.8021 C76.2777,75.5951 70.2897,80.3401 63.3127,80.3401 L47.6057,80.3401 C44.5787,80.3401 41.8137,79.0371 39.8667,76.9541 L34.7687,78.9341 C34.3437,85.1061 29.1887,90.0001 22.9107,90.0001 C16.3557,90.0001 11.0227,84.6661 11.0227,78.1111 C11.0227,75.8821 11.6577,73.7111 12.8137,71.8451 L10.4687,71.8451 L5.5547,78.4821 C4.9887,79.2471 4.0827,79.7131 3.1327,79.7281 C3.1137,79.7281 3.0967,79.7291 3.0787,79.7291 C2.1297,79.7291 1.2507,79.3031 0.6607,78.5551 C0.0617,77.7941 -0.1433,76.8181 0.0997,75.8791 L0.0997,75.8791 Z" id="icon_moped_scooter" fill="#3A4B60"></path>
    </g>
</svg>