<?xml version="1.0" encoding="UTF-8"?>
<svg width="100px" height="100px" viewBox="0 0 100 100" version="1.1" xmlns="http://www.w3.org/2000/svg" xmlns:xlink="http://www.w3.org/1999/xlink">
    <title>icon / furniture / motorcycle</title>
    <g id="icon-/-furniture-/-motorcycle" stroke="none" stroke-width="1" fill="none" fill-rule="evenodd">
        <path d="M48.7313,56.672 C48.9903,56.802 49.1883,56.795 49.4463,56.663 C54.2573,54.19 56.9183,48.761 55.9963,43.268 C55.9023,42.712 56.0413,42.233 56.4593,41.853 C57.3953,41.003 58.3333,40.155 59.2793,39.318 C59.6733,38.969 60.0923,38.648 60.5223,38.296 C60.4423,38.262 60.4123,38.244 60.3783,38.235 C58.0323,37.57 55.6873,36.902 53.3363,36.252 C53.2033,36.215 52.9983,36.283 52.8773,36.372 C51.7343,37.223 50.6243,38.119 49.4583,38.938 C48.7743,39.417 48.0453,39.882 47.2693,40.172 C44.7723,41.105 42.3773,40.785 40.1283,39.363 C33.7523,35.332 27.3773,31.296 20.9953,27.272 C20.7903,27.143 20.5153,27.061 20.2733,27.06 C14.6683,27.048 9.0633,27.051 3.4583,27.051 L2.9983,27.051 L2.9983,29.015 C3.0713,29.037 3.1393,29.068 3.2113,29.079 C5.8773,29.508 8.5433,29.933 11.2103,30.361 C13.7903,30.776 16.3703,31.193 18.9503,31.61 C19.4493,31.691 19.8233,31.954 20.0423,32.411 C20.4793,33.327 25.6903,44.407 26.0003,45.078 C26.1163,45.328 26.2703,45.492 26.5193,45.616 C33.9263,49.296 41.3303,52.981 48.7313,56.672 L48.7313,56.672 Z M21.2983,62.976 C21.2073,63.026 21.1213,63.086 20.9473,63.194 C21.5023,63.233 36.4023,64.098 36.8083,64.144 C37.0703,64.173 37.1903,64.083 37.3133,63.848 C38.1903,62.185 39.0753,60.525 39.9863,58.879 C40.4393,58.06 40.9423,57.875 41.8743,57.972 C42.6613,58.053 43.4563,58.064 44.2473,58.098 C44.3913,58.104 44.5373,58.068 44.6813,58.053 C44.6823,58.025 44.6843,57.996 44.6853,57.968 C43.7543,57.506 42.8253,57.046 41.8953,56.584 C40.4543,55.868 39.0103,55.154 37.5743,54.43 C37.3783,54.331 37.2313,54.318 37.0303,54.428 C31.7893,57.281 26.5433,60.127 21.2983,62.976 L21.2983,62.976 Z M15.0323,62.999 C16.9643,61.943 18.9003,60.89 20.8353,59.835 C20.8993,59.8 20.9623,59.762 21.0283,59.725 C19.6293,57.849 16.5193,56.545 13.4593,57.53 C10.0603,58.624 8.0053,61.904 8.4993,65.419 C8.9663,68.756 11.8773,71.401 15.2553,71.556 C18.5913,71.71 21.7993,69.395 22.5173,66.269 C21.3503,66.199 20.2133,66.132 19.0783,66.065 C17.9273,65.996 16.7783,65.905 15.6273,65.866 C14.7733,65.837 14.2653,65.214 14.1553,64.679 C14.0143,64 14.3353,63.38 15.0323,62.999 L15.0323,62.999 Z M11.7383,52.36 C5.5453,54.37 2.1543,60.471 3.1563,66.453 C4.1873,72.602 9.5973,77.096 15.7023,77.008 C22.2703,76.912 27.1273,72.068 28.0233,66.603 C27.1983,66.554 26.3973,66.506 25.5713,66.456 C24.8923,69.362 23.3113,71.615 20.7523,73.138 C18.8273,74.284 16.7323,74.694 14.5023,74.461 C10.0663,73.996 6.3903,70.559 5.6033,66.12 C4.8253,61.736 7.0563,57.329 11.0433,55.306 C15.0023,53.298 20.4523,53.999 23.7523,58.257 C24.1043,58.067 25.5313,57.292 25.8883,57.097 C23.3593,53.213 17.5953,50.457 11.7383,52.36 L11.7383,52.36 Z M64.9993,72.086 C65.0023,72.034 65.0103,72.007 65.0033,71.986 C64.9463,71.822 64.8853,71.66 64.8283,71.497 C63.4553,67.653 63.1613,63.734 64.1233,59.762 C65.5833,53.738 69.1403,49.317 74.5953,46.432 C78.3903,44.426 82.4523,43.729 86.6963,44.355 C88.2563,44.584 89.7883,45.035 91.3223,45.426 C92.8063,45.804 94.2783,46.234 95.8213,46.659 C95.7613,46.542 95.7423,46.497 95.7173,46.455 C94.5173,44.439 92.9563,42.732 91.1333,41.275 C86.8913,37.88 82.0813,35.864 76.6363,35.467 C73.7573,35.257 70.9743,35.668 68.3453,36.915 C64.9303,38.536 61.9583,40.791 59.2033,43.351 C59.1093,43.438 59.0643,43.633 59.0773,43.77 C59.2273,45.347 59.1633,46.91 58.8693,48.47 C57.4223,56.125 50.2583,61.634 42.5023,61.036 C42.2543,61.017 42.1273,61.081 42.0023,61.297 C40.2873,64.278 38.8603,67.391 37.7743,70.655 C37.6213,71.118 37.4813,71.586 37.3233,72.086 L64.9993,72.086 Z M72.6583,69.033 C75.3503,75.701 82.8893,78.797 89.4053,75.972 C95.8573,73.175 98.8293,65.564 95.9363,59.234 C92.8943,52.577 85.7313,50.663 80.8383,52.299 C81.1543,53.038 81.4683,53.774 81.7873,54.518 C82.2863,54.442 82.7703,54.356 83.2573,54.295 C88.5513,53.636 93.6163,57.465 94.4313,62.741 C95.1903,67.651 92.3733,72.354 87.6963,73.984 C81.8683,76.014 75.4123,72.261 74.4143,66.172 C73.7123,61.895 75.2423,58.471 78.7583,55.941 C78.9893,55.776 79.0633,55.654 78.9333,55.381 C78.6383,54.757 78.3783,54.115 78.1033,53.479 C73.2453,56.076 70.1003,62.7 72.6583,69.033 L72.6583,69.033 Z M80.2673,58.539 C77.7043,60.169 76.3163,63.98 77.8373,67.306 C79.4213,70.77 83.4113,72.443 86.8903,71.107 C90.4723,69.731 92.3913,65.855 91.2723,62.285 C90.1333,58.65 86.4793,56.628 83.0013,57.347 C83.4083,58.3 83.8003,59.219 84.1923,60.138 C84.7113,61.356 85.2383,62.569 85.7473,63.791 C86.0093,64.422 85.8563,65.049 85.3713,65.485 C84.9053,65.903 84.2233,66.023 83.6853,65.667 C83.3863,65.469 83.1183,65.139 82.9713,64.809 C82.1043,62.853 81.2773,60.879 80.4353,58.911 C80.3813,58.787 80.3243,58.665 80.2673,58.539 L80.2673,58.539 Z M71.7243,23.451 C72.7743,26.573 73.7133,29.367 74.7413,32.425 C80.5533,32.348 85.7863,34.129 90.6573,37.177 C85.8433,30.492 79.9353,25.662 71.7243,23.451 L71.7243,23.451 Z M63.9323,31.793 C62.0783,30.338 59.9733,29.742 57.6393,29.965 C53.9893,30.314 50.3403,30.68 46.6923,31.04 C46.5623,31.053 46.4343,31.08 46.3053,31.101 L46.3053,31.153 C47.9823,31.63 49.6583,32.108 51.3343,32.583 C55.3343,33.717 59.3353,34.848 63.3323,35.988 C63.5913,36.063 63.7863,36.037 64.0193,35.896 C64.7803,35.433 65.5603,35.001 66.3703,34.537 C65.6133,33.582 64.9173,32.566 63.9323,31.793 L63.9323,31.793 Z M30.7763,29.836 C30.7673,29.854 30.7593,29.871 30.7513,29.889 C30.8373,29.949 30.9203,30.014 31.0093,30.069 C34.6283,32.363 38.2463,34.658 41.8673,36.947 C43.6093,38.048 45.7803,37.968 47.4513,36.743 C48.1353,36.24 48.8053,35.717 49.5413,35.158 C43.2333,33.369 37.0043,31.603 30.7763,29.836 L30.7763,29.836 Z M24.6093,47.974 C24.2833,47.809 23.9203,47.548 23.7663,47.237 C23.0553,45.803 18.0563,35.142 17.8223,34.684 C17.7553,34.554 17.5963,34.408 17.4613,34.386 C14.8223,33.949 12.1793,33.53 9.5383,33.106 C6.8103,32.667 4.0833,32.231 1.3583,31.782 C0.4593,31.634 0.0043,31.073 0.0023,30.156 C5e-05,28.682 5e-05,27.206 0.0023,25.732 C0.0043,24.674 0.6093,24.072 1.6673,24.072 C8.0413,24.071 14.4153,24.069 20.7893,24.078 C21.1303,24.078 21.4833,24.13 21.8123,24.224 C27.1853,25.738 32.5543,27.266 37.9273,28.784 C38.1263,28.841 38.3433,28.878 38.5453,28.86 C39.6203,28.766 40.6923,28.651 41.7653,28.544 C44.3923,28.281 47.0183,28.019 49.6453,27.758 C52.0623,27.518 54.4813,27.288 56.8973,27.037 C61.2853,26.582 64.9183,27.97 67.7103,31.43 C68.1703,31.999 68.6143,32.581 69.0743,33.149 C69.1423,33.233 69.2823,33.34 69.3603,33.321 C70.1383,33.128 70.9113,32.911 71.6953,32.697 C71.6453,32.543 71.5983,32.389 71.5473,32.236 C70.3843,28.776 69.3113,25.572 68.1413,22.114 C67.9733,21.618 67.9513,21.149 68.2333,20.689 C68.6013,20.091 69.1383,19.896 70.0163,20.051 C74.5583,20.855 78.7283,22.579 82.5533,25.145 C85.7373,27.28 88.4253,29.613 90.8793,32.549 C93.9423,36.212 96.4023,40.255 98.3693,44.598 C98.8943,45.758 99.3583,46.947 99.8103,48.139 C99.9373,48.473 100.0143,48.875 99.9583,49.22 C99.8073,50.139 98.9453,50.594 97.9673,50.326 C95.2573,49.584 92.5363,48.88 89.8423,48.081 C87.0593,47.255 84.2543,46.854 81.3673,47.318 C80.5563,47.448 79.7553,47.641 78.9163,47.812 C79.1833,48.431 79.4123,48.961 79.6453,49.5 C79.8243,49.453 79.9673,49.418 80.1093,49.377 C82.6383,48.644 85.1903,48.58 87.7543,49.151 C91.0253,49.878 93.7893,51.502 96.0113,54 C99.0643,57.435 100.3833,61.465 99.9043,66.036 C99.5373,69.535 98.1033,72.568 95.6783,75.134 C90.8293,80.265 82.9083,81.545 76.8163,77.981 C71.4123,74.818 68.6693,70.026 68.8273,63.705 C68.9073,60.504 69.9863,57.621 71.8923,55.054 C73.1723,53.33 74.7523,51.936 76.6083,50.854 C76.7133,50.792 76.8643,50.619 76.8403,50.556 C76.6383,50.02 76.4013,49.497 76.1683,48.955 C74.9043,49.598 73.7363,50.311 72.7163,51.219 C67.1873,56.143 65.4063,62.221 67.2813,69.353 C67.5953,70.55 68.1763,71.681 68.6743,72.824 C69.1503,73.916 68.5443,75.037 67.4023,75.057 C66.2313,75.076 38.6953,75.063 35.6673,75.063 C35.5433,75.063 35.4183,75.066 35.2943,75.053 C34.3383,74.95 33.7633,74.138 33.9693,73.198 C34.3993,71.235 35.0353,69.335 35.7493,67.459 C35.7943,67.34 35.8333,67.217 35.8843,67.065 C34.2343,66.966 32.6423,66.87 31.0553,66.776 C29.8993,74.769 22.5623,80.317 14.9263,79.972 C7.8663,79.653 1.7753,74.522 0.3293,67.506 C-1.0627,60.754 2.1283,53.669 8.7503,50.36 C15.1723,47.151 23.8883,48.756 28.5693,55.638 C30.3673,54.663 32.1683,53.688 34.0203,52.684 C33.8493,52.589 33.7363,52.522 33.6193,52.463 C30.6143,50.97 27.6053,49.485 24.6093,47.974 L24.6093,47.974 Z" id="icon_motorcycle" fill="#3A4B60"></path>
    </g>
</svg>