<?xml version="1.0" encoding="UTF-8"?>
<svg width="100px" height="100px" viewBox="0 0 100 100" version="1.1" xmlns="http://www.w3.org/2000/svg" xmlns:xlink="http://www.w3.org/1999/xlink">
    <!-- Generator: Sketch 63.1 (92452) - https://sketch.com -->
    <title>icon / furniture / murphy-bed</title>
    <desc>Created with Sketch.</desc>
    <g id="icon-/-furniture-/-murphy-bed" stroke="none" stroke-width="1" fill="none" fill-rule="evenodd">
        <path d="M82.7803,97.0215 L17.2193,97.0215 C16.5353,97.0215 15.9783,96.4645 15.9783,95.7805 L15.9783,86.0375 L84.0213,86.0375 L84.0213,95.7805 C84.0213,96.4645 83.4653,97.0215 82.7803,97.0215 L82.7803,97.0215 Z M22.4943,56.0615 L22.4943,5.0845 L25.9393,8.5295 L25.9393,45.8195 L22.4943,56.0615 Z M29.9103,48.5905 L29.9103,51.6075 C29.9103,52.8385 30.9123,53.8405 32.1443,53.8405 L47.0523,53.8405 C48.2843,53.8405 49.2863,52.8385 49.2863,51.6075 L49.2863,48.5905 L50.7143,48.5905 L50.7143,51.6075 C50.7143,52.8385 51.7163,53.8405 52.9473,53.8405 L67.8553,53.8405 C69.0873,53.8405 70.0893,52.8385 70.0893,51.6075 L70.0893,48.5905 L71.8503,48.5905 L83.3703,83.0585 L16.6293,83.0585 L28.1493,48.5905 L29.9103,48.5905 Z M32.8893,50.8625 L46.3073,50.8625 L46.3073,43.4155 L32.8893,43.4155 L32.8893,50.8625 Z M53.6933,50.8625 L67.1113,50.8625 L67.1113,43.4155 L53.6933,43.4155 L53.6933,50.8625 Z M28.9173,9.4015 L71.0823,9.4015 L71.0823,45.6115 L70.0893,45.6115 L70.0893,42.6705 C70.0893,41.4395 69.0873,40.4365 67.8553,40.4365 L52.9473,40.4365 C51.7163,40.4365 50.7143,41.4395 50.7143,42.6705 L50.7143,45.6115 L49.2863,45.6115 L49.2863,42.6705 C49.2863,41.4395 48.2843,40.4365 47.0523,40.4365 L32.1443,40.4365 C30.9123,40.4365 29.9103,41.4395 29.9103,42.6705 L29.9103,45.6115 L28.9173,45.6115 L28.9173,9.4015 Z M71.9353,6.4225 L28.0453,6.4225 L24.6003,2.9785 L75.4643,2.9785 L71.9353,6.4225 Z M74.0613,45.8195 L74.0613,8.5105 L77.5053,5.1475 L77.5053,56.0615 L74.0613,45.8195 Z M80.4843,64.9175 L80.4843,3.2265 C80.4843,1.4475 79.0363,0.0005 77.2573,0.0005 L22.7423,0.0005 C20.9643,0.0005 19.5163,1.4475 19.5163,3.2265 L19.5163,64.9175 L13.0133,84.4685 L13.0003,95.7805 C13.0003,98.1075 14.8933,100.0005 17.2193,100.0005 L82.7803,100.0005 C85.1073,100.0005 87.0003,98.1075 87.0003,95.7805 L87.0003,84.5475 L80.4843,64.9175 Z" id="icon_-murphy-bed" fill="#3A4B60"></path>
    </g>
</svg>