<?xml version="1.0" encoding="UTF-8"?>
<svg width="100px" height="100px" viewBox="0 0 100 100" version="1.1" xmlns="http://www.w3.org/2000/svg" xmlns:xlink="http://www.w3.org/1999/xlink">
    <title>icon / furniture / nightstand</title>
    <g id="icon-/-furniture-/-nightstand" stroke="none" stroke-width="1" fill="none" fill-rule="evenodd">
        <path d="M59.3047,51.4965 C59.3047,52.6345 58.3797,53.5605 57.2417,53.5605 L42.7607,53.5605 C41.6227,53.5605 40.6967,52.6345 40.6967,51.4965 C40.6967,50.3585 41.6227,49.4325 42.7607,49.4325 L57.2417,49.4325 C58.3797,49.4325 59.3047,50.3585 59.3047,51.4965 L59.3047,51.4965 Z M4.1267,80.8855 L95.8737,80.8855 L95.8737,44.5745 L4.1267,44.5745 L4.1267,80.8855 Z M4.1267,40.4455 L95.8737,40.4455 L95.8737,9.1295 L4.1267,9.1295 L4.1267,40.4455 Z M8.1217,90.8725 L91.8797,90.8725 L91.8797,85.0145 L8.1217,85.0145 L8.1217,90.8725 Z M6.0587,95.0005 L93.9427,95.0005 C95.0807,95.0005 96.0067,94.0735 96.0067,92.9355 L96.0067,85.0145 L97.9367,85.0145 C99.0747,85.0145 99.9997,84.0875 99.9997,82.9495 L99.9997,7.0645 C99.9997,5.9265 99.0747,5.0005 97.9367,5.0005 L2.0637,5.0005 C0.9257,5.0005 -0.0003,5.9265 -0.0003,7.0645 L-0.0003,82.9495 C-0.0003,84.0875 0.9257,85.0145 2.0637,85.0145 L3.9947,85.0145 L3.9947,92.9355 C3.9947,94.0735 4.9207,95.0005 6.0587,95.0005 L6.0587,95.0005 Z" id="icon_nightstand" fill="#3A4B60"></path>
    </g>
</svg>