<?xml version="1.0" encoding="UTF-8"?>
<svg width="100px" height="100px" viewBox="0 0 100 100" version="1.1" xmlns="http://www.w3.org/2000/svg" xmlns:xlink="http://www.w3.org/1999/xlink">
    <title>icon / furniture / office-chair</title>
    <g id="icon-/-furniture-/-office-chair" stroke="none" stroke-width="1" fill="none" fill-rule="evenodd">
        <path d="M40.874,12.1858 C41.97,12.1858 42.858,11.2968 42.858,10.2018 C42.858,9.1058 41.97,8.2178 40.874,8.2178 C39.778,8.2178 38.891,9.1058 38.891,10.2018 C38.891,11.2968 39.778,12.1858 40.874,12.1858 L40.874,12.1858 Z M45.437,20.3198 C46.533,20.3198 47.421,19.4308 47.421,18.3358 C47.421,17.2408 46.533,16.3518 45.437,16.3518 C44.342,16.3518 43.453,17.2408 43.453,18.3358 C43.453,19.4308 44.342,20.3198 45.437,20.3198 L45.437,20.3198 Z M82.055,36.3888 C82.055,36.1068 81.825,35.8768 81.543,35.8768 L73.607,35.8768 C73.326,35.8768 73.097,36.1068 73.097,36.3888 L73.097,40.3568 C73.097,40.6378 73.326,40.8678 73.607,40.8678 L81.543,40.8678 C81.825,40.8678 82.055,40.6378 82.055,40.3568 L82.055,36.3888 Z M76.301,43.8138 L73.607,43.8138 C72.576,43.8138 71.65,43.3568 71.017,42.6368 C70.061,43.3998 68.886,43.8138 67.638,43.8138 L57.425,43.8138 L57.425,51.1838 L73.013,51.1838 C74.219,51.1838 75.346,51.5288 76.301,52.1238 L76.301,43.8138 Z M76.301,57.4168 C76.301,55.6048 74.825,54.1288 73.013,54.1288 L26.987,54.1288 C25.174,54.1288 23.699,55.6048 23.699,57.4168 C23.699,59.2308 25.174,60.7058 26.987,60.7058 L73.013,60.7058 C74.825,60.7058 76.301,59.2308 76.301,57.4168 L76.301,57.4168 Z M58.446,66.9398 L58.446,66.9398 L58.446,63.6518 L41.554,63.6518 L41.554,66.9398 C41.554,67.2218 41.783,67.4518 42.064,67.4518 L57.936,67.4518 C58.217,67.4518 58.446,67.2218 58.446,66.9398 L58.446,66.9398 Z M34.129,87.3028 C33.848,87.3028 33.618,87.5328 33.618,87.8138 L33.618,90.1948 C33.618,90.4768 33.848,90.7058 34.129,90.7058 L65.871,90.7058 C66.152,90.7058 66.382,90.4768 66.382,90.1948 L66.382,87.8138 C66.382,87.5328 66.152,87.3028 65.871,87.3028 L34.129,87.3028 Z M66.382,95.3528 C66.382,94.4148 65.618,93.6518 64.681,93.6518 C63.742,93.6518 62.979,94.4148 62.979,95.3528 C62.979,96.2898 63.742,97.0538 64.681,97.0538 C65.618,97.0538 66.382,96.2898 66.382,95.3528 L66.382,95.3528 Z M51.701,95.3528 C51.701,94.4148 50.938,93.6518 50,93.6518 C49.062,93.6518 48.299,94.4148 48.299,95.3528 C48.299,96.2898 49.062,97.0538 50,97.0538 C50.938,97.0538 51.701,96.2898 51.701,95.3528 L51.701,95.3528 Z M37.02,95.3528 C37.02,94.4148 36.258,93.6518 35.319,93.6518 C34.381,93.6518 33.618,94.4148 33.618,95.3528 C33.618,96.2898 34.381,97.0538 35.319,97.0538 C36.258,97.0538 37.02,96.2898 37.02,95.3528 L37.02,95.3528 Z M48.101,84.3578 L51.9,84.3578 L51.9,70.3968 L48.101,70.3968 L48.101,84.3578 Z M26.393,40.8678 C26.674,40.8678 26.903,40.6378 26.903,40.3568 L26.903,36.3888 C26.903,36.1068 26.674,35.8768 26.393,35.8768 L18.457,35.8768 C18.175,35.8768 17.946,36.1068 17.946,36.3888 L17.946,40.3568 C17.946,40.6378 18.175,40.8678 18.457,40.8678 L26.393,40.8678 Z M26.393,43.8138 L23.699,43.8138 L23.699,52.1238 C24.654,51.5288 25.781,51.1838 26.987,51.1838 L42.575,51.1838 L42.575,43.8138 L32.205,43.8138 C32.091,43.8138 31.98,43.7968 31.874,43.7728 C30.811,43.6778 29.812,43.2978 28.983,42.6368 C28.35,43.3568 27.424,43.8138 26.393,43.8138 L26.393,43.8138 Z M45.521,51.1838 L54.478,51.1838 L54.478,43.8138 L45.521,43.8138 L45.521,51.1838 Z M29.872,38.2398 C29.835,38.9298 30.076,39.5868 30.553,40.0888 C31.028,40.5908 31.671,40.8678 32.363,40.8678 L67.638,40.8678 C68.329,40.8678 68.972,40.5908 69.448,40.0888 C69.924,39.5868 70.165,38.9298 70.129,38.2398 L68.37,5.3078 C68.299,3.9838 67.205,2.9458 65.879,2.9458 L34.121,2.9458 C32.795,2.9458 31.701,3.9838 31.63,5.3078 L29.872,38.2398 Z M85,36.3888 L85,40.3558 C85,42.2618 83.449,43.8128 81.543,43.8128 L79.247,43.8128 L79.247,57.4168 C79.247,60.8548 76.45,63.6518 73.013,63.6518 L61.393,63.6518 L61.393,66.9398 C61.393,68.8458 59.842,70.3968 57.936,70.3968 L54.846,70.3968 L54.846,84.3568 L65.871,84.3568 C67.777,84.3568 69.328,85.9078 69.328,87.8138 L69.328,90.1948 C69.328,91.1078 68.97,91.9368 68.389,92.5558 C68.978,93.3338 69.328,94.3028 69.328,95.3528 C69.328,97.9148 67.243,99.9988 64.681,99.9988 C62.118,99.9988 60.034,97.9148 60.034,95.3528 C60.034,94.7518 60.149,94.1788 60.357,93.6518 L54.323,93.6518 C54.531,94.1788 54.647,94.7518 54.647,95.3528 C54.647,97.9148 52.562,99.9988 50,99.9988 C47.437,99.9988 45.353,97.9148 45.353,95.3528 C45.353,94.7518 45.469,94.1788 45.677,93.6518 L39.643,93.6518 C39.852,94.1788 39.967,94.7518 39.967,95.3528 C39.967,97.9148 37.882,99.9998 35.319,99.9998 C32.757,99.9998 30.673,97.9148 30.673,95.3528 C30.673,94.3038 31.022,93.3338 31.611,92.5558 C31.031,91.9368 30.673,91.1078 30.673,90.1948 L30.673,87.8148 C30.673,85.9088 32.224,84.3578 34.129,84.3578 L45.154,84.3578 L45.154,70.3968 L42.064,70.3968 C40.158,70.3968 38.607,68.8458 38.607,66.9398 L38.607,63.6518 L26.987,63.6518 C23.55,63.6518 20.753,60.8548 20.753,57.4178 L20.753,43.8138 L18.457,43.8138 C16.551,43.8138 15,42.2628 15,40.3568 L15,36.3888 C15,34.4828 16.551,32.9318 18.457,32.9318 L26.393,32.9318 C26.671,32.9318 26.94,32.9688 27.2,33.0318 L28.688,5.1508 C28.843,2.2618 31.229,-0.0002 34.121,-0.0002 L65.879,-0.0002 C68.77,-0.0002 71.157,2.2618 71.311,5.1508 L72.801,33.0318 C73.06,32.9688 73.329,32.9318 73.607,32.9318 L81.543,32.9318 C83.449,32.9318 85,34.4828 85,36.3888 L85,36.3888 Z M50,12.1858 C51.096,12.1858 51.984,11.2968 51.984,10.2018 C51.984,9.1058 51.096,8.2178 50,8.2178 C48.904,8.2178 48.017,9.1058 48.017,10.2018 C48.017,11.2968 48.904,12.1858 50,12.1858 L50,12.1858 Z M54.563,20.3198 C55.659,20.3198 56.547,19.4308 56.547,18.3358 C56.547,17.2408 55.659,16.3518 54.563,16.3518 C53.468,16.3518 52.579,17.2408 52.579,18.3358 C52.579,19.4308 53.468,20.3198 54.563,20.3198 L54.563,20.3198 Z M57.142,10.2018 C57.142,9.1058 58.03,8.2178 59.126,8.2178 C60.222,8.2178 61.109,9.1058 61.109,10.2018 C61.109,11.2968 60.222,12.1858 59.126,12.1858 C58.03,12.1858 57.142,11.2968 57.142,10.2018 L57.142,10.2018 Z" id="icon_office-chair" fill="#3A4B60"></path>
    </g>
</svg>