<?xml version="1.0" encoding="UTF-8"?>
<svg width="100px" height="100px" viewBox="0 0 100 100" version="1.1" xmlns="http://www.w3.org/2000/svg">
    <title>icon / furniture / ottoman</title>
    <g id="icon-/-furniture-/-ottoman" stroke="none" stroke-width="1" fill="none" fill-rule="evenodd">
        <path d="M75.2676,48.3619 L76.2126,47.4409 L75.2676,46.5209 C74.6886,45.9569 74.6756,45.0289 75.2406,44.4499 C75.8046,43.8699 76.7326,43.8579 77.3116,44.4229 L78.3126,45.3959 L79.3126,44.4229 C79.8916,43.8569 80.8186,43.8699 81.3836,44.4499 C81.9486,45.0289 81.9356,45.9569 81.3566,46.5209 L80.4116,47.4409 L81.3566,48.3619 C81.9356,48.9259 81.9486,49.8529 81.3836,50.4329 C81.0966,50.7279 80.7146,50.8759 80.3336,50.8759 C79.9656,50.8759 79.5966,50.7379 79.3126,50.4609 L78.3126,49.4859 L77.3116,50.4609 C77.0276,50.7379 76.6586,50.8759 76.2896,50.8759 C75.9086,50.8759 75.5276,50.7279 75.2406,50.4329 C74.6756,49.8529 74.6886,48.9259 75.2676,48.3619 L75.2676,48.3619 Z M24.7326,46.5209 L23.7876,47.4409 L24.7326,48.3619 C25.3116,48.9259 25.3246,49.8529 24.7596,50.4329 C24.4726,50.7279 24.0916,50.8759 23.7096,50.8759 C23.3416,50.8759 22.9726,50.7379 22.6886,50.4609 L21.6876,49.4859 L20.6876,50.4609 C20.4036,50.7379 20.0346,50.8759 19.6656,50.8759 C19.2846,50.8759 18.9036,50.7279 18.6166,50.4329 C18.0516,49.8529 18.0646,48.9259 18.6436,48.3619 L19.5886,47.4409 L18.6436,46.5209 C18.0646,45.9569 18.0516,45.0289 18.6166,44.4499 C19.1806,43.8699 20.1086,43.8579 20.6876,44.4229 L21.6876,45.3959 L22.6886,44.4229 C23.2676,43.8569 24.1956,43.8699 24.7596,44.4499 C25.3246,45.0289 25.3116,45.9569 24.7326,46.5209 L24.7326,46.5209 Z M46.9556,46.5209 C46.3756,45.9569 46.3636,45.0289 46.9276,44.4499 C47.4936,43.8699 48.4196,43.8579 48.9996,44.4229 L49.9996,45.3969 L50.9996,44.4229 C51.5796,43.8569 52.5066,43.8709 53.0716,44.4499 C53.6356,45.0289 53.6236,45.9569 53.0436,46.5209 L52.0986,47.4409 L53.0436,48.3619 C53.6236,48.9259 53.6356,49.8529 53.0716,50.4329 C52.7846,50.7279 52.4036,50.8759 52.0216,50.8759 C51.6536,50.8759 51.2856,50.7379 50.9996,50.4609 L49.9996,49.4859 L48.9996,50.4609 C48.7146,50.7379 48.3456,50.8769 47.9776,50.8769 C47.5956,50.8769 47.2146,50.7279 46.9276,50.4329 C46.3636,49.8529 46.3756,48.9259 46.9556,48.3619 L47.9006,47.4409 L46.9556,46.5209 Z M97.0706,56.5509 C97.0706,57.7809 96.0266,58.7809 94.7436,58.7809 L5.2566,58.7809 C3.9736,58.7809 2.9296,57.7809 2.9296,56.5519 L2.9296,35.8569 L97.0706,35.8559 L97.0706,56.5509 Z M90.4866,68.9319 C90.4866,70.1619 89.4426,71.1609 88.1596,71.1609 L11.8396,71.1609 C10.5576,71.1609 9.5136,70.1619 9.5136,68.9319 L9.5136,61.7109 L90.4866,61.7109 L90.4866,68.9319 Z M72.3716,77.0709 L80.8176,77.0709 L80.8176,74.0909 L72.3716,74.0909 L72.3716,77.0709 Z M19.1826,77.0709 L27.6276,77.0709 L27.6276,74.0909 L19.1826,74.0909 L19.1826,77.0709 Z M2.9296,28.8509 C2.9296,28.4699 3.0286,28.1069 3.2236,27.7719 C3.2286,27.7619 3.2346,27.7539 3.2396,27.7439 C4.5266,25.4099 9.9896,22.9289 17.5796,22.9289 C21.3946,22.9289 25.0336,23.5679 27.8256,24.7249 C28.1846,24.8749 28.5876,24.8749 28.9476,24.7249 C31.7406,23.5669 35.3786,22.9289 39.1936,22.9289 C43.0076,22.9289 46.6466,23.5679 49.4386,24.7249 C49.7976,24.8749 50.2016,24.8749 50.5606,24.7249 C53.3536,23.5669 56.9926,22.9289 60.8066,22.9289 C64.6216,22.9289 68.2596,23.5679 71.0516,24.7249 C71.4116,24.8749 71.8146,24.8749 72.1736,24.7249 C74.9666,23.5669 78.6056,22.9289 82.4196,22.9289 C90.0096,22.9289 95.4736,25.4099 96.7596,27.7439 C96.7656,27.7539 96.7706,27.7619 96.7766,27.7719 C96.9706,28.1069 97.0696,28.4699 97.0696,28.8509 L97.0696,32.9259 L2.9296,32.9269 L2.9296,28.8509 Z M99.3176,26.3139 C97.2206,22.5369 90.4336,19.9999 82.4196,19.9999 C78.4746,19.9999 74.6656,20.6349 71.6136,21.7969 C68.5606,20.6349 64.7506,19.9999 60.8066,19.9999 C56.8616,19.9999 53.0526,20.6349 49.9996,21.7969 C46.9476,20.6349 43.1376,19.9999 39.1936,19.9999 C35.2476,19.9999 31.4396,20.6349 28.3866,21.7969 C25.3336,20.6349 21.5256,19.9999 17.5796,19.9999 C9.5656,19.9999 2.7786,22.5369 0.6816,26.3139 C0.2356,27.0889 -0.0004,27.9649 -0.0004,28.8509 L-0.0004,56.5519 C-0.0004,59.3959 2.3586,61.7109 5.2566,61.7109 L6.5836,61.7109 L6.5836,68.9319 C6.5836,71.7769 8.9416,74.0909 11.8396,74.0909 L16.2526,74.0909 L16.2526,77.6059 C16.2526,78.9259 17.3346,79.9999 18.6656,79.9999 L28.1446,79.9999 C29.4756,79.9999 30.5576,78.9259 30.5576,77.6059 L30.5576,74.0909 L69.4426,74.0909 L69.4426,77.6059 C69.4426,78.9259 70.5246,79.9999 71.8556,79.9999 L81.3336,79.9999 C82.6646,79.9999 83.7466,78.9259 83.7466,77.6059 L83.7466,74.0909 L88.1606,74.0909 C91.0586,74.0909 93.4156,71.7759 93.4156,68.9319 L93.4156,61.7109 L94.7436,61.7109 C97.6416,61.7109 99.9996,59.3959 99.9996,56.5519 L99.9996,28.8509 C99.9996,27.9649 99.7636,27.0889 99.3176,26.3139 L99.3176,26.3139 Z"
              id="icon_ottoman" fill="#3A4B60"></path>
    </g>
</svg>