<?xml version="1.0" encoding="UTF-8"?>
<svg width="100px" height="100px" viewBox="0 0 100 100" version="1.1" xmlns="http://www.w3.org/2000/svg" xmlns:xlink="http://www.w3.org/1999/xlink">
    <title>icon / furniture / papasan-chair</title>
    <g id="icon-/-furniture-/-papasan-chair" stroke="none" stroke-width="1" fill="none" fill-rule="evenodd">
        <path d="M85.4410815,40.3240804 C82.9280815,42.3430804 79.7980815,43.4700804 76.5500815,43.5000804 L23.4500815,43.5000804 C20.2010815,43.4700804 17.0710815,42.3430804 14.5580815,40.3240804 C13.9500815,39.8360804 13.0740815,39.8890804 12.5370815,40.4550804 C11.9310815,41.0930804 11.9970815,42.1170804 12.6820815,42.6670804 C15.7240815,45.1110804 19.5150815,46.4700804 23.4500815,46.5000804 L76.5500815,46.5000804 C80.4840815,46.4700804 84.2750815,45.1110804 87.3170815,42.6670804 C88.0030815,42.1170804 88.0680815,41.0930804 87.4620815,40.4550804 C86.9250815,39.8890804 86.0490815,39.8360804 85.4410815,40.3240804 L85.4410815,40.3240804 Z M92.0000815,34.7620804 C91.9930815,30.2230804 90.1240815,25.8860804 86.8300815,22.7620804 L71.5400815,8.32408039 C67.9240815,4.89708039 63.1310815,2.99208039 58.1510815,2.99999896 L40.7000815,2.99999896 C35.5240815,2.98508039 30.5580815,5.04308039 26.9090815,8.71208039 L12.8330815,22.7880804 C9.72808146,25.8760804 7.98708146,30.0780804 8.00000918,34.4570804 L8.00000918,52.3010804 C8.01208146,60.8280804 14.9210815,67.7370804 23.4500815,67.7500804 L76.5500815,67.7500804 C85.0780815,67.7370804 91.9870815,60.8280804 92.0000815,52.3010804 L92.0000815,34.7620804 Z M74.6500815,85.7440804 C72.8630815,79.8630804 73.6790815,73.9240804 74.3780815,70.7500804 L25.6210815,70.7500804 C26.3200815,73.9240804 27.1400815,79.8620804 25.3550815,85.7420804 C30.8710815,83.4760804 39.8510815,82.0000804 50.0000815,82.0000804 C60.1520815,82.0000804 69.1340815,83.4770804 74.6500815,85.7440804 L74.6500815,85.7440804 Z M77.3620815,91.0000804 C76.6940815,89.2930804 67.5430815,85.0000804 50.0000815,85.0000804 C32.4570815,85.0000804 23.3050815,89.2930804 22.6370815,91.0000804 C23.3050815,92.7070804 32.4570815,97.0000804 50.0000815,97.0000804 C67.5430815,97.0000804 76.6940815,92.7070804 77.3620815,91.0000804 L77.3620815,91.0000804 Z M95.0000815,34.7580804 L95.0000815,52.3010804 C94.9850815,62.1690804 87.2280815,70.2000804 77.4800815,70.7020804 C76.7960815,73.5500804 75.6060815,80.4570804 78.1690815,86.6440804 C78.5260815,87.5060804 79.0640815,88.2730804 79.6290815,89.0140804 C80.1160815,89.6530804 80.3750815,90.3170804 80.3750815,91.0000804 C80.3750815,95.9700804 66.7750815,100.00008 50.0000815,100.00008 C33.2240815,100.00008 19.6250815,95.9700804 19.6250815,91.0000804 C19.6250815,90.3160804 19.8840815,89.6500804 20.3730815,89.0110804 C20.9390815,88.2700804 21.4770815,87.5030804 21.8350815,86.6410804 C24.4080815,80.4450804 23.2110815,73.5460804 22.5220815,70.7020804 C12.7730815,70.2010804 5.01508146,62.1700804 5,52.3010804 L5,34.4570804 C4.98508146,29.2810804 7.04208146,24.3150804 10.7120815,20.6680804 L24.7890815,6.59108039 C29.0000815,2.35708039 34.7280815,-0.0159196118 40.7000815,-1.27897692e-13 L58.1510815,-1.27897692e-13 C63.8980815,-0.00691961181 69.4280815,2.19508039 73.5990815,6.15008039 L88.8890815,20.5820804 C92.7810815,24.2710804 94.9900815,29.3950804 95.0000815,34.7580804 L95.0000815,34.7580804 Z M22.5110815,24.3040804 C26.0190815,25.4040804 28.8950815,27.9970804 30.3370815,31.4270804 C29.1750815,31.7780804 28.0220815,32.1550804 26.8800815,32.5670804 C26.0910815,32.8510804 25.7030815,33.7430804 26.0090815,34.5230804 L26.0100815,34.5250804 C26.3080815,35.2870804 27.1580815,35.6580804 27.9270815,35.3800804 C42.1890815,30.2230804 57.8100815,30.2230804 72.0730815,35.3800804 C72.8420815,35.6580804 73.6910815,35.2870804 73.9900815,34.5250804 L73.9910815,34.5230804 C74.2960815,33.7420804 73.9090815,32.8500804 73.1210815,32.5660804 C71.9780815,32.1540804 70.8240815,31.7790804 69.6620815,31.4270804 C71.1040815,27.9970804 73.9800815,25.4040804 77.4880815,24.3040804 C78.2240815,24.0740804 78.6700815,23.3330804 78.5160815,22.5780804 L78.5150815,22.5770804 C78.3390815,21.7130804 77.4550815,21.1710804 76.6130815,21.4310804 C72.1480815,22.8150804 68.5090815,26.1470804 66.7600815,30.5440804 L66.7340815,30.6140804 C55.7470815,27.8390804 44.2420815,27.8390804 33.2550815,30.6140804 L33.2260815,30.5450804 C31.4800815,26.1520804 27.8470815,22.8200804 23.3880815,21.4330804 C22.5460815,21.1720804 21.6610815,21.7140804 21.4840815,22.5780804 C21.3300815,23.3340804 21.7760815,24.0740804 22.5110815,24.3040804 L22.5110815,24.3040804 Z" id="icon_papasan-chair" fill="#3A4B60"></path>
    </g>
</svg>