<?xml version="1.0" encoding="UTF-8"?>
<svg width="100px" height="100px" viewBox="0 0 100 100" version="1.1" xmlns="http://www.w3.org/2000/svg">
    <title>icon / furniture / paper-shredder</title>
    <g id="icon-/-furniture-/-paper-shredder" stroke="none" stroke-width="1" fill="none" fill-rule="evenodd">
        <path d="M84.68,96.69 L84.68,42.672 L79.903,42.672 L79.903,90.992 C79.903,91.771 79.271,92.402 78.493,92.402 L21.509,92.402 C20.73,92.402 20.098,91.771 20.098,90.992 L20.098,42.672 L15.321,42.672 L15.321,96.69 C15.321,96.961 15.54,97.179 15.811,97.179 L84.191,97.179 C84.46,97.179 84.68,96.961 84.68,96.69 L84.68,96.69 Z M67.42,70.243 L71.004,70.243 L71.004,42.672 L67.42,42.672 L67.42,70.243 Z M54.613,70.243 L58.197,70.243 L58.197,42.672 L54.613,42.672 L54.613,70.243 Z M41.805,70.243 L45.388,70.243 L45.388,42.672 L41.805,42.672 L41.805,70.243 Z M28.997,70.243 L32.58,70.243 L32.58,42.672 L28.997,42.672 L28.997,70.243 Z M26.177,71.654 L26.177,42.672 L22.919,42.672 L22.919,89.582 L77.082,89.582 L77.082,42.672 L73.825,42.672 L73.825,71.654 C73.825,72.433 73.194,73.064 72.414,73.064 L66.01,73.064 C65.232,73.064 64.6,72.433 64.6,71.654 L64.6,42.672 L61.017,42.672 L61.017,71.654 C61.017,72.433 60.385,73.064 59.607,73.064 L53.202,73.064 C52.424,73.064 51.792,72.433 51.792,71.654 L51.792,42.672 L48.209,42.672 L48.209,71.654 C48.209,72.433 47.577,73.064 46.799,73.064 L40.395,73.064 C39.616,73.064 38.985,72.433 38.985,71.654 L38.985,42.672 L35.401,42.672 L35.401,71.654 C35.401,72.433 34.77,73.064 33.991,73.064 L27.587,73.064 C26.808,73.064 26.177,72.433 26.177,71.654 L26.177,71.654 Z M15.321,39.852 L84.68,39.852 L84.68,20.369 C84.68,20.098 84.46,19.879 84.191,19.879 L15.811,19.879 C15.54,19.879 15.322,20.098 15.322,20.369 L15.321,39.852 Z M28.997,17.059 L71.004,17.059 L71.004,2.821 L28.997,2.821 L28.997,17.059 Z M87.5,96.69 C87.5,98.515 86.016,100 84.191,100 L15.811,100 C13.986,100 12.5,98.515 12.5,96.69 L12.5,20.369 C12.5,18.544 13.986,17.059 15.811,17.059 L26.177,17.059 L26.177,1.411 C26.177,0.631 26.808,0 27.587,0 L72.414,0 C73.193,0 73.825,0.631 73.825,1.411 L73.825,17.059 L84.191,17.059 C86.016,17.059 87.5,18.544 87.5,20.369 L87.5,96.69 Z M41.913,31.875 L58.088,31.875 L58.088,27.857 L41.913,27.857 L41.913,31.875 Z M39.093,33.285 L39.093,26.447 C39.093,25.668 39.725,25.037 40.503,25.037 L59.497,25.037 C60.277,25.037 60.909,25.668 60.909,26.447 L60.909,33.285 C60.909,34.063 60.277,34.695 59.497,34.695 L40.503,34.695 C39.725,34.695 39.093,34.064 39.093,33.285 L39.093,33.285 Z M21.78,29.866 C21.78,30.973 22.68,31.875 23.788,31.875 C24.896,31.875 25.797,30.973 25.797,29.866 C25.797,28.758 24.896,27.857 23.788,27.857 C22.68,27.857 21.78,28.758 21.78,29.866 L21.78,29.866 Z M18.958,29.866 C18.958,27.203 21.125,25.037 23.788,25.037 C26.451,25.037 28.617,27.203 28.617,29.866 C28.617,32.529 26.451,34.695 23.788,34.695 C21.125,34.695 18.958,32.529 18.958,29.866 L18.958,29.866 Z M67.476,27.857 L68.425,27.857 C69.204,27.857 69.835,27.225 69.835,26.447 C69.835,25.668 69.204,25.037 68.425,25.037 L67.476,25.037 C66.697,25.037 66.066,25.668 66.066,26.447 C66.066,27.225 66.697,27.857 67.476,27.857 L67.476,27.857 Z M67.476,34.695 L68.425,34.695 C69.204,34.695 69.835,34.063 69.835,33.285 C69.835,32.505 69.204,31.875 68.425,31.875 L67.476,31.875 C66.697,31.875 66.066,32.505 66.066,33.285 C66.066,34.063 66.697,34.695 67.476,34.695 L67.476,34.695 Z M78.683,27.857 L79.632,27.857 C80.411,27.857 81.042,27.225 81.042,26.447 C81.042,25.668 80.411,25.037 79.632,25.037 L78.683,25.037 C77.904,25.037 77.272,25.668 77.272,26.447 C77.272,27.225 77.904,27.857 78.683,27.857 L78.683,27.857 Z M78.683,34.695 L79.632,34.695 C80.411,34.695 81.042,34.063 81.042,33.285 C81.042,32.505 80.411,31.875 79.632,31.875 L78.683,31.875 C77.904,31.875 77.272,32.505 77.272,33.285 C77.272,34.063 77.904,34.695 78.683,34.695 L78.683,34.695 Z M73.07,27.857 L74.037,27.857 C74.817,27.857 75.448,27.225 75.448,26.447 C75.448,25.668 74.817,25.037 74.037,25.037 L73.07,25.037 C72.291,25.037 71.659,25.668 71.659,26.447 C71.659,27.225 72.291,27.857 73.07,27.857 L73.07,27.857 Z M71.659,33.285 C71.659,32.505 72.291,31.875 73.07,31.875 L74.037,31.875 C74.817,31.875 75.448,32.505 75.448,33.285 C75.448,34.063 74.817,34.695 74.037,34.695 L73.07,34.695 C72.291,34.695 71.659,34.063 71.659,33.285 L71.659,33.285 Z"
              id="icon_paper-shredder" fill="#3A4B60"></path>
    </g>
</svg>