<?xml version="1.0" encoding="UTF-8"?>
<svg width="100px" height="100px" viewBox="0 0 100 100" version="1.1" xmlns="http://www.w3.org/2000/svg" xmlns:xlink="http://www.w3.org/1999/xlink">
    <title>icon / furniture / patio-table</title>
    <g id="icon-/-furniture-/-patio-table" stroke="none" stroke-width="1" fill="none" fill-rule="evenodd">
        <path d="M85.859,63.5934 L14.141,63.5934 C13.003,63.5934 12.076,62.6664 12.076,61.5284 C12.076,60.3894 13.003,59.4634 14.141,59.4634 L85.859,59.4634 C86.998,59.4634 87.924,60.3894 87.924,61.5284 C87.924,62.6664 86.998,63.5934 85.859,63.5934 L85.859,63.5934 Z M54.809,77.4584 L52.14,73.6974 L56.835,67.0824 L62.173,67.0824 L54.809,77.4584 Z M47.446,67.0824 L52.554,67.0824 L50,70.6814 L47.446,67.0824 Z M64.05,96.5094 L58.713,96.5094 L37.827,67.0834 L43.166,67.0834 L64.05,96.5094 Z M41.288,96.5094 L35.95,96.5094 L45.191,83.4894 L47.86,87.2494 L41.288,96.5094 Z M56.311,29.1204 C55.814,31.0234 54.475,32.5874 52.72,33.3964 C51.864,33.7914 50.932,33.9894 50,33.9894 C49.068,33.9894 48.136,33.7914 47.28,33.3964 C45.525,32.5874 44.186,31.0234 43.689,29.1204 L56.311,29.1204 Z M43.537,24.7634 C43.631,22.6304 43.841,20.5014 44.196,18.3954 C44.886,14.2764 46.122,10.2004 48.252,6.5874 C48.773,5.7024 49.349,4.8474 50,4.0524 C50.65,4.8474 51.227,5.7024 51.749,6.5874 C53.879,10.2004 55.114,14.2764 55.804,18.3954 C56.158,20.5014 56.369,22.6304 56.463,24.7634 C56.479,25.1164 56.492,25.4704 56.501,25.8234 L43.5,25.8234 C43.508,25.4704 43.521,25.1164 43.537,24.7634 L43.537,24.7634 Z M40.846,18.4044 C40.843,18.4194 40.841,18.4354 40.839,18.4494 C40.542,20.2364 40.391,22.0404 40.281,23.8464 C40.245,24.5044 40.216,25.1634 40.202,25.8234 L27.642,25.8234 C29.23,20.5244 34.507,6.3644 46.13,3.7244 C44.26,6.5254 41.959,11.2334 40.846,18.4044 L40.846,18.4044 Z M33.659,33.9934 C30.632,33.9934 28.08,31.9214 27.348,29.1204 L39.97,29.1204 C39.238,31.9214 36.686,33.9934 33.659,33.9934 L33.659,33.9934 Z M24.218,25.7804 C24.214,25.7944 24.21,25.8104 24.206,25.8234 L11.57,25.8234 C12.627,23.4744 14.766,19.5044 18.498,15.5784 C21.883,12.0164 25.907,9.1784 30.457,7.1444 C32.354,6.2964 34.346,5.5874 36.427,5.0184 C36.273,5.1464 36.121,5.2764 35.968,5.4074 C32.221,8.6594 29.456,12.9064 27.347,17.3634 C26.065,20.0714 25.013,22.8924 24.218,25.7804 L24.218,25.7804 Z M17.318,33.9934 C14.292,33.9934 11.74,31.9214 11.007,29.1204 L23.63,29.1204 C22.898,31.9214 20.345,33.9934 17.318,33.9934 L17.318,33.9934 Z M72.358,25.8234 L59.798,25.8234 C59.783,25.1634 59.755,24.5044 59.718,23.8464 C59.609,22.0404 59.459,20.2364 59.161,18.4494 C59.159,18.4354 59.156,18.4194 59.154,18.4044 C58.041,11.2334 55.74,6.5254 53.869,3.7244 C65.492,6.3644 70.77,20.5244 72.358,25.8234 L72.358,25.8234 Z M69.543,7.1444 C74.093,9.1784 78.117,12.0164 81.503,15.5784 C85.234,19.5044 87.374,23.4744 88.429,25.8234 L75.795,25.8234 C75.791,25.8104 75.786,25.7944 75.782,25.7804 C74.987,22.8924 73.935,20.0714 72.653,17.3634 C70.545,12.9064 67.779,8.6594 64.032,5.4074 C63.88,5.2764 63.727,5.1464 63.573,5.0184 C65.654,5.5874 67.646,6.2964 69.543,7.1444 L69.543,7.1444 Z M82.681,33.9934 C79.654,33.9934 77.102,31.9214 76.371,29.1204 L88.993,29.1204 C88.26,31.9214 85.709,33.9934 82.681,33.9934 L82.681,33.9934 Z M66.341,33.9934 C63.314,33.9934 60.761,31.9214 60.03,29.1204 L72.652,29.1204 C71.92,31.9214 69.368,33.9934 66.341,33.9934 L66.341,33.9934 Z M47.824,37.0264 L47.944,37.0754 C47.967,37.0804 47.991,37.0844 48.014,37.0894 C48.667,37.2244 49.334,37.2894 50,37.2894 C50.667,37.2894 51.334,37.2244 51.986,37.0894 C52.008,37.0844 52.033,37.0804 52.056,37.0754 L52.177,37.0264 L52.177,55.9724 L47.824,55.9724 L47.824,37.0264 Z M85.859,55.9724 L55.668,55.9724 L55.668,35.4684 C56.647,34.7724 57.502,33.9104 58.17,32.9104 C59.932,35.5494 62.936,37.2914 66.34,37.2914 C69.745,37.2914 72.749,35.5494 74.51,32.9104 C76.273,35.5494 79.277,37.2914 82.681,37.2914 C88.095,37.2914 92.5,32.8864 92.5,27.4724 C92.5,27.3894 92.448,27.0554 92.423,26.9734 C92.285,26.5244 90.199,19.9964 84.008,13.4294 C80.326,9.5234 75.946,6.4104 70.99,4.1804 C64.831,1.4064 57.771,-0.0006 50.006,-0.0006 L50.001,-0.0006 L50,-0.0006 L49.994,-0.0006 C42.229,-0.0006 35.17,1.4064 29.009,4.1804 C24.054,6.4104 19.673,9.5234 15.992,13.4294 C9.801,19.9964 7.715,26.5244 7.577,26.9734 C7.552,27.0554 7.5,27.3894 7.5,27.4724 C7.5,32.8864 11.904,37.2914 17.319,37.2914 C20.723,37.2914 23.727,35.5494 25.489,32.9104 C27.252,35.5494 30.255,37.2914 33.66,37.2914 C37.064,37.2914 40.068,35.5494 41.83,32.9104 C42.498,33.9104 43.353,34.7724 44.334,35.4684 L44.334,55.9734 L14.141,55.9734 C11.078,55.9734 8.586,58.4654 8.586,61.5284 C8.586,64.5914 11.078,67.0834 14.141,67.0834 L33.546,67.0834 L43.05,80.4744 C43.05,80.4744 31.172,97.2084 31.147,97.2444 C30.341,98.3804 31.182,99.9994 32.57,99.9994 L42.189,99.9994 C42.755,99.9994 43.285,99.7264 43.612,99.2654 L50,90.2654 L56.387,99.2644 C56.715,99.7254 57.246,99.9994 57.811,99.9994 L67.429,99.9994 C68.82,99.9994 69.658,98.3784 68.853,97.2434 L56.95,80.4734 L66.454,67.0824 L85.859,67.0824 C88.922,67.0824 91.415,64.5904 91.415,61.5284 C91.415,58.4644 88.922,55.9724 85.859,55.9724 L85.859,55.9724 Z" id="icon_patio-table" fill="#3A4B60"></path>
    </g>
</svg>