<?xml version="1.0" encoding="UTF-8"?>
<svg width="100px" height="100px" viewBox="0 0 100 100" version="1.1" xmlns="http://www.w3.org/2000/svg" xmlns:xlink="http://www.w3.org/1999/xlink">
    <!-- Generator: Sketch 63.1 (92452) - https://sketch.com -->
    <title>icon / furniture / patio-storage-box</title>
    <desc>Created with Sketch.</desc>
    <g id="icon-/-furniture-/-patio-storage-box" stroke="none" stroke-width="1" fill="none" fill-rule="evenodd">
        <path d="M96.7324,31.3789 L3.2674,31.3789 L7.4574,24.2329 C7.6804,23.8879 8.0584,23.6829 8.4694,23.6829 L91.5304,23.6829 C91.9444,23.6829 92.3254,23.8909 92.5384,24.2239 L96.7324,31.3789 Z M54.5694,39.0159 L97.3174,39.0159 L97.3174,34.0609 L54.5694,34.0609 L54.5694,39.0159 Z M97.3174,41.6979 L97.3174,43.8129 L54.5564,43.8129 C54.5654,43.6979 54.5694,43.5839 54.5694,43.4699 L54.5694,41.6979 L97.3174,41.6979 Z M51.8874,43.4699 C51.8874,44.5109 51.0414,45.3579 50.0004,45.3579 C48.9604,45.3579 48.1134,44.5109 48.1134,43.4699 L48.1134,34.0609 L51.8874,34.0609 L51.8874,43.4699 Z M97.3174,46.4949 L97.3174,51.4489 L2.6824,51.4489 L2.6824,46.4949 L46.5794,46.4949 C47.4484,47.4799 48.6824,48.0399 50.0004,48.0399 C51.3184,48.0399 52.5524,47.4799 53.4214,46.4949 L97.3174,46.4949 Z M2.6824,39.0159 L45.4314,39.0159 L45.4314,34.0609 L2.6824,34.0609 L2.6824,39.0159 Z M45.4444,43.8129 L2.6824,43.8129 L2.6824,41.6979 L45.4314,41.6979 L45.4314,43.4699 C45.4314,43.5839 45.4354,43.6979 45.4444,43.8129 L45.4444,43.8129 Z M2.6814,56.2469 L97.3174,56.2469 L97.3174,54.1319 L2.6814,54.1319 L2.6814,56.2469 Z M2.6824,63.8839 L97.3174,63.8839 L97.3174,58.9289 L2.6824,58.9289 L2.6824,63.8839 Z M2.6814,68.6809 L97.3174,68.6809 L97.3174,66.5669 L2.6814,66.5669 L2.6814,68.6809 Z M2.6814,76.3169 L97.3174,76.3169 L97.3174,71.3629 L2.6814,71.3629 L2.6814,76.3169 Z M99.5044,30.8299 L94.8084,22.7949 C94.0894,21.6709 92.8644,20.9999 91.5304,20.9999 L8.4694,20.9999 C7.1354,20.9999 5.9104,21.6709 5.1814,22.8129 L0.5044,30.8139 C0.1744,31.3299 0.0004,31.9279 0.0004,32.5409 L0.0004,76.4699 C0.0004,77.8639 1.1354,78.9999 2.5304,78.9999 L97.4694,78.9999 C98.8644,78.9999 100.0004,77.8639 100.0004,76.4699 L100.0004,32.5409 C100.0004,31.9279 99.8254,31.3299 99.5044,30.8299 L99.5044,30.8299 Z" id="icon_patio-storage-box" fill="#3A4B60"></path>
    </g>
</svg>