<?xml version="1.0" encoding="UTF-8"?>
<svg width="100px" height="100px" viewBox="0 0 100 100" version="1.1" xmlns="http://www.w3.org/2000/svg" xmlns:xlink="http://www.w3.org/1999/xlink">
    <title>icon / furniture / patio-chair</title>
    <g id="icon-/-furniture-/-patio-chair" stroke="none" stroke-width="1" fill="none" fill-rule="evenodd">
        <path d="M97.2693,46.2544 L86.6713,46.2544 C86.0973,46.2544 85.6093,46.6124 85.4083,47.1154 C85.3393,47.2474 85.3013,47.4054 85.3013,47.5934 L85.3013,71.5654 L87.8133,97.2694 L84.5703,97.2694 L82.0453,71.5224 L82.0453,44.4954 L97.2693,44.4954 L97.2693,46.2544 Z M19.2823,85.9294 L19.4543,84.1704 L80.5493,84.1704 L80.7223,85.9294 L19.2823,85.9294 Z M20.5203,73.3204 L28.3953,73.3204 L29.0833,78.6964 C29.1693,79.3764 29.7523,79.8884 30.4383,79.8884 L68.9393,79.8884 C69.6233,79.8884 70.2063,79.3764 70.2933,78.6964 L70.9813,73.3204 L79.4873,73.3204 L80.2823,81.4394 L19.7223,81.4394 L20.5203,73.3204 Z M68.2283,73.3204 L67.7373,77.1574 L31.6403,77.1574 L31.1493,73.3204 L68.2283,73.3204 Z M20.6803,66.5854 L79.3153,66.5854 L79.3153,70.5884 L20.6793,70.5884 L20.6803,66.5854 Z M23.2073,11.2354 C24.5173,10.2354 25.9263,9.3034 27.4103,8.4544 L33.2093,63.8544 L29.9383,63.8544 L23.2073,11.2354 Z M34.8913,5.1134 C36.3833,4.6134 37.9223,4.1874 39.4803,3.8424 L42.2723,63.8544 L38.9893,63.8544 L34.8913,5.1134 Z M52.0413,2.7924 L51.3323,63.8544 L48.0443,63.8544 L47.3353,2.7924 C48.9293,2.7124 50.4483,2.7124 52.0413,2.7924 L52.0413,2.7924 Z M59.8963,3.8424 C61.4543,4.1874 62.9933,4.6134 64.4863,5.1134 L60.3943,63.7534 C60.3913,63.7884 60.4073,63.8194 60.4073,63.8544 L57.1043,63.8544 L59.8963,3.8424 Z M71.9653,8.4594 C73.4483,9.3074 74.8573,10.2344 76.1683,11.2354 L69.4383,63.8544 L66.1693,63.8544 L71.9653,8.4594 Z M15.4243,97.2694 L12.1833,97.2694 L14.6933,71.7014 L14.7013,47.6194 C14.7013,46.8664 14.0883,46.2544 13.3353,46.2544 L2.7313,46.2544 L2.7313,44.4954 L17.9563,44.4954 L17.9573,71.4734 L15.4243,97.2694 Z M98.6343,41.7644 L80.6803,41.7644 C79.9263,41.7644 79.3153,42.3774 79.3153,43.1294 L79.3153,63.8544 L72.1913,63.8544 L78.9763,10.8114 C79.0363,10.3414 78.8433,9.8664 78.4733,9.5704 C76.3463,7.8734 73.9803,6.3584 71.4403,5.0684 C70.7663,4.7264 69.9453,4.9974 69.6053,5.6664 C69.5383,5.7974 69.5093,5.9394 69.4883,6.0804 C69.4823,6.1124 63.4233,63.8544 63.4233,63.8544 L63.1233,63.8544 L67.2833,4.2624 C67.3243,3.6574 66.9563,3.0904 66.3853,2.8834 C63.9693,2.0084 61.4363,1.3234 58.8543,0.8454 C58.4703,0.7724 58.0673,0.8724 57.7583,1.1174 C57.4493,1.3624 57.2593,1.7304 57.2433,2.1244 L54.3723,63.8544 L54.0633,63.8544 L54.7883,1.5284 C54.7953,0.8094 54.2423,0.2044 53.5243,0.1504 C50.8713,-0.0496 48.5033,-0.0506 45.8523,0.1504 C45.1353,0.2044 44.5813,0.8094 44.5893,1.5274 L45.3133,63.8544 L45.0043,63.8544 L42.1333,2.1254 C42.1163,1.7304 41.9273,1.3624 41.6193,1.1184 C41.3093,0.8724 40.9073,0.7724 40.5213,0.8454 C37.9433,1.3224 35.4093,2.0084 32.9923,2.8834 C32.4213,3.0904 32.0533,3.6574 32.0943,4.2624 L36.2523,63.8544 L35.9553,63.8544 L29.9133,6.1434 C29.8673,5.6964 29.6023,5.3024 29.2063,5.0854 C28.8103,4.8714 28.3343,4.8664 27.9363,5.0684 C25.3933,6.3604 23.0273,7.8754 20.9033,9.5704 C20.5343,9.8664 20.3403,10.3414 20.4013,10.8114 L27.1853,63.8544 L20.6813,63.8544 L20.6863,43.1294 C20.6863,42.3774 20.0743,41.7644 19.3213,41.7644 L1.3653,41.7644 C0.6123,41.7644 -0.0007,42.3774 -0.0007,43.1294 L-0.0007,47.6194 C-0.0007,48.3724 0.6123,48.9844 1.3653,48.9844 L11.9693,48.9844 L11.9703,71.4744 L9.3173,98.5024 C9.2813,98.8854 9.4083,99.2674 9.6653,99.5514 C9.9233,99.8364 10.2913,100.0004 10.6763,100.0004 L16.6643,100.0004 C17.3693,100.0004 17.9533,99.4704 18.0223,98.7684 L19.0133,88.6604 L80.9903,88.6604 L81.9743,98.7684 C82.0423,99.4704 82.6273,100.0004 83.3333,100.0004 L89.3193,100.0004 C89.7053,100.0004 90.0753,99.8364 90.3313,99.5524 C90.5893,99.2674 90.7163,98.8844 90.6783,98.5014 L88.0323,71.5224 L88.0323,48.9844 L98.6343,48.9844 C99.3883,48.9844 99.9993,48.3724 99.9993,47.6194 L99.9993,43.1294 C99.9993,42.3774 99.3883,41.7644 98.6343,41.7644 L98.6343,41.7644 Z" id="icon_patio-chair" fill="#3A4B60"></path>
    </g>
</svg>