<?xml version="1.0" encoding="UTF-8"?>
<svg width="100px" height="100px" viewBox="0 0 100 100" version="1.1" xmlns="http://www.w3.org/2000/svg">
    <title>icon / furniture / patio-sofa</title>
    <g id="icon-/-furniture-/-patio-sofa" stroke="none" stroke-width="1" fill="none" fill-rule="evenodd">
        <path d="M29.6076,45.0496 C30.4176,45.0496 31.0726,44.3936 31.0726,43.5836 C31.0726,42.7746 30.4176,42.1176 29.6076,42.1176 C28.7976,42.1176 28.1416,42.7746 28.1416,43.5836 C28.1416,44.3936 28.7976,45.0496 29.6076,45.0496 L29.6076,45.0496 Z M40.4796,36.2336 C41.2896,36.2336 41.9456,35.5766 41.9456,34.7676 C41.9456,33.9586 41.2896,33.3026 40.4796,33.3026 C39.6706,33.3026 39.0146,33.9586 39.0146,34.7676 C39.0146,35.5766 39.6706,36.2336 40.4796,36.2336 L40.4796,36.2336 Z M40.4796,45.0496 C41.2896,45.0496 41.9456,44.3936 41.9456,43.5836 C41.9456,42.7746 41.2896,42.1176 40.4796,42.1176 C39.6706,42.1176 39.0146,42.7746 39.0146,43.5836 C39.0146,44.3936 39.6706,45.0496 40.4796,45.0496 L40.4796,45.0496 Z M19.1726,45.0496 C19.9826,45.0496 20.6386,44.3936 20.6386,43.5836 C20.6386,42.7746 19.9826,42.1176 19.1726,42.1176 C18.3636,42.1176 17.7076,42.7746 17.7076,43.5836 C17.7076,44.3936 18.3636,45.0496 19.1726,45.0496 L19.1726,45.0496 Z M19.1726,36.2336 C19.9826,36.2336 20.6386,35.5766 20.6386,34.7676 C20.6386,33.9586 19.9826,33.3026 19.1726,33.3026 C18.3636,33.3026 17.7076,33.9586 17.7076,34.7676 C17.7076,35.5766 18.3636,36.2336 19.1726,36.2336 L19.1726,36.2336 Z M29.6076,36.2336 C30.4176,36.2336 31.0726,35.5766 31.0726,34.7676 C31.0726,33.9586 30.4176,33.3026 29.6076,33.3026 C28.7976,33.3026 28.1416,33.9586 28.1416,34.7676 C28.1416,35.5766 28.7976,36.2336 29.6076,36.2336 L29.6076,36.2336 Z M68.9606,36.2336 C69.7696,36.2336 70.4256,35.5766 70.4256,34.7676 C70.4256,33.9586 69.7696,33.3026 68.9606,33.3026 C68.1506,33.3026 67.4946,33.9586 67.4946,34.7676 C67.4946,35.5766 68.1506,36.2336 68.9606,36.2336 L68.9606,36.2336 Z M79.8326,45.0496 C80.6416,45.0496 81.2976,44.3936 81.2976,43.5836 C81.2976,42.7746 80.6416,42.1176 79.8326,42.1176 C79.0226,42.1176 78.3676,42.7746 78.3676,43.5836 C78.3676,44.3936 79.0226,45.0496 79.8326,45.0496 L79.8326,45.0496 Z M79.8326,36.2336 C80.6416,36.2336 81.2976,35.5766 81.2976,34.7676 C81.2976,33.9586 80.6416,33.3026 79.8326,33.3026 C79.0226,33.3026 78.3676,33.9586 78.3676,34.7676 C78.3676,35.5766 79.0226,36.2336 79.8326,36.2336 L79.8326,36.2336 Z M68.9606,45.0496 C69.7696,45.0496 70.4256,44.3936 70.4256,43.5836 C70.4256,42.7746 69.7696,42.1176 68.9606,42.1176 C68.1506,42.1176 67.4946,42.7746 67.4946,43.5836 C67.4946,44.3936 68.1506,45.0496 68.9606,45.0496 L68.9606,45.0496 Z M58.5256,45.0496 C59.3356,45.0496 59.9916,44.3936 59.9916,43.5836 C59.9916,42.7746 59.3356,42.1176 58.5256,42.1176 C57.7166,42.1176 57.0606,42.7746 57.0606,43.5836 C57.0606,44.3936 57.7166,45.0496 58.5256,45.0496 L58.5256,45.0496 Z M57.0606,34.7676 C57.0606,33.9586 57.7166,33.3026 58.5256,33.3026 C59.3356,33.3026 59.9916,33.9586 59.9916,34.7676 C59.9916,35.5766 59.3356,36.2336 58.5256,36.2336 C57.7166,36.2336 57.0606,35.5766 57.0606,34.7676 L57.0606,34.7676 Z M97.0706,58.5386 C97.0706,58.6356 96.9916,58.7146 96.8936,58.7146 C96.8886,58.7146 96.8836,58.7156 96.8786,58.7156 L3.1236,58.7156 L3.1076,58.7156 C3.0086,58.7156 2.9286,58.6356 2.9286,58.5366 L2.9286,33.0896 L8.3726,33.0896 L8.3736,51.0426 C8.3736,51.4886 8.4956,51.9056 8.7106,52.2736 C8.7116,52.2766 8.7136,52.2786 8.7146,52.2806 C8.7306,52.3086 8.7476,52.3346 8.7636,52.3616 C9.2536,53.1886 10.1526,53.7466 11.1816,53.7466 L88.8196,53.7466 C89.9236,53.7466 90.8786,53.1046 91.3366,52.1746 C91.4876,51.8886 91.5826,51.5756 91.6096,51.2426 C91.6206,51.1436 91.6266,51.0426 91.6266,50.9406 L91.6266,33.0896 L97.0706,33.0896 L97.0706,58.5386 Z M2.9296,72.0706 L97.0706,72.0706 L97.0706,61.6446 L2.9296,61.6446 L2.9296,72.0706 Z M11.3006,28.4286 C11.3006,28.1536 11.5246,27.9296 11.8006,27.9296 L48.4556,27.9296 L48.4556,50.7786 C29.6506,50.7786 11.3236,50.7766 11.3016,50.7706 L11.3016,37.5106 C11.3016,37.5036 11.3006,37.4976 11.3006,37.4906 L11.3006,28.4286 Z M88.1986,27.9296 C88.4736,27.9296 88.6976,28.1536 88.6976,28.4286 L88.6916,50.7696 C88.6706,50.7756 70.2426,50.7786 51.3836,50.7786 L51.3836,27.9296 L88.1986,27.9296 Z M100.0006,33.2686 L100.0006,33.2686 C100.0006,31.5556 98.6056,30.1606 96.8916,30.1606 L91.6276,30.1606 L91.6276,28.4996 C91.6276,26.5676 90.0596,24.9996 88.1276,24.9996 L11.8716,24.9996 C9.9386,24.9996 8.3726,26.5676 8.3726,28.4996 L8.3726,30.1606 L3.1056,30.1606 C1.3906,30.1606 0.0006,31.5516 0.0006,33.2666 L0.0006,58.5356 C0.0006,59.0396 0.1236,59.5146 0.3366,59.9366 C0.1256,60.2986 0.0006,60.7196 0.0006,61.1696 L0.0006,72.5456 C0.0006,73.9016 1.0996,74.9996 2.4556,74.9996 L97.5456,74.9996 C98.9006,74.9996 99.9996,73.9016 99.9996,72.5456 L99.9996,61.1696 C99.9996,60.7196 99.8766,60.2996 99.6636,59.9366 C99.8776,59.5156 100.0006,59.0416 100.0006,58.5376 L100.0006,33.2686 Z"
              id="Fill-1" fill="#3A4B60"></path>
    </g>
</svg>