<?xml version="1.0" encoding="UTF-8"?>
<svg width="100px" height="100px" viewBox="0 0 100 100" version="1.1" xmlns="http://www.w3.org/2000/svg" xmlns:xlink="http://www.w3.org/1999/xlink">
    <!-- Generator: Sketch 63.1 (92452) - https://sketch.com -->
    <title>icon / furniture / patio-swing</title>
    <desc>Created with Sketch.</desc>
    <g id="icon-/-furniture-/-patio-swing" stroke="none" stroke-width="1" fill="none" fill-rule="evenodd">
        <path d="M28.7305,47.2441 L28.7305,58.9781 C28.7305,59.6391 28.1955,60.1741 27.5355,60.1741 C26.8755,60.1741 26.3405,59.6391 26.3405,58.9781 L26.3405,47.2441 C26.3405,46.5841 26.8755,46.0491 27.5355,46.0491 C28.1955,46.0491 28.7305,46.5841 28.7305,47.2441 L28.7305,47.2441 Z M33.7225,47.2441 L33.7225,58.9781 C33.7225,59.6391 33.1875,60.1741 32.5275,60.1741 C31.8675,60.1741 31.3335,59.6391 31.3335,58.9781 L31.3335,47.2441 C31.3335,46.5841 31.8675,46.0491 32.5275,46.0491 C33.1875,46.0491 33.7225,46.5841 33.7225,47.2441 L33.7225,47.2441 Z M38.7145,47.2441 L38.7145,58.9781 C38.7145,59.6391 38.1795,60.1741 37.5195,60.1741 C36.8595,60.1741 36.3245,59.6391 36.3245,58.9781 L36.3245,47.2441 C36.3245,46.5841 36.8595,46.0491 37.5195,46.0491 C38.1795,46.0491 38.7145,46.5841 38.7145,47.2441 L38.7145,47.2441 Z M43.7075,47.2441 L43.7075,58.9781 C43.7075,59.6391 43.1715,60.1741 42.5115,60.1741 C41.8515,60.1741 41.3165,59.6391 41.3165,58.9781 L41.3165,47.2441 C41.3165,46.5841 41.8515,46.0491 42.5115,46.0491 C43.1715,46.0491 43.7075,46.5841 43.7075,47.2441 L43.7075,47.2441 Z M48.6985,47.2441 L48.6985,58.9781 C48.6985,59.6391 48.1645,60.1741 47.5035,60.1741 C46.8435,60.1741 46.3095,59.6391 46.3095,58.9781 L46.3095,47.2441 C46.3095,46.5841 46.8435,46.0491 47.5035,46.0491 C48.1645,46.0491 48.6985,46.5841 48.6985,47.2441 L48.6985,47.2441 Z M53.6905,47.2441 L53.6905,58.9781 C53.6905,59.6391 53.1565,60.1741 52.4965,60.1741 C51.8355,60.1741 51.3015,59.6391 51.3015,58.9781 L51.3015,47.2441 C51.3015,46.5841 51.8355,46.0491 52.4965,46.0491 C53.1565,46.0491 53.6905,46.5841 53.6905,47.2441 L53.6905,47.2441 Z M58.6835,47.2441 L58.6835,58.9781 C58.6835,59.6391 58.1485,60.1741 57.4885,60.1741 C56.8285,60.1741 56.2925,59.6391 56.2925,58.9781 L56.2925,47.2441 C56.2925,46.5841 56.8285,46.0491 57.4885,46.0491 C58.1485,46.0491 58.6835,46.5841 58.6835,47.2441 L58.6835,47.2441 Z M63.6755,47.2441 L63.6755,58.9781 C63.6755,59.6391 63.1405,60.1741 62.4805,60.1741 C61.8205,60.1741 61.2855,59.6391 61.2855,58.9781 L61.2855,47.2441 C61.2855,46.5841 61.8205,46.0491 62.4805,46.0491 C63.1405,46.0491 63.6755,46.5841 63.6755,47.2441 L63.6755,47.2441 Z M68.6675,47.2441 L68.6675,58.9781 C68.6675,59.6391 68.1325,60.1741 67.4725,60.1741 C66.8125,60.1741 66.2775,59.6391 66.2775,58.9781 L66.2775,47.2441 C66.2775,46.5841 66.8125,46.0491 67.4725,46.0491 C68.1325,46.0491 68.6675,46.5841 68.6675,47.2441 L68.6675,47.2441 Z M73.6595,47.2441 L73.6595,58.9781 C73.6595,59.6391 73.1245,60.1741 72.4645,60.1741 C71.8045,60.1741 71.2695,59.6391 71.2695,58.9781 L71.2695,47.2441 C71.2695,46.5841 71.8045,46.0491 72.4645,46.0491 C73.1245,46.0491 73.6595,46.5841 73.6595,47.2441 L73.6595,47.2441 Z M96.6545,77.6101 L96.5395,77.6101 C96.0415,77.6101 95.6265,77.2281 95.5855,76.7331 L91.5905,28.4911 L93.6255,28.4911 L97.6065,76.5751 C97.6535,77.1331 97.2135,77.6101 96.6545,77.6101 L96.6545,77.6101 Z M88.2055,75.0791 C88.1655,75.5731 87.7515,75.9531 87.2565,75.9531 C86.6995,75.9531 86.2605,75.4771 86.3065,74.9221 L89.6685,34.2361 L90.6285,45.8251 L88.2055,75.0791 Z M79.9125,61.8061 L79.5305,61.8061 L79.5305,61.7671 L79.5305,45.2521 C79.5305,43.4071 78.0295,41.9061 76.1845,41.9061 L23.8155,41.9061 C21.9705,41.9061 20.4695,43.4071 20.4695,45.2521 L20.4695,61.7671 L20.4695,61.8061 L20.0875,61.8061 L16.7415,27.8301 L83.2585,27.8301 L79.9125,61.8061 Z M22.8595,61.7671 L22.8595,45.2521 C22.8595,44.7241 23.2885,44.2971 23.8155,44.2971 L76.1845,44.2971 C76.7115,44.2971 77.1405,44.7241 77.1405,45.2521 L77.1405,61.7671 L22.8595,61.7671 Z M81.4415,66.8241 C81.4415,66.9561 81.3345,67.0631 81.2035,67.0631 L18.7965,67.0631 C18.6655,67.0631 18.5585,66.9561 18.5585,66.8241 L18.5585,64.4341 C18.5585,64.3031 18.6655,64.1951 18.7965,64.1951 L81.2035,64.1951 C81.3345,64.1951 81.4415,64.3031 81.4415,64.4341 L81.4415,66.8241 Z M12.7605,75.9531 C12.2645,75.9531 11.8525,75.5731 11.8115,75.0791 L9.3795,45.7231 L10.3395,34.1351 L13.7095,74.9221 C13.7555,75.4771 13.3175,75.9531 12.7605,75.9531 L12.7605,75.9531 Z M4.4145,76.7331 C4.3735,77.2281 3.9585,77.6101 3.4605,77.6101 L3.3455,77.6101 C2.7865,77.6101 2.3465,77.1331 2.3935,76.5751 L6.3755,28.4911 L8.4095,28.4911 L4.4145,76.7331 Z M5.3585,23.3461 C5.3585,22.8171 5.7865,22.3901 6.3145,22.3901 L93.6855,22.3901 C94.2135,22.3901 94.6415,22.8171 94.6415,23.3461 L94.6415,24.4841 C94.6415,25.0131 94.2135,25.4401 93.6855,25.4401 L6.3145,25.4401 C5.7865,25.4401 5.3585,25.0131 5.3585,24.4841 L5.3585,23.3461 Z M96.0065,28.2941 L95.8975,26.9751 C96.5875,26.3621 97.0315,25.4781 97.0315,24.4841 L97.0315,23.3461 C97.0315,21.5011 95.5305,20.0001 93.6855,20.0001 L6.3145,20.0001 C4.4695,20.0001 2.9685,21.5011 2.9685,23.3461 L2.9685,24.4841 C2.9685,25.4781 3.4125,26.3621 4.1025,26.9751 L3.9935,28.2941 L0.0115,76.3781 C-0.0655,77.3071 0.2525,78.2341 0.8845,78.9201 C1.5155,79.6061 2.4135,80.0001 3.3455,80.0001 L3.4605,80.0001 C5.1885,80.0001 6.6525,78.6511 6.7955,76.9311 L8.1805,60.2011 L9.4295,75.2761 C9.5715,76.9961 11.0345,78.3441 12.7605,78.3441 C13.6925,78.3441 14.5885,77.9501 15.2195,77.2651 C15.8505,76.5791 16.1685,75.6531 16.0915,74.7251 L12.2165,27.8301 L14.3395,27.8301 L17.7095,62.0481 C16.8035,62.4631 16.1685,63.3741 16.1685,64.4341 L16.1685,66.8241 C16.1685,68.2731 17.3475,69.4531 18.7965,69.4531 L81.2035,69.4531 C82.6525,69.4531 83.8315,68.2731 83.8315,66.8241 L83.8315,64.4341 C83.8315,63.3741 83.1975,62.4631 82.2905,62.0481 L85.6605,27.8301 L87.7995,27.8301 L83.9255,74.7251 C83.8485,75.6531 84.1665,76.5791 84.7975,77.2651 C85.4285,77.9501 86.3245,78.3441 87.2565,78.3441 C88.9815,78.3441 90.4455,76.9961 90.5875,75.2761 L91.8275,60.3031 L93.2045,76.9311 C93.3475,78.6511 94.8115,80.0001 96.5395,80.0001 L96.6545,80.0001 C97.5865,80.0001 98.4845,79.6061 99.1155,78.9201 C99.7475,78.2341 100.0655,77.3071 99.9885,76.3781 L96.0065,28.2941 Z" id="icon_patio-swing" fill="#3A4B60"></path>
    </g>
</svg>