<?xml version="1.0" encoding="UTF-8"?>
<svg width="100px" height="100px" viewBox="0 0 100 100" version="1.1" xmlns="http://www.w3.org/2000/svg" xmlns:xlink="http://www.w3.org/1999/xlink">
    <title>icon / furniture / patio-end-table</title>
    <g id="icon-/-furniture-/-patio-end-table" stroke="none" stroke-width="1" fill="none" fill-rule="evenodd">
        <path d="M73.0466,17.5784 C73.0466,18.6564 73.9216,19.5314 74.9996,19.5314 L90.2336,19.5314 C91.3136,19.5314 92.1876,18.6564 92.1876,17.5784 C92.1876,16.4994 91.3136,15.6254 90.2336,15.6254 L74.9996,15.6254 C73.9216,15.6254 73.0466,16.4994 73.0466,17.5784 L73.0466,17.5784 Z M20.8336,17.5784 C20.8336,18.6564 21.7076,19.5314 22.7866,19.5314 L34.5696,19.5314 C35.6496,19.5314 36.5236,18.6564 36.5236,17.5784 C36.5236,16.4994 35.6496,15.6254 34.5696,15.6254 L22.7866,15.6254 C21.7076,15.6254 20.8336,16.4994 20.8336,17.5784 L20.8336,17.5784 Z M38.4766,11.7194 L72.9936,11.7194 C74.0716,11.7194 74.9466,10.8444 74.9466,9.7664 C74.9466,8.6864 74.0716,7.8124 72.9936,7.8124 L38.4766,7.8124 C37.3986,7.8124 36.5236,8.6864 36.5236,9.7664 C36.5236,10.8444 37.3986,11.7194 38.4766,11.7194 L38.4766,11.7194 Z M13.7986,11.7194 L23.7376,11.7194 C24.8166,11.7194 25.6916,10.8444 25.6916,9.7664 C25.6916,8.6864 24.8166,7.8124 23.7376,7.8124 L13.7986,7.8124 C12.7196,7.8124 11.8456,8.6864 11.8456,9.7664 C11.8456,10.8444 12.7196,11.7194 13.7986,11.7194 L13.7986,11.7194 Z M49.9606,64.3894 C50.4746,64.3894 50.9796,64.1804 51.3416,63.8154 C51.7046,63.4514 51.9136,62.9494 51.9136,62.4354 C51.9136,61.9224 51.7046,61.4184 51.3416,61.0554 C50.9796,60.6894 50.4746,60.4824 49.9606,60.4824 C49.4476,60.4824 48.9426,60.6894 48.5796,61.0554 C48.2146,61.4184 48.0076,61.9204 48.0076,62.4354 C48.0076,62.9494 48.2146,63.4534 48.5796,63.8154 C48.9426,64.1804 49.4476,64.3894 49.9606,64.3894 L49.9606,64.3894 Z M96.0936,7.8124 L91.4056,7.8124 C90.3266,7.8124 89.4526,8.6864 89.4526,9.7664 C89.4526,10.8444 90.3266,11.7194 91.4056,11.7194 L96.0936,11.7194 L96.0936,22.4614 C96.0936,22.9994 95.6556,23.4374 95.1166,23.4374 L4.8826,23.4374 C4.3446,23.4374 3.9056,22.9994 3.9056,22.4614 L3.9056,19.5314 L13.0646,19.5314 C14.1436,19.5314 15.0176,18.6564 15.0176,17.5784 C15.0176,16.4994 14.1436,15.6254 13.0646,15.6254 L3.9056,15.6254 L3.9056,4.8834 C3.9056,4.3444 4.3446,3.9064 4.8826,3.9064 L95.1166,3.9064 C95.6556,3.9064 96.0936,4.3444 96.0936,4.8834 L96.0936,7.8124 Z M57.7336,59.7374 L52.7626,54.7664 L80.1856,27.3444 L90.1286,27.3444 L57.7336,59.7374 Z M74.6606,27.3444 L49.9996,52.0044 L25.3406,27.3444 L74.6606,27.3444 Z M88.5666,96.0944 L78.6226,96.0944 L9.8726,27.3444 L19.8166,27.3444 L88.5666,96.0944 Z M21.3786,96.0944 L11.4356,96.0944 L42.2666,65.2634 L47.2376,70.2334 L21.3786,96.0944 Z M95.1166,0.0004 L4.8826,0.0004 C2.1906,0.0004 -0.0004,2.1904 -0.0004,4.8834 L-0.0004,22.4614 C-0.0004,24.9604 1.8886,27.0264 4.3136,27.3094 L39.5046,62.5004 L5.4276,96.5764 C4.6646,97.3394 4.6646,98.5764 5.4276,99.3384 L5.5166,99.4284 C5.8836,99.7944 6.3796,100.0004 6.8976,100.0004 L22.1876,100.0004 C22.7046,100.0004 23.2016,99.7944 23.5676,99.4284 L49.9996,72.9954 L76.4326,99.4284 C76.7986,99.7944 77.2946,100.0004 77.8136,100.0004 L93.1026,100.0004 C93.6196,100.0004 94.1166,99.7944 94.4836,99.4284 L94.5726,99.3384 C95.3356,98.5764 95.3356,97.3394 94.5726,96.5764 L60.4966,62.5004 L95.6876,27.3094 C98.1116,27.0264 99.9996,24.9604 99.9996,22.4614 L99.9996,4.8834 C99.9996,2.1904 97.8096,0.0004 95.1166,0.0004 L95.1166,0.0004 Z" id="icon_patio-end-table" fill="#3A4B60"></path>
    </g>
</svg>