<?xml version="1.0" encoding="UTF-8"?>
<svg width="100px" height="100px" viewBox="0 0 100 100" version="1.1" xmlns="http://www.w3.org/2000/svg" xmlns:xlink="http://www.w3.org/1999/xlink">
    <title>icon / furniture / piano-bench</title>
    <g id="icon-/-furniture-/-piano-bench" stroke="none" stroke-width="1" fill="none" fill-rule="evenodd">
        <path d="M91.9976,51.512323 L8.0026,51.512323 C5.2586,51.512323 3.0256,49.278323 3.0256,46.534323 L3.0256,46.422323 C3.0256,43.678323 5.2586,41.445323 8.0026,41.445323 C8.1426,41.445323 8.2806,41.423323 8.4136,41.378323 C11.1326,41.424323 88.8696,41.424323 91.5856,41.378323 C91.7186,41.423323 91.8586,41.445323 91.9976,41.445323 C94.7416,41.445323 96.9756,43.678323 96.9756,46.422323 L96.9756,46.534323 C96.9756,49.278323 94.7416,51.512323 91.9976,51.512323 L91.9976,51.512323 Z M91.0006,60.475323 C90.0646,60.045323 89.3136,59.291323 88.8836,58.353323 C88.1996,56.861323 86.7216,55.897323 85.1156,55.897323 L14.8826,55.897323 C13.2776,55.897323 11.7996,56.861323 11.1166,58.353323 C10.6866,59.292323 9.9346,60.045323 8.9986,60.475323 C6.5426,61.604323 4.9556,64.049323 4.9556,66.706323 L4.9506,74.880323 L3.1856,74.875323 L3.1856,65.130323 C3.1856,63.181323 3.5946,61.292323 4.4006,59.518323 L6.8866,54.052323 C7.2566,54.105323 7.6306,54.133323 8.0026,54.133323 L91.9976,54.133323 C92.3676,54.133323 92.7416,54.105323 93.1116,54.052323 L95.5986,59.518323 C96.4036,61.290323 96.8136,63.178323 96.8136,65.130323 L96.8096,74.880323 L95.0436,74.875323 L95.0436,66.706323 C95.0436,64.049323 93.4576,61.604323 91.0006,60.475323 L91.0006,60.475323 Z M59.3626,26.212323 L59.3626,26.212323 L59.5666,26.371323 C60.7106,25.563323 62.1076,25.123323 63.5156,25.123323 C63.5696,25.123323 63.6276,25.123323 63.6846,25.125323 C65.2446,25.163323 66.7586,25.739323 67.9446,26.747323 C68.2506,27.007323 68.5896,27.211323 68.9546,27.355323 L68.9546,30.368323 C68.9546,30.525323 68.9996,30.663323 69.0286,30.761323 L69.0576,30.878323 C69.2636,31.364323 69.7376,31.679323 70.2656,31.679323 C70.9876,31.679323 71.5756,31.091323 71.5756,30.368323 L71.5756,27.350323 C71.6536,27.315323 71.7376,27.275323 71.8336,27.228323 C72.1366,27.079323 72.3756,26.926323 72.5866,26.747323 C75.0756,24.634323 78.9706,24.636323 81.4526,26.747323 C81.7576,27.007323 82.0966,27.210323 82.4616,27.355323 L82.4616,30.368323 C82.4616,31.091323 83.0496,31.679323 83.7726,31.679323 C84.4936,31.679323 85.0816,31.091323 85.0816,30.368323 L85.0816,27.355323 C85.4466,27.212323 85.7856,27.009323 86.0896,26.750323 C87.4246,25.613323 89.1266,25.025323 90.8966,25.130323 C94.3456,25.310323 97.1246,28.041323 97.3616,31.483323 C97.4946,33.409323 96.8466,35.243323 95.5366,36.647323 C94.2256,38.051323 92.4456,38.824323 90.5266,38.824323 L9.4736,38.824323 C7.5536,38.824323 5.7746,38.051323 4.4636,36.647323 C3.1536,35.243323 2.5056,33.409323 2.6376,31.483323 C2.8746,28.041323 5.6546,25.310323 9.1046,25.130323 C9.2256,25.123323 9.3466,25.120323 9.4666,25.120323 C11.1006,25.120323 12.6666,25.692323 13.9086,26.750323 C14.2136,27.009323 14.5516,27.212323 14.9166,27.355323 L14.9166,30.368323 C14.9166,31.091323 15.5046,31.679323 16.2286,31.679323 C16.9496,31.679323 17.5376,31.091323 17.5376,30.368323 L17.5376,27.355323 C17.9026,27.211323 18.2406,27.007323 18.5476,26.747323 C21.0296,24.634323 24.9246,24.634323 27.4126,26.747323 C27.6206,26.924323 27.8596,27.077323 28.2136,27.251323 C28.2826,27.284323 28.3526,27.319323 28.4236,27.350323 L28.4236,30.368323 C28.4236,31.091323 29.0116,31.679323 29.7346,31.679323 C30.2636,31.679323 30.7366,31.364323 30.9396,30.883323 C30.9606,30.833323 30.9666,30.788323 30.9686,30.765323 C31.0066,30.645323 31.0446,30.517323 31.0446,30.368323 L31.0446,27.355323 C31.4106,27.210323 31.7496,27.007323 32.0556,26.747323 C33.2406,25.739323 34.7556,25.163323 36.3166,25.125323 C37.7916,25.066323 39.2426,25.530323 40.4346,26.371323 L40.5776,26.168323 L40.4896,26.414323 C40.6386,26.520323 40.7816,26.629323 40.9196,26.747323 C41.2256,27.006323 41.5646,27.210323 41.9306,27.355323 L41.9306,30.368323 C41.9306,31.091323 42.5246,31.679323 43.2526,31.679323 C43.9756,31.679323 44.5636,31.091323 44.5636,30.368323 L44.5636,27.355323 C44.9296,27.210323 45.2686,27.006323 45.5716,26.747323 C46.7636,25.734323 48.3366,25.175323 49.9996,25.172323 C51.6626,25.175323 53.2356,25.734323 54.4276,26.747323 C54.7336,27.007323 55.0706,27.210323 55.4366,27.355323 L55.4366,30.368323 C55.4366,31.091323 56.0246,31.679323 56.7466,31.679323 C57.4766,31.679323 58.0696,31.091323 58.0696,30.368323 L58.0696,27.355323 C58.4376,27.210323 58.7756,27.006323 59.0786,26.747323 C59.2186,26.629323 59.3626,26.519323 59.5086,26.413323 L59.3626,26.212323 Z M95.7956,39.842323 C96.4006,39.437323 96.9586,38.965323 97.4526,38.435323 C99.2646,36.493323 100.1596,33.961323 99.9766,31.303323 C99.6496,26.539323 95.8036,22.761323 91.0316,22.512323 C88.6096,22.391323 86.2406,23.181323 84.3916,24.753323 C84.0316,25.061323 83.5096,25.056323 83.1506,24.750323 C82.6676,24.341323 82.1406,23.978323 81.5846,23.673323 C78.1636,21.790323 73.8636,22.221323 70.8896,24.750323 C70.5406,25.047323 69.9946,25.049323 69.6436,24.750323 C67.9386,23.301323 65.6456,22.481323 63.4296,22.5 C61.4236,22.518323 59.4346,23.194323 57.8246,24.406323 L57.6906,24.506323 C57.5816,24.584323 57.4746,24.664323 57.3706,24.750323 C57.1976,24.898323 56.9776,24.980323 56.7536,24.981323 C56.5276,24.979323 56.3116,24.898323 56.1406,24.753323 C55.5086,24.215323 54.7996,23.762323 54.0346,23.404323 C52.8216,22.837323 51.4416,22.538323 50.0436,22.538323 L49.9576,22.538323 C48.5566,22.538323 47.1766,22.837323 45.9646,23.404323 C45.1996,23.762323 44.4916,24.215323 43.8586,24.753323 C43.6896,24.898323 43.4716,24.979323 43.2476,24.981323 C43.0216,24.980323 42.8026,24.898323 42.6286,24.750323 C42.5256,24.664323 42.4186,24.584323 42.3096,24.506323 L42.1756,24.407323 C40.5666,23.194323 38.5756,22.518323 36.5696,22.5 L36.4906,22.5 C34.2736,22.5 32.0416,23.317323 30.3556,24.750323 C30.0036,25.049323 29.4576,25.043323 29.1116,24.750323 C26.1376,22.222323 21.8386,21.788323 18.4136,23.673323 C17.8566,23.979323 17.3306,24.342323 16.8496,24.750323 C16.4896,25.056323 15.9656,25.059323 15.6086,24.753323 C13.7566,23.181323 11.3866,22.390323 8.9686,22.512323 C4.1966,22.761323 0.3516,26.539323 0.0236,31.303323 C-0.1604,33.961323 0.7356,36.493323 2.5466,38.434323 C3.0406,38.965323 3.5976,39.437323 4.2046,39.842323 C1.8496,41.202323 0.4026,43.686323 0.4026,46.422323 L0.4026,46.534323 C0.4026,49.343323 1.9236,51.881323 4.3876,53.217323 L2.0156,58.432323 C1.0526,60.549323 0.5656,62.804323 0.5656,65.130323 L0.5656,74.875323 C0.5656,76.321323 1.7426,77.499323 3.1906,77.499323 L4.9506,77.499323 C6.3996,77.499323 7.5766,76.321323 7.5766,74.875323 L7.5766,66.705323 C7.5766,65.069323 8.5656,63.559323 10.0936,62.857323 C11.5996,62.164323 12.8096,60.952323 13.4996,59.443323 C13.7616,58.873323 14.2906,58.519323 14.8826,58.519323 L85.1156,58.519323 C85.7086,58.519323 86.2376,58.873323 86.4996,59.444323 C87.1916,60.952323 88.4006,62.164323 89.9066,62.857323 C91.4356,63.559323 92.4226,65.068323 92.4226,66.705323 L92.4226,74.875323 C92.4226,76.321323 93.6006,77.499323 95.0476,77.499323 L96.8096,77.499323 C98.2576,77.499323 99.4356,76.321323 99.4356,74.875323 L99.4356,65.130323 C99.4356,62.803323 98.9456,60.549323 97.9836,58.432323 L95.6116,53.217323 C98.0756,51.882323 99.5956,49.343323 99.5956,46.534323 L99.5956,46.422323 C99.5956,43.686323 98.1506,41.202323 95.7956,39.842323 L95.7956,39.842323 Z" id="icon_piano-bench" fill="#3A4B60"></path>
    </g>
</svg>