<?xml version="1.0" encoding="UTF-8"?>
<svg width="100px" height="100px" viewBox="0 0 100 100" version="1.1" xmlns="http://www.w3.org/2000/svg" xmlns:xlink="http://www.w3.org/1999/xlink">
    <title>icon / furniture / picnic-table</title>
    <g id="icon-/-furniture-/-picnic-table" stroke="none" stroke-width="1" fill="none" fill-rule="evenodd">
        <path d="M79.337,49.573 L97.093,49.573 L97.093,45.867 L79.337,45.867 L79.337,49.573 Z M85.656,55.325 C85.268,55.864 84.64,56.186 83.976,56.186 L16.023,56.186 C15.359,56.186 14.731,55.864 14.344,55.325 L12.299,52.48 L87.701,52.48 L85.656,55.325 Z M65.517,74.594 L60.582,59.093 L66.842,59.093 L71.778,74.594 L65.517,74.594 Z M33.742,74.594 L27.482,74.594 L32.419,59.093 L38.678,59.093 L33.742,74.594 Z M2.907,49.573 L20.663,49.573 L20.663,45.867 L2.907,45.867 L2.907,49.573 Z M38.868,38.84 L45.129,38.84 L41.711,49.573 L35.45,49.573 L38.868,38.84 Z M34.794,35.933 C34.294,35.933 33.886,35.527 33.886,35.027 L33.886,33.88 L66.113,33.88 L66.113,35.027 C66.113,35.527 65.706,35.933 65.207,35.933 L34.794,35.933 Z M25.1,30.973 L74.9,30.973 L74.9,25.406 L25.1,25.406 L25.1,30.973 Z M54.499,49.573 L44.76,49.573 L48.179,38.84 L51.08,38.84 L54.499,49.573 Z M63.81,49.573 L57.55,49.573 L54.132,38.84 L60.392,38.84 L63.81,49.573 Z M97.578,42.96 L78.853,42.96 C77.517,42.96 76.431,44.046 76.431,45.382 L76.431,49.573 L66.86,49.573 L63.441,38.84 L65.206,38.84 C67.308,38.84 69.02,37.129 69.02,35.027 L69.02,33.88 L75.384,33.88 C76.72,33.88 77.806,32.793 77.806,31.457 L77.806,24.922 C77.806,23.586 76.72,22.5 75.384,22.5 L24.616,22.5 C23.28,22.5 22.194,23.586 22.194,24.922 L22.194,31.458 C22.194,32.793 23.28,33.88 24.616,33.88 L30.98,33.88 L30.98,35.027 C30.98,37.129 32.691,38.84 34.794,38.84 L35.818,38.84 L32.399,49.573 L23.568,49.573 L23.568,45.382 C23.568,44.046 22.482,42.96 21.146,42.96 L2.423,42.96 C1.087,42.96 0,44.046 0,45.382 L0,50.058 C0,51.393 1.087,52.48 2.423,52.48 L8.719,52.48 L11.984,57.023 C12.917,58.319 14.426,59.093 16.023,59.093 L29.368,59.093 L24.109,75.607 C23.968,76.048 24.047,76.53 24.321,76.904 C24.594,77.279 25.03,77.5 25.494,77.5 L34.804,77.5 C35.437,77.5 35.998,77.091 36.189,76.488 L41.728,59.093 L57.531,59.093 L63.07,76.488 C63.262,77.091 63.823,77.5 64.455,77.5 L73.765,77.5 C74.23,77.5 74.665,77.279 74.939,76.905 C75.213,76.53 75.292,76.048 75.151,75.607 L69.892,59.093 L83.977,59.093 C85.574,59.093 87.084,58.319 88.016,57.023 L91.281,52.48 L97.578,52.48 C98.914,52.48 100,51.394 100,50.058 L100,45.382 C100,44.046 98.914,42.96 97.578,42.96 L97.578,42.96 Z" id="Fill-1" fill="#3A4B60"></path>
    </g>
</svg>