<?xml version="1.0" encoding="UTF-8"?>
<svg width="100px" height="100px" viewBox="0 0 100 100" version="1.1" xmlns="http://www.w3.org/2000/svg" xmlns:xlink="http://www.w3.org/1999/xlink">
    <title>icon / furniture / pinball_arcade-game</title>
    <g id="icon-/-furniture-/-pinball_arcade-game" stroke="none" stroke-width="1" fill="none" fill-rule="evenodd">
        <path d="M48.893,41.8645 C48.893,41.0645 49.541,40.4165 50.341,40.4165 L63.665,40.4165 C64.466,40.4165 65.115,41.0645 65.115,41.8645 C65.115,42.6655 64.466,43.3135 63.665,43.3135 L50.341,43.3135 C49.541,43.3135 48.893,42.6655 48.893,41.8645 L48.893,41.8645 Z M48.893,47.9795 C48.893,47.1785 49.541,46.5305 50.341,46.5305 L63.665,46.5305 C64.466,46.5305 65.115,47.1785 65.115,47.9795 C65.115,48.7795 64.466,49.4275 63.665,49.4275 L50.341,49.4275 C49.541,49.4275 48.893,48.7795 48.893,47.9795 L48.893,47.9795 Z M69.974,79.3875 C69.974,78.5885 70.623,77.9395 71.423,77.9395 L74.724,77.9395 C75.524,77.9395 76.173,78.5885 76.173,79.3875 C76.173,80.1885 75.524,80.8375 74.724,80.8375 L71.423,80.8375 C70.623,80.8375 69.974,80.1885 69.974,79.3875 L69.974,79.3875 Z M48.893,35.7505 C48.893,34.9495 49.541,34.3015 50.341,34.3015 L63.665,34.3015 C64.466,34.3015 65.115,34.9495 65.115,35.7505 C65.115,36.5505 64.466,37.1985 63.665,37.1985 L50.341,37.1985 C49.541,37.1985 48.893,36.5505 48.893,35.7505 L48.893,35.7505 Z M84.603,82.4135 C84.603,83.2445 83.927,83.9205 83.096,83.9205 L42.679,83.9205 L42.679,81.6555 C42.679,80.8555 42.031,80.2075 41.231,80.2075 C40.43,80.2075 39.782,80.8555 39.782,81.6555 L39.782,83.9205 L36.112,83.9205 L36.112,81.6555 C36.112,80.8555 35.462,80.2075 34.663,80.2075 C33.862,80.2075 33.213,80.8555 33.213,81.6555 L33.213,83.9205 L30.027,83.9205 L30.027,81.6555 C30.027,80.8555 29.378,80.2075 28.578,80.2075 C27.778,80.2075 27.129,80.8555 27.129,81.6555 L27.129,83.9205 L16.906,83.9205 C16.075,83.9205 15.398,83.2445 15.398,82.4135 L15.398,74.8555 L84.603,74.8555 L84.603,82.4135 Z M77.532,95.5655 C77.532,96.4135 76.842,97.1025 75.996,97.1025 L24.006,97.1025 C23.159,97.1025 22.47,96.4135 22.47,95.5655 L22.47,86.8175 L77.532,86.8175 L77.532,95.5655 Z M21.703,66.3105 L37.857,66.3105 L37.857,69.1355 C37.857,69.9345 38.505,70.5835 39.306,70.5835 C40.106,70.5835 40.754,69.9345 40.754,69.1355 L40.754,66.3105 L78.299,66.3105 L82.972,71.9585 L17.029,71.9585 L21.703,66.3105 Z M40.754,60.7145 C41.484,60.5215 42.157,60.1865 42.741,59.7425 L42.749,59.7425 L70.429,59.7425 C72.322,59.7425 73.861,58.2025 73.861,56.3095 L73.861,29.1315 C73.861,27.2385 72.322,25.6985 70.429,25.6985 L29.573,25.6985 C27.68,25.6985 26.14,27.2385 26.14,29.1315 L26.14,56.3095 C26.14,58.2025 27.68,59.7425 29.573,59.7425 L35.872,59.7425 C36.455,60.1865 37.127,60.5205 37.857,60.7145 L37.857,63.4135 L22.47,63.4135 L22.47,22.0285 L77.532,22.0285 L77.532,63.4135 L40.754,63.4135 L40.754,60.7145 Z M39.306,52.4325 C40.841,52.4325 42.091,53.6825 42.091,55.2185 C42.091,56.7545 40.841,58.0045 39.306,58.0045 C37.77,58.0045 36.52,56.7545 36.52,55.2185 C36.52,53.6825 37.77,52.4325 39.306,52.4325 L39.306,52.4325 Z M33.861,56.8445 L29.573,56.8445 C29.278,56.8445 29.038,56.6045 29.038,56.3095 L29.038,29.1315 C29.038,28.8365 29.278,28.5955 29.573,28.5955 L70.429,28.5955 C70.724,28.5955 70.963,28.8365 70.963,29.1315 L70.963,56.3095 C70.963,56.6045 70.724,56.8445 70.429,56.8445 L44.75,56.8445 C44.905,56.3295 44.989,55.7835 44.989,55.2185 C44.989,52.0845 42.439,49.5355 39.306,49.5355 C36.172,49.5355 33.622,52.0845 33.622,55.2185 C33.622,55.7835 33.706,56.3295 33.861,56.8445 L33.861,56.8445 Z M16.832,12.5165 L83.169,12.5165 L78.252,19.1305 L21.748,19.1305 L16.832,12.5165 Z M15.398,4.0485 C15.398,3.4135 15.914,2.8975 16.548,2.8975 L83.454,2.8975 C84.087,2.8975 84.603,3.4135 84.603,4.0485 L84.603,9.6195 L15.398,9.6195 L15.398,4.0485 Z M87.213,72.5445 C87.204,72.5295 87.192,72.5135 87.18,72.4995 L87.168,72.4845 L87.168,72.4835 L80.429,64.3405 L80.429,21.2645 C80.429,21.2015 80.424,21.1385 80.415,21.0775 L87.214,11.9325 C87.223,11.9215 87.229,11.9115 87.236,11.9005 C87.403,11.6655 87.5,11.3785 87.5,11.0675 L87.5,4.0485 C87.5,1.8155 85.685,0.0005 83.454,0.0005 L16.548,0.0005 C14.316,0.0005 12.5,1.8155 12.5,4.0485 L12.5,11.0675 C12.5,11.3825 12.602,11.6725 12.772,11.9105 C12.777,11.9175 12.781,11.9245 12.787,11.9315 L19.601,21.0975 C19.582,21.1915 19.572,21.2885 19.572,21.3875 L19.572,64.3405 L12.833,72.4835 C12.833,72.4835 12.832,72.4835 12.832,72.4845 C12.823,72.4965 12.815,72.5095 12.805,72.5205 C12.8,72.5265 12.795,72.5335 12.791,72.5405 C12.61,72.7815 12.5,73.0815 12.5,73.4075 L12.5,82.4135 C12.5,84.8425 14.477,86.8175 16.906,86.8175 L19.572,86.8175 L19.572,95.5655 C19.572,98.0105 21.561,100.0005 24.006,100.0005 L75.996,100.0005 C78.44,100.0005 80.429,98.0105 80.429,95.5655 L80.429,86.8175 L83.096,86.8175 C85.525,86.8175 87.5,84.8425 87.5,82.4135 L87.5,73.4075 C87.5,73.0835 87.393,72.7855 87.213,72.5445 L87.213,72.5445 Z" id="Fill-1" fill="#3A4B60"></path>
    </g>
</svg>