<?xml version="1.0" encoding="UTF-8"?>
<svg width="100px" height="100px" viewBox="0 0 100 100" version="1.1" xmlns="http://www.w3.org/2000/svg" xmlns:xlink="http://www.w3.org/1999/xlink">
    <title>icon / furniture / ping-pong-table</title>
    <g id="icon-/-furniture-/-ping-pong-table" stroke="none" stroke-width="1" fill="none" fill-rule="evenodd">
        <path d="M76.2704,17.8293 C77.5914,18.9663 78.5484,20.4673 79.0204,22.1453 L68.8054,32.3603 C67.1264,31.8893 65.6254,30.9333 64.4894,29.6103 C57.6734,22.7953 62.7064,17.2463 63.3394,16.6803 C63.5394,16.4133 69.2714,10.8303 76.2704,17.8293 L76.2704,17.8293 Z M84.6024,35.4933 C84.9174,35.8073 85.0954,36.2323 85.0954,36.6773 C85.0954,37.1213 84.9174,37.5473 84.6024,37.8593 C84.2904,38.1753 83.8644,38.3523 83.4194,38.3523 C82.9754,38.3523 82.5484,38.1753 82.2364,37.8593 C78.5204,34.1433 77.0864,32.1273 73.9044,32.0773 L78.9034,27.0783 C78.9484,28.9323 79.7634,30.6833 81.1534,31.9103 L84.6024,35.4933 Z M66.2724,11.3473 C64.2884,11.8913 62.4604,12.8953 60.9394,14.2793 C59.5554,15.8013 58.5504,17.6283 58.0064,19.6123 C57.2234,22.5783 57.3064,27.1443 62.1234,31.9613 C63.9504,34.1303 66.5494,35.5053 69.3724,35.7933 C70.2984,35.8293 71.2274,35.7563 72.1374,35.5763 C75.2044,35.0943 74.9374,35.3443 79.8034,40.2093 C81.7734,42.0453 84.8424,41.9903 86.7464,40.0873 C88.6504,38.1833 88.7044,35.1133 86.8694,33.1433 C82.0364,28.3103 81.7524,28.5443 82.2364,25.4773 C82.7694,22.1453 82.5194,19.3623 78.6204,15.4793 C73.8044,10.6463 69.2384,10.5633 66.2724,11.3473 L66.2724,11.3473 Z M46.0754,18.9453 C47.6414,18.9453 47.3584,17.6453 51.2574,12.9303 C51.6814,12.4763 51.8184,11.8263 51.6134,11.2413 C51.4094,10.6553 50.8954,10.2323 50.2824,10.1423 C49.6684,10.0533 49.0554,10.3113 48.6914,10.8133 C47.2364,12.5813 45.8944,14.4403 44.6754,16.3793 C44.3464,16.8923 44.3244,17.5433 44.6154,18.0773 C44.9074,18.6113 45.4664,18.9443 46.0754,18.9453 L46.0754,18.9453 Z M3.3494,51.6753 L96.6664,51.6753 L96.6664,48.3423 L3.3494,48.3423 L3.3494,51.6753 Z M86.6684,90.0013 L90.0014,90.0013 L90.0014,55.0073 L86.6684,55.0073 L86.6684,90.0013 Z M88.3344,96.6673 C87.4154,96.6673 86.6684,95.9213 86.6684,95.0003 L86.6684,93.3343 L90.0014,93.3343 L90.0014,95.0003 C90.0014,95.9213 89.2554,96.6673 88.3344,96.6673 L88.3344,96.6673 Z M83.3354,58.9403 L79.4034,55.0073 L83.3354,55.0073 L83.3354,58.9403 Z M70.0044,55.0073 L74.7204,55.0073 L83.3354,63.6563 L83.3354,68.3393 L70.0044,55.0073 Z M16.6804,68.3393 L16.6804,63.6563 L25.3294,55.0073 L30.0114,55.0073 L16.6804,68.3393 Z M11.6804,96.6673 C10.7604,96.6673 10.0144,95.9213 10.0144,95.0003 L10.0144,93.3343 L13.3474,93.3343 L13.3474,95.0003 C13.3474,95.9213 12.6014,96.6673 11.6804,96.6673 L11.6804,96.6673 Z M10.0144,90.0013 L13.3474,90.0013 L13.3474,55.0073 L10.0144,55.0073 L10.0144,90.0013 Z M20.6134,55.0073 L16.6804,58.9403 L16.6804,55.0073 L20.6134,55.0073 Z M48.3414,45.0093 L51.6744,45.0093 L51.6744,28.3453 L48.3414,28.3453 L48.3414,45.0093 Z M97.9834,40.7593 C97.5414,40.7933 97.1304,41.0023 96.8424,41.3403 C96.5544,41.6783 96.4144,42.1173 96.4514,42.5583 C96.4514,43.3593 96.5504,44.2253 96.5834,45.0093 L55.0074,45.0093 L55.0074,28.3453 C55.0074,26.5043 53.5154,25.0123 51.6744,25.0123 L48.3414,25.0123 C46.5004,25.0123 45.0084,26.5043 45.0084,28.3453 L45.0084,45.0093 L35.7774,45.0093 C36.0774,44.0923 36.3764,43.1423 36.7274,42.0933 C36.9264,41.2523 36.4524,40.3983 35.6324,40.1263 C34.8134,39.8523 33.9214,40.2513 33.5774,41.0433 C33.0944,42.4923 32.2774,45.0093 32.2774,45.0093 L3.3494,45.0093 C1.5084,45.0093 0.0164,46.5013 0.0164,48.3423 L0.0164,51.6753 C0.0164,53.5153 1.5084,55.0073 3.3494,55.0073 L6.6814,55.0073 L6.6814,95.0003 C6.6814,97.7623 8.9194,100.0003 11.6804,100.0003 C14.4424,100.0003 16.6804,97.7623 16.6804,95.0003 L16.6804,73.0883 L34.7604,55.0073 L65.2554,55.0073 L83.3354,73.0883 L83.3354,95.0003 C83.3354,97.7623 85.5744,100.0003 88.3344,100.0003 C91.0964,100.0003 93.3344,97.7623 93.3344,95.0003 L93.3344,55.0073 L96.6664,55.0073 C98.5074,55.0073 99.9994,53.5153 99.9994,51.6753 C99.9994,48.0923 99.9994,45.7753 99.7664,42.3083 C99.7374,41.8663 99.5324,41.4543 99.1974,41.1643 C98.8624,40.8733 98.4254,40.7273 97.9834,40.7593 L97.9834,40.7593 Z M90.5684,18.7793 C91.1684,18.7763 91.7224,18.4503 92.0154,17.9263 C92.3094,17.4013 92.2964,16.7603 91.9844,16.2463 C90.8004,14.2633 89.4574,12.3793 87.9684,10.6133 C87.5844,10.1583 86.9874,9.9423 86.4004,10.0473 C85.8144,10.1513 85.3284,10.5613 85.1254,11.1223 C84.9224,11.6823 85.0354,12.3083 85.4184,12.7633 C89.2854,17.3293 88.9184,18.7793 90.5684,18.7793 L90.5684,18.7793 Z M96.6664,34.2263 C97.1844,34.2413 97.6784,34.0143 98.0044,33.6123 C98.3314,33.2113 98.4534,32.6813 98.3334,32.1773 C97.8324,29.9203 97.1974,27.6943 96.4334,25.5123 C96.2634,24.9143 95.7754,24.4613 95.1664,24.3363 C94.5584,24.2113 93.9314,24.4343 93.5394,24.9163 C93.1474,25.3973 93.0554,26.0583 93.3004,26.6283 C93.9904,28.6923 94.5574,30.7963 95.0004,32.9273 C95.1754,33.7023 95.8734,34.2463 96.6664,34.2263 L96.6664,34.2263 Z M78.3364,6.5143 C78.8394,6.8323 79.4744,6.8583 80.0014,6.5823 C80.5294,6.3063 80.8694,5.7683 80.8934,5.1743 C80.9174,4.5793 80.6234,4.0163 80.1204,3.6973 C78.1064,2.4123 75.9174,1.4243 73.6214,0.7653 C72.7334,0.5173 71.8114,1.0353 71.5634,1.9233 C71.3144,2.8113 71.8334,3.7323 72.7214,3.9813 C74.7034,4.5563 76.5944,5.4083 78.3364,6.5143 L78.3364,6.5143 Z M62.8734,0.7483 C60.5714,1.4013 58.3834,2.4083 56.3904,3.7313 C55.6994,4.2613 55.5334,5.2343 56.0084,5.9643 C56.4854,6.6943 57.4434,6.9333 58.2074,6.5143 C59.9154,5.3853 61.7874,4.5253 63.7554,3.9643 C64.6444,3.7213 65.1664,2.8033 64.9224,1.9153 C64.6784,1.0263 63.7604,0.5043 62.8734,0.7483 L62.8734,0.7483 Z M38.6104,33.8443241 C39.2874,33.8383 39.8924,33.4233 40.1434,32.7943 C41.0094,30.6783 41.8924,28.6613 42.7924,26.7783 C42.9854,26.3763 43.0094,25.9143 42.8594,25.4943 C42.7084,25.0743 42.3974,24.7323 41.9934,24.5453 C41.1604,24.1543 40.1674,24.5123 39.7764,25.3453 C38.8604,27.2773 37.9434,29.3603 37.0604,31.5443 C36.8484,32.0593 36.9084,32.6463 37.2194,33.1083 C37.5314,33.5703 38.0524,33.8473 38.6104,33.8443241 L38.6104,33.8443241 Z M23.8124,23.2123 C24.3764,23.2113 24.9034,22.9243 25.2084,22.4493 C25.5154,21.9753 25.5604,21.3773 25.3294,20.8623 C24.3924,18.7603 23.3184,16.7233 22.1124,14.7633 C21.6244,13.9803 20.5954,13.7423 19.8134,14.2293 C19.0314,14.7183 18.7914,15.7473 19.2804,16.5293 C20.4154,18.3573 21.4224,20.2623 22.2954,22.2283 C22.5644,22.8253 23.1584,23.2103 23.8124,23.2123 L23.8124,23.2123 Z M29.0114,39.0263 C29.5284,39.0403 30.0234,38.8133 30.3494,38.4113 C30.6754,38.0103 30.7964,37.4793 30.6774,36.9763 C30.1274,34.6933 29.5444,32.4943 28.9124,30.4283 C28.6044,29.6023 27.7074,29.1593 26.8664,29.4153 C26.0244,29.6713 25.5264,30.5373 25.7284,31.3933 C26.3294,33.3933 26.9124,35.5263 27.3954,37.7433 C27.5724,38.4933 28.2414,39.0233 29.0114,39.0263 L29.0114,39.0263 Z M5.0154,3.3483 C5.9354,3.3483 6.6814,4.0943 6.6814,5.0153 C6.6814,5.9343 5.9354,6.6813 5.0154,6.6813 C4.0944,6.6813 3.3494,5.9343 3.3494,5.0153 C3.3494,4.0943 4.0944,3.3483 5.0154,3.3483 L5.0154,3.3483 Z M9.4814,7.2143 C10.7924,7.8033 12.0294,8.5473 13.1644,9.4313 C13.8824,9.9973 14.9244,9.8783 15.4974,9.1643 C15.7734,8.8153 15.8984,8.3713 15.8444,7.9303 C15.7914,7.4883 15.5644,7.0873 15.2134,6.8133 C13.5934,5.5293 11.7844,4.5073 9.8474,3.7813 C9.2574,1.4323 7.0674,-0.1567 4.6504,0.0123 C2.2334,0.1823 0.2864,2.0593 0.0284,4.4693 C-0.2286,6.8783 1.2784,9.1243 3.6054,9.8003 C5.9314,10.4753 8.4084,9.3863 9.4814,7.2143 L9.4814,7.2143 Z" id="icon_ping-pong-table" fill="#3A4B60"></path>
    </g>
</svg>