<?xml version="1.0" encoding="UTF-8"?>
<svg width="100px" height="100px" viewBox="0 0 100 100" version="1.1" xmlns="http://www.w3.org/2000/svg" xmlns:xlink="http://www.w3.org/1999/xlink">
    <title>icon / furniture / plant-stand</title>
    <g id="icon-/-furniture-/-plant-stand" stroke="none" stroke-width="1" fill="none" fill-rule="evenodd">
        <path d="M70.209,64.0295 L70.209,64.4615 L29.791,64.4615 L29.791,64.0295 L29.791,59.8065 L70.209,59.8065 L70.209,64.0295 Z M58.813,81.1395 C58.791,81.3585 58.618,81.5235 58.412,81.5235 L41.241,81.5235 C41.033,81.5235 40.86,81.3575 40.84,81.1355 L39.553,67.3905 L60.236,67.3905 L58.813,81.1395 Z M62.395,46.5355 L61.324,56.8775 L38.568,56.8775 L37.601,46.5355 L62.395,46.5355 Z M48.132,32.2305 C45.461,32.2305 43.152,30.4555 42.389,27.9165 C43.285,27.6595 44.139,27.2635 44.929,26.7385 C45.999,27.4485 47.221,27.9415 48.535,28.1535 L48.535,32.2305 L48.132,32.2305 Z M39.849,25.3415 C36.347,25.3415 33.497,22.4405 33.497,18.8755 C33.497,16.0955 35.236,13.6325 37.824,12.7465 C38.545,12.5005 38.957,11.7425 38.772,11.0045 C38.64,10.4805 38.573,9.9395 38.573,9.3955 C38.573,5.8305 41.422,2.9295 44.924,2.9295 C45.929,2.9295 46.893,3.1675 47.768,3.6155 C46.533,5.2115 45.795,7.2165 45.795,9.3955 C45.795,10.1795 45.892,10.9615 46.081,11.7175 C46.278,12.5025 47.075,12.9775 47.859,12.7815 C48.644,12.5845 49.12,11.7885 48.923,11.0045 C48.791,10.4805 48.725,9.9395 48.725,9.3955 C48.725,5.8305 51.574,2.9295 55.076,2.9295 C58.578,2.9295 61.428,5.8305 61.428,9.3955 C61.428,9.9165 61.367,10.4335 61.246,10.9345 C61.065,11.6885 61.504,12.4535 62.246,12.6775 C64.918,13.4875 66.783,16.0355 66.783,18.8755 C66.783,22.4405 63.935,25.3415 60.433,25.3415 C58.869,25.3415 57.367,24.7585 56.202,23.6975 C55.644,23.1885 54.789,23.1885 54.23,23.6975 C53.065,24.7585 51.563,25.3415 50,25.3415 C46.498,25.3415 43.648,22.4405 43.648,18.8755 C43.648,18.0665 42.993,17.4105 42.184,17.4105 C41.375,17.4105 40.719,18.0665 40.719,18.8755 C40.719,21.0545 41.458,23.0605 42.692,24.6565 C41.816,25.1055 40.852,25.3415 39.849,25.3415 L39.849,25.3415 Z M51.869,32.2305 L51.465,32.2305 L51.465,28.1535 C52.81,27.9365 54.089,27.4245 55.217,26.6465 C55.964,27.1625 56.779,27.5605 57.635,27.8345 C56.896,30.3925 54.555,32.2305 51.869,32.2305 L51.869,32.2305 Z M86.035,97.0705 L73.139,97.0705 L73.139,64.9775 L73.139,64.0295 L73.139,59.2905 C73.139,57.9595 72.063,56.8775 70.74,56.8775 L64.27,56.8775 L65.367,46.2675 C65.438,45.5875 65.216,44.9055 64.758,44.3975 C64.304,43.8945 63.656,43.6055 62.98,43.6055 L51.465,43.6055 L51.465,35.1605 L51.869,35.1605 C56,35.1605 59.582,32.2555 60.549,28.2685 C65.613,28.2055 69.713,24.0165 69.713,18.8755 C69.713,15.1995 67.546,11.8555 64.311,10.3405 C64.342,10.0265 64.357,9.7125 64.357,9.3955 C64.357,4.2155 60.193,0.0005 55.076,0.0005 C53.206,0.0005 51.465,0.5645 50.006,1.5315 C48.497,0.5275 46.756,0.0005 44.924,0.0005 C39.807,0.0005 35.644,4.2155 35.644,9.3955 C35.644,9.7555 35.663,10.1125 35.703,10.4675 C32.587,12.0405 30.567,15.2765 30.567,18.8755 C30.567,23.9215 34.517,28.0495 39.449,28.2605 C40.416,32.2925 43.978,35.1605 48.132,35.1605 L48.535,35.1605 L48.535,43.6055 L37.02,43.6055 C36.349,43.6055 35.703,43.8905 35.25,44.3885 C34.793,44.8905 34.567,45.5675 34.631,46.2445 L35.626,56.8775 L29.261,56.8775 C27.938,56.8775 26.861,57.9595 26.861,59.2905 L26.861,64.0295 L26.861,64.9775 L26.861,97.0705 L13.965,97.0705 C13.156,97.0705 12.5,97.7255 12.5,98.5355 C12.5,99.3435 13.156,100.0005 13.965,100.0005 L56.26,100.0005 C57.068,100.0005 57.725,99.3435 57.725,98.5355 C57.725,97.7255 57.068,97.0705 56.26,97.0705 L29.791,97.0705 L29.791,67.3905 L36.61,67.3905 L37.923,81.4085 C38.086,83.1445 39.513,84.4535 41.242,84.4535 L58.412,84.4535 C60.125,84.4535 61.551,83.1585 61.728,81.4415 L63.182,67.3905 L70.209,67.3905 L70.209,97.0705 L61.678,97.0705 C60.869,97.0705 60.213,97.7255 60.213,98.5355 C60.213,99.3435 60.869,100.0005 61.678,100.0005 L86.035,100.0005 C86.845,100.0005 87.5,99.3435 87.5,98.5355 C87.5,97.7255 86.845,97.0705 86.035,97.0705 L86.035,97.0705 Z" id="Fill-1" fill="#3A4B60"></path>
    </g>
</svg>