<?xml version="1.0" encoding="UTF-8"?>
<svg width="100px" height="100px" viewBox="0 0 100 100" version="1.1" xmlns="http://www.w3.org/2000/svg">
    <title>icon / furniture / plant_artificial</title>
    <g id="icon-/-furniture-/-plant_artificial" stroke="none" stroke-width="1" fill="none" fill-rule="evenodd">
        <path d="M73.5091131,27.3281 C70.2151131,31.0931 66.4361131,36.2031 63.6131131,42.2991 C63.5711131,42.3621 63.5331131,42.4271 63.5021131,42.4951 C61.6821131,46.4751 60.4511131,50.5241 59.8331131,54.5491 C59.8291131,54.5741 59.8241131,54.5991 59.8211131,54.6241 L48.7991131,54.6241 C49.3811131,52.6701 50.2111131,50.1801 51.3331131,47.4671 C51.3341131,47.4661 51.3341131,47.4641 51.3351131,47.4621 C51.5901131,46.8451 51.8631131,46.2151 52.1451131,45.5881 C52.1451131,45.5871 52.1451131,45.5861 52.1461131,45.5851 C53.2431131,43.1451 54.4191131,40.9221 55.6681131,38.9201 C58.8121131,33.9661 61.8791131,31.1951 63.7171131,29.8251 C63.8301131,29.7411 63.9441131,29.6581 64.0571131,29.5771 C70.0131131,25.3311 75.5001131,22.7181 79.5361131,21.1601 C77.7321131,22.8161 75.6481131,24.8851 73.5091131,27.3281 L73.5091131,27.3281 Z M77.3341131,38.9111 C73.5621131,42.3961 68.6881131,47.9801 67.1291131,54.6241 L62.7461131,54.6241 C63.3651131,50.8501 64.5291131,47.2971 65.9961131,44.0291 C69.7231131,41.4451 73.9941131,39.8541 77.3341131,38.9111 L77.3341131,38.9111 Z M76.0841131,57.5101 L76.0841131,61.6741 L23.8751131,61.6741 L23.8751131,57.5101 L31.7291131,57.5101 L38.9191131,57.5101 L46.8911131,57.5101 L61.0791131,57.5101 L61.0801131,57.5101 L68.3101131,57.5101 L76.0841131,57.5101 Z M68.7291131,70.7521 L31.2321131,70.7521 L29.7461131,64.5601 L70.2141131,64.5601 L68.7291131,70.7521 Z M63.0551131,95.8821 C62.8811131,96.6071 62.2381131,97.1141 61.4931131,97.1141 L38.4671131,97.1141 C37.7211131,97.1141 37.0781131,96.6071 36.9051131,95.8821 L31.9241131,73.6391 L68.0361131,73.6391 L63.0551131,95.8821 Z M22.7051131,38.9111 C26.0281131,39.8491 30.2721131,41.4291 33.9861131,43.9891 C35.4621131,47.2691 36.6321131,50.8351 37.2531131,54.6241 L32.9091131,54.6241 C31.3521131,47.9801 26.4771131,42.3961 22.7051131,38.9111 L22.7051131,38.9111 Z M26.4901131,27.3281 C24.3491131,24.8801 22.2601131,22.8081 20.4521131,21.1501 C20.7971131,21.4661 21.6391131,21.6201 22.0761131,21.8041 C22.6921131,22.0601 23.3021131,22.3281 23.9081131,22.6031 C25.2761131,23.2251 26.6221131,23.8931 27.9461131,24.6031 C30.9391131,26.2071 33.9131131,27.9881 36.5951131,30.0781 C38.7531131,31.7611 40.6421131,33.7751 42.2831131,35.9611 C43.5571131,37.6561 44.6841131,39.4561 45.7071131,41.3111 C46.2201131,42.2401 46.7061131,43.1821 47.1731131,44.1351 C47.3981131,44.5951 47.6141131,45.0571 47.8251131,45.5231 C47.9241131,45.7411 48.4361131,46.9161 48.4361131,46.9161 C48.4361131,46.9161 46.3751131,52.5801 45.7931131,54.6231 L40.1791131,54.6231 L40.1641131,54.5341 C39.5431131,50.4991 38.3071131,46.4411 36.4771131,42.4511 C36.4461131,42.3821 36.4071131,42.3171 36.3651131,42.2551 C33.5451131,36.1781 29.7761131,31.0841 26.4901131,27.3281 L26.4901131,27.3281 Z M43.6181131,24.7381 C45.1251131,27.2991 46.5001131,29.9701 47.4561131,32.7291 C47.9291131,34.0901 48.3001131,35.4851 48.5851131,36.8961 C48.9011131,38.4591 49.1241131,40.1071 49.2541131,41.8221 L49.1901131,41.6991 C49.0631131,41.4501 48.9341131,41.1991 48.8021131,40.9481 C48.7821131,40.9111 48.7641131,40.8741 48.7441131,40.8371 C48.6031131,40.5701 48.4571131,40.3011 48.3091131,40.0321 C48.2641131,39.9491 48.2181131,39.8671 48.1721131,39.7851 C46.2061131,36.2501 43.8701131,32.9621 41.0001131,30.0991 C40.3521131,29.4531 39.6861131,28.8341 38.9731131,28.2631 C38.9461131,28.2411 38.9201131,28.2181 38.8931131,28.1961 C38.6251131,27.9791 38.3521131,27.7691 38.0761131,27.5631 C38.0451131,27.5401 38.0161131,27.5151 37.9851131,27.4921 C37.1201131,21.4131 35.8481131,16.0811 34.8071131,12.3101 C34.8761131,12.5641 35.3371131,12.9271 35.5101131,13.1321 C35.7711131,13.4411 36.0281131,13.7521 36.2821131,14.0651 C36.8441131,14.7561 37.3931131,15.4561 37.9301131,16.1661 C39.1861131,17.8281 40.3731131,19.5401 41.4941131,21.2951 C42.2121131,22.4181 42.9291131,23.5661 43.6181131,24.7381 L43.6181131,24.7381 Z M50.0001131,6.9551 C51.0861131,11.1261 52.6031131,17.3291 53.7661131,23.5631 C53.0971131,24.7441 52.4321131,25.9841 51.7761131,27.2841 C51.7651131,27.3061 51.7541131,27.3281 51.7421131,27.3511 C51.5431131,27.7471 51.3441131,28.1491 51.1471131,28.5571 C51.1451131,28.5601 51.1431131,28.5631 51.1421131,28.5661 C51.0161131,28.8271 50.8941131,29.0921 50.7751131,29.3601 C50.7381131,29.4401 50.7041131,29.5211 50.6691131,29.6021 C50.5811131,29.8031 50.4961131,30.0051 50.4121131,30.2101 C50.3801131,30.2891 50.3471131,30.3691 50.3151131,30.4491 C50.2071131,30.7191 50.1021131,30.9911 50.0001131,31.2661 C49.9561131,31.1441 49.9081131,31.0251 49.8621131,30.9051 C49.8071131,30.7611 49.7521131,30.6161 49.6961131,30.4741 C49.6481131,30.3551 49.6001131,30.2371 49.5511131,30.1201 C49.4821131,29.9531 49.4111131,29.7861 49.3401131,29.6211 C49.2981131,29.5261 49.2581131,29.4321 49.2151131,29.3381 C49.1001131,29.0781 48.9811131,28.8201 48.8591131,28.5671 C48.6551131,28.1451 48.4481131,27.7301 48.2421131,27.3201 L48.2311131,27.2971 C47.5721131,25.9931 46.9051131,24.7481 46.2351131,23.5631 C47.3971131,17.3291 48.9131131,11.1261 50.0001131,6.9551 L50.0001131,6.9551 Z M54.4391131,28.4471 C55.0701131,27.1781 55.7521131,25.9301 56.4571131,24.6891 C58.4571131,21.1671 60.7381131,17.7971 63.2621131,14.6301 C63.5941131,14.2131 63.9321131,13.8001 64.2731131,13.3901 C64.4281131,13.2041 64.5841131,13.0191 64.7411131,12.8351 C64.8521131,12.7051 65.1491131,12.4721 65.1931131,12.3101 C64.1521131,16.0811 62.8791131,21.4141 62.0151131,27.4931 C62.0011131,27.5031 61.9881131,27.5141 61.9731131,27.5241 C58.7731131,29.8681 56.0571131,33.0241 53.8881131,36.3311 C53.5271131,36.8811 53.1811131,37.4401 52.8491131,38.0091 C52.6991131,38.2651 52.5451131,38.5161 52.3921131,38.7671 C52.3131131,38.8951 51.9011131,39.4351 51.9331131,39.5701 C51.9051131,39.3401 51.8751131,39.1111 51.8441131,38.8841 C51.8371131,38.8321 51.8301131,38.7801 51.8221131,38.7281 C51.7261131,38.0371 51.6131131,37.3591 51.4871131,36.6931 C51.4821131,36.6701 51.4781131,36.6471 51.4731131,36.6241 C51.5001131,36.4971 51.5281131,36.3721 51.5551131,36.2461 C52.1651131,33.4991 53.2021131,30.9331 54.4391131,28.4471 L54.4391131,28.4471 Z M87.3891131,17.0931 C87.1291131,16.4671 86.4691131,16.1071 85.8011131,16.2261 C85.4001131,16.2991 76.5391131,17.9541 65.2821131,25.2531 C66.9731131,15.1611 69.6671131,7.5631 69.6971131,7.4791 C69.9181131,6.8641 69.6961131,6.1771 69.1581131,5.8061 C68.6191131,5.4341 67.9001131,5.4711 67.4021131,5.8951 C67.1141131,6.1401 61.7391131,10.7881 55.9831131,19.8641 C53.9761131,10.0391 51.4141131,1.1421 51.3861131,1.0421 C51.2071131,0.4251 50.6431131,0.0001 50.0001131,0.0001 C49.3571131,0.0001 48.7921131,0.4251 48.6131131,1.0421 C48.5841131,1.1421 46.0241131,10.0391 44.0171131,19.8641 C38.2601131,10.7881 32.8851131,6.1401 32.5981131,5.8951 C32.1001131,5.4711 31.3791131,5.4341 30.8411131,5.8061 C30.3031131,6.1771 30.0821131,6.8641 30.3021131,7.4791 C30.3321131,7.5631 33.0261131,15.1611 34.7171131,25.2531 C23.4601131,17.9541 14.6001131,16.2981 14.1981131,16.2261 C13.5301131,16.1061 12.8701131,16.4671 12.6111131,17.0931 C12.3501131,17.7191 12.5611131,18.4411 13.1161131,18.8291 C13.1701131,18.8681 18.5981131,22.6911 24.3181131,29.2291 C26.6521131,31.8971 29.2411131,35.2691 31.5191131,39.1961 C24.5851131,35.7121 17.6551131,34.8451 17.3011131,34.8031 C16.6391131,34.7231 16.0101131,35.1081 15.7781131,35.7311 C15.5451131,36.3551 15.7701131,37.0571 16.3211131,37.4311 C16.4361131,37.5091 27.2541131,44.9341 29.9291131,54.6241 L23.6451131,54.6241 C22.1801131,54.6241 20.9891131,55.8151 20.9891131,57.2791 L20.9891131,61.9061 C20.9891131,63.3701 22.1801131,64.5601 23.6451131,64.5601 L26.7791131,64.5601 L34.0981131,96.5561 C34.5841131,98.5831 36.3811131,100.0001 38.4671131,100.0001 L61.4931131,100.0001 C63.5781131,100.0001 65.3751131,98.5831 65.8621131,96.5551 L73.1821131,64.5601 L76.3161131,64.5601 C77.7801131,64.5601 78.9711131,63.3701 78.9711131,61.9061 L78.9711131,57.2781 C78.9711131,55.8151 77.7801131,54.6241 76.3161131,54.6241 L70.1111131,54.6241 C72.7841131,44.9531 83.6041131,37.5091 83.7191131,37.4311 C84.2701131,37.0571 84.4941131,36.3551 84.2621131,35.7311 C84.0291131,35.1071 83.4001131,34.7231 82.7381131,34.8031 C82.3831131,34.8451 75.4161131,35.7171 68.4641131,39.2241 C70.7331131,35.3081 73.3101131,31.9461 75.6331131,29.2851 C81.3551131,22.7311 86.8291131,18.8671 86.8831131,18.8291 C87.4391131,18.4411 87.6491131,17.7191 87.3891131,17.0931 L87.3891131,17.0931 Z"
              id="Fill-1" fill="#3A4B60"></path>
    </g>
</svg>