<?xml version="1.0" encoding="UTF-8"?>
<svg width="100px" height="100px" viewBox="0 0 100 100" version="1.1" xmlns="http://www.w3.org/2000/svg" xmlns:xlink="http://www.w3.org/1999/xlink">
    <title>icon / furniture / plastic-bin</title>
    <g id="icon-/-furniture-/-plastic-bin" stroke="none" stroke-width="1" fill="none" fill-rule="evenodd">
        <path d="M96.916,35.1624 C96.916,35.3524 96.761,35.5074 96.57,35.5074 L60.895,35.5074 L60.895,34.5314 C60.895,31.6114 58.52,29.2374 55.603,29.2374 L44.397,29.2374 C41.479,29.2374 39.104,31.6114 39.104,34.5314 L39.104,35.5074 L3.429,35.5074 C3.239,35.5074 3.083,35.3524 3.083,35.1624 L3.083,28.4294 C3.083,28.2394 3.239,28.0834 3.429,28.0834 L96.57,28.0834 C96.761,28.0834 96.916,28.2394 96.916,28.4304 L96.916,35.1624 Z M89.121,61.5914 C88.971,63.5364 88.294,65.3304 87.247,66.8484 C87.238,66.8544 87.224,66.8564 87.219,66.8644 C85.105,69.9204 81.577,71.9164 77.645,71.9164 L72.142,71.9164 C72.147,71.8784 72.158,71.8444 72.161,71.8044 C72.162,71.7914 72.163,71.7774 72.164,71.7654 L73.045,38.5914 L79.982,38.5914 L79.085,61.5914 C78.935,63.5364 82.015,63.7564 82.161,61.8044 C82.162,61.7914 82.163,61.7774 82.164,61.7654 L83.069,38.5914 L90.263,38.5914 L89.121,61.5914 Z M42.187,35.5074 L42.187,34.5304 C42.187,33.3114 43.179,32.3204 44.397,32.3204 L55.603,32.3204 C56.82,32.3204 57.812,33.3114 57.812,34.5304 L57.812,35.5074 L42.187,35.5074 Z M69.961,38.5914 L69.085,71.5914 C69.076,71.7054 69.08,71.8134 69.093,71.9164 L30.858,71.9164 L29.998,38.5914 L69.961,38.5914 Z M11.025,62.7144 C10.957,62.3434 10.907,61.9674 10.879,61.5914 L9.736,38.5914 L16.892,38.5914 L17.796,61.7654 C17.797,61.7774 17.798,61.7914 17.799,61.8044 C17.946,63.7564 21.025,63.5364 20.875,61.5914 L19.978,38.5914 L26.914,38.5914 L27.774,71.9164 L22.355,71.9164 C17.062,71.9164 12.004,68.0034 11.025,62.7144 L11.025,62.7144 Z M96.57,25.0004 L3.429,25.0004 C1.538,25.0004 0,26.5384 0,28.4294 L0,35.1614 C0,37.0524 1.538,38.5914 3.429,38.5914 L6.649,38.5914 L7.8,61.7654 C7.801,61.7774 7.802,61.7914 7.802,61.8044 C8.245,67.6714 12.573,72.7374 18.168,74.3944 C19.525,74.7974 20.939,75.0004 22.355,75.0004 L77.645,75.0004 C80.204,75.0004 82.683,74.3414 84.87,73.1074 C87.224,71.7784 89.263,69.7754 90.556,67.3924 C91.488,65.6724 92.05,63.7564 92.197,61.8044 C92.198,61.7914 92.199,61.7774 92.2,61.7654 L93.351,38.5914 L96.57,38.5914 C98.462,38.5914 100,37.0534 100,35.1624 L100,28.4294 C100,26.5384 98.462,25.0004 96.57,25.0004 L96.57,25.0004 Z" id="icon_plastic-bin" fill="#3A4B60"></path>
    </g>
</svg>