<?xml version="1.0" encoding="UTF-8"?>
<svg width="100px" height="100px" viewBox="0 0 100 100" version="1.1" xmlns="http://www.w3.org/2000/svg">
    <title>icon / furniture / plastic-drawers</title>
    <g id="icon-/-furniture-/-plastic-drawers" stroke="none" stroke-width="1" fill="none" fill-rule="evenodd">
        <path d="M58.869,5.3687 C58.569,5.8407 58.057,6.1217 57.499,6.1217 L42.502,6.1217 C41.942,6.1217 41.431,5.8407 41.131,5.3687 L39.89,3.4127 L60.11,3.4127 L58.869,5.3687 Z M10.913,8.3067 C10.913,5.6087 13.107,3.4127 15.806,3.4127 L35.846,3.4127 L38.25,7.1977 C39.179,8.6607 40.767,9.5347 42.501,9.5347 L57.499,9.5347 C59.232,9.5347 60.821,8.6607 61.75,7.1977 L64.154,3.4127 L84.194,3.4127 C86.892,3.4127 89.087,5.6087 89.087,8.3067 L89.087,32.1977 L10.913,32.1977 L10.913,8.3067 Z M58.869,37.5637 C58.569,38.0357 58.057,38.3167 57.499,38.3167 L42.501,38.3167 C41.942,38.3167 41.431,38.0357 41.131,37.5637 L39.89,35.6097 L60.109,35.6097 L58.869,37.5637 Z M89.087,35.6097 L89.087,64.3907 L10.913,64.3907 L10.913,35.6097 L35.847,35.6097 L38.25,39.3927 C39.179,40.8557 40.768,41.7297 42.501,41.7297 L57.499,41.7297 C59.231,41.7297 60.821,40.8557 61.75,39.3927 L64.153,35.6097 L89.087,35.6097 Z M10.913,67.8037 L35.846,67.8037 L38.25,71.5887 C39.179,73.0517 40.767,73.9257 42.501,73.9257 L57.499,73.9257 C59.232,73.9257 60.821,73.0517 61.75,71.5887 L64.154,67.8037 L89.087,67.8037 L89.087,91.6937 C89.087,94.3917 86.892,96.5877 84.194,96.5877 L15.806,96.5877 C13.107,96.5877 10.913,94.3917 10.913,91.6937 L10.913,67.8037 Z M58.869,69.7597 C58.569,70.2307 58.057,70.5127 57.499,70.5127 L42.502,70.5127 C41.942,70.5127 41.431,70.2307 41.131,69.7597 L39.89,67.8037 L60.11,67.8037 L58.869,69.7597 Z M84.194,-0.0003 L15.806,-0.0003 C11.226,-0.0003 7.5,3.7257 7.5,8.3067 L7.5,91.6937 C7.5,96.2727 11.226,99.9997 15.806,99.9997 L84.194,99.9997 C88.773,99.9997 92.5,96.2727 92.5,91.6937 L92.5,8.3067 C92.5,3.7257 88.773,-0.0003 84.194,-0.0003 L84.194,-0.0003 Z"
              id="icon_plastic-drawers" fill="#3A4B60"></path>
    </g>
</svg>