<?xml version="1.0" encoding="UTF-8"?>
<svg width="100px" height="100px" viewBox="0 0 100 100" version="1.1" xmlns="http://www.w3.org/2000/svg" xmlns:xlink="http://www.w3.org/1999/xlink">
    <title>icon / furniture / playpen</title>
    <g id="icon-/-furniture-/-playpen" stroke="none" stroke-width="1" fill="none" fill-rule="evenodd">
        <path d="M82.929,87.07 L97.07,87.07 L97.07,84.14 L82.929,84.14 L82.929,87.07 Z M2.929,87.07 L17.07,87.07 L17.07,84.14 L2.929,84.14 L2.929,87.07 Z M2.929,15.859 L17.07,15.859 L17.07,12.929 L2.929,12.929 L2.929,15.859 Z M94.14,81.211 L97.07,81.211 L97.07,18.789 L94.14,18.789 L94.14,81.211 Z M82.929,75.351 L86.816,75.351 C89.239,75.351 91.211,77.323 91.211,79.746 L91.211,81.211 L82.929,81.211 L82.929,75.351 Z M91.211,73.89 C89.986,72.97 88.464,72.422 86.816,72.422 L82.929,72.422 L82.929,18.789 L91.211,18.789 L91.211,73.89 Z M20,87.07 L80,87.07 L80,12.929 L20,12.929 L20,87.07 Z M8.789,79.746 C8.789,77.323 10.76,75.351 13.183,75.351 L17.07,75.351 L17.07,81.211 L8.789,81.211 L8.789,79.746 Z M2.929,81.211 L5.859,81.211 L5.859,18.789 L2.929,18.789 L2.929,81.211 Z M17.07,72.422 L13.183,72.422 C11.536,72.422 10.014,72.969 8.789,73.89 L8.789,18.789 L17.07,18.789 L17.07,72.422 Z M82.929,15.859 L97.07,15.859 L97.07,12.929 L82.929,12.929 L82.929,15.859 Z M98.535,10 L1.465,10 C0.656,10 0,10.656 0,11.465 L0,88.535 C0,89.345 0.656,90 1.465,90 L98.535,90 C99.344,90 100,89.345 100,88.535 L100,11.465 C100,10.656 99.344,10 98.535,10 L98.535,10 Z M62.93,72.422 L71.211,72.422 L71.211,18.789 L62.93,18.789 L62.93,72.422 Z M62.93,81.211 L71.211,81.211 L71.211,75.352 L62.93,75.352 L62.93,81.211 Z M57.07,81.211 L60,81.211 L60,18.789 L57.07,18.789 L57.07,81.211 Z M45.859,72.422 L54.14,72.422 L54.14,18.789 L45.859,18.789 L45.859,72.422 Z M45.859,81.211 L54.14,81.211 L54.14,75.352 L45.859,75.352 L45.859,81.211 Z M39.999,81.211 L42.929,81.211 L42.929,18.789 L39.999,18.789 L39.999,81.211 Z M28.789,72.422 L37.07,72.422 L37.07,18.789 L28.789,18.789 L28.789,72.422 Z M28.789,81.211 L37.07,81.211 L37.07,75.352 L28.789,75.352 L28.789,81.211 Z M72.676,15.859 L27.324,15.859 C26.515,15.859 25.859,16.515 25.859,17.324 L25.859,82.676 C25.859,83.485 26.515,84.14 27.324,84.14 L72.676,84.14 C73.485,84.14 74.14,83.485 74.14,82.676 L74.14,17.324 C74.14,16.515 73.485,15.859 72.676,15.859 L72.676,15.859 Z" id="icon_playpen" fill="#3A4B60"></path>
    </g>
</svg>