<?xml version="1.0" encoding="UTF-8"?>
<svg width="100px" height="100px" viewBox="0 0 100 100" version="1.1" xmlns="http://www.w3.org/2000/svg" xmlns:xlink="http://www.w3.org/1999/xlink">
    <title>icon / furniture / pool-table_disassembled</title>
    <g id="icon-/-furniture-/-pool-table_disassembled" stroke="none" stroke-width="1" fill="none" fill-rule="evenodd">
        <path d="M97.6982,44.9406 L96.3212,47.2006 L87.0112,47.1896 L86.9832,44.1806 L97.2712,44.1806 C97.6612,44.1806 97.9012,44.6076 97.6982,44.9406 L97.6982,44.9406 Z M89.4182,59.4866 L87.1282,59.4866 L87.1352,60.1626 L87.0202,48.1196 L87.0392,50.0006 L94.8392,50.0006 L89.4182,59.4866 Z M82.6772,87.7506 L82.8542,68.9986 L84.9682,68.9986 L85.1442,87.7506 L82.6772,87.7506 Z M83.3022,21.6586 L84.5212,21.6586 L84.9472,66.7616 L82.8762,66.7616 L83.3022,21.6586 Z M83.3852,12.7716 C83.3872,12.4836 83.6242,12.2506 83.9112,12.2506 C84.1982,12.2506 84.4342,12.4836 84.4372,12.7716 L84.5002,19.4236 L83.3222,19.4236 L83.3852,12.7716 Z M74.4382,81.9356 L61.6352,81.9356 C60.8832,76.1856 55.9522,71.7316 50.0002,71.7316 C44.0482,71.7316 39.1172,76.1856 38.3642,81.9356 L25.5612,81.9356 L18.5112,62.5476 L80.6662,62.5476 L80.6432,64.8706 L74.4382,81.9356 Z M10.5822,59.4866 L5.1612,50.0006 L80.7842,50.0006 L80.8072,47.5386 L80.6882,60.0876 L80.6942,59.4866 L10.5822,59.4866 Z M2.4102,44.9216 C2.2252,44.5886 2.4672,44.1806 2.8472,44.1806 L80.8392,44.1806 L80.8102,47.1816 L3.6072,47.0896 L2.4102,44.9216 Z M25.6692,36.0946 C26.5602,36.3106 27.2912,37.0426 27.5082,37.9336 C27.9682,39.8296 26.2952,41.5026 24.3992,41.0426 C23.5082,40.8266 22.7762,40.0946 22.5602,39.2036 C22.0992,37.3076 23.7732,35.6336 25.6692,36.0946 L25.6692,36.0946 Z M46.0772,36.0946 C46.9692,36.3106 47.6992,37.0426 47.9162,37.9336 C48.3762,39.8296 46.7032,41.5026 44.8072,41.0426 C43.9162,40.8266 43.1842,40.0946 42.9692,39.2036 C42.5082,37.3076 44.1812,35.6336 46.0772,36.0946 L46.0772,36.0946 Z M50.5442,36.2326 C50.8622,36.0926 51.2102,36.0176 51.5652,36.0176 C52.9712,36.0176 54.1162,37.1626 54.1162,38.5686 C54.1162,39.9746 52.9712,41.1196 51.5652,41.1196 C51.2102,41.1196 50.8622,41.0436 50.5442,40.9046 C50.8712,40.1926 51.0542,39.4016 51.0542,38.5686 C51.0542,37.7346 50.8712,36.9446 50.5442,36.2326 L50.5442,36.2326 Z M66.4852,36.0946 C67.3772,36.3106 68.1072,37.0426 68.3242,37.9336 C68.7842,39.8296 67.1112,41.5026 65.2162,41.0426 C64.3242,40.8266 63.5932,40.0946 63.3772,39.2036 C62.9162,37.3076 64.5902,35.6336 66.4852,36.0946 L66.4852,36.0946 Z M97.5002,41.1196 L86.9552,41.1196 L86.6872,12.7506 C86.6732,11.2266 85.4342,10.0006 83.9112,10.0006 C82.3882,10.0006 81.1492,11.2266 81.1362,12.7506 L80.8682,41.1196 L70.8462,41.1196 C71.4062,40.0266 71.6222,38.7296 71.3372,37.3696 C70.8892,35.2406 69.1682,33.5176 67.0372,33.0786 C63.4272,32.3346 60.2382,35.0866 60.2382,38.5686 C60.2382,39.4866 60.4612,40.3536 60.8542,41.1196 L56.5612,41.1196 C57.1502,39.9706 57.3582,38.5956 57.0042,37.1596 C56.6042,35.5436 55.4552,34.1616 53.9372,33.4746 C52.0702,32.6296 50.0522,32.8576 48.5022,33.8676 C47.2792,33.0686 45.7292,32.7316 44.0992,33.1136 C42.0392,33.5956 40.3982,35.2846 39.9592,37.3546 C39.6692,38.7196 39.8842,40.0236 40.4462,41.1196 L30.0312,41.1196 C30.5912,40.0266 30.8062,38.7296 30.5202,37.3696 C30.0732,35.2406 28.3512,33.5176 26.2202,33.0786 C22.6102,32.3346 19.4222,35.0866 19.4222,38.5686 C19.4222,39.4866 19.6452,40.3536 20.0382,41.1196 L2.5002,41.1196 C1.1192,41.1196 0.0002,42.2386 0.0002,43.6196 L0.0002,47.1376 L7.4412,60.1616 C8.2852,61.6366 9.8542,62.5476 11.5542,62.5476 L15.2542,62.5476 L22.8192,83.3516 C23.1782,84.3386 24.1172,84.9976 25.1692,84.9976 L40.1022,84.9976 C40.7782,84.9976 41.3262,84.4486 41.3262,83.7726 C41.3262,79.4166 44.4062,75.5066 48.7192,74.8846 C54.0672,74.1156 58.6742,78.2626 58.6742,83.4656 L58.6742,83.7726 C58.6742,84.4486 59.2212,84.9976 59.8982,84.9976 L74.8312,84.9976 C75.8832,84.9976 76.8212,84.3386 77.1802,83.3516 L80.5562,74.0666 L80.6382,65.3956 L80.4112,89.5006 C80.4112,89.7766 80.6352,90.0006 80.9112,90.0006 L86.9112,90.0006 C87.1872,90.0006 87.4112,89.7766 87.4112,89.5006 L87.1572,62.5476 L88.4452,62.5476 C90.1452,62.5476 91.7152,61.6366 92.5582,60.1616 L100.0002,47.1386 L100.0002,43.6196 C100.0002,42.2386 98.8812,41.1196 97.5002,41.1196 L97.5002,41.1196 Z" id="icon" fill="#3A4B60"></path>
    </g>
</svg>