<?xml version="1.0" encoding="UTF-8"?>
<svg width="100px" height="100px" viewBox="0 0 100 100" version="1.1" xmlns="http://www.w3.org/2000/svg" xmlns:xlink="http://www.w3.org/1999/xlink">
    <title>icon / furniture / porch-swing</title>
    <g id="icon-/-furniture-/-porch-swing" stroke="none" stroke-width="1" fill="none" fill-rule="evenodd">
        <path d="M97.0291,87.0294 L89.0891,87.0294 L89.0891,81.4474 C89.9701,80.7384 90.5381,79.6534 90.5381,78.4364 L90.5381,74.7504 C90.5381,73.5334 89.9701,72.4484 89.0891,71.7394 L89.0891,61.1834 C89.0891,60.6424 89.5461,60.1844 90.0871,60.1844 L96.0311,60.1844 C96.5721,60.1844 97.0291,60.6424 97.0291,61.1834 L97.0291,87.0294 Z M80.6591,44.6914 L19.3341,44.6914 C19.3341,44.6914 18.7851,44.7034 18.6851,44.7234 C14.4651,45.0594 11.1311,48.5944 11.1311,52.9014 L11.1311,57.4074 C10.7471,57.2834 10.3381,57.2154 9.9131,57.2154 L7.3111,57.2154 L7.3111,55.5644 C8.5841,55.1234 9.5001,53.9134 9.5001,52.4934 L9.5001,51.6774 C9.5001,50.2574 8.5841,49.0474 7.3111,48.6064 L7.3111,46.2544 C8.5841,45.8124 9.5001,44.6024 9.5001,43.1824 L9.5001,42.3674 C9.5001,40.9464 8.5841,39.7364 7.3111,39.2964 L7.3111,36.9434 C8.5841,36.5024 9.5001,35.2924 9.5001,33.8724 L9.5001,33.0564 C9.5001,31.6354 8.5841,30.4254 7.3111,29.9854 L7.3111,27.6334 C8.5841,27.1914 9.5001,25.9814 9.5001,24.5614 L9.5001,23.7464 C9.5001,22.3254 8.5841,21.1154 7.3111,20.6744 L7.3111,18.9694 L92.6891,18.9694 L92.6891,20.6744 C91.4171,21.1154 90.5001,22.3254 90.5001,23.7464 L90.5001,24.5614 C90.5001,25.9814 91.4171,27.1914 92.6891,27.6334 L92.6891,29.9854 C91.4171,30.4254 90.5001,31.6354 90.5001,33.0564 L90.5001,33.8724 C90.5001,35.2924 91.4171,36.5024 92.6891,36.9434 L92.6891,39.2964 C91.4171,39.7364 90.5001,40.9464 90.5001,42.3674 L90.5001,43.1824 C90.5001,44.6024 91.4171,45.8124 92.6891,46.2544 L92.6891,48.6064 C91.4171,49.0474 90.5001,50.2574 90.5001,51.6774 L90.5001,52.4934 C90.5001,53.9134 91.4171,55.1234 92.6891,55.5644 L92.6891,57.2154 L90.0871,57.2154 C89.6621,57.2154 89.2541,57.2834 88.8691,57.4084 L88.8691,52.9014 C88.8691,48.3744 85.1861,44.6914 80.6591,44.6914 L80.6591,44.6914 Z M14.1011,70.8894 L14.1011,52.9014 C14.1011,50.0134 16.4501,47.6644 19.3371,47.6614 L80.6591,47.6614 C83.5491,47.6614 85.8991,50.0114 85.8991,52.9014 L85.8991,70.8894 L14.1011,70.8894 Z M87.5671,78.4364 C87.5671,78.9204 87.1591,79.3284 86.6761,79.3284 L12.9821,79.3284 C12.4991,79.3284 12.0911,78.9204 12.0911,78.4364 L12.0911,74.7514 C12.0911,74.2674 12.4991,73.8594 12.9821,73.8594 L86.6761,73.8594 C87.1601,73.8594 87.5671,74.2674 87.5671,74.7514 L87.5671,78.4364 Z M13.8821,87.0294 L86.1181,87.0294 L86.1181,82.5054 L13.8821,82.5054 L13.8821,87.0294 Z M10.9111,71.4964 C9.8371,72.1824 9.1211,73.3834 9.1211,74.7504 L9.1211,78.4364 C9.1211,79.8034 9.8371,81.0044 10.9111,81.6904 L10.9111,87.0304 L5.9281,87.0304 L2.9701,87.0304 L2.9701,61.1834 C2.9701,60.6424 3.4271,60.1854 3.9681,60.1854 L9.9131,60.1854 C10.4541,60.1854 10.9111,60.6424 10.9111,61.1834 L10.9111,71.4964 Z M5.1221,52.4934 L5.1221,51.6774 C5.1221,51.0554 5.6281,50.5504 6.2501,50.5504 C6.8721,50.5504 7.3781,51.0554 7.3781,51.6774 L7.3781,52.4934 C7.3781,53.1154 6.8721,53.6214 6.2501,53.6214 C5.6281,53.6214 5.1221,53.1154 5.1221,52.4934 L5.1221,52.4934 Z M5.1221,43.1824 L5.1221,42.3674 C5.1221,41.7454 5.6281,41.2394 6.2501,41.2394 C6.8721,41.2394 7.3781,41.7454 7.3781,42.3674 L7.3781,43.1824 C7.3781,43.8044 6.8721,44.3104 6.2501,44.3104 C5.6281,44.3104 5.1221,43.8044 5.1221,43.1824 L5.1221,43.1824 Z M5.1221,33.8724 L5.1221,33.0564 C5.1221,32.4344 5.6281,31.9284 6.2501,31.9284 C6.8721,31.9284 7.3781,32.4344 7.3781,33.0564 L7.3781,33.8724 C7.3781,34.4944 6.8721,35.0004 6.2501,35.0004 C5.6281,35.0004 5.1221,34.4944 5.1221,33.8724 L5.1221,33.8724 Z M5.1221,24.5614 L5.1221,23.7464 C5.1221,23.1244 5.6281,22.6184 6.2501,22.6184 C6.8721,22.6184 7.3781,23.1244 7.3781,23.7464 L7.3781,24.5614 C7.3781,25.1834 6.8721,25.6894 6.2501,25.6894 C5.6281,25.6894 5.1221,25.1834 5.1221,24.5614 L5.1221,24.5614 Z M4.2731,16.0004 C3.4361,16.0004 2.7581,15.3214 2.7581,14.4854 C2.7581,13.6484 3.4361,12.9694 4.2731,12.9694 L95.7271,12.9694 C96.5631,12.9694 97.2421,13.6484 97.2421,14.4844 C97.2421,15.3214 96.5631,16.0004 95.7271,16.0004 L4.2731,16.0004 Z M94.8781,23.7464 L94.8781,24.5614 C94.8781,25.1834 94.3721,25.6894 93.7501,25.6894 C93.1281,25.6894 92.6221,25.1834 92.6221,24.5614 L92.6221,23.7464 C92.6221,23.1244 93.1281,22.6184 93.7501,22.6184 C94.3721,22.6184 94.8781,23.1244 94.8781,23.7464 L94.8781,23.7464 Z M94.8781,33.0564 L94.8781,33.8724 C94.8781,34.4944 94.3721,35.0004 93.7501,35.0004 C93.1281,35.0004 92.6221,34.4944 92.6221,33.8724 L92.6221,33.0564 C92.6221,32.4344 93.1281,31.9284 93.7501,31.9284 C94.3721,31.9284 94.8781,32.4344 94.8781,33.0564 L94.8781,33.0564 Z M94.8781,42.3674 L94.8781,43.1824 C94.8781,43.8044 94.3721,44.3104 93.7501,44.3104 C93.1281,44.3104 92.6221,43.8044 92.6221,43.1824 L92.6221,42.3674 C92.6221,41.7454 93.1281,41.2394 93.7501,41.2394 C94.3721,41.2394 94.8781,41.7454 94.8781,42.3674 L94.8781,42.3674 Z M94.8781,51.6774 L94.8781,52.4934 C94.8781,53.1154 94.3721,53.6214 93.7501,53.6214 C93.1281,53.6214 92.6221,53.1154 92.6221,52.4934 L92.6221,51.6774 C92.6221,51.0554 93.1281,50.5504 93.7501,50.5504 C94.3721,50.5504 94.8781,51.0554 94.8781,51.6774 L94.8781,51.6774 Z M96.0311,57.2154 L94.8111,57.2154 L94.8111,55.5644 C96.0841,55.1234 97.0001,53.9134 97.0001,52.4934 L97.0001,51.6774 C97.0001,50.2574 96.0841,49.0474 94.8111,48.6064 L94.8111,46.2544 C96.0841,45.8124 97.0001,44.6024 97.0001,43.1824 L97.0001,42.3674 C97.0001,40.9464 96.0841,39.7364 94.8111,39.2964 L94.8111,36.9434 C96.0841,36.5024 97.0001,35.2924 97.0001,33.8724 L97.0001,33.0564 C97.0001,31.6354 96.0841,30.4254 94.8111,29.9854 L94.8111,27.6334 C96.0841,27.1914 97.0001,25.9814 97.0001,24.5614 L97.0001,23.7464 C97.0001,22.3254 96.0841,21.1154 94.8111,20.6744 L94.8111,18.9694 L95.5151,18.9694 C97.9921,18.9694 100.0001,16.9624 100.0001,14.4854 L100.0001,14.4844 C100.0001,12.0084 97.9921,10.0004 95.5151,10.0004 L4.4851,10.0004 C2.0081,10.0004 0.0001,12.0084 0.0001,14.4854 C0.0001,16.9624 2.0081,18.9694 4.4851,18.9694 L5.1891,18.9694 L5.1891,20.6744 C3.9171,21.1154 3.0001,22.3254 3.0001,23.7464 L3.0001,24.5614 C3.0001,25.9814 3.9171,27.1914 5.1891,27.6334 L5.1891,29.9854 C3.9171,30.4254 3.0001,31.6354 3.0001,33.0564 L3.0001,33.8724 C3.0001,35.2924 3.9171,36.5024 5.1891,36.9434 L5.1891,39.2964 C3.9171,39.7364 3.0001,40.9464 3.0001,42.3674 L3.0001,43.1824 C3.0001,44.6024 3.9171,45.8124 5.1891,46.2544 L5.1891,48.6064 C3.9171,49.0474 3.0001,50.2574 3.0001,51.6774 L3.0001,52.4934 C3.0001,53.9134 3.9171,55.1234 5.1891,55.5644 L5.1891,57.2154 L3.9681,57.2154 C1.7801,57.2154 0.0001,58.9954 0.0001,61.1834 L0.0001,88.5144 C0.0001,89.3354 0.6651,90.0004 1.4851,90.0004 L98.5141,90.0004 C99.3351,90.0004 100.0001,89.3354 100.0001,88.5144 L100.0001,61.1834 C100.0001,58.9954 98.2191,57.2154 96.0311,57.2154 L96.0311,57.2154 Z" id="icon_porch-swing" fill="#3A4B60"></path>
    </g>
</svg>