<?xml version="1.0" encoding="UTF-8"?>
<svg width="100px" height="100px" viewBox="0 0 100 100" version="1.1" xmlns="http://www.w3.org/2000/svg" xmlns:xlink="http://www.w3.org/1999/xlink">
    <title>icon / furniture / power-wheels</title>
    <g id="icon-/-furniture-/-power-wheels" stroke="none" stroke-width="1" fill="none" fill-rule="evenodd">
        <path d="M82.3365,66.9711 C79.0225,66.9711 76.3365,69.6581 76.3365,72.9711 C76.3365,76.2841 79.0225,78.9711 82.3365,78.9711 C85.6495,78.9711 88.3365,76.2841 88.3365,72.9711 C88.3365,69.6581 85.6495,66.9711 82.3365,66.9711 L82.3365,66.9711 Z M82.3365,69.4711 C84.2665,69.4711 85.8365,71.0411 85.8365,72.9711 C85.8365,74.9011 84.2665,76.4711 82.3365,76.4711 C80.4055,76.4711 78.8365,74.9011 78.8365,72.9711 C78.8365,71.0411 80.4055,69.4711 82.3365,69.4711 L82.3365,69.4711 Z M17.6615,66.9701 C14.3475,66.9701 11.6615,69.6571 11.6615,72.9701 C11.6615,76.2841 14.3475,78.9701 17.6615,78.9701 C20.9755,78.9701 23.6615,76.2841 23.6615,72.9701 C23.6615,69.6571 20.9755,66.9701 17.6615,66.9701 L17.6615,66.9701 Z M17.6615,69.4701 C19.5915,69.4701 21.1615,71.0401 21.1615,72.9701 C21.1615,74.9011 19.5915,76.4701 17.6615,76.4701 C15.7315,76.4701 14.1615,74.9011 14.1615,72.9701 C14.1615,71.0401 15.7315,69.4701 17.6615,69.4701 L17.6615,69.4701 Z M96.7415,50.0531 L93.0395,50.0531 C91.6725,50.0531 90.5605,51.1651 90.5605,52.5331 C90.5605,53.9001 91.6725,55.0121 93.0395,55.0121 L96.7415,55.0121 L96.7415,50.0531 Z M96.7415,58.2691 L93.0395,58.2691 C89.8775,58.2691 87.3045,55.6961 87.3045,52.5331 C87.3045,49.3711 89.8775,46.7981 93.0395,46.7981 L96.4065,46.7981 L96.2745,46.4551 C95.2365,43.7641 92.6055,41.9541 89.7265,41.9541 C88.9465,41.9541 11.6135,41.9481 10.7455,41.9341 C8.7065,41.9021 6.8075,42.6041 5.4365,43.9121 C4.0705,45.2161 3.2555,47.1071 3.2555,48.9701 L3.2555,53.4001 L38.5965,53.4001 C48.3445,53.4001 56.3865,61.3291 56.5235,71.0781 L56.5265,71.3261 L70.4015,71.3261 L70.4355,71.1131 C71.3385,65.3061 76.4545,60.9261 82.3375,60.9261 C87.6175,60.9261 92.3635,64.4631 93.8775,69.5291 L93.9875,69.8981 L94.2815,69.6481 C95.8455,68.3221 96.7415,66.3751 96.7415,64.3101 L96.7415,58.2691 Z M91.1255,72.9711 C91.1255,68.1241 87.1825,64.1821 82.3365,64.1821 C77.4895,64.1821 73.5465,68.1241 73.5465,72.9711 C73.5465,77.8171 77.4895,81.7591 82.3365,81.7591 C83.2485,81.7591 84.1505,81.6171 85.0185,81.3381 C87.5265,80.5281 89.5845,78.5781 90.5325,76.1171 L90.5685,76.0791 L90.5685,76.0201 C90.9395,75.0291 91.1255,74.0021 91.1255,72.9711 L91.1255,72.9711 Z M53.2725,71.3261 L53.2675,71.0691 C53.1255,63.1211 46.5435,56.6551 38.5955,56.6551 L3.2555,56.6551 L3.2555,64.3091 C3.2555,66.3651 4.1515,68.3111 5.7155,69.6461 L6.0095,69.8971 L6.1195,69.5271 C7.6345,64.4621 12.3805,60.9251 17.6615,60.9251 C23.5435,60.9251 28.6595,65.3051 29.5625,71.1121 L29.5965,71.3261 L53.2725,71.3261 Z M26.4495,72.9721 C26.4495,68.1251 22.5085,64.1821 17.6615,64.1821 C12.8155,64.1821 8.8715,68.1251 8.8715,72.9721 C8.8715,76.5201 11.0915,79.7951 14.3935,81.1221 C15.4455,81.5441 16.5425,81.7581 17.6505,81.7581 C18.8415,81.7581 20.0145,81.5111 21.1395,81.0221 C24.3655,79.6221 26.4495,76.4621 26.4495,72.9721 L26.4495,72.9721 Z M33.3405,38.6981 L42.9185,38.6981 L40.2415,29.6131 C39.6275,27.5311 37.6845,26.0781 35.5145,26.0781 C34.3155,26.0781 33.3405,27.0531 33.3405,28.2521 L33.3405,38.6981 Z M99.9985,52.8951 C99.9975,55.2761 99.9945,58.8661 99.9965,64.2991 C99.9965,68.1421 97.8905,71.6281 94.4995,73.3971 L94.3715,73.4631 L94.3635,73.6071 C94.1865,76.9401 92.5085,80.1971 89.8745,82.3191 C88.6835,83.2791 87.3245,84.0001 85.8385,84.4621 C82.3985,85.5291 78.5675,84.9561 75.5855,82.9301 C74.2295,82.0091 73.0475,80.7921 72.1695,79.4111 C71.7235,78.7101 71.3485,77.9621 71.0585,77.1891 C70.9965,77.0291 70.5425,75.3391 70.4465,74.9011 L70.7405,74.5711 L29.5985,74.5711 L29.5645,74.7841 C29.5035,75.1751 29.4205,75.5741 29.3165,75.9651 C27.9925,81.0181 23.4365,84.7281 18.2385,84.9861 C16.8575,85.0531 15.4605,84.8781 14.1085,84.4591 C11.7255,83.7241 9.5805,82.2171 8.0695,80.2161 C7.3455,79.2571 6.7695,78.2011 6.3555,77.0791 C6.1465,76.5121 5.9805,75.9291 5.8605,75.3431 C5.8475,75.2791 5.8315,75.0781 5.8115,74.8401 C5.7045,73.5991 5.6665,73.4851 5.5015,73.3981 C2.1075,71.6191 -0.0005,68.1321 -0.0005,64.2991 L-0.0005,48.9591 C-0.0005,46.5171 0.9335,44.0511 2.5615,42.1951 C4.4845,39.9991 7.3675,38.6881 10.2735,38.6881 L12.8645,38.6881 L12.8645,26.6371 C12.8645,25.7391 13.5945,25.0091 14.4925,25.0091 C15.3905,25.0091 16.1205,25.7391 16.1205,26.6371 L16.1205,38.6881 L30.0845,38.6881 L30.0845,28.2421 C30.0845,25.2481 32.5215,22.8131 35.5155,22.8131 C39.1175,22.8131 42.3455,25.2261 43.3635,28.6811 L46.2605,38.5071 L46.3145,38.6881 L64.4805,38.6881 L60.3745,34.7881 L58.9455,36.2411 C58.3335,36.8611 57.2645,36.8681 56.6435,36.2611 C56.3335,35.9551 56.1605,35.5491 56.1565,35.1151 C56.1525,34.6801 56.3195,34.2701 56.6245,33.9591 L61.9045,28.5871 C62.2085,28.2781 62.6155,28.1051 63.0505,28.1021 L63.0645,28.1021 C63.4935,28.1021 63.8995,28.2671 64.2065,28.5691 C64.5165,28.8721 64.6895,29.2811 64.6915,29.7161 C64.6955,30.1511 64.5295,30.5601 64.2255,30.8701 L62.6565,32.4661 L69.2065,38.6881 L77.2345,38.6881 L77.2345,37.6201 C77.2345,36.8181 76.9235,36.0631 76.3565,35.4961 L58.6355,17.7771 C58.0005,17.1421 58.0005,16.1111 58.6355,15.4751 C59.2705,14.8411 60.3025,14.8411 60.9385,15.4751 L78.6585,33.1951 C79.8395,34.3771 80.4905,35.9491 80.4905,37.6201 L80.4905,38.6881 L89.7255,38.6881 C94.9885,38.6881 99.4825,42.7921 99.9535,48.0341 L99.9715,48.1191 C100.0015,48.2351 100.0015,48.5871 99.9985,52.8951 L99.9985,52.8951 Z M59.4115,50.8631 C59.4115,51.7601 58.6825,52.4911 57.7845,52.4911 L55.5295,52.4911 C54.6315,52.4911 53.9015,51.7601 53.9015,50.8631 C53.9015,49.9641 54.6315,49.2351 55.5295,49.2351 L57.7845,49.2351 C58.6825,49.2351 59.4115,49.9641 59.4115,50.8631 L59.4115,50.8631 Z" id="icon_power-wheels" fill="#3A4B60"></path>
    </g>
</svg>