<?xml version="1.0" encoding="UTF-8"?>
<svg width="100px" height="100px" viewBox="0 0 100 100" version="1.1" xmlns="http://www.w3.org/2000/svg" xmlns:xlink="http://www.w3.org/1999/xlink">
    <title>icon / furniture / printer</title>
    <g id="icon-/-furniture-/-printer" stroke="none" stroke-width="1" fill="none" fill-rule="evenodd">
        <path d="M78.2969,55.8872 C79.3329,55.8872 80.1769,56.7312 80.1769,57.7672 C80.1769,58.8042 79.3329,59.6472 78.2969,59.6472 L74.1579,59.6472 L74.1579,65.5692 L93.1719,65.5692 C94.8639,65.5682 96.2399,64.1922 96.2399,62.5002 L96.2399,28.5732 C96.2399,26.8812 94.8639,25.5042 93.1719,25.5042 L83.5039,25.5042 L83.5039,33.8522 C83.5039,34.8882 82.6589,35.7322 81.6229,35.7322 L18.3769,35.7322 C17.3409,35.7322 16.4959,34.8882 16.4959,33.8522 L16.4959,25.5042 L6.8279,25.5042 C5.1359,25.5042 3.7599,26.8812 3.7599,28.5732 L3.7599,62.5002 C3.7599,64.1922 5.1359,65.5692 6.8279,65.5692 L25.8419,65.5692 L25.8419,59.6472 L21.7029,59.6472 C20.6669,59.6472 19.8229,58.8042 19.8229,57.7672 C19.8229,56.7312 20.6669,55.8872 21.7029,55.8872 L78.2969,55.8872 Z M29.6019,89.2402 L70.3989,89.2402 L70.3989,59.6472 L29.6019,59.6472 L29.6019,89.2402 Z M20.2569,31.9712 L25.8419,31.9712 L25.8419,25.5042 L20.2569,25.5042 L20.2569,31.9712 Z M29.6019,31.9712 L70.3989,31.9712 L70.3989,11.7602 L29.6019,11.7602 L29.6019,31.9712 Z M74.1579,31.9712 L79.7429,31.9712 L79.7429,25.5042 L74.1579,25.5042 L74.1579,31.9712 Z M74.1579,91.1202 C74.1579,92.1562 73.3149,93.0002 72.2779,93.0002 L27.7219,93.0002 C26.6859,93.0002 25.8409,92.1562 25.8409,91.1202 L25.8409,69.3282 L6.8279,69.3282 C3.0639,69.3282 -0.0001,66.2652 -0.0001,62.5002 L-0.0001,28.5732 C-0.0001,24.8082 3.0639,21.7452 6.8279,21.7452 L25.8419,21.7452 L25.8419,9.8802 C25.8419,8.8442 26.6859,8.0002 27.7219,8.0002 L72.2779,8.0002 C73.3149,8.0002 74.1589,8.8442 74.1589,9.8802 L74.1589,21.7452 L93.1719,21.7452 C96.9369,21.7452 99.9999,24.8082 99.9999,28.5732 L99.9999,62.5002 C99.9999,66.2652 96.9369,69.3282 93.1719,69.3282 L74.1579,69.3282 L74.1579,91.1202 Z M60.5659,69.3282 C61.6019,69.3282 62.4459,68.4852 62.4459,67.4492 C62.4459,66.4122 61.6019,65.5682 60.5659,65.5682 L39.4349,65.5682 C38.3989,65.5682 37.5539,66.4122 37.5539,67.4492 C37.5539,68.4852 38.3989,69.3282 39.4349,69.3282 L60.5659,69.3282 Z M13.2539,40.8692 C11.9199,40.8692 10.8339,41.9542 10.8339,43.2882 C10.8339,44.6222 11.9199,45.7072 13.2539,45.7072 C14.5869,45.7072 15.6699,44.6222 15.6699,43.2882 C15.6699,41.9542 14.5869,40.8692 13.2539,40.8692 L13.2539,40.8692 Z M51.2619,78.2382 C51.2619,79.2752 50.4179,80.1182 49.3819,80.1182 L39.4349,80.1182 C38.3989,80.1182 37.5539,79.2752 37.5539,78.2382 C37.5539,77.2012 38.3989,76.3592 39.4349,76.3592 L49.3819,76.3592 C50.4179,76.3592 51.2619,77.2012 51.2619,78.2382 L51.2619,78.2382 Z" id="Fill-1" fill="#3A4B60"></path>
    </g>
</svg>