<?xml version="1.0" encoding="UTF-8"?>
<svg width="100px" height="100px" viewBox="0 0 100 100" version="1.1" xmlns="http://www.w3.org/2000/svg" xmlns:xlink="http://www.w3.org/1999/xlink">
    <title>icon / furniture / quilt-rack</title>
    <g id="icon-/-furniture-/-quilt-rack" stroke="none" stroke-width="1" fill="none" fill-rule="evenodd">
        <path d="M85.5938,96.874 C84.4788,96.874 84.3188,95.912 84.3188,95.482 L84.3148,4.518 C84.3148,4.088 84.4748,3.126 85.5898,3.126 C86.6868,3.126 86.8708,4.09 86.8708,4.518 C86.8708,4.527 86.8748,95.481 86.8748,95.482 C86.8748,95.91 86.6908,96.874 85.5938,96.874 L85.5938,96.874 Z M18.8068,11.94 L81.1868,11.94 L81.1868,9.377 L18.8068,9.377 L18.8068,11.94 Z M81.1868,26.572 L77.1268,26.572 C76.4288,23.884 74.0008,21.884 71.0968,21.884 L28.8918,21.884 C25.9878,21.884 23.5618,23.882 22.8638,26.57 L18.8078,26.57 L18.8078,15.066 L81.1868,15.066 L81.1868,26.572 Z M77.3468,31.258 L81.1868,31.258 L81.1868,29.698 L77.3468,29.698 L77.3468,31.258 Z M77.3468,46.89 L81.1868,46.89 L81.1868,34.384 L77.3468,34.384 L77.3468,46.89 Z M77.3468,52.576 L81.1868,52.576 L81.1868,50.015 L77.3468,50.015 L77.3468,52.576 Z M77.3468,67.207 L81.1868,67.207 L81.1868,55.702 L77.3468,55.702 L77.3468,67.207 Z M77.3468,72.894 L81.1868,72.894 L81.1868,70.333 L77.3468,70.333 L77.3468,72.894 Z M41.5018,25.01 L63.8378,25.01 C65.5618,25.01 66.9628,26.411 66.9628,28.135 L66.9628,72.485 L42.3728,72.485 L42.3728,28.135 C42.3728,26.991 42.0418,25.933 41.5018,25.01 L41.5018,25.01 Z M40.8098,75.611 L68.5268,75.611 C69.3898,75.611 70.0888,74.912 70.0888,74.048 L70.0888,28.135 C70.0888,26.991 69.7578,25.933 69.2178,25.01 L71.0958,25.01 C72.8198,25.01 74.2218,26.411 74.2218,28.135 L74.2218,79.742 L35.1208,79.742 C35.1208,79.742 35.1428,28.173 35.1428,28.135 C35.1428,26.991 34.8118,25.933 34.2728,25.01 L36.1208,25.01 C37.8458,25.01 39.2468,26.411 39.2468,28.135 L39.2468,74.048 C39.2468,74.912 39.9468,75.611 40.8098,75.611 L40.8098,75.611 Z M81.1868,86.524 L18.8068,86.524 L18.8068,76.02 L31.9948,76.02 L31.9948,81.305 C31.9948,82.169 32.6948,82.868 33.5578,82.868 L75.7838,82.868 C76.6498,82.868 77.3468,82.169 77.3468,81.305 L77.3468,76.02 L81.1868,76.02 L81.1868,86.524 Z M18.8068,92.214 L81.1848,92.214 L81.1848,89.651 L18.8068,89.651 L18.8068,92.214 Z M18.8068,72.895 L31.9948,72.895 L31.9948,70.332 L18.8068,70.332 L18.8068,72.895 Z M18.8068,55.703 L22.6398,55.703 L22.6398,61.385 C22.6398,62.249 23.3378,62.948 24.2028,62.948 L31.9948,62.948 L31.9948,67.206 L18.8068,67.206 L18.8068,55.703 Z M25.7658,59.822 L31.9948,59.822 L31.9948,55.703 L25.7658,55.703 L25.7658,59.822 Z M18.8068,52.577 L31.9948,52.577 L31.9948,50.014 L18.8068,50.014 L18.8068,52.577 Z M18.8068,46.889 L22.6398,46.889 L22.6398,35.386 L18.8068,35.386 L18.8068,46.889 Z M25.7658,46.889 L31.9948,46.889 L31.9948,35.386 L25.7658,35.386 L25.7658,46.889 Z M26.2008,26.57 C26.7438,25.642 27.7398,25.01 28.8918,25.01 C30.0408,25.01 31.0388,25.642 31.5818,26.57 L26.2008,26.57 Z M18.8068,29.696 L24.1958,29.696 C24.1978,29.696 24.1988,29.698 24.2028,29.698 C24.2058,29.698 24.2068,29.696 24.2098,29.696 L31.9948,29.696 L31.9948,32.26 L18.8068,32.26 L18.8068,29.696 Z M14.4008,96.874 C13.2848,96.874 13.1248,95.912 13.1248,95.482 L13.1208,4.518 C13.1208,4.088 13.2808,3.126 14.3968,3.126 C15.4928,3.126 15.6778,4.09 15.6778,4.518 C15.6778,4.527 15.6818,95.481 15.6818,95.482 C15.6818,95.911 15.4968,96.874 14.4008,96.874 L14.4008,96.874 Z M89.9918,3.9 C89.9548,1.78 87.7178,0 85.5898,0 C83.4418,0 81.1978,1.753 81.1938,3.9 C81.1938,3.902 81.1848,6.252 81.1848,6.252 L18.7998,6.252 C18.7988,4.742 18.7988,3.903 18.7988,3.9 C18.7618,1.78 16.5248,0 14.3968,0 C12.2478,0 10.0048,1.753 9.9998,3.9 C9.9998,3.902 10.0038,96.099 10.0038,96.1 C10.0078,98.247 12.2518,100 14.4008,100 C16.5288,100 18.7658,98.22 18.8028,96.1 L18.8028,96.088 L18.8068,96.09 L18.8068,95.34 L81.1848,95.34 L81.1948,95.34 C81.1968,95.76 81.1978,96.099 81.1978,96.1 C81.2018,98.247 83.4458,100 85.5938,100 C87.7218,100 89.9588,98.22 89.9958,96.1 L89.9958,96.088 L89.9998,96.09 C89.9998,96.09 89.9938,3.924 89.9918,3.9 L89.9918,3.9 Z" id="icon_quilt-rack" fill="#3A4B60"></path>
    </g>
</svg>