<?xml version="1.0" encoding="UTF-8"?>
<svg width="100px" height="100px" viewBox="0 0 100 100" version="1.1" xmlns="http://www.w3.org/2000/svg" xmlns:xlink="http://www.w3.org/1999/xlink">
    <title>icon / furniture / refridgerator_mini-fridge</title>
    <g id="icon-/-furniture-/-refridgerator_mini-fridge" stroke="none" stroke-width="1" fill="none" fill-rule="evenodd">
        <path d="M19.9566,23.4112 C18.8526,23.4112 17.9566,22.5152 17.9566,21.4112 C17.9566,20.3072 18.8526,19.4112 19.9566,19.4112 C21.0606,19.4112 21.9566,20.3072 21.9566,21.4112 C21.9566,22.5152 21.0606,23.4112 19.9566,23.4112 L19.9566,23.4112 Z M26.9566,23.4112 C25.8526,23.4112 24.9566,22.5152 24.9566,21.4112 C24.9566,20.3072 25.8526,19.4112 26.9566,19.4112 C28.0606,19.4112 28.9566,20.3072 28.9566,21.4112 C28.9566,22.5152 28.0606,23.4112 26.9566,23.4112 L26.9566,23.4112 Z M87.0436,11.4542 L12.9566,11.4542 L12.9566,9.8092 C12.9566,6.0242 16.0246,2.9562 19.8106,2.9562 L80.1896,2.9562 C83.9756,2.9562 87.0436,6.0242 87.0436,9.8092 L87.0436,11.4542 Z M87.0436,17.5092 L68.3226,17.5092 L66.1846,14.4112 L87.0436,14.4112 L87.0436,17.5092 Z M87.0436,80.5702 L12.9566,80.5702 L12.9566,14.4112 L62.4106,14.4112 L65.8366,19.3762 C66.3076,20.0572 67.0836,20.4652 67.9126,20.4652 L87.0436,20.4652 L87.0436,80.5702 Z M87.0436,85.1732 C87.0436,88.9572 83.9766,92.0242 80.1916,92.0242 L19.8106,92.0242 C16.0246,92.0242 12.9566,88.9562 12.9566,85.1712 L12.9566,83.5262 L87.0436,83.5262 L87.0436,85.1732 Z M76.4996,97.0442 L69.9906,97.0442 C68.8196,97.0442 67.8716,96.1322 67.7926,94.9812 L78.6966,94.9812 C78.6176,96.1302 77.6676,97.0442 76.4996,97.0442 L76.4996,97.0442 Z M30.0076,97.0502 L23.4986,97.0502 C22.3286,97.0502 21.3796,96.1382 21.3016,94.9872 L32.2056,94.9872 C32.1266,96.1382 31.1786,97.0502 30.0076,97.0502 L30.0076,97.0502 Z M80.1896,0.0002 L19.8106,0.0002 C14.3926,0.0002 9.9996,4.3912 9.9996,9.8092 L9.9996,85.1732 C9.9996,90.0792 13.6216,94.1552 18.3316,94.8702 L18.3356,94.8702 C18.3566,97.7062 20.6586,100.0002 23.5006,100.0002 L30.0096,100.0002 C32.8126,100.0002 35.0816,97.7652 35.1626,94.9812 L64.8366,94.9812 C64.9186,97.7652 67.1866,100.0002 69.9906,100.0002 L76.4996,100.0002 C79.3406,100.0002 81.6436,97.7062 81.6646,94.8702 L81.6686,94.8692 C86.3786,94.1542 89.9996,90.0792 89.9996,85.1732 L89.9996,9.8072 C89.9996,4.3992 85.5996,0.0002 80.1896,0.0002 L80.1896,0.0002 Z" id="icon_refridgerator_mini-fridge" fill="#3A4B60"></path>
    </g>
</svg>