<?xml version="1.0" encoding="UTF-8"?>
<svg width="100px" height="100px" viewBox="0 0 100 100" version="1.1" xmlns="http://www.w3.org/2000/svg" xmlns:xlink="http://www.w3.org/1999/xlink">
    <title>icon / furniture / riding-saddle</title>
    <g id="icon-/-furniture-/-riding-saddle" stroke="none" stroke-width="1" fill="none" fill-rule="evenodd">
        <path d="M69.3407,69.8174 L59.3447,69.8174 C60.1037,67.9724 60.4437,65.8734 60.2327,63.7394 L69.3407,63.7394 C76.1647,63.7394 82.7437,60.4014 86.7807,54.9044 C89.5027,51.1984 90.9917,46.6844 90.9917,42.0864 L90.9917,24.6354 C90.9917,24.0004 91.5097,23.4834 92.1457,23.4834 L95.9177,23.4834 C96.5527,23.4834 97.0697,24.0004 97.0697,24.6354 L97.0697,42.0864 C97.0697,57.3774 84.6307,69.8174 69.3407,69.8174 L69.3407,69.8174 Z M56.1277,37.0564 C58.2247,37.6354 60.2807,38.5404 63.8447,38.5404 C70.3477,38.5404 76.3217,35.2674 79.8257,29.7854 L82.1817,26.1004 L88.0637,26.1004 L88.0637,42.0864 C88.0637,44.9114 87.4457,47.6224 86.2367,50.1504 C85.4347,51.8364 84.3847,53.3954 83.1117,54.7744 C83.1087,54.7784 83.1027,54.7794 83.0987,54.7844 C79.5627,58.6134 74.5477,60.8104 69.3407,60.8104 L59.7987,60.8104 C59.2137,57.0234 56.9637,42.4654 56.1277,37.0564 L56.1277,37.0564 Z M57.2947,66.1564 C56.7277,70.9114 52.8147,74.5274 48.0937,74.7874 C47.8317,74.8004 33.9197,74.8234 33.2277,74.7814 C27.8507,74.4464 23.8097,69.8594 24.0367,64.5724 C24.0767,63.7274 23.8727,65.2414 28.3037,36.5674 C30.7307,36.3124 32.9617,35.1924 34.6237,33.3894 C40.3417,33.8874 47.3197,34.9484 53.0437,36.2784 C57.5297,65.5954 57.5297,64.1614 57.2947,66.1564 L57.2947,66.1564 Z M37.4137,87.2514 L38.7687,77.7314 L43.3697,77.7314 L44.7237,87.2514 C44.9137,88.1894 44.1957,89.0634 43.2407,89.0634 L38.8977,89.0634 C37.9407,89.0634 37.2257,88.1874 37.4137,87.2514 L37.4137,87.2514 Z M48.6987,97.0704 L33.4397,97.0704 C30.2487,97.0704 27.8517,94.1484 28.4857,91.0144 L30.6797,77.3384 C32.5537,77.8164 33.8577,77.7264 35.7787,77.7314 L34.5427,86.6714 C33.9867,89.4204 36.0877,91.9934 38.8977,91.9934 L43.2407,91.9934 C46.0457,91.9934 48.1527,89.4244 47.5957,86.6714 L46.3587,77.7314 C47.0857,77.6944 48.9797,77.9134 51.4177,77.1354 L53.6527,91.0144 C54.2847,94.1424 51.8957,97.0704 48.6987,97.0704 L48.6987,97.0704 Z M21.9267,58.6504 C15.7467,55.4034 11.9377,49.0514 11.9377,42.0864 L11.9377,26.1014 L17.1577,26.1014 C17.1747,26.9434 17.1607,26.7524 17.1887,27.1894 C17.4747,31.8174 20.8837,35.6074 25.3577,36.4504 L21.9267,58.6504 Z M12.7917,63.2814 L12.7937,63.2794 C10.9277,61.7034 9.2787,59.8794 7.8817,57.8684 C4.6517,53.2194 2.9297,47.7884 2.9297,42.0864 L2.9297,24.6354 C2.9297,24.0004 3.4467,23.4834 4.0817,23.4834 L7.8547,23.4834 C8.4897,23.4834 9.0077,24.0004 9.0077,24.6354 C9.0127,42.9254 8.9947,42.1444 9.0227,42.8964 C9.3197,51.0144 14.0897,58.2344 21.4567,61.6914 C21.2217,63.2554 20.7347,65.3404 21.5227,68.2744 C18.3457,67.1634 15.3807,65.4644 12.7917,63.2814 L12.7917,63.2814 Z M15.9427,12.0794 L23.3737,12.0794 C28.8897,14.7744 34.1607,19.9284 34.3637,26.1604 C34.4987,30.2964 31.5137,33.2714 28.0027,33.6524 C23.7547,34.1034 20.0957,30.7724 20.0957,26.5564 C20.0957,21.3794 18.5037,16.3154 15.9427,12.0794 L15.9427,12.0794 Z M10.0507,6.0394 C10.0507,4.3244 11.4457,2.9294 13.1607,2.9294 L23.7007,2.9294 C25.4157,2.9294 26.8117,4.3254 26.8117,6.0404 C26.8117,7.7544 25.4157,9.1504 23.7007,9.1504 L13.1607,9.1504 C11.4457,9.1504 10.0507,7.7544 10.0507,6.0394 L10.0507,6.0394 Z M61.7137,26.1924 C64.7167,27.1654 68.0027,25.9834 69.7067,23.3174 L78.7837,9.1154 C80.1357,7.0014 82.9407,6.3834 85.0547,7.7344 C87.1687,9.0864 87.7857,11.8904 86.4357,14.0054 C85.6667,15.2074 78.4707,26.4664 77.3577,28.2074 C74.3947,32.8434 69.3427,35.6104 63.8447,35.6104 C61.6817,35.6104 60.1917,35.2244 58.4887,34.6954 C52.3797,32.7914 43.2987,31.3144 36.4477,30.6204 C37.6997,27.7964 37.4417,24.3604 36.4247,21.5034 C44.4547,22.2764 54.7627,23.9374 61.7137,26.1924 L61.7137,26.1924 Z M95.9177,20.5534 L92.1457,20.5534 C90.4107,20.5534 88.9297,21.6424 88.3387,23.1714 L84.0537,23.1714 L88.9027,15.5834 C91.1267,12.1044 90.1117,7.4894 86.6327,5.2664 C83.1617,3.0474 78.5337,4.0664 76.3167,7.5374 L67.2377,21.7394 C66.2517,23.2824 64.3527,23.9674 62.6177,23.4054 C55.8267,21.2024 45.0407,19.2664 34.9447,18.4274 C33.0907,15.3844 30.3027,12.8524 27.2607,10.9154 C28.7627,9.8154 29.7407,8.0404 29.7407,6.0394 C29.7407,2.7094 27.0307,0.0004 23.7007,0.0004 L13.1607,0.0004 C9.8297,0.0004 7.1207,2.7094 7.1207,6.0394 C7.1207,9.1104 9.4247,11.6514 12.3947,12.0294 C13.3757,13.3894 16.0677,17.5464 16.9087,23.1714 L11.6607,23.1714 C11.0697,21.6424 9.5887,20.5534 7.8547,20.5534 L4.0817,20.5534 C1.8307,20.5534 -0.0003,22.3844 -0.0003,24.6354 L-0.0003,42.0864 C-0.0003,49.7924 2.9657,57.2724 8.1997,62.9204 C10.2187,65.0984 12.5377,66.9804 15.0957,68.4924 C16.3377,69.2274 17.6327,69.8754 18.9667,70.4284 C19.6327,70.7054 20.3097,70.9574 20.9937,71.1864 C21.3417,71.3014 22.9027,71.5274 23.0727,71.7964 C24.2977,73.7324 25.9617,75.2444 27.9057,76.2674 L25.6127,90.4344 C24.6147,95.3744 28.3897,100.0004 33.4397,100.0004 L48.6977,100.0004 C53.7377,100.0004 57.5247,95.3834 56.5247,90.4344 L54.1537,75.8864 C55.5057,75.0674 56.6917,74.0084 57.6597,72.7474 L69.3407,72.7474 C86.2467,72.7474 99.9997,58.9924 99.9997,42.0864 L99.9997,24.6354 C99.9997,22.3844 98.1687,20.5534 95.9177,20.5534 L95.9177,20.5534 Z" id="icon_riding-saddle" fill="#3A4B60"></path>
    </g>
</svg>