<?xml version="1.0" encoding="UTF-8"?>
<svg width="100px" height="100px" viewBox="0 0 100 100" version="1.1" xmlns="http://www.w3.org/2000/svg">
    <title>icon / furniture / rowing-machine</title>
    <g id="icon-/-furniture-/-rowing-machine" stroke="none" stroke-width="1" fill="none" fill-rule="evenodd">
        <path d="M4.5365,85.2186 L33.9105,85.2186 L59.0945,57.2376 C58.5575,56.0676 58.1245,54.8406 57.8045,53.5696 L32.9155,81.2126 C32.6375,81.5216 32.2415,81.6976 31.8255,81.6976 L4.5365,81.6976 C2.2755,81.6976 2.2725,85.2186 4.5365,85.2186 L4.5365,85.2186 Z M32.8375,70.9126 C32.4725,73.3986 30.6705,75.6336 27.4245,75.6336 L23.0855,75.6336 L23.0855,78.7636 L31.1725,78.7636 L57.2125,49.8416 C57.0685,47.7856 57.2215,45.7126 57.6675,43.7006 L32.8375,70.9126 Z M13.1785,78.7636 L20.1525,78.7636 L20.1525,75.6336 L13.1785,75.6336 L13.1785,78.7636 Z M27.4245,67.2216 L5.9055,67.2216 C2.3745,67.2216 2.3745,72.6986 5.9055,72.6986 L27.4245,72.6986 C30.9555,72.6986 30.9555,67.2216 27.4245,67.2216 L27.4245,67.2216 Z M78.5795,66.8306 C88.7725,66.8306 97.0655,58.5376 97.0655,48.3436 C97.0655,44.0556 95.5655,39.9286 92.8565,36.6296 C91.1495,34.5536 89.0095,32.8506 86.5625,31.6746 C84.0645,30.4736 81.3835,29.8586 78.5795,29.8586 C68.3865,29.8586 60.0935,38.1516 60.0935,48.3446 C60.0935,58.5376 68.3865,66.8306 78.5795,66.8306 L78.5795,66.8306 Z M80.2475,89.4666 L89.2555,66.9086 C86.1105,68.7256 82.4645,69.7646 78.5795,69.7646 C76.2965,69.7646 74.0975,69.4046 72.0325,68.7396 L80.2475,89.4666 Z M51.9505,7.9346 L49.5545,7.9346 C48.2325,7.9346 47.1575,9.0096 47.1575,10.3306 L47.1575,23.3346 C47.1575,24.6556 48.2325,25.7316 49.5545,25.7316 L51.9505,25.7316 L51.9505,7.9346 Z M4.5365,78.7636 L10.2435,78.7636 L10.2435,75.6336 L5.9055,75.6336 C-1.4085,75.6336 -1.4085,64.2866 5.9055,64.2866 L27.4245,64.2866 C29.8325,64.2866 31.4415,65.5206 32.2655,67.1696 C37.0785,61.9006 56.5165,40.6096 59.1365,37.7436 C61.4095,35.2576 63.6405,32.6426 66.4215,30.7186 L54.8855,20.1796 L54.8855,27.1986 C54.8855,28.0096 54.2275,28.6656 53.4175,28.6656 L49.5545,28.6656 C46.6145,28.6656 44.2235,26.2746 44.2235,23.3346 L44.2235,10.3306 C44.2235,7.3916 46.6145,4.9996 49.5545,4.9996 L53.4175,4.9996 C54.2275,4.9996 54.8845,5.6566 54.8845,6.4676 L54.8845,16.2106 L69.0635,29.1566 C71.9325,27.7286 75.1635,26.9236 78.5795,26.9236 C82.0185,26.9236 85.3055,27.7146 88.3455,29.2756 C93.7245,32.0346 97.7785,37.0886 99.3065,42.9356 C99.7665,44.6986 100.0005,46.5216 100.0005,48.3436 C100.0005,54.1946 97.6415,59.5026 93.8275,63.3716 L82.3685,92.0656 L89.5345,92.0656 C91.4275,92.0656 91.4275,94.9996 89.5345,94.9996 L70.1675,94.9996 C68.2745,94.9996 68.2745,92.0656 70.1675,92.0656 L78.1215,92.0656 L68.2215,67.0876 C65.1305,65.3736 62.5065,62.9176 60.5905,59.9606 L35.6545,87.6676 C35.3765,87.9766 34.9795,88.1536 34.5635,88.1536 L18.0345,88.1536 L18.0345,92.0656 L26.5435,92.0656 C28.4355,92.0656 28.4355,94.9996 26.5435,94.9996 L6.0035,94.9996 C4.1105,94.9996 4.1105,92.0656 6.0035,92.0656 L15.0995,92.0656 L15.0995,88.1536 L4.5365,88.1536 C-1.5035,88.1536 -1.5215,78.7636 4.5365,78.7636 L4.5365,78.7636 Z M76.4635,55.6376 C80.0825,56.6416 84.2635,54.8766 85.7175,51.0396 C86.0425,50.1806 86.2085,49.2636 86.2085,48.3446 C86.2085,44.1376 82.7865,40.7146 78.5795,40.7146 C73.1615,40.7146 69.4545,46.4176 71.6055,51.3776 C71.9605,52.1946 72.4535,52.9516 73.0685,53.5976 C74.0455,54.6226 75.2215,55.2936 76.4635,55.6376 L76.4635,55.6376 Z M78.5795,37.7806 C84.4045,37.7806 89.1425,42.5196 89.1425,48.3446 C89.1425,53.2786 85.5725,57.6776 80.7405,58.6856 C77.6525,59.3296 74.4115,58.5526 71.9545,56.5546 C69.5205,54.5766 68.0155,51.4876 68.0155,48.3446 C68.0155,42.5196 72.7545,37.7806 78.5795,37.7806 L78.5795,37.7806 Z"
              id="icon_rowing-machine" fill="#3A4B60"></path>
    </g>
</svg>