<?xml version="1.0" encoding="UTF-8"?>
<svg width="100px" height="100px" viewBox="0 0 100 100" version="1.1" xmlns="http://www.w3.org/2000/svg" xmlns:xlink="http://www.w3.org/1999/xlink">
    <title>icon / furniture / rug_carpet_rolled</title>
    <g id="icon-/-furniture-/-rug_carpet_rolled" stroke="none" stroke-width="1" fill="none" fill-rule="evenodd">
        <path d="M87.08,30.845 C87.08,30.64 87.075,27.29 87.065,27.145 L94.965,27.145 C95.99,27.145 96.82,27.98 96.82,29 C96.82,29.9 96.185,30.645 95.34,30.82 C95.22,30.845 95.095,30.86 94.965,30.86 L87.08,30.86 L87.08,30.845 Z M94.965,40.585 C95.99,40.585 96.82,41.42 96.82,42.44 C96.82,43.34 96.185,44.085 95.34,44.265 C95.22,44.285 95.095,44.3 94.965,44.3 L87.08,44.3 L87.08,40.585 L94.965,40.585 Z M94.965,54.03 L94.965,54.03 C95.99,54.03 96.82,54.865 96.82,55.89 C96.82,56.91 95.99,57.745 94.965,57.745 L87.08,57.745 L87.08,54.03 L94.965,54.03 Z M94.965,67.475 C95.99,67.475 96.82,68.305 96.82,69.33 C96.82,70.355 95.99,71.185 94.965,71.185 L87.08,71.185 L87.08,67.475 L94.965,67.475 Z M94.965,80.92 C95.99,80.92 96.82,81.75 96.82,82.775 C96.82,83.8 95.99,84.63 94.965,84.63 L87.065,84.63 C87.075,84.485 87.08,80.92 87.08,80.92 L94.965,80.92 Z M79.085,88.99 L74.23,88.99 L74.23,22.785 L79.085,22.785 C81.745,22.785 83.9,24.94 83.9,27.6 L83.9,84.175 C83.9,86.83 81.745,88.99 79.085,88.99 L79.085,88.99 Z M67.075,88.99 L71.05,88.99 L71.05,22.785 L67.075,22.785 L67.075,88.99 Z M31.155,88.99 C31.24,88.94 31.32,88.895 31.4,88.85 C35.09,86.56 37.12,83.435 37.12,80.055 L37.12,22.785 L63.895,22.785 L63.895,88.99 L31.155,88.99 Z M3.18,80.055 L3.19,80.055 C3.19,75.205 10.23,71.115 18.57,71.115 C19.09,71.115 19.6,71.13 20.11,71.16 C27.755,71.63 33.945,75.51 33.945,80.055 C33.945,84.9 26.9,88.99 18.56,88.99 C10.225,88.99 3.18,84.9 3.18,80.055 L3.18,80.055 Z M3.18,19.935 C3.18,15.095 10.225,11 18.56,11 C26.9,11 33.945,15.095 33.945,19.935 L33.945,73.215 C33.215,72.51 32.37,71.855 31.405,71.26 C28.385,69.385 24.515,68.245 20.36,67.99 C19.765,67.955 19.165,67.935 18.56,67.935 L18.545,67.935 C15.865,67.94 13.18,68.3 10.615,69.08 C8.325,69.78 6.1,70.81 4.215,72.295 C3.855,72.58 3.51,72.875 3.18,73.195 L3.18,19.935 Z M94.965,34.04 C96.935,34.04 98.645,32.9 99.47,31.25 C99.48,31.225 99.49,31.205 99.505,31.18 L99.505,31.17 C99.825,30.515 100,29.78 100,29 C100,26.225 97.745,23.965 94.965,23.965 L86.2,23.965 C84.88,21.38 82.185,19.605 79.085,19.605 L37.11,19.605 C36.98,16.355 34.97,13.36 31.4,11.145 C27.945,9 23.385,7.825 18.56,7.825 C13.74,7.825 9.175,9 5.725,11.145 C2.035,13.435 0,16.56 0,19.935 L0,80.055 C0,83.435 2.035,86.56 5.725,88.85 C9.175,90.99 13.74,92.17 18.56,92.17 L79.085,92.17 C82.185,92.17 84.88,90.395 86.2,87.81 L94.965,87.81 C97.745,87.81 100,85.55 100,82.775 C100,79.995 97.745,77.74 94.965,77.74 L87.08,77.74 L87.08,74.365 L94.965,74.365 C97.745,74.365 100,72.105 100,69.33 C100,66.555 97.745,64.29 94.965,64.29 L87.08,64.29 L87.08,60.925 L94.965,60.925 C97.745,60.925 100,58.66 100,55.89 C100,53.11 97.745,50.85 94.965,50.85 L87.08,50.85 L87.08,47.48 L94.965,47.48 C97.745,47.48 100,45.22 100,42.445 L100,42.44 C100,39.67 97.745,37.405 94.965,37.405 L87.08,37.35 L87.08,34.04 L94.965,34.04 Z M18.915,37.87 C20.37,37.87 21.385,38.71 21.385,39.47 C21.385,40.225 20.37,41.065 18.915,41.065 C17.46,41.065 16.445,40.225 16.445,39.47 C16.445,38.71 17.46,37.87 18.915,37.87 L18.915,37.87 Z M18.915,44.245 C22.03,44.245 24.565,42.1 24.565,39.47 C24.565,36.835 22.03,34.695 18.915,34.695 C15.8,34.695 13.265,36.835 13.265,39.47 C13.265,42.1 15.8,44.245 18.915,44.245 L18.915,44.245 Z M18.56,82.345 C14.23,82.345 11.895,80.72 11.895,80.055 C11.895,79.385 14.23,77.765 18.56,77.765 C22.895,77.765 25.23,79.385 25.23,80.055 C25.23,80.72 22.895,82.345 18.56,82.345 L18.56,82.345 Z M18.56,74.585 C12.95,74.585 8.715,76.935 8.715,80.055 C8.715,83.17 12.95,85.525 18.56,85.525 C24.175,85.525 28.41,83.17 28.41,80.055 C28.41,76.935 24.175,74.585 18.56,74.585 L18.56,74.585 Z M18.375,50.975 L15.735,50.975 C14.86,50.975 14.15,51.69 14.15,52.565 C14.15,53.445 14.86,54.155 15.735,54.155 L18.375,54.155 C19.255,54.155 19.965,53.445 19.965,52.565 C19.965,51.69 19.255,50.975 18.375,50.975 L18.375,50.975 Z M15.735,27.96 L18.375,27.96 C19.255,27.96 19.965,27.245 19.965,26.365 C19.965,25.495 19.255,24.78 18.375,24.78 L15.735,24.78 C14.86,24.78 14.15,25.495 14.15,26.365 C14.15,27.245 14.86,27.96 15.735,27.96 L15.735,27.96 Z" id="icon_rug_carpet_rolled" fill="#3A4B60"></path>
    </g>
</svg>