<?xml version="1.0" encoding="UTF-8"?>
<svg width="100px" height="100px" viewBox="0 0 100 100" version="1.1" xmlns="http://www.w3.org/2000/svg">
    <title>icon / furniture / safe</title>
    <g id="icon-/-furniture-/-safe" stroke="none" stroke-width="1" fill="none" fill-rule="evenodd">
        <path d="M51.5625,46.875 C51.5625,47.737 50.8615,48.437 50.0005,48.437 C49.1385,48.437 48.4375,47.737 48.4375,46.875 C48.4375,46.013 49.1385,45.313 50.0005,45.313 C50.8615,45.313 51.5625,46.013 51.5625,46.875 L51.5625,46.875 Z M45.3125,46.875 C45.3125,49.46 47.4155,51.562 50.0005,51.562 C52.5845,51.562 54.6875,49.46 54.6875,46.875 C54.6875,44.29 52.5845,42.188 50.0005,42.188 C47.4155,42.188 45.3125,44.29 45.3125,46.875 L45.3125,46.875 Z M56.0415,39.537 C55.6095,40.285 54.6535,40.541 53.9065,40.109 C53.1595,39.678 52.9035,38.722 53.3335,37.975 C53.7655,37.228 54.7215,36.971 55.4685,37.403 C56.2155,37.834 56.4715,38.79 56.0415,39.537 L56.0415,39.537 Z M56.7655,42.969 C56.3335,42.222 56.5905,41.266 57.3375,40.834 C58.0845,40.403 59.0415,40.659 59.4725,41.406 C59.9035,42.153 59.6475,43.109 58.9005,43.541 C58.1535,43.972 57.1975,43.716 56.7655,42.969 L56.7655,42.969 Z M59.3745,45.313 C60.2385,45.313 60.9375,46.012 60.9375,46.875 C60.9375,47.738 60.2385,48.437 59.3745,48.437 C58.5115,48.437 57.8125,47.738 57.8125,46.875 C57.8125,46.012 58.5115,45.313 59.3745,45.313 L59.3745,45.313 Z M59.4725,52.344 C59.0415,53.091 58.0845,53.347 57.3375,52.916 C56.5905,52.484 56.3335,51.528 56.7655,50.781 C57.1975,50.034 58.1535,49.778 58.9005,50.209 C59.6475,50.641 59.9035,51.597 59.4725,52.344 L59.4725,52.344 Z M56.0415,54.213 C56.4715,54.96 56.2155,55.916 55.4685,56.347 C54.7215,56.779 53.7655,56.522 53.3335,55.775 C52.9035,55.028 53.1595,54.072 53.9065,53.641 C54.6535,53.209 55.6095,53.465 56.0415,54.213 L56.0415,54.213 Z M51.5625,56.25 C51.5625,57.113 50.8635,57.813 50.0005,57.813 C49.1365,57.813 48.4375,57.113 48.4375,56.25 C48.4375,55.387 49.1365,54.687 50.0005,54.687 C50.8635,54.687 51.5625,55.387 51.5625,56.25 L51.5625,56.25 Z M46.6665,55.775 C46.2345,56.522 45.2785,56.779 44.5315,56.347 C43.7845,55.916 43.5285,54.96 43.9585,54.213 C44.3905,53.465 45.3465,53.209 46.0935,53.641 C46.8405,54.072 47.0965,55.028 46.6665,55.775 L46.6665,55.775 Z M43.2345,50.781 C43.6665,51.528 43.4095,52.484 42.6625,52.916 C41.9155,53.347 40.9585,53.091 40.5275,52.344 C40.0965,51.597 40.3525,50.641 41.0995,50.209 C41.8465,49.778 42.8025,50.034 43.2345,50.781 L43.2345,50.781 Z M40.6245,48.437 C39.7615,48.437 39.0625,47.738 39.0625,46.875 C39.0625,46.012 39.7615,45.313 40.6245,45.313 C41.4885,45.313 42.1875,46.012 42.1875,46.875 C42.1875,47.738 41.4885,48.437 40.6245,48.437 L40.6245,48.437 Z M43.2345,42.969 C42.8025,43.716 41.8465,43.972 41.0995,43.541 C40.3525,43.109 40.0965,42.153 40.5275,41.406 C40.9585,40.659 41.9155,40.403 42.6625,40.834 C43.4095,41.266 43.6665,42.222 43.2345,42.969 L43.2345,42.969 Z M43.9585,39.537 C43.5285,38.79 43.7845,37.834 44.5315,37.403 C45.2785,36.971 46.2345,37.228 46.6665,37.975 C47.0965,38.722 46.8405,39.678 46.0935,40.109 C45.3465,40.541 44.3905,40.285 43.9585,39.537 L43.9585,39.537 Z M48.4375,37.5 C48.4375,36.637 49.1365,35.937 50.0005,35.937 C50.8635,35.937 51.5625,36.637 51.5625,37.5 C51.5625,38.363 50.8635,39.063 50.0005,39.063 C49.1365,39.063 48.4375,38.363 48.4375,37.5 L48.4375,37.5 Z M18.7505,60.938 L21.8755,60.938 L21.8755,32.813 L18.7505,32.813 L18.7505,60.938 Z M23.4375,29.688 L17.1875,29.688 C16.3245,29.688 15.6245,30.387 15.6245,31.25 L15.6245,62.5 C15.6245,63.363 16.3245,64.062 17.1875,64.062 L23.4375,64.062 C24.3005,64.062 25.0005,63.363 25.0005,62.5 L25.0005,31.25 C25.0005,30.387 24.3005,29.688 23.4375,29.688 L23.4375,29.688 Z M50.0005,60.938 C42.2465,60.938 35.9375,54.629 35.9375,46.875 C35.9375,39.121 42.2465,32.812 50.0005,32.812 C57.7535,32.812 64.0625,39.121 64.0625,46.875 C64.0625,54.629 57.7535,60.938 50.0005,60.938 L50.0005,60.938 Z M50.0005,29.688 C40.5225,29.688 32.8125,37.398 32.8125,46.875 C32.8125,56.352 40.5225,64.062 50.0005,64.062 C59.4775,64.062 67.1875,56.352 67.1875,46.875 C67.1875,37.398 59.4775,29.688 50.0005,29.688 L50.0005,29.688 Z M87.5005,34.375 L90.6255,34.375 L90.6255,28.125 L87.5005,28.125 L87.5005,34.375 Z M87.5005,65.625 L90.6255,65.625 L90.6255,59.375 L87.5005,59.375 L87.5005,65.625 Z M87.5005,76.25 L12.4995,76.25 L12.4995,17.5 L87.5005,17.5 L87.5005,25 L85.9375,25 C85.0745,25 84.3755,25.7 84.3755,26.563 L84.3755,35.937 C84.3755,36.8 85.0745,37.5 85.9375,37.5 L87.5005,37.5 L87.5005,56.25 L85.9375,56.25 C85.0745,56.25 84.3755,56.95 84.3755,57.813 L84.3755,67.187 C84.3755,68.05 85.0745,68.75 85.9375,68.75 L87.5005,68.75 L87.5005,76.25 Z M92.1875,25 L90.6255,25 L90.6255,15.938 C90.6255,15.075 89.9255,14.375 89.0625,14.375 L10.9375,14.375 C10.0745,14.375 9.3745,15.075 9.3745,15.938 L9.3745,77.812 C9.3745,78.675 10.0745,79.375 10.9375,79.375 L89.0625,79.375 C89.9255,79.375 90.6255,78.675 90.6255,77.812 L90.6255,68.75 L92.1875,68.75 C93.0505,68.75 93.7505,68.05 93.7505,67.187 L93.7505,57.813 C93.7505,56.95 93.0505,56.25 92.1875,56.25 L90.6255,56.25 L90.6255,37.5 L92.1875,37.5 C93.0505,37.5 93.7505,36.8 93.7505,35.937 L93.7505,26.563 C93.7505,25.7 93.0505,25 92.1875,25 L92.1875,25 Z M96.8755,80.938 C96.8755,83.522 94.7725,85.625 92.1875,85.625 L7.8125,85.625 C5.2275,85.625 3.1245,83.522 3.1245,80.938 L3.1245,12.812 C3.1245,10.228 5.2275,8.125 7.8125,8.125 L92.1875,8.125 C94.7725,8.125 96.8755,10.228 96.8755,12.812 L96.8755,80.938 Z M84.3755,91.875 L87.5005,91.875 L87.5005,88.75 L84.3755,88.75 L84.3755,91.875 Z M12.4995,91.875 L15.6245,91.875 L15.6245,88.75 L12.4995,88.75 L12.4995,91.875 Z M92.1875,5 L7.8125,5 C3.5045,5 -0.0005,8.504 -0.0005,12.812 L-0.0005,80.938 C-0.0005,85.246 3.5045,88.75 7.8125,88.75 L9.3745,88.75 L9.3745,93.438 C9.3745,94.3 10.0745,95 10.9375,95 L17.1875,95 C18.0505,95 18.7495,94.3 18.7495,93.438 L18.7495,88.75 L81.2495,88.75 L81.2495,93.438 C81.2495,94.3 81.9495,95 82.8125,95 L89.0625,95 C89.9255,95 90.6255,94.3 90.6255,93.438 L90.6255,88.75 L92.1875,88.75 C96.4955,88.75 100.0005,85.246 100.0005,80.938 L100.0005,12.812 C100.0005,8.504 96.4955,5 92.1875,5 L92.1875,5 Z"
              id="icon_safe" fill="#3A4B60"></path>
    </g>
</svg>