<?xml version="1.0" encoding="UTF-8"?>
<svg width="100px" height="100px" viewBox="0 0 100 100" version="1.1" xmlns="http://www.w3.org/2000/svg" xmlns:xlink="http://www.w3.org/1999/xlink">
    <title>icon / furniture / saw-horse</title>
    <g id="icon-/-furniture-/-saw-horse" stroke="none" stroke-width="1" fill="none" fill-rule="evenodd">
        <path d="M96.666,34.9996 C96.666,35.9196 95.92,36.6656 94.999,36.6666 L60,36.6666 L60,26.6666 L94.999,26.6666 C95.92,26.6676 96.666,27.4126 96.666,28.3336 L96.666,34.9996 Z M81.379,40.5586 L95.973,81.6666 L86.183,81.6666 L74.906,49.4496 C74.673,48.7806 74.042,48.3326 73.333,48.3326 C72.624,48.3326 71.992,48.7806 71.76,49.4496 L60.483,81.6666 L52.616,81.6666 C52.624,81.2886 52.567,80.9116 52.447,80.5526 L51.768,78.6356 L65.477,40.0006 L81.299,40.0006 C81.293,40.1886 81.32,40.3776 81.378,40.5586 L81.379,40.5586 Z M69.267,66.6676 L73.333,55.0456 L77.4,66.6676 L69.267,66.6676 Z M48.333,81.6666 L39.516,81.6666 L28.24,49.4486 C28.006,48.7806 27.375,48.3326 26.667,48.3326 C25.958,48.3326 25.327,48.7806 25.093,49.4486 L13.816,81.6666 L4.026,81.6666 L18.81,40.0006 L34.521,40.0006 L49.306,81.6666 L48.333,81.6666 Z M22.6,66.6676 L26.667,55.0456 L30.733,66.6676 L22.6,66.6676 Z M3.333,34.9996 L3.333,28.3336 C3.334,27.4126 4.08,26.6676 5,26.6666 L40,26.6666 L40,36.6666 L5,36.6666 C4.08,36.6656 3.334,35.9196 3.333,34.9996 L3.333,34.9996 Z M9.999,20.0006 C10,19.0806 10.746,18.3336 11.666,18.3336 L16.666,18.3336 C17.586,18.3336 18.332,19.0806 18.333,20.0006 L18.333,23.3336 L9.999,23.3336 L9.999,20.0006 Z M51.138,24.9996 L48.477,30.9896 C48.297,31.3936 48.285,31.8536 48.444,32.2656 C48.603,32.6776 48.919,33.0106 49.323,33.1896 C49.535,33.2856 49.766,33.3346 49.998,33.3346 C50.657,33.3346 51.256,32.9466 51.523,32.3446 L54.787,24.9996 L56.666,24.9996 L56.668,38.3256 L56.666,38.3326 L43.333,38.3326 L43.333,24.9996 L51.138,24.9996 Z M38.06,40.0006 L40.464,40.0006 C41.055,41.0276 42.147,41.6626 43.333,41.6676 L56.666,41.6676 C57.852,41.6626 58.945,41.0276 59.536,40.0006 L61.939,40.0006 L50,73.6506 L38.06,40.0006 Z M81.666,20.0006 C81.667,19.0806 82.413,18.3336 83.333,18.3336 L88.333,18.3336 C89.253,18.3336 89.999,19.0806 90,20.0006 L90,23.3336 L81.666,23.3336 L81.666,20.0006 Z M94.999,23.3336 L93.333,23.3336 L93.333,20.0006 C93.33,17.2396 91.094,15.0036 88.333,14.9996 L83.333,14.9996 C80.573,15.0036 78.336,17.2396 78.333,20.0006 L78.333,23.3336 L59.536,23.3336 C58.945,22.3066 57.852,21.6706 56.666,21.6666 L56.269,21.6666 L57.75,18.3336 L60,18.3336 C60.921,18.3336 61.667,17.5876 61.667,16.6666 C61.667,15.7456 60.921,14.9996 60,14.9996 L53.333,14.9996 C52.413,14.9996 51.667,15.7456 51.667,16.6666 C51.667,17.5876 52.413,18.3336 53.333,18.3336 L54.102,18.3336 L52.62,21.6666 L43.333,21.6666 C42.147,21.6706 41.055,22.3066 40.464,23.3336 L21.666,23.3336 L21.666,20.0006 C21.663,17.2396 19.427,15.0036 16.666,14.9996 L11.666,14.9996 C8.906,15.0036 6.669,17.2396 6.666,20.0006 L6.666,23.3336 L5,23.3336 C2.239,23.3366 0.003,25.5726 0,28.3336 L0,34.9996 C0.003,37.7606 2.239,39.9966 5,40.0006 L15.273,40.0006 L0.885,80.5516 C0.522,81.5716 0.68,82.7046 1.304,83.5896 C1.928,84.4736 2.943,84.9996 4.026,84.9996 L13.816,84.9996 C15.232,84.9996 16.493,84.1046 16.964,82.7696 L21.433,70.0006 L31.9,70.0006 L36.37,82.7706 C36.84,84.1046 38.101,84.9996 39.516,84.9996 L60.483,84.9996 C61.899,84.9996 63.16,84.1046 63.631,82.7696 L68.1,70.0006 L78.567,70.0006 L83.037,82.7706 C83.507,84.1046 84.768,84.9996 86.183,84.9996 L95.973,84.9996 C97.056,84.9996 98.071,84.4736 98.695,83.5896 C99.32,82.7046 99.477,81.5726 99.115,80.5526 L84.718,40.0006 L94.999,40.0006 C97.76,39.9966 99.997,37.7606 100,34.9996 L100,28.3336 C99.997,25.5726 97.76,23.3366 94.999,23.3336 L94.999,23.3336 Z" id="icon_work-bench" fill="#3A4B60"></path>
    </g>
</svg>