<?xml version="1.0" encoding="UTF-8"?>
<svg width="100px" height="100px" viewBox="0 0 100 100" version="1.1" xmlns="http://www.w3.org/2000/svg" xmlns:xlink="http://www.w3.org/1999/xlink">
    <title>icon / furniture / scanner</title>
    <g id="icon-/-furniture-/-scanner" stroke="none" stroke-width="1" fill="none" fill-rule="evenodd">
        <path d="M30.4342,36.375 L70.5172,36.375 L73.3242,49.585 L67.6652,46.107 C65.6092,44.845 63.0592,44.851 61.0092,46.124 L52.1142,51.649 L45.7772,46.814 C43.5362,45.104 40.4972,45.068 38.2162,46.725 L25.6052,55.882 L30.4342,36.375 Z M74.9332,57.911 L60.3222,57.911 L54.6112,53.555 L62.5592,48.618 C63.6572,47.936 65.0252,47.932 66.1282,48.609 L74.0792,53.495 L74.9332,57.911 Z M27.8082,57.911 L39.9412,49.101 C41.1652,48.212 42.7952,48.231 43.9972,49.148 L55.4812,57.911 L27.8082,57.911 Z M23.2902,60.848 L76.7122,60.848 C77.6202,60.848 78.3262,59.993 78.1532,59.101 L73.1702,34.628 C73.0372,33.937 72.4332,33.438 71.7282,33.438 L29.2672,33.438 C28.5852,33.438 27.9922,33.909 27.8382,34.575 L21.8572,59.048 C21.8232,59.197 21.8142,59.354 21.8272,59.507 C21.8922,60.256 22.5382,60.848 23.2902,60.848 L23.2902,60.848 Z M96.7482,70.658 L3.3212,70.658 L13.2002,29.973 L17.1242,29.973 L8.5922,65.45 C8.3812,66.356 9.0922,67.249 10.0212,67.249 L89.9782,67.249 C90.8872,67.249 91.5922,66.395 91.4202,65.503 L84.2992,29.973 L88.5172,29.973 L96.7482,70.658 Z M97.0642,75.16 C97.0642,77.589 95.0892,79.564 92.6602,79.564 L7.3402,79.564 C4.9112,79.564 2.9362,77.589 2.9362,75.16 L2.9362,73.595 L97.0642,73.595 L97.0642,75.16 Z M41.1012,27.036 C41.5762,26.322 42.3892,25.85 43.3092,25.85 L56.6342,25.85 C57.5552,25.85 58.3672,26.322 58.8442,27.036 L41.1012,27.036 Z M20.1382,29.973 L81.3092,29.973 L88.1992,64.313 L11.8692,64.313 L20.1382,29.973 Z M2.9362,27.036 L2.9362,24.84 C2.9362,22.411 4.9112,20.437 7.3402,20.437 L92.6602,20.437 C95.0892,20.437 97.0642,22.411 97.0642,24.84 L97.0642,27.036 L89.7402,27.036 L89.7342,27.036 L82.5382,27.036 L82.5362,27.036 L62.0272,27.036 C61.3812,24.664 59.2092,22.914 56.6342,22.914 L43.3092,22.914 C40.7352,22.914 38.5632,24.664 37.9162,27.036 L2.9362,27.036 Z M98.5322,29.973 C99.3432,29.973 100.0002,29.315 100.0002,28.505 L100.0002,24.84 C100.0002,20.793 96.7072,17.5 92.6602,17.5 L7.3402,17.5 C3.2922,17.5 0.0002,20.793 0.0002,24.84 L0.0002,28.505 C0.0002,29.315 0.6572,29.973 1.4682,29.973 L10.1842,29.973 L0.0392,71.79 C0.0132,71.899 0.0002,72.015 0.0002,72.127 L0.0002,75.16 C0.0002,79.208 3.2922,82.5 7.3402,82.5 L92.6602,82.5 C96.7072,82.5 100.0002,79.208 100.0002,75.16 L100.0002,72.127 C100.0002,72.027 99.9892,71.925 99.9692,71.827 L91.5082,29.973 L98.5322,29.973 Z M51.2222,40.906 C52.0912,40.906 52.7972,41.613 52.7972,42.482 C52.7972,43.352 52.0902,44.059 51.2222,44.059 C50.3522,44.059 49.6452,43.352 49.6452,42.482 C49.6452,41.613 50.3522,40.906 51.2222,40.906 L51.2222,40.906 Z M51.2222,46.994 C53.7092,46.994 55.7332,44.971 55.7332,42.482 C55.7332,39.994 53.7092,37.971 51.2222,37.971 C48.7332,37.971 46.7092,39.994 46.7092,42.482 C46.7092,44.971 48.7332,46.994 51.2222,46.994 L51.2222,46.994 Z" id="icon_scanner" fill="#3A4B60"></path>
    </g>
</svg>