<?xml version="1.0" encoding="UTF-8"?>
<svg width="100px" height="100px" viewBox="0 0 100 100" version="1.1" xmlns="http://www.w3.org/2000/svg" xmlns:xlink="http://www.w3.org/1999/xlink">
    <title>icon / furniture / scooter</title>
    <g id="icon-/-furniture-/-scooter" stroke="none" stroke-width="1" fill="none" fill-rule="evenodd">
        <path d="M86.7131,92.0706 C82.1061,92.0706 78.1921,89.0456 76.8531,84.8776 C74.7681,78.3906 79.9181,71.3566 86.7131,71.3566 C92.3561,71.3566 97.0701,76.0796 97.0701,81.7146 C97.0701,87.4246 92.4251,92.0706 86.7131,92.0706 L86.7131,92.0706 Z M73.6131,83.9336 L26.3861,83.9336 C26.3911,83.9066 26.5721,82.4296 26.5721,81.7146 C26.5721,74.3876 20.6121,68.4266 13.2851,68.4266 C11.7941,68.4266 10.3001,68.6786 8.8921,69.1746 L7.6761,67.9586 C6.7251,67.0076 7.1251,65.3066 8.4231,64.9306 C12.2301,63.8286 16.3881,64.0826 20.0371,65.6226 C23.5441,67.1026 26.5141,69.7586 28.4241,73.0476 C28.6751,73.4796 28.9081,73.9236 29.1211,74.3766 C29.5221,75.2266 29.8531,76.1106 30.1081,77.0166 C30.2851,77.6486 30.8621,78.0856 31.5191,78.0856 L68.4821,78.0856 C69.1381,78.0856 69.7141,77.6486 69.8921,77.0166 C70.8751,73.5196 72.9951,70.3356 75.8611,68.0496 C78.7541,65.7426 82.4161,64.3806 86.1151,64.2556 C87.9571,64.1936 89.8071,64.4196 91.5761,64.9306 C92.8811,65.3086 93.2711,67.0106 92.3241,67.9586 L91.1081,69.1746 C89.7011,68.6786 88.2051,68.4266 86.7131,68.4266 C79.3881,68.4266 73.4281,74.3876 73.4281,81.7356 C73.4291,82.4706 73.4911,83.2086 73.6131,83.9336 L73.6131,83.9336 Z M13.2851,92.0706 C7.5751,92.0706 2.9301,87.4246 2.9301,81.7136 C2.9301,76.3386 7.3961,71.6436 12.7531,71.3716 C18.4121,71.0826 23.5301,75.8386 23.6411,81.5076 C23.7521,87.2256 19.0011,92.0706 13.2851,92.0706 L13.2851,92.0706 Z M67.1171,18.8606 C66.4771,16.3586 64.2261,14.6106 61.6441,14.6106 L59.1961,14.6106 L59.1961,7.9296 L61.6441,7.9296 C67.2791,7.9296 72.1921,11.7426 73.5911,17.2036 L84.9261,61.3936 C84.8731,61.3986 84.2831,61.4606 84.0431,61.4926 C82.1041,61.7456 80.2291,62.2746 78.4571,63.0656 L67.1171,18.8606 Z M56.2671,14.6106 L45.9391,14.6106 C44.8041,14.6106 43.8821,13.6886 43.8821,12.5546 L43.8821,9.9856 C43.8821,8.8516 44.8041,7.9296 45.9391,7.9296 L56.2671,7.9296 L56.2671,14.6106 Z M93.8871,70.5386 L94.3961,70.0296 C95.5991,68.8266 96.0631,67.1236 95.6381,65.4706 C95.2181,63.8376 94.0041,62.5846 92.3911,62.1176 C90.9421,61.6976 89.4511,61.4446 87.9411,61.3546 L76.4291,16.4756 C74.6981,9.7196 68.6181,5.0006 61.6441,5.0006 L45.9391,5.0006 C43.1891,5.0006 40.9521,7.2366 40.9521,9.9856 L40.9521,12.5546 C40.9521,15.3026 43.1891,17.5406 45.9391,17.5406 L61.6441,17.5406 C62.8871,17.5406 63.9721,18.3826 64.2791,19.5866 L75.8011,64.4996 C75.1951,64.8856 74.6051,65.3036 74.0351,65.7586 C70.9861,68.1896 68.6611,71.4956 67.4041,75.1556 L32.5951,75.1556 C32.3871,74.5486 32.1411,73.9566 31.8761,73.3736 C30.6601,70.4086 28.6971,67.7386 26.1861,65.7126 C23.9741,63.9306 21.3641,62.6816 18.6161,62.0336 C17.1041,61.6216 15.5511,61.3806 13.9831,61.3276 C11.8151,61.2546 9.6701,61.5206 7.6091,62.1176 C4.2011,63.1026 3.1091,67.5366 5.6051,70.0296 L6.1131,70.5396 C2.4401,72.9056 0.0001,77.0276 0.0001,81.7136 C0.0001,89.0396 5.9601,95.0006 13.2851,95.0006 C18.7871,95.0006 23.5191,91.6386 25.5331,86.8626 L74.4661,86.8626 C76.4821,91.6376 81.2131,95.0006 86.7131,95.0006 C94.0401,95.0006 100.0001,89.0396 100.0001,81.7136 C100.0001,77.0276 97.5601,72.9056 93.8871,70.5386 L93.8871,70.5386 Z M86.7131,85.3426 C84.7131,85.3426 83.0851,83.7146 83.0851,81.7136 C83.0851,79.7126 84.7131,78.0856 86.7131,78.0856 C88.7141,78.0856 90.3431,79.7126 90.3431,81.7136 C90.3431,83.7146 88.7141,85.3426 86.7131,85.3426 L86.7131,85.3426 Z M86.7131,75.1556 C83.0971,75.1556 80.1551,78.0966 80.1551,81.7146 C80.1551,85.3306 83.0971,88.2726 86.7131,88.2726 C90.3291,88.2726 93.2731,85.3306 93.2731,81.7146 C93.2731,78.0966 90.3291,75.1556 86.7131,75.1556 L86.7131,75.1556 Z M13.2851,85.3426 C11.2851,85.3426 9.6571,83.7146 9.6571,81.7136 C9.6571,79.7126 11.2851,78.0856 13.2851,78.0856 C15.2871,78.0856 16.9151,79.7126 16.9151,81.7136 C16.9151,83.7146 15.2871,85.3426 13.2851,85.3426 L13.2851,85.3426 Z M13.2851,75.1556 C9.6691,75.1556 6.7281,78.0966 6.7281,81.7146 C6.7281,85.3306 9.6691,88.2726 13.2851,88.2726 C16.9021,88.2726 19.8451,85.3306 19.8451,81.7146 C19.8451,78.0966 16.9021,75.1556 13.2851,75.1556 L13.2851,75.1556 Z" id="icon_scooter" fill="#3A4B60"></path>
    </g>
</svg>