<?xml version="1.0" encoding="UTF-8"?>
<svg width="100px" height="100px" viewBox="0 0 100 100" version="1.1" xmlns="http://www.w3.org/2000/svg" xmlns:xlink="http://www.w3.org/1999/xlink">
    <title>icon / furniture / shelving</title>
    <g id="icon-/-furniture-/-shelving" stroke="none" stroke-width="1" fill="none" fill-rule="evenodd">
        <path d="M88.6794,32.2175 L88.6794,60.1365 L51.7364,60.1365 L51.7364,38.3295 C51.7364,37.3715 50.9574,36.5935 49.9994,36.5935 L22.5334,36.5935 C21.5754,36.5935 20.7964,37.3715 20.7964,38.3295 L20.7964,60.1365 L11.3204,60.1365 L11.3204,32.2175 L88.6794,32.2175 Z M51.7364,8.4725 L58.0734,8.4725 L58.0734,16.5455 C58.0734,17.1435 58.3894,17.7085 58.8964,18.0225 C59.4104,18.3405 60.0414,18.3695 60.5854,18.0995 L63.7334,16.5245 L66.8804,18.0995 C67.4074,18.3625 68.0684,18.3335 68.5704,18.0225 C69.0774,17.7085 69.3934,17.1425 69.3934,16.5455 L69.3934,8.4725 L75.7314,8.4725 L75.7314,28.7455 L51.7364,28.7455 L51.7364,8.4725 Z M61.5454,8.4725 L65.9204,8.4725 L65.9204,13.7375 L64.5094,13.0305 C64.0214,12.7865 63.4414,12.7875 62.9564,13.0305 L61.5454,13.7375 L61.5454,8.4725 Z M34.0774,45.3305 L34.0774,40.0665 L38.4524,40.0665 L38.4524,45.3305 L37.0414,44.6245 C36.5544,44.3825 35.9754,44.3825 35.4894,44.6245 L34.0774,45.3305 Z M31.4284,49.6155 C31.9424,49.9335 32.5744,49.9625 33.1174,49.6925 L36.2654,48.1175 L39.4124,49.6925 C39.9394,49.9545 40.5994,49.9265 41.1014,49.6155 C41.6104,49.3015 41.9254,48.7355 41.9254,48.1395 L41.9254,40.0665 L48.2634,40.0665 L48.2634,60.1365 L24.2694,60.1365 L24.2694,40.0665 L30.6054,40.0665 L30.6054,48.1395 C30.6054,48.7365 30.9204,49.3015 31.4284,49.6155 L31.4284,49.6155 Z M88.6794,91.5275 L79.2034,91.5275 L79.2034,69.7205 C79.2034,68.7635 78.4244,67.9845 77.4674,67.9845 L49.9994,67.9845 C49.0424,67.9845 48.2634,68.7635 48.2634,69.7205 L48.2634,91.5275 L11.3204,91.5275 L11.3204,63.6095 L88.6794,63.6095 L88.6794,91.5275 Z M61.5454,76.7215 L61.5454,71.4565 L65.9204,71.4565 L65.9204,76.7215 L64.5094,76.0155 C64.0214,75.7715 63.4414,75.7725 62.9564,76.0155 L61.5454,76.7215 Z M75.7314,91.5275 L51.7364,91.5275 L51.7364,71.4565 L58.0734,71.4565 L58.0734,79.5305 C58.0734,80.1275 58.3894,80.6925 58.8964,81.0065 C59.4104,81.3235 60.0414,81.3545 60.5854,81.0825 L63.7334,79.5085 L66.8804,81.0825 C67.4074,81.3465 68.0684,81.3175 68.5704,81.0065 C69.0774,80.6925 69.3934,80.1265 69.3934,79.5305 L69.3934,71.4565 L75.7314,71.4565 L75.7314,91.5275 Z M92.1524,10.6595 C92.1524,9.4535 93.1334,8.4725 94.3394,8.4725 C95.5464,8.4725 96.5274,9.4535 96.5274,10.6595 L96.5274,91.5275 L92.1524,91.5275 L92.1524,10.6595 Z M7.8474,91.5275 L3.4724,91.5275 L3.4724,10.6595 C3.4724,9.4535 4.4534,8.4725 5.6594,8.4725 C6.8664,8.4725 7.8474,9.4535 7.8474,10.6595 L7.8474,91.5275 Z M5.6594,4.9995 C2.5394,4.9995 -0.0006,7.5395 -0.0006,10.6595 L-0.0006,93.2635 C-0.0006,94.2215 0.7794,94.9995 1.7364,94.9995 L98.2634,94.9995 C99.2214,94.9995 99.9994,94.2215 99.9994,93.2635 L99.9994,10.6595 C99.9994,7.5395 97.4604,4.9995 94.3394,4.9995 C91.2194,4.9995 88.6794,7.5395 88.6794,10.6595 L88.6794,28.7455 L79.2034,28.7455 L79.2034,6.7365 C79.2034,5.7795 78.4244,4.9995 77.4674,4.9995 L49.9994,4.9995 C49.0424,4.9995 48.2634,5.7795 48.2634,6.7365 L48.2634,28.7455 L11.3204,28.7455 L11.3204,10.6595 C11.3204,7.5395 8.7814,4.9995 5.6594,4.9995 L5.6594,4.9995 Z" id="icon_shelving" fill="#3A4B60"></path>
    </g>
</svg>