<?xml version="1.0" encoding="UTF-8"?>
<svg width="100px" height="100px" viewBox="0 0 100 100" version="1.1" xmlns="http://www.w3.org/2000/svg">
    <title>icon / furniture / shoe-rack</title>
    <g id="icon-/-furniture-/-shoe-rack" stroke="none" stroke-width="1" fill="none" fill-rule="evenodd">
        <path d="M92.8181,5.0002 C96.7761,5.0002 100.0001,8.2372 100.0001,12.2182 L100.0001,90.0002 C100.0001,92.7612 97.7611,95.0002 95.0001,95.0002 L5.0001,95.0002 C2.2391,95.0002 0.0001,92.7612 0.0001,90.0002 L0.0001,12.2182 C0.0001,8.2372 3.2201,5.0002 7.1791,5.0002 C11.1381,5.0002 14.3621,8.2372 14.3621,12.2182 L14.3601,23.6582 L23.0901,23.6582 L23.0921,17.9062 C23.0921,14.4322 25.9051,11.6072 29.3571,11.6072 C32.8131,11.6072 35.6201,14.4322 35.6201,17.9062 L35.6181,23.6582 L38.4151,23.6582 L38.4171,17.9062 C38.4171,14.4322 41.2261,11.6072 44.6791,11.6072 C48.1341,11.6072 50.9411,14.4322 50.9411,17.9062 L50.9401,23.6582 L85.6391,23.6582 L85.6411,12.2182 C85.6411,8.2372 88.8591,5.0002 92.8181,5.0002 L92.8181,5.0002 Z M85.6391,72.5942 L14.3621,72.5952 L14.3621,92.1892 L85.6391,92.1882 L85.6391,72.5942 Z M92.8181,7.8112 C90.4021,7.8112 88.4371,9.7862 88.4371,12.2182 L88.4371,92.1892 L95.2041,92.1892 C96.3091,92.1892 97.2041,91.2942 97.2041,90.1892 L97.2041,12.2182 C97.2041,9.7862 95.2391,7.8112 92.8181,7.8112 L92.8181,7.8112 Z M7.1791,7.8112 C4.7611,7.8112 2.7961,9.7862 2.7961,12.2182 L2.7961,90.1892 C2.7961,91.2942 3.6911,92.1892 4.7961,92.1892 L11.5661,92.1892 L11.5661,12.2182 C11.5661,9.7862 9.6001,7.8112 7.1791,7.8112 L7.1791,7.8112 Z M61.3991,80.9202 L61.3991,80.9202 C61.3991,81.6962 60.7701,82.3252 59.9941,82.3252 L40.0091,82.3252 C39.2331,82.3252 38.6041,81.6962 38.6041,80.9202 C38.6041,80.1442 39.2331,79.5152 40.0091,79.5152 L59.9941,79.5152 C60.7701,79.5152 61.3991,80.1442 61.3991,80.9202 L61.3991,80.9202 Z M85.6391,54.1732 L14.3601,54.1732 L14.3601,69.7842 L31.0571,69.7842 L31.0571,67.3702 L28.1391,67.3722 L28.1391,65.9672 C28.1391,59.6622 29.5931,56.4672 32.4561,56.4672 C34.4241,56.4672 36.7731,58.1132 36.7731,65.9672 L36.7731,67.3722 L33.8511,67.3702 L33.8511,69.7842 L41.7811,69.7842 L41.7811,67.3702 L38.8611,67.3722 L38.8611,65.9672 C38.8611,59.6622 40.3151,56.4672 43.1801,56.4672 C45.1491,56.4672 47.4971,58.1132 47.4971,65.9672 L47.4971,67.3722 L44.5781,67.3702 L44.5781,69.7842 L53.6351,69.7842 L53.6371,63.7722 C53.6371,60.2032 56.5261,57.3002 60.0761,57.3002 C63.6271,57.3002 66.5151,60.2032 66.5151,63.7722 L66.5141,69.7842 L69.3111,69.7842 L69.3121,63.7722 C69.3121,60.2032 72.2001,57.3002 75.7511,57.3002 C79.2981,57.3002 82.1861,60.2032 82.1861,63.7722 L82.1851,69.7842 L85.6391,69.7842 L85.6391,54.1732 Z M74.9881,60.1882 C73.2821,60.5392 72.1071,62.1262 72.1071,63.8682 L72.1071,69.7842 L79.3901,69.7842 L79.3901,63.7722 C79.3901,61.5042 77.3271,59.7082 74.9881,60.1882 L74.9881,60.1882 Z M59.3121,60.1892 C57.6071,60.5412 56.4331,62.1282 56.4331,63.8692 L56.4331,69.7842 L63.7191,69.7842 L63.7191,63.7722 C63.7191,61.5032 61.6511,59.7072 59.3121,60.1892 L59.3121,60.1892 Z M43.1801,59.2772 C42.7331,59.2772 41.8581,60.6042 41.6881,64.5622 L44.6711,64.5622 C44.5011,60.6412 43.6081,59.2772 43.1801,59.2772 L43.1801,59.2772 Z M32.4561,59.2772 C32.0081,59.2772 31.1361,60.6042 30.9661,64.5622 L33.9461,64.5622 C33.7761,60.6412 32.8861,59.2772 32.4561,59.2772 L32.4561,59.2772 Z M85.6391,48.5522 L14.3621,48.5532 L14.3621,51.3632 L85.6391,51.3632 L85.6391,48.5522 Z M85.6391,32.0912 L14.3601,32.0912 L14.3601,45.7422 L16.6971,45.7422 L16.6981,40.0632 C16.6981,37.1862 19.0271,34.8452 21.8871,34.8452 L22.7011,34.8452 C25.5661,34.8452 27.8951,37.1862 27.8951,40.0632 L27.8941,45.7422 L31.2861,45.7422 L31.2881,40.0632 C31.2881,37.1862 33.6171,34.8452 36.4801,34.8452 L37.2941,34.8452 C40.1591,34.8452 42.4881,37.1862 42.4881,40.0632 L42.4881,45.7422 L59.7861,45.7422 L59.7861,41.0702 C59.7861,38.0212 62.4031,35.5742 65.4961,35.8792 C68.1971,36.1462 70.1711,38.5792 70.1701,41.2922 L70.1681,45.7422 L72.9641,45.7422 L72.9641,41.0702 C72.9641,38.0222 75.5821,35.5742 78.6741,35.8792 C81.3751,36.1462 83.3481,38.5772 83.3481,41.2902 L83.3481,45.7422 L85.6391,45.7422 L85.6391,32.0912 Z M64.7281,38.6772 C63.4811,38.8032 62.5821,39.9472 62.5821,41.2002 L62.5821,45.2462 L67.3741,45.2462 L67.3741,41.0702 C67.3741,39.6612 66.1611,38.5322 64.7281,38.6772 L64.7281,38.6772 Z M77.9071,38.6772 C76.6601,38.8032 75.7601,39.9472 75.7601,41.2002 L75.7601,45.2462 L80.5521,45.2462 L80.5521,41.0702 C80.5521,39.6612 79.3391,38.5322 77.9071,38.6772 L77.9071,38.6772 Z M22.6901,37.6552 L21.8871,37.6552 C20.5651,37.6552 19.4941,38.7272 19.4941,40.0482 L19.4941,45.2462 L25.0991,45.2462 L25.0991,40.0632 C25.0991,38.7392 24.0151,37.6552 22.6901,37.6552 L22.6901,37.6552 Z M37.2841,37.6552 L36.4801,37.6552 C35.1571,37.6552 34.0841,38.7282 34.0841,40.0512 L34.0841,45.2462 L39.6921,45.2462 L39.6921,40.0632 C39.6921,38.7392 38.6081,37.6552 37.2841,37.6552 L37.2841,37.6552 Z M85.6391,26.4702 L14.3621,26.4702 L14.3621,29.2802 L85.6391,29.2792 L85.6391,26.4702 Z M29.3571,14.4182 C27.4451,14.4182 25.8881,15.9832 25.8881,17.9062 L25.8881,23.6592 L32.8241,23.6592 L32.8241,17.9062 C32.8241,15.9832 31.2691,14.4182 29.3571,14.4182 L29.3571,14.4182 Z M44.6791,14.4182 C42.7691,14.4182 41.2131,15.9832 41.2131,17.9062 L41.2131,23.6592 L48.1461,23.6592 L48.1461,17.9062 C48.1461,15.9832 46.5911,14.4182 44.6791,14.4182 L44.6791,14.4182 Z"
              id="Fill-1" fill="#3A4B60"></path>
    </g>
</svg>