<?xml version="1.0" encoding="UTF-8"?>
<svg width="100px" height="100px" viewBox="0 0 100 100" version="1.1" xmlns="http://www.w3.org/2000/svg" xmlns:xlink="http://www.w3.org/1999/xlink">
    <title>icon / furniture / shop-vac</title>
    <g id="icon-/-furniture-/-shop-vac" stroke="none" stroke-width="1" fill="none" fill-rule="evenodd">
        <path d="M29.1113,61.7367 C29.8743,61.7367 30.4943,62.3567 30.4943,63.1187 C30.4943,63.8817 29.8743,64.5017 29.1113,64.5017 C28.3493,64.5017 27.7283,63.8817 27.7283,63.1187 C27.7283,62.3567 28.3483,61.7367 29.1113,61.7367 M48.3299,0.0007 C60.1929,0.0007 69.8459,9.6517 69.8459,21.5147 L69.8459,21.5147 L69.8459,31.2477 L70.7329,31.2477 C76.3149,31.2477 80.8999,35.5837 81.3049,41.0637 C89.5379,44.2787 94.9999,52.2037 94.9999,61.1047 C94.9999,69.9967 89.5519,77.9117 81.3369,81.1327 L81.3369,81.1327 L81.3369,87.2947 C84.2749,88.2067 86.4149,90.9497 86.4149,94.1827 L86.4149,94.1827 L86.4149,98.5147 C86.4149,99.3357 85.7499,100.0007 84.9299,100.0007 L84.9299,100.0007 L45.8819,100.0007 C45.0629,100.0007 44.3979,99.3357 44.3979,98.5147 L44.3979,98.5147 L44.3979,94.1827 C44.3979,94.1287 44.3999,94.0747 44.4009,94.0197 L44.4009,94.0197 L25.0399,94.0197 L25.0399,95.5247 C25.0399,97.9927 23.0319,100.0007 20.5649,100.0007 C18.0969,100.0007 16.0889,97.9927 16.0889,95.5247 L16.0889,95.5247 L16.0889,94.0197 L12.8209,94.0197 C12.0019,94.0197 11.3369,93.3547 11.3369,92.5347 L11.3369,92.5347 L11.3369,81.5627 L6.1889,80.5127 C5.4969,80.3717 4.9999,79.7627 4.9999,79.0577 L4.9999,79.0577 L4.9999,67.1877 C4.9999,66.4817 5.4969,65.8737 6.1889,65.7317 L6.1889,65.7317 L11.3369,64.6817 L11.3369,41.8507 C11.3369,36.0047 15.0939,31.2477 20.9409,31.2477 L20.9409,31.2477 L26.8149,31.2477 L26.8149,21.5157 C26.8149,9.6517 36.4669,0.0007 48.3299,0.0007 Z M78.2039,89.9427 L50.6079,89.9427 C49.2699,89.9427 47.3669,91.8447 47.3669,94.1827 L47.3669,94.1827 L47.3669,97.0297 L83.4439,97.0297 L83.4439,94.1827 C83.4439,91.8447 81.5419,89.9427 78.2039,89.9427 L78.2039,89.9427 Z M22.0689,94.0197 L19.0599,94.0197 L19.0599,95.5247 C19.0599,96.3547 19.7339,97.0297 20.5649,97.0297 C21.3949,97.0297 22.0689,96.3547 22.0689,95.5247 L22.0689,95.5247 L22.0689,94.0197 Z M20.4359,51.4847 L14.3069,51.4847 L14.3069,91.0497 L45.1139,91.0497 C46.2829,88.6387 48.7539,86.9717 51.6079,86.9717 L51.6079,86.9717 L59.4259,86.9717 L59.4259,51.4847 L37.7869,51.4847 L37.7869,63.4567 C37.7869,68.2407 33.8959,72.1327 29.1109,72.1327 C24.3269,72.1327 20.4359,68.2407 20.4359,63.4567 L20.4359,63.4567 L20.4359,51.4847 Z M66.8749,27.4917 L62.3959,27.4917 L62.3959,86.9717 L66.8749,86.9717 L66.8749,27.4917 Z M78.3659,51.4847 L69.8449,51.4847 L69.8449,86.9717 L78.3659,86.9717 L78.3659,51.4847 Z M11.3359,67.7147 L7.9699,68.4007 L7.9699,77.8447 L11.3359,78.5317 L11.3359,67.7147 Z M81.3369,44.3057 L81.3369,49.4427 C85.1909,52.0457 87.5529,56.4367 87.5529,61.1047 C87.5529,65.7717 85.1909,70.1637 81.3369,72.7687 L81.3369,72.7687 L81.3369,77.9037 C87.8099,74.8807 92.0289,68.3707 92.0289,61.1047 C92.0289,53.8417 87.8089,47.3317 81.3369,44.3057 L81.3369,44.3057 Z M34.8169,51.4857 L23.4059,51.4857 L23.4059,63.4567 C23.4059,66.6027 25.9659,69.1627 29.1109,69.1627 C32.2579,69.1627 34.8169,66.6027 34.8169,63.4567 L34.8169,63.4567 L34.8169,51.4857 Z M81.3369,53.2797 L81.3369,68.9307 C83.3819,66.8717 84.5819,64.0577 84.5819,61.1047 C84.5819,58.1517 83.3819,55.3387 81.3369,53.2797 L81.3369,53.2797 Z M29.1113,58.7657 C31.5113,58.7657 33.4643,60.7187 33.4643,63.1187 C33.4643,65.5187 31.5113,67.4717 29.1113,67.4717 C26.7113,67.4717 24.7583,65.5187 24.7583,63.1187 C24.7583,60.7187 26.7113,58.7657 29.1113,58.7657 Z M59.4259,34.2177 L20.9409,34.2177 C16.7319,34.2177 14.3069,37.6417 14.3069,41.8507 L14.3069,41.8507 L14.3069,48.5147 L59.4259,48.5147 L59.4259,44.4097 L26.2349,44.4097 C25.4149,44.4097 24.7499,43.7447 24.7499,42.9247 C24.7499,39.3767 27.6379,36.4887 31.1859,36.4887 C31.1859,36.4887 59.3369,36.4917 59.4259,36.4947 L59.4259,36.4947 L59.4259,34.2177 Z M70.7329,34.2167 L69.8459,34.2167 L69.8459,48.5147 L78.3659,48.5147 L78.3659,41.8507 C78.3659,37.6417 74.9409,34.2177 70.7329,34.2177 L70.7329,34.2177 L70.7329,34.2167 Z M35.2639,39.4597 L31.1859,39.4597 C29.8069,39.4597 28.6119,40.2697 28.0549,41.4397 L28.0549,41.4397 L35.2639,41.4397 L35.2639,39.4597 Z M59.1599,39.4597 L38.2339,39.4597 L38.2339,41.4397 L59.4259,41.4397 L59.4259,39.4707 C59.3369,39.4647 59.2489,39.4597 59.1599,39.4597 L59.1599,39.4597 Z M48.3299,2.9697 C38.1039,2.9697 29.7839,11.2897 29.7839,21.5157 L29.7839,21.5157 L29.7839,31.2477 L34.2639,31.2477 L34.2639,21.5157 C34.2639,13.7587 40.5739,7.4477 48.3299,7.4477 C56.0859,7.4477 62.3959,13.7587 62.3959,21.5157 L62.3959,21.5157 L62.3959,24.5207 L66.8749,24.5207 L66.8749,21.5157 C66.8749,11.2897 58.5559,2.9697 48.3299,2.9697 Z M48.3299,10.4187 C42.2119,10.4187 37.2339,15.3967 37.2339,21.5157 L37.2339,21.5157 L37.2339,31.2477 L59.4259,31.2477 L59.4259,21.5157 C59.4259,15.3957 54.4479,10.4187 48.3299,10.4187 Z" id="icon_shop-vac" fill="#3A4B60"></path>
    </g>
</svg>