<?xml version="1.0" encoding="UTF-8"?>
<svg width="100px" height="100px" viewBox="0 0 100 100" version="1.1" xmlns="http://www.w3.org/2000/svg">
    <title>icon / furniture / skis_water-snow</title>
    <g id="icon-/-furniture-/-skis_water-snow" stroke="none" stroke-width="1" fill="none" fill-rule="evenodd">
        <path d="M4.832,80.3816 C2.326,77.8756 2.326,73.7986 4.832,71.2926 L7.13,68.9946 L18.945,75.3566 L13.92,80.3816 C11.414,82.8876 7.337,82.8876 4.832,80.3816 L4.832,80.3816 Z M11.315,64.8096 L23.13,71.1716 L21.107,73.1946 L9.293,66.8316 L11.315,64.8096 Z M29.103,47.0216 C29.357,47.8186 29.798,48.5706 30.43,49.2026 L36.01,54.7826 C36.631,55.4026 37.376,55.8536 38.189,56.1116 L25.293,69.0086 L13.478,62.6476 L29.103,47.0216 Z M32.502,43.6236 L43.665,32.4596 C44.133,31.9926 44.755,31.7356 45.416,31.7356 C46.079,31.7356 46.702,31.9936 47.17,32.4626 L52.75,38.0426 C53.718,39.0096 53.718,40.5836 52.751,41.5516 L41.592,52.7096 C41.592,52.7106 41.591,52.7106 41.591,52.7106 C41.122,53.1796 40.499,53.4386 39.836,53.4386 C39.174,53.4386 38.551,53.1796 38.082,52.7116 L32.502,47.1316 C31.535,46.1636 31.535,44.5906 32.502,43.6236 L32.502,43.6236 Z M59.94,16.1846 L71.755,22.5466 L56.148,38.1526 C55.895,37.3546 55.454,36.6036 54.822,35.9716 L49.242,30.3916 C48.621,29.7706 47.876,29.3196 47.063,29.0616 L59.94,16.1846 Z M64.125,11.9996 L75.939,18.3616 L73.918,20.3836 L62.103,14.0226 L64.125,11.9996 Z M71.312,4.8126 C73.818,2.3066 77.895,2.3066 80.4,4.8126 C82.906,7.3176 82.906,11.3956 80.4,13.9006 L78.103,16.1986 L66.287,9.8366 L71.312,4.8126 Z M82.473,15.9726 C86.12,12.3236 86.12,6.3886 82.473,2.7406 C78.824,-0.9074 72.889,-0.9074 69.241,2.7406 L2.76,69.2216 C-0.888,72.8696 -0.888,78.8056 2.76,82.4526 C4.584,84.2776 6.979,85.1896 9.376,85.1896 C11.771,85.1896 14.168,84.2776 15.992,82.4526 L82.473,15.9726 Z M69.609,50.7586 L64.029,45.1786 C63.408,44.5576 62.663,44.1086 61.851,43.8486 L77.453,28.2456 L83.815,40.0606 L70.938,52.9376 C70.68,52.1236 70.229,51.3786 69.609,50.7586 L69.609,50.7586 Z M67.538,56.3366 L56.377,67.4986 C55.41,68.4656 53.836,68.4656 52.869,67.4976 L47.289,61.9186 C46.82,61.4496 46.562,60.8266 46.562,60.1636 C46.562,59.5026 46.819,58.8816 47.286,58.4126 L58.45,47.2486 C58.918,46.7806 59.541,46.5236 60.203,46.5236 C60.865,46.5236 61.488,46.7806 61.957,47.2496 L67.537,52.8296 C68.006,53.2986 68.264,53.9216 68.264,54.5836 C68.264,55.2456 68.006,55.8686 67.538,56.3366 L67.538,56.3366 Z M37.353,86.5226 L30.991,74.7076 L43.888,61.8116 C44.146,62.6236 44.597,63.3686 45.217,63.9896 L50.797,69.5696 C51.43,70.2016 52.181,70.6436 52.978,70.8966 L37.353,86.5226 Z M33.168,90.7076 L26.807,78.8926 L28.829,76.8696 L35.19,88.6856 L33.168,90.7076 Z M28.707,95.1686 C27.493,96.3826 25.88,97.0506 24.163,97.0506 C22.446,97.0506 20.832,96.3826 19.618,95.1686 C18.404,93.9546 17.736,92.3406 17.736,90.6236 C17.736,88.9066 18.404,87.2936 19.619,86.0796 L24.644,81.0556 L31.006,92.8696 L28.707,95.1686 Z M81.639,24.0606 L88,35.8756 L85.978,37.8976 L79.616,26.0826 L81.639,24.0606 Z M86.1,19.5996 C87.313,18.3856 88.927,17.7166 90.644,17.7166 C92.36,17.7166 93.975,18.3856 95.187,19.5996 C96.402,20.8136 97.07,22.4266 97.07,24.1436 C97.07,25.8606 96.402,27.4736 95.187,28.6876 L90.163,33.7126 L83.801,21.8976 L86.1,19.5996 Z M97.26,30.7596 C99.027,28.9916 100,26.6426 100,24.1436 C100,21.6446 99.027,19.2946 97.26,17.5276 C95.492,15.7606 93.143,14.7866 90.644,14.7866 C88.145,14.7866 85.795,15.7606 84.028,17.5276 L17.547,84.0086 C15.78,85.7756 14.807,88.1246 14.807,90.6236 C14.807,93.1236 15.78,95.4736 17.547,97.2396 C19.314,99.0076 21.664,99.9806 24.163,99.9806 C26.662,99.9806 29.012,99.0076 30.778,97.2396 L97.26,30.7596 Z M45.416,37.9626 L47.25,39.7966 L39.836,47.2116 L38.002,45.3766 L45.416,37.9626 Z M38.8,50.3196 C39.075,50.5936 39.447,50.7476 39.836,50.7476 C40.225,50.7476 40.597,50.5936 40.872,50.3196 L50.357,40.8326 C50.93,40.2606 50.93,39.3326 50.357,38.7616 L46.452,34.8556 C46.178,34.5806 45.805,34.4266 45.416,34.4266 C45.027,34.4266 44.655,34.5806 44.38,34.8556 L34.894,44.3406 C34.322,44.9126 34.322,45.8406 34.894,46.4126 L38.8,50.3196 Z M54.623,61.9986 L52.789,60.1636 L60.203,52.7496 L62.037,54.5836 L54.623,61.9986 Z M61.239,49.6426 C60.667,49.0696 59.739,49.0696 59.167,49.6426 L49.682,59.1276 C49.109,59.6996 49.109,60.6276 49.682,61.1996 L53.587,65.1066 C53.873,65.3916 54.248,65.5346 54.623,65.5346 C54.998,65.5346 55.373,65.3916 55.659,65.1066 L65.145,55.6196 C65.717,55.0476 65.717,54.1196 65.145,53.5486 L61.239,49.6426 Z M86.643,57.8056 L84.529,55.6926 L94.351,45.8706 L96.464,47.9846 L86.643,57.8056 Z M99.571,46.9486 L95.386,42.7636 C95.111,42.4886 94.738,42.3346 94.35,42.3346 C93.961,42.3346 93.589,42.4886 93.314,42.7636 L81.422,54.6556 C80.85,55.2286 80.85,56.1556 81.422,56.7276 L82.478,57.7836 L49.47,90.7936 L48.413,89.7366 C47.841,89.1646 46.913,89.1646 46.341,89.7366 C45.77,90.3096 45.77,91.2356 46.341,91.8086 L47.398,92.8646 L42.764,97.4996 C42.191,98.0706 42.191,98.9986 42.764,99.5706 C43.05,99.8576 43.425,99.9996 43.8,99.9996 C44.174,99.9996 44.549,99.8576 44.836,99.5706 L49.47,94.9366 L50.526,95.9926 C50.812,96.2786 51.187,96.4226 51.562,96.4226 C51.937,96.4226 52.312,96.2786 52.599,95.9926 C53.17,95.4206 53.17,94.4936 52.599,93.9216 L51.542,92.8646 L84.551,59.8566 L85.607,60.9126 C85.882,61.1876 86.255,61.3416 86.644,61.3416 C87.032,61.3416 87.404,61.1876 87.68,60.9126 L99.571,49.0206 C100.143,48.4476 100.143,47.5206 99.571,46.9486 L99.571,46.9486 Z M52.016,3.5366 L54.129,5.6506 L44.309,15.4706 L42.195,13.3576 L52.016,3.5366 Z M1.465,57.6656 C1.84,57.6656 2.215,57.5226 2.501,57.2356 L7.135,52.6026 L8.191,53.6586 C8.478,53.9446 8.853,54.0876 9.228,54.0876 C9.603,54.0876 9.978,53.9446 10.264,53.6586 C10.836,53.0866 10.836,52.1586 10.264,51.5876 L9.207,50.5296 L42.216,17.5216 L43.272,18.5776 C43.559,18.8636 43.934,19.0066 44.309,19.0066 C44.684,19.0066 45.059,18.8636 45.345,18.5776 L57.236,6.6866 C57.809,6.1136 57.809,5.1866 57.236,4.6136 L53.052,0.4296 C52.776,0.1536 52.404,-0.0004 52.016,-0.0004 C51.627,-0.0004 51.255,0.1536 50.979,0.4296 L39.088,12.3206 C38.812,12.5966 38.658,12.9686 38.658,13.3576 C38.658,13.7456 38.812,14.1176 39.088,14.3936 L40.145,15.4496 L7.135,48.4586 L6.078,47.4026 C5.506,46.8296 4.579,46.8296 4.007,47.4026 C3.435,47.9746 3.435,48.9026 4.007,49.4736 L5.063,50.5296 L0.429,55.1646 C-0.143,55.7366 -0.143,56.6646 0.429,57.2356 C0.715,57.5226 1.09,57.6656 1.465,57.6656 L1.465,57.6656 Z"
              id="icon_skis_water-snow" fill="#3A4B60"></path>
    </g>
</svg>