<?xml version="1.0" encoding="UTF-8"?>
<svg width="100px" height="100px" viewBox="0 0 100 100" version="1.1" xmlns="http://www.w3.org/2000/svg" xmlns:xlink="http://www.w3.org/1999/xlink">
    <!-- Generator: Sketch 63.1 (92452) - https://sketch.com -->
    <title>icon / furniture / sleep-number-bed</title>
    <desc>Created with Sketch.</desc>
    <g id="icon-/-furniture-/-sleep-number-bed" stroke="none" stroke-width="1" fill="none" fill-rule="evenodd">
        <path d="M22.2717,43.417 C22.6877,42.999 23.2417,42.769 23.8317,42.769 C24.1847,42.769 24.5177,42.863 24.8237,43.021 L22.9027,44.941 L36.0347,58.074 L37.9487,56.161 L42.1587,60.436 L42.9817,61.271 L44.1537,61.271 L84.1397,61.271 L84.1397,70.606 L37.7667,70.606 C37.1877,70.606 36.6207,70.371 36.2107,69.962 L16.0147,49.766 L22.2717,43.417 Z M32.8197,42.99 L37.9867,48.157 C39.0927,49.264 39.0927,51.057 37.9857,52.163 L36.0357,54.114 L26.8627,44.941 L28.8137,42.99 C29.9197,41.884 31.7137,41.884 32.8197,42.99 L32.8197,42.99 Z M34.2307,71.941 C35.1687,72.879 36.4407,73.406 37.7667,73.406 L84.9397,73.406 C86.0447,73.406 86.9397,72.511 86.9397,71.406 L86.9397,60.47 C86.9397,59.365 86.0447,58.47 84.9397,58.47 L44.1537,58.47 L39.9277,54.181 L39.9657,54.144 L39.9657,54.144 C42.1657,51.943 42.1657,48.377 39.9667,46.177 L34.7997,41.011 C32.6017,38.813 29.0397,38.812 26.8397,41.006 C25.9497,40.329 24.8967,39.968 23.8317,39.968 C22.5477,39.968 21.2637,40.46 20.2857,41.443 L13.4687,48.359 C12.6917,49.142 12.6937,50.404 13.4727,51.184 L34.2307,71.941 Z M79.9997,2.8 C89.4837,2.8 97.1997,10.516 97.1997,20 C97.1997,29.484 89.4837,37.2 79.9997,37.2 C70.5157,37.2 62.7997,29.484 62.7997,20 C62.7997,10.516 70.5157,2.8 79.9997,2.8 L79.9997,2.8 Z M79.9997,40 C91.0457,40 99.9997,31.046 99.9997,20 C99.9997,8.954 91.0457,0 79.9997,0 C68.9547,0 59.9997,8.954 59.9997,20 C59.9997,31.046 68.9547,40 79.9997,40 L79.9997,40 Z M92.1117,96.828 L96.8277,96.828 L96.8277,54.173 L92.1117,54.173 L92.1117,96.828 Z M11.0627,86.751 L88.9397,86.751 L88.9397,78.58 L11.0627,78.58 L11.0627,86.751 Z M7.8507,96.828 L3.1737,96.828 L3.1737,38.173 L7.8907,38.173 L7.8507,96.828 Z M98.4137,51 L90.5267,51 C89.6507,51 88.9397,51.711 88.9397,52.587 L88.9397,75.406 L11.0627,75.406 L11.0627,36.587 C11.0627,35.711 10.3527,35 9.4757,35 L1.5867,35 C0.7137,35 -0.0003,35.714 -0.0003,36.587 L-0.0003,98.414 C-0.0003,99.29 0.7097,100 1.5857,100 L9.4727,100 C10.3507,100 11.0627,99.288 11.0627,98.41 L11.0627,89.924 L88.9397,89.924 L88.9397,98.41 C88.9397,99.288 89.6517,100 90.5297,100 L98.4137,100 C99.2897,100 99.9997,99.29 99.9997,98.414 L99.9997,52.586 C99.9997,51.71 99.2897,51 98.4137,51 L98.4137,51 Z M82.4887,23.773 L79.9997,28.084 L77.5117,23.773 L82.4887,23.773 Z M79.2347,31.558 C79.4047,31.853 79.7027,32 79.9997,32 C80.2977,32 80.5947,31.853 80.7657,31.558 L85.8797,22.699 C86.2197,22.109 85.7947,21.373 85.1147,21.373 L74.8847,21.373 C74.2047,21.373 73.7797,22.109 74.1197,22.699 L79.2347,31.558 Z M79.9997,11.916 L82.4887,16.227 L77.5117,16.227 L79.9997,11.916 Z M74.8847,18.627 L85.1147,18.627 C85.7947,18.627 86.2197,17.891 85.8797,17.301 L80.7657,8.442 C80.5947,8.147 80.2977,8 79.9997,8 C79.7027,8 79.4047,8.147 79.2347,8.442 L74.1197,17.301 C73.7797,17.891 74.2047,18.627 74.8847,18.627 L74.8847,18.627 Z" id="icon_sleep-number-bed" fill="#3A4B60"></path>
    </g>
</svg>