<?xml version="1.0" encoding="UTF-8"?>
<svg width="100px" height="100px" viewBox="0 0 100 100" version="1.1" xmlns="http://www.w3.org/2000/svg">
    <title>icon / furniture / snowboard</title>
    <g id="icon-/-furniture-/-snowboard" stroke="none" stroke-width="1" fill="none" fill-rule="evenodd">
        <path d="M85.25725,16.60725 C85.03125,15.83025 84.21825,15.38225 83.44225,15.60825 L75.90225,17.79925 C75.40425,17.94425 75.02025,18.34025 74.89225,18.84125 C74.76325,19.34325 74.90825,19.87625 75.27525,20.24225 L77.38525,22.35325 L71.93625,23.88325 C71.15725,24.10325 70.70225,24.91225 70.92225,25.69125 C71.10425,26.33625 71.69225,26.75925 72.33125,26.75925 C72.46325,26.75925 72.59625,26.74225 72.72925,26.70525 L80.58725,24.49725 C81.08825,24.35625 81.47725,23.96125 81.60925,23.45725 C81.74025,22.95425 81.59525,22.41925 81.22725,22.05025 L79.09925,19.92225 L84.25925,18.42225 C85.03625,18.19725 85.48325,17.38325 85.25725,16.60725 L85.25725,16.60725 Z M47.46925,63.07525 L46.86625,63.67725 C46.26125,64.28425 45.45525,64.61725 44.59925,64.61725 C43.74225,64.61725 42.93725,64.28325 42.33125,63.67725 L36.32225,57.66925 C35.71625,57.06225 35.38225,56.25725 35.38225,55.40025 C35.38225,54.54425 35.71625,53.73925 36.32225,53.13225 L36.92425,52.53025 C37.53025,51.92425 38.33525,51.59025 39.19225,51.59025 C40.04925,51.59025 40.85425,51.92425 41.45925,52.53025 L47.46925,58.54025 C48.07525,59.14525 48.40825,59.95125 48.40825,60.80725 C48.40825,61.66525 48.07525,62.46925 47.46925,63.07525 L47.46925,63.07525 Z M43.53125,50.45925 C42.37225,49.29925 40.83125,48.66125 39.19225,48.66125 C37.55325,48.66125 36.01125,49.29925 34.85225,50.45925 L34.25025,51.06125 C33.09125,52.22025 32.45225,53.76125 32.45225,55.40125 C32.45225,57.04025 33.09125,58.58225 34.25025,59.74125 L40.25925,65.75025 C41.41825,66.90925 42.95925,67.54725 44.59925,67.54725 C46.23825,67.54725 47.77925,66.90925 48.93925,65.75025 L49.54125,65.14725 C50.70025,63.98825 51.33925,62.44725 51.33925,60.80725 C51.33925,59.16925 50.70025,57.62725 49.54125,56.46725 L43.53125,50.45925 Z M51.59125,39.19225 C51.59125,38.33625 51.92425,37.53025 52.53025,36.92425 L53.13325,36.32225 C53.73825,35.71625 54.54425,35.38225 55.40125,35.38225 C56.25725,35.38225 57.06325,35.71625 57.66825,36.32225 L63.67825,42.33225 C64.28325,42.93725 64.61725,43.74325 64.61725,44.59925 C64.61725,45.45625 64.28325,46.26125 63.67825,46.86725 L63.07525,47.46925 C61.82525,48.71925 59.79025,48.71925 58.53925,47.46925 L52.53025,41.46125 C51.92425,40.85425 51.59125,40.04925 51.59125,39.19225 L51.59125,39.19225 Z M60.80725,51.33925 C62.44625,51.33925 63.98725,50.70125 65.14825,49.54225 L65.74925,48.93925 C66.90825,47.78025 67.54725,46.23925 67.54725,44.59925 C67.54725,42.96025 66.90825,41.41925 65.74925,40.25925 L59.74025,34.25025 C58.58125,33.09025 57.04025,32.45325 55.40125,32.45325 C53.76125,32.45325 52.22025,33.09025 51.06125,34.25025 L50.45825,34.85225 C49.29925,36.01125 48.66025,37.55325 48.66025,39.19225 C48.66025,40.83225 49.29925,42.37325 50.45825,43.53225 L56.46725,49.54225 C57.62625,50.70125 59.16825,51.33925 60.80725,51.33925 L60.80725,51.33925 Z M66.82025,53.06125 C63.76925,55.75525 60.84725,58.66325 58.13825,61.70225 L41.57125,79.74625 L9.08925,68.67725 L17.49625,60.96325 L25.20325,53.89925 L25.19825,53.89525 L38.09825,42.05825 C41.13625,39.35225 44.04325,36.43325 46.72625,33.39725 L70.11125,7.52725 C76.27825,1.38825 86.29125,1.39625 92.44725,7.55225 C98.61125,13.71625 98.61125,23.74725 92.44925,29.91125 C91.18025,31.22725 89.73225,32.41825 88.46225,33.52125 C88.45125,33.53025 88.43825,33.53225 88.42825,33.54225 L66.82025,53.06125 Z M36.24625,85.54625 C36.23625,85.54425 36.22825,85.53925 36.21825,85.53625 L4.35925,74.67925 C4.96025,73.36325 5.75625,72.11425 6.73725,70.97125 L6.73725,70.97225 L39.40625,82.10425 L36.24625,85.54625 Z M29.89225,92.46925 C23.72525,98.61225 13.71025,98.60525 7.55225,92.44825 C3.49225,88.38725 2.10825,82.65125 3.39525,77.44725 L34.08225,87.90325 L29.89225,92.46925 Z M94.51925,5.48025 C87.21125,-1.82675 75.32125,-1.82675 68.01425,5.48025 C67.99625,5.49825 67.98025,5.51525 67.96325,5.53425 L44.54125,31.44425 C41.92225,34.40925 39.09625,37.24725 36.14125,39.87825 C36.13625,39.88225 36.13025,39.88725 36.12525,39.89225 L21.28225,53.51225 C21.27725,53.51725 21.27625,53.52425 21.27025,53.53025 L16.94825,57.49125 C16.94725,57.49225 16.94425,57.49225 16.94425,57.49425 L5.52625,67.97125 C5.51025,67.98525 5.49425,68.00025 5.48025,68.01425 C-1.82675,75.32225 -1.82675,87.21125 5.48025,94.51925 C9.13425,98.17225 13.93325,100.00025 18.73325,100.00025 C23.53225,100.00025 28.33125,98.17225 31.98525,94.51925 C32.00025,94.50425 32.01425,94.49025 32.02825,94.47425 L60.30325,63.67525 C60.30825,63.67025 60.31325,63.66525 60.31825,63.65925 C62.95225,60.70425 65.79225,57.87825 68.77325,55.24725 L83.65125,41.80725 C83.65425,41.80325 83.65325,41.80925 83.65825,41.80525 L94.47425,32.02925 C94.47425,32.02925 94.47325,32.01825 94.47325,32.01625 C94.48625,32.00325 94.50525,31.99925 94.51925,31.98525 C101.82625,24.67825 101.82625,12.78825 94.51925,5.48025 L94.51925,5.48025 Z"
              id="icon_snowboard" fill="#3A4B60"></path>
    </g>
</svg>