<?xml version="1.0" encoding="UTF-8"?>
<svg width="100px" height="100px" viewBox="0 0 100 100" version="1.1" xmlns="http://www.w3.org/2000/svg" xmlns:xlink="http://www.w3.org/1999/xlink">
    <title>icon / furniture / sofa</title>
    <g id="icon-/-furniture-/-sofa" stroke="none" stroke-width="1" fill="none" fill-rule="evenodd">
        <path d="M19.7899,32.312 C18.9299,32.312 18.2299,33.016 18.2299,33.88 C18.2299,34.746 18.9359,35.449 19.8049,35.449 C20.6689,35.449 21.3719,34.746 21.3719,33.88 C21.3719,33.016 20.6689,32.312 19.7899,32.312 L19.7899,32.312 Z M35.6759,32.312 C34.8139,32.312 34.1139,33.016 34.1139,33.88 C34.1139,34.746 34.8199,35.449 35.6889,35.449 C36.5539,35.449 37.2579,34.746 37.2579,33.88 C37.2579,33.016 36.5539,32.312 35.6759,32.312 L35.6759,32.312 Z M88.1949,67.688 L90.9989,74.231 L90.0629,67.688 L88.1949,67.688 Z M9.9369,67.688 L9.0019,74.231 L11.8069,67.688 L9.9369,67.688 Z M51.5679,49.298 L51.5679,53.505 C51.5679,54.186 52.1219,54.74 52.8039,54.74 L87.2179,54.74 C87.8989,54.74 88.4539,54.186 88.4539,53.505 L88.4529,49.298 C88.4529,48.619 87.8989,48.064 87.2179,48.064 L52.8039,48.064 C52.1219,48.064 51.5679,48.619 51.5679,49.298 L51.5679,49.298 Z M91.2569,28.274 C91.2569,26.82 90.0739,25.636 88.6199,25.636 L54.2059,25.636 C52.7519,25.636 51.5679,26.82 51.5679,28.274 L51.5679,43.693 C51.5679,44.374 52.1219,44.928 52.8039,44.928 L87.2179,44.928 C88.0769,44.928 88.8939,45.172 89.6029,45.638 L90.8639,38.706 C90.9359,38.302 91.0679,37.909 91.2569,37.533 L91.2569,28.274 Z M48.4319,28.273 C48.4319,26.82 47.2499,25.636 45.7959,25.636 L11.3809,25.636 C9.9269,25.636 8.7429,26.82 8.7429,28.273 L8.7429,37.534 C8.9319,37.911 9.0629,38.304 9.1369,38.706 L10.3959,45.638 C11.1029,45.178 11.9359,44.928 12.7819,44.928 L47.1969,44.928 C47.8779,44.928 48.4319,44.374 48.4319,43.693 L48.4319,28.273 Z M11.5469,53.505 C11.5469,54.186 12.1009,54.74 12.7819,54.74 L47.1969,54.74 C47.8779,54.74 48.4319,54.186 48.4319,53.505 L48.4319,49.299 C48.4319,48.619 47.8779,48.064 47.1969,48.064 L12.7819,48.064 C12.1009,48.064 11.5469,48.619 11.5469,49.299 L11.5469,53.505 Z M94.4489,63.434 L96.8489,38.251 L95.1649,38.251 C94.5679,38.251 94.0569,38.678 93.9489,39.266 L91.5859,52.268 L91.5899,53.505 C91.5899,55.916 89.6289,57.876 87.2179,57.876 L52.8039,57.876 C51.7729,57.876 50.7879,57.515 49.9999,56.856 C49.2139,57.515 48.2269,57.876 47.1969,57.876 L12.7819,57.876 C10.3719,57.876 8.4109,55.916 8.4109,53.505 L8.4109,52.221 L6.0509,39.266 C5.9429,38.678 5.4329,38.251 4.8349,38.251 L3.1519,38.251 L5.5519,63.434 C5.6109,64.072 6.1409,64.552 6.7809,64.552 L93.2189,64.552 C93.8599,64.552 94.3899,64.072 94.4489,63.434 L94.4489,63.434 Z M99.9869,38.367 L97.5719,63.731 C97.3569,65.983 95.4929,67.681 93.2319,67.688 L94.3779,75.711 C94.4409,76.163 94.3079,76.618 94.0089,76.96 C93.7109,77.303 93.2799,77.5 92.8249,77.5 L90.0219,77.5 C89.3939,77.5 88.8269,77.126 88.5809,76.549 L84.7819,67.688 L15.2179,67.688 L11.4199,76.549 C11.1729,77.126 10.6059,77.5 9.9779,77.5 L7.1749,77.5 C6.7219,77.5 6.2899,77.304 5.9899,76.96 C5.6919,76.616 5.5589,76.16 5.6239,75.711 L6.7689,67.688 C4.5079,67.682 2.6429,65.983 2.4299,63.731 L0.0139,38.367 C-0.0651,37.536 0.2109,36.706 0.7729,36.088 C1.3339,35.47 2.1359,35.116 2.9709,35.116 L4.8349,35.116 C5.0919,35.116 5.3509,35.139 5.6059,35.185 L5.6059,28.273 C5.6059,25.09 8.1969,22.5 11.3809,22.5 L45.7959,22.5 C47.3929,22.5 48.9089,23.161 49.9999,24.324 C51.0929,23.161 52.6079,22.5 54.2059,22.5 L88.6199,22.5 C91.8039,22.5 94.3939,25.09 94.3939,28.273 L94.3939,35.186 C94.6509,35.139 94.9089,35.116 95.1649,35.116 L97.0309,35.116 C97.8649,35.116 98.6659,35.47 99.2279,36.088 C99.7889,36.706 100.0659,37.536 99.9869,38.367 L99.9869,38.367 Z M80.1959,32.312 C79.3349,32.312 78.6349,33.016 78.6349,33.88 C78.6349,34.746 79.3409,35.449 80.2099,35.449 C81.0739,35.449 81.7779,34.746 81.7779,33.88 C81.7779,33.016 81.0739,32.312 80.1959,32.312 L80.1959,32.312 Z M65.9069,33.88 C65.9069,34.746 65.2039,35.449 64.3389,35.449 C63.4699,35.449 62.7639,34.746 62.7639,33.88 C62.7639,33.016 63.4639,32.312 64.3249,32.312 C65.2039,32.312 65.9069,33.016 65.9069,33.88 L65.9069,33.88 Z" id="icon_sofa" fill="#3A4B60"></path>
    </g>
</svg>