<?xml version="1.0" encoding="UTF-8"?>
<svg width="100px" height="100px" viewBox="0 0 100 100" version="1.1" xmlns="http://www.w3.org/2000/svg" xmlns:xlink="http://www.w3.org/1999/xlink">
    <title>icon / furniture / space-heater</title>
    <g id="icon-/-furniture-/-space-heater" stroke="none" stroke-width="1" fill="none" fill-rule="evenodd">
        <path d="M63.3676,39.1046 L63.3676,31.4796 L69.7586,31.4796 C70.8906,33.8206 71.6226,36.3916 71.8546,39.1046 L63.3676,39.1046 Z M69.7586,50.5376 L63.3676,50.5376 L63.3676,42.9146 L71.8546,42.9146 C71.6226,45.6256 70.8906,48.1976 69.7586,50.5376 L69.7586,50.5376 Z M63.3676,58.3826 L63.3676,54.3466 L67.4016,54.3466 C66.2376,55.8636 64.8816,57.2206 63.3676,58.3826 L63.3676,58.3826 Z M63.3676,23.6336 C64.8816,24.7956 66.2376,26.1566 67.4016,27.6696 L63.3676,27.6696 L63.3676,23.6336 Z M59.5576,27.6696 L51.9386,27.6696 L51.9386,19.1766 C54.6496,19.4096 57.2196,20.1406 59.5576,21.2756 L59.5576,27.6696 Z M51.9386,39.1046 L59.5576,39.1046 L59.5576,31.4796 L51.9386,31.4796 L51.9386,39.1046 Z M51.9386,50.5376 L59.5576,50.5376 L59.5576,42.9146 L51.9386,42.9146 L51.9386,50.5376 Z M59.5576,60.7426 C57.2196,61.8756 54.6496,62.6076 51.9386,62.8396 L51.9386,54.3466 L59.5576,54.3466 L59.5576,60.7426 Z M48.1296,27.6696 L40.5106,27.6696 L40.5106,21.2756 C42.8496,20.1406 45.4186,19.4096 48.1296,19.1766 L48.1296,27.6696 Z M40.5106,39.1046 L48.1296,39.1046 L48.1296,31.4796 L40.5106,31.4796 L40.5106,39.1046 Z M40.5106,50.5376 L48.1296,50.5376 L48.1296,42.9146 L40.5106,42.9146 L40.5106,50.5376 Z M48.1296,62.8396 C45.4186,62.6076 42.8496,61.8756 40.5106,60.7426 L40.5106,54.3466 L48.1296,54.3466 L48.1296,62.8396 Z M36.7006,27.6696 L32.6666,27.6696 C33.8306,26.1566 35.1866,24.7956 36.7006,23.6336 L36.7006,27.6696 Z M36.7006,39.1046 L28.2136,39.1046 C28.4456,36.3916 29.1776,33.8206 30.3106,31.4796 L36.7006,31.4796 L36.7006,39.1046 Z M36.7006,50.5376 L30.3106,50.5376 C29.1776,48.1976 28.4456,45.6256 28.2136,42.9146 L36.7006,42.9146 L36.7006,50.5376 Z M36.7006,58.3826 C35.1866,57.2206 33.8306,55.8636 32.6666,54.3466 L36.7006,54.3466 L36.7006,58.3826 Z M72.6746,28.8196 C72.6196,28.7166 72.5616,28.6136 72.5066,28.5126 L72.5046,28.5096 C70.1736,24.3316 66.7126,20.8686 62.5386,18.5356 C62.5346,18.5336 62.5316,18.5296 62.5276,18.5276 C62.4216,18.4696 62.3136,18.4116 62.2076,18.3536 C62.2056,18.3526 62.2056,18.3526 62.2036,18.3526 C58.5786,16.3946 54.4336,15.2836 50.0346,15.2836 C45.6346,15.2836 41.4896,16.3946 37.8646,18.3526 C37.8636,18.3526 37.8636,18.3526 37.8606,18.3536 C37.7546,18.4116 37.6476,18.4696 37.5406,18.5276 C37.5386,18.5276 37.5386,18.5296 37.5366,18.5316 C33.3526,20.8686 29.8836,24.3426 27.5506,28.5336 C27.5026,28.6216 27.4526,28.7086 27.4076,28.7976 C25.4386,32.4316 24.3196,36.5946 24.3196,41.0096 C24.3196,45.4096 25.4306,49.5576 27.3906,53.1846 C27.3946,53.1966 27.4006,53.2096 27.4076,53.2206 C27.4516,53.3046 27.4966,53.3906 27.5436,53.4726 C27.5446,53.4756 27.5486,53.4796 27.5506,53.4856 C29.8916,57.6896 33.3776,61.1726 37.5806,63.5096 C37.6476,63.5476 37.7146,63.5846 37.7816,63.6236 C37.7846,63.6256 37.7896,63.6286 37.7966,63.6286 C41.4386,65.6096 45.6076,66.7336 50.0346,66.7336 C54.4536,66.7336 58.6156,65.6156 62.2516,63.6396 C62.2646,63.6336 62.2756,63.6286 62.2876,63.6236 C62.3536,63.5846 62.4216,63.5476 62.4876,63.5096 C62.4936,63.5086 62.4966,63.5066 62.5006,63.5026 C66.6906,61.1696 70.1666,57.6976 72.5046,53.5086 C72.5066,53.5036 72.5106,53.5006 72.5106,53.4996 C72.5616,53.4056 72.6156,53.3086 72.6666,53.2126 C72.6726,53.2046 72.6766,53.1946 72.6806,53.1846 C74.6386,49.5576 75.7486,45.4116 75.7486,41.0096 C75.7486,36.6076 74.6386,32.4606 72.6806,28.8336 C72.6786,28.8296 72.6766,28.8226 72.6746,28.8196 L72.6746,28.8196 Z M44.2896,77.1336 L80.4756,77.1336 C81.5276,77.1336 82.3816,77.9876 82.3816,79.0396 C82.3816,80.0906 81.5276,80.9436 80.4756,80.9436 L43.9046,80.9436 C42.8526,80.9436 42.0006,80.0906 42.0006,79.0396 C42.0006,77.9876 42.8526,77.1336 43.9046,77.1336 L44.2876,77.1336 L44.2896,77.1336 Z M86.1906,84.8016 C86.1906,86.9016 84.4816,88.6116 82.3816,88.6116 L17.6186,88.6116 C15.5176,88.6116 13.8096,86.9016 13.8096,84.8016 L13.8096,40.0006 C13.8096,20.0436 30.0436,3.8096 50.0006,3.8096 C69.9566,3.8096 86.1906,20.0436 86.1906,40.0006 L86.1906,84.8016 Z M67.1426,94.2866 C67.1426,95.3356 66.2876,96.1906 65.2376,96.1906 L63.3336,96.1906 L63.3336,92.3766 L67.1426,92.3766 L67.1426,94.2866 Z M36.6666,96.1906 L34.7626,96.1906 C33.7116,96.1906 32.8576,95.3356 32.8576,94.2866 L32.8576,92.3766 L36.6666,92.3766 L36.6666,92.4206 L36.6686,96.1906 L36.6666,96.1906 Z M50.0006,-0.0004 C27.9446,-0.0004 9.9996,17.9446 9.9996,40.0006 L9.9996,84.8016 C9.9996,89.0016 13.4176,92.4206 17.6186,92.4206 L29.0476,92.4206 L29.0476,94.2866 C29.0476,97.4356 31.6116,100.0006 34.7626,100.0006 L36.6666,100.0006 C38.7676,100.0006 40.4756,98.2926 40.4756,96.1906 L40.4756,92.4206 L59.5236,92.4206 L59.5236,96.1906 C59.5236,98.2926 61.2316,100.0006 63.3336,100.0006 L65.2376,100.0006 C68.3886,100.0006 70.9526,97.4356 70.9526,94.2866 L70.9526,92.4206 L82.3816,92.4206 C86.5826,92.4206 90.0006,89.0016 90.0006,84.8016 L90.0006,40.0006 C90.0006,17.9446 72.0556,-0.0004 50.0006,-0.0004 L50.0006,-0.0004 Z M32.8576,80.9456 L23.3336,80.9456 C22.2826,80.9456 21.4286,80.0906 21.4286,79.0376 C21.4286,77.9866 22.2826,77.1326 23.3336,77.1326 L32.8576,77.1326 C33.9076,77.1326 34.7626,77.9866 34.7626,79.0416 C34.7626,80.0906 33.9076,80.9456 32.8576,80.9456 L32.8576,80.9456 Z M32.8576,73.3236 L23.3336,73.3236 C20.1816,73.3236 17.6186,75.8856 17.6186,79.0416 C17.6186,82.1916 20.1816,84.7546 23.3336,84.7546 L32.8576,84.7546 C36.0086,84.7546 38.5716,82.1916 38.5716,79.0376 C38.5716,75.8856 36.0086,73.3236 32.8576,73.3236 L32.8576,73.3236 Z" id="icon_space-heater" fill="#3A4B60"></path>
    </g>
</svg>