<?xml version="1.0" encoding="UTF-8"?>
<svg width="100px" height="100px" viewBox="0 0 100 100" version="1.1" xmlns="http://www.w3.org/2000/svg">
    <title>icon / furniture / speakers</title>
    <g id="icon-/-furniture-/-speakers" stroke="none" stroke-width="1" fill="none" fill-rule="evenodd">
        <path d="M29.395,88.3365 C28.145,88.3365 27.127,89.3545 27.127,90.6055 C27.127,91.8555 28.145,92.8725 29.395,92.8725 C30.646,92.8725 31.663,91.8555 31.663,90.6055 C31.663,89.3545 30.646,88.3365 29.395,88.3365 L29.395,88.3365 Z M70.605,88.3365 C69.354,88.3365 68.337,89.3545 68.337,90.6055 C68.337,91.8555 69.354,92.8725 70.605,92.8725 C71.855,92.8725 72.873,91.8555 72.873,90.6055 C72.873,89.3545 71.855,88.3365 70.605,88.3365 L70.605,88.3365 Z M70.605,7.1275 C69.354,7.1275 68.337,8.1455 68.337,9.3955 C68.337,10.6465 69.354,11.6625 70.605,11.6625 C71.855,11.6625 72.873,10.6465 72.873,9.3955 C72.873,8.1455 71.855,7.1275 70.605,7.1275 L70.605,7.1275 Z M29.395,11.6625 C30.646,11.6625 31.663,10.6465 31.663,9.3955 C31.663,8.1455 30.646,7.1275 29.395,7.1275 C28.145,7.1275 27.127,8.1455 27.127,9.3955 C27.127,10.6465 28.145,11.6625 29.395,11.6625 L29.395,11.6625 Z M50,13.6075 C58.087,13.6075 64.762,19.7705 65.575,27.6465 L58.375,27.6465 C57.616,23.7135 54.15,20.7335 50,20.7335 C45.85,20.7335 42.384,23.7135 41.625,27.6465 L34.425,27.6465 C35.238,19.7705 41.913,13.6075 50,13.6075 L50,13.6075 Z M44.708,29.2655 C44.708,26.3475 47.082,23.9745 50,23.9745 C52.917,23.9745 55.291,26.3475 55.291,29.2655 C55.291,32.1835 52.917,34.5575 50,34.5575 C47.082,34.5575 44.708,32.1835 44.708,29.2655 L44.708,29.2655 Z M50,44.9245 C41.913,44.9245 35.238,38.7615 34.425,30.8855 L41.625,30.8855 C42.384,34.8175 45.85,37.7975 50,37.7975 C54.15,37.7975 57.616,34.8175 58.375,30.8855 L65.575,30.8855 C64.762,38.7615 58.087,44.9245 50,44.9245 L50,44.9245 Z M50,48.1635 C60.421,48.1635 68.898,39.6865 68.898,29.2655 C68.898,18.8455 60.421,10.3665 50,10.3665 C39.579,10.3665 31.102,18.8455 31.102,29.2655 C31.102,39.6865 39.579,48.1635 50,48.1635 L50,48.1635 Z M50,86.3935 C41.913,86.3935 35.238,80.2305 34.425,72.3545 L41.625,72.3545 C42.384,76.2855 45.85,79.2655 50,79.2655 C54.15,79.2655 57.616,76.2855 58.375,72.3545 L65.575,72.3545 C64.762,80.2305 58.087,86.3935 50,86.3935 L50,86.3935 Z M55.291,70.7335 C55.291,73.6515 52.917,76.0255 50,76.0255 C47.082,76.0255 44.708,73.6515 44.708,70.7335 C44.708,67.8155 47.082,65.4425 50,65.4425 C52.917,65.4425 55.291,67.8155 55.291,70.7335 L55.291,70.7335 Z M50,55.0755 C58.087,55.0755 64.762,61.2385 65.575,69.1145 L58.375,69.1145 C57.616,65.1825 54.15,62.2025 50,62.2025 C45.85,62.2025 42.384,65.1825 41.625,69.1145 L34.425,69.1145 C35.238,61.2385 41.913,55.0755 50,55.0755 L50,55.0755 Z M50,51.8355 C39.579,51.8355 31.102,60.3145 31.102,70.7335 C31.102,81.1545 39.579,89.6325 50,89.6325 C60.421,89.6325 68.898,81.1545 68.898,70.7335 C68.898,60.3145 60.421,51.8355 50,51.8355 L50,51.8355 Z M76.76,93.1965 C76.76,95.1615 75.162,96.7605 73.197,96.7605 L26.803,96.7605 C24.838,96.7605 23.24,95.1615 23.24,93.1965 L23.24,6.8035 C23.24,4.8385 24.838,3.2395 26.803,3.2395 L73.197,3.2395 C75.162,3.2395 76.76,4.8385 76.76,6.8035 L76.76,93.1965 Z M73.197,-0.0005 L26.803,-0.0005 C23.052,-0.0005 20,3.0525 20,6.8035 L20,93.1965 C20,96.9475 23.052,99.9995 26.803,99.9995 L73.197,99.9995 C76.948,99.9995 80,96.9475 80,93.1965 L80,6.8035 C80,3.0525 76.948,-0.0005 73.197,-0.0005 L73.197,-0.0005 Z"
              id="icon_speakers" fill="#3A4B60"></path>
    </g>
</svg>