<?xml version="1.0" encoding="UTF-8"?>
<svg width="100px" height="100px" viewBox="0 0 100 100" version="1.1" xmlns="http://www.w3.org/2000/svg" xmlns:xlink="http://www.w3.org/1999/xlink">
    <title>icon / furniture / standing-copy-machine</title>
    <g id="icon-/-furniture-/-standing-copy-machine" stroke="none" stroke-width="1" fill="none" fill-rule="evenodd">
        <path d="M26.382,24.2664714 L42.526,24.2664714 L42.526,20.6354714 L26.382,20.6354714 L26.382,24.2664714 Z M43.933,17.8204714 L24.974,17.8204714 C24.197,17.8204714 23.567,18.4514714 23.567,19.2284714 L23.567,25.6744714 C23.567,26.4524714 24.197,27.0814714 24.974,27.0814714 L43.933,27.0814714 C44.711,27.0814714 45.341,26.4524714 45.341,25.6744714 L45.341,19.2284714 C45.341,18.4514714 44.711,17.8204714 43.933,17.8204714 L43.933,17.8204714 Z M56.979,19.2284714 C56.979,20.0054714 56.349,20.6354714 55.572,20.6354714 L55.424,20.6354714 C54.646,20.6354714 54.016,20.0054714 54.016,19.2284714 C54.016,18.4514714 54.646,17.8204714 55.424,17.8204714 L55.572,17.8204714 C56.349,17.8204714 56.979,18.4514714 56.979,19.2284714 L56.979,19.2284714 Z M56.979,25.6744714 C56.979,26.4524714 56.349,27.0814714 55.572,27.0814714 L55.424,27.0814714 C54.646,27.0814714 54.016,26.4524714 54.016,25.6744714 C54.016,24.8964714 54.646,24.2664714 55.424,24.2664714 L55.572,24.2664714 C56.349,24.2664714 56.979,24.8964714 56.979,25.6744714 L56.979,25.6744714 Z M62.404,19.2284714 C62.404,20.0054714 61.773,20.6354714 60.996,20.6354714 L60.901,20.6354714 C60.124,20.6354714 59.494,20.0054714 59.494,19.2284714 C59.494,18.4514714 60.124,17.8204714 60.901,17.8204714 L60.996,17.8204714 C61.773,17.8204714 62.404,18.4514714 62.404,19.2284714 L62.404,19.2284714 Z M62.404,25.6744714 C62.404,26.4524714 61.773,27.0814714 60.996,27.0814714 L60.901,27.0814714 C60.124,27.0814714 59.494,26.4524714 59.494,25.6744714 C59.494,24.8964714 60.124,24.2664714 60.901,24.2664714 L60.996,24.2664714 C61.773,24.2664714 62.404,24.8964714 62.404,25.6744714 L62.404,25.6744714 Z M51.503,25.6744714 C51.503,26.4524714 50.872,27.0814714 50.094,27.0814714 L50,27.0814714 C49.222,27.0814714 48.592,26.4524714 48.592,25.6744714 C48.592,24.8964714 49.222,24.2664714 50,24.2664714 L50.094,24.2664714 C50.872,24.2664714 51.503,24.8964714 51.503,25.6744714 L51.503,25.6744714 Z M51.503,19.2284714 C51.503,20.0054714 50.872,20.6354714 50.094,20.6354714 L50,20.6354714 C49.222,20.6354714 48.592,20.0054714 48.592,19.2284714 C48.592,18.4514714 49.222,17.8204714 50,17.8204714 L50.094,17.8204714 C50.872,17.8204714 51.503,18.4514714 51.503,19.2284714 L51.503,19.2284714 Z M71.802,24.2664714 C70.801,24.2664714 69.987,23.4524714 69.987,22.4514714 C69.987,21.4504714 70.801,20.6354714 71.802,20.6354714 C72.803,20.6354714 73.618,21.4504714 73.618,22.4514714 C73.618,23.4524714 72.803,24.2664714 71.802,24.2664714 L71.802,24.2664714 Z M71.802,17.8204714 C69.25,17.8204714 67.172,19.8974714 67.172,22.4514714 C67.172,25.0044714 69.249,27.0814714 71.802,27.0814714 C74.356,27.0814714 76.433,25.0044714 76.433,22.4514714 C76.433,19.8974714 74.355,17.8204714 71.802,17.8204714 L71.802,17.8204714 Z M79.196,91.1174714 L62.428,91.1174714 L60.83,85.6814714 C60.654,85.0824714 60.103,84.6714714 59.479,84.6714714 L40.52,84.6714714 C39.896,84.6714714 39.346,85.0824714 39.171,85.6814714 L37.572,91.1174714 L20.803,91.1174714 C20.534,91.1174714 20.315,90.8984714 20.315,90.6284714 L20.315,73.9744714 L79.684,73.9744714 L79.685,90.6284714 C79.685,90.8984714 79.466,91.1174714 79.196,91.1174714 L79.196,91.1174714 Z M75.893,97.1844714 L72.268,97.1844714 L71.253,93.9324714 L75.893,93.9324714 L75.893,97.1844714 Z M40.506,91.1174714 L41.574,87.4864714 L58.426,87.4864714 L59.494,91.1174714 L40.506,91.1174714 Z M27.731,97.1844714 L24.107,97.1844714 L24.107,93.9324714 L28.748,93.9324714 L27.731,97.1844714 Z M62.428,51.2004714 L60.83,45.7644714 C60.654,45.1654714 60.103,44.7544714 59.479,44.7544714 L40.52,44.7544714 C39.896,44.7544714 39.346,45.1654714 39.171,45.7644714 L37.572,51.2004714 L20.315,51.2004714 L20.315,33.1484714 L79.684,33.1484714 L79.684,51.2004714 L62.428,51.2004714 Z M40.506,51.2004714 L41.574,47.5694714 L58.426,47.5694714 L59.494,51.2004714 L40.506,51.2004714 Z M59.494,71.1594714 L40.506,71.1594714 L41.574,67.5284714 L58.426,67.5284714 L59.494,71.1594714 Z M59.479,64.7124714 L40.52,64.7124714 C39.896,64.7124714 39.346,65.1234714 39.171,65.7234714 L37.572,71.1594714 L20.315,71.1594714 L20.315,54.0154714 L79.684,54.0154714 L79.684,71.1594714 L62.428,71.1594714 L60.83,65.7234714 C60.654,65.1234714 60.103,64.7124714 59.479,64.7124714 L59.479,64.7124714 Z M20.315,7.4734714 C20.315,7.2054714 20.534,6.9854714 20.803,6.9854714 L26.759,6.9854714 L30.161,13.7904714 C30.4,14.2674714 30.887,14.5694714 31.421,14.5694714 L79.196,14.5694714 C79.466,14.5694714 79.684,14.7884714 79.684,15.0574714 L79.684,30.3324714 L20.315,30.3324714 L20.315,7.4734714 Z M82.5,15.0574714 C82.5,13.2364714 81.017,11.7534714 79.196,11.7534714 L43.481,11.7534714 L81.417,2.7774714 C82.173,2.5974714 82.64,1.8394714 82.462,1.0824714 C82.283,0.327471396 81.525,-0.141528604 80.768,0.0384713959 L32.18,11.5354714 L28.887,4.9484714 C28.649,4.4714714 28.162,4.1704714 27.629,4.1704714 L20.803,4.1704714 C18.982,4.1704714 17.5,5.6524714 17.5,7.4734714 L17.5,90.6284714 C17.5,92.4514714 18.982,93.9324714 20.803,93.9324714 L21.292,93.9324714 L21.292,98.5914714 C21.292,99.3694714 21.922,99.9994714 22.699,99.9994714 L28.766,99.9994714 C29.382,99.9994714 29.926,99.5994714 30.109,99.0114714 L31.697,93.9324714 L68.302,93.9324714 L69.89,99.0114714 C70.074,99.5994714 70.618,99.9994714 71.234,99.9994714 L77.301,99.9994714 C78.078,99.9994714 78.708,99.3694714 78.708,98.5914714 L78.708,93.9324714 L79.196,93.9324714 C81.018,93.9324714 82.5,92.4514714 82.5,90.6284714 L82.5,15.0574714 Z" id="icon_standing-copy-machine" fill="#3A4B60"></path>
    </g>
</svg>