<?xml version="1.0" encoding="UTF-8"?>
<svg width="100px" height="100px" viewBox="0 0 100 100" version="1.1" xmlns="http://www.w3.org/2000/svg" xmlns:xlink="http://www.w3.org/1999/xlink">
    <!-- Generator: Sketch 63.1 (92452) - https://sketch.com -->
    <title>icon / furniture / steam-cleaner</title>
    <desc>Created with Sketch.</desc>
    <g id="icon-/-furniture-/-steam-cleaner" stroke="none" stroke-width="1" fill="none" fill-rule="evenodd">
        <path d="M96.5356,28.6406 L75.9666,28.6406 L75.9666,23.6886 C75.9666,21.7036 77.5806,20.0876 79.5666,20.0876 L92.9356,20.0876 C94.9206,20.0876 96.5356,21.7036 96.5356,23.6886 L96.5356,28.6406 Z M90.5276,37.8936 C90.5276,39.4176 89.2876,40.6576 87.7636,40.6576 L84.7386,40.6576 C83.2146,40.6576 81.9746,39.4176 81.9746,37.8936 L81.9746,32.1046 L90.5276,32.1046 L90.5276,37.8936 Z M57.6816,92.8056 L57.6816,96.5356 L47.1256,96.5356 L47.1256,90.2556 C47.1256,89.3006 46.3486,88.5236 45.3936,88.5236 C44.4386,88.5236 43.6606,89.3006 43.6606,90.2556 L43.6606,96.5356 L35.1086,96.5356 L35.1086,90.2556 C35.1086,89.3006 34.3316,88.5236 33.3766,88.5236 C32.4216,88.5236 31.6446,89.3006 31.6446,90.2556 L31.6446,96.5356 L23.0926,96.5356 L23.0926,90.2556 C23.0926,89.3006 22.3156,88.5236 21.3606,88.5236 C20.4046,88.5236 19.6276,89.3006 19.6276,90.2556 L19.6276,96.5356 L9.0726,96.5356 L9.0726,92.2586 C9.0726,79.0826 19.7886,68.1816 32.9596,67.9586 C39.3616,67.8696 45.4686,70.3256 50.1496,74.9286 C54.9356,79.6356 57.6816,86.1506 57.6816,92.8056 L57.6816,92.8056 Z M29.1006,30.7026 L37.6526,30.7026 L37.6526,64.7856 L36.2486,64.6396 C34.3436,64.4416 32.4106,64.4416 30.5046,64.6396 L29.1006,64.7856 L29.1006,30.7026 Z M29.1006,27.2366 L37.6526,27.2366 L37.6526,13.0776 L29.1006,13.0776 L29.1006,27.2366 Z M99.9996,24.4216 C99.9996,20.1216 96.5016,16.6226 92.2016,16.6226 L80.2996,16.6226 C75.9996,16.6226 72.5016,20.1216 72.5016,24.4216 L72.5016,29.8436 C72.5016,31.0896 73.5156,32.1046 74.7636,32.1046 L78.5106,32.1046 L78.5106,38.3646 C78.5106,41.5396 81.0926,44.1216 84.2676,44.1216 L84.5186,44.1216 L84.5186,84.2696 C84.5186,86.5456 82.8276,88.4936 80.6686,88.7036 C79.4486,88.8186 78.2776,88.4366 77.3716,87.6156 C76.4786,86.8046 75.9666,85.6506 75.9666,84.4476 L75.9666,58.6946 C75.9666,54.4756 72.7986,50.9596 68.7556,50.6896 C66.5866,50.5536 64.5246,51.2806 62.9416,52.7606 C61.3806,54.2216 60.4846,56.2806 60.4846,58.4116 L60.4846,68.2246 C60.4846,70.5816 58.5666,72.5006 56.2086,72.5006 L52.8756,72.5006 L52.5086,72.1526 C49.5236,69.3106 45.8886,67.1346 41.9936,65.8596 L41.1176,65.5756 L41.1176,30.7026 L43.4496,30.7036 C44.3716,30.7036 45.1226,29.9526 45.1226,29.0306 C45.1226,28.0186 44.3456,27.2376 43.3906,27.2376 L41.1176,27.2376 L41.1176,12.8906 L43.0786,13.4146 C48.5436,14.8746 53.2706,18.0866 56.7786,20.7206 C57.4556,21.2306 58.4206,21.1556 59.0246,20.5496 C59.3706,20.2026 59.5506,19.7426 59.5306,19.2516 C59.5106,18.7606 59.2936,18.3156 58.9196,17.9966 C54.0956,13.8976 48.2826,10.9946 42.1096,9.6046 L41.8636,9.5496 C40.0616,9.1466 38.2156,8.8746 36.3736,8.7446 L35.1086,8.6536 L35.1086,1.7326 C35.1086,0.7776 34.3316,-0.0004 33.3766,-0.0004 C32.4216,-0.0004 31.6446,0.7776 31.6446,1.7326 L31.6446,8.6526 L30.3346,8.7466 C28.4286,8.8846 26.5146,9.1726 24.6466,9.6026 C18.4726,10.9946 12.6596,13.8966 7.8336,17.9966 C7.4596,18.3156 7.2436,18.7606 7.2226,19.2516 C7.2036,19.7426 7.3836,20.2026 7.7286,20.5496 C8.3616,21.1826 9.3826,21.2306 10.0566,20.6566 C14.0996,17.2156 18.9336,14.6786 24.0356,13.3176 L25.6366,12.8886 L25.6366,27.2376 L23.3036,27.2376 C22.3806,27.2376 21.6306,27.9886 21.6306,28.9116 C21.6306,29.4276 21.8106,29.8666 22.1386,30.1956 C22.4646,30.5216 22.8986,30.7026 23.3606,30.7026 L23.3626,30.7026 L25.6366,30.7026 L25.6366,65.5746 L24.7596,65.8596 C13.3046,69.6086 5.6076,80.2176 5.6076,92.2586 L5.6076,96.5356 L1.7326,96.5356 C0.7776,96.5356 -0.0004,97.3126 -0.0004,98.2676 C-0.0004,99.2226 0.7776,99.9996 1.7326,99.9996 L65.0206,99.9996 C65.9756,99.9996 66.7536,99.2226 66.7536,98.2676 C66.7536,97.3126 65.9756,96.5356 65.0206,96.5356 L61.1456,96.5356 L61.1456,92.2586 C61.1456,87.1086 59.7176,82.0766 57.0156,77.7066 L56.0676,76.1686 L57.8316,75.7926 C61.3766,75.0356 63.9496,71.8546 63.9496,68.2296 L63.9496,58.5906 C63.9496,56.3146 65.6396,54.3676 67.7986,54.1566 C69.0186,54.0436 70.1906,54.4236 71.0956,55.2446 C71.9896,56.0546 72.5016,57.2086 72.5016,58.4116 L72.5016,84.4476 C72.5016,86.5786 73.3976,88.6396 74.9596,90.0996 C76.5426,91.5806 78.6076,92.3156 80.7726,92.1716 C84.8156,91.9006 87.9826,88.3836 87.9826,84.1656 L87.9826,44.1216 L88.2346,44.1216 C91.4086,44.1216 93.9916,41.5396 93.9916,38.3646 L93.9916,32.1046 L97.7386,32.1046 C98.9856,32.1046 99.9996,31.0896 99.9996,29.8436 L99.9996,24.4216 Z" id="icon_steam-cleaner" fill="#3A4B60"></path>
    </g>
</svg>