<?xml version="1.0" encoding="UTF-8"?>
<svg width="100px" height="100px" viewBox="0 0 100 100" version="1.1" xmlns="http://www.w3.org/2000/svg" xmlns:xlink="http://www.w3.org/1999/xlink">
    <!-- Generator: Sketch 63.1 (92452) - https://sketch.com -->
    <title>icon / furniture / stereo-cabinet</title>
    <desc>Created with Sketch.</desc>
    <g id="icon-/-furniture-/-stereo-cabinet" stroke="none" stroke-width="1" fill="none" fill-rule="evenodd">
        <path d="M96.9844,28.0156 L51.2574,28.0156 L51.2574,42.5786 L57.2234,42.5786 L57.2234,33.5936 C57.2234,33.0406 57.6714,32.5936 58.2234,32.5936 L90.2234,32.5936 C90.7754,32.5936 91.2234,33.0406 91.2234,33.5936 L91.2234,42.5786 L96.9844,42.5786 L96.9844,28.0156 Z M60.0234,42.5786 L88.4234,42.5786 L88.4234,35.3936 L60.0234,35.3936 L60.0234,42.5786 Z M51.2574,60.1566 L96.9844,60.1566 L96.9844,45.5936 L51.2574,45.5936 L51.2574,60.1566 Z M84.6794,63.1716 L82.6954,63.1716 L82.6954,70.9926 C82.6954,71.5396 83.1394,71.9846 83.6874,71.9846 C84.2354,71.9846 84.6794,71.5396 84.6794,70.9926 L84.6794,63.1716 Z M3.0154,36.9996 L48.2424,36.9996 L48.2424,28.0156 L3.0154,28.0156 L3.0154,36.9996 Z M48.2424,40.0156 L44.2774,40.0156 L47.8284,60.1566 L48.2424,60.1566 L48.2424,40.0156 Z M41.6094,40.0156 L41.6094,60.1566 L46.9034,60.1566 L43.3514,40.0156 L41.6094,40.0156 Z M31.9614,60.1566 L35.7624,60.1566 L32.2114,40.0156 L31.9614,40.0156 L31.9614,60.1566 Z M33.1364,40.0156 L36.6874,60.1566 L37.6774,60.1566 L34.1264,40.0156 L33.1364,40.0156 Z M38.5934,40.0156 L35.0504,40.0156 L38.5934,60.1066 L38.5934,40.0156 Z M22.3124,60.1566 L28.9454,60.1566 L28.9454,40.0156 L22.3124,40.0156 L22.3124,60.1566 Z M19.2964,40.0156 L19.0344,40.0156 L15.4824,60.1566 L19.2964,60.1566 L19.2964,40.0156 Z M17.3044,63.1716 L15.3204,63.1716 L15.3204,70.9926 C15.3204,71.5396 15.7644,71.9846 16.3124,71.9846 C16.8604,71.9846 17.3044,71.5396 17.3044,70.9926 L17.3044,63.1716 Z M14.5584,60.1566 L18.1094,40.0156 L12.6644,40.0156 L12.6644,60.1566 L14.5584,60.1566 Z M9.6484,40.0156 L8.4044,40.0156 L4.8534,60.1566 L9.6484,60.1566 L9.6484,40.0156 Z M3.0154,60.1566 L3.9274,60.1566 L7.4794,40.0156 L3.0154,40.0156 L3.0154,60.1566 Z M100.0004,26.9996 L100.0004,61.1716 C100.0004,62.2766 99.1044,63.1716 98.0004,63.1716 L87.6954,63.1716 L87.6954,70.9926 C87.6954,73.2056 85.9004,74.9996 83.6874,74.9996 C81.4744,74.9996 79.6794,73.2056 79.6794,70.9926 L79.6794,63.1716 L20.3204,63.1716 L20.3204,70.9926 C20.3204,73.2056 18.5254,74.9996 16.3124,74.9996 C14.0994,74.9996 12.3044,73.2056 12.3044,70.9926 L12.3044,63.1716 L2.0004,63.1716 C0.8954,63.1716 0.0004,62.2766 0.0004,61.1716 L0.0004,26.9996 C0.0004,25.9006 0.9004,24.9996 2.0004,24.9996 L98.0004,24.9996 C99.0994,24.9996 100.0004,25.9006 100.0004,26.9996 L100.0004,26.9996 Z M80.8514,39.9946 C81.6254,39.9946 82.2524,39.3686 82.2524,38.5946 C82.2524,37.8216 81.6254,37.1946 80.8514,37.1946 C80.0784,37.1946 79.4514,37.8216 79.4514,38.5946 C79.4514,39.3686 80.0784,39.9946 80.8514,39.9946 L80.8514,39.9946 Z M77.1214,39.9946 C77.8944,39.9946 78.5214,39.3686 78.5214,38.5946 C78.5214,37.8216 77.8944,37.1946 77.1214,37.1946 C76.3474,37.1946 75.7204,37.8216 75.7204,38.5946 C75.7204,39.3686 76.3474,39.9946 77.1214,39.9946 L77.1214,39.9946 Z M84.5824,39.9946 C85.3554,39.9946 85.9824,39.3686 85.9824,38.5946 C85.9824,37.8216 85.3554,37.1946 84.5824,37.1946 C83.8084,37.1946 83.1814,37.8216 83.1814,38.5946 C83.1814,39.3686 83.8084,39.9946 84.5824,39.9946 L84.5824,39.9946 Z M62.2994,38.5946 C62.2994,37.8216 62.9254,37.1946 63.6994,37.1946 L72.8244,37.1946 C73.5964,37.1946 74.2234,37.8216 74.2234,38.5946 C74.2234,39.3686 73.5964,39.9946 72.8244,39.9946 L63.6994,39.9946 C62.9254,39.9946 62.2994,39.3686 62.2994,38.5946 L62.2994,38.5946 Z" id="icon_stereo-cabinet" fill="#3A4B60"></path>
    </g>
</svg>