<?xml version="1.0" encoding="UTF-8"?>
<svg width="100px" height="100px" viewBox="0 0 100 100" version="1.1" xmlns="http://www.w3.org/2000/svg" xmlns:xlink="http://www.w3.org/1999/xlink">
    <title>icon / furniture / stereo-system</title>
    <g id="icon-/-furniture-/-stereo-system" stroke="none" stroke-width="1" fill="none" fill-rule="evenodd" fill-opacity="0.95">
        <path d="M55.1836,54.4273 L44.8166,54.4273 C43.9216,54.4273 43.1966,55.1533 43.1966,56.0473 C43.1966,56.9423 43.9216,57.6673 44.8166,57.6673 L55.1836,57.6673 C56.0786,57.6673 56.8036,56.9423 56.8036,56.0473 C56.8036,55.1533 56.0786,54.4273 55.1836,54.4273 L55.1836,54.4273 Z M55.1836,59.6113 L44.8166,59.6113 C43.9216,59.6113 43.1966,60.3363 43.1966,61.2313 C43.1966,62.1253 43.9216,62.8513 44.8166,62.8513 L55.1836,62.8513 C56.0786,62.8513 56.8036,62.1253 56.8036,61.2313 C56.8036,60.3363 56.0786,59.6113 55.1836,59.6113 L55.1836,59.6113 Z M81.1016,59.6113 C80.0886,59.6113 79.2656,58.7873 79.2656,57.7753 C79.2656,56.7633 80.0886,55.9393 81.1016,55.9393 C82.1146,55.9393 82.9376,56.7633 82.9376,57.7753 C82.9376,58.7873 82.1146,59.6113 81.1016,59.6113 L81.1016,59.6113 Z M81.1016,52.6993 C78.3026,52.6993 76.0266,54.9773 76.0266,57.7753 C76.0266,60.5733 78.3026,62.8513 81.1016,62.8513 C83.9006,62.8513 86.1766,60.5733 86.1766,57.7753 C86.1766,54.9773 83.9006,52.6993 81.1016,52.6993 L81.1016,52.6993 Z M81.1016,33.4773 C82.1146,33.4773 82.9376,34.3003 82.9376,35.3133 C82.9376,36.3253 82.1146,37.1493 81.1016,37.1493 C80.0886,37.1493 79.2656,36.3253 79.2656,35.3133 C79.2656,34.3003 80.0886,33.4773 81.1016,33.4773 L81.1016,33.4773 Z M81.1016,40.3893 C83.9006,40.3893 86.1766,38.1123 86.1766,35.3133 C86.1766,32.5143 83.9006,30.2383 81.1016,30.2383 C78.3026,30.2383 76.0266,32.5143 76.0266,35.3133 C76.0266,38.1123 78.3026,40.3893 81.1016,40.3893 L81.1016,40.3893 Z M81.1016,66.5233 C76.2786,66.5233 72.3546,62.5983 72.3546,57.7753 C72.3546,52.9513 76.2786,49.0283 81.1016,49.0283 C85.9246,49.0283 89.8486,52.9513 89.8486,57.7753 C89.8486,62.5983 85.9246,66.5233 81.1016,66.5233 L81.1016,66.5233 Z M81.1016,45.7883 C74.4926,45.7883 69.1146,51.1653 69.1146,57.7753 C69.1146,64.3853 74.4926,69.7623 81.1016,69.7623 C87.7106,69.7623 93.0886,64.3853 93.0886,57.7753 C93.0886,51.1653 87.7106,45.7883 81.1016,45.7883 L81.1016,45.7883 Z M96.7606,74.9243 C96.7606,75.9373 95.9366,76.7603 94.9246,76.7603 L67.2786,76.7603 C66.2666,76.7603 65.4426,75.9373 65.4426,74.9243 L65.4426,54.3203 L65.4426,25.0753 C65.4426,24.0633 66.2666,23.2403 67.2786,23.2403 L94.9246,23.2403 C95.9366,23.2403 96.7606,24.0633 96.7606,25.0753 L96.7606,74.9243 Z M60.3676,76.7603 L58.5316,76.7603 L58.5316,68.1423 C58.5316,66.2963 57.0296,64.7943 55.1836,64.7943 L44.8166,64.7943 C42.9706,64.7943 41.4686,66.2963 41.4686,68.1423 L41.4686,76.7603 L39.6326,76.7603 C38.6206,76.7603 37.7966,75.9373 37.7966,74.9243 L37.7966,54.3203 C37.7966,53.3073 38.6206,52.4843 39.6326,52.4843 L60.3676,52.4843 C61.3796,52.4843 62.2036,53.3073 62.2036,54.3203 L62.2036,74.9243 C62.2036,75.9373 61.3796,76.7603 60.3676,76.7603 L60.3676,76.7603 Z M55.2916,76.7603 L44.7086,76.7603 L44.7086,68.1423 C44.7086,68.0833 44.7566,68.0343 44.8166,68.0343 L55.1836,68.0343 C55.2436,68.0343 55.2916,68.0833 55.2916,68.1423 L55.2916,76.7603 Z M32.7216,76.7603 L5.0756,76.7603 C4.0636,76.7603 3.2396,75.9373 3.2396,74.9243 L3.2396,25.0753 C3.2396,24.0633 4.0636,23.2403 5.0756,23.2403 L32.7216,23.2403 C33.7336,23.2403 34.5576,24.0633 34.5576,25.0753 L34.5576,54.3203 L34.5576,74.9243 C34.5576,75.9373 33.7336,76.7603 32.7216,76.7603 L32.7216,76.7603 Z M94.9246,19.9993 L67.2786,19.9993 C64.4796,19.9993 62.2036,22.2773 62.2036,25.0753 L62.2036,49.5893 C61.6326,49.3663 61.0146,49.2433 60.3676,49.2433 L39.6326,49.2433 C38.9856,49.2433 38.3666,49.3663 37.7966,49.5893 L37.7966,25.0753 C37.7966,22.2773 35.5196,19.9993 32.7216,19.9993 L5.0756,19.9993 C2.2766,19.9993 -0.0004,22.2773 -0.0004,25.0753 L-0.0004,74.9243 C-0.0004,77.7233 2.2766,79.9993 5.0756,79.9993 L32.7216,79.9993 C34.0556,79.9993 35.2696,79.4823 36.1776,78.6373 C37.0836,79.4823 38.2986,79.9993 39.6326,79.9993 L60.3676,79.9993 C61.7016,79.9993 62.9156,79.4823 63.8236,78.6373 C64.7296,79.4823 65.9446,79.9993 67.2786,79.9993 L94.9246,79.9993 C97.7226,79.9993 99.9996,77.7233 99.9996,74.9243 L99.9996,25.0753 C99.9996,22.2773 97.7226,19.9993 94.9246,19.9993 L94.9246,19.9993 Z M18.8986,59.6113 C17.8866,59.6113 17.0626,58.7873 17.0626,57.7753 C17.0626,56.7633 17.8866,55.9393 18.8986,55.9393 C19.9106,55.9393 20.7346,56.7633 20.7346,57.7753 C20.7346,58.7873 19.9106,59.6113 18.8986,59.6113 L18.8986,59.6113 Z M18.8986,52.6993 C16.0996,52.6993 13.8226,54.9773 13.8226,57.7753 C13.8226,60.5733 16.0996,62.8513 18.8986,62.8513 C21.6976,62.8513 23.9746,60.5733 23.9746,57.7753 C23.9746,54.9773 21.6976,52.6993 18.8986,52.6993 L18.8986,52.6993 Z M18.8986,33.4773 C19.9106,33.4773 20.7346,34.3003 20.7346,35.3133 C20.7346,36.3253 19.9106,37.1493 18.8986,37.1493 C17.8866,37.1493 17.0626,36.3253 17.0626,35.3133 C17.0626,34.3003 17.8866,33.4773 18.8986,33.4773 L18.8986,33.4773 Z M18.8986,40.3893 C21.6976,40.3893 23.9746,38.1123 23.9746,35.3133 C23.9746,32.5143 21.6976,30.2383 18.8986,30.2383 C16.0996,30.2383 13.8226,32.5143 13.8226,35.3133 C13.8226,38.1123 16.0996,40.3893 18.8986,40.3893 L18.8986,40.3893 Z M18.8986,66.5233 C14.0756,66.5233 10.1516,62.5983 10.1516,57.7753 C10.1516,52.9513 14.0756,49.0283 18.8986,49.0283 C23.7216,49.0283 27.6456,52.9513 27.6456,57.7753 C27.6456,62.5983 23.7216,66.5233 18.8986,66.5233 L18.8986,66.5233 Z M18.8986,45.7883 C12.2886,45.7883 6.9116,51.1653 6.9116,57.7753 C6.9116,64.3853 12.2886,69.7623 18.8986,69.7623 C25.5086,69.7623 30.8856,64.3853 30.8856,57.7753 C30.8856,51.1653 25.5086,45.7883 18.8986,45.7883 L18.8986,45.7883 Z" id="icon_stereo-system" fill="#3A4B60" fill-rule="nonzero"></path>
    </g>
</svg>