<?xml version="1.0" encoding="UTF-8"?>
<svg width="100px" height="100px" viewBox="0 0 100 100" version="1.1" xmlns="http://www.w3.org/2000/svg" xmlns:xlink="http://www.w3.org/1999/xlink">
    <title>icon / furniture / stroller</title>
    <g id="icon-/-furniture-/-stroller" stroke="none" stroke-width="1" fill="none" fill-rule="evenodd">
        <path d="M11.2302,97.0703 C13.6852,97.0703 15.9922,95.9633 17.5502,94.1403 L11.2302,94.1403 C8.2692,94.1403 5.8592,91.7313 5.8592,88.7693 C5.8592,85.8073 8.2692,83.3983 11.2302,83.3983 L17.5522,83.3983 C15.9962,81.5733 13.6912,80.4683 11.2302,80.4683 C6.6532,80.4683 2.9302,84.1923 2.9302,88.7693 C2.9302,93.3463 6.6532,97.0703 11.2302,97.0703 L11.2302,97.0703 Z M88.7692,91.2113 C90.1162,91.2113 91.2102,90.1153 91.2102,88.7693 C91.2102,87.4233 90.1162,86.3283 88.7692,86.3283 L11.2302,86.3283 C9.8842,86.3283 8.7892,87.4233 8.7892,88.7693 C8.7892,90.1153 9.8842,91.2113 11.2302,91.2113 L88.7692,91.2113 Z M88.7692,97.0703 C93.3462,97.0703 97.0702,93.3463 97.0702,88.7693 C97.0702,84.1923 93.3462,80.4683 88.7692,80.4683 C86.3092,80.4683 84.0042,81.5733 82.4482,83.3983 L88.7692,83.3983 C91.7312,83.3983 94.1402,85.8073 94.1402,88.7693 C94.1402,91.7313 91.7312,94.1403 88.7692,94.1403 L82.4392,94.1403 C83.9932,95.9813 86.2762,97.0703 88.7692,97.0703 L88.7692,97.0703 Z M74.1752,72.3403 C72.7262,73.2223 71.2242,74.0233 69.6752,74.7453 L78.3282,83.3983 L78.9062,83.3983 C79.6402,82.0543 80.6322,80.8933 81.8032,79.9683 L74.1752,72.3403 Z M80.1632,64.0523 C79.9592,63.8083 79.7682,63.5533 79.5922,63.2883 C78.0042,65.6883 75.2812,67.2753 72.1942,67.2753 C69.1072,67.2753 66.3832,65.6883 64.7962,63.2883 C63.2092,65.6883 60.4852,67.2753 57.3982,67.2753 C54.3112,67.2753 51.5872,65.6883 50.0012,63.2883 C48.4132,65.6883 45.6892,67.2753 42.6022,67.2753 C39.5152,67.2753 36.7922,65.6883 35.2052,63.2883 C33.6172,65.6883 30.8932,67.2753 27.8062,67.2753 C24.7192,67.2753 21.9962,65.6883 20.4092,63.2883 C20.2332,63.5533 20.0412,63.8073 19.8382,64.0523 C27.9932,71.8843 38.6642,76.1853 50.0012,76.1853 C61.3432,76.1853 72.0082,71.8853 80.1632,64.0523 L80.1632,64.0523 Z M81.0562,58.4123 C81.0562,61.6833 83.7182,64.3453 86.9902,64.3453 C90.2612,64.3453 92.9232,61.6833 92.9232,58.4123 L92.9232,46.2043 L7.0772,46.2043 L7.0772,58.4123 C7.0772,61.6833 9.7392,64.3453 13.0102,64.3453 C16.2822,64.3453 18.9432,61.6833 18.9432,58.4123 C18.9432,57.6033 19.5992,56.9473 20.4082,56.9473 C21.2172,56.9473 21.8732,57.6033 21.8732,58.4123 C21.8732,61.6833 24.5352,64.3453 27.8062,64.3453 C31.0782,64.3453 33.7392,61.6833 33.7392,58.4123 C33.7392,57.6033 34.3952,56.9473 35.2042,56.9473 C36.0132,56.9473 36.6682,57.6033 36.6682,58.4123 C36.6682,61.6833 39.3312,64.3453 42.6022,64.3453 C45.8742,64.3453 48.5352,61.6833 48.5352,58.4123 C48.5352,57.6033 49.1912,56.9473 50.0002,56.9473 C50.8092,56.9473 51.4642,57.6033 51.4642,58.4123 C51.4642,61.6833 54.1262,64.3453 57.3982,64.3453 C60.6692,64.3453 63.3312,61.6833 63.3312,58.4123 C63.3312,57.6033 63.9872,56.9473 64.7952,56.9473 C65.6052,56.9473 66.2602,57.6033 66.2602,58.4123 C66.2602,61.6833 68.9222,64.3453 72.1942,64.3453 C75.4652,64.3453 78.1262,61.6833 78.1262,58.4123 C78.1262,57.6033 78.7832,56.9473 79.5912,56.9473 C80.4012,56.9473 81.0562,57.6033 81.0562,58.4123 L81.0562,58.4123 Z M94.6282,43.2753 C95.9752,43.2753 97.0702,42.1793 97.0702,40.8333 C97.0702,39.4873 95.9752,38.3923 94.6282,38.3923 L5.3722,38.3923 C4.0252,38.3923 2.9302,39.4873 2.9302,40.8333 C2.9302,42.1793 4.0252,43.2753 5.3722,43.2753 L94.6282,43.2753 Z M92.3592,20.8553 L94.6282,20.8553 C95.9752,20.8553 97.0702,19.7603 97.0702,18.4133 C97.0702,17.0673 95.9752,15.9723 94.6282,15.9723 L92.3592,15.9723 C86.7052,15.9723 82.1052,20.5723 82.1052,26.2263 L82.1052,35.4623 L86.9882,35.4623 L86.9882,26.2263 C86.9882,23.2643 89.3972,20.8553 92.3592,20.8553 L92.3592,20.8553 Z M20.1682,3.6423 C19.2172,2.6913 17.6682,2.6913 16.7162,3.6423 C15.7642,4.5943 15.7642,6.1433 16.7162,7.0953 L45.0832,35.4623 L51.9882,35.4623 L20.1682,3.6423 Z M6.8612,35.4623 L40.9392,35.4623 L15.9172,10.4403 C10.3612,17.5903 7.1682,26.3993 6.8612,35.4623 L6.8612,35.4623 Z M74.1842,83.3983 L66.7722,75.9863 C61.4182,78.0613 55.7832,79.1153 50.0002,79.1153 C44.2182,79.1153 38.5832,78.0623 33.2272,75.9863 L25.8152,83.3983 L74.1842,83.3983 Z M18.1962,79.9683 C19.3682,80.8943 20.3602,82.0543 21.0932,83.3983 L21.6722,83.3983 L30.3242,74.7463 C28.7762,74.0233 27.2752,73.2213 25.8262,72.3393 L18.1962,79.9683 Z M11.2302,77.5383 C12.7542,77.5383 14.2342,77.8523 15.5932,78.4283 L23.3212,70.7003 C21.3062,69.2873 19.4012,67.7103 17.6172,65.9773 C16.2732,66.7993 14.6972,67.2753 13.0102,67.2753 C8.1242,67.2753 4.1472,63.2993 4.1472,58.4123 L4.1472,46.0623 C1.7742,45.5073 0.0002,43.3743 0.0002,40.8333 C0.0002,38.3723 1.6652,36.2943 3.9262,35.6613 C4.1982,25.7123 7.7252,16.0323 13.9122,8.2513 C12.5902,6.1743 12.8342,3.3823 14.6452,1.5703 C16.7392,-0.5237 20.1462,-0.5237 22.2412,1.5703 L56.1022,35.4333 C56.1112,35.4423 56.1192,35.4523 56.1282,35.4623 L79.1752,35.4623 L79.1752,26.2263 C79.1752,18.9563 85.0892,13.0423 92.3592,13.0423 L94.6282,13.0423 C97.5902,13.0423 100.0002,15.4513 100.0002,18.4133 C100.0002,21.3753 97.5902,23.7843 94.6282,23.7843 L92.3592,23.7843 C91.0132,23.7843 89.9182,24.8803 89.9182,26.2263 L89.9182,35.4623 L94.6282,35.4623 C97.5902,35.4623 100.0002,37.8713 100.0002,40.8333 C100.0002,43.3743 98.2262,45.5063 95.8532,46.0623 L95.8532,58.4113 C95.8532,63.2993 91.8762,67.2753 86.9902,67.2753 C85.3032,67.2753 83.7272,66.7993 82.3842,65.9783 C80.6002,67.7113 78.6942,69.2863 76.6782,70.6993 L84.4062,78.4273 C85.7652,77.8523 87.2462,77.5383 88.7692,77.5383 C94.9622,77.5383 100.0002,82.5763 100.0002,88.7693 C100.0002,94.9623 94.9622,100.0003 88.7692,100.0003 C84.6112,100.0003 80.8772,97.7673 78.9062,94.1403 L21.0932,94.1403 C19.1382,97.7183 15.3342,100.0003 11.2302,100.0003 C5.0382,100.0003 0.0002,94.9623 0.0002,88.7693 C0.0002,82.5763 5.0382,77.5383 11.2302,77.5383 L11.2302,77.5383 Z" id="icon_stroller" fill="#3A4B60"></path>
    </g>
</svg>