<?xml version="1.0" encoding="UTF-8"?>
<svg width="100px" height="100px" viewBox="0 0 100 100" version="1.1" xmlns="http://www.w3.org/2000/svg" xmlns:xlink="http://www.w3.org/1999/xlink">
    <title>icon / furniture / suitcase</title>
    <g id="icon-/-furniture-/-suitcase" stroke="none" stroke-width="1" fill="none" fill-rule="evenodd">
        <path d="M75.6694,64.0007 L74.4594,64.4037 L74.4594,49.7387 L75.6694,50.1427 C76.6194,50.4587 77.2574,51.3447 77.2574,52.3457 L77.2574,61.7977 C77.2574,62.7987 76.6194,63.6837 75.6694,64.0007 L75.6694,64.0007 Z M67.5464,97.2577 C65.2484,97.2577 63.3774,95.3877 63.3774,93.0877 C63.3774,90.7887 65.2484,88.9177 67.5464,88.9177 C69.8464,88.9177 71.7164,90.7887 71.7164,93.0877 C71.7164,95.3877 69.8464,97.2577 67.5464,97.2577 L67.5464,97.2577 Z M61.7594,89.3147 L58.6054,89.3147 C60.1044,85.7917 63.6264,83.3767 67.5464,83.3767 L71.7164,83.3767 C71.7154,84.6557 71.3144,85.8657 70.5734,86.8747 C69.6584,86.4277 68.6314,86.1757 67.5464,86.1757 C65.1274,86.1757 62.9954,87.4267 61.7594,89.3147 L61.7594,89.3147 Z M38.7774,89.3147 C37.1514,84.2247 32.3284,80.6347 26.9134,80.6347 L22.7424,80.6347 L22.7424,31.1387 C22.7424,27.8617 25.4084,25.1957 28.6854,25.1957 L65.7744,25.1957 C69.0504,25.1957 71.7164,27.8617 71.7164,31.1387 L71.7164,80.6347 L67.5464,80.6347 C62.1314,80.6347 57.3094,84.2247 55.6824,89.3147 L38.7774,89.3147 Z M32.7004,89.3147 C31.4654,87.4267 29.3334,86.1757 26.9134,86.1757 C25.8284,86.1757 24.8004,86.4277 23.8864,86.8747 C23.1454,85.8657 22.7444,84.6547 22.7434,83.3767 L26.9134,83.3767 C30.8354,83.3767 34.3564,85.7917 35.8554,89.3147 L32.7004,89.3147 Z M26.9134,97.2577 C24.6144,97.2577 22.7434,95.3877 22.7434,93.0877 C22.7434,90.7887 24.6144,88.9177 26.9134,88.9177 C29.2124,88.9177 31.0834,90.7887 31.0834,93.0877 C31.0834,95.3877 29.2124,97.2577 26.9134,97.2577 L26.9134,97.2577 Z M37.1504,22.4537 L39.2104,22.4537 L39.2104,9.0217 L37.1504,9.0217 L37.1504,22.4537 Z M41.9524,22.4537 L52.5084,22.4537 L52.5084,9.0217 L41.9524,9.0217 L41.9524,22.4537 Z M55.2514,22.4537 L57.3104,22.4537 L57.3104,9.0217 L55.2514,9.0217 L55.2514,22.4537 Z M33.8254,6.2797 L60.6344,6.2797 L60.6344,2.7427 L33.8254,2.7427 L33.8254,6.2797 Z M76.5364,47.5407 L74.4594,46.8487 L74.4594,31.1387 C74.4594,26.3507 70.5634,22.4537 65.7744,22.4537 L60.0524,22.4537 L60.0524,9.0217 L62.0064,9.0217 C62.7634,9.0217 63.3774,8.4087 63.3774,7.6507 L63.3774,1.3717 C63.3774,0.6137 62.7634,-0.0003 62.0064,-0.0003 L32.4544,-0.0003 C31.6974,-0.0003 31.0834,0.6137 31.0834,1.3717 L31.0834,7.6507 C31.0834,8.4087 31.6974,9.0217 32.4544,9.0217 L34.4074,9.0217 L34.4074,22.4537 L28.6854,22.4537 C23.8964,22.4537 20.0004,26.3507 20.0004,31.1387 L20.0004,83.3727 C20.0004,85.2667 20.6004,87.0587 21.7094,88.5457 C20.6474,89.7617 20.0014,91.3507 20.0014,93.0877 C20.0014,96.8987 23.1014,99.9997 26.9134,99.9997 C30.7244,99.9997 33.8254,96.8987 33.8254,93.0877 C33.8254,92.7377 33.7984,92.3937 33.7484,92.0577 L60.7114,92.0577 C60.6614,92.3937 60.6344,92.7377 60.6344,93.0877 C60.6344,96.8987 63.7354,99.9997 67.5464,99.9997 C71.3584,99.9997 74.4594,96.8987 74.4594,93.0877 C74.4594,91.3497 73.8134,89.7607 72.7494,88.5447 C73.8584,87.0587 74.4594,85.2667 74.4594,83.3717 L74.4594,67.2947 L76.5364,66.6027 C78.6084,65.9117 80.0004,63.9797 80.0004,61.7967 L80.0004,52.3467 C80.0004,50.1617 78.6084,48.2307 76.5364,47.5407 L76.5364,47.5407 Z M64.1444,75.1997 C64.1444,75.9557 63.5284,76.5707 62.7734,76.5707 L62.7164,76.5707 C61.9614,76.5707 61.3454,75.9557 61.3454,75.1997 L61.3454,34.1417 C61.3454,33.3847 61.9614,32.7707 62.7164,32.7707 L62.7734,32.7707 C63.5284,32.7707 64.1444,33.3847 64.1444,34.1417 L64.1444,75.1997 Z M62.7734,30.0267 L62.7164,30.0267 C60.4484,30.0267 58.6034,31.8727 58.6034,34.1417 L58.6034,75.1997 C58.6034,77.4687 60.4484,79.3137 62.7164,79.3137 L62.7734,79.3137 C65.0414,79.3137 66.8864,77.4687 66.8864,75.1997 L66.8864,34.1417 C66.8864,31.8727 65.0414,30.0267 62.7734,30.0267 L62.7734,30.0267 Z M53.8004,34.1417 L53.8004,75.1997 C53.8004,75.9557 53.1864,76.5707 52.4294,76.5707 L52.3744,76.5707 C51.6174,76.5707 51.0024,75.9557 51.0024,75.1997 L51.0024,34.1417 C51.0024,33.3847 51.6174,32.7707 52.3744,32.7707 L52.4294,32.7707 C53.1864,32.7707 53.8004,33.3847 53.8004,34.1417 L53.8004,34.1417 Z M52.3744,30.0267 C50.1054,30.0267 48.2594,31.8727 48.2594,34.1417 L48.2594,75.1997 C48.2594,77.4687 50.1054,79.3137 52.3744,79.3137 L52.4294,79.3137 C54.6984,79.3137 56.5434,77.4687 56.5434,75.1997 L56.5434,34.1417 C56.5434,31.8727 54.6984,30.0267 52.4294,30.0267 L52.3744,30.0267 Z M43.4584,34.1417 L43.4584,75.1997 C43.4584,75.9557 42.8424,76.5707 42.0864,76.5707 L42.0304,76.5707 C41.2744,76.5707 40.6594,75.9557 40.6594,75.1997 L40.6594,34.1417 C40.6594,33.3847 41.2744,32.7707 42.0304,32.7707 L42.0864,32.7707 C42.8424,32.7707 43.4584,33.3847 43.4584,34.1417 L43.4584,34.1417 Z M42.0304,30.0267 C39.7624,30.0267 37.9174,31.8727 37.9174,34.1417 L37.9174,75.1997 C37.9174,77.4687 39.7624,79.3137 42.0304,79.3137 L42.0864,79.3137 C44.3554,79.3137 46.2004,77.4687 46.2004,75.1997 L46.2004,34.1417 C46.2004,31.8727 44.3554,30.0267 42.0864,30.0267 L42.0304,30.0267 Z M33.1144,75.1997 C33.1144,75.9557 32.4994,76.5707 31.7434,76.5707 L31.6874,76.5707 C30.9314,76.5707 30.3164,75.9557 30.3164,75.1997 L30.3164,34.1417 C30.3164,33.3847 30.9314,32.7707 31.6874,32.7707 L31.7434,32.7707 C32.4994,32.7707 33.1144,33.3847 33.1144,34.1417 L33.1144,75.1997 Z M31.7434,30.0267 L31.6874,30.0267 C29.4194,30.0267 27.5734,31.8727 27.5734,34.1417 L27.5734,75.1997 C27.5734,77.4687 29.4194,79.3137 31.6874,79.3137 L31.7434,79.3137 C34.0124,79.3137 35.8574,77.4687 35.8574,75.1997 L35.8574,34.1417 C35.8574,31.8727 34.0124,30.0267 31.7434,30.0267 L31.7434,30.0267 Z M26.9134,91.2407 C27.9334,91.2407 28.7604,92.0677 28.7604,93.0877 C28.7604,94.1077 27.9334,94.9357 26.9134,94.9357 C25.8934,94.9357 25.0664,94.1077 25.0664,93.0877 C25.0664,92.0677 25.8934,91.2407 26.9134,91.2407 L26.9134,91.2407 Z M67.5464,91.2407 C68.5674,91.2407 69.3944,92.0677 69.3944,93.0877 C69.3944,94.1077 68.5674,94.9357 67.5464,94.9357 C66.5264,94.9357 65.7004,94.1077 65.7004,93.0877 C65.7004,92.0677 66.5264,91.2407 67.5464,91.2407 L67.5464,91.2407 Z" id="icon_suitcase" fill="#3A4B60"></path>
    </g>
</svg>