<?xml version="1.0" encoding="UTF-8"?>
<svg width="100px" height="100px" viewBox="0 0 100 100" version="1.1" xmlns="http://www.w3.org/2000/svg" xmlns:xlink="http://www.w3.org/1999/xlink">
    <title>icon / furniture / surfboard</title>
    <g id="icon-/-furniture-/-surfboard" stroke="none" stroke-width="1" fill="none" fill-rule="evenodd">
        <path d="M4.6995,83.3354 C3.3475,86.1814 3.5975,89.4824 5.2395,92.0544 L91.9135,5.3804 C89.3325,3.6764 86.0645,3.3354 83.1495,4.5724 C67.1205,11.3694 47.4985,26.3644 31.6675,43.8514 L31.6735,43.8564 C29.8585,45.8004 28.1585,47.8294 26.4665,49.8344 C17.4195,60.7104 10.0945,71.9804 4.6995,83.3354 L4.6995,83.3354 Z M37.4705,65.2344 C38.7215,66.3204 40.4065,68.0404 41.9695,70.4814 C43.1155,72.2744 44.2965,74.6294 45.1395,77.5704 C51.4135,72.7144 57.4875,67.3304 63.2605,61.5544 C65.7085,59.1034 68.0955,56.6044 70.3885,54.0504 C81.5735,41.5874 90.6375,28.1454 95.4275,16.8504 C96.6645,13.9354 96.3235,10.6674 94.6195,8.0864 L37.4705,65.2344 Z M7.9455,94.7614 C10.5165,96.4014 13.8185,96.6514 16.6645,95.3004 C22.0235,92.7544 27.4315,89.7314 32.7655,86.3144 C29.0435,81.1764 25.3965,79.9674 22.5875,80.1184 L7.9455,94.7614 Z M40.2835,91.9694 C40.5265,92.5204 40.9965,92.5424 41.2555,92.5084 C41.4745,92.4784 41.9985,92.3384 42.0965,91.6814 C42.6495,87.9954 42.6535,84.5614 42.1155,81.3984 C42.0865,81.2944 42.0655,81.1884 42.0545,81.0804 C41.4965,78.0284 40.4305,75.2314 38.8525,72.7144 C37.8665,71.1424 36.8185,69.9204 35.9195,69.0204 C35.4905,68.5914 35.0955,68.2354 34.7565,67.9504 L26.0725,76.6334 C31.5515,77.9994 36.4025,83.2054 40.2835,91.9694 L40.2835,91.9694 Z M28.8255,41.2774 C32.1135,37.6464 35.5375,34.1364 39.0845,30.7504 C46.6015,23.5734 54.6725,16.9324 63.3235,11.1604 C69.1305,7.2874 75.2215,3.7764 81.6545,1.0484 C86.6115,-1.0536 92.2865,0.0614 96.1125,3.8874 C99.9385,7.7134 101.0535,13.3894 98.9515,18.3454 C95.3475,26.8424 90.4055,34.7604 84.9695,42.1944 C78.4045,51.1734 70.9825,59.4804 62.9675,67.1824 C60.2625,69.7804 57.4875,72.3074 54.6415,74.7504 C53.2125,75.9784 51.7645,77.1854 50.2995,78.3684 C49.5705,78.9564 48.8375,79.5394 48.0995,80.1154 C47.8645,80.2994 45.9855,81.5134 46.0145,81.7214 C46.4385,84.7604 46.4795,88.2624 45.8825,92.2484 C45.5625,94.3834 43.9085,96.0124 41.7665,96.3004 C39.6495,96.5864 37.6475,95.4684 36.7845,93.5194 C36.1325,92.0474 35.4735,90.7294 34.8135,89.5474 C29.3485,93.0484 23.8055,96.1454 18.3065,98.7574 C13.4085,101.0844 7.5525,100.0824 3.7345,96.2654 C-0.0825,92.4474 -1.0835,86.5914 1.2425,81.6934 C5.6325,72.4544 11.0495,63.7214 17.1375,55.5104 C20.7995,50.5744 24.7045,45.8294 28.8255,41.2774 L28.8255,41.2774 Z" id="icon_surfboard" fill="#3A4B60"></path>
    </g>
</svg>