<?xml version="1.0" encoding="UTF-8"?>
<svg width="100px" height="100px" viewBox="0 0 100 100" version="1.1" xmlns="http://www.w3.org/2000/svg" xmlns:xlink="http://www.w3.org/1999/xlink">
    <title>icon / furniture / table-saw</title>
    <g id="icon-/-furniture-/-table-saw" stroke="none" stroke-width="1" fill="none" fill-rule="evenodd">
        <path d="M79.0322,44.27475 C79.0322,43.38375 78.3092,42.66175 77.4192,42.66175 C76.5292,42.66175 75.8062,43.38375 75.8062,44.27475 C75.8062,45.16475 76.5292,45.88675 77.4192,45.88675 C78.3092,45.88675 79.0322,45.16475 79.0322,44.27475 L79.0322,44.27475 Z M82.2582,44.27475 C82.2582,46.94175 80.0872,49.11275 77.4192,49.11275 C74.7522,49.11275 72.5812,46.94175 72.5812,44.27475 C72.5812,41.60675 74.7522,39.43575 77.4192,39.43575 C80.0872,39.43575 82.2582,41.60675 82.2582,44.27475 L82.2582,44.27475 Z M40.3222,47.50075 C38.5412,47.50075 37.0962,48.94475 37.0962,50.72575 C37.0962,52.50675 38.5412,53.95175 40.3222,53.95175 C42.1042,53.95175 43.5482,52.50675 43.5482,50.72575 C43.5482,48.94475 42.1042,47.50075 40.3222,47.50075 L40.3222,47.50075 Z M96.7742,31.37175 L3.2252,31.37175 L3.2252,41.04775 L64.5162,41.04775 L64.5162,39.43575 C64.5162,36.76775 66.6862,34.59675 69.3542,34.59675 L85.4832,34.59675 C88.1512,34.59675 90.3222,36.76775 90.3222,39.43575 L90.3222,41.04775 L96.7742,41.04775 L96.7742,31.37175 Z M93.5482,44.27475 L90.3222,44.27475 L90.3222,49.11275 C90.3222,51.21275 88.9702,52.98775 87.0962,53.65475 L87.0962,87.82275 L93.5482,87.82275 L93.5482,44.27475 Z M87.0972,94.27475 L93.5482,94.27475 L93.5482,91.04775 L87.0972,91.04775 L87.0972,94.27475 Z M87.0962,49.11275 L87.0962,39.43575 C87.0962,38.54575 86.3742,37.82275 85.4832,37.82275 L69.3542,37.82275 C68.4652,37.82275 67.7422,38.54575 67.7422,39.43575 L67.7422,49.11275 C67.7422,50.00375 68.4652,50.72575 69.3542,50.72575 L85.4832,50.72575 C86.3742,50.72575 87.0962,50.00375 87.0962,49.11275 L87.0962,49.11275 Z M83.8712,53.95175 L69.3542,53.95175 C66.6822,53.95175 64.5162,51.78575 64.5162,49.11275 L64.5162,44.27475 L16.1292,44.27475 L16.1292,49.11275 L20.9682,49.11275 C21.8582,49.11275 22.5812,49.83575 22.5812,50.72575 C22.5812,51.61675 21.8582,52.33875 20.9682,52.33875 L16.1292,52.33875 L16.1292,57.17675 L83.8712,57.17675 L83.8712,53.95175 Z M59.6782,63.62975 L83.8712,63.62975 L83.8712,60.40375 L59.6782,60.40375 L59.6782,63.62975 Z M83.8712,66.85475 L59.6782,66.85475 L59.6782,68.46775 C59.6782,69.35775 60.3992,70.08075 61.2902,70.08075 L83.8712,70.08075 L83.8712,66.85475 Z M83.8712,73.30675 L76.2872,73.30675 L64.4602,77.33875 L83.8712,83.95675 L83.8712,73.30675 Z M54.9972,74.11275 L59.4632,75.63575 L66.2942,73.30675 L61.2902,73.30675 C60.4772,73.30675 59.7232,73.08575 59.0522,72.73075 L54.9972,74.11275 Z M56.4522,68.46775 L56.4522,60.40375 L16.1292,60.40375 L16.1292,60.86275 L50.0002,72.40975 L56.7572,70.10675 C56.5712,69.59175 56.4522,69.04575 56.4522,68.46775 L56.4522,68.46775 Z M83.8712,87.36275 L16.1292,64.26975 L16.1292,67.31475 L83.8712,90.40875 L83.8712,87.36275 Z M35.5402,77.33875 L16.1292,70.72075 L16.1292,83.95675 L35.5402,77.33875 Z M45.0032,80.56475 L40.5392,79.04275 L16.1292,87.36275 L16.1292,90.40875 L45.0032,80.56475 Z M6.4522,87.82275 L12.9032,87.82275 L12.9032,44.27475 L6.4522,44.27475 L6.4522,87.82275 Z M6.4522,94.27475 L12.9032,94.27475 L12.9032,91.04775 L6.4522,91.04775 L6.4522,94.27475 Z M12.7772,28.14475 L28.1412,28.14475 C28.3432,27.39275 28.6532,26.67775 29.0802,26.01275 C30.4932,23.80775 32.8952,22.49075 35.5052,22.49075 C38.9882,22.49075 41.9902,24.85975 42.8702,28.14475 L58.2222,28.14475 L59.4242,26.67975 L56.7012,24.81875 C56.1532,24.44275 55.9432,23.72675 56.2012,23.11575 L57.4872,20.07875 L54.3502,19.06475 C53.7162,18.86075 53.3112,18.23175 53.3882,17.57075 L53.7642,14.29375 L50.4672,14.20275 C49.8002,14.18275 49.2362,13.69275 49.1242,13.03775 L48.5662,9.78675 L45.3762,10.62575 C44.7382,10.79375 44.0542,10.48375 43.7622,9.88775 L42.3102,6.92775 L39.4892,8.63475 C38.9202,8.98075 38.1792,8.87175 37.7322,8.38275 L35.5002,5.95175 L33.2682,8.38275 C32.8192,8.87375 32.0782,8.97975 31.5112,8.63375 L28.6932,6.92875 L27.2372,9.88775 C26.9442,10.48475 26.2642,10.79775 25.6242,10.62575 L22.4332,9.78775 L21.8762,13.03875 C21.7632,13.69275 21.2002,14.18275 20.5342,14.20275 L17.2352,14.29475 L17.6122,17.57275 C17.6872,18.23275 17.2832,18.86075 16.6502,19.06475 L13.5122,20.07875 L14.7992,23.11475 C15.0562,23.72675 14.8462,24.44275 14.2992,24.81775 L11.5762,26.67975 L12.7772,28.14475 Z M39.8992,28.14475 C39.1372,26.44275 37.4472,25.29375 35.5052,25.29375 C33.9702,25.29375 32.5602,26.00175 31.6372,27.23475 C31.4282,27.51575 31.2612,27.82575 31.1172,28.14475 L39.8992,28.14475 Z M100.0002,29.75775 L100.0002,42.66175 C100.0002,43.55275 99.2792,44.27475 98.3872,44.27475 L96.7742,44.27475 L96.7742,95.88675 C96.7742,96.77975 96.0532,97.50075 95.1612,97.50075 L85.4832,97.50075 C84.5922,97.50075 83.8712,96.77975 83.8712,95.88675 L83.8712,93.81475 L50.0002,82.26775 L16.1292,93.81475 L16.1292,95.88675 C16.1292,96.77975 15.4082,97.50075 14.5162,97.50075 L4.8392,97.50075 C3.9462,97.50075 3.2252,96.77975 3.2252,95.88675 L3.2252,44.27475 L1.6122,44.27475 C0.7202,44.27475 0.0002,43.55275 0.0002,42.66175 L0.0002,29.75775 C0.0002,28.86675 0.7202,28.14475 1.6122,28.14475 L9.1532,28.14475 L8.4402,27.27575 C8.1922,26.97475 8.0812,26.57875 8.1362,26.18975 C8.1922,25.79975 8.4092,25.45175 8.7322,25.23075 L11.7702,23.15275 L10.3362,19.76275 C10.1822,19.40175 10.1882,18.98975 10.3522,18.63275 C10.5122,18.27875 10.8202,18.00475 11.1942,17.88275 L14.6962,16.75175 L14.2762,13.09475 C14.2322,12.70575 14.3542,12.31275 14.6102,12.01775 C14.8662,11.72175 15.2382,11.54575 15.6302,11.53575 L19.3072,11.43275 L19.9292,7.80575 C19.9972,7.41975 20.2232,7.07675 20.5532,6.86475 C20.8822,6.65275 21.2852,6.58675 21.6682,6.68875 L25.2262,7.62375 C25.6542,6.75475 26.6792,4.67075 26.7392,4.55075 C26.8702,4.28575 27.0502,3.91875 27.4662,3.70375 C27.8012,3.53275 28.1952,3.49975 28.5542,3.61575 C28.6612,3.64975 28.8172,3.70075 31.9812,5.64075 L34.4682,2.93175 C34.9972,2.35575 36.0032,2.35675 36.5322,2.93075 L39.0202,5.64275 L42.1692,3.73775 C42.5032,3.53475 42.9102,3.48175 43.2892,3.59175 C43.6652,3.70275 43.9802,3.96775 44.1522,4.31975 L45.7722,7.62375 L49.3332,6.68775 C49.7122,6.58775 50.1172,6.65275 50.4472,6.86475 C50.7762,7.07775 51.0032,7.42075 51.0702,7.80575 L51.6922,11.43275 L55.3702,11.53475 C55.7602,11.54575 56.1312,11.72075 56.3882,12.01675 C56.6452,12.31275 56.7672,12.70575 56.7232,13.09375 L56.3032,16.75175 L59.8042,17.88275 C60.1782,18.00375 60.4842,18.27675 60.6472,18.63175 C60.8102,18.98875 60.8172,19.39975 60.6652,19.76075 L59.2292,23.15275 L62.2672,25.22975 C62.5902,25.45175 62.8062,25.79975 62.8632,26.18775 C62.9192,26.57575 62.8082,26.97175 62.5592,27.27575 L61.8462,28.14475 L98.3872,28.14475 C99.2792,28.14475 100.0002,28.86675 100.0002,29.75775 L100.0002,29.75775 Z M6.4522,36.20975 C6.4522,35.31875 7.1742,34.59675 8.0642,34.59675 L11.2902,34.59675 C12.1802,34.59675 12.9032,35.31875 12.9032,36.20975 C12.9032,37.10075 12.1802,37.82275 11.2902,37.82275 L8.0642,37.82275 C7.1742,37.82275 6.4522,37.10075 6.4522,36.20975 L6.4522,36.20975 Z" id="icon_table-saw" fill="#3A4B60"></path>
    </g>
</svg>