<?xml version="1.0" encoding="UTF-8"?>
<svg width="100px" height="100px" viewBox="0 0 100 100" version="1.1" xmlns="http://www.w3.org/2000/svg" xmlns:xlink="http://www.w3.org/1999/xlink">
    <!-- Generator: Sketch 63.1 (92452) - https://sketch.com -->
    <title>icon / furniture / table</title>
    <desc>Created with Sketch.</desc>
    <g id="icon-/-furniture-/-table" stroke="none" stroke-width="1" fill="none" fill-rule="evenodd">
        <path d="M92.7754,24.7148 L7.2244,24.7148 C4.7494,24.7148 2.7344,22.6998 2.7344,20.2248 C2.7344,17.7488 4.7494,15.7348 7.2244,15.7348 L92.7754,15.7348 C95.2514,15.7348 97.2654,17.7488 97.2654,20.2248 C97.2654,22.6998 95.2514,24.7148 92.7754,24.7148 L92.7754,24.7148 Z M94.2974,81.2858 C94.5414,82.6648 93.6174,83.9838 92.2394,84.2268 C91.5704,84.3458 90.8984,84.1948 90.3424,83.8068 C89.7874,83.4168 89.4174,82.8358 89.2964,82.1548 L79.1014,27.6138 L90.9414,27.6138 L94.2804,81.1338 L94.2974,81.2858 Z M20.8704,33.5008 L21.7914,27.4488 L76.2914,27.4488 L77.4214,33.5008 L20.8704,33.5008 Z M10.7004,82.1678 C10.5834,82.8358 10.2124,83.4168 9.6574,83.8068 C9.1014,84.1948 8.4274,84.3458 7.7604,84.2268 C6.3824,83.9838 5.4594,82.6648 5.7024,81.2858 L9.0584,27.6138 L19.0024,27.6138 L10.7004,82.1678 Z M100.0004,20.2248 C100.0004,16.2408 96.7584,12.9998 92.7754,12.9998 L7.2244,12.9998 C3.2414,12.9998 0.0004,16.2408 0.0004,20.2248 C0.0004,23.9048 2.7704,26.9468 6.3344,27.3888 L2.9964,80.8928 C2.5424,83.7268 4.4504,86.4178 7.2854,86.9188 C7.5944,86.9738 7.9044,86.9998 8.2124,86.9998 C9.2844,86.9998 10.3294,86.6728 11.2244,86.0458 C12.3794,85.2378 13.1484,84.0288 13.3974,82.6108 L20.4544,36.2358 L77.9324,36.2358 L86.6074,82.6438 C86.8514,84.0288 87.6214,85.2378 88.7754,86.0458 C89.6714,86.6728 90.7144,86.9998 91.7884,86.9998 C92.0944,86.9998 92.4054,86.9738 92.7144,86.9188 C95.5494,86.4178 97.4584,83.7268 97.0044,80.8928 L93.6664,27.3888 C97.2294,26.9468 100.0004,23.9048 100.0004,20.2248 L100.0004,20.2248 Z" id="icon_table" fill="#3A4B60"></path>
    </g>
</svg>