<?xml version="1.0" encoding="UTF-8"?>
<svg width="100px" height="100px" viewBox="0 0 100 100" version="1.1" xmlns="http://www.w3.org/2000/svg" xmlns:xlink="http://www.w3.org/1999/xlink">
    <!-- Generator: Sketch 63.1 (92452) - https://sketch.com -->
    <title>icon / furniture / tempurpedic-bed</title>
    <desc>Created with Sketch.</desc>
    <g id="icon-/-furniture-/-tempurpedic-bed" stroke="none" stroke-width="1" fill="none" fill-rule="evenodd">
        <path d="M22.272,25.917 C22.688,25.499 23.242,25.269 23.832,25.269 C24.185,25.269 24.518,25.363 24.824,25.521 L22.903,27.441 L36.035,40.574 L37.949,38.661 L42.159,42.936 L42.982,43.771 L44.154,43.771 L84.14,43.771 L84.14,53.106 L37.767,53.106 C37.188,53.106 36.621,52.871 36.211,52.462 L16.015,32.266 L22.272,25.917 Z M37.987,30.657 C39.093,31.764 39.093,33.557 37.986,34.663 L36.036,36.614 L26.863,27.441 L28.814,25.49 C29.92,24.384 31.714,24.384 32.82,25.49 L37.987,30.657 Z M34.231,54.441 C35.169,55.379 36.441,55.906 37.767,55.906 L84.94,55.906 C86.045,55.906 86.94,55.011 86.94,53.906 L86.94,42.97 C86.94,41.865 86.045,40.97 84.94,40.97 L44.154,40.97 L39.928,36.681 L39.966,36.644 C42.166,34.443 42.166,30.877 39.967,28.677 L34.8,23.511 C32.602,21.313 29.04,21.312 26.84,23.506 C25.95,22.829 24.897,22.468 23.832,22.468 C22.548,22.468 21.264,22.96 20.286,23.943 L13.469,30.859 C12.692,31.642 12.694,32.904 13.473,33.684 L34.231,54.441 Z M92.112,79.328 L96.828,79.328 L96.828,36.673 L92.112,36.673 L92.112,79.328 Z M11.063,69.251 L88.94,69.251 L88.94,61.08 L11.063,61.08 L11.063,69.251 Z M7.851,79.328 L3.174,79.328 L3.174,20.673 L7.891,20.673 L7.851,79.328 Z M90.527,33.5 C89.651,33.5 88.94,34.211 88.94,35.087 L88.94,57.906 L11.063,57.906 L11.063,19.087 C11.063,18.211 10.353,17.5 9.476,17.5 L1.587,17.5 C0.714,17.5 0,18.214 0,19.087 L0,80.914 C0,81.79 0.71,82.5 1.586,82.5 L9.473,82.5 C10.351,82.5 11.063,81.788 11.063,80.91 L11.063,72.424 L88.94,72.424 L88.94,80.91 C88.94,81.788 89.652,82.5 90.53,82.5 L98.414,82.5 C99.29,82.5 100,81.79 100,80.914 L100,35.086 C100,34.21 99.29,33.5 98.414,33.5 L90.527,33.5 Z" id="icon_tempurpedic-bed" fill="#3A4B60"></path>
    </g>
</svg>