<?xml version="1.0" encoding="UTF-8"?>
<svg width="100px" height="100px" viewBox="0 0 100 100" version="1.1" xmlns="http://www.w3.org/2000/svg">
    <title>icon / furniture / tool-box</title>
    <g id="icon-/-furniture-/-tool-box" stroke="none" stroke-width="1" fill="none" fill-rule="evenodd">
        <path d="M84.1115,63.4796 C84.1115,64.2926 83.4525,64.9526 82.6385,64.9526 L71.8175,64.9526 C71.0055,64.9526 70.3455,64.2926 70.3455,63.4796 C70.3455,62.6666 71.0055,62.0066 71.8175,62.0066 L82.6385,62.0066 C83.4525,62.0066 84.1115,62.6666 84.1115,63.4796 L84.1115,63.4796 Z M84.1115,69.6046 C84.1115,70.4166 83.4525,71.0766 82.6385,71.0766 L71.8175,71.0766 C71.0055,71.0766 70.3455,70.4166 70.3455,69.6046 C70.3455,68.7916 71.0055,68.1316 71.8175,68.1316 L82.6385,68.1316 C83.4525,68.1316 84.1115,68.7916 84.1115,69.6046 L84.1115,69.6046 Z M92.0545,95.9036 C92.0545,96.5386 91.5385,97.0546 90.9025,97.0546 L9.0965,97.0546 C8.4625,97.0546 7.9445,96.5386 7.9445,95.9036 L7.9445,23.9616 C7.9445,23.3276 8.4625,22.8096 9.0965,22.8096 L12.4415,22.8096 C13.0295,22.8096 13.4825,23.2946 13.4825,23.8506 L13.4825,49.7736 C13.4825,51.7506 15.0905,53.3596 17.0685,53.3596 L82.9315,53.3596 C84.9085,53.3596 86.5175,51.7506 86.5175,49.7736 L86.5175,23.8506 C86.5175,23.2986 86.9675,22.8096 87.5575,22.8096 L90.9025,22.8096 C91.5385,22.8096 92.0545,23.3276 92.0545,23.9616 L92.0545,95.9036 Z M24.9835,50.4146 L17.0685,50.4146 C16.7205,50.4146 16.4265,50.1216 16.4265,49.7736 L16.4265,40.4166 L24.9835,50.4146 Z M16.4265,30.2066 L20.3285,30.2066 C20.8695,31.7146 22.3095,32.7976 24.0025,32.7976 L27.5875,32.7976 L27.5875,48.9276 L16.4265,35.8866 L16.4265,30.2066 Z M16.4265,27.2616 L20.0955,27.2616 L20.0955,23.9766 L16.4265,23.9766 L16.4265,27.2616 Z M23.0415,22.3456 C23.0415,21.8436 23.4265,21.4316 23.9185,21.3886 C24.9405,22.6896 26.1815,23.8096 27.5875,24.6936 L27.5875,29.8536 L24.0025,29.8536 C23.4715,29.8536 23.0415,29.4226 23.0415,28.8926 L23.0415,22.3456 Z M35.2225,30.6196 C34.4095,30.6196 33.7505,31.2786 33.7505,32.0916 L33.7505,50.4146 L30.5325,50.4146 L30.5325,31.3266 L30.5325,26.1066 C33.5645,27.1566 36.8765,27.1586 39.9135,26.1066 L39.9135,50.4146 L36.6955,50.4146 L36.6955,32.0916 C36.6955,31.2786 36.0365,30.6196 35.2225,30.6196 L35.2225,30.6196 Z M28.0275,3.6416 L28.0275,13.7196 C28.0275,14.7646 28.5905,15.7396 29.4965,16.2626 L33.7555,18.7216 C34.6605,19.2446 35.7855,19.2446 36.6905,18.7216 L40.9495,16.2626 C41.8555,15.7406 42.4185,14.7656 42.4185,13.7196 L42.4185,3.6416 C45.0965,5.8106 46.6605,9.0376 46.6605,12.5136 C46.6605,18.9536 41.3595,23.9516 35.2225,23.9516 C28.9775,23.9516 23.7845,18.8466 23.7845,12.5136 C23.7855,9.0376 25.3485,5.8106 28.0275,3.6416 L28.0275,3.6416 Z M56.6035,21.3846 L56.6035,29.8536 L42.8585,29.8536 L42.8585,24.6946 C44.2655,23.8086 45.5075,22.6876 46.5315,21.3846 L56.6035,21.3846 Z M52.0895,50.4156 L42.8585,50.4156 L42.8585,32.7986 L56.6035,32.7986 L56.6035,44.1226 L56.0175,44.1226 C53.7585,44.1226 51.9215,45.9606 51.9215,48.2196 L51.9215,49.2626 C51.9215,49.6636 51.9805,50.0486 52.0895,50.4156 L52.0895,50.4156 Z M66.2985,47.0676 C66.9335,47.0676 67.4505,47.5836 67.4505,48.2196 L67.4505,49.2626 C67.4505,49.8976 66.9335,50.4146 66.2985,50.4146 L56.0175,50.4146 C55.3825,50.4146 54.8655,49.8976 54.8655,49.2626 L54.8655,48.2196 C54.8655,47.5836 55.3825,47.0676 56.0175,47.0676 L66.2985,47.0676 Z M59.5475,44.1226 L62.7675,44.1226 L62.7675,17.9366 L59.5475,17.9366 L59.5475,44.1226 Z M59.0435,14.9916 L57.9475,12.4636 L64.3685,12.4636 L63.2735,14.9916 L59.0435,14.9916 Z M57.9265,8.1646 L59.2265,2.9476 L63.0895,2.9476 L64.3885,8.1646 C64.5005,8.6106 64.5855,9.0626 64.6425,9.5186 L57.6735,9.5186 C57.7315,9.0626 57.8155,8.6106 57.9265,8.1646 L57.9265,8.1646 Z M65.7125,21.3846 L75.9985,21.3846 C76.5275,21.3846 76.9595,21.8156 76.9595,22.3456 L76.9595,28.8926 C76.9595,29.4226 76.5285,29.8536 75.9985,29.8536 L65.7125,29.8536 L65.7125,21.3846 Z M83.5725,40.4166 L83.5725,49.7736 C83.5725,50.1216 83.2795,50.4146 82.9315,50.4146 L75.0155,50.4146 L83.5725,40.4166 Z M79.6725,30.2066 L83.5725,30.2066 L83.5725,35.8866 L71.1395,50.4146 L70.2275,50.4146 C70.3355,50.0476 70.3955,49.6626 70.3955,49.2626 L70.3955,48.2196 C70.3955,45.9596 68.5575,44.1226 66.2985,44.1226 L65.7135,44.1226 L65.7135,32.7976 L75.9985,32.7976 C77.6905,32.7976 79.1315,31.7146 79.6725,30.2066 L79.6725,30.2066 Z M79.9035,27.2616 L83.5725,27.2616 L83.5725,23.9766 L79.9035,23.9766 L79.9035,27.2616 Z M90.9025,19.8656 L87.5575,19.8656 C86.4605,19.8656 85.4655,20.3106 84.7435,21.0316 L79.6725,21.0316 C79.1305,19.5236 77.6905,18.4396 75.9985,18.4396 L65.7125,18.4396 L65.7125,16.7686 L67.1905,13.3576 C67.5155,12.6056 67.6805,11.8096 67.6805,10.9916 C67.6805,9.7986 67.5345,8.6086 67.2465,7.4526 L65.8405,1.8076 C65.5755,0.7446 64.6255,0.0016 63.5295,0.0016 L58.7865,0.0016 C57.6905,0.0016 56.7405,0.7446 56.4755,1.8076 L55.0695,7.4526 C54.7815,8.6096 54.6345,9.7996 54.6345,10.9916 C54.6345,11.8106 54.8005,12.6066 55.1265,13.3576 L56.6035,16.7686 L56.6035,18.4396 L48.3225,18.4396 C49.1435,16.6306 49.6055,14.6256 49.6055,12.5136 C49.6055,7.5586 47.0855,3.0086 42.8635,0.3446 C41.3935,-0.5834 39.4725,0.4736 39.4725,2.2096 L39.4765,13.7126 L35.2265,16.1706 L30.9715,13.7196 L30.9715,2.2096 C30.9715,0.4796 29.0585,-0.5864 27.5825,0.3446 C23.3605,3.0086 20.8405,7.5586 20.8405,12.5136 C20.8405,14.7796 21.3685,16.9236 22.3055,18.8326 C21.3895,19.2766 20.6745,20.0656 20.3275,21.0316 L15.2575,21.0316 C14.5355,20.3106 13.5395,19.8656 12.4415,19.8656 L9.0965,19.8656 C6.8385,19.8656 5.0005,21.7036 5.0005,23.9616 L5.0005,95.9036 C5.0005,98.1626 6.8385,100.0006 9.0965,100.0006 L90.9025,100.0006 C93.1625,100.0006 95.0005,98.1626 95.0005,95.9036 L95.0005,23.9616 C95.0005,21.7036 93.1625,19.8656 90.9025,19.8656 L90.9025,19.8656 Z"
              id="icon_toolbox" fill="#3A4B60"></path>
    </g>
</svg>