<?xml version="1.0" encoding="UTF-8"?>
<svg width="100px" height="100px" viewBox="0 0 100 100" version="1.1" xmlns="http://www.w3.org/2000/svg" xmlns:xlink="http://www.w3.org/1999/xlink">
    <!-- Generator: Sketch 63.1 (92452) - https://sketch.com -->
    <title>icon / furniture / toy-bin</title>
    <desc>Created with Sketch.</desc>
    <g id="icon-/-furniture-/-toy-bin" stroke="none" stroke-width="1" fill="none" fill-rule="evenodd">
        <path d="M97.5,90 C97.5,90.275 97.275,90.5 97,90.5 L93,90.5 C92.725,90.5 92.5,90.275 92.5,90 L92.5,10 C92.5,9.725 92.725,9.5 93,9.5 L97,9.5 C97.275,9.5 97.5,9.725 97.5,10 L97.5,90 Z M86.25,84.485 L86.25,77.316 L86.25,74.25 L90,74.25 L90,88.101 L86.507,85.05 C86.344,84.907 86.25,84.701 86.25,84.485 L86.25,84.485 Z M79.285,67.31 L54.215,67.31 C52.305,67.31 50.75,68.864 50.75,70.775 C50.75,71.104 50.812,71.431 50.908,71.75 L49.092,71.75 C49.188,71.431 49.25,71.104 49.25,70.775 C49.25,68.864 47.695,67.31 45.785,67.31 L20.715,67.31 C18.805,67.31 17.25,68.864 17.25,70.775 C17.25,71.104 17.312,71.431 17.408,71.75 L16.25,71.75 L16.25,49.25 L20.39,49.25 L21.563,57.698 C21.795,59.754 23.53,61.305 25.6,61.305 L40.9,61.305 C42.97,61.305 44.705,59.754 44.937,57.698 L46.11,49.25 L53.89,49.25 L55.063,57.698 C55.295,59.754 57.03,61.305 59.1,61.305 L74.4,61.305 C76.47,61.305 78.205,59.754 78.437,57.698 L79.61,49.25 L83.75,49.25 L83.75,71.75 L82.592,71.75 C82.688,71.431 82.75,71.104 82.75,70.775 C82.75,68.864 81.195,67.31 79.285,67.31 L79.285,67.31 Z M79.285,71.749 L54.215,71.749 C53.678,71.749 53.241,71.313 53.241,70.775 C53.241,70.238 53.678,69.801 54.215,69.801 L79.285,69.801 C79.822,69.801 80.259,70.238 80.259,70.775 C80.259,71.313 79.822,71.749 79.285,71.749 L79.285,71.749 Z M75.96,82.42 C75.87,83.214 75.2,83.813 74.4,83.813 L59.1,83.813 C58.3,83.813 57.63,83.214 57.54,82.42 L56.396,74.25 L77.104,74.25 L75.96,82.42 Z M45.785,71.749 L20.715,71.749 C20.178,71.749 19.741,71.313 19.741,70.775 C19.741,70.238 20.178,69.801 20.715,69.801 L45.785,69.801 C46.322,69.801 46.759,70.238 46.759,70.775 C46.759,71.313 46.322,71.749 45.785,71.749 L45.785,71.749 Z M42.46,82.42 C42.37,83.214 41.7,83.813 40.9,83.813 L25.6,83.813 C24.8,83.813 24.13,83.214 24.04,82.42 L22.896,74.25 L43.604,74.25 L42.46,82.42 Z M13.75,76.405 L13.75,84.485 C13.75,84.701 13.656,84.907 13.493,85.05 L10,88.101 L10,74.25 L13.75,74.25 L13.75,76.405 Z M3,90.5 C2.725,90.5 2.5,90.275 2.5,90 L2.5,10 C2.5,9.725 2.725,9.5 3,9.5 L7,9.5 C7.275,9.5 7.5,9.725 7.5,10 L7.5,90 C7.5,90.275 7.275,90.5 7,90.5 L3,90.5 Z M13.75,15.573 L13.75,20.272 L13.75,21.75 L10,21.75 L10,11.958 L13.493,15.008 C13.656,15.15 13.75,15.356 13.75,15.573 L13.75,15.573 Z M10,46.75 L13.75,46.75 L13.75,24.25 L10,24.25 L10,46.75 Z M10,71.75 L13.75,71.75 L13.75,49.25 L10,49.25 L10,71.75 Z M43.604,49.25 L42.46,57.42 C42.37,58.214 41.7,58.813 40.9,58.813 L25.6,58.813 C24.8,58.813 24.13,58.214 24.04,57.42 L22.896,49.25 L43.604,49.25 Z M20.715,46.749 C20.178,46.749 19.741,46.312 19.741,45.775 C19.741,45.238 20.178,44.801 20.715,44.801 L45.785,44.801 C46.322,44.801 46.759,45.238 46.759,45.775 C46.759,46.312 46.322,46.749 45.785,46.749 L20.715,46.749 Z M77.104,49.25 L75.96,57.42 C75.87,58.214 75.2,58.813 74.4,58.813 L59.1,58.813 C58.3,58.813 57.63,58.214 57.54,57.42 L56.396,49.25 L77.104,49.25 Z M54.215,46.749 C53.678,46.749 53.241,46.312 53.241,45.775 C53.241,45.238 53.678,44.801 54.215,44.801 L79.285,44.801 C79.822,44.801 80.259,45.238 80.259,45.775 C80.259,46.312 79.822,46.749 79.285,46.749 L54.215,46.749 Z M20.39,24.25 L21.563,32.698 C21.795,34.754 23.53,36.305 25.6,36.305 L40.9,36.305 C42.97,36.305 44.705,34.754 44.937,32.698 L46.11,24.25 L53.89,24.25 L55.063,32.698 C55.295,34.754 57.03,36.305 59.1,36.305 L74.4,36.305 C76.47,36.305 78.205,34.754 78.437,32.698 L79.61,24.25 L83.75,24.25 L83.75,46.75 L82.592,46.75 C82.688,46.431 82.75,46.104 82.75,45.775 C82.75,43.864 81.195,42.31 79.285,42.31 L54.215,42.31 C52.305,42.31 50.75,43.864 50.75,45.775 C50.75,46.104 50.812,46.431 50.908,46.75 L49.092,46.75 C49.188,46.431 49.25,46.104 49.25,45.775 C49.25,43.864 47.695,42.31 45.785,42.31 L20.715,42.31 C18.805,42.31 17.25,43.864 17.25,45.775 C17.25,46.104 17.312,46.431 17.408,46.75 L16.25,46.75 L16.25,24.25 L20.39,24.25 Z M43.604,24.25 L42.46,32.42 C42.37,33.214 41.7,33.813 40.9,33.813 L25.6,33.813 C24.8,33.813 24.13,33.214 24.04,32.42 L22.896,24.25 L43.604,24.25 Z M20.715,19.801 L45.785,19.801 C46.322,19.801 46.759,20.238 46.759,20.775 C46.759,21.312 46.322,21.749 45.785,21.749 L20.715,21.749 C20.178,21.749 19.741,21.312 19.741,20.775 C19.741,20.238 20.178,19.801 20.715,19.801 L20.715,19.801 Z M77.104,24.25 L75.96,32.42 C75.87,33.214 75.2,33.813 74.4,33.813 L59.1,33.813 C58.3,33.813 57.63,33.214 57.54,32.42 L56.396,24.25 L77.104,24.25 Z M54.215,19.801 L79.285,19.801 C79.822,19.801 80.259,20.238 80.259,20.775 C80.259,21.312 79.822,21.749 79.285,21.749 L54.215,21.749 C53.678,21.749 53.241,21.312 53.241,20.775 C53.241,20.238 53.678,19.801 54.215,19.801 L54.215,19.801 Z M86.25,71.75 L90,71.75 L90,49.25 L86.25,49.25 L86.25,71.75 Z M86.25,46.75 L90,46.75 L90,24.25 L86.25,24.25 L86.25,46.75 Z M86.25,21.184 L86.25,15.573 C86.25,15.356 86.344,15.15 86.507,15.008 L90,11.958 L90,21.75 L86.25,21.75 L86.25,21.184 Z M97,7 L93,7 C92.07,7 91.249,7.433 90.699,8.097 L90.665,8.059 L84.862,13.125 C84.155,13.742 83.75,14.635 83.75,15.573 L83.75,21.184 L83.75,21.75 L82.592,21.75 C82.688,21.431 82.75,21.104 82.75,20.775 C82.75,18.864 81.195,17.31 79.285,17.31 L54.215,17.31 C52.305,17.31 50.75,18.864 50.75,20.775 C50.75,21.104 50.812,21.431 50.908,21.75 L49.092,21.75 C49.188,21.431 49.25,21.104 49.25,20.775 C49.25,18.864 47.695,17.31 45.785,17.31 L20.715,17.31 C18.805,17.31 17.25,18.864 17.25,20.775 C17.25,21.104 17.312,21.431 17.408,21.75 L16.25,21.75 L16.25,20.272 L16.25,15.573 C16.25,14.635 15.845,13.742 15.138,13.125 L9.335,8.059 L9.301,8.097 C8.751,7.433 7.93,7 7,7 L3,7 C1.343,7 0,8.343 0,10 L0,90 C0,91.657 1.343,93 3,93 L6.889,93 C7.736,93 8.556,92.692 9.193,92.134 L15.141,86.93 C15.846,86.313 16.25,85.422 16.25,84.485 L16.25,76.405 L16.25,74.25 L20.39,74.25 L21.563,82.698 C21.795,84.754 23.53,86.305 25.6,86.305 L40.9,86.305 C42.97,86.305 44.705,84.754 44.937,82.698 L46.11,74.25 L53.89,74.25 L55.063,82.698 C55.295,84.754 57.03,86.305 59.1,86.305 L74.4,86.305 C76.47,86.305 78.205,84.754 78.437,82.698 L79.61,74.25 L83.75,74.25 L83.75,77.316 L83.75,84.485 C83.75,85.424 84.155,86.315 84.862,86.933 L90.824,92.137 C91.462,92.693 92.28,93 93.126,93 L97,93 C98.657,93 100,91.657 100,90 L100,10 C100,8.343 98.657,7 97,7 L97,7 Z" id="icon_toy-bin" fill="#3A4B60"></path>
    </g>
</svg>