<?xml version="1.0" encoding="UTF-8"?>
<svg width="100px" height="100px" viewBox="0 0 100 100" version="1.1" xmlns="http://www.w3.org/2000/svg" xmlns:xlink="http://www.w3.org/1999/xlink">
    <!-- Generator: Sketch 63.1 (92452) - https://sketch.com -->
    <title>icon / furniture / toy-chest</title>
    <desc>Created with Sketch.</desc>
    <g id="icon-/-furniture-/-toy-chest" stroke="none" stroke-width="1" fill="none" fill-rule="evenodd">
        <path d="M49.8936,63.5322 C50.7036,63.5322 51.3586,62.8772 51.3586,62.0672 L51.3586,56.3812 C51.3586,55.5712 50.7036,54.9162 49.8936,54.9162 C49.0836,54.9162 48.4286,55.5712 48.4286,56.3812 L48.4286,62.0672 C48.4286,62.8772 49.0836,63.5322 49.8936,63.5322 L49.8936,63.5322 Z M97.0706,49.1082 C97.0706,48.9362 96.9296,48.7962 96.7576,48.7962 L58.5846,48.7962 L58.5846,52.7872 L96.7576,52.7872 C96.9296,52.7872 97.0706,52.6472 97.0706,52.4742 L97.0706,49.1082 Z M93.1646,55.7172 L81.9856,55.7172 L81.9856,92.0702 L86.0666,92.0702 C89.9806,92.0702 93.1646,88.8862 93.1646,84.9722 L93.1646,55.7172 Z M72.6976,92.0712 L79.0556,92.0712 L79.0556,55.7172 L72.6976,55.7172 L72.6976,92.0712 Z M69.7686,55.7172 L58.5846,55.7172 L58.5846,65.7962 C58.5846,69.4152 55.6406,72.3592 52.0216,72.3592 L47.7656,72.3592 C44.1466,72.3592 41.2026,69.4152 41.2026,65.7962 L41.2026,55.7172 L30.2326,55.7172 L30.2326,92.0702 L69.7676,92.0702 L69.7686,92.0702 L69.7686,55.7172 Z M20.9446,92.0712 L27.3026,92.0712 L27.3026,55.7172 L20.9446,55.7172 L20.9446,92.0712 Z M18.0136,55.7172 L6.8356,55.7172 L6.8356,84.9722 C6.8356,88.8862 10.0196,92.0702 13.9336,92.0702 L18.0136,92.0702 L18.0136,55.7172 Z M41.2026,52.7872 L41.2026,48.7962 L3.2426,48.7962 C3.0706,48.7962 2.9296,48.9362 2.9296,49.1082 L2.9296,52.4742 C2.9296,52.6472 3.0706,52.7872 3.2426,52.7872 L41.2026,52.7872 Z M6.8356,45.7562 L10.5466,45.7572 L10.5466,22.1642 C10.5466,20.2972 12.0666,18.7772 13.9336,18.7772 L44.9296,18.7772 C45.2136,18.0822 45.5436,17.3892 45.9216,16.7112 C46.0706,16.4432 46.2336,16.1682 46.4066,15.8922 L45.7786,15.0662 L13.9336,15.0662 C10.0196,15.0662 6.8356,18.2512 6.8356,22.1642 L6.8356,45.7562 Z M43.6206,8.5472 L48.9896,15.6042 C49.2216,15.4442 49.7306,15.0472 50.3726,14.2612 C51.0276,13.4572 51.3136,12.8762 51.4196,12.6182 L43.6206,8.5472 Z M49.9266,9.3252 L52.4456,10.6382 C53.1916,10.3912 53.9396,10.2662 54.6726,10.2662 L54.7396,10.2662 C54.7476,10.2122 54.7576,10.1582 54.7676,10.1032 C54.8696,9.5762 55.0816,9.0482 55.4026,8.5302 C54.6146,8.0712 53.8166,7.8602 53.0316,7.9242 C51.5366,8.0282 50.5316,8.7192 49.9266,9.3252 L49.9266,9.3252 Z M55.5796,12.5922 C54.9816,12.4622 54.3556,12.4632 53.7226,12.5942 C53.7186,12.6282 53.7136,12.6612 53.7076,12.6952 C53.4386,14.3582 51.0806,17.2452 49.5036,17.8442 C49.2496,17.9392 49.0016,17.9882 48.7686,17.9882 C48.3896,17.9882 48.1016,17.8642 47.9036,17.7342 C47.8926,17.7542 47.8806,17.7742 47.8706,17.7942 C47.1246,19.1332 46.5786,20.5132 46.2436,21.8992 L54.1956,26.9702 C54.4656,26.7402 54.7276,26.5012 54.9746,26.2562 C55.1846,26.0472 55.4636,25.9312 55.7596,25.9312 C55.8086,25.9312 55.8586,25.9342 55.9066,25.9412 C56.2466,25.9862 56.5516,26.1902 56.7236,26.4862 L59.8896,31.9342 L68.2546,24.6982 L60.2346,15.9132 C59.8526,15.5382 59.0566,14.8002 58.3946,14.2242 C58.1156,13.9822 57.9756,13.6182 58.0196,13.2502 C58.0636,12.8832 58.2866,12.5622 58.6156,12.3922 C59.0336,12.1772 59.3346,11.6812 59.4646,10.9952 C59.6506,10.0162 59.0416,8.8052 58.6776,8.3032 C58.1546,8.6362 57.1446,9.5402 56.9576,10.5192 C56.9006,10.8242 56.8876,11.1082 56.9196,11.3632 C56.9646,11.7202 56.8326,12.0792 56.5676,12.3232 C56.3006,12.5662 55.9316,12.6682 55.5796,12.5922 L55.5796,12.5922 Z M60.8056,13.3892 C61.2086,13.7602 61.5836,14.1132 61.8226,14.3482 C61.8336,14.3592 61.8496,14.3752 61.8636,14.3892 L69.9036,23.1992 C70.7826,22.3802 71.8066,21.1342 71.9136,19.7012 C72.0136,18.3652 71.2686,17.0112 69.6986,15.6772 C67.1126,13.4782 63.8776,12.3322 61.5776,11.7522 C61.4166,12.3832 61.1576,12.9322 60.8056,13.3892 L60.8056,13.3892 Z M70.7976,25.3762 C70.7376,25.4742 70.6646,25.5612 70.5796,25.6362 L69.0216,26.9822 L86.0006,45.7572 L86.5236,45.7572 L86.5236,22.1642 C86.5236,21.9122 86.3186,21.7072 86.0666,21.7072 L73.6856,21.7072 C72.9906,23.3792 71.6706,24.6612 70.7976,25.3762 L70.7976,25.3762 Z M82.9956,45.7572 L67.3346,28.4412 L65.7266,29.8332 L80.1276,45.7572 L82.9956,45.7572 Z M47.1726,28.6742 C48.5786,29.5942 50.7826,29.2912 52.9596,27.8882 L45.9616,23.4252 C45.6606,25.8642 46.1496,28.0062 47.1726,28.6742 L47.1726,28.6742 Z M37.3056,32.6152 L37.4146,33.1692 C37.4546,33.3682 37.6496,33.4982 37.8476,33.4602 C38.9616,33.2392 40.1206,32.4682 40.3446,31.2192 L38.0786,31.3512 C37.5506,31.4812 37.1926,32.0392 37.3056,32.6152 L37.3056,32.6152 Z M36.8316,44.7652 C36.8696,45.0962 36.8376,45.4282 36.7716,45.7572 L40.1366,45.7572 C40.4566,44.7512 40.5396,43.7312 40.3486,42.7412 C39.9476,40.6732 38.4376,38.9192 36.0956,37.8022 C35.7906,37.6562 35.5696,37.3862 35.4866,37.0582 C35.4046,36.7312 35.4706,36.3882 35.6686,36.1172 C35.8786,35.8312 36.0616,35.5262 36.2156,35.2082 C35.6936,34.8212 35.3276,34.2492 35.2006,33.6072 L35.0906,33.0532 C34.8616,31.8852 35.2626,30.7002 36.1436,29.9122 C34.9346,27.5582 32.3306,26.2822 29.7496,26.7872 C26.5566,27.4182 24.4776,30.5532 25.1136,33.7782 C25.5346,35.9122 27.0876,37.6362 29.1676,38.2782 C29.4896,38.3782 29.7476,38.6132 29.8756,38.9242 C30.0056,39.2332 29.9906,39.5812 29.8346,39.8792 C28.7536,41.9562 26.8066,43.4742 24.4916,44.0472 C22.2476,44.6022 19.8916,44.2132 17.9876,42.9842 C17.4816,43.9142 17.1996,44.8452 17.1236,45.7572 L24.8266,45.7572 C26.4996,45.3002 28.8286,44.4152 29.9146,42.8482 C30.9276,41.3832 32.6016,40.7992 34.2776,41.3252 L34.2766,41.3252 C35.3036,41.6452 36.5806,42.5042 36.8316,44.7652 L36.8316,44.7652 Z M34.5896,45.0152 C34.4636,43.8942 34.0196,43.6102 33.6026,43.4792 C32.8586,43.2492 32.2266,43.4732 31.7686,44.1352 C31.3346,44.7612 30.7756,45.2942 30.1586,45.7572 L34.4006,45.7572 C34.5446,45.4972 34.6156,45.2442 34.5896,45.0152 L34.5896,45.0152 Z M44.1316,48.7962 L44.1316,65.7962 C44.1316,67.8002 45.7616,69.4292 47.7656,69.4292 L52.0216,69.4292 C54.0256,69.4292 55.6556,67.8002 55.6556,65.7962 L55.6556,48.7962 L44.1316,48.7962 Z M77.1216,45.7572 L64.0396,31.2922 L60.3316,34.5002 C60.0836,34.7142 59.7466,34.8062 59.4186,34.7562 C59.0896,34.7012 58.8056,34.5052 58.6376,34.2172 L55.4886,28.7962 C52.2086,31.5052 48.4806,32.1902 45.9536,30.5402 C43.7986,29.1312 43.1556,25.5902 44.0146,21.7072 L13.9336,21.7072 C13.6816,21.7072 13.4766,21.9122 13.4766,22.1642 L13.4766,45.7572 L14.8716,45.7572 C14.9746,44.0422 15.6176,42.2922 16.7756,40.6792 C16.9636,40.4172 17.2556,40.2482 17.5776,40.2152 C17.9036,40.1822 18.2176,40.2872 18.4556,40.5042 C19.6746,41.6192 21.3436,42.1722 23.0506,42.0072 C24.6606,41.8552 26.1336,41.0842 27.1396,39.8772 C24.9536,38.7392 23.3766,36.6442 22.8986,34.2162 C22.4736,32.0652 22.9086,29.8772 24.1206,28.0532 C25.3326,26.2302 27.1776,24.9942 29.3126,24.5732 C32.9146,23.8622 36.6486,25.7512 38.2506,29.0792 L41.2376,28.9062 C41.5266,28.8572 41.8206,28.9152 42.0656,29.0802 C42.3156,29.2482 42.4856,29.5042 42.5426,29.8002 C43.0736,32.4822 41.3386,34.9662 38.4966,35.6282 C38.3986,35.8752 38.2886,36.1182 38.1666,36.3552 C40.5296,37.7902 42.0846,39.8862 42.5576,42.2802 C42.7876,43.4462 42.7426,44.6172 42.4706,45.7572 L77.1216,45.7572 Z M86.0666,15.0662 L72.2566,15.0662 C73.3236,16.2492 73.9396,17.4902 74.0986,18.7772 L86.0666,18.7772 C87.9336,18.7772 89.4536,20.2972 89.4536,22.1642 L89.4536,45.7572 L93.1646,45.7562 L93.1646,22.1642 C93.1646,18.2512 89.9806,15.0662 86.0666,15.0662 L86.0666,15.0662 Z M99.9996,49.1082 L99.9996,52.4742 C99.9996,54.2622 98.5446,55.7172 96.7576,55.7172 L96.0936,55.7172 L96.0936,84.9722 C96.0936,90.5022 91.5956,95.0002 86.0666,95.0002 L13.9336,95.0002 C8.4046,95.0002 3.9066,90.5022 3.9066,84.9722 L3.9066,55.7172 L3.2426,55.7172 C1.4546,55.7172 -0.0004,54.2622 -0.0004,52.4742 L-0.0004,49.1082 C-0.0004,47.3202 1.4546,45.8662 3.2426,45.8662 L3.9066,45.8662 L3.9066,22.1642 C3.9066,16.6352 8.4046,12.1362 13.9336,12.1362 L43.5506,12.1362 L39.9836,7.4442 C39.5776,6.8592 39.6216,6.0732 40.0916,5.5352 C40.5586,4.9962 41.3326,4.8452 41.9706,5.1712 L47.8886,8.2612 C48.7826,7.1722 50.3576,5.8782 52.8736,5.6992 C54.2536,5.6052 55.6186,5.9862 56.9086,6.8412 C57.5176,6.3472 58.3616,5.8212 59.1226,5.9632 C60.0856,6.1462 60.8126,7.4562 61.0796,8.0112 C61.2366,8.3382 61.4496,8.8472 61.5866,9.4522 C63.5336,9.8992 66.0806,10.7102 68.5206,12.1362 L86.0666,12.1362 C91.5956,12.1362 96.0936,16.6352 96.0936,22.1642 L96.0936,45.8662 L96.7576,45.8662 C98.5456,45.8662 99.9996,47.3202 99.9996,49.1082 L99.9996,49.1082 Z M53.3906,18.4282 C53.1356,18.6532 52.9846,18.9642 52.9626,19.3022 C52.9416,19.6412 53.0536,19.9692 53.2786,20.2232 C53.5296,20.5082 53.8806,20.6532 54.2336,20.6532 C54.5326,20.6532 54.8326,20.5492 55.0746,20.3362 C55.5996,19.8702 55.6496,19.0652 55.1856,18.5402 C54.9606,18.2852 54.6496,18.1342 54.3106,18.1122 C53.9616,18.0872 53.6446,18.2042 53.3906,18.4282 L53.3906,18.4282 Z M33.8826,29.9092 C34.1166,30.4952 33.8476,31.1412 33.2736,31.3862 C33.1296,31.4422 32.9836,31.4692 32.8396,31.4692 C32.3946,31.4692 31.9806,31.2102 31.7966,30.7752 L31.7946,30.7702 C31.5796,30.2282 31.7936,29.6312 32.3076,29.3482 C32.5886,29.1982 32.9186,29.1732 33.2156,29.2782 C33.5186,29.3862 33.7546,29.6092 33.8826,29.9092 L33.8826,29.9092 Z" id="icon_toy-chest" fill="#3A4B60"></path>
    </g>
</svg>