<?xml version="1.0" encoding="UTF-8"?>
<svg width="100px" height="100px" viewBox="0 0 100 100" version="1.1" xmlns="http://www.w3.org/2000/svg" xmlns:xlink="http://www.w3.org/1999/xlink">
    <title>icon / furniture / trampoline_small</title>
    <g id="icon-/-furniture-/-trampoline_small" stroke="none" stroke-width="1" fill="none" fill-rule="evenodd">
        <path d="M93.2629,51.1085 L71.1829,61.9415 C70.2549,62.3985 69.2189,62.6395 68.1839,62.6395 L31.8169,62.6395 C30.7819,62.6395 29.7439,62.3985 28.8169,61.9415 L6.7369,51.1085 C4.3879,49.9565 2.9299,47.6135 2.9299,44.9945 L2.9299,35.5755 C2.9299,32.9565 4.3879,30.6135 6.7369,29.4615 L28.8169,18.6275 C29.7439,18.1705 30.7819,17.9295 31.8169,17.9295 L68.1839,17.9295 C69.2189,17.9295 70.2549,18.1705 71.1829,18.6275 L93.2629,29.4615 C95.6119,30.6135 97.0709,32.9565 97.0709,35.5755 L97.0709,44.9945 C97.0709,47.6135 95.6119,49.9565 93.2629,51.1085 L93.2629,51.1085 Z M92.4989,72.9375 C92.2999,73.0545 91.7699,73.2915 91.1629,72.9515 L79.2659,66.2955 C78.8419,66.0575 78.5789,65.6075 78.5789,65.1195 L78.5789,61.5765 L93.1639,54.4205 L93.1639,71.7785 C93.1639,72.4735 92.6999,72.8205 92.4989,72.9375 L92.4989,72.9375 Z M60.3619,82.0705 L39.6389,82.0705 C36.6409,82.0705 34.2009,79.2095 34.2009,75.6915 L34.2009,65.5695 L65.7979,65.5695 L65.7979,75.6915 C65.7979,79.2095 63.3599,82.0705 60.3619,82.0705 L60.3619,82.0705 Z M21.4209,65.1195 C21.4209,65.6075 21.1579,66.0575 20.7339,66.2955 L8.8369,72.9515 C8.2299,73.2915 7.6999,73.0545 7.4999,72.9375 C7.3009,72.8205 6.8359,72.4735 6.8359,71.7785 L6.8359,54.4205 L21.4209,61.5765 L21.4209,65.1195 Z M99.9999,35.5755 C99.9999,31.8305 97.9129,28.4795 94.5539,26.8315 L72.4759,15.9985 C71.1499,15.3445 69.6649,15.0005 68.1839,15.0005 L31.8169,15.0005 C30.3349,15.0005 28.8509,15.3445 27.5249,15.9985 L5.4469,26.8315 C2.0869,28.4795 -0.0001,31.8305 -0.0001,35.5755 L-0.0001,44.9945 C-0.0001,48.1455 1.4909,51.0045 3.9599,52.8175 L3.9069,52.7965 L3.9069,71.7785 C3.9069,73.3105 4.6959,74.6895 6.0189,75.4645 C7.3479,76.2445 8.9369,76.2525 10.2679,75.5075 L22.1639,68.8505 C23.5129,68.0955 24.3509,66.6665 24.3509,65.1195 L24.3509,63.0135 L27.5249,64.5715 C28.6879,65.1435 29.9739,65.4635 31.2719,65.5375 L31.2719,75.6915 C31.2719,80.8245 35.0259,85.0005 39.6389,85.0005 L60.3609,85.0005 C64.9749,85.0005 68.7279,80.8245 68.7279,75.6915 L68.7279,65.5375 C70.0269,65.4635 71.3119,65.1435 72.4759,64.5715 L75.6499,63.0135 L75.6499,65.1195 C75.6499,66.6665 76.4869,68.0955 77.8349,68.8505 L89.7329,75.5075 C91.0629,76.2525 92.6519,76.2445 93.9819,75.4645 C95.3039,74.6895 96.0939,73.3105 96.0939,71.7785 L96.0939,52.7755 C98.5309,50.9595 99.9999,48.1225 99.9999,44.9945 L99.9999,35.5755 Z M91.4069,44.9945 C91.4069,45.4425 91.1679,45.8275 90.7689,46.0225 L89.2489,46.7675 L81.3029,45.1525 C82.6009,43.6315 83.2789,41.9915 83.2789,40.2845 C83.2789,38.5775 82.6009,36.9365 81.3029,35.4165 L89.2489,33.8005 L90.7689,34.5465 C91.1679,34.7425 91.4069,35.1265 91.4069,35.5755 L91.4069,44.9945 Z M68.6889,56.8565 C68.5309,56.9345 68.3569,56.9755 68.1829,56.9755 L66.0039,56.9755 L62.7739,53.1485 C67.9739,52.2785 74.2339,50.5735 78.5499,47.5835 L84.9419,48.8815 L68.6889,56.8565 Z M37.8289,56.9745 L40.6169,53.6715 C40.6269,53.6595 40.6359,53.6465 40.6469,53.6325 C43.6449,53.9845 46.7879,54.1675 49.9989,54.1675 L49.9999,54.1675 C53.2119,54.1675 56.3549,53.9845 59.3539,53.6325 C59.3639,53.6465 59.3719,53.6595 59.3829,53.6715 L62.1709,56.9745 L37.8289,56.9745 Z M33.9949,56.9755 L31.8169,56.9755 C31.6439,56.9755 31.4699,56.9345 31.3119,56.8565 L15.0589,48.8815 L21.4499,47.5835 C25.7659,50.5735 32.0259,52.2785 37.2259,53.1485 L33.9949,56.9755 Z M9.2319,46.0225 C8.8319,45.8275 8.5939,45.4425 8.5939,44.9945 L8.5939,35.5755 C8.5939,35.1265 8.8319,34.7425 9.2319,34.5465 L10.7499,33.8005 L18.6969,35.4165 C17.3989,36.9365 16.7209,38.5775 16.7209,40.2845 C16.7209,41.9915 17.3989,43.6315 18.6969,45.1525 L10.7499,46.7675 L9.2319,46.0225 Z M31.3119,23.7125 C31.4699,23.6335 31.6439,23.5935 31.8169,23.5935 L33.9949,23.5935 L37.2259,27.4215 C32.0259,28.2915 25.7659,29.9955 21.4499,32.9865 L15.0589,31.6865 L31.3119,23.7125 Z M62.1709,23.5935 L59.3829,26.8965 C59.3719,26.9095 59.3639,26.9225 59.3539,26.9355 C56.3549,26.5845 53.2119,26.4025 49.9999,26.4025 L49.9989,26.4025 C46.7879,26.4025 43.6449,26.5845 40.6469,26.9355 C40.6359,26.9225 40.6269,26.9095 40.6169,26.8965 L37.8289,23.5935 L62.1709,23.5935 Z M80.3499,40.2845 C80.3489,45.9655 66.5579,51.2375 49.9999,51.2375 L49.9989,51.2375 C33.4419,51.2375 19.6509,45.9655 19.6509,40.2845 C19.6509,34.6025 33.4419,29.3325 49.9989,29.3325 L49.9999,29.3325 C66.5579,29.3325 80.3489,34.6025 80.3499,40.2845 L80.3499,40.2845 Z M66.0039,23.5935 L68.1829,23.5935 C68.3569,23.5935 68.5309,23.6335 68.6889,23.7125 L84.9419,31.6865 L78.5499,32.9865 C74.2339,29.9955 67.9739,28.2915 62.7739,27.4215 L66.0039,23.5935 Z M92.0589,31.9165 L69.9809,21.0835 C69.4239,20.8085 68.8019,20.6645 68.1839,20.6645 L31.8169,20.6645 C31.1979,20.6645 30.5759,20.8085 30.0199,21.0835 L7.9409,31.9165 C6.5359,32.6045 5.6629,34.0065 5.6629,35.5755 L5.6629,44.9945 C5.6629,46.5625 6.5359,47.9635 7.9409,48.6535 L30.0199,59.4865 C30.5759,59.7595 31.1979,59.9055 31.8169,59.9055 L68.1839,59.9055 C68.8019,59.9055 69.4239,59.7595 69.9809,59.4865 L92.0589,48.6535 C93.4629,47.9635 94.3359,46.5625 94.3359,44.9945 L94.3359,35.5755 C94.3359,34.0065 93.4629,32.6045 92.0589,31.9165 L92.0589,31.9165 Z" id="icon_trampoline_small" fill="#3A4B60"></path>
    </g>
</svg>