<?xml version="1.0" encoding="UTF-8"?>
<svg width="100px" height="100px" viewBox="0 0 100 100" version="1.1" xmlns="http://www.w3.org/2000/svg" xmlns:xlink="http://www.w3.org/1999/xlink">
    <title>icon / furniture / trampoline_large</title>
    <g id="icon-/-furniture-/-trampoline_large" stroke="none" stroke-width="1" fill="none" fill-rule="evenodd">
        <path d="M97.1245,52.0047 C97.1245,52.3137 96.9605,52.5827 96.7165,52.7347 C96.5285,52.7417 96.3415,52.7857 96.1665,52.8677 L3.8325,52.8677 C3.6585,52.7857 3.4715,52.7417 3.2835,52.7347 C3.0395,52.5827 2.8755,52.3137 2.8755,52.0047 L2.8755,51.8707 C2.8755,51.3957 3.2625,51.0087 3.7385,51.0087 L96.2615,51.0087 C96.7375,51.0087 97.1245,51.3957 97.1245,51.8707 L97.1245,52.0047 Z M95.3355,91.7257 C95.3355,91.9457 95.1565,92.1247 94.9365,92.1247 L92.9875,92.1247 C92.7675,92.1247 92.5885,91.9457 92.5885,91.7257 L92.5885,55.7427 L95.3355,55.7427 L95.3355,91.7257 Z M89.7125,56.7657 C86.2655,58.3987 80.8135,60.4637 73.0995,61.9547 L73.0995,55.7427 L89.7125,55.7427 L89.7125,56.7657 Z M70.2245,91.7257 C70.2245,91.9457 70.0445,92.1247 69.8255,92.1247 L67.8755,92.1247 C67.6555,92.1247 67.4775,91.9447 67.4775,91.7257 L67.4775,55.7427 L70.2245,55.7427 L70.2245,91.7257 Z M64.6015,63.2217 C60.0015,63.7237 55.0995,63.9807 50.0005,63.9807 L49.9995,63.9807 C44.9005,63.9807 39.9985,63.7237 35.3985,63.2217 L35.3985,55.7427 L64.6015,55.7427 L64.6015,63.2217 Z M32.1245,92.1247 L30.1755,92.1247 C29.9555,92.1247 29.7765,91.9457 29.7765,91.7257 L29.7765,55.7427 L32.5225,55.7427 L32.5225,91.7257 L32.5235,91.7257 C32.5235,91.9447 32.3445,92.1247 32.1245,92.1247 L32.1245,92.1247 Z M26.9005,61.9547 C19.1865,60.4637 13.7345,58.3987 10.2875,56.7657 L10.2875,55.7427 L26.9005,55.7427 L26.9005,61.9547 Z M7.0125,92.1247 L5.0635,92.1247 C4.8435,92.1247 4.6645,91.9457 4.6645,91.7257 L4.6645,55.7427 L7.4115,55.7427 L7.4115,91.7257 C7.4115,91.9457 7.2325,92.1247 7.0125,92.1247 L7.0125,92.1247 Z M5.1755,8.2727 C8.0735,8.9717 10.9865,9.5997 13.9125,10.1617 L13.9125,35.0627 C13.9125,35.8567 14.5565,36.4997 15.3505,36.4997 C16.1445,36.4997 16.7875,35.8567 16.7875,35.0627 L16.7875,10.6917 C20.4405,11.3377 24.1115,11.8777 27.7955,12.3117 L27.7955,35.0627 C27.7955,35.8567 28.4385,36.4997 29.2335,36.4997 C30.0275,36.4997 30.6705,35.8567 30.6705,35.0627 L30.6705,12.6277 C34.3315,13.0027 38.0025,13.2737 41.6785,13.4377 L41.6785,35.0627 C41.6785,35.8567 42.3225,36.4997 43.1165,36.4997 C43.9105,36.4997 44.5545,35.8567 44.5545,35.0627 L44.5545,13.5437 C46.2045,13.5927 47.8545,13.6237 49.5055,13.6307 L50.4955,13.6307 C52.1455,13.6237 53.7955,13.5927 55.4455,13.5437 L55.4455,35.0627 C55.4455,35.8567 56.0895,36.4997 56.8835,36.4997 C57.6775,36.4997 58.3215,35.8567 58.3215,35.0627 L58.3215,13.4377 C61.9975,13.2737 65.6685,13.0027 69.3295,12.6277 L69.3295,35.0627 C69.3295,35.8567 69.9725,36.4997 70.7675,36.4997 C71.5615,36.4997 72.2045,35.8567 72.2045,35.0627 L72.2045,12.3117 C75.8885,11.8777 79.5595,11.3377 83.2125,10.6917 L83.2125,35.0627 C83.2125,35.8567 83.8555,36.4997 84.6495,36.4997 C85.4435,36.4997 86.0875,35.8567 86.0875,35.0627 L86.0875,10.1617 C89.0135,9.5997 91.9275,8.9717 94.8245,8.2727 L94.8245,48.1327 L5.1755,48.1327 L5.1755,8.2727 Z M97.6995,48.4217 L97.6995,6.4387 C97.6995,5.9947 97.4955,5.5767 97.1455,5.3037 C96.7965,5.0307 96.3405,4.9357 95.9115,5.0437 C80.9025,8.8167 65.4525,10.7077 50.0005,10.7287 L49.9995,10.7287 C34.5475,10.7077 19.0975,8.8167 4.0885,5.0437 C3.6595,4.9357 3.2035,5.0307 2.8535,5.3037 C2.5045,5.5767 2.3005,5.9947 2.3005,6.4387 L2.3005,48.4217 C0.9515,48.9857 -0.0005,50.3187 -0.0005,51.8707 L-0.0005,52.0047 C-0.0005,53.3517 0.7185,54.5307 1.7895,55.1897 L1.7895,91.7257 C1.7895,93.5307 3.2575,94.9997 5.0635,94.9997 L7.0125,94.9997 C8.8185,94.9997 10.2875,93.5307 10.2875,91.7257 L10.2865,59.9267 C14.0025,61.5677 19.4825,63.4907 26.9005,64.8807 L26.9005,91.7257 C26.9005,93.5307 28.3695,94.9997 30.1755,94.9997 L32.1245,94.9997 C33.9295,94.9997 35.3985,93.5307 35.3985,91.7257 L35.3985,66.1147 C40.0105,66.6057 44.9125,66.8557 49.9995,66.8557 L49.9995,66.8557 L50.0005,66.8557 C55.0875,66.8557 59.9895,66.6057 64.6015,66.1147 L64.6015,91.7257 C64.6015,93.5307 66.0705,94.9997 67.8755,94.9997 L69.8255,94.9997 C71.6305,94.9997 73.0995,93.5307 73.0995,91.7257 L73.0995,64.8807 C80.5175,63.4907 85.9975,61.5677 89.7135,59.9267 L89.7125,91.7257 C89.7125,93.5307 91.1825,94.9997 92.9875,94.9997 L94.9365,94.9997 C96.7425,94.9997 98.2105,93.5307 98.2105,91.7257 L98.2105,55.1897 C99.2815,54.5307 99.9995,53.3517 99.9995,52.0047 L99.9995,51.8707 C99.9995,50.3187 99.0495,48.9857 97.6995,48.4217 L97.6995,48.4217 Z" id="icon_trampoline_large" fill="#3A4B60"></path>
    </g>
</svg>