<?xml version="1.0" encoding="UTF-8"?>
<svg width="100px" height="100px" viewBox="0 0 100 100" version="1.1" xmlns="http://www.w3.org/2000/svg" xmlns:xlink="http://www.w3.org/1999/xlink">
    <title>icon / furniture / treadmill</title>
    <g id="icon-/-furniture-/-treadmill" stroke="none" stroke-width="1" fill="none" fill-rule="evenodd">
        <path d="M97.0391,90.0383 L94.3891,90.0383 L93.4211,80.7013 L97.0391,80.7013 L97.0391,90.0383 Z M76.4251,90.0393 L76.4251,25.4253 L84.5431,25.4253 L91.4111,90.0393 L76.4251,90.0393 Z M61.0491,37.9543 L73.4641,37.9543 L73.4641,33.7403 L61.0491,33.7403 L61.0491,37.9543 Z M58.0881,37.9543 L38.5551,37.9543 C37.3931,37.9543 36.4471,37.0093 36.4471,35.8483 C36.4471,34.6853 37.3931,33.7403 38.5551,33.7403 L58.0881,33.7403 L58.0881,37.9543 Z M73.4631,25.4713 L73.4631,30.7793 L68.1551,30.7793 L73.4631,25.4713 Z M87.3591,11.5743 L89.3731,13.5883 L80.4971,22.4633 L76.4711,22.4633 L87.3591,11.5743 Z M73.4631,77.7393 L6.2651,77.7393 C5.4461,77.7393 4.7841,78.4023 4.7841,79.2213 L4.7841,83.7663 C4.6611,83.6643 4.5421,83.5593 4.4291,83.4463 C3.4821,82.5013 2.9611,81.2433 2.9611,79.9033 C2.9611,77.1403 5.2101,74.8923 7.9731,74.8923 L22.8901,74.8923 C22.8911,74.8923 73.4631,74.8923 73.4631,74.8923 L73.4631,77.7393 Z M7.7451,90.0383 L73.4631,90.0383 L73.4631,80.7013 L7.7451,80.7013 L7.7451,90.0383 Z M98.5191,77.7393 L93.1141,77.7393 L87.3511,23.7913 C87.2721,23.0363 86.6371,22.4633 85.8781,22.4633 L84.6851,22.4633 L92.5141,14.6353 C93.0931,14.0573 93.0931,13.1193 92.5141,12.5413 L88.4071,8.4343 C87.8291,7.8553 86.8911,7.8553 86.3121,8.4343 L63.9671,30.7793 L38.5551,30.7793 C35.7601,30.7793 33.4861,33.0533 33.4861,35.8483 C33.4861,38.6423 35.7601,40.9163 38.5551,40.9163 L73.4641,40.9163 L73.4641,71.9313 L7.9731,71.9313 C3.5771,71.9313 0.0001,75.5073 0.0001,79.9033 C0.0001,82.0353 0.8301,84.0383 2.3361,85.5413 C3.0441,86.2493 3.8771,86.8113 4.7841,87.2083 L4.7841,91.5193 C4.7841,92.3373 5.4461,93.0003 6.2651,93.0003 L98.5191,93.0003 C99.3371,93.0003 100.0001,92.3373 100.0001,91.5193 L100.0001,79.2203 C100.0001,78.4023 99.3371,77.7393 98.5191,77.7393 L98.5191,77.7393 Z" id="icon_treadmill" fill="#3A4B60"></path>
    </g>
</svg>