<?xml version="1.0" encoding="UTF-8"?>
<svg width="100px" height="100px" viewBox="0 0 100 100" version="1.1" xmlns="http://www.w3.org/2000/svg" xmlns:xlink="http://www.w3.org/1999/xlink">
    <title>icon / furniture / trundle-bed</title>
    <g id="icon-/-furniture-/-trundle-bed" stroke="none" stroke-width="1" fill="none" fill-rule="evenodd">
        <path d="M97.0105,73.9054 L71.8805,73.9104 L71.8805,65.1644 C76.4635,65.1984 97.0105,65.1844 97.0105,65.1844 L97.0105,73.9054 Z M71.8805,58.7234 C71.8805,58.7234 83.5265,58.6734 89.3115,58.7544 C91.0465,58.7784 92.1945,60.5124 91.8325,62.2464 C91.5395,62.2464 76.2005,62.2604 71.8805,62.3324 L71.8805,58.7234 Z M66.7195,49.0924 C66.7195,48.0274 66.7455,47.0224 66.7145,46.0194 C66.6035,42.4444 64.1785,40.0114 60.6305,40.0094 C44.1605,39.9914 27.6915,39.9974 11.2215,40.0094 C7.5855,40.0104 5.1045,42.5314 5.0765,46.1584 C5.0705,47.1234 5.0755,49.0634 5.0755,49.0634 L2.9365,49.0634 L2.9255,33.6464 L5.6985,33.6464 C6.8025,33.6464 7.6975,32.7544 7.7015,31.6504 L7.7145,28.3644 L64.0745,28.3644 L64.0835,31.6484 C64.0865,32.7534 64.9835,33.6464 66.0875,33.6464 L68.8865,33.6464 L68.9045,49.0924 L66.7195,49.0924 Z M8.1115,45.3154 C8.2745,43.9614 9.4665,43.0364 10.8365,42.9534 C11.1945,42.9314 60.3715,42.9354 60.8265,42.9534 C62.4325,43.0154 63.5715,44.0694 63.7595,45.6654 C63.7905,45.9234 63.7925,49.0984 63.7925,49.0984 L8.0785,49.0984 C8.0785,49.0984 7.9615,46.5514 8.1115,45.3154 L8.1115,45.3154 Z M68.8065,77.0014 L66.1815,77.0014 C66.1815,77.0014 66.1815,71.6884 66.1805,70.7764 C66.1795,68.1504 64.8295,66.7884 62.2305,66.7884 C44.6905,66.7864 27.1495,66.7864 9.6095,66.7884 C6.9515,66.7884 5.6385,68.0894 5.6365,70.7254 C5.6325,76.4224 5.6355,76.9434 5.6355,76.9434 L2.9825,76.9434 L2.9825,52.1584 L68.8065,52.1584 L68.8065,77.0014 Z M31.2035,73.8414 L31.2035,69.7234 C44.0575,69.7234 58.3315,69.7224 62.1515,69.7163727 C62.8335,69.7144 63.2665,69.8204 63.2625275,70.6564 C63.2555,71.9424 63.2505,72.9844 63.2485,73.8384 L31.2035,73.8414 Z M97.1555,62.2574 C96.4215,62.2454 95.6895,62.2554 94.9715,62.2554 C94.6065,57.7734 92.4235,55.7744 88.0535,55.7744 L71.8095,55.7744 C71.8095,55.7744 71.8245,21.6534 71.7575,21.2734 C71.6145,20.4594 71.0985,19.9844 70.2695,20.0254 C69.4495,20.0654 68.9305,20.5574 68.9045,21.3964 C68.8885,21.8764 68.8845,26.2714 68.8855,30.8834 L66.8465,30.8794 L66.8465,28.3844 C66.8465,26.8594 65.5995,25.6124 64.0745,25.6124 L7.7145,25.6124 C6.1905,25.6124 4.9425,26.8594 4.9425,28.3844 L4.9425,30.8824 L2.9255,30.8784 C2.9245,26.5804 2.9275,22.4914 2.9365,22.0174 C2.9515,21.1814 2.8405,20.4284 1.9455,20.1004 C1.0335,19.7664 0.4815,20.3134 -0.0005,20.9784 L-0.0005,78.1984 C0.6615,79.5514 1.7325,80.1244 3.2385,79.9774 C3.9475,79.9084 4.6685,79.9644 5.3845,79.9634 C7.7185,79.9604 8.5705,79.1194 8.5715,76.8044 C8.5715,74.7674 8.5725,74.5064 8.5725,74.6764 L8.5725,71.0514 C8.5725,69.7244 8.5735,69.7234 9.9365,69.7234 L28.2015,69.7234 C28.1935,71.0224 28.1925,72.7814 28.2285,74.4914 C28.2585,75.9184 29.2925,76.7844 30.7305,76.8344 C31.4045,76.8574 32.8575,76.8394 32.8575,76.8394 C32.8575,76.8394 32.8305,77.5504 32.8645,78.3534 C32.9055,79.3514 33.4885,79.9564 34.3425,79.9554 C35.1985,79.9544 35.7525,79.3474 35.7785,78.3394 C35.7985,77.5364 35.7815,76.9124 35.7815,76.9124 L63.2505,76.9084 C63.2515,77.0554 63.2525,77.1634 63.2535,77.2344 C63.2795,79.0084 64.2025,79.9424 65.9645,79.9614 C67.0055,79.9714 68.0475,79.9714 69.0885,79.9604 C70.8065,79.9404 71.7295,79.0424 71.8035,77.3194 C71.8235,76.8474 71.8065,76.8404 71.8065,76.8404 C71.8065,76.8404 91.1395,76.8414 92.3825,76.8414 C92.3825,76.9984 92.3825,78.0794 92.3815,78.1314 C92.3835,78.1734 92.3845,78.2244 92.3875,78.3084 C92.4155,79.3414 93.0315,79.9884 93.9145,79.9544 C94.7585,79.9224 95.2945,79.2964 95.3135,78.2894 C95.3155,78.2014 95.3165,78.1454 95.3175,78.1004 C95.3165,78.0544 95.3165,76.9814 95.3165,76.8414 C96.0435,76.8414 96.6275,76.8454 97.2105,76.8394 C99.0195,76.8184 99.9865,75.8654 99.9925,74.0654 C100.0025,71.0714 100.0015,68.0764 99.9925,65.0814 C99.9875,63.2174 99.0415,62.2844 97.1555,62.2574 L97.1555,62.2574 Z" id="icon_trundle-bed" fill="#3A4B60"></path>
    </g>
</svg>