<?xml version="1.0" encoding="UTF-8"?>
<svg width="100px" height="100px" viewBox="0 0 100 100" version="1.1" xmlns="http://www.w3.org/2000/svg">
    <title>icon / furniture / tv-stand</title>
    <g id="icon-/-furniture-/-tv-stand" stroke="none" stroke-width="1" fill="none" fill-rule="evenodd">
        <path d="M69.3415,47 C70.1515,47 70.8065,46.344 70.8065,45.535 L70.8065,41.173 C70.8065,40.364 70.1515,39.708 69.3415,39.708 C68.5325,39.708 67.8765,40.364 67.8765,41.173 L67.8765,45.535 C67.8765,46.344 68.5325,47 69.3415,47 L69.3415,47 Z M90.3275,36.748 L65.8605,36.748 L65.8985,50.294 L89.1225,50.294 L90.3275,36.748 Z M62.9685,41.89 L62.9305,36.748 L55.7465,36.748 L55.7415,36.764 C55.7415,36.764 55.0225,39.664 52.2145,39.657 L47.8625,39.657 C45.0085,39.664 44.3335,36.764 44.3335,36.764 L44.3305,36.748 L37.0705,36.748 L37.1085,41.89 L62.9685,41.89 Z M47.8625,45.782 L52.2145,45.782 C52.8075,45.782 53.1395,45.034 53.1395,44.804 L46.9845,44.804 C46.9845,45.018 47.2695,45.782 47.8625,45.782 L47.8625,45.782 Z M62.9685,44.819 L55.7425,44.819 C55.7425,44.819 55.0225,47.72 52.2145,47.712 L47.8625,47.712 C45.0085,47.72 44.3345,44.819 44.3345,44.819 L37.1085,44.819 L37.1085,50.294 L62.9685,50.294 L62.9685,44.819 Z M34.1785,50.294 L34.1405,36.748 L9.7485,36.748 L10.9525,50.294 L34.1785,50.294 Z M46.9845,36.748 C46.9845,36.962 47.2695,37.728 47.8615,37.728 L52.2135,37.728 C52.8065,37.728 53.1395,36.979 53.1395,36.748 L46.9845,36.748 Z M92.6485,34.605 C93.1105,35.104 93.3445,35.781 93.2895,36.459 L92.0085,50.972 C91.9065,52.233 90.8355,53.224 89.5705,53.224 L10.5065,53.224 C9.2405,53.224 8.1695,52.233 8.0695,50.972 L8.0685,50.972 L6.7865,36.46 C6.7325,35.781 6.9665,35.104 7.4285,34.605 C7.8895,34.104 8.5455,33.818 9.2255,33.818 L90.8515,33.818 C91.5305,33.818 92.1875,34.105 92.6485,34.605 L92.6485,34.605 Z M97.0655,32.027 C97.0985,31.61 96.9605,31.212 96.6775,30.905 C96.3945,30.599 96.0085,30.43 95.5905,30.43 L4.4085,30.43 C3.9915,30.43 3.6065,30.599 3.3215,30.905 C3.0385,31.212 2.9015,31.61 2.9345,32.027 L4.7845,54.347 C4.8865,55.617 5.9645,56.611 7.2375,56.611 L92.8385,56.611 C94.1125,56.611 95.1895,55.617 95.2905,54.347 L97.0655,32.027 Z M86.3735,59.541 L82.6515,59.541 C86.2375,69.324 85.8915,69.567 86.5245,69.567 C87.0125,69.52 87.3635,69.68 87.6025,69.405 C87.8915,69.073 87.6465,69.282 86.3735,59.541 L86.3735,59.541 Z M17.4255,59.541 L13.7025,59.541 C12.4345,69.253 12.1835,69.07 12.4745,69.405 C12.7105,69.678 13.0755,69.521 13.5525,69.567 C14.1795,69.567 13.8205,69.377 17.4255,59.541 L17.4255,59.541 Z M99.9865,32.261 L98.2115,54.581 C97.9885,57.362 95.6285,59.541 92.8385,59.541 L89.3325,59.541 L90.6135,68.623 C90.9025,70.667 89.3145,72.497 87.2475,72.497 L86.5245,72.497 C85.0855,72.497 83.7985,71.586 83.3195,70.23 L79.5435,59.541 L20.5325,59.541 L16.7575,70.229 C16.2785,71.586 14.9895,72.497 13.5525,72.497 C13.2275,72.444 11.5415,72.8 10.2625,71.326 C9.6155,70.584 9.3245,69.598 9.4625,68.623 L10.7435,59.541 L7.2375,59.541 C4.4465,59.541 2.0865,57.362 1.8635,54.58 L0.0135,32.261 C-0.0845,31.037 0.3375,29.819 1.1695,28.918 C2.0015,28.016 3.1835,27.5 4.4085,27.5 L95.5905,27.5 C96.8175,27.5 97.9975,28.017 98.8295,28.918 C99.6625,29.819 100.0835,31.037 99.9865,32.261 L99.9865,32.261 Z M32.1995,41.173 L32.1995,45.535 C32.1995,46.344 31.5435,47 30.7355,47 C29.9255,47 29.2705,46.344 29.2705,45.535 L29.2705,41.173 C29.2705,40.364 29.9255,39.708 30.7355,39.708 C31.5435,39.708 32.1995,40.364 32.1995,41.173 L32.1995,41.173 Z"
              id="Fill-1" fill="#3A4B60"></path>
    </g>
</svg>