<?xml version="1.0" encoding="UTF-8"?>
<svg width="100px" height="100px" viewBox="0 0 100 100" version="1.1" xmlns="http://www.w3.org/2000/svg" xmlns:xlink="http://www.w3.org/1999/xlink">
    <title>icon / furniture / tv-tray-table</title>
    <g id="icon-/-furniture-/-tv-tray-table" stroke="none" stroke-width="1" fill="none" fill-rule="evenodd">
        <path d="M50.0231,52.2451 C51.3511,52.2451 52.4281,53.2601 52.4281,54.5121 C52.4281,55.7641 51.3511,56.7781 50.0231,56.7781 C48.6941,56.7781 47.6171,55.7641 47.6171,54.5121 C47.6171,53.2601 48.6941,52.2451 50.0231,52.2451 L50.0231,52.2451 Z M89.0001,0.0001 L11.0001,0.0001 C10.4481,0.0001 10.0001,0.4471 10.0001,1.0001 L10.0001,11.5271 C10.0001,12.0801 10.4481,12.5271 11.0001,12.5271 L16.9091,12.5271 L42.3771,53.9491 L14.0621,100.0001 L29.9401,100.0001 L50.3171,66.8611 L70.6931,100.0001 L86.5711,100.0001 L58.2551,53.9491 L83.7251,12.5271 L89.0001,12.5271 C89.5521,12.5271 90.0001,12.0801 90.0001,11.5271 L90.0001,1.0001 C90.0001,0.4471 89.5521,0.0001 89.0001,0.0001 L89.0001,0.0001 Z M13.6761,9.0641 L86.3251,9.0641 L86.3251,3.4631 L13.6761,3.4631 L13.6761,9.0641 Z M27.8221,96.5361 L20.4401,96.5361 L72.0941,12.5271 L79.4771,12.5271 L27.8221,96.5361 Z M80.1941,96.5361 L72.8111,96.5361 L52.4411,63.4061 L56.1311,57.4031 L80.1941,96.5361 Z M32.7871,12.5271 L67.8471,12.5271 L50.3171,41.0381 L32.7871,12.5271 Z M21.1571,12.5271 L28.5391,12.5271 L48.1931,44.4921 L44.5021,50.4951 L21.1571,12.5271 Z" id="icon_tv-tray-table" fill="#3A4B60"></path>
    </g>
</svg>