<?xml version="1.0" encoding="UTF-8"?>
<svg width="100px" height="100px" viewBox="0 0 100 100" version="1.1" xmlns="http://www.w3.org/2000/svg">
    <title>icon / furniture / tv_flat</title>
    <g id="icon-/-furniture-/-tv_flat" stroke="none" stroke-width="1" fill="none" fill-rule="evenodd">
        <path d="M25.5293,27.4865 L12.7573,40.2585 C12.1503,40.8675 11.1583,40.8675 10.5483,40.2595 C9.9383,39.6495 9.9383,38.6575 10.5483,38.0495 L23.3193,25.2775 C23.6233,24.9725 24.0233,24.8205 24.4243,24.8205 C24.8243,24.8205 25.2243,24.9725 25.5293,25.2765 C26.1373,25.8855 26.1373,26.8785 25.5293,27.4865 L25.5293,27.4865 Z M17.2063,24.3175 C17.5013,24.6115 17.6633,25.0045 17.6633,25.4225 C17.6633,25.8405 17.5013,26.2325 17.2063,26.5265 L11.5053,32.2275 C10.8953,32.8375 9.9033,32.8365 9.2963,32.2275 C9.0013,31.9335 8.8393,31.5415 8.8393,31.1225 C8.8393,30.7045 9.0013,30.3115 9.2963,30.0175 L14.9973,24.3165 C15.5853,23.7285 16.6183,23.7275 17.2063,24.3175 L17.2063,24.3175 Z M3.8773,70.1085 L96.1233,70.1085 L96.1233,18.8755 L3.8773,18.8755 L3.8773,70.1085 Z M100.0003,72.0475 L100.0003,16.9375 C100.0003,15.8695 99.1313,15.0005 98.0623,15.0005 L1.9373,15.0005 C0.8693,15.0005 0.0003,15.8695 0.0003,16.9375 L0.0003,72.0475 C0.0003,73.1165 0.8693,73.9855 1.9373,73.9855 L46.0623,73.9855 L46.0623,81.1245 L25.9683,81.1245 C24.9003,81.1245 24.0313,81.9935 24.0313,83.0625 C24.0313,84.1315 24.9003,85.0005 25.9683,85.0005 L74.0313,85.0005 C75.0993,85.0005 75.9683,84.1315 75.9683,83.0625 C75.9683,81.9935 75.0993,81.1245 74.0313,81.1245 L53.9373,81.1245 L53.9373,73.9855 L98.0623,73.9855 C99.1313,73.9855 100.0003,73.1165 100.0003,72.0475 L100.0003,72.0475 Z"
              id="Fill-1" fill="#3A4B60"></path>
    </g>
</svg>