<?xml version="1.0" encoding="UTF-8"?>
<svg width="100px" height="100px" viewBox="0 0 100 100" version="1.1" xmlns="http://www.w3.org/2000/svg">
    <title>icon / furniture / tv_tube</title>
    <g id="icon-/-furniture-/-tv_tube" stroke="none" stroke-width="1" fill="none" fill-rule="evenodd">
        <path d="M89.0625,79.6877 C89.0625,80.5507 88.3635,81.2497 87.5005,81.2497 C86.6365,81.2497 85.9375,80.5507 85.9375,79.6877 C85.9375,78.8247 86.6365,78.1257 87.5005,78.1257 C88.3635,78.1257 89.0625,78.8247 89.0625,79.6877 L89.0625,79.6877 Z M82.8125,79.6877 C82.8125,80.5507 82.1135,81.2497 81.2505,81.2497 C80.3865,81.2497 79.6875,80.5507 79.6875,79.6877 C79.6875,78.8247 80.3865,78.1257 81.2505,78.1257 C82.1135,78.1257 82.8125,78.8247 82.8125,79.6877 L82.8125,79.6877 Z M89.0625,73.4377 C89.0625,74.3007 88.3635,75.0007 87.5005,75.0007 C86.6365,75.0007 85.9375,74.3007 85.9375,73.4377 C85.9375,72.5747 86.6365,71.8757 87.5005,71.8757 C88.3635,71.8757 89.0625,72.5747 89.0625,73.4377 L89.0625,73.4377 Z M82.8125,73.4377 C82.8125,74.3007 82.1135,75.0007 81.2505,75.0007 C80.3865,75.0007 79.6875,74.3007 79.6875,73.4377 C79.6875,72.5747 80.3865,71.8757 81.2505,71.8757 C82.1135,71.8757 82.8125,72.5747 82.8125,73.4377 L82.8125,73.4377 Z M84.3755,56.2507 C85.2365,56.2507 85.9375,56.9517 85.9375,57.8127 C85.9375,58.6737 85.2365,59.3757 84.3755,59.3757 C83.5135,59.3757 82.8125,58.6737 82.8125,57.8127 C82.8125,56.9517 83.5135,56.2507 84.3755,56.2507 L84.3755,56.2507 Z M84.3755,62.5007 C86.9595,62.5007 89.0625,60.3977 89.0625,57.8127 C89.0625,55.2277 86.9595,53.1257 84.3755,53.1257 C81.7905,53.1257 79.6875,55.2277 79.6875,57.8127 C79.6875,60.3977 81.7905,62.5007 84.3755,62.5007 L84.3755,62.5007 Z M84.3755,43.7497 C85.2365,43.7497 85.9375,44.4507 85.9375,45.3127 C85.9375,46.1737 85.2365,46.8747 84.3755,46.8747 C83.5135,46.8747 82.8125,46.1737 82.8125,45.3127 C82.8125,44.4507 83.5135,43.7497 84.3755,43.7497 L84.3755,43.7497 Z M84.3755,50.0007 C86.9595,50.0007 89.0625,47.8967 89.0625,45.3127 C89.0625,42.7277 86.9595,40.6247 84.3755,40.6247 C81.7905,40.6247 79.6875,42.7277 79.6875,45.3127 C79.6875,47.8967 81.7905,50.0007 84.3755,50.0007 L84.3755,50.0007 Z M78.1245,65.6247 L90.6245,65.6247 L90.6245,37.4997 L78.1245,37.4997 L78.1245,65.6247 Z M92.1875,34.3747 L76.5625,34.3747 C75.6995,34.3747 74.9995,35.0747 74.9995,35.9377 L74.9995,67.1877 C74.9995,68.0507 75.6995,68.7497 76.5625,68.7497 L92.1875,68.7497 C93.0505,68.7497 93.7495,68.0507 93.7495,67.1877 L93.7495,35.9377 C93.7495,35.0747 93.0505,34.3747 92.1875,34.3747 L92.1875,34.3747 Z M67.3575,81.3837 C47.5995,83.2917 30.5255,83.2917 10.7675,81.3837 C8.9065,65.8437 8.9065,52.9067 10.7675,37.3667 C30.5255,35.4587 47.5995,35.4587 67.3575,37.3667 C69.2185,52.9067 69.2185,65.8437 67.3575,81.3837 L67.3575,81.3837 Z M68.9125,34.3787 C47.9885,32.2867 30.1365,32.2867 9.2135,34.3787 C8.4875,34.4517 7.9095,35.0157 7.8185,35.7397 C5.7205,52.5277 5.7205,66.2227 7.8185,83.0097 C7.9095,83.7337 8.4875,84.2987 9.2135,84.3717 C19.6745,85.4167 29.3685,85.9407 39.0625,85.9407 C48.7565,85.9407 58.4505,85.4167 68.9125,84.3717 C69.6375,84.2987 70.2155,83.7337 70.3065,83.0097 C72.4055,66.2227 72.4055,52.5277 70.3065,35.7397 C70.2155,35.0157 69.6375,34.4517 68.9125,34.3787 L68.9125,34.3787 Z M96.8745,87.4997 C96.8745,90.0847 94.7725,92.1877 92.1875,92.1877 L7.8125,92.1877 C5.2275,92.1877 3.1245,90.0847 3.1245,87.4997 L3.1245,31.2497 C3.1245,28.6657 5.2275,26.5627 7.8125,26.5627 L92.1875,26.5627 C94.7725,26.5627 96.8745,28.6657 96.8745,31.2497 L96.8745,87.4997 Z M34.3745,23.4377 L46.8745,23.4377 L46.8745,20.3127 L34.3745,20.3127 L34.3745,23.4377 Z M92.1875,23.4377 L49.9995,23.4377 L49.9995,18.7497 C49.9995,17.8867 49.3005,17.1877 48.4375,17.1877 L43.8755,17.1877 L55.6185,2.5397 C56.1575,1.8647 56.0475,0.8807 55.3745,0.3427 C54.7005,-0.1973 53.7165,-0.0863 53.1775,0.5857 L40.6245,16.2497 L28.1125,0.5857 C27.5735,-0.0863 26.5905,-0.1973 25.9165,0.3427 C25.2425,0.8807 25.1335,1.8647 25.6725,2.5397 L37.3745,17.1877 L32.8125,17.1877 C31.9495,17.1877 31.2495,17.8867 31.2495,18.7497 L31.2495,23.4377 L7.8125,23.4377 C3.5045,23.4377 -0.0005,26.9427 -0.0005,31.2497 L-0.0005,87.4997 C-0.0005,91.8077 3.5045,95.3127 7.8125,95.3127 L18.7495,95.3127 L18.7495,98.4377 C18.7495,99.3007 19.4495,99.9997 20.3125,99.9997 C21.1755,99.9997 21.8745,99.3007 21.8745,98.4377 L21.8745,95.3127 L78.1245,95.3127 L78.1245,98.4377 C78.1245,99.3007 78.8245,99.9997 79.6875,99.9997 C80.5505,99.9997 81.2505,99.3007 81.2505,98.4377 L81.2505,95.3127 L92.1875,95.3127 C96.4955,95.3127 100.0005,91.8077 100.0005,87.4997 L100.0005,31.2497 C100.0005,26.9427 96.4955,23.4377 92.1875,23.4377 L92.1875,23.4377 Z"
              id="Fill-1" fill="#3A4B60"></path>
    </g>
</svg>