<?xml version="1.0" encoding="UTF-8"?>
<svg width="100px" height="100px" viewBox="0 0 100 100" version="1.1" xmlns="http://www.w3.org/2000/svg">
    <title>icon / furniture / umbrella</title>
    <g id="icon-/-furniture-/-umbrella" stroke="none" stroke-width="1" fill="none" fill-rule="evenodd">
        <path d="M41.2350208,67.546685 C40.718354,68.0633518 40.0394649,68.3289074 39.3561314,68.3289074 C38.8172424,68.3289074 38.2772422,68.1644629 37.8083532,67.8300184 L31.5572404,63.3655728 L31.7905738,63.1322394 L63.3683602,31.5555641 L67.8316947,37.8055658 C68.5916949,38.8677883 68.4739171,40.3100109 67.5505835,41.2322334 L41.2350208,67.546685 Z M32.6983518,76.083354 L13.2050132,95.5766926 C12.7027909,96.0778039 12.036124,96.3544706 11.3239016,96.3544706 C10.6127903,96.3544706 9.94501234,96.0778039 9.4450122,95.5766926 L4.39612194,90.5278023 L28.5183507,66.4055736 L32.9827964,72.6566864 C33.7405743,73.7189089 33.6216854,75.1600204 32.6983518,76.083354 L32.6983518,76.083354 Z M24.4527941,33.9644537 L26.8639058,62.9077949 L6.36278914,83.4089115 L24.4527941,33.9644537 Z M59.537248,30.2355638 L30.2394623,59.5344606 L27.5750171,27.5733408 L59.537248,30.2355638 Z M83.4116989,6.36222395 L62.9105823,26.8633406 L62.7816933,26.8522295 L33.9672411,24.4511177 L83.4116989,6.36222395 Z M90.5305898,4.39333453 L95.57948,9.4433359 C96.0805913,9.94444714 96.357258,10.6122251 96.357258,11.3233364 C96.357258,12.0344477 96.0805913,12.7022257 95.57948,13.2033369 L76.0861414,32.6966755 C75.5694746,33.2133423 74.8905855,33.4777869 74.2061409,33.4777869 C73.6672519,33.4777869 73.1261406,33.3144535 72.6583627,32.9811201 L66.408361,28.5155633 L66.6416944,28.2822299 L90.5305898,4.39333453 Z M96.8917026,99.4666937 C97.5772583,100.153361 98.7772587,100.154472 99.4672589,99.4666937 C100.177259,98.7555824 100.177259,97.6011376 99.4672589,96.8911374 L58.2550254,55.678904 L70.1250287,43.8100119 C71.9050292,42.0289003 72.4561404,39.3711218 71.5272513,37.0377878 L71.2872512,36.4355654 L71.8905847,36.6755655 C74.2239187,37.6044547 76.8816972,37.0533434 78.6616977,35.2733429 L98.1550363,15.7788932 C100.610592,13.3222258 100.610592,9.32444698 98.1550363,6.86777964 L91.8172568,0.531111255 L91.9905902,0.310000084 L91.7961457,0.51111125 C91.45059,0.177777826 90.9905899,0 90.5239231,0 C90.3161453,0 90.1061452,0.0344444538 89.9061451,0.108888918 L24.9561275,23.8700065 C24.4672385,24.0333399 24.0361273,24.4655622 23.8750161,24.9466734 L0.109454111,89.9044688 C-0.131657066,90.5666912 0.0327874235,91.3178026 0.531676448,91.8166916 L6.86945595,98.15336 C8.06056738,99.3444714 9.64167892,100.000027 11.3250127,100.000027 C13.0083465,100.000027 14.5905692,99.3444714 15.7805695,98.15336 L35.2739081,78.6600213 C37.0527975,76.8800209 37.6039087,74.2222424 36.6750196,71.8889084 L36.4361306,71.286686 L37.0394641,71.5266861 C39.3694648,72.453353 42.0294655,71.904464 43.809466,70.1244635 L55.6794692,58.2544603 L96.8917026,99.4666937 Z"
              id="icon_umbrella" fill="#3A4B60"></path>
    </g>
</svg>