<?xml version="1.0" encoding="UTF-8"?>
<svg width="100px" height="100px" viewBox="0 0 100 100" version="1.1" xmlns="http://www.w3.org/2000/svg" xmlns:xlink="http://www.w3.org/1999/xlink">
    <!-- Generator: Sketch 63.1 (92452) - https://sketch.com -->
    <title>icon / furniture / vacuum-cleaner</title>
    <desc>Created with Sketch.</desc>
    <g id="icon-/-furniture-/-vacuum-cleaner" stroke="none" stroke-width="1" fill="none" fill-rule="evenodd">
        <path d="M45.3921,57.1504 C45.8381,57.6024 45.8331,58.3344 45.3801,58.7804 C45.1631,58.9944 44.8761,59.1114 44.5711,59.1114 C44.2611,59.1114 43.9691,58.9894 43.7511,58.7684 L36.3901,51.2944 C35.9441,50.8414 35.9491,50.1114 36.4021,49.6654 C36.6191,49.4514 36.9061,49.3334 37.2101,49.3334 C37.2131,49.3334 37.2171,49.3334 37.2201,49.3344 C37.5281,49.3364 37.8161,49.4584 38.0321,49.6774 L45.3921,57.1504 Z M47.9901,52.0464 C48.2051,52.2634 48.3231,52.5524 48.321125,52.8604 C48.3191,53.1694 48.1971,53.4584 47.9781,53.6744 C47.7591,53.8894 47.4731,54.0064 47.1691,54.0064 C46.8591,54.0064 46.5681,53.8844 46.3491,53.6634 L38.9871,46.1894 C38.5411,45.7374 38.5471,45.0074 38.9991,44.5614 C39.4521,44.1134 40.1831,44.1194 40.6291,44.5734 L47.9901,52.0464 Z M41.4961,14.9214 L42.8681,23.5484 L38.4681,24.1384 L36.9111,15.3884 L41.4961,14.9214 Z M37.7081,34.0484 L36.8361,26.6834 L45.7911,25.4824 L46.2111,29.1994 C46.2381,29.4424 46.3451,29.6754 46.5131,29.8544 L51.1771,34.8574 C51.6451,35.3594 51.9231,36.0134 51.9591,36.6984 L52.6181,49.1844 L37.7081,34.0484 Z M77.6951,93.6674 L77.6951,96.4764 C77.6951,96.9644 77.2981,97.3624 76.8091,97.3624 L64.7921,97.3624 C64.3131,97.3624 63.8671,97.1484 63.5691,96.7754 L62.3261,95.2214 C61.5891,94.2984 60.4871,93.7704 59.3041,93.7704 L58.5111,93.7704 C57.9961,91.4574 55.9241,89.7584 53.5321,89.7584 C51.1401,89.7584 49.0691,91.4574 48.5541,93.7704 L47.2861,93.7704 C46.7981,93.7704 46.4001,93.3724 46.4001,92.8834 L46.4001,89.8064 C46.4001,89.4134 46.6631,89.0634 47.0401,88.9554 L54.6731,86.7434 L54.6731,86.7444 L56.9801,86.0764 C58.1811,85.7304 59.4891,85.7964 60.6431,86.2554 L77.1371,92.8434 C77.4761,92.9794 77.6951,93.3024 77.6951,93.6674 L77.6951,93.6674 Z M52.6361,76.9074 L53.1301,84.7924 L49.1751,85.9364 L48.4231,77.8834 L52.6361,76.9074 Z M53.9401,74.2404 L53.5281,74.3354 L53.4661,74.3244 L45.5051,76.1954 L31.7091,48.1474 C31.2811,47.2774 31.3111,46.2564 31.7891,45.4154 L36.8601,36.4704 L52.8011,52.6544 L53.9401,74.2404 Z M53.5321,92.0634 C55.0851,92.0634 56.3491,93.3274 56.3491,94.8794 C56.3491,95.0744 56.3251,95.2764 56.2751,95.4974 C55.9871,96.7714 54.8341,97.6954 53.5321,97.6954 C52.2301,97.6954 51.0771,96.7714 50.7891,95.4984 C50.7391,95.2764 50.7151,95.0744 50.7151,94.8794 C50.7151,93.3274 51.9791,92.0634 53.5321,92.0634 L53.5321,92.0634 Z M23.9001,2.3014 C24.0241,2.3014 24.1471,2.3174 24.2671,2.3484 L40.7011,6.9874 C41.0151,7.0764 41.2541,7.3294 41.3251,7.6474 L42.4061,12.5114 L34.3091,13.3374 L34.2281,9.5594 C34.2171,9.0584 33.8871,8.6254 33.4061,8.4804 L23.4861,5.5194 C22.6631,5.3104 22.1611,4.4964 22.3431,3.6664 L22.3721,3.5354 C22.4651,3.1164 22.7161,2.7624 23.0821,2.5384 C23.3371,2.3814 23.6191,2.3014 23.9001,2.3014 L23.9001,2.3014 Z M77.9931,90.7064 L61.4991,84.1184 C59.8701,83.4644 58.0371,83.3744 56.3411,83.8624 L55.3931,84.1364 L54.9091,76.3804 L55.4021,76.2674 C55.9481,76.1394 56.3221,75.6424 56.2921,75.0834 L54.2601,36.5764 C54.1951,35.3514 53.6991,34.1824 52.8631,33.2864 L48.4581,28.5614 L47.9481,24.0524 C47.9131,23.7484 47.7541,23.4644 47.5111,23.2744 C47.2641,23.0844 46.9501,22.9954 46.6501,23.0434 L45.1521,23.2434 L43.7901,14.6874 L43.9261,14.6734 C44.2531,14.6424 44.5511,14.4704 44.7471,14.2014 C44.9391,13.9344 45.0081,13.5974 44.9371,13.2784 L43.5741,7.1474 C43.3201,6.0004 42.4581,5.0884 41.3261,4.7684 L24.8671,0.1244 C23.8401,-0.1386 22.7761,0.0184 21.8751,0.5754 C20.9731,1.1294 20.3501,2.0054 20.1221,3.0404 L20.0931,3.1714 C19.6421,5.2224 20.8711,7.2324 22.8731,7.7404 L31.9421,10.4484 L32.0321,14.6364 C32.0401,14.9574 32.1811,15.2624 32.4221,15.4764 C32.6321,15.6624 32.9031,15.7644 33.1841,15.7644 L34.6131,15.6244 L36.1821,24.4474 L35.4061,24.5504 C34.7861,24.6334 34.3411,25.2064 34.4141,25.8274 L35.4221,34.3364 L29.7851,44.2764 C28.9311,45.7844 28.8771,47.6104 29.6411,49.1644 L43.8401,78.0324 C44.0721,78.5034 44.6421,78.7584 45.1341,78.6464 L46.1621,78.4074 L46.9281,86.5884 L46.4001,86.7414 C45.0431,87.1324 44.0961,88.3944 44.0961,89.8064 L44.0961,92.8834 C44.0961,94.6434 45.5271,96.0744 47.2861,96.0744 L48.5691,96.0744 C49.1151,98.3724 51.1421,100.0004 53.5321,100.0004 C55.9221,100.0004 57.9491,98.3724 58.4961,96.0744 L59.3041,96.0744 C59.7831,96.0744 60.2281,96.2894 60.5271,96.6624 L61.7701,98.2154 C62.5071,99.1374 63.6091,99.6674 64.7921,99.6674 L76.8091,99.6674 C78.5691,99.6674 80.0001,98.2354 80.0001,96.4764 L80.0001,93.6674 C80.0001,92.3534 79.2121,91.1904 77.9931,90.7064 L77.9931,90.7064 Z" id="icon_vacuum-cleaner" fill="#3A4B60"></path>
    </g>
</svg>