<?xml version="1.0" encoding="UTF-8"?>
<svg width="100px" height="100px" viewBox="0 0 100 100" version="1.1" xmlns="http://www.w3.org/2000/svg">
    <title>icon / furniture / vanity-table</title>
    <g id="icon-/-furniture-/-vanity-table" stroke="none" stroke-width="1" fill="none" fill-rule="evenodd">
        <path d="M51.203,80.836 L87.594,80.836 L87.594,58.279 L51.203,58.279 L51.203,80.836 Z M82.493,97.593 L78.945,97.593 L77.945,83.242 L82.603,83.242 L82.493,97.593 Z M12.406,80.836 L12.406,58.28 L15.231,58.28 L21.848,58.28 L25.662,58.28 L30.625,58.28 L48.797,58.28 L48.797,80.836 L12.406,80.836 Z M21.057,97.593 L17.509,97.593 L17.398,83.242 L22.057,83.242 L21.057,97.593 Z M16.434,55.874 L20.644,55.874 L20.644,47.453 L16.434,47.453 L16.434,55.874 Z M16.434,43.121 C16.434,42.193 17.189,41.437 18.117,41.437 L18.962,41.437 C19.89,41.437 20.645,42.193 20.645,43.121 L20.645,45.046 L16.434,45.046 L16.434,43.121 Z M26.865,55.874 L29.422,55.874 L29.422,45.648 L26.865,45.648 L26.865,55.874 Z M35.446,32.362 L35.446,6.844 L64.555,6.844 L64.555,15.393 L35.446,32.362 Z M35.446,39.581 L35.446,35.147 L64.555,18.178 L64.555,22.612 L35.446,39.581 Z M64.555,39.433 L64.555,55.873 L36.351,55.873 L64.555,39.433 Z M35.446,53.617 L35.446,42.366 L64.555,25.397 L64.555,36.648 L35.446,53.617 Z M31.007,2.407 L68.993,2.407 L68.993,55.873 L66.96,55.873 L66.96,5.642 C66.96,4.978 66.422,4.439 65.757,4.439 L34.243,4.439 C33.579,4.439 33.04,4.978 33.04,5.642 L33.04,55.873 L31.828,55.873 L31.828,44.445 C31.828,43.914 31.484,43.464 31.007,43.305 L31.007,2.407 Z M71.399,55.873 L71.399,1.203 C71.399,0.539 70.86,0 70.196,0 L29.804,0 C29.14,0 28.601,0.539 28.601,1.203 L28.601,43.242 L25.662,43.242 C24.998,43.242 24.459,43.781 24.459,44.445 L24.459,55.873 L23.051,55.873 L23.051,43.121 C23.051,40.866 21.217,39.032 18.962,39.032 L18.117,39.032 C15.862,39.032 14.028,40.866 14.028,43.121 L14.028,55.873 L11.203,55.873 C10.539,55.873 10,56.412 10,57.077 L10,82.039 C10,82.704 10.539,83.242 11.203,83.242 L14.952,83.242 L15.321,99.012 C15.426,99.584 15.924,100 16.505,100 L22.26,100 C22.925,100 23.463,99.461 23.463,98.797 L24.463,83.242 L75.539,83.242 L76.539,98.797 C76.539,99.461 77.078,100 77.742,100 L83.497,100 C84.079,100 84.577,99.584 84.681,99.012 L85.048,83.242 L88.797,83.242 C89.461,83.242 90,82.704 90,82.039 L90,57.077 C90,56.412 89.461,55.873 88.797,55.873 L71.399,55.873 Z M61.029,74.67 L61.029,73.768 C61.029,73.104 60.491,72.565 59.826,72.565 C59.162,72.565 58.623,73.104 58.623,73.768 L58.623,74.67 C58.623,75.058 58.308,75.372 57.921,75.372 C57.733,75.372 57.557,75.299 57.424,75.167 C57.292,75.036 57.22,74.859 57.22,74.67 L57.22,64.445 C57.22,64.058 57.535,63.743 57.921,63.743 C58.109,63.743 58.286,63.816 58.418,63.948 C58.55,64.08 58.623,64.256 58.623,64.445 L58.623,65.347 C58.623,66.011 59.162,66.55 59.826,66.55 C60.491,66.55 61.029,66.011 61.029,65.347 L61.029,64.445 C61.029,63.614 60.707,62.833 60.12,62.247 C59.533,61.66 58.752,61.336 57.921,61.336 C56.208,61.336 54.813,62.731 54.813,64.445 L54.813,74.671 C54.813,75.501 55.137,76.283 55.723,76.869 C56.31,77.456 57.09,77.779 57.921,77.779 C59.635,77.779 61.029,76.384 61.029,74.67 Z M39.881,62.247 C39.294,62.833 38.971,63.614 38.971,64.445 L38.971,65.347 C38.971,66.011 39.51,66.55 40.174,66.55 C40.838,66.55 41.377,66.011 41.377,65.347 L41.377,64.445 C41.377,64.256 41.45,64.081 41.583,63.948 C41.714,63.816 41.891,63.743 42.079,63.743 C42.466,63.743 42.781,64.058 42.781,64.445 L42.781,74.67 C42.781,74.859 42.708,75.035 42.576,75.167 C42.444,75.299 42.267,75.372 42.079,75.372 C41.692,75.372 41.377,75.058 41.377,74.67 L41.377,73.768 C41.377,73.104 40.838,72.565 40.174,72.565 C39.51,72.565 38.971,73.104 38.971,73.768 L38.971,74.67 C38.971,76.384 40.366,77.779 42.079,77.779 C42.91,77.779 43.691,77.456 44.277,76.869 C44.864,76.282 45.187,75.501 45.187,74.671 L45.187,64.445 C45.187,62.731 43.793,61.336 42.079,61.336 C41.248,61.336 40.468,61.66 39.881,62.247 Z"
              id="icon_vanity-table" fill="#3A4B60"></path>
    </g>
</svg>