<?xml version="1.0" encoding="UTF-8"?>
<svg width="100px" height="100px" viewBox="0 0 100 100" version="1.1" xmlns="http://www.w3.org/2000/svg" xmlns:xlink="http://www.w3.org/1999/xlink">
    <title>icon / furniture / walker</title>
    <g id="icon-/-furniture-/-walker" stroke="none" stroke-width="1" fill="none" fill-rule="evenodd">
        <path d="M85.442,97.0701 C80.409,97.0701 76.314,92.9751 76.314,87.9421 C76.314,82.8721 80.451,78.8141 85.442,78.8141 C90.441,78.8141 94.571,82.8811 94.571,87.9421 C94.571,92.9751 90.475,97.0701 85.442,97.0701 L85.442,97.0701 Z M71.62,15.7411 C70.961,11.8391 67.911,8.8871 64.113,8.2761 L64.113,4.9481 C69.53,5.5831 73.941,9.6951 74.871,15.1911 L85.131,75.8881 C84.046,75.9151 82.928,76.0941 81.879,76.4211 C81.253,72.7171 72.162,18.9441 71.62,15.7411 L71.62,15.7411 Z M19.271,64.3761 C19.48,63.1371 19.736,61.6251 19.828,61.0801 L76.314,61.0801 L76.872,64.3761 L19.271,64.3761 Z M16.093,65.5961 L14.168,76.9871 L10.825,76.9871 L21.272,15.1911 C22.201,9.6941 26.612,5.5831 32.028,4.9481 L32.028,8.2751 C28.232,8.8861 25.181,11.8391 24.521,15.7411 C24.409,16.4111 16.093,65.5961 16.093,65.5961 L16.093,65.5961 Z M14.599,97.0701 L5.867,97.0701 C5.626,97.0701 5.429,96.8741 5.429,96.6331 L5.429,90.4111 C5.429,90.1701 5.626,89.9731 5.867,89.9731 C5.959,89.9731 14.625,89.9661 14.713,89.9911 C14.899,90.0421 15.036,90.2101 15.036,90.4111 L15.036,96.6331 C15.036,96.8741 14.839,97.0701 14.599,97.0701 L14.599,97.0701 Z M8.834,80.4191 C8.883,80.1241 9.138,79.9171 9.428,79.9171 L14.415,79.9171 C14.78,79.9171 15.072,80.2451 15.008,80.6201 L13.924,87.0441 L7.715,87.0441 L8.834,80.4191 Z M73.383,43.7431 L75.819,58.1501 L20.324,58.1501 L22.759,43.7431 L73.383,43.7431 Z M23.254,40.8131 L23.812,37.5161 L72.331,37.5161 L72.888,40.8131 L23.254,40.8131 Z M32.429,11.1801 C32.999,12.2361 34.114,12.9561 35.395,12.9561 L60.747,12.9561 C62.028,12.9561 63.144,12.2361 63.713,11.1801 C66.254,11.6201 68.289,13.6081 68.732,16.2291 L71.836,34.5871 L24.307,34.5871 L27.411,16.2291 C27.854,13.6081 29.888,11.6201 32.429,11.1801 L32.429,11.1801 Z M34.959,3.3981 L34.959,3.3671 C34.959,3.1261 35.154,2.9291 35.395,2.9291 L60.747,2.9291 C60.988,2.9291 61.184,3.1261 61.184,3.3671 L61.184,3.3981 L61.184,9.5531 C61.183,9.5711 61.182,9.5871 61.182,9.5991 L61.182,9.6031 C61.174,9.8381 60.983,10.0261 60.747,10.0261 L35.395,10.0261 C35.159,10.0261 34.967,9.8381 34.96,9.6031 L34.96,9.5991 C34.96,9.5881 34.959,9.5711 34.959,9.5541 L34.959,3.3981 Z M88.155,76.1961 L77.759,14.7031 C76.574,7.6891 70.801,2.5021 63.811,1.9801 C63.281,0.8141 62.109,0.0001 60.747,0.0001 L35.395,0.0001 C34.034,0.0001 32.861,0.8141 32.331,1.9801 C25.341,2.5021 19.569,7.6891 18.383,14.7031 L7.785,77.3931 C6.836,77.8901 6.134,78.8081 5.945,79.9311 L4.71,87.2531 C3.422,87.7261 2.5,88.9621 2.5,90.4111 L2.5,96.6331 C2.5,98.4891 4.01,100.0001 5.867,100.0001 L14.598,100.0001 C16.455,100.0001 17.965,98.4891 17.965,96.6331 L17.965,90.4111 C17.965,89.3781 17.497,88.4521 16.762,87.8351 L17.897,81.1071 C18.075,80.0531 17.779,78.9291 16.955,78.0731 L18.775,67.3051 L77.367,67.3051 L79.12,77.6801 C75.681,79.8061 73.384,83.6101 73.384,87.9421 C73.384,94.5911 78.794,100.0001 85.442,100.0001 C92.09,100.0001 97.5,94.5911 97.5,87.9421 C97.5,82.2261 93.501,77.4301 88.155,76.1961 L88.155,76.1961 Z M85.442,84.4721 C87.356,84.4721 88.912,86.0291 88.912,87.9421 C88.912,89.8551 87.356,91.4121 85.442,91.4121 C83.529,91.4121 81.972,89.8551 81.972,87.9421 C81.972,86.0291 83.529,84.4721 85.442,84.4721 L85.442,84.4721 Z M85.442,94.3411 C88.971,94.3411 91.841,91.4701 91.841,87.9421 C91.841,84.4141 88.971,81.5431 85.442,81.5431 C81.914,81.5431 79.044,84.4141 79.044,87.9421 C79.044,91.4701 81.914,94.3411 85.442,94.3411 L85.442,94.3411 Z" id="icon_walker" fill="#3A4B60"></path>
    </g>
</svg>