<?xml version="1.0" encoding="UTF-8"?>
<svg width="100px" height="100px" viewBox="0 0 100 100" version="1.1" xmlns="http://www.w3.org/2000/svg" xmlns:xlink="http://www.w3.org/1999/xlink">
    <!-- Generator: Sketch 63.1 (92452) - https://sketch.com -->
    <title>icon / furniture / wall-shelves</title>
    <desc>Created with Sketch.</desc>
    <g id="icon-/-furniture-/-wall-shelves" stroke="none" stroke-width="1" fill="none" fill-rule="evenodd">
        <path d="M2.864,18.409 L97.134,18.409 L97.134,12.864 L2.864,12.864 L2.864,18.409 Z M84.622,23.967 L87.69,23.967 L87.69,21.276 L84.622,21.276 L84.622,23.967 Z M12.311,23.967 L15.378,23.967 L15.378,21.276 L12.311,21.276 L12.311,23.967 Z M2.36,10 C1.058,10 0,11.058 0,12.359 L0,18.916 C0,20.216 1.058,21.275 2.36,21.275 L9.445,21.275 L9.445,24.473 C9.445,25.774 10.504,26.831 11.804,26.831 L15.884,26.831 C17.184,26.831 18.243,25.774 18.243,24.473 L18.243,21.275 L81.757,21.275 L81.757,24.473 C81.757,25.774 82.815,26.831 84.117,26.831 L88.196,26.831 C89.497,26.831 90.555,25.774 90.555,24.473 L90.555,21.275 L97.64,21.275 C98.941,21.275 100,20.216 100,18.916 L100,12.359 C100,11.058 98.941,10 97.64,10 L2.36,10 Z M2.864,50.493 L97.134,50.493 L97.134,44.948 L2.864,44.948 L2.864,50.493 Z M84.622,56.052 L87.69,56.052 L87.69,53.36 L84.622,53.36 L84.622,56.052 Z M12.311,56.052 L15.378,56.052 L15.378,53.36 L12.311,53.36 L12.311,56.052 Z M2.36,42.085 C1.058,42.085 0,43.143 0,44.443 L0,51.001 C0,52.301 1.058,53.359 2.36,53.359 L9.445,53.359 L9.445,56.558 C9.445,57.858 10.504,58.915 11.804,58.915 L15.884,58.915 C17.184,58.915 18.243,57.858 18.243,56.558 L18.243,53.359 L81.757,53.359 L81.757,56.558 C81.757,57.858 82.815,58.915 84.117,58.915 L88.196,58.915 C89.497,58.915 90.555,57.858 90.555,56.558 L90.555,53.359 L97.64,53.359 C98.941,53.359 100,52.301 100,51.001 L100,44.443 C100,43.143 98.941,42.085 97.64,42.085 L2.36,42.085 Z M2.864,81.578 L97.134,81.578 L97.134,76.033 L2.864,76.033 L2.864,81.578 Z M84.622,87.136 L87.69,87.136 L87.69,84.445 L84.622,84.445 L84.622,87.136 Z M12.311,87.136 L15.378,87.136 L15.378,84.445 L12.311,84.445 L12.311,87.136 Z M2.36,73.169 C1.058,73.169 0,74.227 0,75.528 L0,82.085 C0,83.385 1.058,84.444 2.36,84.444 L9.445,84.444 L9.445,87.642 C9.445,88.943 10.504,90 11.804,90 L15.884,90 C17.184,90 18.243,88.943 18.243,87.642 L18.243,84.444 L81.757,84.444 L81.757,87.642 C81.757,88.943 82.815,90 84.117,90 L88.196,90 C89.497,90 90.555,88.943 90.555,87.642 L90.555,84.444 L97.64,84.444 C98.941,84.444 100,83.385 100,82.085 L100,75.528 C100,74.227 98.941,73.169 97.64,73.169 L2.36,73.169 Z" id="icon_wall-shelves" fill="#3A4B60"></path>
    </g>
</svg>