<?xml version="1.0" encoding="UTF-8"?>
<svg width="100px" height="100px" viewBox="0 0 100 100" version="1.1" xmlns="http://www.w3.org/2000/svg" xmlns:xlink="http://www.w3.org/1999/xlink">
    <title>icon / furniture / wall-clock</title>
    <g id="icon-/-furniture-/-wall-clock" stroke="none" stroke-width="1" fill="none" fill-rule="evenodd">
        <path d="M51.1716,60.0002 C51.1716,59.3542 50.6466,58.8282 49.9996,58.8282 C49.3536,58.8282 48.8276,59.3542 48.8276,60.0002 C48.8276,60.6462 49.3536,61.1722 49.9996,61.1722 C50.6466,61.1722 51.1716,60.6462 51.1716,60.0002 L51.1716,60.0002 Z M53.5156,60.0002 C53.5156,61.9382 51.9386,63.5162 49.9996,63.5162 C49.1296,63.5162 48.3326,63.1962 47.7176,62.6712 L29.1386,73.3972 C28.9536,73.5042 28.7516,73.5552 28.5536,73.5552 C28.1486,73.5552 27.7546,73.3452 27.5376,72.9692 C27.2136,72.4082 27.4056,71.6912 27.9666,71.3682 L46.5446,60.6422 C46.5056,60.4342 46.4846,60.2192 46.4846,60.0002 C46.4846,58.4722 47.4646,57.1692 48.8276,56.6862 L48.8276,30.5472 C48.8276,29.8992 49.3536,29.3752 49.9996,29.3752 C50.6476,29.3752 51.1716,29.8992 51.1716,30.5472 L51.1716,56.6862 C52.5356,57.1692 53.5156,58.4722 53.5156,60.0002 L53.5156,60.0002 Z M82.9486,60.0002 C82.9486,41.8312 68.1686,27.0512 49.9996,27.0512 C31.8316,27.0512 17.0506,41.8312 17.0506,60.0002 C17.0506,78.1682 31.8316,92.9492 49.9996,92.9492 C68.1686,92.9492 82.9486,78.1682 82.9486,60.0002 L82.9486,60.0002 Z M84.9996,60.0002 C84.9996,69.3492 81.3586,78.1382 74.7486,84.7492 C68.1386,91.3592 59.3496,95.0002 49.9996,95.0002 C40.6506,95.0002 31.8616,91.3592 25.2516,84.7492 C18.6406,78.1382 14.9996,69.3492 14.9996,60.0002 C14.9996,50.6512 18.6406,41.8612 25.2516,35.2512 C31.8616,28.6412 40.6506,25.0002 49.9996,25.0002 C59.3496,25.0002 68.1386,28.6412 74.7486,35.2512 C81.3586,41.8612 84.9996,50.6512 84.9996,60.0002 L84.9996,60.0002 Z M64.7266,84.3362 C64.0796,84.3362 63.5546,84.8602 63.5546,85.5082 C63.5546,86.1552 64.0796,86.6802 64.7266,86.6802 C65.3736,86.6802 65.8986,86.1552 65.8986,85.5082 C65.8986,84.8602 65.3736,84.3362 64.7266,84.3362 L64.7266,84.3362 Z M75.5076,44.1022 C74.8606,44.1022 74.3356,44.6262 74.3356,45.2732 C74.3356,45.9212 74.8606,46.4452 75.5076,46.4452 C76.1546,46.4452 76.6796,45.9212 76.6796,45.2732 C76.6796,44.6262 76.1546,44.1022 75.5076,44.1022 L75.5076,44.1022 Z M49.9996,88.2812 C49.3536,88.2812 48.8276,88.8062 48.8276,89.4532 C48.8276,90.1012 49.3536,90.6252 49.9996,90.6252 C50.6476,90.6252 51.1716,90.1012 51.1716,89.4532 C51.1716,88.8062 50.6476,88.2812 49.9996,88.2812 L49.9996,88.2812 Z M75.5076,73.5552 C74.8606,73.5552 74.3356,74.0792 74.3356,74.7272 C74.3356,75.3742 74.8606,75.8982 75.5076,75.8982 C76.1546,75.8982 76.6796,75.3742 76.6796,74.7272 C76.6796,74.0792 76.1546,73.5552 75.5076,73.5552 L75.5076,73.5552 Z M64.7266,33.3202 C64.0796,33.3202 63.5546,33.8452 63.5546,34.4922 C63.5546,35.1402 64.0796,35.6642 64.7266,35.6642 C65.3736,35.6642 65.8986,35.1402 65.8986,34.4922 C65.8986,33.8452 65.3736,33.3202 64.7266,33.3202 L64.7266,33.3202 Z M20.5466,58.8282 C19.9006,58.8282 19.3746,59.3532 19.3746,60.0002 C19.3746,60.6472 19.9006,61.1722 20.5466,61.1722 C21.1936,61.1722 21.7186,60.6472 21.7186,60.0002 C21.7186,59.3532 21.1936,58.8282 20.5466,58.8282 L20.5466,58.8282 Z M35.2736,84.3362 C34.6266,84.3362 34.1016,84.8602 34.1016,85.5082 C34.1016,86.1552 34.6266,86.6802 35.2736,86.6802 C35.9206,86.6802 36.4446,86.1552 36.4446,85.5082 C36.4446,84.8602 35.9206,84.3362 35.2736,84.3362 L35.2736,84.3362 Z M87.6556,60.0002 C87.6556,39.2362 70.7636,22.3442 49.9996,22.3442 C29.2356,22.3442 12.3436,39.2362 12.3436,60.0002 C12.3436,80.7642 29.2356,97.6562 49.9996,97.6562 C70.7636,97.6562 87.6556,80.7642 87.6556,60.0002 L87.6556,60.0002 Z M40.0046,21.2572 C43.2316,20.4312 46.5816,20.0002 49.9996,20.0002 C53.5466,20.0002 57.0206,20.4682 60.3586,21.3572 L54.1936,10.6822 L53.2596,11.2442 C51.3706,12.3772 48.9336,12.3772 47.0446,11.2442 L46.1106,10.6822 L40.0046,21.2572 Z M46.5546,6.0522 C46.5546,8.0362 48.1686,9.6502 50.1516,9.6502 C52.1366,9.6502 53.7506,8.0362 53.7506,6.0522 C53.7506,4.0682 52.1366,2.4542 50.1516,2.4542 C48.1686,2.4542 46.5546,4.0682 46.5546,6.0522 L46.5546,6.0522 Z M89.9996,60.0002 C89.9996,70.6852 85.8396,80.7292 78.2846,88.2842 C70.7296,95.8392 60.6846,100.0002 49.9996,100.0002 C39.3166,100.0002 29.2716,95.8392 21.7156,88.2842 C14.1606,80.7292 9.9996,70.6852 9.9996,60.0002 C9.9996,49.3152 14.1606,39.2712 21.7156,31.7162 C25.9836,27.4482 31.0446,24.2662 36.5676,22.3022 L44.5706,8.4392 L44.4166,7.9812 C44.2056,7.3552 44.0996,6.7062 44.0996,6.0522 C44.0996,2.7152 46.8146,0.0002 50.1516,0.0002 C53.4896,0.0002 56.2046,2.7152 56.2046,6.0522 C56.2046,6.7062 56.0986,7.3552 55.8876,7.9812 L55.7336,8.4392 L63.8196,22.4472 C69.1916,24.4212 74.1176,27.5492 78.2846,31.7162 C85.8396,39.2712 89.9996,49.3152 89.9996,60.0002 L89.9996,60.0002 Z M79.4526,58.8282 C78.8066,58.8282 78.2806,59.3532 78.2806,60.0002 C78.2806,60.6472 78.8066,61.1722 79.4526,61.1722 C80.1006,61.1722 80.6246,60.6472 80.6246,60.0002 C80.6246,59.3532 80.1006,58.8282 79.4526,58.8282 L79.4526,58.8282 Z M35.2736,35.6642 C35.9206,35.6642 36.4446,35.1402 36.4446,34.4922 C36.4446,33.8452 35.9206,33.3202 35.2736,33.3202 C34.6266,33.3202 34.1016,33.8452 34.1016,34.4922 C34.1016,35.1402 34.6266,35.6642 35.2736,35.6642 L35.2736,35.6642 Z M24.4916,44.1022 C23.8456,44.1022 23.3196,44.6262 23.3196,45.2732 C23.3196,45.9212 23.8456,46.4452 24.4916,46.4452 C25.1396,46.4452 25.6636,45.9212 25.6636,45.2732 C25.6636,44.6262 25.1396,44.1022 24.4916,44.1022 L24.4916,44.1022 Z M25.6636,74.7272 C25.6636,75.3742 25.1396,75.8982 24.4916,75.8982 C23.8456,75.8982 23.3196,75.3742 23.3196,74.7272 C23.3196,74.0792 23.8456,73.5552 24.4916,73.5552 C25.1396,73.5552 25.6636,74.0792 25.6636,74.7272 L25.6636,74.7272 Z" id="Fill-1" fill="#3A4B60"></path>
    </g>
</svg>