<?xml version="1.0" encoding="UTF-8"?>
<svg width="100px" height="100px" viewBox="0 0 100 100" version="1.1" xmlns="http://www.w3.org/2000/svg" xmlns:xlink="http://www.w3.org/1999/xlink">
    <title>icon / furniture / wardrobe-closet</title>
    <g id="icon-/-furniture-/-wardrobe-closet" stroke="none" stroke-width="1" fill="none" fill-rule="evenodd">
        <path d="M72.0957,62.1367 L66.0747,62.1367 C65.2957,62.1367 64.6627,62.7677 64.6627,63.5477 C64.6627,64.3277 65.2957,64.9597 66.0747,64.9597 L72.0957,64.9597 C72.8757,64.9597 73.5077,64.3277 73.5077,63.5477 C73.5077,62.7677 72.8757,62.1367 72.0957,62.1367 L72.0957,62.1367 Z M15.3047,86.2217 L40.5777,86.2217 L40.5777,9.2617 L15.3047,9.2617 L15.3047,86.2217 Z M12.4817,87.6337 L12.4817,7.8507 C12.4817,7.0707 13.1137,6.4387 13.8937,6.4387 L41.9897,6.4387 C42.7687,6.4387 43.4007,7.0707 43.4007,7.8507 L43.4007,87.6337 C43.4007,88.4127 42.7687,89.0447 41.9897,89.0447 L13.8937,89.0447 C13.1137,89.0447 12.4817,88.4127 12.4817,87.6337 L12.4817,87.6337 Z M72.0957,78.6957 L66.0747,78.6957 C65.2957,78.6957 64.6627,79.3267 64.6627,80.1067 C64.6627,80.8867 65.2957,81.5177 66.0747,81.5177 L72.0957,81.5177 C72.8757,81.5177 73.5077,80.8867 73.5077,80.1067 C73.5077,79.3267 72.8757,78.6957 72.0957,78.6957 L72.0957,78.6957 Z M92.1767,2.8227 L52.4327,2.8227 L52.4327,6.4387 L87.1497,6.4387 C87.9297,6.4387 88.5607,7.0707 88.5607,7.8507 L88.5607,87.6337 C88.5607,88.4127 87.9297,89.0447 87.1497,89.0447 L52.4327,89.0447 L52.4327,92.6607 L92.1767,92.6607 L92.1767,2.8227 Z M90.4847,97.1767 L92.1767,97.1767 L92.1767,95.4837 L90.4847,95.4837 L90.4847,97.1767 Z M7.8237,92.6607 L49.6107,92.6607 L49.6107,2.8227 L7.8237,2.8227 L7.8237,92.6607 Z M7.8237,97.1767 L9.5157,97.1767 L9.5157,95.4837 L7.8237,95.4837 L7.8237,97.1767 Z M52.4327,86.2217 L85.7387,86.2217 L85.7387,73.9917 L52.4327,73.9917 L52.4327,86.2217 Z M52.4327,71.1687 L85.7387,71.1687 L85.7387,58.9387 L52.4327,58.9387 L52.4327,71.1687 Z M52.4327,56.1157 L85.7387,56.1157 L85.7387,29.5037 L81.0337,31.3857 L81.0337,46.9897 C81.0337,47.7687 80.4027,48.4007 79.6227,48.4007 L52.4327,48.4007 L52.4327,56.1157 Z M78.2107,24.9077 L78.2107,16.7887 L73.1367,16.7887 L78.2107,24.9077 Z M76.0267,26.7367 L72.0017,20.2987 L72.0017,28.3457 L76.0267,26.7367 Z M72.0017,31.3857 L72.0017,45.5777 L78.2107,45.5777 L78.2107,28.9027 L72.0017,31.3857 Z M81.0337,20.2987 L81.0337,28.3457 L85.0577,26.7367 L81.0337,20.2987 Z M85.7387,9.2617 L68.9917,9.2617 L68.9917,13.9657 L79.6227,13.9657 C80.1037,13.9657 80.5647,14.2217 80.8197,14.6287 L85.7387,22.4987 L85.7387,9.2617 Z M52.4327,45.5777 L69.1797,45.5777 L69.1797,16.7887 L64.3057,16.7887 C63.6707,19.3777 61.3307,21.3047 58.5477,21.3047 C55.7657,21.3047 53.4257,19.3777 52.7907,16.7887 L52.4327,16.7887 L52.4327,45.5777 Z M59.9597,13.9657 L66.1687,13.9657 L66.1687,9.2617 L59.9597,9.2617 L59.9597,13.9657 Z M58.5477,16.7887 L55.7857,16.7887 C56.3007,17.7917 57.3447,18.4817 58.5477,18.4817 C59.7517,18.4817 60.7947,17.7917 61.3107,16.7887 L58.5477,16.7887 Z M52.4327,13.9657 L57.1367,13.9657 L57.1367,9.2617 L52.4327,9.2617 L52.4327,13.9657 Z M94.9997,1.4117 L94.9997,98.5887 C94.9997,99.3677 94.3677,99.9997 93.5887,99.9997 L89.0727,99.9997 C88.2937,99.9997 87.6607,99.3677 87.6607,98.5887 L87.6607,95.4837 L12.3387,95.4837 L12.3387,98.5887 C12.3387,99.3677 11.7057,99.9997 10.9277,99.9997 L6.4107,99.9997 C5.6317,99.9997 4.9997,99.3677 4.9997,98.5887 L4.9997,1.4117 C4.9997,0.6317 5.6317,-0.0003 6.4107,-0.0003 L93.5887,-0.0003 C94.3677,-0.0003 94.9997,0.6317 94.9997,1.4117 L94.9997,1.4117 Z M45.0937,53.0107 L45.0937,43.9787 C45.0937,43.1987 45.7267,42.5677 46.5047,42.5677 C47.2837,42.5677 47.9167,43.1987 47.9167,43.9787 L47.9167,53.0107 C47.9167,53.7907 47.2837,54.4217 46.5047,54.4217 C45.7267,54.4217 45.0937,53.7907 45.0937,53.0107 L45.0937,53.0107 Z" id="icon_wardrobe-closet" fill="#3A4B60"></path>
    </g>
</svg>