<?xml version="1.0" encoding="UTF-8"?>
<svg width="100px" height="100px" viewBox="0 0 100 100" version="1.1" xmlns="http://www.w3.org/2000/svg" xmlns:xlink="http://www.w3.org/1999/xlink">
    <title>icon / furniture / washer-dryer-stackable</title>
    <g id="icon-/-furniture-/-washer-dryer-stackable" stroke="none" stroke-width="1" fill="none" fill-rule="evenodd">
        <path d="M57.438,74.984 L62.094,74.984 L62.094,70.328 L57.438,70.328 L57.438,74.984 Z M46.095,80.865 C47.056,80.865 47.975,80.693 48.832,80.389 C46.938,79.781 45.396,78.333 44.797,76.462 C44.237,74.718 42.232,73.73 40.326,74.265 C39.541,74.485 38.871,74.949 38.416,75.569 C39.598,78.664 42.585,80.865 46.095,80.865 L46.095,80.865 Z M37.882,72.402 C38.407,72.069 38.98,71.806 39.587,71.636 C42.888,70.708 46.396,72.499 47.397,75.63 C47.958,77.375 49.964,78.363 51.868,77.827 C52.193,77.735 52.494,77.596 52.774,77.427 C53.675,76.643 54.319,75.411 54.319,72.641 C54.319,68.098 50.638,64.416 46.095,64.416 C41.633,64.416 38.009,67.972 37.882,72.402 L37.882,72.402 Z M65.25,68.75 L65.25,76.563 C65.25,77.433 64.542,78.141 63.672,78.141 L56.019,78.141 L55.91,78.327 C53.881,81.826 50.119,84 46.094,84 C39.839,84 34.75,78.911 34.75,72.656 C34.75,72.361 34.762,72.062 34.785,71.765 C35.241,65.903 40.209,61.313 46.094,61.313 C50.106,61.313 53.865,63.486 55.903,66.985 L56.012,67.172 L63.672,67.172 C64.542,67.172 65.25,67.88 65.25,68.75 L65.25,68.75 Z M44.141,56.656 L63.672,56.656 C64.542,56.656 65.25,55.948 65.25,55.078 C65.25,54.208 64.542,53.5 63.672,53.5 L44.141,53.5 C43.271,53.5 42.562,54.208 42.562,55.078 C42.562,55.948 43.271,56.656 44.141,56.656 L44.141,56.656 Z M36.328,56.656 C37.198,56.656 37.906,55.948 37.906,55.078 C37.906,54.208 37.198,53.5 36.328,53.5 C35.458,53.5 34.75,54.208 34.75,55.078 C34.75,55.948 35.458,56.656 36.328,56.656 L36.328,56.656 Z M43.681,66.943 C43.681,66.189 44.293,65.577 45.046,65.577 C49.533,65.577 53.184,69.228 53.184,73.714 C53.184,74.468 52.571,75.079 51.818,75.079 C51.065,75.079 50.453,74.468 50.453,73.714 C50.453,70.734 48.027,68.308 45.046,68.308 C44.293,68.308 43.681,67.694 43.681,66.943 L43.681,66.943 Z M36.328,11.344 C37.198,11.344 37.906,10.636 37.906,9.766 C37.906,8.896 37.198,8.188 36.328,8.188 C35.458,8.188 34.75,8.896 34.75,9.766 C34.75,10.636 35.458,11.344 36.328,11.344 L36.328,11.344 Z M57.438,29.672 L62.094,29.672 L62.094,25.016 L57.438,25.016 L57.438,29.672 Z M54.319,27.328 C54.319,24.724 53.106,22.406 51.217,20.9 L48.871,24.884 C49.462,25.577 49.767,26.406 49.767,27.284 C49.767,28.185 49.447,29.031 48.86,29.703 L51.238,33.741 C53.115,32.234 54.319,29.923 54.319,27.328 L54.319,27.328 Z M46.095,35.553 C47.157,35.553 48.17,35.345 49.103,34.978 L46.712,30.918 C46.491,30.957 46.283,30.975 46.075,30.975 C44.502,30.975 43.114,29.98 42.597,28.518 L37.966,28.518 C38.543,32.495 41.957,35.553 46.095,35.553 L46.095,35.553 Z M46.606,26.188 C46.437,26.104 46.258,26.061 46.077,26.061 C45.873,26.061 45.668,26.114 45.471,26.223 C45.187,26.379 44.964,26.667 44.89,26.975 C44.784,27.41 44.908,27.853 45.222,28.158 C45.532,28.461 45.971,28.579 46.42,28.46 C46.73,28.377 47.015,28.143 47.159,27.85 L47.16,27.849 C47.504,27.156 47.148,26.461 46.606,26.188 L46.606,26.188 Z M37.979,26.05 L42.602,26.05 C43.223,24.356 44.981,23.329 46.733,23.652 L49.078,19.67 C48.152,19.309 47.148,19.104 46.095,19.104 C41.988,19.104 38.595,22.116 37.979,26.05 L37.979,26.05 Z M65.25,23.438 L65.25,31.25 C65.25,32.12 64.542,32.828 63.672,32.828 L56.019,32.828 L55.91,33.015 C53.881,36.514 50.119,38.688 46.094,38.688 C39.839,38.688 34.75,33.599 34.75,27.344 C34.75,27.049 34.762,26.749 34.785,26.452 C35.241,20.591 40.209,16 46.094,16 C50.106,16 53.865,18.174 55.903,21.673 L56.012,21.859 L63.672,21.859 C64.542,21.859 65.25,22.568 65.25,23.438 L65.25,23.438 Z M42.562,9.766 C42.562,8.896 43.271,8.188 44.141,8.188 L63.672,8.188 C64.542,8.188 65.25,8.896 65.25,9.766 C65.25,10.636 64.542,11.344 63.672,11.344 L44.141,11.344 C43.271,11.344 42.562,10.636 42.562,9.766 L42.562,9.766 Z M69.667,97 L30.333,97 C29.047,97 28,96.103 28,95 L28,92.188 L72,92.188 L72,95 C72,96.103 70.953,97 69.667,97 L69.667,97 Z M28,89.188 L72,89.188 L72,48.766 L28,48.766 L28,89.188 Z M30.333,3 L69.667,3 C70.953,3 72,3.898 72,5 L72,45.766 L28,45.766 L28,5 C28,3.898 29.047,3 30.333,3 L30.333,3 Z M69.667,0 L30.333,0 C27.388,0 25,2.238 25,5 L25,95 C25,97.762 27.388,100 30.333,100 L69.667,100 C72.612,100 75,97.762 75,95 L75,5 C75,2.238 72.612,0 69.667,0 L69.667,0 Z" id="icon_washer-dryer-stackable" fill="#3A4B60"></path>
    </g>
</svg>