<?xml version="1.0" encoding="UTF-8"?>
<svg width="100px" height="100px" viewBox="0 0 100 100" version="1.1" xmlns="http://www.w3.org/2000/svg" xmlns:xlink="http://www.w3.org/1999/xlink">
    <title>icon / furniture / water-bed</title>
    <g id="icon-/-furniture-/-water-bed" stroke="none" stroke-width="1" fill="none" fill-rule="evenodd">
        <path d="M95.5556,50.824 L95.7146,51.007 L95.4746,51.032 C91.9726,51.41 89.9526,53.065 88.1726,54.526 C86.3046,56.059 84.6936,57.383 81.3416,57.383 C77.9936,57.383 76.3806,56.059 74.5136,54.527 C72.4676,52.847 70.1536,50.949 65.6696,50.949 C61.1886,50.949 58.8726,52.848 56.8306,54.524 C54.9606,56.059 53.3496,57.383 49.9986,57.383 C46.6496,57.383 45.0356,56.059 43.1686,54.526 C41.1236,52.847 38.8096,50.949 34.3276,50.949 C29.8456,50.949 27.5316,52.848 25.4886,54.524 C23.6186,56.059 22.0066,57.383 18.6576,57.383 C15.3066,57.383 13.6936,56.058 11.8266,54.525 C10.0466,53.065 8.0316,51.412 4.5366,51.033 L4.2966,51.008 L4.4556,50.825 C7.6616,47.188 11.4426,42.935 12.2316,42.33 C12.9056,41.808 13.4346,41.553 13.8516,41.553 L86.1446,41.553 C86.6056,41.553 87.1516,41.814 87.7676,42.328 C88.2276,42.692 89.9536,44.464 95.5556,50.824 L95.5556,50.824 Z M97.0356,54.125 L97.0306,62.225 L96.9066,62.226 C92.4796,62.259 90.1906,64.139 88.1716,65.799 C86.3046,67.331 84.6926,68.654 81.3416,68.654 C77.9956,68.654 76.3826,67.332 74.5156,65.801 C72.4726,64.122 70.1606,62.221 65.6696,62.221 C61.1856,62.221 58.8686,64.123 56.8256,65.8 C54.9566,67.332 53.3466,68.654 49.9986,68.654 C46.6526,68.654 45.0386,67.331 43.1716,65.8 C41.1286,64.122 38.8166,62.221 34.3276,62.221 C29.8416,62.221 27.5276,64.123 25.4836,65.8 C23.6176,67.332 22.0046,68.654 18.6576,68.654 C15.3116,68.654 13.6996,67.332 11.8316,65.803 C9.8086,64.138 7.5196,62.258 3.0906,62.226 L2.9666,62.225 L2.9586,54.125 L3.0846,54.126 C6.3736,54.153 7.9686,55.462 9.8166,56.977 C11.8576,58.653 14.1706,60.553 18.6576,60.553 C23.1416,60.553 25.4566,58.652 27.4986,56.976 C29.3676,55.443 30.9796,54.121 34.3276,54.121 C37.6766,54.121 39.2886,55.443 41.1546,56.975 C43.2006,58.653 45.5146,60.553 49.9986,60.553 C54.4846,60.553 56.7986,58.652 58.8416,56.976 C60.7096,55.443 62.3226,54.121 65.6696,54.121 C69.0216,54.121 70.6336,55.444 72.5006,56.977 C74.5416,58.653 76.8556,60.553 81.3416,60.553 C85.8276,60.553 88.1436,58.652 90.1856,56.976 C92.0316,55.462 93.6246,54.154 96.9096,54.126 L97.0356,54.125 Z M97.0206,77.045 L2.9796,77.045 L2.9696,65.396 L3.0956,65.397 C6.3756,65.428 7.9706,66.734 9.8166,68.248 C11.8566,69.925 14.1676,71.825 18.6576,71.825 C23.1396,71.825 25.4556,69.924 27.4996,68.247 C29.3676,66.714 30.9796,65.391 34.3276,65.391 C37.6756,65.391 39.2876,66.715 41.1556,68.246 C43.1986,69.925 45.5096,71.825 49.9986,71.825 C54.4826,71.825 56.7976,69.924 58.8426,68.247 C60.7096,66.714 62.3226,65.391 65.6696,65.391 C69.0206,65.391 70.6336,66.716 72.5006,68.248 C74.5406,69.925 76.8526,71.825 81.3416,71.825 C85.8266,71.825 88.1426,69.924 90.1866,68.247 C92.0306,66.734 93.6206,65.429 96.9026,65.397 L97.0286,65.396 L97.0206,77.045 Z M12.8006,38.577 L12.8246,22.957 L87.1756,22.957 L87.1756,23.082 L87.1936,38.724 L87.0426,38.693 C86.7346,38.63 86.4396,38.598 86.1446,38.598 L13.8516,38.598 C13.5516,38.598 13.2576,38.632 12.9526,38.699 L12.8006,38.733 L12.8006,38.577 Z M87.0506,20 L12.9496,20 C11.2386,20 9.8446,21.393 9.8446,23.104 L9.8446,40.513 L9.8066,40.551 C8.5806,41.74 3.2326,47.759 0.9906,50.292 C0.3516,51.012 -0.0004,51.939 -0.0004,52.901 L-0.0004,76.895 C-0.0004,78.607 1.3936,80 3.1046,80 L96.8956,80 C98.6076,80 99.9996,78.607 99.9996,76.895 L99.9996,52.891 C99.9996,51.936 99.6516,51.012 99.0206,50.291 C95.7996,46.622 91.8856,42.199 90.1936,40.551 L90.1556,40.513 L90.1556,23.104 C90.1556,21.393 88.7616,20 87.0506,20 L87.0506,20 Z" id="icon_water-bed" fill="#3A4B60"></path>
    </g>
</svg>