<?xml version="1.0" encoding="UTF-8"?>
<svg width="100px" height="100px" viewBox="0 0 100 100" version="1.1" xmlns="http://www.w3.org/2000/svg" xmlns:xlink="http://www.w3.org/1999/xlink">
    <title>icon / furniture / water-cooler</title>
    <g id="icon-/-furniture-/-water-cooler" stroke="none" stroke-width="1" fill="none" fill-rule="evenodd">
        <path d="M53.499,81.0342 C53.499,80.0812 54.277,79.3102 55.248,79.3102 C56.212,79.3102 56.997,80.0812 56.997,81.0342 C56.997,81.9882 56.212,82.7592 55.248,82.7592 C54.277,82.7592 53.499,81.9882 53.499,81.0342 L53.499,81.0342 Z M53.499,74.1382 C53.499,73.1842 54.277,72.4142 55.248,72.4142 C56.212,72.4142 56.997,73.1842 56.997,74.1382 C56.997,75.0922 56.212,75.8622 55.248,75.8622 C54.277,75.8622 53.499,75.0922 53.499,74.1382 L53.499,74.1382 Z M43.003,81.0342 C43.003,80.0812 43.781,79.3102 44.752,79.3102 C45.716,79.3102 46.501,80.0812 46.501,81.0342 C46.501,81.9882 45.716,82.7592 44.752,82.7592 C43.781,82.7592 43.003,81.9882 43.003,81.0342 L43.003,81.0342 Z M43.003,74.1382 C43.003,73.1842 43.781,72.4142 44.752,72.4142 C45.716,72.4142 46.501,73.1842 46.501,74.1382 C46.501,75.0922 45.716,75.8622 44.752,75.8622 C43.781,75.8622 43.003,75.0922 43.003,74.1382 L43.003,74.1382 Z M70.448,17.2412 L29.545,17.2412 C28.968,17.2412 28.499,16.7792 28.499,16.2072 L28.499,14.8272 C28.499,14.2552 28.968,13.7932 29.545,13.7932 L70.448,13.7932 C71.029,13.7932 71.501,14.2552 71.501,14.8272 L71.501,16.2072 C71.501,16.7792 71.029,17.2412 70.448,17.2412 L70.448,17.2412 Z M31.997,31.0342 L68.003,31.0342 L68.003,20.6892 L31.997,20.6892 L31.997,31.0342 Z M71.501,36.8962 C71.501,37.4692 71.029,37.9302 70.448,37.9302 L29.545,37.9302 C28.968,37.9302 28.499,37.4692 28.499,36.8962 L28.499,35.5172 C28.499,34.9452 28.968,34.4822 29.545,34.4822 L70.448,34.4822 C71.029,34.4822 71.501,34.9452 71.501,35.5172 L71.501,36.8962 Z M68.003,41.3792 C68.003,45.1382 64.921,49.4712 62.967,51.7242 L37.033,51.7242 C35.072,49.4712 31.997,45.1382 31.997,41.3792 L68.003,41.3792 Z M68.003,55.1732 C69.931,55.1732 71.501,56.7172 71.501,58.6212 L71.501,93.1032 C71.501,95.0072 69.931,96.5522 68.003,96.5522 L31.997,96.5522 C30.065,96.5522 28.499,95.0072 28.499,93.1032 L28.499,58.6212 C28.499,56.7172 30.065,55.1732 31.997,55.1732 L35.496,55.1732 L64.504,55.1732 L68.003,55.1732 Z M31.997,6.8962 C31.997,4.9932 33.564,3.4482 35.496,3.4482 L64.504,3.4482 C66.432,3.4482 68.003,4.9932 68.003,6.8962 L68.003,10.3452 L31.997,10.3452 L31.997,6.8962 Z M75,17.2412 L75,13.7932 C75,11.8882 73.433,10.3452 71.501,10.3452 L71.501,6.8962 C71.501,3.0882 68.368,0.0002 64.504,0.0002 L35.496,0.0002 C31.628,0.0002 28.499,3.0882 28.499,6.8962 L28.499,10.3452 C26.565,10.3452 25,11.8882 25,13.7932 L25,17.2412 C25,19.1462 26.565,20.6892 28.499,20.6892 L28.499,31.0342 C26.565,31.0342 25,32.5772 25,34.4822 L25,37.9302 C25,39.8362 26.565,41.3792 28.499,41.3792 C28.499,45.2482 30.688,49.0742 32.621,51.7242 L31.997,51.7242 C28.13,51.7242 25,54.8122 25,58.6212 L25,93.1032 C25,96.9122 28.13,100.0002 31.997,100.0002 L68.003,100.0002 C71.863,100.0002 75,96.9122 75,93.1032 L75,58.6212 C75,54.8122 71.863,51.7242 68.003,51.7242 L67.375,51.7242 C69.308,49.0742 71.501,45.2482 71.501,41.3792 C73.433,41.3792 75,39.8362 75,37.9302 L75,34.4822 C75,32.5772 73.433,31.0342 71.501,31.0342 L71.501,20.6892 C73.433,20.6892 75,19.1462 75,17.2412 L75,17.2412 Z M36.542,62.0692 L39.156,62.0692 L42.053,67.7862 C42.422,68.5112 43.167,68.9662 43.987,68.9662 L45.515,68.9662 C46.33,68.9662 47.082,68.5112 47.448,67.7862 L50,62.7592 L52.549,67.7862 C52.918,68.5112 53.663,68.9662 54.481,68.9662 L56.011,68.9662 C56.825,68.9662 57.578,68.5112 57.943,67.7862 L60.844,62.0692 L63.451,62.0692 C64.032,62.0692 64.504,62.5312 64.504,63.1032 L64.504,85.1732 C64.504,85.7452 64.032,86.2072 63.451,86.2072 L36.542,86.2072 C35.965,86.2072 35.496,85.7452 35.496,85.1732 L35.496,63.1032 C35.496,62.5312 35.965,62.0692 36.542,62.0692 L36.542,62.0692 Z M57.326,62.0692 L55.438,65.7862 C55.416,65.8312 55.367,65.8602 55.316,65.8602 L55.18,65.8602 C55.125,65.8602 55.076,65.8312 55.058,65.7862 L53.172,62.0692 L57.326,62.0692 Z M46.828,62.0692 L44.942,65.7862 C44.92,65.8312 44.871,65.8602 44.82,65.8602 L44.684,65.8602 C44.63,65.8602 44.581,65.8312 44.561,65.7862 L42.676,62.0692 L46.828,62.0692 Z M31.997,62.0692 L31.997,86.2072 C31.997,88.1122 33.562,89.6552 35.496,89.6552 L64.504,89.6552 C66.436,89.6552 68.003,88.1122 68.003,86.2072 L68.003,62.0692 C68.003,60.1642 66.436,58.6212 64.504,58.6212 L35.496,58.6212 C33.562,58.6212 31.997,60.1642 31.997,62.0692 L31.997,62.0692 Z" id="icon_water-cooler" fill="#3A4B60"></path>
    </g>
</svg>