<?xml version="1.0" encoding="UTF-8"?>
<svg width="100px" height="100px" viewBox="0 0 100 100" version="1.1" xmlns="http://www.w3.org/2000/svg" xmlns:xlink="http://www.w3.org/1999/xlink">
    <title>icon / furniture / weed-whacker_edger</title>
    <g id="icon-/-furniture-/-weed-whacker_edger" stroke="none" stroke-width="1" fill="none" fill-rule="evenodd">
        <path d="M61.6232,12.7556 C64.0472,7.1196 69.5772,3.4766 75.7132,3.4766 L76.2142,3.4766 C79.1422,3.4766 81.5232,5.8586 81.5232,8.7856 C81.5232,11.7136 79.1422,14.0956 76.2142,14.0956 L61.0492,14.0956 L61.6232,12.7556 Z M48.5242,34.4256 L38.9242,34.4256 L41.8852,28.5046 L51.0602,28.5046 L48.5242,34.4256 Z M43.0762,61.2856 L44.5562,67.2066 L34.9142,67.2066 L36.3942,61.2856 L43.0762,61.2856 Z M50.0012,70.6836 L53.8722,76.9556 L53.8722,91.8246 L46.1722,91.8246 L46.1722,88.8646 C46.1722,87.9056 45.3932,87.1266 44.4342,87.1266 L35.0362,87.1266 C34.0772,87.1266 33.2982,87.9056 33.2982,88.8646 L33.2982,91.8246 L25.5982,91.8246 L25.5982,76.9726 L29.6262,70.6836 L50.0012,70.6836 Z M36.7742,96.5246 L42.6952,96.5246 L42.6952,90.6026 L36.7742,90.6026 L36.7742,96.5246 Z M85.0002,8.7856 C85.0002,3.9416 81.0592,-0.0004 76.2142,-0.0004 L75.7132,-0.0004 C68.1852,-0.0004 61.4012,4.4686 58.4302,11.3836 L56.9272,14.8506 C56.8622,14.9436 56.8082,15.0416 56.7612,15.1496 L52.5512,25.0286 L40.8102,25.0286 C40.1472,25.0286 39.5522,25.3976 39.2542,25.9896 L34.5562,35.3866 C34.2852,35.9296 34.3132,36.5626 34.6322,37.0776 C34.9462,37.5866 35.5142,37.9016 36.1112,37.9016 L47.0342,37.9016 L38.5892,57.8096 L35.0362,57.8096 C34.2372,57.8096 33.5432,58.3516 33.3502,59.1256 L31.3302,67.2066 L28.6762,67.2066 C28.0802,67.2066 27.5332,67.5066 27.2112,68.0076 L22.3942,75.5256 C22.2162,75.8056 22.1212,76.1306 22.1212,76.4626 L22.1212,91.8246 L16.7382,91.8246 C15.7792,91.8246 15.0002,92.6046 15.0002,93.5636 C15.0002,94.5226 15.7792,95.3016 16.7382,95.3016 L33.2982,95.3016 L33.2982,98.2616 C33.2982,99.2206 34.0772,99.9996 35.0362,99.9996 L44.4342,99.9996 C45.3932,99.9996 46.1722,99.2206 46.1722,98.2616 L46.1722,95.3016 L58.0772,95.3016 C59.0362,95.3016 59.8152,94.5226 59.8152,93.5636 C59.8152,92.6046 59.0362,91.8246 58.0772,91.8246 L57.3492,91.8246 L57.3492,76.4626 C57.3492,76.1406 57.2592,75.8246 57.0902,75.5496 L52.4512,68.0326 C52.1372,67.5226 51.5702,67.2066 50.9722,67.2066 L48.1402,67.2066 L46.1202,59.1256 C45.9272,58.3516 45.2322,57.8096 44.4342,57.8096 L42.3712,57.8096 L59.5052,17.5716 L76.2142,17.5716 C81.0592,17.5716 85.0002,13.6306 85.0002,8.7856 L85.0002,8.7856 Z" id="icon_weed-whacker_edger" fill="#3A4B60"></path>
    </g>
</svg>