<?xml version="1.0" encoding="UTF-8"?>
<svg width="100px" height="100px" viewBox="0 0 100 100" version="1.1" xmlns="http://www.w3.org/2000/svg">
    <title>icon / furniture / weight-bench</title>
    <g id="icon-/-furniture-/-weight-bench" stroke="none" stroke-width="1" fill="none" fill-rule="evenodd">
        <path d="M95.5757,38.3723 C95.2547,38.5103 94.8777,38.5373 94.5227,38.5633 C94.0987,38.5963 93.6727,38.5753 93.2467,38.5713 C92.8607,38.5683 92.5487,38.2553 92.5487,37.8683 C92.5467,35.6313 92.5477,33.3933 92.5477,31.1563 L92.5547,31.1563 C92.5547,28.9813 92.5537,26.8063 92.5547,24.6313 C92.5547,23.8663 92.6157,23.7913 93.3897,23.8183 C94.0037,23.8413 94.6247,23.8463 95.2287,23.9343 C96.1327,24.0663 96.9377,24.8993 97.0057,25.8093 C97.0177,25.9643 97.0207,26.1183 97.0207,26.2723 C97.0217,29.5423 97.0157,32.8113 97.0257145,36.0803 C97.0287,37.1653 96.5677,37.9483 95.5757,38.3723 L95.5757,38.3723 Z M89.0907,42.1673 C88.6027,42.7873 87.9387,43.0453 87.1647,43.0483 C86.6427,43.0513 86.1197,43.0553 85.5977,43.0513 C85.1577,43.0483 85.1177,43.0063 85.1177,42.5493 C85.1177,38.7573 85.1177,34.9653 85.1177,31.1743 C85.1177,27.4193 85.1177,23.6653 85.1177,19.9113 C85.1177,19.3053 85.1187,19.3043 85.7107,19.3033 C86.2087,19.3033 86.7057,19.3063 87.2027,19.3043 C88.4597,19.2983 89.5857,20.3263 89.5807,21.6203 C89.5747,23.3973 89.5757,25.1753 89.5757,26.9523 C89.5777,31.4403 89.5777,35.9283 89.5907292,40.4163 C89.5927,41.0583 89.4927,41.6553 89.0907,42.1673 L89.0907,42.1673 Z M82.1457,32.8723 C82.0997,34.0043 82.2827,34.0073 81.5367,34.0073 C71.0287,34.0083 60.5197,34.0083 50.0107,34.0083 L50.0107,34.0033 L49.3767,34.0033 C39.0417,34.0053 28.7077,34.0063 18.3727,34.0083 C17.8607,34.0083 17.8517,34.0073 17.8526503,33.5193 C17.8547,32.0193 17.8557,30.5173 17.8577,29.0183 C17.8617,28.3563 17.8247,28.3483 18.3747,28.3483 C23.8587,28.3473 39.3747,28.3483 44.8597,28.3463 C45.4037,28.3463 45.9487,28.3483 46.4927,28.3443 C49.4997,28.3443 52.5057,28.3473 55.5127,28.3463 C64.2177,28.3463 72.9237,28.3423 81.6287,28.3413 C82.2327,28.3413 82.1177,28.3493 82.1407,29.2683 C82.1417,30.4683 82.1437,31.6723 82.1457,32.8723 L82.1457,32.8723 Z M67.8097,69.1973 C67.8097,69.6853 67.7917,69.7033 67.3107,69.7033 C65.7437,69.7053 39.5677,69.7093 33.0707,69.7093 L32.7347,69.7093 C32.1967,69.7053 32.1897,69.6983 32.1897,69.1703 C32.1877,58.6733 32.1867,48.1773 32.1847,37.6813 C32.1847,37.5943 32.1917,37.5063 32.1837,37.4203 C32.1567,37.1073 32.2757,36.9453 32.6077,36.9763 C32.7067,36.9863 32.8067,36.9773 32.9067,36.9773 L67.0817,36.9773 C67.1567,36.9773 67.2307,36.9763 67.3057,36.9773 C67.7837,36.9833 67.8127,37.0093 67.8138129,37.4873 C67.8147,38.9093 67.8087,62.7803 67.8097,69.1973 L67.8097,69.1973 Z M70.7677,36.9773 L74.5037,36.9773 L74.5037,69.7083 L70.7677,69.7073 L70.7677,36.9773 Z M25.4887,69.7153 L25.4987,36.9813 L29.2277,36.9883 L29.2267,69.7153 L25.4887,69.7153 Z M77.5747,72.6963 C78.1457,72.6963 78.7217,72.6913 79.2887,72.7493 C81.1487,72.9393 82.5667,73.8643 83.5967,75.4113 C84.4787,76.7363 84.5607,78.2253 84.4727,79.7433 C84.4677,79.8313 84.3267,79.9483 84.2257,79.9833 C84.1027,80.0253 83.9557,79.9953 83.8187,79.9953 C72.5377,79.9963 27.3867,79.9963 16.0987,79.9953 C15.7617,79.9953 15.4987,79.7203 15.5157,79.3833 C15.5247,79.2133 15.5307,79.0423 15.5367,78.8713 C15.5917,77.4033 16.0637,75.9593 16.9717,74.8043 C18.3407,73.0613 19.9747,72.6903 21.7117,72.6903 C32.0397,72.6953 72.6737,72.6953 77.5747,72.6963 L77.5747,72.6963 Z M70.7637,82.9503 L74.5097,82.9503 L74.5137,90.6833 L70.7607,90.6833 L70.7637,82.9503 Z M79.4577,93.6453 C80.1527,93.6443 80.1227,93.6463 80.1267,94.3903 C80.1277,95.1033 80.1297,95.8193 80.1307,96.5333 C80.1297,97.0273 80.1037,97.0323 79.5757,97.0323 C77.2637,97.0333 74.9517,97.0333 72.6387,97.0333 C70.3267,97.0333 68.0147,97.0333 65.7017,97.0323 C65.4247,97.0323 65.1977,96.8093 65.1957,96.5313 C65.1897,95.7213 65.1987,94.9103 65.1817,94.1013 C65.1757,93.7743 65.3057,93.6403 65.6217,93.6623 C65.6717,93.6663 65.7217,93.6623 65.7707,93.6623 C70.3337,93.6563 74.8957,93.6503 79.4577,93.6453 L79.4577,93.6453 Z M29.2327,90.6513 L25.5207,90.6383 L25.5187,82.9623 L29.2367,82.9623 L29.2327,90.6513 Z M34.2467,93.646297 C34.5507,93.6453 34.7987,93.8913 34.8027,94.1943 C34.8107,94.9763 34.8197,95.7593 34.8217,96.5413 C34.8217,96.8123 34.6007,97.0323 34.3297,97.0323 C32.0057,97.0343 29.6807,97.0333 27.3567,97.0333 L27.3567,97.0283 C25.0447,97.0283 22.7327,97.0283 20.4207,97.0273 C20.1227,97.0273 19.8797,96.7863 19.8777,96.4873 C19.8727,95.7143 19.8687,94.9403 19.8676791,94.1673 C19.8667,93.7003 19.8997,93.6643 20.3817,93.6633 C22.3327,93.6613 24.2837,93.6643 26.2357,93.6623 C28.9057,93.6583 31.5757,93.6503 34.2467,93.646297 L34.2467,93.646297 Z M25.4887,3.0003 L29.2307,3.0003 L29.2317,25.3793 L25.4877,25.3793 L25.4887,3.0003 Z M70.7567,2.9573 C72.0047,3.0013 73.2547,2.9693 74.5037,2.9793 C74.5047,6.7643 74.4977,25.3733 74.4977,25.3733 L70.7617,25.3733 C70.7617,25.3733 70.7657,10.4043 70.7567,2.9573 L70.7567,2.9573 Z M14.8877,31.1743 L14.8807,31.1743 L14.8807,42.4363 C14.8807,43.0463 14.8737,43.0563 14.2477,43.0513 C13.6527,43.0463 13.0547,43.0593 12.4627,43.0103 C11.3327,42.9153 10.4447,41.9913 10.4307,40.8573 C10.4047,38.6463 10.4167,36.4353 10.4157,34.2243 C10.4147,30.0973 10.4237,25.9703 10.4096919,21.8433 C10.4077,20.8573 10.7747,20.0963 11.6337,19.6253 C11.9587,19.4463 12.3547,19.3523 12.7267,19.3183 C13.2817,19.2683 13.8447,19.3023 14.4037,19.3043 C14.8477,19.3063 14.8867,19.3433 14.8877,19.8013 C14.8897,22.1623 14.8877,24.5243 14.8877,26.8863 C14.8887,28.3153 14.8877,29.7453 14.8877,31.1743 L14.8877,31.1743 Z M7.4507,31.1853 L7.4487,31.1853 C7.4487,33.3863 7.4507,35.5863 7.4477,37.7863 C7.4467,38.2163 7.0947,38.5613 6.6657,38.5553771 C6.1187,38.5463 5.5717,38.5353 5.0247,38.5153 C3.9667,38.4763 3.0307,37.5853 2.9927,36.5263 C2.9597,35.5863 2.9747,34.6443 2.9747,33.7033 C2.9747,31.1923 2.9817,28.6823 2.9797,26.1703 C2.9787,25.2363 3.3987,24.5433 4.1987,24.1053 C4.5027,23.9383 4.8757,23.8553 5.2257,23.8253 C5.7567,23.7773 6.2937,23.8053 6.8287,23.8083 C7.1717,23.8093 7.4477,24.0913 7.4487,24.4343 C7.4527,26.0373 7.4497,27.6433 7.4507,29.2463 L7.4507,31.1853 Z M99.9947,26.1803 C99.9957,25.4373 99.8547,24.7323 99.5727,24.0423 C98.8237,22.2083 96.9167,20.8853 94.9297,20.8573 C94.2337,20.8483 93.5377,20.8433 92.8417,20.8503 C92.6237,20.8513 92.5067,20.8013 92.4527,20.5623 C92.3757,20.2263 92.2727,19.8903 92.1307,19.5753 C91.2577,17.6443 89.7497,16.5523 87.6497,16.3703 C86.5517,16.2753 85.4377,16.3403 84.3307,16.3463 C84.1237,16.3473 83.9047,16.3743 83.7117,16.4473 C82.6397,16.8533 82.1347,17.5953 82.1327,18.7583 C82.1297,20.7983 82.1357,22.8373 82.1367,24.8773 C82.1377,25.3773 82.1357,25.3793 81.6497,25.3793 C80.4437,25.3803 79.2377,25.3803 78.0317,25.3793 C77.4747,25.3793 77.4727,25.3763 77.4727,24.8143 C77.4757,18.5843 77.4537,4.0003 77.4647,2.7813 C77.4757,1.3873 76.0377,-0.0367 74.5267,0.0043 C73.2597,0.0383 71.9897,0.000466955393 70.7217,0.0183 C70.4217,0.0223 70.1137,0.0913 69.8257,0.1833 C68.6767,0.5513 67.7987,1.7113 67.8057,3.0523 C67.8287,7.6523 67.8077,22.1383 67.8217,24.9353 C67.8227,25.2823 67.7117,25.4153 67.3737,25.3813 C67.2387,25.3673 67.1007,25.3793 66.9637,25.3793 C59.9267,25.3793 52.8887,25.3793 45.8517,25.3803 C42.2827,25.3763 33.9727,25.3803 32.6917,25.3793 C32.1857,25.3783 32.1847,25.3763 32.1847,24.8563 C32.1847,22.8543 32.1627,8.3943 32.1957,3.0103 C32.2047,1.5113 30.8467,-0.0607 29.1587,0.0023 C27.9047,0.0483 26.6477,0.0173 25.3917,0.0103 C24.5537,0.0053 23.8927,0.3853 23.3257,0.9513 C22.6887,1.5893 22.5117,2.3843 22.5127,3.2683 C22.5237,10.5683 22.5157,17.5543 22.5137,24.8543 C22.5137,25.3633 22.5047,25.3723 21.9887,25.3733 C20.7697,25.3763 19.5507,25.3643 18.3317,25.3873 C17.9587,25.3933 17.8407,25.2893 17.8437,24.9053 C17.8617,22.8413 17.8367,20.7763 17.8567,18.7123 C17.8697,17.3773 16.8607,16.3083 15.4947,16.3383 C14.5007,16.3603 13.5047,16.3393 12.5107,16.3453 C11.6307,16.3513 10.8237,16.6333 10.0747,17.0673 C8.7387,17.8443 7.9197,19.0183 7.5477,20.5063 C7.4827,20.7643 7.3657,20.8403 7.1117,20.8373 C6.3657,20.8293 5.6127,20.7833 4.8747,20.8673 C4.2567,20.9383 3.6097,21.0753 3.0567,21.3483 C1.0067,22.3593 -0.0033,24.0473 0.0017,26.3433 C0.0087,29.5883 0.0077,32.8343 -0.000328182953,36.0803 C-0.0023,36.8873 0.1017,37.6693 0.4547,38.3983 C1.3047,40.1523 2.6587,41.2523 4.6297,41.4613 C5.4547,41.5493 6.2927,41.5313 7.1247,41.5423 C7.3617,41.5443 7.4857,41.6033 7.5487,41.8463 C7.6387,42.1923 7.7357,42.5453 7.8897,42.8653 C8.7127,44.5793 10.0227,45.7133 11.9427,45.9303 C13.1357,46.0633 14.3497,46.0203 15.5547,46.0223 C15.8817,46.0233 16.2347,45.9553 16.5307,45.8203 C17.4187,45.4143 17.8447,44.6793 17.8487,43.7113 C17.8567,41.6353 17.8507,39.5583 17.8527,37.4803 C17.8537,36.9983 17.8747,36.9783 18.3607,36.9773 C19.5417,36.9763 20.7227,36.9763 21.9047,36.9773 C22.4927,36.9773 22.5197,37.0043 22.5197,37.5843 L22.5197,69.1463 C22.5197,69.6773 22.4867,69.6863 21.9407,69.7133 C21.1597,69.7523 20.3657,69.7483 19.6017,69.8933 C18.2337,70.1543 16.9887,70.7353 15.8927,71.6103 C14.2967,72.8853 13.2527,74.5113 12.7697,76.4993 C12.4387,77.8613 12.5307,79.2403 12.5777,80.6183 C12.5827,80.7753 12.6297,80.9383 12.6907,81.0853 C13.2107,82.3433 14.1187,82.9523 15.4917,82.9543 C17.6797,82.9583 19.8687,82.9563 22.0577,82.9473 C22.3737,82.9453 22.5297,83.0163 22.5277,83.3833 C22.5127,85.6583 22.5147,87.9353 22.5257,90.2103 C22.5277,90.5573 22.3897,90.6753 22.0627,90.6703 C21.3667,90.6603 20.6687,90.6463 19.9737,90.6773 C19.5937,90.6933 19.1867,90.7253 18.8447,90.8723 C17.5697,91.4223 16.9087,92.4083 16.9137,93.8153 C16.9167,94.7353 16.8957,95.6563 16.9207,96.5763 C16.9337,97.0433 16.9887,97.5173 17.0897,97.9723 C17.3077,98.9493 18.5767,99.9773 19.5737,99.9793 C24.7597,99.9873 29.9457,99.9823 35.1317,99.9803 C35.2667,99.9803 35.4107,99.9793 35.5357,99.9353 C37.0297,99.4143 37.7957,98.3423 37.8037,96.7603 C37.8077,95.8023 37.8247,94.8443 37.7867,93.8883 C37.7687,93.4353 37.7137,92.9563 37.5447,92.5433 C37.0217,91.2673 36.0047,90.6843 34.6467,90.6693 C33.9507,90.6613 33.2537,90.6623 32.5567,90.6683 C32.2917,90.6713 32.1677,90.5703 32.1817,90.2933 C32.1957,90.0333 32.1847,89.7703 32.1847,89.5103 C32.1847,87.4713 32.1937,85.4313 32.1787,83.3923 C32.1757,83.0453 32.2827,82.9083 32.6227,82.9513 C32.6957,82.9613 32.7717,82.9543 32.8467,82.9543 C39.9597,82.9533 62.9417,82.9523 67.3197,82.9493 C67.5937,82.9493 67.8217,82.9253 67.8197,83.3383 C67.8037,85.6393 67.8077,87.9393 67.8197,90.2403 C67.8217,90.5723 67.6957,90.6763 67.3817,90.6713 C66.6597,90.6593 65.9387,90.6583 65.2177,90.6713 C63.5517,90.7003 62.2787,91.9113 62.2227,93.5713 C62.1827,94.7513 62.1967,95.9343 62.2217,97.1153 C62.2537,98.7203 63.7037,100.0103 65.2257,100.000358 C70.1757,99.9663 75.1257,99.9873 80.0757,99.9853 C80.3107,99.9853 80.5637,100.0183 80.7797,99.9463 C82.1707,99.4873 83.0867,98.4533 83.0847,96.8853 C83.0827,95.9023 83.1037,94.9203 83.0757,93.9373 C83.0637,93.4963 83.0327,93.0303 82.8817,92.6233 C82.5257,91.6593 81.8407,90.9433 80.8097,90.7853 C79.8847,90.6433 78.9297,90.6913 77.9867,90.6663 C77.5237,90.6533 77.4737,90.6173 77.4737,90.1493 C77.4727,87.9613 77.4727,85.7713 77.4727,83.5833 C77.4727,82.9513 77.4737,82.9503 78.1107,82.9503 C80.2867,82.9503 82.4627,82.9393 84.6387,82.9533 C86.2127,82.9633 87.4547,81.6953 87.4507,80.2673 C87.4497,79.5333 87.4547,78.7993 87.4387,78.0653 C87.4057,76.5773 86.9447,75.2123 86.1757,73.9513 C85.1557,72.2783 83.7297,71.0743 81.9107,70.3393 C80.6917,69.8473 79.4157,69.7093 78.1167,69.7093 C77.4847,69.7083 77.4727,69.6963 77.4727,69.0573 C77.4727,60.1903 77.4767,39.1253 77.4707,37.4583 C77.4697,37.1403 77.5687,36.9713 77.9187,36.9753 C79.1997,36.9863 80.4797,36.9883 81.7607,36.9823 C82.0407,36.9803 82.1407,37.1013 82.1347,37.3603 C82.1287,37.5723 82.1377,37.7833 82.1377,37.9953 C82.1377,39.8603 82.1547,41.7263 82.1317,43.5913 C82.1167,44.7903 82.8667,45.9853 84.3587,46.0183 C85.5617,46.0443 86.7697,46.0223 87.9717,45.9553 C89.1057,45.8923 90.0547,45.3603 90.8807,44.5973 C91.6687,43.8673 92.1827,42.9763 92.4297,41.9353 C92.5047,41.6253 92.6677,41.5513 92.9587,41.5603 C93.5057,41.5783 94.0597,41.6203 94.5987,41.5513 C95.3307,41.4563 96.1047,41.3893 96.7667,41.0963 C98.8697,40.1633 99.9747,38.4963 99.9897,36.1793 C100.0117,32.8463 99.9927,29.5133 99.9947,26.1803 L99.9947,26.1803 Z"
              id="icon_weight-bench" fill="#3A4B60"></path>
    </g>
</svg>