<?xml version="1.0" encoding="UTF-8"?>
<svg width="100px" height="100px" viewBox="0 0 100 100" version="1.1" xmlns="http://www.w3.org/2000/svg">
    <title>icon / furniture / wheelbarrow</title>
    <g id="icon-/-furniture-/-wheelbarrow" stroke="none" stroke-width="1" fill="none" fill-rule="evenodd">
        <path d="M95.5769,44.3292 L22.0099,25.5262 L21.9969,20.9892 L96.6649,40.0722 L95.5769,44.3292 Z M59.3989,66.3922 C57.2879,67.9062 54.4539,68.0722 52.1809,66.8132 L22.0779,50.1522 L22.0179,28.6352 L88.3989,45.6002 L59.3989,66.3922 Z M75.7199,82.0782 L72.5809,76.7162 C73.1639,76.5402 73.7799,76.4432 74.4189,76.4432 C77.9439,76.4432 80.8129,79.3122 80.8129,82.8382 C80.8129,86.3642 77.9439,89.2332 74.4189,89.2332 C70.8919,89.2332 68.0239,86.3642 68.0239,82.8382 C68.0239,81.0332 68.7789,79.4032 69.9859,78.2392 L73.1229,83.5982 C73.4019,84.0762 73.9049,84.3432 74.4229,84.3432 C74.6809,84.3432 74.9419,84.2762 75.1809,84.1372 C75.8979,83.7172 76.1399,82.7952 75.7199,82.0782 L75.7199,82.0782 Z M66.0219,71.4672 L68.6399,75.9412 C66.6729,77.5932 65.4189,80.0682 65.4189,82.8382 C65.4189,87.8082 69.4479,91.8382 74.4189,91.8382 C79.3899,91.8382 83.4189,87.8082 83.4189,82.8382 C83.4189,77.8682 79.3899,73.8382 74.4189,73.8382 C73.2989,73.8382 72.2299,74.0532 71.2409,74.4262 L68.6189,69.9462 C70.4179,69.1352 72.3909,68.6912 74.4229,68.6912 C75.5779,68.6912 76.7529,68.8352 77.9229,69.1342 C85.4789,71.0642 90.0559,78.7842 88.1249,86.3412 C86.1939,93.8972 78.4739,98.4752 70.9179,96.5432 C67.2579,95.6072 64.1809,93.3032 62.2539,90.0522 C60.3269,86.8022 59.7809,82.9962 60.7169,79.3362 C61.5559,76.0542 63.4869,73.3362 66.0219,71.4672 L66.0219,71.4672 Z M27.6589,82.8432 C26.9309,84.3792 25.5089,84.6662 24.4209,84.4232 C23.3339,84.1802 22.1699,83.3132 22.1649,81.6132 L22.0869,53.5982 L37.4899,62.1232 L27.6589,82.8432 Z M55.2089,14.9502 C69.0329,14.9502 81.0119,22.9042 86.8749,34.4642 L35.0839,21.2282 C40.8079,17.2742 47.7399,14.9502 55.2089,14.9502 L55.2089,14.9502 Z M99.7899,38.2202 C99.5859,37.8762 99.2549,37.6282 98.8679,37.5292 L90.3589,35.3542 C84.4999,21.7382 70.9729,12.2002 55.2089,12.2002 C46.3079,12.2002 38.1249,15.2472 31.6259,20.3452 L21.9879,17.8812 L21.9749,13.2302 C21.9539,5.9342 16.0029,0.0002 8.7069,0.0002 L1.5049,0.0002 C0.6739,0.0002 -0.0001,0.6742 -0.0001,1.5052 C-0.0001,2.3352 0.6739,3.0092 1.5049,3.0092 L8.7079,3.0102 C14.3479,3.0102 18.9489,7.5982 18.9659,13.2382 L19.1549,81.6222 C19.1629,84.4382 21.0149,86.7442 23.7639,87.3592 C24.2199,87.4612 24.6719,87.5112 25.1159,87.5112 C27.3529,87.5112 29.3709,86.2572 30.3789,84.1332 L40.1289,63.5832 L50.7229,69.4462 C52.1919,70.2602 53.8229,70.6612 55.4499,70.6612 C57.4609,70.6612 59.4669,70.0482 61.1529,68.8382 L63.4999,67.1562 L64.4949,68.8572 C61.2929,71.1272 58.8469,74.4982 57.8009,78.5912 C56.6659,83.0292 57.3279,87.6452 59.6649,91.5872 C62.0019,95.5282 65.7339,98.3242 70.1739,99.4592 C71.5909,99.8202 73.0249,100.0002 74.4499,100.0002 C77.4899,100.0002 80.4859,99.1852 83.1699,97.5942 C87.1109,95.2582 89.9059,91.5252 91.0409,87.0862 C93.3839,77.9222 87.8329,68.5602 78.6689,66.2182 C74.6429,65.1892 70.5809,65.6832 67.0919,67.3372 L65.9559,65.3952 L92.2079,46.5742 L96.2899,47.6172 C96.4149,47.6482 96.5409,47.6642 96.6639,47.6642 C97.3349,47.6642 97.9469,47.2122 98.1209,46.5312 L99.9539,39.3592 C100.0519,38.9732 99.9929,38.5622 99.7899,38.2202 L99.7899,38.2202 Z"
              id="icon_wheelbarrow" fill="#3A4B60"></path>
    </g>
</svg>