<?xml version="1.0" encoding="UTF-8"?>
<svg width="100px" height="100px" viewBox="0 0 100 100" version="1.1" xmlns="http://www.w3.org/2000/svg" xmlns:xlink="http://www.w3.org/1999/xlink">
    <title>icon / furniture / wicker-chair</title>
    <g id="icon-/-furniture-/-wicker-chair" stroke="none" stroke-width="1" fill="none" fill-rule="evenodd">
        <path d="M11.857,19.524 C11.859,19.522 11.859,19.521 11.861,19.519 C12.01,19.296 12.163,19.076 12.318,18.857 C14.8,15.363 18.256,12.274 22.416,9.736 L23.712,11.699 C23.114,12.075 22.524,12.459 21.957,12.86 C18.389,15.381 15.54,18.3 13.488,21.538 C13.175,22.029 12.88,22.533 12.61,23.034 C12.291,23.623 12.01,24.22 11.748,24.822 L9.638,23.656 C10.236,22.233 10.973,20.852 11.856,19.527 C11.857,19.526 11.857,19.526 11.857,19.524 L11.857,19.524 Z M27.789,6.93 C28.041,6.819 28.295,6.71 28.551,6.603 C33.425,4.57 38.939,3.217 44.826,2.705 L44.981,4.803 C39.254,5.336 33.868,6.699 28.962,8.893 C28.442,9.126 27.927,9.366 27.421,9.618 C27.279,9.688 27.142,9.769 27.003,9.845 L25.72,7.906 C26.397,7.569 27.082,7.239 27.788,6.93 L27.789,6.93 Z M50.086,2.465 C56.549,2.465 62.675,3.485 68.152,5.307 C68.673,5.48 69.191,5.662 69.703,5.852 C69.976,5.953 70.243,6.063 70.513,6.169 L69.528,8.003 C69.513,7.997 69.499,7.99 69.483,7.984 C68.958,7.78 68.427,7.586 67.89,7.4 C62.4,5.5 56.486,4.535 50.312,4.535 C49.778,4.535 49.259,4.551 48.74,4.565 L48.586,2.491 C49.085,2.478 49.582,2.465 50.086,2.465 L50.086,2.465 Z M78.258,10.03 C81.203,11.882 83.773,14.022 85.878,16.387 C86.244,16.795 86.595,17.212 86.933,17.636 C87.689,18.585 88.359,19.571 88.964,20.581 L87.226,21.713 C86.905,21.188 86.572,20.668 86.203,20.16 C85.878,19.71 85.521,19.251 85.146,18.795 C83.449,16.737 81.388,14.824 79.016,13.108 L78.664,12.857 C77.429,11.985 76.11,11.164 74.742,10.42 C74.175,10.108 73.573,9.827 72.978,9.539 L73.98,7.674 C74.786,8.064 75.579,8.466 76.343,8.893 C76.998,9.258 77.637,9.636 78.258,10.03 L78.258,10.03 Z M25.358,14.187 C21.394,16.663 18.194,19.685 16.022,23.09 C15.736,23.541 15.464,23.998 15.217,24.454 C14.893,25.05 14.617,25.656 14.36,26.266 L12.693,25.344 C12.953,24.739 13.232,24.136 13.553,23.544 C13.812,23.063 14.095,22.582 14.392,22.111 C16.37,18.994 19.124,16.175 22.577,13.735 C23.134,13.341 23.714,12.963 24.305,12.594 L25.358,14.187 Z M45.2,7.751 C39.928,8.26 34.802,9.552 30.296,11.548 C29.8,11.77 29.31,12 28.83,12.234 C28.767,12.265 28.709,12.299 28.646,12.331 L27.596,10.743 C27.697,10.688 27.795,10.629 27.898,10.579 C28.39,10.334 28.892,10.099 29.4,9.872 C34.192,7.728 39.458,6.396 45.06,5.873 L45.2,7.751 Z M38.546,24.627 C40.956,23.818 43.578,23.304 46.336,23.048 L47.674,41.102 L37.123,25.146 C37.589,24.961 38.067,24.786 38.546,24.627 L38.546,24.627 Z M35.814,22.489 C36.331,22.278 36.865,22.077 37.401,21.894 C40.092,20.968 43.027,20.384 46.117,20.103 L46.255,21.98 C43.409,22.243 40.699,22.774 38.207,23.61 C37.69,23.78 37.173,23.969 36.669,24.17 C36.618,24.191 36.572,24.215 36.521,24.237 L35.466,22.642 C35.584,22.592 35.695,22.537 35.814,22.489 L35.814,22.489 Z M32.813,18.558 C33.271,18.342 33.741,18.134 34.251,17.922 C35.032,17.597 35.851,17.292 36.688,17.014 C39.546,16.065 42.593,15.462 45.751,15.167 L46.038,19.035 C42.855,19.323 39.831,19.924 37.053,20.88 C36.499,21.07 35.943,21.277 35.41,21.496 C35.224,21.571 35.048,21.657 34.867,21.736 L32.777,18.576 C32.789,18.57 32.8,18.563 32.813,18.558 L32.813,18.558 Z M31.443,15.931 C31.931,15.697 32.445,15.467 32.966,15.247 C33.175,15.16 33.384,15.073 33.591,14.992 C37.274,13.52 41.287,12.591 45.531,12.202 L45.671,14.098 C42.426,14.401 39.292,15.02 36.351,15.997 C35.489,16.283 34.644,16.597 33.839,16.931 C33.311,17.153 32.827,17.366 32.357,17.587 C32.297,17.615 32.241,17.646 32.181,17.675 L31.129,16.086 C31.234,16.034 31.339,15.98 31.443,15.931 L31.443,15.931 Z M30.534,15.184 L29.241,13.229 C29.261,13.218 29.281,13.208 29.301,13.197 C29.77,12.966 30.249,12.744 30.732,12.528 C35.126,10.582 40.128,9.32 45.279,8.82 L45.451,11.132 C41.097,11.531 36.978,12.484 33.197,13.995 C32.986,14.079 32.768,14.168 32.551,14.258 L32.55,14.258 C32.013,14.485 31.486,14.723 30.984,14.962 C30.834,15.033 30.683,15.109 30.534,15.184 L30.534,15.184 Z M68.11,10.642 C67.675,10.478 67.239,10.317 66.793,10.164 C61.632,8.39 56.089,7.491 50.312,7.491 C49.852,7.491 49.408,7.505 48.959,7.517 L48.82,5.636 C49.313,5.623 49.805,5.607 50.312,5.607 C56.367,5.607 62.163,6.551 67.541,8.414 C68.038,8.586 68.529,8.767 69.017,8.954 L68.11,10.642 Z M84.74,23.334 C84.437,22.841 84.122,22.353 83.771,21.872 C83.471,21.456 83.14,21.033 82.793,20.614 C81.356,18.88 79.627,17.256 77.653,15.785 C76.097,14.628 74.385,13.563 72.564,12.623 C72.244,12.457 71.907,12.304 71.578,12.146 L72.479,10.468 C73.074,10.755 73.661,11.049 74.228,11.361 C75.56,12.087 76.843,12.884 78.044,13.731 L78.391,13.979 C80.685,15.64 82.679,17.49 84.318,19.476 C84.679,19.915 85.021,20.356 85.334,20.788 L85.336,20.789 C85.693,21.282 86.017,21.788 86.328,22.298 L84.74,23.334 Z M17.779,39.164 C17.703,39.155 17.622,39.145 17.546,39.136 C17.22,39.097 16.899,39.061 16.58,39.024 C15.915,38.949 15.27,38.878 14.636,38.81 C14.131,37.14 13.87,35.431 13.87,33.712 C13.87,32.621 13.973,31.539 14.176,30.468 L16.9,31.973 C16.837,32.514 16.793,33.057 16.793,33.604 C16.793,35.505 17.127,37.364 17.779,39.164 L17.779,39.164 Z M21.165,39.569 C21.035,39.552 20.904,39.537 20.775,39.52 C20.166,39.446 19.583,39.378 18.988,39.307 C18.248,37.465 17.865,35.558 17.865,33.604 C17.865,33.246 17.884,32.889 17.915,32.534 L19.751,33.549 C19.751,33.568 19.748,33.586 19.748,33.604 C19.748,35.649 20.224,37.647 21.165,39.569 L21.165,39.569 Z M24.447,36.144 C24.719,37.544 25.291,38.907 26.156,40.189 C25.941,40.162 25.726,40.135 25.511,40.107 C24.486,39.98 23.472,39.854 22.465,39.73 C21.472,37.932 20.928,36.063 20.841,34.152 L24.447,36.144 Z M29.044,39.151 C29.479,39.704 30.001,40.23 30.574,40.741 C29.783,40.643 28.99,40.545 28.195,40.445 C28.002,40.42 27.81,40.397 27.618,40.373 C26.728,39.259 26.089,38.071 25.716,36.846 L28.502,38.386 C28.669,38.643 28.845,38.899 29.044,39.151 L29.044,39.151 Z M33.039,41.045 C32.892,41.028 32.745,41.008 32.599,40.991 C32.103,40.641 31.66,40.276 31.244,39.902 L33.387,41.087 C33.271,41.073 33.156,41.059 33.039,41.045 L33.039,41.045 Z M67.614,40.963 C67.482,40.975 67.349,40.986 67.217,40.998 C66.163,41.09 65.123,41.181 64.104,41.27 L71.429,36.499 C70.796,38.089 69.511,39.615 67.614,40.963 L67.614,40.963 Z M79.154,33.604 C79.154,35.846 78.523,38.029 77.293,40.11 C76.671,40.165 76.048,40.22 75.416,40.276 C75.166,40.297 74.916,40.32 74.664,40.341 C74.397,40.365 74.13,40.388 73.863,40.412 C75.214,38.51 75.934,36.441 75.934,34.265 C75.934,34.037 75.916,33.811 75.899,33.586 L78.957,31.593 C79.073,32.259 79.154,32.927 79.154,33.604 L79.154,33.604 Z M81.627,29.855 C81.943,31.082 82.109,32.332 82.109,33.604 C82.109,35.735 81.656,37.808 80.777,39.8 C80.168,39.855 79.546,39.91 78.914,39.966 C78.807,39.976 78.698,39.986 78.59,39.995 C79.674,37.946 80.226,35.805 80.226,33.604 C80.226,32.71 80.126,31.825 79.943,30.952 L81.627,29.855 Z M86.755,33.712 C86.755,35.619 86.429,37.508 85.81,39.352 C85.106,39.416 84.378,39.48 83.601,39.549 C83.284,39.577 82.96,39.606 82.63,39.635 C82.423,39.654 82.205,39.673 81.994,39.692 C82.781,37.73 83.181,35.694 83.181,33.604 C83.181,32.12 82.964,30.666 82.564,29.244 L85.523,27.316 C86.323,29.388 86.755,31.523 86.755,33.712 L86.755,33.712 Z M88.059,25.664 C89.138,28.26 89.711,30.976 89.711,33.712 C89.711,35.521 89.453,37.313 88.982,39.07 C88.572,39.106 88.144,39.145 87.681,39.186 C87.455,39.206 87.216,39.227 86.978,39.248 C87.539,37.436 87.828,35.582 87.828,33.712 C87.828,31.31 87.363,28.968 86.458,26.707 L88.059,25.664 Z M74.862,34.261 L74.862,34.265 C74.862,36.495 74.018,38.616 72.418,40.541 C71.465,40.625 70.511,40.709 69.56,40.793 C71.359,39.208 72.474,37.429 72.837,35.58 L74.862,34.261 Z M69.721,29.383 C70.049,29.734 70.348,30.102 70.657,30.542 C70.987,31.022 71.24,31.51 71.435,32.003 L56.162,41.957 C55.949,41.974 55.736,41.993 55.53,42.01 L64.302,25.684 C66.546,26.709 68.392,27.961 69.721,29.383 L69.721,29.383 Z M65.699,23.086 C66.285,23.359 66.858,23.642 67.402,23.949 C69.243,24.986 70.784,26.173 71.979,27.476 C72.268,27.793 72.538,28.115 72.777,28.433 C72.869,28.553 72.959,28.676 73.045,28.801 C73.404,29.314 73.688,29.84 73.939,30.372 L72.34,31.414 C72.119,30.895 71.843,30.377 71.488,29.858 C71.197,29.445 70.867,29.04 70.503,28.652 C69.095,27.141 67.155,25.818 64.81,24.739 L65.699,23.086 Z M73.147,22.321 C74.05,23.076 74.873,23.884 75.597,24.731 C75.726,24.879 75.845,25.023 75.963,25.171 C76.054,25.285 76.136,25.388 76.217,25.499 C76.415,25.755 76.599,26.011 76.768,26.259 L76.842,26.373 C77.178,26.877 77.464,27.388 77.726,27.904 L74.845,29.782 C74.582,29.242 74.288,28.709 73.924,28.189 C73.83,28.052 73.732,27.917 73.632,27.785 C73.373,27.443 73.083,27.095 72.77,26.753 C71.497,25.365 69.868,24.108 67.927,23.015 C67.377,22.705 66.798,22.417 66.208,22.139 L67.921,18.949 C69.867,19.927 71.627,21.046 73.147,22.321 L73.147,22.321 Z M69.825,15.407 L71.069,13.091 C71.404,13.253 71.747,13.407 72.073,13.575 C73.841,14.489 75.503,15.522 77.012,16.646 C78.918,18.065 80.585,19.63 81.968,21.298 C82.3,21.699 82.615,22.103 82.903,22.502 C83.243,22.968 83.549,23.442 83.841,23.919 L81.124,25.69 C80.844,25.168 80.546,24.649 80.208,24.14 C79.894,23.668 79.545,23.189 79.17,22.716 C79.06,22.58 78.949,22.442 78.834,22.305 C78.624,22.052 78.398,21.796 78.166,21.543 C77.312,20.61 76.344,19.709 75.288,18.864 C74.616,18.326 73.895,17.8 73.148,17.304 C72.105,16.614 70.982,15.993 69.825,15.407 L69.825,15.407 Z M69.318,16.351 C70.447,16.921 71.542,17.526 72.555,18.199 C73.277,18.677 73.97,19.183 74.618,19.701 C75.631,20.51 76.558,21.375 77.374,22.266 C77.595,22.508 77.811,22.752 78.011,22.992 C78.121,23.123 78.227,23.253 78.331,23.384 C78.686,23.832 79.017,24.285 79.314,24.734 C79.653,25.241 79.947,25.757 80.22,26.279 L78.628,27.317 C78.361,26.798 78.073,26.285 77.736,25.78 L77.658,25.663 C77.475,25.394 77.279,25.122 77.074,24.853 C76.988,24.737 76.898,24.623 76.8,24.502 C76.676,24.344 76.545,24.188 76.408,24.031 C75.65,23.142 74.783,22.291 73.835,21.499 C72.257,20.177 70.438,19.016 68.429,18.003 L69.318,16.351 Z M59.668,24.041 C60.031,24.136 60.386,24.246 60.742,24.353 L51.484,41.583 L50.095,22.848 C53.443,22.849 56.663,23.25 59.668,24.041 L59.668,24.041 Z M64.974,16.477 C64.597,16.336 64.215,16.197 63.824,16.066 L63.658,16.009 C61.407,15.258 59.021,14.697 56.566,14.339 C54.238,14.001 51.811,13.85 49.43,13.878 L49.292,12.004 C52.859,11.952 56.42,12.28 59.794,13.002 C61.367,13.337 62.914,13.76 64.392,14.259 C64.92,14.437 65.406,14.614 65.878,14.796 L64.974,16.477 Z M62.556,20.691 C62.02,20.518 61.459,20.35 60.89,20.197 C57.508,19.283 53.875,18.821 50.087,18.821 C49.99,18.821 49.894,18.823 49.796,18.824 L49.509,14.946 C49.669,14.944 49.827,14.939 49.987,14.939 C52.152,14.939 54.314,15.094 56.412,15.401 C58.804,15.749 61.127,16.295 63.318,17.027 L63.484,17.082 C63.816,17.193 64.139,17.313 64.461,17.432 L62.685,20.737 C62.642,20.722 62.6,20.706 62.556,20.691 L62.556,20.691 Z M49.877,19.895 C49.947,19.895 50.016,19.892 50.087,19.892 C53.781,19.892 57.32,20.343 60.612,21.232 C61.142,21.376 61.667,21.533 62.17,21.695 L61.261,23.387 C60.827,23.253 60.387,23.122 59.94,23.004 C56.825,22.184 53.513,21.768 50.017,21.791 L49.877,19.895 Z M66.388,13.844 C66.374,13.838 66.359,13.832 66.344,13.827 C65.836,13.628 65.306,13.436 64.734,13.244 C63.216,12.731 61.63,12.296 60.017,11.952 C56.545,11.211 52.861,10.876 49.212,10.932 L49.039,8.588 C49.461,8.578 49.88,8.563 50.312,8.563 C55.969,8.563 61.397,9.443 66.445,11.177 C66.836,11.311 67.216,11.454 67.597,11.596 L66.388,13.844 Z M28.805,31.805 C28.981,31.41 29.2,31.015 29.459,30.631 C29.883,29.996 30.423,29.37 31.064,28.774 C31.811,28.082 32.712,27.432 33.718,26.832 L43.881,42.202 C43.612,42.179 43.345,42.158 43.067,42.133 L28.285,33.962 C28.324,33.239 28.493,32.515 28.805,31.805 L28.805,31.805 Z M19.456,26.833 C19.697,26.333 19.967,25.839 20.257,25.363 C21.895,22.674 24.304,20.264 27.418,18.199 C27.554,18.108 27.699,18.026 27.838,17.938 L28.879,19.512 C25.856,21.443 23.459,23.761 21.892,26.319 C21.61,26.78 21.355,27.244 21.138,27.697 C20.836,28.324 20.6,28.961 20.397,29.603 L18.722,28.677 C18.929,28.055 19.162,27.438 19.456,26.833 L19.456,26.833 Z M15.303,26.788 C15.558,26.174 15.834,25.565 16.16,24.964 C16.394,24.532 16.652,24.095 16.927,23.666 C19.017,20.388 22.11,17.472 25.949,15.08 L27.247,17.044 C27.107,17.131 26.961,17.214 26.826,17.304 C23.58,19.459 21.062,21.981 19.342,24.805 C19.035,25.31 18.748,25.835 18.49,26.364 C18.205,26.952 17.978,27.549 17.771,28.152 L15.303,26.788 Z M21.365,30.138 C21.56,29.473 21.79,28.812 22.103,28.163 C22.306,27.741 22.543,27.308 22.806,26.878 C24.292,24.454 26.578,22.251 29.47,20.407 L31.501,23.477 C30.623,24.014 29.793,24.578 29.062,25.182 C27.841,26.194 26.834,27.295 26.065,28.455 C25.709,28.997 25.404,29.55 25.156,30.1 C24.89,30.688 24.692,31.289 24.545,31.895 L21.365,30.138 Z M25.522,32.436 C25.656,31.795 25.853,31.161 26.133,30.541 C26.357,30.042 26.636,29.539 26.961,29.046 C27.67,27.974 28.607,26.953 29.747,26.007 C30.445,25.429 31.245,24.887 32.091,24.371 L33.128,25.939 C32.074,26.572 31.125,27.255 30.335,27.989 C29.633,28.641 29.039,29.331 28.568,30.034 C28.277,30.468 28.026,30.918 27.825,31.372 C27.532,32.036 27.346,32.713 27.258,33.395 L25.522,32.436 Z M10.915,33.712 C10.915,32.11 11.115,30.531 11.483,28.979 L13.195,29.925 C12.934,31.172 12.797,32.436 12.797,33.712 C12.797,35.389 13.037,37.055 13.489,38.69 C13.23,38.664 12.974,38.638 12.722,38.614 C12.296,38.572 11.903,38.539 11.5,38.503 C11.124,36.926 10.915,35.326 10.915,33.712 L10.915,33.712 Z M92.252,32.015 C92.252,34.378 91.856,36.678 91.107,38.881 C90.812,38.907 90.47,38.937 90.109,38.969 C90.541,37.244 90.783,35.487 90.783,33.712 C90.783,30.769 90.154,27.851 88.97,25.07 L90.654,23.973 C91.685,26.532 92.252,29.226 92.252,32.015 L92.252,32.015 Z M87.774,22.635 L89.493,21.515 C89.753,21.996 90.003,22.479 90.228,22.971 L88.527,24.08 L87.84,24.527 L86.028,25.709 L85.123,26.298 L79.67,29.852 L78.727,30.466 L75.75,32.407 L75.653,32.47 L72.974,34.216 L72.974,34.215 L71.844,34.952 L71.844,34.953 L61.848,41.466 C60.654,41.57 59.506,41.67 58.422,41.763 L71.765,33.068 L72.711,32.452 L74.759,31.116 L75.289,30.771 L78.189,28.881 L78.428,28.725 L80.704,27.243 L81.614,26.65 L84.388,24.841 L85.287,24.255 L87.097,23.076 L87.774,22.635 Z M73.011,7.213 L72.019,9.059 L71.787,9.491 L70.611,11.68 L70.103,12.626 L67.359,17.73 L66.961,18.47 L63.825,24.308 L63.314,25.257 L54.255,42.118 C53.55,42.176 52.9,42.23 52.328,42.277 L62.204,23.898 L62.295,23.729 L63.259,21.934 L63.711,21.094 L63.711,21.093 L65.462,17.835 L65.753,17.293 L66.875,15.207 L66.99,14.992 L68.755,11.706 L69.109,11.046 L70.248,8.928 L70.519,8.423 L71.518,6.564 C72.023,6.773 72.52,6.99 73.011,7.213 L73.011,7.213 Z M46.048,4.703 L46.048,4.703 L45.894,2.619 C46.084,2.606 46.269,2.586 46.459,2.574 C46.808,2.552 47.162,2.54 47.513,2.525 L47.668,4.602 L47.722,5.341 L48.138,10.953 L48.217,12.022 L48.357,13.9 L48.421,14.771 L50.471,42.423 C50.41,42.427 50.349,42.431 50.285,42.435 C49.861,42.458 49.37,42.462 48.849,42.459 L47.402,22.946 L47.323,21.878 L47.183,20.001 L47.177,19.919 L46.554,11.527 L46.519,11.04 L46.346,8.717 L46.314,8.277 L46.128,5.772 L46.048,4.703 Z M24.762,8.402 L26.536,11.084 L26.65,11.255 L28.232,13.648 L28.287,13.731 L29.58,15.686 L30.173,16.584 L31.212,18.156 L31.742,18.956 L35.526,24.677 L36.125,25.584 L47.259,42.42 C46.782,42.399 46.287,42.375 45.761,42.341 C45.591,42.331 45.41,42.316 45.236,42.304 L34.654,26.301 L34.394,25.908 L32.57,23.149 L32.421,22.924 L30.049,19.338 L29.791,18.946 L28.751,17.374 L28.159,16.479 L26.861,14.517 L26.27,13.623 L26.269,13.623 L23.334,9.181 C23.799,8.913 24.28,8.657 24.762,8.402 L24.762,8.402 Z M12.279,26.34 L12.279,26.34 L13.955,27.267 L14.905,27.793 L14.905,27.792 L17.87,29.431 L18.395,29.721 L24.628,33.167 L25.351,33.567 L25.351,33.566 L27.954,35.004 L28.359,35.229 L40.386,41.878 C39.05,41.741 37.652,41.587 36.207,41.42 L28.804,37.329 L27.639,36.685 L20.859,32.936 L19.82,32.362 L14.419,29.377 L13.451,28.842 L11.285,27.644 L10.796,27.375 L8.739,26.238 C8.888,25.708 9.058,25.184 9.248,24.666 L11.329,25.816 L12.279,26.34 Z M7.918,32.015 C7.918,30.412 8.107,28.84 8.457,27.306 L10.512,28.442 C10.079,30.168 9.843,31.925 9.843,33.712 C9.843,35.292 10.037,36.86 10.379,38.406 C9.859,38.364 9.345,38.324 8.872,38.295 C8.247,36.27 7.918,34.17 7.918,32.015 L7.918,32.015 Z M79.886,69.668 C78.378,64.382 74.886,62.422 70.691,60.7 C71.202,60.511 71.714,60.324 72.213,60.12 C85.822,54.59 95,44.136 95,32.152 C95,14.393 74.852,4.97379915e-14 50,4.97379915e-14 C25.147,4.97379915e-14 5,14.393 5,32.152 C5,44.816 15.248,55.771 30.142,61.012 C30.144,61.012 30.144,61.012 30.145,61.013 C26.285,62.67 23.112,64.699 21.693,69.668 C20.09,75.283 9.829,98.259 9.746,98.563 C9.579,99.168 9.935,99.793 10.54,99.959 C10.64,99.986 10.741,100 10.84,100 C11.339,100 11.796,99.669 11.935,99.165 C12.018,98.86 22.277,75.895 23.877,70.292 C25.292,65.335 28.575,64.039 33.544,62.087 C35.037,62.506 36.57,62.871 38.136,63.175 L30.533,84.758 C30.413,85.374 30.814,85.97 31.429,86.09 C31.503,86.105 31.577,86.112 31.649,86.112 C32.181,86.112 32.656,85.736 32.761,85.194 L40.374,63.567 L40.375,63.567 C43.476,64.05 46.695,64.305 50,64.305 C52.96,64.305 55.853,64.1 58.655,63.71 L63.522,85.239 C63.646,85.76 64.112,86.112 64.626,86.112 C64.712,86.112 64.801,86.102 64.889,86.081 C65.5,85.935 65.877,85.324 65.731,84.713 L60.904,63.354 C63.144,62.957 65.313,62.431 67.406,61.802 C67.455,61.831 67.492,61.872 67.546,61.893 L68.017,62.079 C72.997,64.035 76.287,65.328 77.703,70.292 C79.303,75.895 85.621,98.86 85.704,99.165 C85.842,99.669 86.299,100 86.798,100 C86.898,100 86.999,99.986 87.099,99.959 C87.705,99.793 88.06,99.168 87.894,98.563 C87.81,98.259 81.49,75.283 79.886,69.668 L79.886,69.668 Z" id="icon_wicker-chair" fill="#3A4B60"></path>
    </g>
</svg>