<?xml version="1.0" encoding="UTF-8"?>
<svg width="100px" height="100px" viewBox="0 0 100 100" version="1.1" xmlns="http://www.w3.org/2000/svg" xmlns:xlink="http://www.w3.org/1999/xlink">
    <!-- Generator: Sketch 63.1 (92452) - https://sketch.com -->
    <title>icon / furniture / wine-rack_k</title>
    <desc>Created with Sketch.</desc>
    <g id="icon-/-furniture-/-wine-rack_k" stroke="none" stroke-width="1" fill="none" fill-rule="evenodd">
        <path d="M59.9318,82.187 L59.9318,82.187 C59.9318,82.956 59.3088,83.58 58.5388,83.58 L41.4608,83.58 C40.6918,83.58 40.0688,82.956 40.0688,82.187 C40.0688,81.417 40.6918,80.794 41.4608,80.794 L58.5388,80.794 C59.3088,80.794 59.9318,81.417 59.9318,82.187 L59.9318,82.187 Z M77.0708,18.571 L71.9828,18.571 C73.0788,17.588 73.9018,16.306 74.2728,14.835 C74.5088,13.902 73.7688,13 72.8058,13 C72.1418,13 71.5298,13.43 71.3698,14.076 C70.8868,16.04 69.1118,17.5 66.9998,17.5 C64.8888,17.5 63.1128,16.04 62.6298,14.076 C62.4708,13.43 61.8588,13 61.1948,13 C60.2318,13 59.4918,13.902 59.7268,14.835 C60.0988,16.306 60.9208,17.588 62.0178,18.571 L54.9828,18.571 C56.0788,17.588 56.9018,16.306 57.2728,14.835 C57.5088,13.902 56.7688,13 55.8058,13 C55.1418,13 54.5298,13.43 54.3698,14.076 C53.8868,16.04 52.1118,17.5 49.9998,17.5 C47.8888,17.5 46.1128,16.04 45.6298,14.076 C45.4708,13.43 44.8588,13 44.1948,13 C43.2318,13 42.4918,13.902 42.7268,14.835 C43.0988,16.306 43.9208,17.588 45.0178,18.571 L37.9828,18.571 C39.0788,17.588 39.9018,16.306 40.2728,14.835 C40.5088,13.902 39.7688,13 38.8058,13 C38.1418,13 37.5298,13.43 37.3698,14.076 C36.8868,16.04 35.1118,17.5 32.9998,17.5 C30.8888,17.5 29.1128,16.04 28.6298,14.076 C28.4708,13.43 27.8588,13 27.1948,13 C26.2318,13 25.4918,13.902 25.7268,14.835 C26.0988,16.306 26.9208,17.588 28.0178,18.571 L22.9298,18.571 L22.9298,9.932 L22.9298,2.93 L77.0708,2.93 L77.0708,9.132 L77.0708,18.571 Z M77.0708,36.571 L71.9828,36.571 C73.0788,35.588 73.9018,34.306 74.2728,32.835 C74.5088,31.902 73.7688,31 72.8058,31 C72.1418,31 71.5298,31.43 71.3698,32.076 C70.8868,34.04 69.1118,35.5 66.9998,35.5 C64.8888,35.5 63.1128,34.04 62.6298,32.076 C62.4708,31.43 61.8588,31 61.1948,31 C60.2318,31 59.4918,31.902 59.7268,32.835 C60.0988,34.306 60.9208,35.588 62.0178,36.571 L54.9828,36.571 C56.0788,35.588 56.9018,34.306 57.2728,32.835 C57.5088,31.902 56.7688,31 55.8058,31 C55.1418,31 54.5298,31.43 54.3698,32.076 C53.8868,34.04 52.1118,35.5 49.9998,35.5 C47.8888,35.5 46.1128,34.04 45.6298,32.076 C45.4708,31.43 44.8588,31 44.1948,31 C43.2318,31 42.4918,31.902 42.7268,32.835 C43.0988,34.306 43.9208,35.588 45.0178,36.571 L37.9828,36.571 C39.0788,35.588 39.9018,34.306 40.2728,32.835 C40.5088,31.902 39.7688,31 38.8058,31 C38.1418,31 37.5298,31.43 37.3698,32.076 C36.8868,34.04 35.1118,35.5 32.9998,35.5 C30.8888,35.5 29.1128,34.04 28.6298,32.076 C28.4708,31.43 27.8588,31 27.1948,31 C26.2318,31 25.4918,31.902 25.7268,32.835 C26.0988,34.306 26.9208,35.588 28.0178,36.571 L22.9298,36.571 L22.9298,26.932 L22.9298,21.5 L77.0708,21.5 L77.0708,26.132 L77.0708,36.571 Z M77.0708,72.571 L71.9828,72.571 C73.0788,71.588 73.9018,70.306 74.2728,68.835 C74.5088,67.902 73.7688,67 72.8058,67 C72.1418,67 71.5298,67.43 71.3698,68.076 C70.8868,70.04 69.1118,71.5 66.9998,71.5 C64.8888,71.5 63.1128,70.04 62.6298,68.076 C62.4708,67.43 61.8588,67 61.1948,67 C60.2318,67 59.4918,67.902 59.7268,68.835 C60.0988,70.306 60.9208,71.588 62.0178,72.571 L54.9828,72.571 C56.0788,71.588 56.9018,70.306 57.2728,68.835 C57.5088,67.902 56.7688,67 55.8058,67 C55.1418,67 54.5298,67.43 54.3698,68.076 C53.8868,70.04 52.1118,71.5 49.9998,71.5 C47.8888,71.5 46.1128,70.04 45.6298,68.076 C45.4708,67.43 44.8588,67 44.1948,67 C43.2318,67 42.4918,67.902 42.7268,68.835 C43.0988,70.306 43.9208,71.588 45.0178,72.571 L37.9828,72.571 C39.0788,71.588 39.9018,70.306 40.2728,68.835 C40.5088,67.902 39.7688,67 38.8058,67 C38.1418,67 37.5298,67.43 37.3698,68.076 C36.8868,70.04 35.1118,71.5 32.9998,71.5 C30.8888,71.5 29.1128,70.04 28.6298,68.076 C28.4708,67.43 27.8588,67 27.1948,67 C26.2318,67 25.4918,67.902 25.7268,68.835 C26.0988,70.306 26.9208,71.588 28.0178,72.571 L22.9298,72.571 L22.9298,62.932 L22.9298,57.5 L77.0708,57.5 L77.0708,62.132 L77.0708,72.571 Z M22.9298,88.868 L77.0708,88.868 L77.0708,75.5 L22.9298,75.5 L22.9298,88.868 Z M77.0708,44.132 L77.0708,44.132 L77.0708,54.571 L71.9828,54.571 C73.0788,53.588 73.9018,52.306 74.2728,50.835 C74.5088,49.902 73.7688,49 72.8058,49 C72.1418,49 71.5298,49.43 71.3698,50.076 C70.8868,52.04 69.1118,53.5 66.9998,53.5 C64.8888,53.5 63.1128,52.04 62.6298,50.076 C62.4708,49.43 61.8588,49 61.1948,49 C60.2318,49 59.4918,49.902 59.7268,50.835 C60.0988,52.306 60.9208,53.588 62.0178,54.571 L54.9828,54.571 C56.0788,53.588 56.9018,52.306 57.2728,50.835 C57.5088,49.902 56.7688,49 55.8058,49 C55.1418,49 54.5298,49.43 54.3698,50.076 C53.8868,52.04 52.1118,53.5 49.9998,53.5 C47.8888,53.5 46.1128,52.04 45.6298,50.076 C45.4708,49.43 44.8588,49 44.1948,49 C43.2318,49 42.4918,49.902 42.7268,50.835 C43.0988,52.306 43.9208,53.588 45.0178,54.571 L37.9828,54.571 C39.0788,53.588 39.9018,52.306 40.2728,50.835 C40.5088,49.902 39.7688,49 38.8058,49 C38.1418,49 37.5298,49.43 37.3698,50.076 C36.8868,52.04 35.1118,53.5 32.9998,53.5 C30.8888,53.5 29.1128,52.04 28.6298,50.076 C28.4708,49.43 27.8588,49 27.1948,49 C26.2318,49 25.4918,49.902 25.7268,50.835 C26.0988,52.306 26.9208,53.588 28.0178,54.571 L22.9298,54.571 L22.9298,39.5 L77.0708,39.5 L77.0708,44.132 Z M73.0678,97.067 L70.2428,97.067 L69.7168,95.753 C69.3258,94.774 68.3768,94.131 67.3228,94.131 L32.8278,94.131 C31.8268,94.131 30.9148,94.712 30.4918,95.62 L29.8168,97.067 L26.9328,97.067 L26.9328,91.802 L73.0678,91.802 L73.0678,97.067 Z M19.9998,89.386 C19.9998,90.716 21.0708,91.799 22.3868,91.799 L23.9998,91.799 L23.9998,98.066 C23.9998,99.134 24.8668,100 25.9348,100 L30.0418,100 C31.0438,100 31.9548,99.419 32.3788,98.512 L33.0538,97.065 L67.0828,97.065 L67.6088,98.379 C67.9998,99.358 68.9488,100 70.0028,100 L74.0658,100 C75.1338,100 75.9998,99.134 75.9998,98.066 L75.9998,91.799 L77.6138,91.799 C78.9288,91.799 79.9998,90.716 79.9998,89.386 L79.9998,2.414 C79.9998,1.083 78.9288,0 77.6128,0 L22.3868,0 C21.0708,0 19.9998,1.083 19.9998,2.414 L19.9998,89.386 Z" id="icon_wine-rack_k" fill="#3A4B60"></path>
    </g>
</svg>