<?xml version="1.0" encoding="UTF-8"?>
<svg width="100px" height="100px" viewBox="0 0 100 100" version="1.1" xmlns="http://www.w3.org/2000/svg">
    <title>icon / furniture / wine-rack_dr</title>
    <g id="icon-/-furniture-/-wine-rack_dr" stroke="none" stroke-width="1" fill="none" fill-rule="evenodd">
        <path d="M59.9318,82.1866 L59.9318,82.1866 C59.9318,82.9556 59.3088,83.5796 58.5388,83.5796 L41.4608,83.5796 C40.6918,83.5796 40.0688,82.9556 40.0688,82.1866 C40.0688,81.4166 40.6918,80.7936 41.4608,80.7936 L58.5388,80.7936 C59.3088,80.7936 59.9318,81.4166 59.9318,82.1866 L59.9318,82.1866 Z M77.0708,18.5706 L71.9828,18.5706 C73.0788,17.5876 73.9018,16.3056 74.2728,14.8346 C74.5088,13.9016 73.7688,12.9996 72.8058,12.9996 C72.1418,12.9996 71.5298,13.4296 71.3698,14.0756 C70.8868,16.0396 69.1118,17.4996 66.9998,17.4996 C64.8888,17.4996 63.1128,16.0396 62.6298,14.0756 C62.4708,13.4296 61.8588,12.9996 61.1948,12.9996 C60.2318,12.9996 59.4918,13.9016 59.7268,14.8346 C60.0988,16.3056 60.9208,17.5876 62.0178,18.5706 L54.9828,18.5706 C56.0788,17.5876 56.9018,16.3056 57.2728,14.8346 C57.5088,13.9016 56.7688,12.9996 55.8058,12.9996 C55.1418,12.9996 54.5298,13.4296 54.3698,14.0756 C53.8868,16.0396 52.1118,17.4996 49.9998,17.4996 C47.8888,17.4996 46.1128,16.0396 45.6298,14.0756 C45.4708,13.4296 44.8588,12.9996 44.1948,12.9996 C43.2318,12.9996 42.4918,13.9016 42.7268,14.8346 C43.0988,16.3056 43.9208,17.5876 45.0178,18.5706 L37.9828,18.5706 C39.0788,17.5876 39.9018,16.3056 40.2728,14.8346 C40.5088,13.9016 39.7688,12.9996 38.8058,12.9996 C38.1418,12.9996 37.5298,13.4296 37.3698,14.0756 C36.8868,16.0396 35.1118,17.4996 32.9998,17.4996 C30.8888,17.4996 29.1128,16.0396 28.6298,14.0756 C28.4708,13.4296 27.8588,12.9996 27.1948,12.9996 C26.2318,12.9996 25.4918,13.9016 25.7268,14.8346 C26.0988,16.3056 26.9208,17.5876 28.0178,18.5706 L22.9298,18.5706 L22.9298,9.9316 L22.9298,2.9296 L77.0708,2.9296 L77.0708,9.1316 L77.0708,18.5706 Z M77.0708,36.5706 L71.9828,36.5706 C73.0788,35.5876 73.9018,34.3056 74.2728,32.8346 C74.5088,31.9016 73.7688,30.9996 72.8058,30.9996 C72.1418,30.9996 71.5298,31.4296 71.3698,32.0756 C70.8868,34.0396 69.1118,35.4996 66.9998,35.4996 C64.8888,35.4996 63.1128,34.0396 62.6298,32.0756 C62.4708,31.4296 61.8588,30.9996 61.1948,30.9996 C60.2318,30.9996 59.4918,31.9016 59.7268,32.8346 C60.0988,34.3056 60.9208,35.5876 62.0178,36.5706 L54.9828,36.5706 C56.0788,35.5876 56.9018,34.3056 57.2728,32.8346 C57.5088,31.9016 56.7688,30.9996 55.8058,30.9996 C55.1418,30.9996 54.5298,31.4296 54.3698,32.0756 C53.8868,34.0396 52.1118,35.4996 49.9998,35.4996 C47.8888,35.4996 46.1128,34.0396 45.6298,32.0756 C45.4708,31.4296 44.8588,30.9996 44.1948,30.9996 C43.2318,30.9996 42.4918,31.9016 42.7268,32.8346 C43.0988,34.3056 43.9208,35.5876 45.0178,36.5706 L37.9828,36.5706 C39.0788,35.5876 39.9018,34.3056 40.2728,32.8346 C40.5088,31.9016 39.7688,30.9996 38.8058,30.9996 C38.1418,30.9996 37.5298,31.4296 37.3698,32.0756 C36.8868,34.0396 35.1118,35.4996 32.9998,35.4996 C30.8888,35.4996 29.1128,34.0396 28.6298,32.0756 C28.4708,31.4296 27.8588,30.9996 27.1948,30.9996 C26.2318,30.9996 25.4918,31.9016 25.7268,32.8346 C26.0988,34.3056 26.9208,35.5876 28.0178,36.5706 L22.9298,36.5706 L22.9298,26.9316 L22.9298,21.4996 L77.0708,21.4996 L77.0708,26.1316 L77.0708,36.5706 Z M77.0708,72.5706 L71.9828,72.5706 C73.0788,71.5876 73.9018,70.3056 74.2728,68.8346 C74.5088,67.9016 73.7688,66.9996 72.8058,66.9996 C72.1418,66.9996 71.5298,67.4296 71.3698,68.0756 C70.8868,70.0396 69.1118,71.4996 66.9998,71.4996 C64.8888,71.4996 63.1128,70.0396 62.6298,68.0756 C62.4708,67.4296 61.8588,66.9996 61.1948,66.9996 C60.2318,66.9996 59.4918,67.9016 59.7268,68.8346 C60.0988,70.3056 60.9208,71.5876 62.0178,72.5706 L54.9828,72.5706 C56.0788,71.5876 56.9018,70.3056 57.2728,68.8346 C57.5088,67.9016 56.7688,66.9996 55.8058,66.9996 C55.1418,66.9996 54.5298,67.4296 54.3698,68.0756 C53.8868,70.0396 52.1118,71.4996 49.9998,71.4996 C47.8888,71.4996 46.1128,70.0396 45.6298,68.0756 C45.4708,67.4296 44.8588,66.9996 44.1948,66.9996 C43.2318,66.9996 42.4918,67.9016 42.7268,68.8346 C43.0988,70.3056 43.9208,71.5876 45.0178,72.5706 L37.9828,72.5706 C39.0788,71.5876 39.9018,70.3056 40.2728,68.8346 C40.5088,67.9016 39.7688,66.9996 38.8058,66.9996 C38.1418,66.9996 37.5298,67.4296 37.3698,68.0756 C36.8868,70.0396 35.1118,71.4996 32.9998,71.4996 C30.8888,71.4996 29.1128,70.0396 28.6298,68.0756 C28.4708,67.4296 27.8588,66.9996 27.1948,66.9996 C26.2318,66.9996 25.4918,67.9016 25.7268,68.8346 C26.0988,70.3056 26.9208,71.5876 28.0178,72.5706 L22.9298,72.5706 L22.9298,62.9316 L22.9298,57.4996 L77.0708,57.4996 L77.0708,62.1316 L77.0708,72.5706 Z M22.9298,88.8676 L77.0708,88.8676 L77.0708,75.4996 L22.9298,75.4996 L22.9298,88.8676 Z M77.0708,44.1316 L77.0708,44.1316 L77.0708,54.5706 L71.9828,54.5706 C73.0788,53.5876 73.9018,52.3056 74.2728,50.8346 C74.5088,49.9016 73.7688,48.9996 72.8058,48.9996 C72.1418,48.9996 71.5298,49.4296 71.3698,50.0756 C70.8868,52.0396 69.1118,53.4996 66.9998,53.4996 C64.8888,53.4996 63.1128,52.0396 62.6298,50.0756 C62.4708,49.4296 61.8588,48.9996 61.1948,48.9996 C60.2318,48.9996 59.4918,49.9016 59.7268,50.8346 C60.0988,52.3056 60.9208,53.5876 62.0178,54.5706 L54.9828,54.5706 C56.0788,53.5876 56.9018,52.3056 57.2728,50.8346 C57.5088,49.9016 56.7688,48.9996 55.8058,48.9996 C55.1418,48.9996 54.5298,49.4296 54.3698,50.0756 C53.8868,52.0396 52.1118,53.4996 49.9998,53.4996 C47.8888,53.4996 46.1128,52.0396 45.6298,50.0756 C45.4708,49.4296 44.8588,48.9996 44.1948,48.9996 C43.2318,48.9996 42.4918,49.9016 42.7268,50.8346 C43.0988,52.3056 43.9208,53.5876 45.0178,54.5706 L37.9828,54.5706 C39.0788,53.5876 39.9018,52.3056 40.2728,50.8346 C40.5088,49.9016 39.7688,48.9996 38.8058,48.9996 C38.1418,48.9996 37.5298,49.4296 37.3698,50.0756 C36.8868,52.0396 35.1118,53.4996 32.9998,53.4996 C30.8888,53.4996 29.1128,52.0396 28.6298,50.0756 C28.4708,49.4296 27.8588,48.9996 27.1948,48.9996 C26.2318,48.9996 25.4918,49.9016 25.7268,50.8346 C26.0988,52.3056 26.9208,53.5876 28.0178,54.5706 L22.9298,54.5706 L22.9298,39.4996 L77.0708,39.4996 L77.0708,44.1316 Z M73.0678,97.0666 L70.2428,97.0666 L69.7168,95.7526 C69.3258,94.7736 68.3768,94.1306 67.3228,94.1306 L32.8278,94.1306 C31.8268,94.1306 30.9148,94.7116 30.4918,95.6196 L29.8168,97.0666 L26.9328,97.0666 L26.9328,91.8016 L73.0678,91.8016 L73.0678,97.0666 Z M19.9998,89.3856 C19.9998,90.7156 21.0708,91.7986 22.3868,91.7986 L23.9998,91.7986 L23.9998,98.0656 C23.9998,99.1336 24.8668,99.9996 25.9348,99.9996 L30.0418,99.9996 C31.0438,99.9996 31.9548,99.4186 32.3788,98.5116 L33.0538,97.0646 L67.0828,97.0646 L67.6088,98.3786 C67.9998,99.3576 68.9488,99.9996 70.0028,99.9996 L74.0658,99.9996 C75.1338,99.9996 75.9998,99.1336 75.9998,98.0656 L75.9998,91.7986 L77.6138,91.7986 C78.9288,91.7986 79.9998,90.7156 79.9998,89.3856 L79.9998,2.4136 C79.9998,1.0826 78.9288,-0.0004 77.6128,-0.0004 L22.3868,-0.0004 C21.0708,-0.0004 19.9998,1.0826 19.9998,2.4136 L19.9998,89.3856 Z"
              id="icon_wine-rack_dr" fill="#3A4B60"></path>
    </g>
</svg>