<?xml version="1.0" encoding="UTF-8"?>
<svg width="100px" height="100px" viewBox="0 0 100 100" version="1.1" xmlns="http://www.w3.org/2000/svg">
    <title>icon / furniture / work-bench</title>
    <g id="icon-/-furniture-/-work-bench" stroke="none" stroke-width="1" fill="none" fill-rule="evenodd">
        <path d="M91.6668,18.3336 L84.9998,18.3336 L76.6668,18.3336 L69.9998,18.3336 L29.9998,18.3336 L23.3338,18.3336 L14.9998,18.3336 L8.3338,18.3336 L3.3338,18.3336 L3.3338,14.9996 L6.6668,14.9996 L16.6668,14.9996 L83.3338,14.9996 L93.3338,14.9996 L96.6668,14.9996 L96.6688,18.3336 L91.6668,18.3336 Z M89.9998,25.2096 C89.4678,25.0726 88.9088,24.9996 88.3338,24.9996 C87.7578,24.9996 87.1988,25.0726 86.6668,25.2096 L86.6668,21.6666 L89.9998,21.6666 L89.9998,25.2096 Z M84.9998,31.6666 C84.9998,30.7136 85.4018,29.8556 86.0438,29.2486 C86.0958,29.2066 86.1458,29.1606 86.1918,29.1126 C86.7708,28.6266 87.5178,28.3336 88.3328,28.3336 C89.1528,28.3346 89.9028,28.6326 90.4838,29.1246 C90.4848,29.1256 90.4858,29.1276 90.4878,29.1286 C90.5268,29.1686 90.5688,29.2056 90.6118,29.2406 C91.2588,29.8486 91.6658,30.7096 91.6668,31.6666 C91.6668,32.5786 91.2998,33.4036 90.7058,34.0066 C90.6948,34.0176 90.6838,34.0276 90.6728,34.0396 C90.0708,34.6336 89.2448,34.9996 88.3328,34.9996 C86.4918,34.9996 84.9998,33.5076 84.9998,31.6666 L84.9998,31.6666 Z M74.9998,36.6666 L71.6668,36.6666 L71.6668,31.6666 L71.6668,21.6666 L74.9998,21.6666 L74.9998,36.6666 Z M90.2608,91.0546 C89.9748,91.4386 89.5228,91.6666153 89.0428,91.6666153 L89.0278,91.6666153 C88.3588,91.6696 87.7688,91.2306 87.5768,90.5896 L72.2468,39.9996 L75.4308,39.9996 L90.4928,89.7116 C90.6328,90.1706 90.5468,90.6686 90.2608,91.0546 L90.2608,91.0546 Z M18.1048,83.3336 L22.1458,69.9996 L77.8538,69.9996 L81.8948,83.3336 L18.1048,83.3336 Z M10.9718,91.6666153 L10.9578,91.6666153 C10.4778,91.6666153 10.0258,91.4386 9.7398,91.0536 C9.4538,90.6686 9.3668,90.1696 9.5058,89.7106 L24.5688,39.9996 L27.7528,39.9996 L12.4238,90.5906 C12.2318,91.2306 11.6408,91.6696 10.9718,91.6666153 L10.9718,91.6666153 Z M28.3338,31.6666 L28.3338,36.6666 L24.9998,36.6666 L24.9998,21.6666 L28.3338,21.6666 L28.3338,31.6666 Z M31.2358,39.9996 L68.7638,39.9996 L76.8448,66.6666 L23.1558,66.6666 L31.2358,39.9996 Z M68.3338,36.6666 L31.6668,36.6666 L31.6668,33.3336 L68.3328,33.3336 L68.3328,36.6666 L68.3338,36.6666 Z M31.6668,29.9996 L68.3338,29.9996 L68.3338,21.6666 L31.6668,21.6666 L31.6668,29.9996 Z M13.3338,25.2096 C12.8008,25.0726 12.2418,24.9996 11.6668,24.9996 C11.0908,24.9996 10.5328,25.0726 9.9998,25.2096 L9.9998,21.6666 L13.3338,21.6666 L13.3338,25.2096 Z M11.6668,34.9996 C10.7548,34.9996 9.9288,34.6336 9.3268,34.0396 C9.3158,34.0276 9.3048,34.0176 9.2938,34.0066 C8.6998,33.4046 8.3328,32.5786 8.3328,31.6666 C8.3328,30.7136 8.7348,29.8556 9.3768,29.2486 C9.4298,29.2066 9.4788,29.1606 9.5248,29.1126 C10.1038,28.6266 10.8518,28.3336 11.6668,28.3336 C12.4868,28.3336 13.2358,28.6326 13.8168,29.1236 C13.8568,29.1646 13.8998,29.2026 13.9438,29.2396 C14.5918,29.8476 14.9988,30.7086 14.9998,31.6666 C14.9998,33.5076 13.5078,34.9996 11.6668,34.9996 L11.6668,34.9996 Z M8.3338,9.9996 C8.3348,9.0796 9.0798,8.3346 9.9998,8.3336 L13.3338,8.3336 C14.2538,8.3346 14.9988,9.0796 14.9998,9.9996 L14.9998,11.6666 L8.3338,11.6666 L8.3338,9.9996 Z M84.9998,9.9996 C85.0008,9.0796 85.7468,8.3346 86.6668,8.3336 L89.9998,8.3336 C90.9198,8.3346 91.6658,9.0796 91.6668,9.9996 L91.6668,11.6666 L84.9998,11.6666 L84.9998,9.9996 Z M96.6668,11.6666 L94.9998,11.6666 L94.9998,9.9996 C94.9968,7.2396 92.7608,5.0026 89.9998,4.9996 L86.6668,4.9996 C83.9058,5.0026 81.6698,7.2396 81.6668,9.9996 L81.6668,11.6666 L18.3338,11.6666 L18.3338,9.9996 C18.3308,7.2396 16.0938,5.0026 13.3338,4.9996 L9.9998,4.9996 C7.2398,5.0026 5.0028,7.2396 4.9998,9.9996 L4.9998,11.6666 L3.3338,11.6666 C1.4928,11.6686 0.0018,13.1596 -0.0002,14.9996 L-0.0002,18.3336 C0.0018,20.1736 1.4928,21.6646 3.3338,21.6666 L6.6668,21.6666 L6.6668,27.2596 C5.6308,28.4346 4.9998,29.9776 4.9998,31.6666 C4.9998,32.9026 5.3378,34.0606 5.9248,35.0526 L2.1548,38.8216 C1.6788,39.2986 1.5358,40.0156 1.7938,40.6376 C2.0518,41.2606 2.6598,41.6666 3.3338,41.6666 C3.7758,41.6676 4.1998,41.4916 4.5118,41.1786 L8.2808,37.4086 C9.2738,37.9956 10.4308,38.3336 11.6668,38.3336 C15.3478,38.3286 18.3298,35.3476 18.3338,31.6666 C18.3338,29.9776 17.7038,28.4346 16.6668,27.2596 L16.6668,21.6666 L21.6668,21.6666 L21.6668,38.0866 L6.3158,88.7436 C5.8708,90.2136 6.1468,91.8076 7.0628,93.0396 C7.9778,94.2726 9.4218,94.9996531 10.9578,94.9996531 L10.9718,94.9996531 C13.1108,95.0096 15.0018,93.6066 15.6128,91.5566 L17.0958,86.6666 L82.9038,86.6666 L84.3868,91.5566 C84.9988,93.6066 86.8888,95.0086 89.0278,94.9996531 L89.0428,94.9996531 C90.5778,94.9996531 92.0228,94.2726 92.9378,93.0396 C93.8528,91.8066 94.1288,90.2126 93.6838,88.7436 L78.3328,38.0866 L78.3328,21.6666 L83.3328,21.6666 L83.3328,27.2596 C82.2968,28.4346 81.6668,29.9766 81.6668,31.6666 C81.6668,35.3486 84.6508,38.3326 88.3328,38.3326 C89.5688,38.3316 90.7258,37.9936 91.7168,37.4066 L95.4878,41.1786 C95.8008,41.4906 96.2248,41.6666 96.6668,41.6666 C97.3408,41.6656 97.9478,41.2606 98.2058,40.6376 C98.4638,40.0146 98.3208,39.2976 97.8448,38.8206 L94.0738,35.0506 C94.6598,34.0586 94.9988,32.9016 94.9998,31.6666 C94.9998,29.9766 94.3698,28.4346 93.3328,27.2596 L93.3328,21.6666 L96.6668,21.6666 C98.5068,21.6636 99.9978,20.1726 99.9998,18.3326 L99.9998,14.9996 C99.9978,13.1596 98.5068,11.6686 96.6668,11.6666 L96.6668,11.6666 Z"
              id="icon_work-bench" fill="#3A4B60"></path>
    </g>
</svg>