<?xml version="1.0" encoding="UTF-8"?>
<svg width="100px" height="100px" viewBox="0 0 100 100" version="1.1" xmlns="http://www.w3.org/2000/svg">
    <title>icon / furniture / air-compressor</title>
    <g id="icon-/-furniture-/-air-compressor" stroke="none" stroke-width="1" fill="none" fill-rule="evenodd">
        <path d="M79.5135,18.1661 C80.5925,18.1661 81.4705,19.0441 81.4705,20.1231 C81.4705,21.2021 80.5925,22.0791 79.5135,22.0791 C78.4355,22.0791 77.5575,21.2021 77.5575,20.1231 C77.5575,19.0441 78.4355,18.1661 79.5135,18.1661 L79.5135,18.1661 Z M79.5135,25.0501 C82.2305,25.0501 84.4405,22.8401 84.4405,20.1231 C84.4405,17.4061 82.2305,15.1961 79.5135,15.1961 C76.7965,15.1961 74.5865,17.4061 74.5865,20.1231 C74.5865,22.8401 76.7965,25.0501 79.5135,25.0501 L79.5135,25.0501 Z M97.0295,74.6691 L89.6625,79.0761 L40.8665,79.0761 C40.1205,71.8091 33.9625,66.1201 26.5015,66.1201 C19.0405,66.1201 12.8835,71.8091 12.1375,79.0761 L10.3375,79.0761 L2.9705,74.6691 L2.9705,39.6531 L10.3375,35.2471 L89.6625,35.2471 L97.0305,39.6531 L97.0295,74.6691 Z M82.5745,89.3351 C82.5745,90.8201 81.3655,92.0291 79.8785,92.0291 C77.3385,92.0291 75.1115,90.3141 74.4605,87.8591 L72.9195,82.0461 L82.5745,82.0461 L82.5745,89.3351 Z M26.5015,92.0291 C20.1775,92.0291 15.0325,86.8851 15.0325,80.5601 C15.0325,74.2351 20.1775,69.0901 26.5015,69.0901 C32.8255,69.0901 37.9715,74.2351 37.9715,80.5601 C37.9715,86.8851 32.8255,92.0291 26.5015,92.0291 L26.5015,92.0291 Z M24.2825,32.2761 L32.5975,32.2761 L32.5975,30.1341 L24.2825,30.1341 L24.2825,32.2761 Z M24.2825,27.1641 L32.5975,27.1641 L32.5975,25.0211 L24.2825,25.0211 L24.2825,27.1641 Z M24.2825,22.0521 L32.5975,22.0521 L32.5975,19.8921 L24.2825,19.8921 L24.2825,22.0521 Z M24.2825,16.9211 L32.5975,16.9211 L32.5975,14.7971 L24.2825,14.7971 L24.2825,16.9211 Z M24.2825,11.8271 L32.5975,11.8271 L32.5975,9.7031 L24.2825,9.7031 L24.2825,11.8271 Z M45.8905,20.1231 C45.8905,17.8771 47.7165,16.0501 49.9625,16.0481 C49.9625,16.0481 49.9635,16.0491 49.9645,16.0491 C49.9655,16.0491 49.9665,16.0481 49.9685,16.0481 C52.2135,16.0501 54.0405,17.8771 54.0405,20.1231 C54.0405,22.3701 52.2125,24.1981 49.9655,24.1981 C47.7185,24.1981 45.8905,22.3701 45.8905,20.1231 L45.8905,20.1231 Z M67.3125,32.2761 L51.4515,32.2761 L51.4515,27.6621 L67.3125,32.2761 Z M54.5465,14.7771 L67.4425,11.0251 C65.5285,13.5591 64.3905,16.7101 64.3905,20.1231 C64.3905,23.5361 65.5285,26.6871 67.4425,29.2211 L54.5465,25.4691 C56.0535,24.1761 57.0105,22.2601 57.0105,20.1231 C57.0105,17.9861 56.0535,16.0701 54.5465,14.7771 L54.5465,14.7771 Z M79.5135,7.9701 C86.2145,7.9701 91.6665,13.4221 91.6665,20.1231 C91.6665,26.8241 86.2145,32.2751 79.5135,32.2751 C72.8125,32.2751 67.3615,26.8241 67.3615,20.1231 C67.3615,13.4221 72.8125,7.9701 79.5135,7.9701 L79.5135,7.9701 Z M99.9995,38.8121 C99.9995,38.2891 99.7255,37.8051 99.2775,37.5371 L90.8355,32.4871 C90.6055,32.3501 90.3415,32.2761 90.0735,32.2761 L88.5015,32.2761 C92.2215,29.5191 94.6365,25.0991 94.6365,20.1231 C94.6365,11.7841 87.8525,5.0001 79.5135,5.0001 C76.2385,5.0001 48.8005,13.1611 48.3565,13.2661 C45.2435,13.9951 42.9195,16.7921 42.9195,20.1231 C42.9195,23.4981 45.3065,26.3261 48.4805,27.0101 L48.4805,32.2761 L35.5685,32.2761 L35.5685,30.1341 L37.2465,30.1341 C38.0675,30.1341 38.7325,29.4691 38.7325,28.6481 C38.7325,27.8291 38.0675,27.1641 37.2465,27.1641 L35.5685,27.1641 L35.5685,25.0211 L37.2465,25.0211 C38.0675,25.0211 38.7325,24.3561 38.7325,23.5371 C38.7325,22.7171 38.0675,22.0521 37.2465,22.0521 L35.5685,22.0521 L35.5685,19.8921 L37.2465,19.8921 C38.0675,19.8921 38.7325,19.2271 38.7325,18.4061 C38.7325,17.5861 38.0675,16.9211 37.2465,16.9211 L35.5685,16.9211 L35.5685,14.7971 L37.2465,14.7971 C38.0675,14.7971 38.7325,14.1321 38.7325,13.3121 C38.7325,12.4921 38.0675,11.8261 37.2465,11.8261 L35.5685,11.8261 L35.5685,9.7031 L37.2465,9.7031 C38.0675,9.7031 38.7325,9.0381 38.7325,8.2181 C38.7325,7.3971 38.0675,6.7321 37.2465,6.7321 L34.0835,6.7321 L22.7965,6.7321 L19.6325,6.7321 C18.8125,6.7321 18.1485,7.3971 18.1485,8.2181 C18.1485,9.0381 18.8125,9.7031 19.6325,9.7031 L21.3125,9.7031 L21.3125,11.8271 L19.6325,11.8271 C18.8125,11.8271 18.1485,12.4921 18.1485,13.3121 C18.1485,14.1321 18.8125,14.7971 19.6325,14.7971 L21.3125,14.7971 L21.3125,16.9211 L19.6325,16.9211 C18.8125,16.9211 18.1485,17.5861 18.1485,18.4061 C18.1485,19.2271 18.8125,19.8921 19.6325,19.8921 L21.3125,19.8921 L21.3125,22.0521 L19.6325,22.0521 C18.8125,22.0521 18.1485,22.7171 18.1485,23.5371 C18.1485,24.3571 18.8125,25.0211 19.6325,25.0211 L21.3125,25.0211 L21.3125,27.1641 L19.6325,27.1641 C18.8125,27.1641 18.1485,27.8291 18.1485,28.6481 C18.1485,29.4691 18.8125,30.1341 19.6325,30.1341 L21.3125,30.1341 L21.3125,32.2761 L9.9275,32.2761 C9.6585,32.2761 9.3955,32.3501 9.1645,32.4871 L0.7225,37.5361 C0.2745,37.8051 -0.0005,38.2891 -0.0005,38.8111 L-0.0005,75.5121 C-0.0005,76.0341 0.2745,76.5181 0.7225,76.7861 L9.1635,81.8361 C9.3945,81.9741 9.6585,82.0461 9.9265,82.0461 L12.1375,82.0461 C12.8845,89.3121 19.0405,95.0001 26.5015,95.0001 C33.9615,95.0001 40.1185,89.3121 40.8655,82.0461 L69.8475,82.0461 L71.5885,88.6201 C72.5835,92.3771 75.9925,95.0001 79.8785,95.0001 C83.0025,95.0001 85.5445,92.4591 85.5445,89.3341 L85.5445,82.0461 L90.0735,82.0461 C90.3415,82.0461 90.6055,81.9731 90.8355,81.8361 L99.2775,76.7861 C99.7255,76.5181 99.9995,76.0341 99.9995,75.5121 L99.9995,38.8121 Z M26.5015,85.7551 C23.6375,85.7551 21.3065,83.4251 21.3065,80.5601 C21.3065,78.6321 22.4165,76.8271 24.1295,75.9451 C25.9305,75.0181 28.2115,75.2571 29.7845,76.5371 C31.4165,77.8671 32.0945,80.1631 31.4435,82.1641 C30.8675,83.9361 29.3335,85.2991 27.5055,85.6571 C27.1755,85.7231 26.8385,85.7551 26.5015,85.7551 L26.5015,85.7551 Z M34.5085,79.0671 C34.2975,77.9751 33.8675,76.9241 33.2475,75.9961 C32.0005,74.1301 29.9735,72.8361 27.7545,72.4961 C25.6475,72.1741 23.4595,72.6971 21.7315,73.9441 C20.2085,75.0421 19.0875,76.6591 18.6065,78.4751 C18.4265,79.1541 18.3365,79.8561 18.3365,80.5601 C18.3365,85.0621 21.9985,88.7261 26.5015,88.7261 C28.3845,88.7261 30.2335,88.0611 31.6865,86.8631 C33.1215,85.6801 34.1315,84.0151 34.5035,82.1911 C34.7135,81.1591 34.7075,80.0951 34.5085,79.0671 L34.5085,79.0671 Z"
              id="icon_air-compressor" fill="#3A4B60"></path>
    </g>
</svg>