<?xml version="1.0" encoding="UTF-8"?>
<svg width="100px" height="100px" viewBox="0 0 100 100" version="1.1" xmlns="http://www.w3.org/2000/svg" xmlns:xlink="http://www.w3.org/1999/xlink">
    <title>icon / furniture / armchair</title>
    <g id="icon-/-furniture-/-armchair" stroke="none" stroke-width="1" fill="none" fill-rule="evenodd">
        <path d="M96.5176,77.568 C96.5176,79.68 94.7986,81.399 92.6856,81.399 L7.3146,81.399 C5.2016,81.399 3.4826,79.68 3.4826,77.568 L3.4826,43.497 C3.4826,40.335 6.0546,37.762 9.2176,37.762 C12.3796,37.762 14.9536,40.335 14.9536,43.497 L14.9536,55.554 C14.9536,58.34 17.2206,60.608 20.0066,60.608 L79.9936,60.608 C82.7796,60.608 85.0466,58.34 85.0466,55.554 L85.0466,43.497 C85.0466,40.335 87.6206,37.762 90.7826,37.762 C93.9456,37.762 96.5176,40.335 96.5176,43.497 L96.5176,77.568 Z M90.9076,96.378 L84.9916,96.378 L83.9326,93.726 C83.3676,92.316 82.0196,91.403 80.4986,91.403 L19.7536,91.403 C18.3256,91.403 17.0096,92.24 16.4066,93.536 L15.0796,96.378 L9.0916,96.378 L9.0916,84.881 L90.9076,84.881 L90.9076,96.378 Z M81.5646,44.434 L81.5646,55.554 C81.5646,56.421 80.8596,57.126 79.9936,57.126 L20.0066,57.126 C19.1406,57.126 18.4356,56.421 18.4356,55.554 L18.4356,44.434 L81.5646,44.434 Z M12.8846,12.39 C12.8846,7.478 16.8816,3.482 21.7936,3.482 L78.2056,3.482 C83.1186,3.482 87.1156,7.478 87.1156,12.39 L87.1156,35.047 L86.9396,35.128 C84.5656,36.218 82.7596,38.264 81.9846,40.74 L81.9186,40.951 L18.0806,40.951 L18.0156,40.74 C17.2406,38.264 15.4346,36.218 13.0606,35.128 L12.8846,35.047 L12.8846,12.39 Z M99.9996,43.497 C99.9996,38.478 95.9146,34.346 90.8946,34.286 L90.5966,34.282 L90.5966,12.39 C90.5966,5.558 85.0386,4.97379915e-14 78.2056,4.97379915e-14 L21.7936,4.97379915e-14 C14.9616,4.97379915e-14 9.4036,5.558 9.4036,12.39 L9.4036,34.282 L9.1056,34.286 C4.0846,34.346 -0.0004,38.478 -0.0004,43.497 L-0.0004,77.568 C-0.0004,77.801 0.0136,78.032 0.0356,78.26 L0.0636,78.564 L0.0316,78.567 C0.3986,81.478 2.4176,83.835 5.2466,84.616 L5.4686,84.676 L5.4686,97.394 C5.4686,98.831 6.6376,100 8.0746,100 L15.0326,100 C16.4626,100 17.7776,99.163 18.3806,97.867 L19.7076,95.025 L80.5516,95.025 L81.6126,97.675 C82.1776,99.087 83.5246,100 85.0426,100 L91.9266,100 C93.3636,100 94.5316,98.831 94.5316,97.394 L94.5316,84.676 L94.7526,84.616 C97.5876,83.833 99.6116,81.466 99.9716,78.545 L99.9646,78.26 C99.9866,78.032 99.9996,77.801 99.9996,77.568 L99.9996,43.497 Z" id="icon_armchair" fill="#3A4B60"></path>
    </g>
</svg>