<?xml version="1.0" encoding="UTF-8"?>
<svg width="100px" height="100px" viewBox="0 0 100 100" version="1.1" xmlns="http://www.w3.org/2000/svg">
    <title>icon / furniture / armoire</title>
    <g id="icon-/-furniture-/-armoire" stroke="none" stroke-width="1" fill="none" fill-rule="evenodd">
        <path d="M55,82.0063 L55,82.0063 C55,82.8163 54.344,83.4723 53.534,83.4723 L46.465,83.4723 C45.656,83.4723 45,82.8163 45,82.0063 C45,81.1973 45.656,80.5413 46.465,80.5413 L53.534,80.5413 C54.344,80.5413 55,81.1973 55,82.0063 L55,82.0063 Z M42.761,48.0143 L42.761,32.7873 C42.761,31.9783 43.417,31.3223 44.227,31.3223 C45.036,31.3223 45.692,31.9783 45.692,32.7873 L45.692,48.0143 C45.692,48.8233 45.036,49.4803 44.227,49.4803 C43.417,49.4803 42.761,48.8233 42.761,48.0143 L42.761,48.0143 Z M54.503,48.0143 L54.503,32.7873 C54.503,31.9783 55.159,31.3223 55.969,31.3223 C56.778,31.3223 57.435,31.9783 57.435,32.7873 L57.435,48.0143 C57.435,48.8233 56.778,49.4803 55.969,49.4803 C55.159,49.4803 54.503,48.8233 54.503,48.0143 L54.503,48.0143 Z M27.931,87.8713 L27.931,75.8023 L72.068,75.8013 L72.068,87.8703 L27.931,87.8713 Z M72.068,97.0693 L69.242,97.0693 L68.717,95.7543 C68.322,94.7693 67.383,94.1333 66.322,94.1333 L33.828,94.1333 C32.831,94.1333 31.914,94.7173 31.492,95.6213 L30.816,97.0693 L27.931,97.0693 L27.931,90.8023 L72.068,90.8013 L72.068,97.0693 Z M28.613,2.9313 L48.437,2.9313 L48.437,72.8713 L27.931,72.8713 L27.931,3.6133 C27.931,3.2373 28.237,2.9313 28.613,2.9313 L28.613,2.9313 Z M71.387,2.9313 C71.763,2.9313 72.068,3.2373 72.068,3.6133 L72.068,72.8703 L51.367,72.8703 L51.367,2.9313 L71.387,2.9313 Z M71.387,0.0003 L28.613,0.0003 C26.621,0.0003 25,1.6203 25,3.6133 L25,98.0663 C25,99.1323 25.867,100.0003 26.934,100.0003 L31.041,100.0003 C32.039,100.0003 32.956,99.4163 33.377,98.5123 L34.053,97.0643 L66.084,97.0643 L66.61,98.3793 C67.004,99.3633 67.943,100.0003 69.004,100.0003 L73.066,100.0003 C74.133,100.0003 75,99.1323 75,98.0663 L75,3.6133 C75,1.6203 73.379,0.0003 71.387,0.0003 L71.387,0.0003 Z"
              id="icon_armoire" fill="#3A4B60"></path>
    </g>
</svg>