<?xml version="1.0" encoding="UTF-8"?>
<svg width="100px" height="100px" viewBox="0 0 100 100" version="1.1" xmlns="http://www.w3.org/2000/svg">
    <title>icon / furniture / bed-frame</title>
    <g id="icon-/-furniture-/-bed-frame" stroke="none" stroke-width="1" fill="none" fill-rule="evenodd">
        <path d="M10.169,69.832 L89.832,69.832 L89.832,57.148 L10.169,57.148 L10.169,69.832 Z M91.208,72.579 C91.961,72.579 92.579,71.96 92.579,71.203 L92.579,55.773 C92.579,55.015 91.961,54.401 91.208,54.401 L8.792,54.401 C8.035,54.401 7.421,55.015 7.421,55.773 L7.421,71.203 C7.421,71.96 8.035,72.579 8.792,72.579 L91.208,72.579 Z M97.253,49.742 L97.233,77.252 L2.748,77.233 L2.762,49.728 L97.233,49.728 L97.253,49.742 Z M18.253,22.747 L81.748,22.747 L81.762,36.02 C81.5,35.965 81.238,35.936 80.97,35.936 L19.025,35.936 C18.762,35.936 18.5,35.965 18.233,36.025 L18.253,22.747 Z M53.104,46.981 L53.104,38.683 L80.97,38.683 C81.337,38.683 81.782,38.896 82.292,39.321 C82.693,39.639 84.248,41.237 89.297,46.981 L53.104,46.981 Z M10.713,46.981 C12.98,44.406 16.961,39.896 17.703,39.326 C18.258,38.896 18.693,38.683 19.025,38.683 L50.356,38.683 L50.356,46.981 L10.713,46.981 Z M92.951,46.981 C89.594,43.149 86.02,39.104 84.514,37.639 L84.514,22.768 C84.514,21.242 83.272,20 81.748,20 L18.253,20 C16.727,20 15.485,21.242 15.485,22.768 L15.485,37.639 C14.148,38.936 11.169,42.302 8.217,45.658 L7.05,46.981 L2.762,46.981 C1.238,46.981 0,48.218 0,49.742 L0,77.233 C0,78.763 1.238,80 2.762,80 L97.233,80 C98.758,80 100,78.763 100,77.233 L100,49.742 C100,48.218 98.758,46.981 97.233,46.981 L92.951,46.981 Z"
              id="icon_bed-frame" fill="#3A4B60"></path>
    </g>
</svg>