<?xml version="1.0" encoding="UTF-8"?>
<svg width="100px" height="100px" viewBox="0 0 100 100" version="1.1" xmlns="http://www.w3.org/2000/svg">
    <title>icon / furniture / buffet</title>
    <g id="icon-/-furniture-/-buffet" stroke="none" stroke-width="1" fill="none" fill-rule="evenodd">
        <path d="M34.7536,23.8821 L29.1446,23.8821 C28.4866,23.8821 27.9546,24.4141 27.9546,25.0711 C27.9546,25.7281 28.4866,26.2611 29.1446,26.2611 L34.7536,26.2611 C35.4096,26.2611 35.9426,25.7281 35.9426,25.0711 C35.9426,24.4141 35.4096,23.8821 34.7536,23.8821 L34.7536,23.8821 Z M92.4076,22.2611 C92.4076,22.2471 92.3976,22.2361 92.3826,22.2361 L79.1486,22.2361 L79.1486,48.5251 L92.3826,48.5251 C92.3976,48.5251 92.4076,48.5141 92.4076,48.4991 L92.4076,22.2611 Z M76.7706,22.2361 L62.9466,22.2361 C62.9336,22.2361 62.9216,22.2471 62.9216,22.2611 L62.9216,48.4991 C62.9216,48.5141 62.9336,48.5251 62.9466,48.5251 L76.7706,48.5251 L76.7706,22.2361 Z M94.7866,22.2611 L94.7866,48.4991 C94.7866,49.8241 93.7076,50.9031 92.3826,50.9031 L62.9466,50.9031 C61.6216,50.9031 60.5426,49.8241 60.5426,48.4991 L60.5426,22.2611 C60.5426,20.9351 61.6216,19.8571 62.9466,19.8571 L92.3826,19.8571 C93.7076,19.8571 94.7866,20.9351 94.7866,22.2611 L94.7866,22.2611 Z M56.3056,22.2611 C56.3056,22.2471 56.2946,22.2361 56.2796,22.2361 L7.6166,22.2361 C7.6036,22.2361 7.5916,22.2471 7.5916,22.2611 L7.5916,34.1911 L56.3056,34.1911 L56.3056,22.2611 Z M56.3056,36.5691 L7.5916,36.5691 L7.5916,48.4991 C7.5916,48.5141 7.6036,48.5251 7.6166,48.5251 L56.2796,48.5251 C56.2946,48.5251 56.3056,48.5141 56.3056,48.4991 L56.3056,36.5691 Z M58.6846,22.2611 L58.6846,48.4991 C58.6846,49.8241 57.6056,50.9031 56.2796,50.9031 L7.6166,50.9031 C6.2916,50.9031 5.2136,49.8241 5.2136,48.4991 L5.2136,22.2611 C5.2136,20.9351 6.2916,19.8571 7.6166,19.8571 L56.2796,19.8571 C57.6056,19.8571 58.6846,20.9351 58.6846,22.2611 L58.6846,22.2611 Z M73.8886,38.0491 C74.5446,38.0491 75.0776,37.5171 75.0776,36.8611 L75.0776,33.9001 C75.0776,33.2431 74.5446,32.7101 73.8886,32.7101 C73.2316,32.7101 72.6986,33.2431 72.6986,33.9001 L72.6986,36.8611 C72.6986,37.5171 73.2316,38.0491 73.8886,38.0491 L73.8886,38.0491 Z M82.0296,32.7101 C81.3726,32.7101 80.8416,33.2431 80.8416,33.9001 L80.8416,36.8611 C80.8416,37.5171 81.3726,38.0491 82.0296,38.0491 C82.6876,38.0491 83.2196,37.5171 83.2196,36.8611 L83.2196,33.9001 C83.2196,33.2431 82.6876,32.7101 82.0296,32.7101 L82.0296,32.7101 Z M97.6216,18.6151 C97.6216,17.9331 97.0666,17.3781 96.3846,17.3781 L3.6156,17.3781 C2.9336,17.3781 2.3786,17.9331 2.3786,18.6151 L2.3786,52.1451 C2.3786,52.8261 2.9336,53.3821 3.6156,53.3821 L96.3846,53.3821 C97.0666,53.3821 97.6216,52.8261 97.6216,52.1451 L97.6216,18.6151 Z M93.1496,55.7601 L6.8516,55.7601 L6.8516,57.7191 C6.8516,57.9581 7.0446,58.1521 7.2826,58.1521 L92.7166,58.1521 C92.9546,58.1521 93.1496,57.9581 93.1496,57.7191 L93.1496,55.7601 Z M81.0156,82.6111 L78.9496,60.5291 L75.9436,60.5291 L80.1436,82.6201 L81.0156,82.6111 Z M24.0566,60.5291 L21.0506,60.5291 L18.9836,82.6111 L19.8576,82.6201 L24.0566,60.5291 Z M99.9996,18.6151 L99.9996,52.1451 C99.9996,54.1381 98.3776,55.7601 96.3846,55.7601 L95.5266,55.7601 L95.5266,57.7191 C95.5266,59.2691 94.2666,60.5291 92.7166,60.5291 L81.3386,60.5291 L83.4186,82.7571 C83.4706,83.3241 83.2826,83.8921 82.9006,84.3151 C82.5196,84.7361 81.9746,84.9821 81.4046,84.9861 L79.8816,85.0001 L79.8626,85.0001 C78.8836,85.0001 78.0426,84.3051 77.8586,83.3411 L73.5236,60.5291 L26.4776,60.5291 L22.1406,83.3411 C21.9576,84.3051 21.1166,85.0001 20.1366,85.0001 L20.1186,85.0001 L18.5956,84.9861 C18.0256,84.9821 17.4806,84.7361 17.0996,84.3141 C16.7176,83.8921 16.5286,83.3241 16.5816,82.7571 L18.6616,60.5291 L7.2826,60.5291 C5.7336,60.5291 4.4726,59.2691 4.4726,57.7191 L4.4726,55.7601 L3.6156,55.7601 C1.6216,55.7601 -0.0004,54.1381 -0.0004,52.1451 L-0.0004,18.6151 C-0.0004,16.6221 1.6216,15.0001 3.6156,15.0001 L96.3846,15.0001 C98.3776,15.0001 99.9996,16.6221 99.9996,18.6151 L99.9996,18.6151 Z M27.9546,39.1211 C27.9546,38.4641 28.4866,37.9321 29.1436,37.9321 L34.7526,37.9321 C35.4096,37.9321 35.9416,38.4641 35.9416,39.1211 C35.9416,39.7781 35.4096,40.3111 34.7526,40.3111 L29.1436,40.3111 C28.4866,40.3111 27.9546,39.7781 27.9546,39.1211 L27.9546,39.1211 Z"
              id="Fill-1" fill="#3A4B60"></path>
    </g>
</svg>