<?xml version="1.0" encoding="UTF-8"?>
<svg width="100px" height="100px" viewBox="0 0 100 100" version="1.1" xmlns="http://www.w3.org/2000/svg">
    <title>icon / furniture / bunk-bed</title>
    <g id="icon-/-furniture-/-bunk-bed" stroke="none" stroke-width="1" fill="none" fill-rule="evenodd">
        <path d="M94.132,92.07 L97.07,92.07 L97.07,7.93 L94.132,7.93 L94.132,92.07 Z M91.203,26.189 L88.854,26.189 L91.203,23.841 L91.203,26.189 Z M91.203,35.968 L69.466,35.968 L69.466,30.221 C69.466,29.845 69.431,29.477 69.367,29.119 L91.203,29.119 L91.203,35.968 Z M8.797,41.835 L91.203,41.835 L91.203,38.898 L8.797,38.898 L8.797,41.835 Z M91.203,53.969 C89.127,52.463 86.199,52.645 84.329,54.515 L80.008,58.836 C78.349,60.495 78.019,62.986 79.017,64.977 L67.986,64.977 C66.81,63.587 65.088,62.777 63.234,62.777 L39.701,62.777 L39.701,44.765 L91.203,44.765 L91.203,53.969 Z M91.203,64.977 L88.896,64.977 L91.203,62.669 L91.203,64.977 Z M81.381,62.593 C81.381,61.957 81.629,61.358 82.08,60.908 L86.4,56.586 C86.851,56.136 87.449,55.888 88.086,55.888 C88.722,55.888 89.322,56.136 89.771,56.586 C90.222,57.037 90.47,57.635 90.47,58.272 C90.47,58.909 90.222,59.507 89.771,59.958 L85.451,64.279 C85.002,64.728 84.405,64.975 83.771,64.977 L83.759,64.977 C83.125,64.975 82.528,64.728 82.08,64.279 C81.629,63.829 81.381,63.23 81.381,62.593 L81.381,62.593 Z M91.203,74.756 L69.466,74.756 L69.466,69.008 C69.466,68.636 69.43,68.268 69.365,67.906 L91.203,67.906 L91.203,74.756 Z M8.797,80.623 L91.203,80.623 L91.203,77.685 L8.797,77.685 L8.797,80.623 Z M21.957,86.571 L36.771,86.571 L36.771,83.553 L21.957,83.553 L21.957,86.571 Z M2.929,92.07 L5.867,92.07 L5.867,7.929 L2.929,7.929 L2.929,92.07 Z M19.027,62.777 L17.199,62.777 C13.762,62.777 10.966,65.572 10.966,69.008 L10.966,74.756 L8.797,74.756 L8.797,44.765 L19.027,44.765 L19.027,62.777 Z M63.234,65.707 C64.367,65.707 65.408,66.277 66.019,67.232 C66.358,67.761 66.537,68.375 66.537,69.008 L66.537,74.756 L13.896,74.756 L13.896,69.008 C13.896,67.188 15.379,65.707 17.199,65.707 L63.234,65.707 Z M21.957,62.777 L36.771,62.777 L36.771,59.676 L21.957,59.676 L21.957,62.777 Z M21.957,47.58 L36.771,47.58 L36.771,44.765 L21.957,44.765 L21.957,47.58 Z M21.957,56.747 L36.771,56.747 L36.771,50.509 L21.957,50.509 L21.957,56.747 Z M13.896,30.221 C13.896,28.401 15.379,26.92 17.199,26.92 L63.234,26.92 C65.055,26.92 66.537,28.401 66.537,30.221 L66.537,35.968 L13.896,35.968 L13.896,30.221 Z M21.957,23.99 L36.771,23.99 L36.771,22.03 L21.957,22.03 L21.957,23.99 Z M82.08,22.079 L86.4,17.758 C86.851,17.308 87.449,17.06 88.086,17.06 C88.722,17.06 89.322,17.308 89.771,17.758 C90.222,18.208 90.47,18.807 90.47,19.443 C90.47,20.08 90.222,20.679 89.771,21.129 L85.451,25.45 C85,25.9 84.402,26.148 83.765,26.148 C83.129,26.148 82.529,25.9 82.08,25.45 C81.629,25 81.381,24.401 81.381,23.765 C81.381,23.128 81.629,22.529 82.08,22.079 L82.08,22.079 Z M98.535,5 L92.668,5 C91.859,5 91.203,5.656 91.203,6.465 L91.203,15.14 C89.127,13.635 86.199,13.816 84.329,15.686 L80.008,20.007 C78.338,21.678 78.015,24.192 79.038,26.189 L67.981,26.189 C66.837,24.845 65.134,23.99 63.234,23.99 L39.701,23.99 L39.701,15.594 C39.701,14.785 39.046,14.129 38.236,14.129 C37.427,14.129 36.771,14.785 36.771,15.594 L36.771,19.101 L21.957,19.101 L21.957,15.594 C21.957,14.785 21.301,14.129 20.492,14.129 C19.683,14.129 19.027,14.785 19.027,15.594 L19.027,23.991 L17.199,23.991 C13.762,23.991 10.966,26.786 10.966,30.221 L10.966,35.968 L8.797,35.968 L8.797,6.465 C8.797,5.656 8.14,5 7.332,5 L1.465,5 C0.656,5 0,5.656 0,6.465 L0,93.535 C0,94.344 0.656,95 1.465,95 L7.332,95 C8.14,95 8.797,94.344 8.797,93.535 L8.797,83.553 L19.027,83.553 L19.027,93.535 C19.027,94.344 19.683,95 20.492,95 C21.301,95 21.957,94.344 21.957,93.535 L21.957,89.5 L36.771,89.5 L36.771,93.535 C36.771,94.344 37.427,95 38.236,95 C39.046,95 39.701,94.344 39.701,93.535 L39.701,83.553 L91.203,83.553 L91.203,93.535 C91.203,94.344 91.859,95 92.668,95 L98.535,95 C99.344,95 100,94.344 100,93.535 L100,6.465 C100,5.656 99.344,5 98.535,5 L98.535,5 Z"
              id="icon_bunk-bed" fill="#3A4B60"></path>
    </g>
</svg>