<?xml version="1.0" encoding="UTF-8"?>
<svg width="100px" height="100px" viewBox="0 0 100 100" version="1.1" xmlns="http://www.w3.org/2000/svg">
    <title>icon / furniture / car-seat_child</title>
    <g id="icon-/-furniture-/-car-seat_child" stroke="none" stroke-width="1" fill="none" fill-rule="evenodd">
        <path d="M81.946,67.7197 C81.291,71.0757 80.632,74.4317 79.964,77.7847 C78.975,82.7457 75.341,85.7277 70.266,85.7347 C65.284,85.7417 54.145,85.7367 54.145,85.7367 L54.145,82.8457 C55.779,82.6347 56.37,82.1857 56.336,81.2267 C56.299,80.2297 55.642,79.8427 53.979,79.8407 C53.219,79.8397 46.78,79.8397 46.021,79.8407 C44.357,79.8427 43.701,80.2297 43.665,81.2267 C43.63,82.1857 44.221,82.6347 45.854,82.8457 L45.854,85.7367 C45.854,85.7367 34.716,85.7417 29.734,85.7347 C24.66,85.7277 21.025,82.7457 20.037,77.7847 C19.368,74.4317 18.71,71.0757 18.054,67.7197 C17.434,64.5467 19.264,62.3147 22.512,62.2727 C23.256,62.2626215 24,62.2597 24.743,62.2657 C27.274,62.2857 28.845,63.5857 29.334,66.0827 C29.74,68.1627 30.11,70.2497 30.522,72.3277 C30.891,74.1867 31.146,74.3797 33.048,74.3807 L66.952,74.3807 C68.853,74.3797 69.109,74.1867 69.477,72.3277 C69.889,70.2497 70.259,68.1627 70.667,66.0827 C71.155,63.5857 72.726,62.2857 75.258,62.2657 C76.001,62.2597 76.744,62.2626215 77.488,62.2727 C80.736,62.3147 82.565,64.5467 81.946,67.7197 L81.946,67.7197 Z M79.751,92.1227 L62.289,92.1227 C62.289,92.1227 62.875,90.1167 63.226,89.1877 C63.312,88.9577 63.685,88.6917 63.928,88.6907 C68.165,88.6657 72.403,88.6237 76.637,88.7127 C78.536,88.7527 79.697,90.1537 79.751,92.1227 L79.751,92.1227 Z M54.177,92.1337 L54.177,88.7387 L60.243,88.7387 C59.863,89.9517 59.181,92.1337 59.181,92.1337 L54.177,92.1337 Z M79.028,97.0247 L54.129,97.0247 L54.129,95.1887 L79.363,95.1887 L79.028,97.0247 Z M48.927,97.0237 L51.073,97.0237 L51.073,82.8277 L48.927,82.8277 L48.927,97.0237 Z M39.758,88.7387 L45.823,88.7387 L45.823,92.1337 L40.819,92.1337 C40.819,92.1337 40.136,89.9517 39.758,88.7387 L39.758,88.7387 Z M45.872,97.0247 L20.971,97.0247 L20.637,95.1887 L45.872,95.1887 L45.872,97.0247 Z M23.362,88.7127 C27.597,88.6237 31.836,88.6657 36.072,88.6907 C36.314,88.6917 36.687,88.9577 36.774,89.1877 C37.125,90.1167 37.712,92.1227 37.712,92.1227 L20.25,92.1227 C20.303,90.1537 21.465,88.7527 23.362,88.7127 L23.362,88.7127 Z M23.05,24.6877 C22.752,21.3237 24.106,18.6857 26.818,16.7197 C26.998,16.5897 27.194,16.4787 27.394,16.3817 C27.487,16.3377 27.826,16.3257 27.826,16.3257 C27.826,16.3257 27.948,17.3537 27.988,17.8617 C28.804,27.9807 29.618,38.0997 30.43,48.2187 C30.721,51.8517 31.01,55.4847 31.295,59.1167 C31.37,60.0817 30.001,60.9657 29.097,60.5517 C28.39,60.2277 27.649,59.9647 26.986,59.5697 C26.713,59.4067 26.473,58.9817 26.439,58.6537 C25.765,52.2187 25.12,45.7817 24.478,39.3427 C23.992,34.4587 23.486,29.5757 23.05,24.6877 L23.05,24.6877 Z M58.959,51.5617 L58.959,59.8897 C58.959,59.8897 57.911,59.9547 57.455,59.8637 C57.223,59.8167 56.875,59.4917 56.872,59.2887 C56.832,56.7377 56.845,51.5617 56.845,51.5617 L58.959,51.5617 Z M59.048,34.0207 L59.041,48.5447 C59.041,48.5447 56.957,48.5027 56,48.5567 C55.071,48.6097 54.781,48.2417 54.79,47.3217 C54.83,43.1927 54.79,34.0207 54.79,34.0207 L59.048,34.0207 Z M62.113,28.8707 C62.106,29.9137 61.507,30.7297 60.504,30.8727 C59.325,31.0417 56.895,30.9127 56.895,30.9127 L56.895,13.8587 C56.895,13.8587 59.028,13.8087 60.023,13.8717 C61.217,13.9487 62.114,14.8517 62.123,16.0647 C62.153,20.3327 62.143,24.6027 62.113,28.8707 L62.113,28.8707 Z M61.977,58.4777 C61.98,53.7907 61.975,34.4427 61.975,34.0467 C65.89,33.6437 67.674,35.3687 67.352,39.0387 C67.326,39.3347 67.317,39.6327 67.293,39.9297 C66.777,46.3047 66.267,52.6807 65.72,59.0527 C65.695,59.3507 65.349,59.8407 65.118,59.8617 C64.13,59.9517 61.977,59.9007 61.977,59.9007 C61.977,59.9007 61.976,58.9117 61.977,58.4777 L61.977,58.4777 Z M46.179,30.9257 L53.82,30.9257 L53.82,15.6427 L46.179,15.6427 L46.179,30.9257 Z M47.169,50.2647 C47.783,49.7507 48.061,48.5567 48.082,47.6577 C48.177,43.5707 48.132,34.0617 48.132,34.0617 L51.868,34.0617 C51.868,34.0617 51.822,43.5707 51.918,47.6577 C51.939,48.5567 52.217,49.7507 52.832,50.2647 C53.891,51.1517 53.95,52.1167 53.917,53.2767 C53.877,54.6887 53.911,56.1017 53.913,57.5147 C53.914,58.2817 53.913,59.8577 53.913,59.8577 L46.088,59.8577 C46.088,59.8577 46.087,58.2817 46.088,57.5147 C46.089,56.1017 46.124,54.6887 46.083,53.2767 C46.05,52.1167 46.108,51.1517 47.169,50.2647 L47.169,50.2647 Z M38.024,34.0467 C38.024,34.4427 38.02,53.7907 38.023,58.4777 L38.023,59.9007 C38.023,59.9007 35.87,59.9517 34.883,59.8617 C34.651,59.8407 34.305,59.3507 34.28,59.0527 C33.732,52.6807 33.222,46.3047 32.707,39.9297 C32.683,39.6327 32.674,39.3347 32.648,39.0387 C32.326,35.3687 34.109,33.6437 38.024,34.0467 L38.024,34.0467 Z M43.105,30.9127 C43.105,30.9127 40.675,31.0417 39.496,30.8727 C38.494,30.7297 37.894,29.9137 37.886,28.8707 C37.857,24.6027 37.847,20.3327 37.878,16.0647 C37.886,14.8517 38.784,13.9487 39.977,13.8717 C40.971,13.8087 43.105,13.8587 43.105,13.8587 L43.105,30.9127 Z M43.155,51.5617 C43.155,51.5617 43.169,56.7377 43.129,59.2887 C43.126,59.4917 42.777,59.8167 42.545,59.8637 C42.09,59.9547 41.042,59.8897 41.042,59.8897 L41.042,51.5617 L43.155,51.5617 Z M45.211,47.3217 C45.219,48.2417 44.929,48.6097 44.001,48.5567 C43.044,48.5027 40.96,48.5447 40.96,48.5447 L40.953,34.0207 L45.211,34.0207 C45.211,34.0207 45.171,43.1927 45.211,47.3217 L45.211,47.3217 Z M66.704,65.7917048 C61.703,65.7827 38.298,65.7827 33.297,65.7917048 C32.535,65.7927 32.128,65.6377 32.027,64.8187 C31.962,64.2817 31.468,62.9967 31.468,62.9967 L68.532,62.9967 C68.532,62.9967 68.038,64.2817 67.972,64.8187 C67.873,65.6377 67.465,65.7927 66.704,65.7917048 L66.704,65.7917048 Z M34.92,71.4447 C33.009,71.4437 33.428,71.6127 33.045,69.9007 C32.972,69.5767 32.894,68.7657 32.894,68.7657 L67.106,68.7657 C67.106,68.7657 67.028,69.5767 66.956,69.9007 C66.571,71.6127 66.99,71.4437 65.08,71.4447 C60.053,71.4487 39.947,71.4487 34.92,71.4447 L34.92,71.4447 Z M41.117,2.9267 C44.078,2.9177 55.922,2.9177 58.883,2.9267 C65.295,2.9457 69.73,7.6747 69.293,14.0657 C68.878,20.1437 67.929,32.3547 67.929,32.3547 L64.852,31.0537 C64.852,31.0537 65.058,28.1637 65.07,26.7347 C65.099,23.3137 65.076,19.8917 65.068,16.4697 C65.06,13.1077 62.926,10.9507 59.584,10.9237 C58.728,10.9167 57.854,10.8147 57.024,10.9607 C56.29,11.0907 55.392,11.3237 54.951,11.8387 C54.307,12.5897 53.627,12.6477 52.797,12.6417 C51.876,12.6347 48.125,12.6347 47.203,12.6417 C46.374,12.6477 45.692,12.5897 45.05,11.8387 C44.607,11.3237 43.71,11.0907 42.975,10.9607 C42.146,10.8147 41.271,10.9167 40.417,10.9237 C37.074,10.9507 34.94,13.1077 34.932,16.4697 C34.925,19.8917 34.901,23.3137 34.929,26.7347 C34.942,28.1637 35.148,31.0537 35.148,31.0537 L32.07,32.3547 C32.07,32.3547 31.123,20.1437 30.707,14.0657 C30.269,7.6747 34.706,2.9457 41.117,2.9267 L41.117,2.9267 Z M72.011,17.8617 C72.052,17.3537 72.175,16.3257 72.175,16.3257 C72.175,16.3257 72.513,16.3377 72.605,16.3817 C72.805,16.4787 73.002,16.5897 73.181,16.7197 C75.893,18.6857 77.249,21.3237 76.949,24.6877 C76.513,29.5757 76.008,34.4587 75.521,39.3427 C74.88,45.7817 74.234,52.2187 73.561,58.6537 C73.527,58.9817 73.288,59.4067 73.014,59.5697 C72.351,59.9647 71.609,60.2277 70.903,60.5517 C69.999,60.9657 68.631,60.0817 68.706,59.1167 C68.99,55.4847 69.278,51.8517 69.57,48.2187 C70.382,38.0997 71.196,27.9807 72.011,17.8617 L72.011,17.8617 Z M77.882,59.3437 C77.482,59.3307 77.083,59.3417 76.507,59.3417 C76.747,56.8657 76.967,54.5467 77.196,52.2287 C78.107,42.9787 79.076,33.7337 79.911,24.4757 C80.327,19.8577 77.536,15.3557 73.26,13.4187 C72.595,13.1167 72.32,12.7837 72.247,12.0507 C71.527,4.8777 66.129,0.0117 58.914,0.0017 C56.509,-0.00055 43.49,-0.00055 41.086,0.0017 C33.872,0.0117 28.473,4.8777 27.754,12.0507 C27.679,12.7837 27.405,13.1167 26.74,13.4187 C22.464,15.3557 19.674,19.8577 20.09,24.4757 C20.925,33.7337 21.893,42.9787 22.804,52.2287 C23.033,54.5467 23.254,56.8657 23.493,59.3417 C22.918,59.3417 22.517,59.3307 22.118,59.3437 C17.448,59.4967 14.354,63.2137 15.115,67.8387 C15.519,70.2947 15.996,72.7417 16.541,75.1717 C17.035,77.3747 17.437,79.6437 18.306,81.7027 C18.99,83.3237 20.324,84.6687 21.381,86.1547 C17.942,87.3127 17.324,90.3967 16.844,93.5597 C16.813,93.7697 16.818,94.0697 16.941,94.2047 C18.029,95.4047 17.874,96.9757 18.214,98.3917 C18.514,99.6397 18.88,99.99945 20.203,99.99945 C30.135,99.99945 69.865,99.99945 79.797,99.99945 C81.121,99.99945 81.486,99.6397 81.786,98.3917 C82.127,96.9757 81.971,95.4047 83.059,94.2047 C83.182,94.0697 83.187,93.7697 83.155,93.5597 C82.675,90.3967 82.057,87.3127 78.62,86.1547 C79.676,84.6687 81.009,83.3237 81.693,81.7027 C82.563,79.6437 82.966,77.3747 83.46,75.1717 C84.004,72.7417 84.481,70.2947 84.885,67.8387 C85.646,63.2137 82.552,59.4967 77.882,59.3437 L77.882,59.3437 Z"
              id="icon_car-seat_child" fill="#3A4B60"></path>
    </g>
</svg>