<?xml version="1.0" encoding="UTF-8"?>
<svg width="100px" height="100px" viewBox="0 0 100 100" version="1.1" xmlns="http://www.w3.org/2000/svg">
    <title>icon / furniture / cat-tree</title>
    <g id="icon-/-furniture-/-cat-tree" stroke="none" stroke-width="1" fill="none" fill-rule="evenodd">
        <path d="M96.145,97.4086 L3.889,97.4086 C3.192,97.4086 2.624,96.8416 2.624,96.1436 C2.624,95.4466 3.192,94.8806 3.889,94.8806 L96.144,94.8806 C96.841,94.8806 97.4080013,95.4476 97.4080013,96.1436 C97.409,96.8416 96.841,97.4086 96.145,97.4086 L96.145,97.4086 Z M14.252,92.2856 L16.843,92.2856 L16.843,75.6046 L14.252,75.6046 L14.252,92.2856 Z M42.755,92.2856 L49.359,92.2856 L49.359,75.6046 L42.755,75.6046 L42.755,92.2856 Z M11.661,73.0136 C10.947,73.0136 10.366,72.4326 10.366,71.7186 C10.366,71.0046 10.947,70.4226 11.661,70.4226 L49.359,70.4226 L49.359,73.0136 L11.661,73.0136 Z M14.252,67.8316 L16.843,67.8316 L16.843,57.4666 L14.252,57.4666 L14.252,67.8316 Z M3.887,54.8746 C3.172,54.8746 2.591,54.2936 2.591,53.5796 C2.591,52.8646 3.172,52.2836 3.887,52.2836 L27.208,52.2836 C27.923,52.2836 28.504,52.8646 28.504,53.5796 C28.504,54.2936 27.923,54.8746 27.208,54.8746 L3.887,54.8746 Z M37.573,67.8316 L40.165,67.8316 L40.165,37.7736 L37.573,37.7736 L37.573,67.8316 Z M24.618,35.1816 C23.903,35.1816 23.322,34.6006 23.322,33.8876 C23.322,33.1726 23.903,32.5916 24.618,32.5916 L53.121,32.5916 C53.834,32.5916 54.416,33.1726 54.416,33.8876 C54.416,34.6006 53.834,35.1816 53.121,35.1816 L24.618,35.1816 Z M37.573,92.2856 L40.165,92.2856 L40.165,75.6046 L37.573,75.6046 L37.573,92.2856 Z M19.435,92.2856 L34.982,92.2856 L34.982,75.6046 L19.435,75.6046 L19.435,92.2856 Z M79.942,72.4616 L79.942,92.2886 L62.235,92.2886 L62.235,72.4616 C62.235,67.5796 66.207,63.6076 71.088,63.6076 C75.97,63.6076 79.942,67.5796 79.942,72.4616 L79.942,72.4616 Z M51.967,58.1066 C51.967,56.9986 52.869,56.0976 53.976,56.0976 L88.201,56.0976 C89.308,56.0976 90.209,56.9986 90.209,58.1066 L90.209,92.2886 L82.534,92.2886 L82.534,72.4616 C82.534,66.1506 77.399,61.0156 71.088,61.0156 C64.778,61.0156 59.643,66.1506 59.643,72.4616 L59.643,92.2886 L51.967,92.2886 L51.967,58.1066 Z M65.091,42.0646 L77.085,42.0646 L77.085,38.2836 L65.091,38.2836 L65.091,42.0646 Z M65.091,48.4376 L77.085,48.4376 L77.085,44.6566 L65.091,44.6566 L65.091,48.4376 Z M65.091,53.5066 L77.085,53.5066 L77.085,51.0296 L65.091,51.0296 L65.091,53.5066 Z M65.091,22.9456 L77.085,22.9456 L77.085,19.1656 L65.091,19.1656 L65.091,22.9456 Z M65.091,35.6916 L77.085,35.6916 L77.085,31.9116 L65.091,31.9116 L65.091,35.6916 Z M65.091,29.3186 L77.085,29.3186 L77.085,25.5386 L65.091,25.5386 L65.091,29.3186 Z M65.08,10.1706 L77.078,10.1706 L77.078,7.7146 L65.08,7.7146 L65.08,10.1706 Z M65.091,16.5736 L77.085,16.5736 L77.085,12.7916 L65.091,12.7916 L65.091,16.5736 Z M53.216,5.1216 C52.519,5.1216 51.952,4.5546 51.952,3.8566 C51.952,3.1596 52.519,2.5926 53.216,2.5926 L88.942,2.5926 C89.639,2.5926 90.206,3.1596 90.206,3.8566 C90.206,4.5546 89.639,5.1216 88.942,5.1216 L53.216,5.1216 Z M96.143,92.2856 L92.799,92.2856 L92.799,58.0926 C92.799,55.5546 90.735,53.4906 88.197,53.4906 L79.67,53.4906 L79.67,7.7146 L88.942,7.7146 C91.069,7.7146 92.799,5.9836 92.799,3.8576 C92.799,1.7306 91.069,0.0006 88.942,0.0006 L53.216,0.0006 C51.089,0.0006 49.359,1.7296 49.359,3.8566 C49.359,5.9836 51.089,7.7146 53.216,7.7146 L62.487,7.7146 L62.488,53.4906 L53.961,53.4906 C51.423,53.4906 49.359,55.5546 49.359,58.0926 L49.359,67.8316 L42.755,67.8316 L42.755,37.7736 L53.121,37.7736 C55.264,37.7736 57.007,36.0296 57.007,33.8876 C57.007,31.7436 55.264,30.0006 53.121,30.0006 L24.618,30.0006 C22.474,30.0006 20.73,31.7436 20.73,33.8876 C20.73,36.0296 22.474,37.7736 24.618,37.7736 L34.982,37.7736 L34.982,67.8316 L19.435,67.8316 L19.435,57.4666 L27.208,57.4666 C29.352,57.4666 31.095,55.7216 31.095,53.5796 C31.095,51.4356 29.352,49.6916 27.208,49.6916 L3.887,49.6916 C1.744,49.6916 0,51.4356 0,53.5796 C0,55.7216 1.744,57.4666 3.887,57.4666 L11.661,57.4666 L11.661,67.8316 C9.518,67.8316 7.774,69.5746 7.774,71.7186 C7.774,73.8616 9.518,75.6046 11.661,75.6046 L11.661,92.2856 L3.857,92.2856 C1.73,92.2856 0,94.0156 0,96.1426 C0,98.2696 1.73,100.0006 3.857,100.0006 L96.143,100.0006 C98.27,100.0006 100,98.2696 100,96.1426 C100,94.0156 98.27,92.2856 96.143,92.2856 L96.143,92.2856 Z"
              id="icon_cat-tree" fill="#3A4B60"></path>
    </g>
</svg>