<?xml version="1.0" encoding="UTF-8"?>
<svg width="100px" height="100px" viewBox="0 0 100 100" version="1.1" xmlns="http://www.w3.org/2000/svg">
    <title>icon / furniture / chandelier</title>
    <g id="icon-/-furniture-/-chandelier" stroke="none" stroke-width="1" fill="none" fill-rule="evenodd">
        <path d="M12.0708,51.9534 L15.1958,67.5784 L4.3358,67.5784 L7.4608,51.9534 L12.0708,51.9534 Z M49.9998,36.3284 C51.0768,36.3284 51.9528,37.2044 51.9528,38.2814 C51.9528,39.3584 51.0768,40.2344 49.9998,40.2344 C48.9238,40.2344 48.0468,39.3584 48.0468,38.2814 C48.0468,37.2044 48.9238,36.3284 49.9998,36.3284 L49.9998,36.3284 Z M46.0938,15.6234 L53.9058,15.6234 C53.9058,17.7764 52.1538,19.5314 49.9998,19.5314 C47.8458,19.5314 46.0938,17.7764 46.0938,15.6234 L46.0938,15.6234 Z M36.3278,5.8594 L36.3278,3.9064 L63.6718,3.9064 L63.6718,5.8594 C63.6718,9.0904 61.0438,11.7194 57.8128,11.7194 L42.1878,11.7194 C38.9568,11.7194 36.3278,9.0904 36.3278,5.8594 L36.3278,5.8594 Z M49.9998,79.2974 C47.8458,79.2974 46.0938,77.5444 46.0938,75.3904 C46.0938,73.2364 47.8458,71.4844 49.9998,71.4844 C52.1538,71.4844 53.9058,73.2364 53.9058,75.3904 C53.9058,77.5444 52.1538,79.2974 49.9998,79.2974 L49.9998,79.2974 Z M30.8978,40.2344 L35.5078,40.2344 L38.6328,55.8594 L27.7728,55.8594 L30.8978,40.2344 Z M64.4918,40.2344 L69.1018,40.2344 L72.2268,55.8594 L61.3668,55.8594 L64.4918,40.2344 Z M87.9288,51.9534 L92.5398,51.9534 L95.6648,67.5784 L84.8038,67.5784 L87.9288,51.9534 Z M3.9448,49.6174 L0.0378,69.1484 C-0.0762,69.7224 0.0718,70.3164 0.4428,70.7694 C0.8138,71.2224 1.3678,71.4844 1.9528,71.4844 L7.8128,71.4844 L7.8128,75.3904 C7.8128,81.8644 13.0568,87.1094 19.5308,87.1094 C25.9928,87.1094 31.2498,81.8524 31.2498,75.3904 L31.2498,73.4374 C31.2498,70.2064 33.8788,67.5784 37.1098,67.5784 L40.6178,67.5784 C42.4378,67.5854 44.1908,68.0204 45.7658,68.8304 C43.6148,70.2244 42.1878,72.6424 42.1878,75.3904 C42.1878,79.0244 44.6808,82.0864 48.0468,82.9564 L48.0468,98.0474 C48.0468,99.1254 48.9218,100.0004 49.9998,100.0004 C51.0788,100.0004 51.9528,99.1254 51.9528,98.0474 L51.9528,82.9564 C55.3188,82.0864 57.8128,79.0244 57.8128,75.3904 C57.8128,72.6444 56.3878,70.2274 54.2398,68.8344 C55.8668,68.0014 57.6058,67.5864 59.3838,67.5784 L62.8908,67.5784 C66.1218,67.5784 68.7498,70.2064 68.7498,73.4374 L68.7498,75.3904 C68.7498,81.8524 74.0078,87.1094 80.4688,87.1094 C83.5978,87.1094 86.5398,85.8904 88.7548,83.6764 C90.9678,81.4624 92.1878,78.5194 92.1878,75.3904 L92.1878,71.4844 L98.0468,71.4844 C98.6328,71.4844 99.1868,71.2224 99.5568,70.7694 C99.9278,70.3164 100.0768,69.7224 99.9618,69.1484 L96.0558,49.6174 C95.8738,48.7044 95.0718,48.0474 94.1408,48.0474 L86.3278,48.0474 C85.3968,48.0474 84.5958,48.7044 84.4128,49.6174 L80.5068,69.1484 C80.3918,69.7224 80.5408,70.3164 80.9118,70.7694 C81.2818,71.2224 81.8368,71.4844 82.4218,71.4844 L88.2808,71.4844 L88.2808,75.3904 C88.2808,77.4754 87.4678,79.4374 85.9918,80.9144 C84.5158,82.3904 82.5538,83.2034 80.4688,83.2034 C76.1608,83.2034 72.6558,79.6984 72.6558,75.3904 L72.6558,73.4374 C72.6558,69.8244 70.6828,66.6664 67.7588,64.9764 C68.3838,64.0444 68.7498,62.9244 68.7498,61.7194 L68.7498,59.7654 L74.6098,59.7654 C75.1948,59.7654 75.7488,59.5034 76.1198,59.0514 C76.4908,58.5984 76.6388,58.0034 76.5248,57.4304 L72.6178,37.8984 C72.4358,36.9854 71.6338,36.3284 70.7028,36.3284 L62.8908,36.3284 C61.9598,36.3284 61.1578,36.9854 60.9758,37.8984 L57.0698,57.4304 C56.9548,58.0034 57.1028,58.5984 57.4738,59.0514 C57.8448,59.5034 58.3998,59.7654 58.9848,59.7654 L64.8438,59.7654 L64.8438,61.7194 C64.8438,62.7964 63.9678,63.6724 62.8908,63.6724 L59.3658,63.6724 C56.8448,63.6824 54.3028,64.3104 51.9528,65.6274 L51.9528,43.8054 C54.2268,42.9984 55.8598,40.8274 55.8598,38.2814 C55.8598,35.7344 54.2268,33.5634 51.9528,32.7584 L51.9528,23.1904 C55.3188,22.3204 57.8128,19.2594 57.8128,15.6254 C63.1968,15.6254 67.5778,11.2444 67.5778,5.8594 L67.5778,1.9534 C67.5778,0.8744 66.7038,0.0004 65.6248,0.0004 L34.3748,0.0004 C33.2968,0.0004 32.4218,0.8744 32.4218,1.9534 L32.4218,5.8594 C32.4218,11.2444 36.8028,15.6254 42.1878,15.6254 C42.1878,19.2594 44.6808,22.3204 48.0468,23.1904 L48.0468,32.7584 C45.7738,33.5634 44.1408,35.7344 44.1408,38.2814 C44.1408,40.8274 45.7738,42.9984 48.0468,43.8054 L48.0468,65.6204 C45.8058,64.3594 43.2708,63.6824 40.6328,63.6724 L37.1098,63.6724 C36.0328,63.6724 35.1558,62.7964 35.1558,61.7194 L35.1558,59.7654 L41.0158,59.7654 C41.6008,59.7654 42.1548,59.5034 42.5258,59.0514 C42.8968,58.5984 43.0458,58.0034 42.9308,57.4304 L39.0248,37.8984 C38.8418,36.9854 38.0408,36.3284 37.1098,36.3284 L29.2968,36.3284 C28.3658,36.3284 27.5648,36.9854 27.3818,37.8984 L23.4758,57.4304 C23.3608,58.0034 23.5088,58.5984 23.8808,59.0514 C24.2508,59.5034 24.8058,59.7654 25.3908,59.7654 L31.2498,59.7654 L31.2498,61.7194 C31.2498,62.9244 31.6158,64.0444 32.2418,64.9764 C29.3178,66.6664 27.3438,69.8244 27.3438,73.4374 L27.3438,75.3904 C27.3438,79.6984 23.8398,83.2034 19.5308,83.2034 C15.2168,83.2034 11.7188,79.7064 11.7188,75.3904 L11.7188,71.4844 L17.5778,71.4844 C18.1638,71.4844 18.7178,71.2224 19.0888,70.7694 C19.4598,70.3164 19.6078,69.7224 19.4928,69.1484 L15.5868,49.6174 C15.4048,48.7044 14.6028,48.0474 13.6718,48.0474 L5.8598,48.0474 C4.9278,48.0474 4.1268,48.7044 3.9448,49.6174 L3.9448,49.6174 Z"
              id="Fill-1" fill="#3A4B60"></path>
    </g>
</svg>