<?xml version="1.0" encoding="UTF-8"?>
<svg width="100px" height="100px" viewBox="0 0 100 100" version="1.1" xmlns="http://www.w3.org/2000/svg">
    <title>icon / furniture / chest-of-drawers</title>
    <g id="icon-/-furniture-/-chest-of-drawers" stroke="none" stroke-width="1" fill="none" fill-rule="evenodd">
        <path d="M58.626,41.834 L41.374,41.834 C40.574,41.834 39.925,42.482 39.925,43.283 C39.925,44.083 40.574,44.731 41.374,44.731 L58.626,44.731 C59.426,44.731 60.075,44.083 60.075,43.283 C60.075,42.482 59.426,41.834 58.626,41.834 L58.626,41.834 Z M10.398,71.316 L89.6,71.316 L89.6,55.429 L10.398,55.429 L10.398,71.316 Z M10.398,52.532 L89.6,52.532 L89.6,36.645 L10.398,36.645 L10.398,52.532 Z M10.398,33.748 L89.6,33.748 L89.6,17.862 L10.398,17.862 L10.398,33.748 Z M7.501,72.765 L7.501,16.413 C7.501,15.612 8.149,14.964 8.95,14.964 L91.05,14.964 C91.85,14.964 92.499,15.612 92.499,16.413 L92.499,72.765 C92.499,73.565 91.85,74.214 91.05,74.214 L8.95,74.214 C8.149,74.214 7.501,73.565 7.501,72.765 L7.501,72.765 Z M58.626,60.493 L41.374,60.493 C40.573,60.493 39.925,61.142 39.925,61.942 C39.925,62.743 40.573,63.392 41.374,63.392 L58.626,63.392 C59.426,63.392 60.074,62.743 60.074,61.942 C60.074,61.142 59.426,60.493 58.626,60.493 L58.626,60.493 Z M2.898,78.78 L97.102,78.78 L97.102,10.397 L2.898,10.397 L2.898,78.78 Z M92.883,81.678 L7.117,81.678 L7.117,89.603 L15.471,89.603 L15.471,86.946 C15.471,86.146 16.119,85.497 16.919,85.497 L83.08,85.497 C83.88,85.497 84.529,86.146 84.529,86.946 L84.529,89.603 L92.883,89.603 L92.883,81.678 Z M100,9.882 L100,79.296 C100,80.609 98.93,81.678 97.613,81.678 L95.78,81.678 L95.78,90.118 C95.78,91.432 94.71,92.5 93.395,92.5 L84.018,92.5 C82.702,92.5 81.632,91.432 81.632,90.118 L81.632,88.396 L18.369,88.396 L18.369,90.118 C18.369,91.432 17.298,92.5 15.982,92.5 L6.606,92.5 C5.29,92.5 4.219,91.432 4.219,90.118 L4.219,81.678 L2.387,81.678 C1.071,81.678 0,80.609 0,79.296 L0,9.882 C0,8.568 1.071,7.5 2.387,7.5 L97.613,7.5 C98.929,7.5 100,8.568 100,9.882 L100,9.882 Z M60.075,24.623 C60.075,25.424 59.426,26.072 58.626,26.072 L41.374,26.072 C40.574,26.072 39.925,25.424 39.925,24.623 C39.925,23.823 40.574,23.175 41.374,23.175 L58.626,23.175 C59.426,23.175 60.075,23.823 60.075,24.623 L60.075,24.623 Z"
              id="icon_chest-of-drawers" fill="#3A4B60"></path>
    </g>
</svg>