<?xml version="1.0" encoding="UTF-8"?>
<svg width="100px" height="100px" viewBox="0 0 100 100" version="1.1" xmlns="http://www.w3.org/2000/svg">
    <title>icon / furniture / chest</title>
    <g id="icon-/-furniture-/-chest" stroke="none" stroke-width="1" fill="none" fill-rule="evenodd">
        <path d="M50.318,42.611 C51.088,42.611 51.711,41.987 51.711,41.218 L51.711,37.329 C51.711,36.559 51.088,35.936 50.318,35.936 C49.549,35.936 48.925,36.559 48.925,37.329 L48.925,41.218 C48.925,41.987 49.549,42.611 50.318,42.611 L50.318,42.611 Z M82.262,72.024 C81.786,71.617 81.076,71.585 80.561,71.941 C80.102,72.258 79.878,72.844 80,73.388 C80.14,74.016 80.714,74.474 81.358,74.474 C81.977,74.474 82.535,74.048 82.7,73.453 C82.841,72.938 82.67,72.371 82.262,72.024 L82.262,72.024 Z M80.481,54.842 C80.027,55.212 79.848,55.846 80.048,56.398 C80.246,56.944 80.777,57.318 81.358,57.318 C82.019,57.318 82.606,56.833 82.727,56.181 C82.958,54.937 81.468,54.042 80.481,54.842 L80.481,54.842 Z M80.481,60.562 C80.027,60.931 79.848,61.566 80.048,62.118 C80.246,62.663 80.777,63.037 81.358,63.037 C82.019,63.037 82.606,62.551 82.727,61.9 C82.958,60.656 81.468,59.761 80.481,60.562 L80.481,60.562 Z M80.481,66.281 C80.027,66.65 79.848,67.285 80.048,67.837 C80.246,68.382 80.777,68.756 81.358,68.756 C82.019,68.756 82.606,68.27 82.727,67.62 C82.958,66.376 81.468,65.48 80.481,66.281 L80.481,66.281 Z M80.481,31.966 C80.027,32.336 79.848,32.97 80.048,33.522 C80.246,34.068 80.777,34.441 81.358,34.441 C82.019,34.441 82.606,33.956 82.727,33.304 C82.958,32.06 81.468,31.166 80.481,31.966 L80.481,31.966 Z M80.481,49.124 C80.027,49.493 79.848,50.128 80.048,50.679 C80.246,51.225 80.777,51.598 81.358,51.598 C82.019,51.598 82.606,51.113 82.727,50.463 C82.958,49.217 81.468,48.323 80.481,49.124 L80.481,49.124 Z M80.481,26.247 C80.027,26.617 79.848,27.251 80.048,27.802 C80.246,28.348 80.777,28.722 81.358,28.722 C82.019,28.722 82.606,28.237 82.727,27.586 C82.958,26.341 81.468,25.446 80.481,26.247 L80.481,26.247 Z M80.481,37.685 C80.027,38.054 79.848,38.689 80.048,39.241 C80.246,39.787 80.777,40.161 81.358,40.161 C82.019,40.161 82.606,39.675 82.727,39.024 C82.958,37.78 81.468,36.884 80.481,37.685 L80.481,37.685 Z M80.481,43.404 C80.027,43.774 79.848,44.408 80.048,44.96 C80.246,45.506 80.777,45.88 81.358,45.88 C82.019,45.88 82.606,45.394 82.727,44.743 C82.958,43.499 81.468,42.604 80.481,43.404 L80.481,43.404 Z M81.358,23.005 C81.946,23.005 82.483,22.617 82.674,22.063 C82.849,21.555 82.707,20.973 82.318,20.603 C81.869,20.174 81.174,20.102 80.642,20.417 C80.112,20.731 79.85,21.388 80.016,21.982 C80.183,22.577 80.738,23.005 81.358,23.005 L81.358,23.005 Z M16.142,72.024 C15.181,72.841 15.781,74.474 17.047,74.474 C17.73,74.474 18.322,73.962 18.423,73.287 C18.61,72.045 17.102,71.207 16.142,72.024 L16.142,72.024 Z M16.171,54.842 C15.715,55.212 15.537,55.846 15.737,56.398 C15.934,56.944 16.465,57.318 17.047,57.318 C17.709,57.318 18.295,56.833 18.416,56.181 C18.647,54.937 17.157,54.042 16.171,54.842 L16.171,54.842 Z M16.171,49.124 C15.715,49.493 15.537,50.128 15.737,50.679 C15.934,51.225 16.465,51.598 17.047,51.598 C17.709,51.598 18.295,51.113 18.416,50.463 C18.647,49.217 17.157,48.323 16.171,49.124 L16.171,49.124 Z M16.171,43.404 C15.715,43.774 15.537,44.408 15.737,44.96 C15.934,45.506 16.465,45.88 17.047,45.88 C17.709,45.88 18.295,45.394 18.416,44.743 C18.647,43.499 17.157,42.604 16.171,43.404 L16.171,43.404 Z M17.047,28.722 C17.709,28.722 18.295,28.237 18.416,27.586 C18.647,26.341 17.157,25.446 16.171,26.247 C15.715,26.617 15.537,27.251 15.737,27.802 C15.934,28.348 16.465,28.722 17.047,28.722 L17.047,28.722 Z M16.171,60.562 C15.715,60.931 15.537,61.566 15.737,62.118 C15.934,62.663 16.465,63.037 17.047,63.037 C17.709,63.037 18.295,62.551 18.416,61.9 C18.647,60.656 17.157,59.761 16.171,60.562 L16.171,60.562 Z M16.171,37.685 C15.715,38.054 15.537,38.689 15.737,39.241 C15.934,39.787 16.465,40.161 17.047,40.161 C17.709,40.161 18.295,39.675 18.416,39.024 C18.647,37.78 17.157,36.884 16.171,37.685 L16.171,37.685 Z M16.171,66.281 C15.715,66.65 15.537,67.285 15.737,67.837 C15.934,68.382 16.465,68.756 17.047,68.756 C17.709,68.756 18.295,68.27 18.416,67.62 C18.647,66.376 17.157,65.48 16.171,66.281 L16.171,66.281 Z M16.171,31.966 C15.715,32.336 15.537,32.97 15.737,33.522 C15.934,34.068 16.465,34.441 17.047,34.441 C17.709,34.441 18.295,33.956 18.416,33.304 C18.647,32.06 17.157,31.166 16.171,31.966 L16.171,31.966 Z M17.047,23.003 C17.704,23.003 18.282,22.526 18.411,21.882 C18.516,21.359 18.301,20.797 17.865,20.484 C17.344,20.112 16.624,20.139 16.137,20.557 C15.182,21.379 15.783,23.003 17.047,23.003 L17.047,23.003 Z M97.214,25.334 L87.437,25.334 L87.437,17.784 L95.904,17.784 C96.627,17.784 97.214,18.372 97.214,19.094 L97.214,25.334 Z M87.437,31.691 L97.214,31.691 L97.214,28.119 L87.437,28.119 L87.437,31.691 Z M97.214,75.714 C97.214,76.436 96.627,77.024 95.904,77.024 L87.437,77.024 L87.437,34.475 L97.214,34.475 L97.214,75.714 Z M84.738,82.215 L90.542,82.215 L90.542,79.809 L84.738,79.809 L84.738,82.215 Z M78.063,77.024 L84.652,77.024 L84.652,17.784 L78.063,17.784 L78.063,77.024 Z M75.279,25.334 L75.278,25.334 L23.127,25.335 L23.127,17.784 L75.279,17.784 L75.279,25.334 Z M75.278,31.691 L62.392,31.691 C59.433,31.691 57.027,34.097 57.027,37.056 L57.027,40.26 C57.027,40.924 56.757,41.55 56.27,42.025 C55.771,42.509 55.105,42.776 54.396,42.776 C53.08,42.776 52.008,43.848 52.008,45.166 L52.008,48.001 C52.008,48.478 51.822,48.929 51.486,49.266 C51.146,49.605 50.695,49.793 50.217,49.793 C49.23,49.793 48.427,48.988 48.427,48.001 L48.427,45.166 C48.427,43.848 47.356,42.776 46.033,42.776 C44.583,42.776 43.404,41.648 43.404,40.26 L43.404,37.056 C43.404,34.097 40.996,31.691 38.037,31.691 L23.127,31.691 L23.127,28.119 L75.278,28.119 L75.278,31.691 Z M75.278,77.024 L23.127,77.024 L23.126,34.475 L38.036,34.475 C39.461,34.475 40.619,35.633 40.619,37.056 L40.619,40.26 C40.619,43.053 42.836,45.348 45.642,45.547 L45.642,48.001 C45.642,50.524 47.695,52.577 50.216,52.577 C51.437,52.577 52.587,52.101 53.455,51.235 C54.318,50.37 54.794,49.22 54.794,48.001 L54.794,45.547 C56.083,45.456 57.284,44.923 58.211,44.021 C59.243,43.018 59.811,41.682 59.811,40.26 L59.811,37.056 C59.811,35.633 60.968,34.475 62.392,34.475 L75.278,34.475 L75.278,77.024 Z M13.751,77.024 L20.341,77.024 L20.341,17.784 L13.751,17.784 L13.751,77.024 Z M9.457,82.215 L15.261,82.215 L15.261,79.809 L9.457,79.809 L9.457,82.215 Z M4.095,77.024 C3.373,77.024 2.785,76.436 2.785,75.714 L2.785,34.475 L10.967,34.475 L10.967,77.024 L4.095,77.024 Z M2.785,31.691 L10.968,31.691 L10.968,28.119 L2.785,28.119 L2.785,31.691 Z M2.785,19.094 C2.785,18.372 3.373,17.784 4.095,17.784 L10.967,17.784 L10.967,25.334 L2.785,25.334 L2.785,19.094 Z M95.904,15 L4.095,15 C1.838,15 0,16.837 0,19.094 L0,75.714 C0,77.971 1.838,79.809 4.095,79.809 L6.673,79.809 L6.673,82.708 C6.673,83.971 7.701,85 8.964,85 L15.755,85 C17.019,85 18.047,83.971 18.047,82.708 L18.047,79.809 L81.953,79.809 L81.953,82.708 C81.953,83.971 82.981,85 84.245,85 L91.036,85 C92.299,85 93.327,83.971 93.327,82.708 L93.327,79.809 L95.904,79.809 C98.163,79.809 100,77.971 100,75.714 L100,19.094 C100,16.837 98.163,15 95.904,15 L95.904,15 Z"
              id="icon_chest" fill="#3A4B60"></path>
    </g>
</svg>