<?xml version="1.0" encoding="UTF-8"?>
<svg width="100px" height="100px" viewBox="0 0 100 100" version="1.1" xmlns="http://www.w3.org/2000/svg">
    <title>icon / furniture / childs-wagon</title>
    <g id="icon-/-furniture-/-childs-wagon" stroke="none" stroke-width="1" fill="none" fill-rule="evenodd">
        <path d="M73.9421,47.0394 L69.5191,47.0394 L79.4261,21.0784 L83.2881,22.5524 L73.9421,47.0394 Z M92.1871,49.9694 C94.0541,49.9694 95.5731,51.4874 95.5731,53.3544 C95.5731,55.2214 94.0541,56.7404 92.1871,56.7404 L6.3151,56.7404 C4.4491,56.7404 2.9291,55.2214 2.9291,53.3544 C2.9291,51.4874 4.4491,49.9694 6.3151,49.9694 L92.1871,49.9694 Z M90.7221,76.4404 C90.7221,80.4474 87.8041,83.7854 83.9811,84.4404 C83.9691,84.3314 83.9521,84.2254 83.9371,84.1164 C83.0051,77.3374 76.9251,72.0444 70.0911,72.0444 C63.1621,72.0444 56.9121,77.6534 56.1911,84.5574 L42.3111,84.5574 C41.7161,78.8594 37.4271,73.9864 31.9161,72.5084 C25.5231,70.7944 18.5321,74.1334 15.7431,80.1174 C15.5501,80.5314 14.2481,84.3934 14.5221,84.4404 C10.6991,83.7854 7.7801,80.4464 7.7801,76.4404 L7.7801,59.6704 L90.7221,59.6704 L90.7221,76.4404 Z M70.0921,97.0704 C64.0011,97.0704 59.0451,92.1144 59.0451,86.0214 C59.0451,80.0044 64.0851,74.9744 70.0921,74.9744 C76.0671,74.9744 81.1401,80.0604 81.1401,86.0214 C81.1401,92.1144 76.1841,97.0704 70.0921,97.0704 L70.0921,97.0704 Z M28.4111,97.0704 C22.3191,97.0704 17.3631,92.1144 17.3631,86.0214 C17.3631,80.0314 22.4281,74.9744 28.4111,74.9744 C34.5031,74.9744 39.4591,79.9314 39.4591,86.0214 C39.4591,92.1144 34.5031,97.0704 28.4111,97.0704 L28.4111,97.0704 Z M73.7071,13.4204 C72.8931,11.6004 72.8361,9.5734 73.5461,7.7114 C74.9901,3.9284 79.4021,1.9594 83.1781,3.4004 L92.2691,6.8704 C96.1131,8.3374 98.0461,12.6574 96.5801,16.5024 C95.4831,19.3754 92.6801,21.3064 89.6061,21.3064 C88.6981,21.3064 87.8041,21.1394 86.9481,20.8114 L77.8571,17.3434 C75.9951,16.6324 74.5211,15.2384 73.7071,13.4204 L73.7071,13.4204 Z M89.6061,24.2354 C93.8871,24.2354 97.7901,21.5474 99.3161,17.5474 C101.3601,12.1934 98.6671,6.1764 93.3131,4.1334 L84.2231,0.6634 C78.9441,-1.3516 72.8251,1.3854 70.8091,6.6664 C68.7821,11.9784 71.4201,17.9424 76.6911,20.0304 L66.3821,47.0394 L6.3151,47.0394 C2.8341,47.0394 0.0001,49.8714 0.0001,53.3544 C0.0001,56.3334 2.0731,58.8344 4.8501,59.4974 L4.8501,76.4404 C4.8501,82.0594 9.0671,86.7064 14.5011,87.3954 C15.1931,94.4614 21.1671,100.0004 28.4111,100.0004 C35.6231,100.0004 41.5771,94.5084 42.3111,87.4864 L56.1921,87.4864 C56.9261,94.5084 62.8791,100.0004 70.0921,100.0004 C77.3371,100.0004 83.3091,94.4614 84.0021,87.3954 C89.4351,86.7064 93.6521,82.0594 93.6521,76.4404 L93.6521,59.4974 C96.4301,58.8344 98.5031,56.3324 98.5031,53.3544 C98.5031,49.8714 95.6701,47.0394 92.1871,47.0394 L77.0771,47.0394 L86.0261,23.5944 C87.1801,24.0184 88.3831,24.2354 89.6061,24.2354 L89.6061,24.2354 Z M28.4111,89.9774 C26.2301,89.9774 24.4561,88.2034 24.4561,86.0214 C24.4561,83.8414 26.2301,82.0664 28.4111,82.0664 C30.5911,82.0664 32.3661,83.8414 32.3661,86.0214 C32.3661,88.2034 30.5911,89.9774 28.4111,89.9774 L28.4111,89.9774 Z M28.4111,79.1374 C24.6141,79.1374 21.5261,82.2264 21.5261,86.0214 C21.5261,89.8184 24.6141,92.9074 28.4111,92.9074 C32.2081,92.9074 35.2961,89.8184 35.2961,86.0214 C35.2961,82.2264 32.2081,79.1374 28.4111,79.1374 L28.4111,79.1374 Z M70.0921,89.9774 C67.9121,89.9774 66.1371,88.2034 66.1371,86.0214 C66.1371,83.8414 67.9121,82.0664 70.0921,82.0664 C72.2731,82.0664 74.0471,83.8414 74.0471,86.0214 C74.0471,88.2034 72.2731,89.9774 70.0921,89.9774 L70.0921,89.9774 Z M70.0921,79.1374 C66.2961,79.1374 63.2081,82.2264 63.2081,86.0214 C63.2081,89.8184 66.2961,92.9074 70.0921,92.9074 C73.8891,92.9074 76.9771,89.8184 76.9771,86.0214 C76.9771,82.2264 73.8891,79.1374 70.0921,79.1374 L70.0921,79.1374 Z M78.9621,9.7784 C79.3231,8.8314 80.4261,8.3404 81.3701,8.7004 L90.0871,12.0274 C91.0461,12.3944 91.5301,13.4744 91.1641,14.4354 C90.8011,15.3824 89.7001,15.8724 88.7561,15.5134 L80.0391,12.1854 C79.0791,11.8194 78.5941,10.7384 78.9621,9.7784 L78.9621,9.7784 Z M87.7121,18.2494 C90.1481,19.1794 92.9711,17.9164 93.9011,15.4794 C94.8441,13.0094 93.6011,10.2324 91.1301,9.2904 C91.1301,9.2904 82.4151,5.9644 82.4151,5.9634 C79.9781,5.0334 77.1551,6.2964 76.2241,8.7334 C75.2821,11.2034 76.5241,13.9794 78.9951,14.9234 C78.9951,14.9234 87.7081,18.2484 87.7121,18.2494 L87.7121,18.2494 Z"
              id="icon_childs-wagon" fill="#3A4B60"></path>
    </g>
</svg>