<?xml version="1.0" encoding="UTF-8"?>
<svg width="100px" height="100px" viewBox="0 0 100 100" version="1.1" xmlns="http://www.w3.org/2000/svg">
    <title>icon / furniture / computer-tower</title>
    <g id="icon-/-furniture-/-computer-tower" stroke="none" stroke-width="1" fill="none" fill-rule="evenodd">
        <path d="M66.6299,89.1097 L59.2509,80.6707 C59.1739,80.5827 59.1429,80.4637 59.1649,80.3497 L59.1649,80.3487 L63.3609,59.3677 C63.3729,59.3087 63.3989,59.2547 63.4369,59.2077 L66.6299,55.2147 L66.6299,89.1097 Z M40.8359,80.3487 C40.8579,80.4627 40.8259,80.5827 40.7499,80.6697 L33.3709,89.1097 L33.3709,55.2147 L36.5649,59.2077 C36.6019,59.2537 36.6279,59.3087 36.6389,59.3677 L40.8359,80.3487 Z M66.6299,95.4707 C66.6299,96.1097 66.1099,96.6297 65.4719,96.6297 L34.5289,96.6297 C33.8899,96.6297 33.3709,96.1097 33.3709,95.4717 L33.3709,94.2297 L43.2879,82.8877 C44.0479,82.0167 44.3669,80.8207 44.1399,79.6877 L39.9439,58.7077 C39.8269,58.1227 39.5679,57.5667 39.1959,57.1007 L33.3699,49.8207 L33.3699,4.5287 C33.3699,3.8897 33.8899,3.3707 34.5279,3.3707 L36.6319,3.3707 L39.8159,7.2177 C40.8329,8.4487 42.3319,9.1537 43.9279,9.1537 L55.9169,9.1537 C57.4719,9.1537 58.9449,8.4777 59.9599,7.3007 L63.3479,3.3707 L65.4719,3.3707 C66.1099,3.3707 66.6299,3.8897 66.6299,4.5287 L66.6299,49.8197 L60.8049,57.1007 C60.4319,57.5667 60.1729,58.1227 60.0559,58.7067 L55.8589,79.6877 C55.6329,80.8207 55.9519,82.0167 56.7129,82.8867 L66.6299,94.2287 L66.6299,95.4707 Z M58.8989,3.3707 L57.4069,5.1007 C57.0329,5.5347 56.4899,5.7837 55.9169,5.7837 L43.9279,5.7837 C43.3399,5.7837 42.7869,5.5237 42.4119,5.0707 L41.0059,3.3707 L58.8989,3.3707 Z M65.4719,0.0007 L34.5289,0.0007 C32.0319,0.0007 29.9999,2.0317 29.9999,4.5287 L29.9999,95.4717 C29.9999,97.9687 32.0319,100.0007 34.5289,100.0007 L65.4719,100.0007 C67.9689,100.0007 69.9999,97.9687 69.9999,95.4717 L69.9999,4.5287 C69.9999,2.0317 67.9689,0.0007 65.4719,0.0007 L65.4719,0.0007 Z M56.5629,90.0397 C57.4929,90.0397 58.2479,90.7937 58.2479,91.7237 C58.2479,92.6547 57.4929,93.4097 56.5629,93.4097 L52.5839,93.4097 C51.6529,93.4097 50.8989,92.6547 50.8989,91.7237 C50.8989,90.7937 51.6529,90.0397 52.5839,90.0397 L56.5629,90.0397 Z M39.1099,18.4227 L60.8889,18.4227 L60.8889,15.9677 L39.1099,15.9677 L39.1099,18.4227 Z M38.6689,21.7937 L61.3319,21.7937 C62.9459,21.7937 64.2599,20.4797 64.2599,18.8647 L64.2599,15.5257 C64.2599,13.9117 62.9459,12.5977 61.3319,12.5977 L38.6689,12.5977 C37.0539,12.5977 35.7399,13.9117 35.7399,15.5257 L35.7399,18.8647 C35.7399,20.4797 37.0539,21.7937 38.6689,21.7937 L38.6689,21.7937 Z M39.1109,30.5787 L60.8899,30.5787 L60.8899,28.1237 L39.1109,28.1237 L39.1109,30.5787 Z M64.2599,31.0207 L64.2599,27.6817 C64.2599,26.0667 62.9459,24.7537 61.3319,24.7537 L38.6689,24.7537 C37.0539,24.7537 35.7399,26.0667 35.7399,27.6817 L35.7399,31.0207 C35.7399,32.6347 37.0539,33.9487006 38.6689,33.9487006 L61.3319,33.9487006 C62.9459,33.9497 64.2599,32.6347 64.2599,31.0207 L64.2599,31.0207 Z M47.7979,91.7237 C47.7979,92.6547 47.0449,93.4097 46.1129,93.4097 L42.1349,93.4097 C41.2039,93.4097 40.4489,92.6547 40.4489,91.7237 C40.4489,90.7937 41.2039,90.0397 42.1349,90.0397 L46.1129,90.0397 C47.0439,90.0397 47.7979,90.7937 47.7979,91.7237 L47.7979,91.7237 Z M49.5599,58.7697 C48.0419,58.7697 46.8069,57.5357 46.8069,56.0177 C46.8069,54.5007 48.0419,53.2647 49.5599,53.2647 C51.0769,53.2647 52.3119,54.5007 52.3119,56.0177 C52.3119,57.5357 51.0769,58.7697 49.5599,58.7697 L49.5599,58.7697 Z M55.6819,56.0177 C55.6819,52.6417 52.9359,49.8947 49.5599,49.8947 C46.1829,49.8947 43.4369,52.6417 43.4369,56.0177 C43.4369,59.3937 46.1829,62.1407 49.5599,62.1407 C52.9359,62.1407 55.6819,59.3937 55.6819,56.0177 L55.6819,56.0177 Z"
              id="Fill-1" fill="#3A4B60"></path>
    </g>
</svg>