<?xml version="1.0" encoding="UTF-8"?>
<svg width="100px" height="100px" viewBox="0 0 100 100" version="1.1" xmlns="http://www.w3.org/2000/svg">
    <title>icon / furniture / cooler</title>
    <g id="icon-/-furniture-/-cooler" stroke="none" stroke-width="1" fill="none" fill-rule="evenodd">
        <path d="M11.3411,75.1382 C10.5261,75.1382 9.8621,74.4742 9.8621,73.6592 C9.8621,72.8432 10.5261,72.1802 11.3411,72.1802 C12.1561,72.1802 12.8201,72.8432 12.8201,73.6592 C12.8201,74.4742 12.1561,75.1382 11.3411,75.1382 L11.3411,75.1382 Z M11.3411,69.2212 C8.8941,69.2212 6.9041,71.2112 6.9041,73.6592 C6.9041,76.1052 8.8941,78.0962 11.3411,78.0962 C13.7881,78.0962 15.7781,76.1052 15.7781,73.6592 C15.7781,71.2112 13.7881,69.2212 11.3411,69.2212 L11.3411,69.2212 Z M97.0411,70.5022 C97.0411,70.7752 96.8201,70.9962 96.5481,70.9962 L94.5761,70.9962 C94.3041,70.9962 94.0821,70.7752 94.0821,70.5022 L94.0821,42.8102 L97.0411,42.8102 L97.0411,70.5022 Z M90.7301,39.8512 L97.0421,39.8512 L97.0421,36.8932 L90.7301,36.8932 L90.7301,39.8512 Z M87.7711,30.7792 L5.3251,30.7792 L5.3251,26.3412 C5.3251,24.9812 6.4311,23.8762 7.7911,23.8762 L85.3061,23.8762 C86.6651,23.8762 87.7711,24.9822 87.7711,26.3412 L87.7711,30.7792 Z M33.0641,33.7382 L60.0321,33.7382 L58.2491,37.3052 C57.8271,38.1462 56.9841,38.6692 56.0431,38.6692 L37.0541,38.6692 C36.1131,38.6692 35.2691,38.1462 34.8481,37.3062 L33.0641,33.7382 Z M84.2651,74.2192 C83.9741,77.5542 81.2291,80.0692 77.8801,80.0692 L67.9481,80.0692 L67.9481,64.3882 C67.9481,61.9412 65.9581,59.9502 63.5111,59.9502 C61.0641,59.9502 59.0721,61.9412 59.0721,64.3882 L59.0721,80.0692 L50.9871,80.0692 L50.9871,64.3882 C50.9871,61.9412 48.9951,59.9502 46.5481,59.9502 C44.1021,59.9502 42.1111,61.9412 42.1111,64.3882 L42.1111,80.0692 L34.0241,80.0692 L34.0241,64.3882 C34.0241,61.9412 32.0331,59.9502 29.5861,59.9502 C27.1391,59.9502 25.1481,61.9412 25.1481,64.3882 L25.1481,80.0692 L20.6911,80.0692 C21.9461,78.2442 22.6831,76.0362 22.6831,73.6592 C22.6831,67.4052 17.5961,62.3182 11.3421,62.3182 C10.1191,62.3182 8.9431,62.5132 7.8401,62.8732 L5.4611,33.7382 L29.7571,33.7382 L32.2021,38.6292 C33.1261,40.4782 34.9861,41.6272 37.0541,41.6272 L56.0431,41.6272 C58.1111,41.6272 59.9701,40.4782 60.8951,38.6292 L63.3411,33.7382 L87.6361,33.7382 L84.2651,74.2192 Z M64.9901,80.0692 L62.0311,80.0692 L62.0311,64.3882 C62.0311,63.5732 62.6951,62.9092 63.5111,62.9092 C64.3261,62.9092 64.9901,63.5732 64.9901,64.3882 L64.9901,80.0692 Z M48.0281,80.0692 L45.0701,80.0692 L45.0701,64.3882 C45.0701,63.5732 45.7321,62.9092 46.5481,62.9092 C47.3641,62.9092 48.0281,63.5732 48.0281,64.3882 L48.0281,80.0692 Z M31.0661,80.0692 L28.1071,80.0692 L28.1071,64.3882 C28.1071,63.5732 28.7701,62.9092 29.5861,62.9092 C30.4021,62.9092 31.0661,63.5732 31.0661,64.3882 L31.0661,80.0692 Z M11.3411,82.0412 C6.7191,82.0412 2.9581,78.2812 2.9581,73.6592 C2.9581,69.0362 6.7191,65.2762 11.3411,65.2762 C15.9641,65.2762 19.7241,69.0362 19.7241,73.6592 C19.7241,78.2812 15.9641,82.0412 11.3411,82.0412 L11.3411,82.0412 Z M9.4671,20.4242 C9.4671,19.0642 10.5731,17.9582 11.9331,17.9582 L81.1631,17.9582 C82.5231,17.9582 83.6281,19.0652 83.6281,20.4242 L83.6281,20.9172 L9.4671,20.9172 L9.4671,20.4242 Z M98.5211,33.9352 L90.5881,33.9352 C90.5881,33.9352 90.7301,32.2822 90.7301,32.2582 L90.7301,26.3412 C90.7301,23.7922 88.9621,21.6492 86.5871,21.0712 L86.5871,20.4242 C86.5871,17.4332 84.1541,15.0002 81.1631,15.0002 L11.9331,15.0002 C8.9431,15.0002 6.5091,17.4332 6.5091,20.4242 L6.5091,21.0712 C4.1351,21.6492 2.3661,23.7922 2.3661,26.3412 C2.3661,26.3412 2.3691,32.3042 2.3701,32.3272 C2.3711,32.3472 4.9911,64.2662 4.9911,64.2662 C1.9821,66.3082 0.0001,69.7562 0.0001,73.6592 C0.0001,79.9122 5.0871,85.0002 11.3411,85.0002 C13.7061,85.0002 15.9031,84.2712 17.7241,83.0282 L77.8791,83.0282 C82.7751,83.0282 86.7861,79.3512 87.2121,74.4762 L89.8121,42.8102 L91.1241,42.8102 L91.1241,70.5022 C91.1241,72.4062 92.6731,73.9542 94.5761,73.9542 L96.5481,73.9542 C98.4521,73.9542 100.0001,72.4062 100.0001,70.5022 L100.0001,35.4142 C100.0001,34.5972 99.3371,33.9352 98.5211,33.9352 L98.5211,33.9352 Z"
              id="icon_cooler" fill="#3A4B60"></path>
    </g>
</svg>