<?xml version="1.0" encoding="UTF-8"?>
<svg width="100px" height="100px" viewBox="0 0 100 100" version="1.1" xmlns="http://www.w3.org/2000/svg">
    <title>icon / furniture / cradle</title>
    <g id="icon-/-furniture-/-cradle" stroke="none" stroke-width="1" fill="none" fill-rule="evenodd">
        <path d="M97.07,58.7889 L2.929,58.7889 L2.929,5.8589 C2.929,4.2439 4.244,2.9299 5.859,2.9299 C7.474,2.9299 8.789,4.2439 8.789,5.8589 L8.789,51.4649 C8.789,52.2739 9.445,52.9299 10.254,52.9299 L89.746,52.9299 C90.555,52.9299 91.211,52.2739 91.211,51.4649 L91.211,5.8589 C91.211,4.2439 92.525,2.9299 94.14,2.9299 C95.756,2.9299 97.07,4.2439 97.07,5.8589 L97.07,58.7889 Z M71.744,61.7189 C71.762,61.8059 71.787,61.8919 71.822,61.9769 L79.317,80.1149 C70.525,85.4619 60.417,88.2809 50,88.2809 C39.584,88.2809 29.474,85.4619 20.683,80.1149 L28.241,61.8339 C28.257,61.7959 28.263,61.7569 28.275,61.7189 L71.744,61.7189 Z M84.685,77.7649 C84.861,78.1889 85.226,78.5069 85.672,78.6219 C86.117,78.7369 86.591,78.6369 86.951,78.3509 C88.746,76.9219 90.468,75.3859 92.069,73.7849 C93.211,72.6429 95.07,72.6429 96.213,73.7849 C97.355,74.9279 97.355,76.7859 96.213,77.9289 C89.974,84.1659 82.7,88.9959 74.591,92.2839 C66.76,95.4599 58.487,97.0699 50,97.0699 C41.513,97.0699 33.24,95.4599 25.409,92.2849 C17.3,88.9969 10.025,84.1669 3.788,77.9289 C2.646,76.7859 2.646,74.9279 3.788,73.7859 C4.93,72.6429 6.789,72.6429 7.931,73.7859 C9.532,75.3869 11.254,76.9219 13.049,78.3509 C13.41,78.6369 13.882,78.7369 14.328,78.6219 C14.773,78.5069 15.138,78.1889 15.315,77.7649 L21.961,61.7189 L25.118,61.7189 L17.502,80.1409 C17.229,80.7969 17.467,81.5539 18.066,81.9359 C27.568,88.0039 38.611,91.2109 50,91.2109 C61.389,91.2109 72.432,88.0039 81.933,81.9359 C82.533,81.5539 82.771,80.7969 82.499,80.1419 L74.885,61.7189 L78.04,61.7189 L84.685,77.7649 Z M20,38.2809 L20,49.9999 L11.718,49.9999 L11.718,42.6759 C11.718,40.2529 13.69,38.2809 16.113,38.2809 L20,38.2809 Z M16.113,35.3519 C14.466,35.3519 12.944,35.8979 11.718,36.8199 L11.718,20.5079 L20,20.5079 L20,35.3519 L16.113,35.3519 Z M22.929,49.9999 L25.859,49.9999 L25.859,20.5079 L22.929,20.5079 L22.929,49.9999 Z M28.789,49.9999 L37.07,49.9999 L37.07,38.2809 L28.789,38.2809 L28.789,49.9999 Z M28.789,35.3519 L37.07,35.3519 L37.07,20.5079 L28.789,20.5079 L28.789,35.3519 Z M39.999,49.9999 L42.929,49.9999 L42.929,20.5079 L39.999,20.5079 L39.999,49.9999 Z M45.859,49.9999 L54.14,49.9999 L54.14,38.2809 L45.859,38.2809 L45.859,49.9999 Z M45.859,35.3519 L54.14,35.3519 L54.14,20.5079 L45.859,20.5079 L45.859,35.3519 Z M57.07,49.9999 L60,49.9999 L60,20.5079 L57.07,20.5079 L57.07,49.9999 Z M62.93,49.9999 L71.211,49.9999 L71.211,38.2809 L62.93,38.2809 L62.93,49.9999 Z M62.929,35.3519 L71.21,35.3519 L71.21,20.5079 L62.929,20.5079 L62.929,35.3519 Z M74.14,49.9999 L77.07,49.9999 L77.07,20.5079 L74.14,20.5079 L74.14,49.9999 Z M88.281,42.6759 L88.281,49.9999 L80,49.9999 L80,38.2809 L83.886,38.2809 C86.31,38.2809 88.281,40.2529 88.281,42.6759 L88.281,42.6759 Z M83.886,35.3519 L80,35.3519 L80,20.5079 L88.281,20.5079 L88.281,36.8199 C87.056,35.8989 85.535,35.3519 83.886,35.3519 L83.886,35.3519 Z M11.718,17.5779 L88.281,17.5779 L88.281,11.7189 L11.718,11.7189 L11.718,17.5779 Z M100,60.2539 L100,5.8589 C100,2.6289 97.372,-0.0001 94.14,-0.0001 C90.91,-0.0001 88.281,2.6289 88.281,5.8589 L88.281,8.7889 L11.718,8.7889 L11.718,5.8589 C11.718,2.6289 9.091,-0.0001 5.859,-0.0001 C2.629,-0.0001 0,2.6289 0,5.8589 L0,60.2539 C0,61.0629 0.656,61.7189 1.465,61.7189 L18.79,61.7189 L13.365,74.8149 C12.197,73.8209 11.072,72.7829 10.003,71.7139 C8.896,70.6069 7.424,69.9979 5.859,69.9979 C4.295,69.9979 2.823,70.6069 1.716,71.7139 C-0.568,73.9989 -0.568,77.7159 1.716,79.9999 C8.233,86.5169 15.834,91.5629 24.308,94.9999 C32.49,98.3169 41.134,99.9999 50,99.9999 C58.866,99.9999 67.509,98.3169 75.692,94.9999 C84.167,91.5629 91.767,86.5169 98.284,79.9999 C100.568,77.7159 100.568,73.9989 98.284,71.7139 C97.177,70.6069 95.706,69.9979 94.14,69.9979 C92.576,69.9979 91.104,70.6069 89.998,71.7139 C88.928,72.7829 87.802,73.8209 86.635,74.8149 L81.211,61.7189 L98.535,61.7189 C99.344,61.7189 100,61.0629 100,60.2539 L100,60.2539 Z"
              id="Fill-1" fill="#3A4B60"></path>
    </g>
</svg>