<?xml version="1.0" encoding="UTF-8"?>
<svg width="100px" height="100px" viewBox="0 0 100 100" version="1.1" xmlns="http://www.w3.org/2000/svg">
    <title>icon / furniture / dishwasher</title>
    <g id="icon-/-furniture-/-dishwasher" stroke="none" stroke-width="1" fill="none" fill-rule="evenodd">
        <path d="M58.8682,12.8155 C58.4672,12.4155 57.9322,12.2005 57.3742,12.2005 C57.2002,12.2005 57.0232,12.2195 56.8492,12.2625 C56.1212,12.4405 55.5132,13.0475 55.3362,13.7765 L55.3362,13.7775 C55.1582,14.5145 55.3642,15.2685 55.8892,15.7945 C56.4162,16.3205 57.1742,16.5255 57.9082,16.3485 C58.6372,16.1705 59.2442,15.5625 59.4222,14.8345 C59.6012,14.0965 59.3932,13.3415 58.8682,12.8155 L58.8682,12.8155 Z M62.9852,12.9935 C63.4232,14.9585 62.8472,16.9675 61.4442,18.3705 C60.3492,19.4635 58.8892,20.0545 57.3662,20.0545 C56.9352,20.0545 56.4992,20.0075 56.0652,19.9105 C53.9332,19.4345 52.2492,17.7505 51.7732,15.6185 C51.3352,13.6535 51.9112,11.6425 53.3142,10.2395 C54.7172,8.8365 56.7282,8.2595 58.6922,8.7005 C60.8242,9.1755 62.5092,10.8615 62.9852,12.9935 L62.9852,12.9935 Z M21.9922,38.6705 L26.0692,38.6705 L26.0692,40.9835 C26.0692,41.9885 26.8872,42.8045 27.8912,42.8045 C28.8962,42.8045 29.7142,41.9885 29.7142,40.9835 L29.7142,38.6705 L31.9692,38.6705 L31.9692,40.9835 C31.9692,41.9885 32.7862,42.8045 33.7912,42.8045 C34.7952,42.8045 35.6132,41.9885 35.6132,40.9835 L35.6132,38.6705 L65.3862,38.6705 L65.3862,40.9835 C65.3862,41.9885 66.2042,42.8045 67.2082,42.8045 C68.2132,42.8045 69.0302,41.9885 69.0302,40.9835 L69.0302,38.6705 L71.2862,38.6705 L71.2862,40.9835 C71.2862,41.9885 72.1022,42.8045 73.1072,42.8045 C74.1122,42.8045 74.9302,41.9885 74.9302,40.9835 L74.9302,38.6705 L79.0082,38.6705 C80.0132,38.6705 80.8302,37.8525 80.8302,36.8475 C80.8302,35.8425 80.0132,35.0265 79.0082,35.0265 L21.9922,35.0265 C20.9872,35.0265 20.1702,35.8425 20.1702,36.8475 C20.1702,37.8525 20.9872,38.6705 21.9922,38.6705 L21.9922,38.6705 Z M67.2072,11.2635 L67.2062,11.2635 C66.2022,11.2635 65.3852,12.0805 65.3852,13.0855 L65.3852,15.5255 C65.3852,16.5305 66.2032,17.3465 67.2072,17.3465 C68.2122,17.3465 69.0282,16.5305 69.0282,15.5255 L69.0282,13.0855 C69.0282,12.0805 68.2122,11.2635 67.2072,11.2635 L67.2072,11.2635 Z M45.6642,13.7765 C45.4862,13.0465 44.8782,12.4395 44.1492,12.2625 L44.1482,12.2625 C43.9742,12.2195 43.7992,12.2005 43.6252,12.2005 C43.0662,12.2005 42.5332,12.4155 42.1322,12.8155 C41.6062,13.3405 41.3982,14.0945 41.5772,14.8335 C41.7552,15.5605 42.3622,16.1695 43.0912,16.3475 C43.8302,16.5275 44.5822,16.3215 45.1092,15.7945 C45.6362,15.2695 45.8432,14.5145 45.6642,13.7765 L45.6642,13.7765 Z M47.6852,10.2405 C49.0892,11.6425 49.6652,13.6525 49.2262,15.6175 C48.7512,17.7495 47.0662,19.4345 44.9352,19.9105 C44.5022,20.0075 44.0652,20.0545 43.6342,20.0545 C42.1112,20.0545 40.6492,19.4645 39.5562,18.3705 C38.1522,16.9665 37.5772,14.9565 38.0152,12.9915 C38.4922,10.8605 40.1772,9.1755 42.3082,8.7005 C44.2742,8.2605 46.2832,8.8375 47.6852,10.2405 L47.6852,10.2405 Z M73.1082,11.2635 C72.1032,11.2635 71.2862,12.0805 71.2862,13.0855 L71.2862,15.5255 C71.2862,16.5305 72.1032,17.3465 73.1082,17.3465 C74.1132,17.3465 74.9302,16.5305 74.9302,15.5255 L74.9302,13.0855 C74.9302,12.0805 74.1132,11.2635 73.1082,11.2635 L73.1082,11.2635 Z M27.8912,11.2635 C26.8872,11.2635 26.0692,12.0805 26.0692,13.0855 L26.0692,15.5255 C26.0692,16.5305 26.8872,17.3465 27.8912,17.3465 C28.8962,17.3465 29.7142,16.5305 29.7142,15.5255 L29.7142,13.0855 C29.7142,12.0805 28.8962,11.2635 27.8912,11.2635 L27.8912,11.2635 Z M21.9922,11.2635 C20.9872,11.2635 20.1702,12.0805 20.1702,13.0855 L20.1702,15.5255 C20.1702,16.5305 20.9872,17.3465 21.9922,17.3465 C22.9972,17.3465 23.8142,16.5305 23.8142,15.5255 L23.8142,13.0855 C23.8142,12.0805 22.9972,11.2635 21.9922,11.2635 L21.9922,11.2635 Z M33.7912,11.2635 C32.7862,11.2635 31.9692,12.0805 31.9692,13.0855 L31.9692,15.5255 C31.9692,16.5305 32.7862,17.3465 33.7912,17.3465 C34.7952,17.3465 35.6132,16.5305 35.6132,15.5255 L35.6132,13.0855 C35.6132,12.0805 34.7952,11.2635 33.7912,11.2635 L33.7912,11.2635 Z M11.6432,28.6115 L11.6432,88.6335 C11.6432,88.9905 11.9332,89.2805 12.2892,89.2805 L88.7102,89.2805 C89.0652,89.2805 89.3552,88.9905 89.3552,88.6335 L89.3552,28.6115 L11.6432,28.6115 Z M89.3552,24.9665 L89.3552,6.2755 C89.3552,4.8245 88.1752,3.6435 86.7232,3.6435 L14.2762,3.6435 C12.8252,3.6435 11.6442,4.8245 11.6442,6.2755 L11.6442,24.9665 L89.3552,24.9665 Z M14.9422,92.9235 L14.9422,95.7105 C14.9422,96.0655 15.2322,96.3555 15.5892,96.3555 L85.4112,96.3555 C85.7672,96.3555 86.0572,96.0655 86.0572,95.7105 L86.0572,92.9235 L14.9422,92.9235 Z M93.0002,5.8125 L93.0002,89.2785 C93.0002,91.1705 91.5502,92.7315 89.7022,92.9075 L89.7022,96.6735 C89.7022,98.5085 88.2102,100.0005 86.3752,100.0005 L14.6252,100.0005 C12.7902,100.0005 11.2982,98.5085 11.2982,96.6735 L11.2982,92.9075 C9.4502,92.7315 8.0002,91.1705 8.0002,89.2785 L8.0002,5.8065 C8.0002,2.6045 10.6042,0.0005 13.8072,0.0005 L87.1872,0.0005 C90.3922,0.0005 93.0002,2.6075 93.0002,5.8125 L93.0002,5.8125 Z M80.8302,13.0855 L80.8302,15.5255 C80.8302,16.5305 80.0132,17.3465 79.0082,17.3465 C78.0032,17.3465 77.1852,16.5305 77.1852,15.5255 L77.1852,13.0855 C77.1852,12.0805 78.0032,11.2635 79.0082,11.2635 C80.0132,11.2635 80.8302,12.0805 80.8302,13.0855 L80.8302,13.0855 Z"
              id="Fill-1" fill="#3A4B60"></path>
    </g>
</svg>