<?xml version="1.0" encoding="UTF-8"?>
<svg width="100px" height="100px" viewBox="0 0 100 100" version="1.1" xmlns="http://www.w3.org/2000/svg">
    <title>icon / furniture / doll-house</title>
    <g id="icon-/-furniture-/-doll-house" stroke="none" stroke-width="1" fill="none" fill-rule="evenodd">
        <path d="M95.2493,33.253 L85.1393,33.251 C85.1393,33.245 85.1393,33.238 85.1403,33.232 C85.2603,31.968 84.7913,30.688 83.8763,29.806 L61.7843,8.524 L83.4823,8.53 C86.6583,8.531 89.5253,10.535 90.6173,13.517 C90.6173,13.517 96.9363,30.781 96.9503,30.818 C97.3773,31.983 96.4853,33.253 95.2493,33.253 L95.2493,33.253 Z M93.7633,97.061 L76.3523,97.056 L76.3583,72.057 L93.7703,72.061 L93.7633,97.061 Z M93.7703,64.439 L93.7703,69.121 L76.3593,69.117 L76.3603,64.434 L93.7703,64.439 Z M93.7723,61.499 L76.3613,61.494 L76.3673,41.336 C77.6433,41.463 78.9093,40.975 79.8113,40.073 L83.5533,36.189 L93.7793,36.191 L93.7723,61.499 Z M51.0203,14.083 C50.4563,13.541 49.5453,13.54 48.9813,14.083 L24.0713,38.054 C23.5773,38.527 22.7733,38.5 22.2933,38.021 L18.1203,33.684 C17.6443,33.188 17.6553,32.399 18.1443,31.917 C18.1473,31.913 18.1503,31.909 18.1543,31.905 C18.1543,31.905 47.0393,4.109 47.0443,4.105 C48.6733,2.537 51.3373,2.541 52.9623,4.107 C52.9623,4.107 81.8293,31.915 81.8373,31.922 C82.3303,32.397 82.3643,33.173 81.8803,33.688 C81.8773,33.691 77.6663,38.062 77.6513,38.075 C77.1683,38.532 76.3973,38.522 75.9173,38.066 L51.0203,14.083 Z M73.4123,97.055 L60.9183,97.052 L60.9243,73.936 C60.9253,70.921 58.4723,68.467 55.4563,68.467 L44.5153,68.463 C41.5013,68.463 39.0473,70.914 39.0463,73.93 L39.0403,97.046 L26.5453,97.043 L26.5593,39.738 L50.0003,17.182 L73.4273,39.75 L73.4123,97.055 Z M57.9783,97.051 L41.9793,97.047 L41.9853,73.931 C41.9853,72.536 43.1213,71.402 44.5153,71.402 L55.4553,71.406 C56.8503,71.406 57.9853,72.541 57.9843007,73.935 L57.9783,97.051 Z M23.6153,61.481 L6.2043,61.477 L6.2113,36.169 L16.4363,36.172 C16.4363,36.172 20.1753,40.058 20.1763,40.058 C21.0553,40.966 22.3633,41.447 23.6193,41.323 L23.6153,61.481 Z M23.6123,69.104 L6.2013,69.099 L6.2033,64.416 L23.6133,64.42 L23.6123,69.104 Z M23.6053,97.042 L6.1943,97.037 L6.2013,72.038 L23.6113,72.043 L23.6053,97.042 Z M3.0423,30.794 L9.3853,13.496 C10.4783,10.514 13.3463,8.512 16.5213,8.512 L38.2193,8.519 C38.2193,8.519 16.1183,29.786 16.1173,29.788 C15.1813,30.588 14.7303,32.024 14.8533,33.232 C14.8533,33.232 4.7523,33.23 4.7413,33.23 C3.5023,33.23 2.6143,31.959 3.0423,30.794 L3.0423,30.794 Z M99.7113,29.809 L93.3773,12.507 C91.8633,8.371 87.8873,5.592 83.4823,5.591 L58.7323,5.585 C58.7323,5.585 55.0033,1.991 55.0013,1.989 C52.2473,-0.663 47.7603,-0.663 45.0063,1.987 L41.2723,5.58 L16.5223,5.573 C12.1183,5.572 8.1413,8.349 6.6253,12.484 L0.2823,29.783 C-0.6317,32.275 0.7543,35.112 3.2713,35.934 L3.2553,98.507 C3.2553,99.318 3.9123,99.977 4.7253,99.977 L95.2313,100 C96.0443,100 96.7023,99.343 96.7023,98.53 L96.7183,35.958 C97.6873,35.643 98.5453,35.02 99.1433,34.163 C100.0313,32.893 100.2433,31.265 99.7113,29.809 L99.7113,29.809 Z M54.7773,36.407 L54.7733,48.134 L45.2093,48.132 L45.2123,36.405 C45.2133,35.42 46.0153,34.618 47.0003,34.6189991 L52.9903,34.621 C53.9763,34.621 54.7773,35.423 54.7773,36.407 L54.7773,36.407 Z M57.8093,52.641 L57.8093,55.582 L42.1713,55.578 L42.1723,52.637 C42.1733,51.773 42.8753,51.069 43.7403,51.0699989 L56.2423,51.073 C57.1063,51.073 57.8093,51.777 57.8093,52.641 L57.8093,52.641 Z M42.2733,36.404 L42.2703,48.378 C40.5063,48.988 39.2333,50.666 39.2333,52.637 L39.2313,57.047 C39.2313,57.858 39.8903,58.517 40.7013,58.517 L59.2763,58.523 C60.0883,58.523 60.7463,57.864 60.7473,57.053 L60.7483,52.642 C60.7483,50.672 59.4783,48.993 57.7133,48.382 L57.7163,36.408 C57.7173,33.803 55.5983,31.682 52.9913,31.682 L47.0013,31.6799996 C44.3953,31.679 42.2743,33.799 42.2733,36.404 L42.2733,36.404 Z"
              id="icon_dollhouse" fill="#3A4B60"></path>
    </g>
</svg>