<?xml version="1.0" encoding="UTF-8"?>
<svg width="100px" height="100px" viewBox="0 0 100 100" version="1.1" xmlns="http://www.w3.org/2000/svg">
    <title>icon / furniture / drill-press</title>
    <g id="icon-/-furniture-/-drill-press" stroke="none" stroke-width="1" fill="none" fill-rule="evenodd">
        <path d="M58.0356,16.0709 L53.2146,16.0709 C52.3266,16.0709 51.6066,16.7909 51.6066,17.6779 C51.6066,18.5659 52.3266,19.2859 53.2146,19.2859 L58.0356,19.2859 C58.9236,19.2859 59.6426,18.5659 59.6426,17.6779 C59.6426,16.7909 58.9236,16.0709 58.0356,16.0709 L58.0356,16.0709 Z M58.0356,9.6429 L53.2146,9.6429 C52.3266,9.6429 51.6066,10.3619 51.6066,11.2499 C51.6066,12.1369 52.3266,12.8569 53.2146,12.8569 L58.0356,12.8569 C58.9236,12.8569 59.6426,12.1369 59.6426,11.2499 C59.6426,10.3619 58.9236,9.6429 58.0356,9.6429 L58.0356,9.6429 Z M91.7856,20.8929 C91.7846,21.7799 91.0656,22.4989 90.1786,22.4999 L81.9816,22.4999 C81.2366,18.8319 77.9946,16.0709 74.1066,16.0709 C70.2196,16.0709 66.9766,18.8319 66.2316,22.4999 L48.3926,22.4999 L48.3926,6.4279 L83.7496,6.4279 C88.1856,6.4339 91.7806,10.0279 91.7856,14.4649 L91.7856,20.8929 Z M74.1066,28.9279 C73.3626,28.9279 72.6576,28.7589 72.0286,28.4589 L75.2436,25.2439 C75.8606,24.6139 75.8566,23.6039 75.2326,22.9809 C74.6096,22.3569 73.5996,22.3529 72.9716,22.9709 L69.7566,26.1859 C69.4546,25.5559 69.2856,24.8509 69.2856,24.1069 C69.2856,21.4439 71.4436,19.2859 74.1066,19.2859 C76.7686,19.2889 78.9256,21.4459 78.9286,24.1069 C78.9286,26.7699 76.7696,28.9279 74.1066,28.9279 L74.1066,28.9279 Z M75.7146,41.7859 L72.4996,41.7859 L72.4996,31.9819 C73.0186,32.0879 73.5566,32.1429 74.1066,32.1429 C74.6576,32.1419 75.1946,32.0859 75.7146,31.9799 L75.7146,41.7859 Z M74.6256,56.2499 L73.5886,56.2499 L71.6596,51.4279 L76.5546,51.4279 L74.6256,56.2499 Z M69.2856,44.9999 L70.8926,44.9999 L77.3206,44.9999 L78.9286,44.9999 L78.9286,48.2149 L69.2856,48.2149 L69.2856,44.9999 Z M50.2426,50.2439 C49.6146,50.8719 48.5976,50.8719 47.9696,50.2449 C47.3436,49.6169 47.3436,48.5999 47.9696,47.9709 L52.5146,43.4249 L54.7886,45.6989 L50.2426,50.2439 Z M45.1786,24.1069 L32.3216,24.1069 L25.8926,24.1069 L22.6786,24.1069 L22.6786,4.8219 L22.6786,3.2149 L45.1786,3.2149 L45.1786,24.1069 Z M27.5006,80.3569 L30.7146,80.3569 L30.7146,27.3209 L27.5006,27.3209 L27.5006,80.3569 Z M51.6066,77.1419 L56.4286,77.1419 L64.4646,77.1419 L64.4646,80.3569 L51.6066,80.3569 L51.6066,77.1419 Z M54.3936,86.7859 L24.2856,86.7859 L24.2856,83.5709 L49.9996,83.5709 L60.0186,83.5709 L54.3936,86.7859 Z M27.5006,96.7859 L30.7146,96.7859 L30.7146,89.9999 L27.5006,89.9999 L27.5006,96.7859 Z M8.2146,11.2499 C8.2176,8.5889 10.3746,6.4309 13.0356,6.4279 L19.4646,6.4279 L19.4646,22.4999 L8.2146,22.4999 L8.2146,11.2499 Z M83.7496,3.2149 L48.3926,3.2149 C48.3906,1.4399 46.9526,0.0019 45.1786,-0.0001 L22.6786,-0.0001 C20.9036,0.0019 19.4666,1.4399 19.4646,3.2149 L13.0356,3.2149 C8.5996,3.2189 5.0056,6.8139 5.0006,11.2499 L5.0006,22.4999 C5.0016,24.2739 6.4396,25.7129 8.2146,25.7149 L19.8986,25.7149 C20.4556,26.6739 21.4896,27.3199 22.6786,27.3209 L24.2856,27.3209 L24.2856,80.3569 C22.5116,80.3589 21.0736,81.7969 21.0716,83.5709 L21.0716,86.7859 C21.0726,88.5599 22.5116,89.9979 24.2856,89.9999 L24.2856,98.3929 C24.2856,99.2809 25.0056,99.9999 25.8926,99.9999 L32.3206,99.9999 C33.2086,99.9999 33.9286,99.2809 33.9286,98.3929 L33.9286,89.9999 L54.8216,89.9999 C55.1006,89.9999 55.3756,89.9259 55.6186,89.7879 L66.8366,83.3779 C66.8376,83.3779 66.8386,83.3769 66.8396,83.3769 L66.8686,83.3589 C66.8866,83.3489 66.9016,83.3389 66.9196,83.3279 C66.9386,83.3149 66.9596,83.3029 66.9786,83.2899 C67.0176,83.2629 67.0556,83.2359 67.0916,83.2069 C67.0986,83.1989 67.1066,83.1909 67.1156,83.1839 C67.1436,83.1599 67.1726,83.1349 67.1986,83.1089 C67.2116,83.0959 67.2236,83.0839 67.2346,83.0709 C67.2556,83.0489 67.2756,83.0269 67.2956,83.0039 C67.3086,82.9879 67.3216,82.9719 67.3346,82.9559 C67.3506,82.9349 67.3666,82.9139 67.3826,82.8919 C67.3946,82.8739 67.4076,82.8549 67.4206,82.8359 C67.4326,82.8159 67.4456,82.7959 67.4576,82.7749 C67.4706,82.7539 67.4826,82.7319 67.4946,82.7109 L67.5206,82.6549 C67.5446,82.6059 67.5646,82.5559 67.5836,82.5049 C67.5886,82.4899 67.5956,82.4749 67.5996,82.4609 C67.6076,82.4349 67.6146,82.4089 67.6216,82.3839 C67.6276,82.3619 67.6336,82.3409 67.6386,82.3189 C67.6426,82.2959 67.6476,82.2709 67.6516,82.2469 C67.6566,82.2209 67.6606,82.1949 67.6636,82.1689 C67.6666,82.1469 67.6696,82.1259 67.6716,82.1039 C67.6746,82.0709 67.6756,82.0359 67.6766,82.0029 C67.6766,81.9899 67.6786,81.9769 67.6786,81.9649 L67.6786,77.1429 L88.5706,77.1429 C89.4586,77.1429 90.1786,76.4239 90.1786,75.5359 C90.1786,74.6489 89.4586,73.9289 88.5706,73.9289 L66.0706,73.9289 L56.4286,73.9289 L51.6066,73.9289 C49.8326,73.9309 48.3946,75.3689 48.3926,77.1429 L48.3926,80.3579 L33.9286,80.3579 L33.9286,27.3219 L45.1786,27.3219 C46.3666,27.3209 47.4016,26.6749 47.9586,25.7159 L66.2326,25.7159 C66.4406,26.7409 66.8456,27.6949 67.4036,28.5389 L54.7886,41.1549 L54.7876,41.1529 C53.5306,39.9019 51.4986,39.9019 50.2426,41.1539 L45.6956,45.6999 C43.8166,47.5849 43.8166,50.6339 45.6956,52.5189 L45.6966,52.5189 C46.5996,53.4239 47.8266,53.9299 49.1056,53.9279 C50.3846,53.9299 51.6106,53.4239 52.5146,52.5179 L57.0616,47.9709 C58.3136,46.7159 58.3136,44.6829 57.0606,43.4269 L69.2856,31.2019 L69.2856,41.7869 C67.5116,41.7889 66.0736,43.2259 66.0716,45.0009 L66.0716,48.2149 C66.0726,49.5719 66.9166,50.7299 68.1056,51.2009 L71.0076,58.4539 C71.2526,59.0639 71.8436,59.4639 72.5006,59.4649 L72.5006,65.8919 C72.5006,66.7799 73.2206,67.4999 74.1066,67.4999 C74.9946,67.4999 75.7146,66.7799 75.7146,65.8919 L75.7146,59.4649 C76.3716,59.4639 76.9626,59.0639 77.2066,58.4539 L80.1076,51.2009 C81.2986,50.7299 82.1416,49.5719 82.1426,48.2149 L82.1426,44.9999 C82.1406,43.2249 80.7036,41.7879 78.9296,41.7859 L78.9296,30.5309 C80.4696,29.3719 81.5806,27.6729 81.9796,25.7149 L90.1786,25.7149 C92.8406,25.7119 94.9976,23.5539 95.0006,20.8929 L95.0006,14.4649 C94.9926,8.2549 89.9606,3.2209 83.7496,3.2149 L83.7496,3.2149 Z"
              id="icon_drill-press" fill="#3A4B60"></path>
    </g>
</svg>