<?xml version="1.0" encoding="UTF-8"?>
<svg width="100px" height="100px" viewBox="0 0 100 100" version="1.1" xmlns="http://www.w3.org/2000/svg">
    <title>icon / furniture / elliptical-machine</title>
    <g id="icon-/-furniture-/-elliptical-machine" stroke="none" stroke-width="1" fill="none" fill-rule="evenodd">
        <path d="M88.7751,95.1512 C87.6611,96.0102 86.1871,96.4852 84.6231,96.4852 L47.3651,96.4852 L47.3651,82.8732 C47.3651,81.2312 48.0311,79.6172 49.2181,78.4192 L76.3291,57.9342 L76.3971,57.8812 L82.1631,57.8812 C85.4761,57.8812 88.2301,60.3682 88.5741,63.7002 L91.2461,89.5892 C91.4211,91.7422 90.4971,93.8212 88.7751,95.1512 L88.7751,95.1512 Z M81.8141,54.3672 L77.1861,54.3672 L71.6391,26.8602 L71.6191,26.7532 L75.2271,21.6012 L81.7531,54.0582 L81.8141,54.3672 Z M65.9431,28.7252 L65.7961,28.9362 L62.0751,26.3342 L77.3041,4.6052 L77.4521,4.3942 L81.1731,6.9972 L65.9431,28.7252 Z M31.5171,66.0552 C30.8491,66.0552 30.2171,65.7612 29.7851,65.2492 C29.3511,64.7382 29.1671,64.0612 29.2781,63.3952 C29.4591,62.3202 30.4711,61.5092 31.6351,61.5092 L45.2901,61.5092 C46.4541,61.5092 47.4661,62.3202 47.6461,63.3952 C47.7591,64.0612 47.5751,64.7382 47.1411,65.2492 C46.7081,65.7612 46.0761,66.0552 45.4091,66.0552 L31.5171,66.0552 Z M71.0341,41.4992 L73.8161,55.4192 L48.2091,74.7942 L42.7281,69.5712 L45.4091,69.5712 C47.0681,69.5712 48.6521,68.8512 49.7521,67.5952 C50.8521,66.3412 51.3581,64.6692 51.1391,63.0052 C50.7631,60.1482 48.2051,57.9952 45.1861,57.9952 L31.5171,57.9952 C29.8571,57.9952 28.2741,58.7142 27.1731,59.9692 C26.0731,61.2232 25.5681,62.8962 25.7871,64.5602 C26.1621,67.4172 28.7201,69.5712 31.7401,69.5712 L37.6571,69.5712 L45.6641,77.2152 L45.5431,77.3962 C44.4381,79.0352 43.8541,80.9292 43.8541,82.8732 L43.8541,87.9562 L28.4551,84.8472 L28.7901,84.5072 C29.8211,83.4622 30.4121,82.0852 30.4511,80.6312 C30.4921,79.1382 29.9171,77.7012 28.8301,76.5842 C27.6761,75.4002 26.0811,74.7202 24.4481,74.7202 L19.5831,74.7202 L19.5831,58.2182 C19.5831,53.7442 20.9911,50.0932 23.7681,47.3672 C29.5241,41.7192 39.2941,41.5502 40.3531,41.5502 C40.3791,41.5502 40.3981,41.5502 40.4141,41.5522 L71.0341,41.4992 Z M19.5831,78.2362 L24.6711,78.2362 C25.3391,78.2362 25.9711,78.5302 26.4041,79.0422 C26.8381,79.5542 27.0221,80.2302 26.9101,80.8962 C26.7291,81.9712 25.7151,82.7822 24.5521,82.7822 L19.5831,82.7822 L19.5831,78.2362 Z M19.5831,86.6142 L43.6481,91.4922 L43.8541,91.5342 L43.8541,96.4852 L19.5831,96.4852 L19.5831,86.6142 Z M16.0711,82.7822 L10.7811,82.7822 C10.1121,82.7822 9.4811,82.4882 9.0471,81.9752 C8.6141,81.4632 8.4301,80.7882 8.5421,80.1212 C8.7221,79.0462 9.7351,78.2362 10.8991,78.2362 L16.0711,78.2362 L16.0711,82.7822 Z M94.7431,89.3012 L95.0001,89.2802 L94.7401,89.2212 L92.0681,63.3422 C91.8561,60.8872 90.7411,58.6182 88.9271,56.9512 C87.9671,56.0702 86.8611,55.3972 85.6381,54.9532 L85.5021,54.9022 L78.0401,17.7212 L78.0181,17.6142 L85.0561,7.5712 C85.3251,7.1882 85.4281,6.7222 85.3471,6.2612 C85.2651,5.7992 85.0081,5.3982 84.6261,5.1302 L78.0291,0.5162 C77.7341,0.3082 77.3781,0.1992 77.0191,0.1992 C76.9191,0.1992 76.8171,0.2072 76.7161,0.2252 C76.2611,0.3042 75.8481,0.5672 75.5841,0.9462 L59.6281,23.7112 L59.4521,23.9622 L59.2341,23.7452 C58.6571,23.1722 57.9061,22.4222 56.9401,21.4562 C54.5031,19.0212 57.0221,15.3582 57.1311,15.2022 L65.9631,2.7572 C66.2621,2.3372 66.3601,1.8102 66.2331,1.3102 C66.1041,0.8032 65.7701,0.3962 65.2911,0.1622 C64.5321,-0.2068 63.5641,0.0742 63.0371,0.8182 L54.2661,13.1742 C52.7391,15.3052 50.8151,20.2972 54.4581,23.9362 C56.3971,25.8742 57.4721,26.9442 58.0101,27.4772 L58.0581,27.5462 C58.1891,27.8072 58.3841,28.0342 58.6231,28.2002 L65.2191,32.8142 C65.5991,33.0812 66.0701,33.1812 66.5321,33.1032 C66.9841,33.0242 67.3981,32.7592 67.6651,32.3802 L68.8261,30.7132 L70.3401,37.9842 L40.4831,38.0292 L40.4761,38.0292 C38.4191,38.0292 27.9261,38.3622 21.3071,44.8582 C17.8331,48.2682 16.0711,52.7632 16.0711,58.2182 L16.0711,74.7202 L10.7811,74.7202 C9.1211,74.7202 7.5371,75.4402 6.4371,76.6952 C5.3371,77.9502 4.8321,79.6232 5.0491,81.2872 C5.4251,84.1422 7.9841,86.2972 11.0031,86.2972 L16.0711,86.2972 L16.0711,97.6802 C16.0711,98.9592 17.1121,100.0002 18.3901,100.0002 L86.7531,100.0002 C89.9571,100.0002 92.7691,96.1162 92.7991,96.0742 C94.2531,94.0942 94.9441,91.6892 94.7431,89.3012 L94.7431,89.3012 Z M72.2341,78.2202 L58.1191,88.5002 C57.8171,88.7202 57.4601,88.8382 57.0871,88.8382 C56.4181,88.8382 55.8141,88.4632 55.5101,87.8592 C55.1311,87.1092 55.4011,86.1392 56.1361,85.6042 L70.0791,75.4502 C70.4261,75.1982 70.8331,75.0732 71.2281,75.0732 C71.6741,75.0732 72.1071,75.2312 72.4241,75.5452 C72.8021,75.9202 72.9901,76.4132 72.9511,76.9342 C72.9131,77.4482 72.6511,77.9182 72.2341,78.2202 L72.2341,78.2202 Z M84.9621,90.2942 C85.2731,89.9232 85.4161,89.4552 85.3641,88.9732 L82.7881,64.9722 C82.6931,64.0812 81.9441,63.4072 81.0451,63.4072 C80.9821,63.4072 80.9201,63.4102 80.8561,63.4172 L80.8551,63.4182 C80.3891,63.4672 79.9721,63.6972 79.6771,64.0612 C79.3831,64.4262 79.2491,64.8832 79.2981,65.3482 L81.8731,89.3432 C81.9681,90.2382 82.7191,90.9112 83.6171,90.9112 C83.6681,90.9112 83.7181,90.9082 83.7711,90.9052 C84.2371,90.8732 84.6601,90.6552 84.9621,90.2942 L84.9621,90.2942 Z"
              id="Fill-1" fill="#3A4B60"></path>
    </g>
</svg>