<?xml version="1.0" encoding="UTF-8"?>
<svg width="100px" height="100px" viewBox="0 0 100 100" version="1.1" xmlns="http://www.w3.org/2000/svg">
    <title>icon / furniture / entryway-table</title>
    <g id="icon-/-furniture-/-entryway-table" stroke="none" stroke-width="1" fill="none" fill-rule="evenodd">
        <path d="M97.03,27.9931 L2.959,27.9811 L2.969,22.9591 L97.03,22.9591 L97.041,22.9701 L97.03,27.9931 Z M91.29,77.0411 L94.069,77.0411 L94.069,30.9511 L91.29,30.9511 L91.29,77.0411 Z M91.241,80.0001 L94.119,80.0001 C95.725,80.0001 97.028,78.6971 97.028,77.0911 L97.028,30.9511 L97.03,30.9511 C98.671,30.9511 100,29.6221 100,27.9811 L100,22.9701 C100,21.3301 98.671,20.0001 97.03,20.0001 L2.969,20.0001 C1.332,20.0001 0,21.3321 0,22.9701 L0,27.9811 C0,29.6221 1.33,30.9511 2.969,30.9511 L2.971,30.9511 L2.971,77.0911 C2.971,78.6971 4.274,80.0001 5.881,80.0001 L8.759,80.0001 C10.366,80.0001 11.669,78.6971 11.669,77.0911 L11.669,30.9511 L88.331,30.9511 L88.331,77.0911 C88.331,78.6971 89.634,80.0001 91.241,80.0001 L91.241,80.0001 Z M5.931,77.0411 L8.71,77.0411 L8.71,30.9511 L5.931,30.9511 L5.931,77.0411 Z"
              id="icon_entryway-table" fill="#3A4B60"></path>
    </g>
</svg>