<?xml version="1.0" encoding="UTF-8"?>
<svg width="100px" height="100px" viewBox="0 0 100 100" version="1.1" xmlns="http://www.w3.org/2000/svg">
    <title>icon / furniture / fan</title>
    <g id="icon-/-furniture-/-fan" stroke="none" stroke-width="1" fill="none" fill-rule="evenodd">
        <path d="M55.735,90.4416 C55.735,89.3846 54.88,88.5296 53.824,88.5296 L46.176,88.5296 C45.121,88.5296 44.264,89.3846 44.264,90.4416 C44.264,91.4976 45.121,92.3526 46.176,92.3526 L53.824,92.3526 C54.88,92.3526 55.735,91.4976 55.735,90.4416 L55.735,90.4416 Z M42.594,34.4126 C43.059,36.2176 44.17,37.7856 45.696,38.8236 C43.901,40.8546 41.3,42.0586 38.529,42.0586 C33.914,42.0586 30.051,38.7696 29.163,34.4126 L42.594,34.4126 Z M48.089,11.6626 L48.089,25.0936 C46.283,25.5596 44.714,26.6706 43.676,28.1966 C41.645,26.4016 40.441,23.8006 40.441,21.0296 C40.441,16.4136 43.731,12.5506 48.089,11.6626 L48.089,11.6626 Z M61.47,22.9416 C66.087,22.9416 69.95,26.2306 70.838,30.5876 L57.405,30.5876 C56.94,28.7826 55.83,27.2146 54.303,26.1756 C56.099,24.1446 58.699,22.9416 61.47,22.9416 L61.47,22.9416 Z M51.912,53.3376 L51.912,39.9056 C53.717,39.4406 55.285,38.3306 56.324,36.8036 C58.355,38.5996 59.559,41.2006 59.559,43.9706 C59.559,48.5866 56.269,52.4486 51.912,53.3376 L51.912,53.3376 Z M50,28.6766 C52.119,28.6766 53.824,30.3896 53.824,32.5006 C53.824,34.6186 52.11,36.3236 50,36.3236 C47.881,36.3236 46.176,34.6106 46.176,32.5006 C46.176,30.3816 47.889,28.6766 50,28.6766 L50,28.6766 Z M38.529,45.8816 C42.172,45.8816 45.603,44.3986 48.089,41.8656 L48.089,55.4416 C48.089,56.4976 48.944,57.3526 50,57.3526 C57.379,57.3526 63.382,51.3496 63.382,43.9706 C63.382,40.3286 61.898,36.8966 59.365,34.4126 L72.941,34.4126 C73.997,34.4126 74.853,33.5556 74.853,32.5006 C74.853,25.1216 68.849,19.1176 61.47,19.1176 C57.829,19.1176 54.398,20.6016 51.912,23.1346 L51.912,9.5586 C51.912,8.5036 51.056,7.6466 50,7.6466 C42.621,7.6466 36.618,13.6506 36.618,21.0296 C36.618,24.6706 38.101,28.1026 40.634,30.5876 L27.059,30.5876 C26.003,30.5876 25.147,31.4446 25.147,32.5006 C25.147,39.8786 31.15,45.8816 38.529,45.8816 L38.529,45.8816 Z M49.808,61.1716 C34.118,61.0686 21.324,48.3836 21.324,32.5006 C21.324,16.6876 34.187,3.8236 50,3.8236 C65.812,3.8236 78.676,16.6876 78.676,32.5006 C78.676,48.4836 65.697,61.2756 49.808,61.1716 L49.808,61.1716 Z M65.294,88.5296 C67.406,88.5296 69.118,90.2416 69.118,92.3526 L69.118,94.2646 C69.118,95.3196 68.26,96.1766 67.206,96.1766 L32.794,96.1766 C31.74,96.1766 30.882,95.3196 30.882,94.2646 L30.882,92.3526 C30.882,90.2456 32.597,88.5296 34.706,88.5296 C38.569,88.5296 45.05,84.2236 45.05,69.5716 C45.05,67.6546 44.937,65.9136 44.813,64.5836 C46.522,64.8586 48.257,65.0006 50,65.0006 C51.742,65.0006 53.476,64.8586 55.184,64.5836 C55.068,65.8296 54.98,67.4326 54.97,69.2066 C54.924,77.5086 56.998,88.5296 65.294,88.5296 L65.294,88.5296 Z M82.5,32.5006 C82.5,14.5796 67.921,0.0006 50,0.0006 C32.08,0.0006 17.5,14.5796 17.5,32.5006 C17.5,47.4376 27.545,59.7786 40.875,63.6956 C41.021,64.9396 41.226,67.1166 41.226,69.5716 C41.226,75.5096 40.095,84.7066 34.706,84.7066 C30.49,84.7066 27.058,88.1366 27.058,92.3526 L27.058,94.2646 C27.058,97.4276 29.631,100.0006 32.794,100.0006 L67.206,100.0006 C70.369,100.0006 72.941,97.4276 72.941,94.2646 L72.941,92.3526 C72.941,88.1286 69.519,84.7066 65.294,84.7066 C59.638,84.7066 58.74,74.8616 58.773,69.2066 C58.786,67.0946 58.942,65.1376 59.118,63.6966 C72.401,59.7976 82.5,47.4946 82.5,32.5006 L82.5,32.5006 Z"
              id="icon_fan" fill="#3A4B60"></path>
    </g>
</svg>