<?xml version="1.0" encoding="UTF-8"?>
<svg width="100px" height="100px" viewBox="0 0 100 100" version="1.1" xmlns="http://www.w3.org/2000/svg">
    <title>icon / furniture / fax-machine</title>
    <g id="icon-/-furniture-/-fax-machine" stroke="none" stroke-width="1" fill="none" fill-rule="evenodd">
        <path d="M66.623,67.2053 C66.623,66.3713 65.944,65.6923 65.109,65.6923 L62.088,65.6923 C61.253,65.6923 60.574,66.3713 60.574,67.2053 C60.574,68.0403 61.253,68.7203 62.088,68.7203 L65.109,68.7203 C65.944,68.7203 66.623,68.0403 66.623,67.2053 L66.623,67.2053 Z M56.915,67.2053 C56.915,64.3533 59.235,62.0333 62.088,62.0333 L65.109,62.0333 C67.962,62.0333 70.282,64.3533 70.282,67.2053 C70.282,70.0583 67.962,72.3793 65.109,72.3793 L62.088,72.3793 C59.235,72.3793 56.915,70.0583 56.915,67.2053 L56.915,67.2053 Z M66.623,54.4213 C66.623,53.5863 65.944,52.9073 65.109,52.9073 L62.088,52.9073 C61.253,52.9073 60.574,53.5863 60.574,54.4213 C60.574,55.2563 61.253,55.9353 62.088,55.9353 L65.109,55.9353 C65.944,55.9353 66.623,55.2563 66.623,54.4213 L66.623,54.4213 Z M56.915,54.4213 C56.915,51.5693 59.235,49.2493 62.088,49.2493 L65.109,49.2493 C67.962,49.2493 70.282,51.5693 70.282,54.4213 C70.282,57.2733 67.962,59.5943 65.109,59.5943 L62.088,59.5943 C59.235,59.5943 56.915,57.2733 56.915,54.4213 L56.915,54.4213 Z M78.703,81.5053 L81.725,81.5053 C82.56,81.5053 83.239,80.8253 83.239,79.9903 C83.239,79.1553 82.56,78.4763 81.725,78.4763 L78.703,78.4763 C77.869,78.4763 77.19,79.1553 77.19,79.9903 C77.19,80.8253 77.869,81.5053 78.703,81.5053 L78.703,81.5053 Z M73.53,79.9903 C73.53,77.1393 75.851,74.8183 78.703,74.8183 L81.725,74.8183 C84.577,74.8183 86.897,77.1393 86.897,79.9903 C86.897,82.8433 84.577,85.1633 81.725,85.1633 L78.703,85.1633 C75.851,85.1633 73.53,82.8433 73.53,79.9903 L73.53,79.9903 Z M87.32,6.2113 C87.262,4.7823 86.086,3.6583 84.644,3.6583 C83.165,3.6583 81.962,4.8613 81.962,6.3403 L81.962,18.7233 L85.938,18.7233 C86.397,18.7233 86.861,18.7633 87.32,18.8413 L87.32,6.2113 Z M83.238,33.4773 C83.238,33.3863 83.164,33.3113 83.072,33.3113 L81.962,33.3113 L81.962,40.3823 L83.072,40.3823 C83.164,40.3823 83.238,40.3083 83.238,40.2173 L83.238,33.4773 Z M44.125,33.3113 C44.033,33.3113 43.959,33.3863 43.959,33.4773 L43.959,40.2173 C43.959,40.3083 44.033,40.3823 44.125,40.3823 L45.523,40.3823 L45.523,33.3113 L44.125,33.3113 Z M8.22,26.2533 L8.22,22.3833 C5.702,22.4013 3.659,24.4553 3.659,26.9773 L3.659,91.7443 C3.659,94.2783 5.721,96.3403 8.254,96.3403 L85.938,96.3403 C88.473,96.3403 90.534,94.2783 90.534,91.7443 L90.534,26.9773 C90.534,24.4443 88.473,22.3833 85.938,22.3833 L81.962,22.3833 L81.962,29.6523 L83.072,29.6523 C85.182,29.6523 86.897,31.3683 86.897,33.4773 L86.897,40.2173 C86.897,42.3263 85.182,44.0423 83.072,44.0423 L44.125,44.0423 C42.016,44.0423 40.3,42.3263 40.3,40.2173 L40.3,33.4773 C40.3,31.3683 42.016,29.6523 44.125,29.6523 L45.523,29.6523 L45.523,22.3833 L35.159,22.3833 L35.159,26.2533 C35.159,28.3603 34.692,29.5163 34.24,30.6323 C33.861,31.5693 33.504,32.4523 33.504,33.8663 L33.504,64.3383 C33.504,65.7393 33.862,66.6303 34.241,67.5733 C34.693,68.7043 35.159,69.8683 35.159,71.9503 L35.159,80.1843 C35.159,84.8803 31.339,88.7003 26.643,88.7003 L16.737,88.7003 C12.041,88.7003 8.22,84.8803 8.22,80.1843 L8.22,71.9503 C8.22,69.8493 8.685,68.6953 9.135,67.5803 C9.518,66.6373 9.875,65.7573 9.875,64.3383 L9.875,33.8663 C9.875,32.4663 9.518,31.5753 9.14,30.6333 C8.686,29.5013 8.22,28.3383 8.22,26.2533 L8.22,26.2533 Z M12.615,68.7183 C12.236,69.6543 11.879,70.5373 11.879,71.9503 L11.879,80.1843 C11.879,82.8623 14.059,85.0423 16.737,85.0423 L26.643,85.0423 C29.321,85.0423 31.5,82.8623 31.5,80.1843 L31.5,71.9503 C31.5,70.5513 31.144,69.6613 30.766,68.7203 C30.311,67.5893 29.845,66.4253 29.845,64.3383 L29.845,33.8663 C29.845,31.7623 30.311,30.6073 30.763,29.4913 C31.144,28.5503 31.5,27.6683 31.5,26.2533 L31.5,18.0203 C31.5,15.3423 29.321,13.1633 26.643,13.1633 L16.737,13.1633 C14.059,13.1633 11.879,15.3423 11.879,18.0203 L11.879,26.2533 C11.879,27.6553 12.237,28.5463 12.616,29.4893 L12.5,29.5363 L12.619,29.4983 C13.069,30.6233 13.534,31.7863 13.534,33.8663 L13.534,64.3383 C13.534,66.4453 13.066,67.6013 12.615,68.7183 L12.615,68.7183 Z M96.247,16.9563 L90.978,16.9563 L90.978,20.4463 C92.615,21.7123 93.739,23.5893 94.078,25.6193 C95.396,25.3823 96.341,24.2953 96.341,22.9933 L96.341,17.0503 C96.341,16.9983 96.299,16.9563 96.247,16.9563 L96.247,16.9563 Z M49.182,40.3823 L78.304,40.3823 L78.304,6.3403 C78.304,5.4183 78.509,4.4953 78.898,3.6583 L52.162,3.6583 C50.519,3.6583 49.182,4.9953 49.182,6.6393 L49.182,40.3823 Z M100,17.0503 L100,22.9933 C100,26.2793 97.513,28.9703 94.194,29.2973 L94.194,91.7443 C94.194,96.2973 90.491,100.0003 85.938,100.0003 L8.254,100.0003 C3.703,100.0003 0,96.2973 0,91.7443 L0,26.9773 C0,24.7763 0.859,22.7053 2.42,21.1433 C3.973,19.5913 6.031,18.7323 8.22,18.7243 L8.22,18.0203 C8.22,13.3243 12.041,9.5043 16.737,9.5043 L26.643,9.5043 C31.339,9.5043 35.159,13.3243 35.159,18.0203 L35.159,18.7243 L45.523,18.7243 L45.523,6.6393 C45.523,2.9783 48.502,0.0003 52.162,0.0003 L84.644,0.0003 C88.078,0.0003 90.861,2.6883 90.978,6.1213 L90.978,13.2973 L96.247,13.2973 C98.316,13.2973 100,14.9803 100,17.0503 L100,17.0503 Z M66.623,79.9903 C66.623,79.1553 65.944,78.4763 65.109,78.4763 L62.088,78.4763 C61.253,78.4763 60.574,79.1553 60.574,79.9903 C60.574,80.8253 61.253,81.5053 62.088,81.5053 L65.109,81.5053 C65.944,81.5053 66.623,80.8253 66.623,79.9903 L66.623,79.9903 Z M56.915,79.9903 C56.915,77.1393 59.235,74.8183 62.088,74.8183 L65.109,74.8183 C67.962,74.8183 70.282,77.1393 70.282,79.9903 C70.282,82.8433 67.962,85.1633 65.109,85.1633 L62.088,85.1633 C59.235,85.1633 56.915,82.8433 56.915,79.9903 L56.915,79.9903 Z M78.703,68.7203 L81.725,68.7203 C82.56,68.7203 83.239,68.0403 83.239,67.2053 C83.239,66.3713 82.56,65.6923 81.725,65.6923 L78.703,65.6923 C77.869,65.6923 77.19,66.3713 77.19,67.2053 C77.19,68.0403 77.869,68.7203 78.703,68.7203 L78.703,68.7203 Z M73.53,67.2053 C73.53,64.3533 75.851,62.0333 78.703,62.0333 L81.725,62.0333 C84.577,62.0333 86.897,64.3533 86.897,67.2053 C86.897,70.0583 84.577,72.3793 81.725,72.3793 L78.703,72.3793 C75.851,72.3793 73.53,70.0583 73.53,67.2053 L73.53,67.2053 Z M45.474,55.9353 L48.494,55.9353 C49.329,55.9353 50.008,55.2563 50.008,54.4213 C50.008,53.5863 49.329,52.9073 48.494,52.9073 L45.474,52.9073 C44.639,52.9073 43.959,53.5863 43.959,54.4213 C43.959,55.2563 44.639,55.9353 45.474,55.9353 L45.474,55.9353 Z M40.3,54.4213 C40.3,51.5693 42.621,49.2493 45.474,49.2493 L48.494,49.2493 C51.347,49.2493 53.667,51.5693 53.667,54.4213 C53.667,57.2733 51.347,59.5943 48.494,59.5943 L45.474,59.5943 C42.621,59.5943 40.3,57.2733 40.3,54.4213 L40.3,54.4213 Z M45.474,81.5053 L48.494,81.5053 C49.329,81.5053 50.008,80.8253 50.008,79.9903 C50.008,79.1553 49.329,78.4763 48.494,78.4763 L45.474,78.4763 C44.639,78.4763 43.959,79.1553 43.959,79.9903 C43.959,80.8253 44.639,81.5053 45.474,81.5053 L45.474,81.5053 Z M40.3,79.9903 C40.3,77.1393 42.621,74.8183 45.474,74.8183 L48.494,74.8183 C51.347,74.8183 53.667,77.1393 53.667,79.9903 C53.667,82.8433 51.347,85.1633 48.494,85.1633 L45.474,85.1633 C42.621,85.1633 40.3,82.8433 40.3,79.9903 L40.3,79.9903 Z M45.474,68.7203 L48.494,68.7203 C49.329,68.7203 50.008,68.0403 50.008,67.2053 C50.008,66.3713 49.329,65.6923 48.494,65.6923 L45.474,65.6923 C44.639,65.6923 43.959,66.3713 43.959,67.2053 C43.959,68.0403 44.639,68.7203 45.474,68.7203 L45.474,68.7203 Z M40.3,67.2053 C40.3,64.3533 42.621,62.0333 45.474,62.0333 L48.494,62.0333 C51.347,62.0333 53.667,64.3533 53.667,67.2053 C53.667,70.0583 51.347,72.3793 48.494,72.3793 L45.474,72.3793 C42.621,72.3793 40.3,70.0583 40.3,67.2053 L40.3,67.2053 Z M71.519,9.3863 L56.704,9.3863 C55.695,9.3863 54.875,10.2063 54.875,11.2153 C54.875,12.2243 55.695,13.0443 56.704,13.0443 L71.519,13.0443 C72.527,13.0443 73.348,12.2243 73.348,11.2153 C73.348,10.2063 72.527,9.3863 71.519,9.3863 L71.519,9.3863 Z M71.519,19.9203 L56.704,19.9203 C55.695,19.9203 54.875,20.7403 54.875,21.7493 C54.875,22.7583 55.695,23.5793 56.704,23.5793 L71.519,23.5793 C72.527,23.5793 73.348,22.7583 73.348,21.7493 C73.348,20.7403 72.527,19.9203 71.519,19.9203 L71.519,19.9203 Z M78.703,55.9353 L81.725,55.9353 C82.56,55.9353 83.239,55.2563 83.239,54.4213 C83.239,53.5863 82.56,52.9073 81.725,52.9073 L78.703,52.9073 C77.869,52.9073 77.19,53.5863 77.19,54.4213 C77.19,55.2563 77.869,55.9353 78.703,55.9353 L78.703,55.9353 Z M73.53,54.4213 C73.53,51.5693 75.851,49.2493 78.703,49.2493 L81.725,49.2493 C84.577,49.2493 86.897,51.5693 86.897,54.4213 C86.897,57.2733 84.577,59.5943 81.725,59.5943 L78.703,59.5943 C75.851,59.5943 73.53,57.2733 73.53,54.4213 L73.53,54.4213 Z M73.348,32.2833 C73.348,33.2933 72.527,34.1143 71.519,34.1143 L56.704,34.1143 C55.695,34.1143 54.875,33.2933 54.875,32.2833 C54.875,31.2743 55.695,30.4543 56.704,30.4543 L71.519,30.4543 C72.527,30.4543 73.348,31.2743 73.348,32.2833 L73.348,32.2833 Z"
              id="icon_fax-machine" fill="#3A4B60"></path>
    </g>
</svg>