<?xml version="1.0" encoding="UTF-8"?>
<svg width="100px" height="100px" viewBox="0 0 100 100" version="1.1" xmlns="http://www.w3.org/2000/svg">
    <title>icon / furniture / file-cabinet</title>
    <g id="icon-/-furniture-/-file-cabinet" stroke="none" stroke-width="1" fill="none" fill-rule="evenodd">
        <path d="M22.929,97.07 L77.07,97.07 L77.07,93.686 L22.929,93.686 L22.929,97.07 Z M22.929,90.756 L77.07,90.756 L77.07,2.929 L22.929,2.929 L22.929,90.756 Z M78.535,0 L21.465,0 C20.656,0 20,0.656 20,1.464 L20,98.535 C20,99.344 20.656,100 21.465,100 L78.535,100 C79.344,100 80,99.344 80,98.535 L80,1.464 C80,0.656 79.344,0 78.535,0 L78.535,0 Z M29.243,84.443 L70.757,84.443 L70.757,51.464 L29.243,51.464 L29.243,84.443 Z M27.778,87.373 L72.221,87.373 C73.031,87.373 73.686,86.717 73.686,85.908 L73.686,50 C73.686,49.191 73.031,48.535 72.221,48.535 L27.778,48.535 C26.969,48.535 26.313,49.191 26.313,50 L26.313,85.908 C26.313,86.717 26.969,87.373 27.778,87.373 L27.778,87.373 Z M29.243,42.222 L70.757,42.222 L70.757,9.243 L29.243,9.243 L29.243,42.222 Z M27.778,45.151 L72.221,45.151 C73.031,45.151 73.686,44.496 73.686,43.686 L73.686,7.778 C73.686,6.969 73.031,6.313 72.221,6.313 L27.778,6.313 C26.969,6.313 26.313,6.969 26.313,7.778 L26.313,43.686 C26.313,44.496 26.969,45.151 27.778,45.151 L27.778,45.151 Z M55.385,61.162 L44.615,61.162 L43.91,57.778 L56.091,57.778 L55.385,61.162 Z M57.891,54.848 L42.108,54.848 C41.667,54.848 41.25,55.047 40.971,55.389 C40.693,55.731 40.584,56.18 40.674,56.612 L41.989,62.925 C42.131,63.605 42.729,64.091 43.424,64.091 L56.577,64.091 C57.27,64.091 57.869,63.605 58.01,62.925 L59.326,56.612 C59.416,56.18 59.306,55.731 59.028,55.389 C58.75,55.047 58.333,54.848 57.891,54.848 L57.891,54.848 Z M55.385,18.941 L44.615,18.941 L43.91,15.557 L56.091,15.557 L55.385,18.941 Z M57.891,12.627 L42.108,12.627 C41.667,12.627 41.25,12.826 40.971,13.168 C40.693,13.509 40.584,13.959 40.674,14.39 L41.989,20.704 C42.131,21.383 42.729,21.87 43.424,21.87 L56.577,21.87 C57.27,21.87 57.869,21.383 58.01,20.704 L59.326,14.39 C59.416,13.959 59.306,13.509 59.028,13.168 C58.75,12.826 58.333,12.627 57.891,12.627 L57.891,12.627 Z M50,67.362 C50.872,67.362 51.578,68.069 51.578,68.941 C51.578,69.812 50.872,70.519 50,70.519 C49.129,70.519 48.422,69.812 48.422,68.941 C48.422,68.069 49.129,67.362 50,67.362 L50,67.362 Z M50,25.14 C50.872,25.14 51.578,25.847 51.578,26.719 C51.578,27.59 50.872,28.297 50,28.297 C49.129,28.297 48.422,27.59 48.422,26.719 C48.422,25.847 49.129,25.14 50,25.14 L50,25.14 Z"
              id="icon_file-cabinet" fill="#3A4B60"></path>
    </g>
</svg>