<?xml version="1.0" encoding="UTF-8"?>
<svg width="100px" height="100px" viewBox="0 0 100 100" version="1.1" xmlns="http://www.w3.org/2000/svg">
    <title>icon / furniture / fire-pit_portable</title>
    <g id="icon-/-furniture-/-fire-pit_portable" stroke="none" stroke-width="1" fill="none" fill-rule="evenodd">
        <path d="M51.2398,24.3923 C50.7428,24.2433 50.2128,24.3533 49.7928,24.7203 L49.7338,24.7933 C49.6438,24.8863 49.5768,24.9743 49.5368,25.0523 C49.3958,25.2883 49.3228,25.5573 49.3268,25.8313 C49.3328,26.2163 49.3438,26.6043 49.3558,26.9943 C49.4088,28.7373 49.4628,30.5353 48.9188,32.1383 C47.4698,30.8713 46.1988,30.8033 45.9458,30.8033 C45.1238,30.8033 44.4548,31.4723 44.4548,32.2943 C44.4548,34.0083 43.9498,35.4403 43.4038,36.7323 C43.3138,36.9483 43.2168,37.1633 43.1118,37.3933 C42.8228,38.0343 42.5228,38.6953 42.3588,39.4083 C42.1258,40.4263 42.0218,41.2333 42.0218,42.0223 C42.0218,42.9053 42.1918,43.8043 42.5168,44.6643 C39.0338,42.2323 36.9008,38.1863 36.9008,33.9173 C36.9008,31.1013 37.5528,29.0763 38.2458,26.9313 C38.9848,24.6483 39.7468,22.2923 39.6958,18.9983 C40.8448,20.4743 42.0218,22.7383 42.0218,25.8103 C42.0218,26.4043 42.3748,26.9423 42.9218,27.1813 C43.4688,27.4163 44.1018,27.3063 44.5358,26.9013 C45.1758,26.3003 46.5868,23.9553 45.8648,15.1503 C45.5448,11.2393 46.5338,7.9883 48.8028,5.4883 C49.0528,5.2133 49.3138,4.9543 49.5848,4.7073 C49.0358,9.5193 50.3068,13.5383 51.5028,16.1053 C53.2178,19.7903 55.4078,21.9813 55.4278,22.0013 C55.7868,22.3603 56.3008,22.5083 56.8008,22.4053 C57.2988,22.2983 57.7028,21.9493 57.8818,21.4713 C58.6398,19.4503 59.6518,17.8443 60.8958,16.6913 C60.6178,19.4393 61.2308,22.2553 61.8798,25.2343 C62.4788,27.9863 63.0978,30.8313 63.0978,33.9173 C63.0978,38.1473 60.9898,42.1743 57.5478,44.6153 C57.8338,43.7883 57.9768,42.9193 57.9768,42.0223 C57.9768,36.7083 56.3488,32.3343 54.9828,29.6003 C53.5328,26.7023 52.0938,25.0103 51.9328,24.8283 C51.8088,24.6853 51.6698,24.5953 51.5508,24.5283 L51.2398,24.3923 Z M45.5438,39.3003 L45.5538,39.2613 C46.1408,37.9453 46.8478,36.2233 46.9258,35.9713 C47.0558,35.5383 47.1598,35.1093 47.2398,34.6643 C47.4848,34.9193 47.7208,35.2163 47.9468,35.5553 C48.1948,35.9283 48.5938,36.1673 49.0368,36.2103 C49.4768,36.2643 49.9188,36.1093 50.2478,35.7823 C50.4578,35.5693 51.5328,34.3763 52.1158,31.7833 C52.1738,31.4683 52.2228,31.1613 52.2678,30.8613 C53.5858,33.4663 54.9918,37.3443 54.9918,42.0223 C54.9918,44.7753 52.7528,47.0153 49.9998,47.0153 C47.1428,47.0153 45.0088,44.3793 45.0088,42.0223 C45.0088,40.8063 45.2758,39.9733 45.5438,39.3003 L45.5438,39.3003 Z M64.8008,24.6063 L64.5538,24.6433 L64.7968,24.5903 L64.8058,24.6063 L64.7938,24.5793 C63.9348,20.6383 63.1948,17.2353 64.6038,14.2943 C64.8468,13.7863 64.7848,13.1903 64.4408,12.7423 C64.0938,12.2893 63.5358,12.0763 62.9828,12.1833 C62.8128,12.2153 58.8858,13.0073 56.1198,18.1343 C55.3868,17.1033 54.7448,15.9973 54.2088,14.8453 C52.2388,10.6163 51.8988,6.2673 53.1938,1.9193 C53.3578,1.3753 53.1928,0.7763 52.7758,0.3923 C52.3568,0.0093 51.7488,-0.1047 51.2188,0.1023 C50.9738,0.2003 48.7608,1.1203 46.6488,3.4203 C44.6628,5.5803 42.3998,9.4113 42.8898,15.3943 C42.9838,16.5453 43.0438,17.6303 43.0668,18.6323 C42.6978,18.0093 42.2778,17.4143 41.8128,16.8533 C40.2058,14.9133 38.5628,13.9833 38.5478,13.9743 C38.0438,13.6883 37.4148,13.7213 36.9448,14.0563 C36.4738,14.3913 36.2378,14.9753 36.3438,15.5443 C37.2318,20.3533 36.3438,23.1073 35.4008,26.0233 C34.6718,28.2863 33.9158,30.6243 33.9158,33.9173 C33.9158,42.7853 41.1318,49.9993 49.9998,49.9993 C58.8688,49.9993 66.0838,42.7853 66.0838,33.9173 C66.0838,30.5173 65.4008,27.3763 64.8008,24.6063 L64.8008,24.6063 Z M73.4358,81.2283 C70.7818,83.0503 67.8038,84.5453 64.5848,85.6723 C61.3608,86.7993 57.9388,87.5403 54.4148,87.8773 C53.0688,88.0063 51.6348,88.0613 49.9998,88.0673 L49.9508,88.0673 C48.3448,88.0673 46.9178,88.0043 45.5848,87.8773 C42.0608,87.5413 38.6398,86.7993 35.4148,85.6723 C32.1958,84.5453 29.2178,83.0503 26.5638,81.2283 C23.7928,79.3243 21.3938,77.0703 19.4308,74.5293 C17.1368,71.5533 15.4008,68.0083 14.4118,64.2783 C13.8228,62.0583 13.4648,59.7063 13.3448,57.2913 L13.3368,57.1083 L86.6628,57.1083 L86.6528,57.2913 C86.5338,59.7123 86.1758,62.0633 85.5868,64.2783 C84.5968,68.0083 82.8618,71.5533 80.5668,74.5293 C78.6068,77.0703 76.2078,79.3243 73.4358,81.2283 L73.4358,81.2283 Z M71.5508,96.3073 C71.0918,96.5583 70.5938,96.6773 70.1038,96.6773 C69.0348,96.6773 67.9968,96.1103 67.4438,95.1103 L64.2408,89.2763 L64.4438,89.2113 C66.2768,88.6313 68.0678,87.9303 69.7678,87.1313 L69.8828,87.1143 L69.9758,87.1593 L72.7468,92.1993 C73.5478,93.6593 73.0108,95.5013 71.5508,96.3073 L71.5508,96.3073 Z M32.6008,95.1103 C32.0508,96.1103 31.0098,96.6773 29.9408,96.6773 C29.4508,96.6773 28.9538,96.5583 28.4948,96.3073 C27.0358,95.5013 26.4988,93.6593 27.2988,92.1993 L30.0228,87.1593 L30.1958,87.1143 L30.2308,87.1313 C31.9308,87.9303 33.7218,88.6313 35.5538,89.2113 L35.7558,89.2763 L32.6008,95.1103 Z M87.7028,68.5583 C89.0648,65.0513 89.8358,61.1613 89.9948,56.9933 C90.0218,56.1423 89.9588,55.1773 89.2688,54.4763 C88.5658,53.7593 87.6708,53.7693 87.0768,53.7813 C87.0008,53.7833 86.9198,53.7843 86.8358,53.7843 L13.1648,53.7843 C13.0788,53.7843 12.9998,53.7833 12.9218,53.7813 C12.3348,53.7793 11.4318,53.7593 10.7288,54.4763 C10.0388,55.1793 9.9758,56.1433 10.0058,56.9943 C10.1638,61.1603 10.9348,65.0503 12.2958,68.5583 C13.6608,72.0753 15.6228,75.3073 18.1238,78.1673 C20.5148,80.8993 23.3978,83.2833 26.6938,85.2513 L27.1338,85.5123 L27.0528,85.6603 L24.3858,90.5973 C22.7048,93.6633 23.8308,97.5323 26.8938,99.2203 C27.8248,99.7303 28.8758,99.9993 29.9338,99.9993 C32.2588,99.9993 34.3948,98.7413 35.5118,96.7133 L39.0588,90.1693 L39.1878,90.1993 C46.2058,91.8043 53.7958,91.8043 60.8098,90.1993 L60.9388,90.1693 L64.5328,96.7133 C65.6508,98.7413 67.7898,99.9993 70.1118,99.9993 C71.1708,99.9993 72.2208,99.7303 73.1528,99.2203 C76.2158,97.5323 77.3418,93.6633 75.6598,90.5983 L72.8638,85.5123 L73.0108,85.4253 C73.1088,85.3693 73.2078,85.3113 73.3048,85.2523 C76.6018,83.2823 79.4858,80.8983 81.8758,78.1673 C84.3758,75.3093 86.3368,72.0763 87.7028,68.5583 L87.7028,68.5583 Z"
              id="icon_fire-pit_portable" fill="#3A4B60"></path>
    </g>
</svg>