<?xml version="1.0" encoding="UTF-8"?>
<svg width="100px" height="100px" viewBox="0 0 100 100" version="1.1" xmlns="http://www.w3.org/2000/svg">
    <title>icon / furniture / garbage-can</title>
    <g id="icon-/-furniture-/-garbage-can" stroke="none" stroke-width="1" fill="none" fill-rule="evenodd">
        <path d="M50.5056,79.3117 C49.6776,79.3117 49.0056,78.6397 49.0056,77.8117 L49.0056,27.5517 C49.0056,26.7237 49.6776,26.0517 50.5056,26.0517 C51.3336,26.0517 52.0056,26.7237 52.0056,27.5517 L52.0056,77.8117 C52.0056,78.6397 51.3336,79.3117 50.5056,79.3117 L50.5056,79.3117 Z M61.3396,77.8077 L62.7366,27.8987 C62.7606,27.1097 63.4066,26.4827 64.1956,26.4827 C65.0206,26.4827 65.6816,27.1637 65.6556,27.9877 L64.2586,77.8957 C64.2346,78.6847 63.5886,79.3117 62.7996,79.3117 C61.9756,79.3117 61.3156,78.6307 61.3396,77.8077 L61.3396,77.8077 Z M39.6706,77.8077 L38.2746,27.8987 C38.2496,27.1097 37.6036,26.4827 36.8146,26.4827 C35.9896,26.4827 35.3296,27.1637 35.3546,27.9877 L36.7516,77.8957 C36.7766,78.6847 37.4226,79.3117 38.2116,79.3117 C39.0346,79.3117 39.6956,78.6307 39.6706,77.8077 L39.6706,77.8077 Z M85.0796,17.7157 L15.9206,17.7157 L15.9206,13.3357 C15.9206,10.9197 17.8856,8.9557 20.3006,8.9557 L80.6986,8.9557 C83.1146,8.9557 85.0796,10.9197 85.0796,13.3357 L85.0796,17.7157 Z M81.5276,80.1197 C82.0606,80.6527 82.3546,81.3617 82.3546,82.1167 L82.3546,94.2567 C82.3546,95.8137 81.0876,97.0797 79.5306,97.0797 C77.9746,97.0797 76.7086,95.8137 76.7086,94.2567 L76.7086,93.3807 L77.9076,93.3807 C78.6926,93.3807 79.3366,92.7607 79.3666,91.9767 L79.8556,79.3117 C80.4866,79.3827 81.0716,79.6637 81.5276,80.1197 L81.5276,80.1197 Z M73.8366,90.4597 L75.9496,20.6367 L79.1816,20.6367 L76.9876,77.8697 C76.9856,77.8987 76.9846,77.9287 76.9846,77.9587 L76.5026,90.4597 L73.8366,90.4597 Z M70.9156,90.4597 L69.7456,90.4597 C68.2366,88.1207 65.6076,86.5667 62.6216,86.5667 L38.0446,86.5667 C35.0596,86.5667 32.4296,88.1207 30.9216,90.4597 L30.0846,90.4597 L27.9716,20.6367 L73.0286,20.6367 L70.9156,90.4597 Z M68.1706,97.0797 L32.4966,97.0797 L32.4966,95.0357 C32.4966,91.9757 34.9846,89.4877 38.0446,89.4877 L62.6216,89.4877 C65.6816,89.4877 68.1706,91.9757 68.1706,95.0357 L68.1706,97.0797 Z M24.4976,90.4597 L24.0156,77.9617 C24.0156,77.9297 24.0146,77.8977 24.0116,77.8657 L21.8186,20.6367 L25.0496,20.6367 L27.1626,90.4597 L24.4976,90.4597 Z M24.2916,94.2567 C24.2916,95.8137 23.0256,97.0797 21.4686,97.0797 C19.9116,97.0797 18.6466,95.8137 18.6466,94.2567 L18.6466,82.1167 C18.6466,80.6687 19.7396,79.4727 21.1456,79.3117 L21.6336,91.9767 C21.6636,92.7607 22.3076,93.3807 23.0926,93.3807 L24.2916,93.3807 L24.2916,94.2567 Z M24.4856,4.9637 C24.4856,3.8367 25.4026,2.9197 26.5306,2.9197 L74.4696,2.9197 C75.5966,2.9197 76.5136,3.8367 76.5136,4.9637 L76.5136,6.0357 L24.4856,6.0357 L24.4856,4.9637 Z M80.6986,6.0357 L80.6986,6.0357 L79.4346,6.0357 L79.4346,4.9637 C79.4346,2.2267 77.2066,-0.0003 74.4696,-0.0003 L26.5306,-0.0003 C23.7926,-0.0003 21.5666,2.2267 21.5666,4.9637 L21.5666,6.0357 L20.3006,6.0357 C16.2756,6.0357 12.9996,9.3107 12.9996,13.3357 L12.9996,19.1757 C12.9996,19.9827 13.6536,20.6367 14.4596,20.6367 L18.8956,20.6367 L21.0316,76.3897 C18.0686,76.6137 15.7256,79.0957 15.7256,82.1167 L15.7256,94.2567 C15.7256,97.4237 18.3026,99.9997 21.4686,99.9997 C24.6356,99.9997 27.2116,97.4237 27.2116,94.2567 L27.2116,93.3807 L29.7386,93.3807 C29.6326,93.9157 29.5766,94.4697 29.5766,95.0357 L29.5766,98.5407 C29.5766,99.3457 30.2306,99.9997 31.0366,99.9997 L69.6306,99.9997 C70.4376,99.9997 71.0906,99.3457 71.0906,98.5407 L71.0906,95.0357 C71.0906,94.4697 71.0346,93.9157 70.9286,93.3807 L73.7876,93.3807 L73.7876,94.2567 C73.7876,97.4237 76.3636,99.9997 79.5306,99.9997 C82.6976,99.9997 85.2746,97.4237 85.2746,94.2567 L85.2746,82.1167 C85.2746,80.5817 84.6776,79.1387 83.5926,78.0547 C82.6116,77.0737 81.3376,76.4917 79.9676,76.3897 L82.1046,20.6367 L86.5396,20.6367 C87.3466,20.6367 87.9996,19.9827 87.9996,19.1757 L87.9996,13.3357 C87.9996,9.3107 84.7256,6.0357 80.6986,6.0357 L80.6986,6.0357 Z"
              id="Fill-1" fill="#3A4B60"></path>
    </g>
</svg>