<?xml version="1.0" encoding="UTF-8"?>
<svg width="100px" height="100px" viewBox="0 0 100 100" version="1.1" xmlns="http://www.w3.org/2000/svg">
    <title>icon / furniture / golf-cart</title>
    <g id="icon-/-furniture-/-golf-cart" stroke="none" stroke-width="1" fill="none" fill-rule="evenodd">
        <path d="M27.95,79.654 C29.123,79.654 30.077,78.701 30.077,77.528 C30.077,76.355 29.123,75.401 27.95,75.401 C26.778,75.401 25.824,76.355 25.824,77.528 C25.824,78.701 26.778,79.654 27.95,79.654 L27.95,79.654 Z M27.95,72.498 C30.724,72.498 32.98,74.755 32.98,77.528 C32.98,80.301 30.724,82.558 27.95,82.558 C25.177,82.558 22.921,80.301 22.921,77.528 C22.921,74.755 25.178,72.498 27.95,72.498 L27.95,72.498 Z M90.028,79.654 C91.201,79.654 92.155,78.701 92.155,77.528 C92.155,76.355 91.201,75.401 90.028,75.401 C88.856,75.401 87.902,76.355 87.902,77.528 C87.902,78.701 88.856,79.654 90.028,79.654 L90.028,79.654 Z M90.028,72.498 C92.802,72.498 95.058,74.755 95.058,77.528 C95.058,80.301 92.803,82.558 90.028,82.558 C87.255,82.558 84.999,80.301 84.999,77.528 C84.999,74.755 87.255,72.498 90.028,72.498 L90.028,72.498 Z M90.028,84.595 C86.132,84.595 82.961,81.425 82.961,77.528 C82.961,73.631 86.132,70.46 90.028,70.46 C93.926,70.46 97.096,73.631 97.096,77.528 C97.096,81.425 93.926,84.595 90.028,84.595 L90.028,84.595 Z M79.384,72.129 C81.818,68.306 86.045,65.933 90.681,65.933 C91.391,65.933 92.1,65.992 92.801,66.103 C92.957,66.739 93.07,67.39 93.139,68.055 C92.159,67.733 91.114,67.556 90.028,67.556 C86.519,67.556 83.429,69.381 81.651,72.129 L79.384,72.129 Z M76.057,72.13 L69.758,72.129 L75.432,54.435 C75.513,54.178 75.765,54.029 76.023,54.078 L82.109,55.697 C82.127,55.702 82.144,55.707 82.163,55.71 C86.402,56.669 89.808,59.418 91.668,63.061 C91.34,63.041 91.011,63.03 90.681,63.03 C84.431,63.03 78.796,66.571 76.057,72.129 L76.057,72.13 Z M51.785,67.962 L68.045,67.962 L66.708,72.129 L51.785,72.129 L51.785,67.962 Z M47.75,50.621 L47.085,50.621 L44.919,46.786 C44.006,45.169 42.246,44.164 40.326,44.164 L39.862,44.164 L39.862,39.564 C39.862,36.724 37.552,34.414 34.713,34.414 L30.57,34.414 L30.57,24.404 L71.255,24.404 L80.971,52.389 L76.735,51.263 C76.718,51.258 76.699,51.254 76.681,51.249 C74.949,50.858 73.239,51.828 72.681,53.508 L64.562,45.686 L66.771,43.336 C67.32,42.752 67.292,41.833 66.707,41.284 C66.124,40.734 65.204,40.762 64.655,41.347 L58.161,48.257 C57.613,48.842 57.641,49.759 58.225,50.309 C58.506,50.572 58.862,50.703 59.22,50.703 C59.605,50.703 59.992,50.55 60.277,50.245 L62.573,47.802 L71.692,56.588 L68.975,65.057 L51.785,65.057 L51.785,54.657 C51.785,52.431 49.974,50.621 47.75,50.621 L47.75,50.621 Z M39.862,50.621 L39.862,47.093 L40.326,47.093 C41.19,47.093 41.973,47.528 42.368,48.227 L43.721,50.621 L39.862,50.621 Z M48.88,72.129 L41.309,72.129 C39.165,66.644 33.926,63.03 27.95,63.03 C21.975,63.03 16.736,66.644 14.592,72.129 L13.767,72.129 L13.767,55.935 C13.767,54.606 14.848,53.525 16.178,53.525 L47.749,53.525 C48.373,53.525 48.88,54.032 48.88,54.657 L48.88,72.129 Z M36.327,72.129 C34.551,69.381 31.461,67.556 27.95,67.556 C24.441,67.556 21.35,69.381 19.573,72.129 L17.772,72.129 C19.707,68.356 23.581,65.933 27.95,65.933 C32.32,65.933 36.194,68.356 38.128,72.129 L36.327,72.129 Z M27.95,84.595 C24.054,84.595 20.883,81.425 20.883,77.528 C20.883,73.631 24.054,70.46 27.95,70.46 C31.847,70.46 35.018,73.631 35.018,77.528 C35.018,81.425 31.847,84.595 27.95,84.595 L27.95,84.595 Z M10.864,55.935 L10.864,65.057 L6.388,65.057 L6.388,50.621 C6.388,46.828 9.473,43.743 13.266,43.743 L21.673,43.743 L21.673,50.621 L16.178,50.621 C13.248,50.621 10.863,53.006 10.864,55.935 L10.864,55.935 Z M10.863,72.129 L4.309,72.129 C3.535,72.129 2.904,71.498 2.904,70.722 L2.904,69.368 C2.904,68.592 3.535,67.962 4.309,67.962 L10.863,67.962 L10.863,72.129 Z M24.576,39.564 C24.576,38.326 25.584,37.318 26.822,37.318 L34.712,37.318 C35.95,37.318 36.958,38.326 36.958,39.564 L36.958,50.621 L24.576,50.621 L24.576,39.564 Z M27.182,20.95 L27.182,19.613 C27.182,17.293 29.071,15.403 31.392,15.403 L70.528,15.403 C72.849,15.403 74.738,17.293 74.738,19.613 L74.738,20.95 C74.738,21.254 74.491,21.501 74.187,21.501 L27.733,21.501 C27.429,21.501 27.182,21.254 27.182,20.95 L27.182,20.95 Z M96.118,69.639 C96.119,69.608 96.122,69.576 96.122,69.545 C96.122,65.682 94.794,61.893 92.383,58.877 C90.304,56.275 87.486,54.334 84.333,53.302 L74.312,24.398 C76.159,24.331 77.641,22.812 77.641,20.95 L77.641,19.613 C77.641,15.691 74.451,12.5 70.528,12.5 L31.392,12.5 C27.471,12.5 24.279,15.691 24.279,19.613 L24.279,20.95 C24.279,22.832 25.793,24.365 27.667,24.401 L27.667,34.415 L26.823,34.415 C23.983,34.415 21.673,36.725 21.673,39.565 L21.673,40.839 L13.266,40.839 C7.873,40.839 3.484,45.227 3.484,50.621 L3.484,65.137 C1.502,65.524 0,67.273 0,69.368 L0,70.723 C0,73.099 1.933,75.033 4.309,75.033 L18.296,75.033 C18.089,75.831 17.978,76.667 17.978,77.528 C17.978,83.026 22.452,87.5 27.95,87.5 C33.449,87.5 37.922,83.026 37.922,77.528 C37.922,76.667 37.812,75.831 37.606,75.033 L80.373,75.033 C80.167,75.831 80.057,76.667 80.057,77.528 C80.057,83.026 84.53,87.5 90.028,87.5 C95.527,87.5 100,83.026 100,77.528 C100,74.321 98.477,71.465 96.118,69.639 L96.118,69.639 Z"
              id="icon_golf-cart" fill="#3A4B60"></path>
    </g>
</svg>