<?xml version="1.0" encoding="UTF-8"?>
<svg width="100px" height="100px" viewBox="0 0 100 100" version="1.1" xmlns="http://www.w3.org/2000/svg">
    <title>icon / furniture / grandfather-clock</title>
    <g id="icon-/-furniture-/-grandfather-clock" stroke="none" stroke-width="1" fill="none" fill-rule="evenodd">
        <path d="M47.9094,72.3259 C47.9094,73.4779 48.8464,74.4169 50.0004,74.4169 C51.1524,74.4169 52.0904,73.4779 52.0904,72.3259 C52.0904,71.1739 51.1524,70.2349 50.0004,70.2349 C48.8464,70.2349 47.9094,71.1739 47.9094,72.3259 L47.9094,72.3259 Z M43.0564,75.4579 C43.0564,77.7689 44.9374,79.6489 47.2494,79.6489 L52.7514,79.6489 C55.0614,79.6489 56.9424,77.7689 56.9424,75.4579 L56.9424,59.5089 C56.9424,57.1969 55.0614,55.3169 52.7514,55.3169 L51.4584,55.3169 L51.4584,67.5359 C53.5104,68.1619 55.0064,70.0719 55.0064,72.3259 C55.0064,75.0859 52.7604,77.3329 50.0004,77.3329 C47.2384,77.3329 44.9934,75.0859 44.9934,72.3259 C44.9934,70.0719 46.4904,68.1619 48.5424,67.5359 L48.5424,55.3169 L47.2494,55.3169 C44.9374,55.3169 43.0564,57.1969 43.0564,59.5089 L43.0564,75.4579 Z M40.1404,75.4579 L40.1404,59.5089 C40.1404,55.5899 43.3294,52.4009 47.2494,52.4009 L52.7514,52.4009 C56.6704,52.4009 59.8584,55.5899 59.8584,59.5089 L59.8584,75.4579 C59.8584,79.3769 56.6704,82.5649 52.7514,82.5649 L47.2494,82.5649 C43.3294,82.5649 40.1404,79.3769 40.1404,75.4579 L40.1404,75.4579 Z M67.0514,91.5969 C67.0514,90.7539 66.3654,90.0669 65.5214,90.0669 L34.4774,90.0669 C33.6344,90.0669 32.9474,90.7539 32.9474,91.5969 L32.9474,97.0839 L35.8684,97.0839 L35.8684,96.2109 C35.8684,93.9539 37.7044,92.1179 39.9614,92.1179 L60.0384,92.1179 C62.2954,92.1179 64.1324,93.9539 64.1324,96.2109 L64.1324,97.0839 L67.0514,97.0839 L67.0514,91.5969 Z M36.7504,87.1519 L63.2494,87.1519 L63.2494,47.8139 L36.7504,47.8139 L36.7504,87.1519 Z M36.7504,23.4239 L36.7504,44.8979 L63.2494,44.8979 L63.2494,23.4239 L62.2634,23.4239 C61.8684,23.4239 61.4894,23.2629 61.2154,22.9789 C58.2464,19.9069 54.2634,18.2159 50.0004,18.2159 C45.7364,18.2159 41.7544,19.9069 38.7854,22.9789 C38.5114,23.2629 38.1324,23.4239 37.7364,23.4239 L36.7504,23.4239 Z M37.1334,20.5079 C40.6034,17.1439 45.1484,15.2999 50.0004,15.2999 C54.8514,15.2999 59.3964,17.1439 62.8674,20.5079 L64.6624,20.5079 C64.6784,20.5079 64.6924,20.5069 64.7074,20.5069 C64.7224,20.5069 64.7374,20.5079 64.7534,20.5079 L67.0514,20.5079 L67.0514,18.2159 L65.5324,18.2159 C64.0414,18.2159 62.7854,17.1119 62.6114,15.6489 C62.3534,13.4919 60.6664,11.8279 58.5064,11.6029 C57.7594,11.5249 57.1944,10.8909 57.1994,10.1399 C57.2004,10.1309 57.2004,10.1139 57.2014,10.0979 C57.1904,6.1369 53.9654,2.9159 50.0004,2.9159 C46.0354,2.9159 42.8094,6.1369 42.7994,10.0979 C42.8004,10.1139 42.8004,10.1309 42.8004,10.1399 C42.8054,10.8909 42.2404,11.5249 41.4934,11.6029 C39.3344,11.8279 37.6454,13.4919 37.3884,15.6489 C37.2144,17.1119 35.9584,18.2159 34.4684,18.2159 L32.9484,18.2159 L32.9484,20.5079 L37.1334,20.5079 Z M69.9674,91.5969 L69.9674,98.5419 C69.9674,99.3469 69.3144,99.9999 68.5094,99.9999 L62.6734,99.9999 C61.8684,99.9999 61.2154,99.3469 61.2154,98.5419 L61.2154,96.2109 C61.2154,95.5609 60.6864,95.0339 60.0384,95.0339 L39.9614,95.0339 C39.3114,95.0339 38.7844,95.5609 38.7844,96.2109 L38.7844,98.5419 C38.7844,99.3469 38.1314,99.9999 37.3264,99.9999 L31.4894,99.9999 C30.6844,99.9999 30.0314,99.3469 30.0314,98.5419 L30.0314,91.5969 C30.0314,89.3639 31.6864,87.5109 33.8344,87.1979 L33.8344,47.8139 L31.4584,47.8139 C30.6524,47.8139 30.0004,47.1609 30.0004,46.3559 C30.0004,45.5509 30.6524,44.8979 31.4584,44.8979 L33.8344,44.8979 L33.8344,23.4239 L32.2124,23.4239 C31.0104,23.4239 30.0324,22.4459 30.0324,21.2449 L30.0324,17.4779 C30.0324,16.2769 31.0104,15.2999 32.2124,15.2999 L34.4684,15.2999 C34.4814,15.2999 34.4924,15.2949 34.4944,15.2949 C34.8664,12.2049 37.0394,9.7359 39.9524,8.9349 C40.5394,3.9119 44.8214,-0.0001 50.0004,-0.0001 C55.1794,-0.0001 59.4614,3.9119 60.0484,8.9349 C62.9614,9.7359 65.1344,12.2049 65.5054,15.2949 C65.5084,15.2949 65.5174,15.2999 65.5324,15.2999 L67.7884,15.2999 C68.9904,15.2999 69.9674,16.2769 69.9674,17.4779 L69.9674,21.2449 C69.9674,22.4459 68.9904,23.4239 67.7884,23.4239 L66.1654,23.4239 L66.1654,44.8979 L68.5424,44.8979 C69.3464,44.8979 70.0004,45.5509 70.0004,46.3559 C70.0004,47.1609 69.3464,47.8139 68.5424,47.8139 L66.1654,47.8139 L66.1654,87.1979 C68.3124,87.5109 69.9674,89.3639 69.9674,91.5969 L69.9674,91.5969 Z M42.1034,32.5919 C42.1034,36.9459 45.6454,40.4879 50.0004,40.4879 C54.3534,40.4879 57.8964,36.9459 57.8964,32.5919 C57.8964,28.2369 54.3534,24.6949 50.0004,24.6949 C45.6454,24.6949 42.1034,28.2369 42.1034,32.5919 L42.1034,32.5919 Z M39.1874,32.5919 C39.1874,26.6299 44.0374,21.7789 50.0004,21.7789 C55.9624,21.7789 60.8124,26.6299 60.8124,32.5919 C60.8124,38.5539 55.9624,43.4039 50.0004,43.4039 C44.0374,43.4039 39.1874,38.5539 39.1874,32.5919 L39.1874,32.5919 Z M45.7174,32.5919 C45.7174,31.7869 46.3704,31.1339 47.1754,31.1339 L48.5424,31.1339 L48.5424,28.0839 C48.5424,27.2779 49.1944,26.6259 50.0004,26.6259 C50.8054,26.6259 51.4584,27.2779 51.4584,28.0839 L51.4584,32.5919 C51.4584,33.3969 50.8054,34.0499 50.0004,34.0499 L47.1754,34.0499 C46.3704,34.0499 45.7174,33.3969 45.7174,32.5919 L45.7174,32.5919 Z"
              id="icon_grandfather-clock" fill="#3A4B60"></path>
    </g>
</svg>