<?xml version="1.0" encoding="UTF-8"?>
<svg width="100px" height="100px" viewBox="0 0 100 100" version="1.1" xmlns="http://www.w3.org/2000/svg">
    <title>icon / furniture / headboard</title>
    <g id="icon-/-furniture-/-headboard" stroke="none" stroke-width="1" fill="none" fill-rule="evenodd">
        <path d="M92.112,76.828 L96.828,76.828 L96.828,28.173 L92.112,28.173 L92.112,76.828 Z M11.062,57.5 L11.062,35.52 C19.734,34.941 26.053,31.791 32.175,28.736 C37.875,25.891 43.26,23.202 49.95,23.202 C56.642,23.202 62.026,25.891 67.726,28.736 C73.87,31.802 80.211,34.965 88.939,35.526 L88.939,57.5 L11.062,57.5 Z M7.851,76.828 L3.174,76.828 L3.174,28.173 L7.891,28.173 L7.851,76.828 Z M98.413,25 L90.525,25 C89.649,25 88.939,25.71 88.939,26.586 L88.939,32.312 C80.931,31.736 74.95,28.763 69.156,25.87 C63.106,22.852 57.392,20 49.95,20 C42.51,20 36.796,22.851 30.744,25.871 C24.976,28.75 19.021,31.71 11.062,32.302 L11.062,26.587 C11.062,25.714 10.348,25 9.476,25 L1.587,25 C0.714,25 0,25.714 0,26.587 L0,78.414 C0,79.29 0.71,80 1.586,80 L9.476,80 C10.352,80 11.062,79.29 11.062,78.414 L11.062,60.673 L88.939,60.673 L88.939,78.414 C88.939,79.29 89.649,80 90.525,80 L98.414,80 C99.29,80 100,79.29 100,78.414 L100,26.587 C100,25.71 99.29,25 98.413,25 L98.413,25 Z"
              id="icon_headboard" fill="#3A4B60"></path>
    </g>
</svg>