<?xml version="1.0" encoding="UTF-8"?>
<svg width="100px" height="100px" viewBox="0 0 100 100" version="1.1" xmlns="http://www.w3.org/2000/svg">
    <title>icon / furniture / hot-tub_jacuzzi</title>
    <g id="icon-/-furniture-/-hot-tub_jacuzzi" stroke="none" stroke-width="1" fill="none" fill-rule="evenodd">
        <path d="M63.7757,53.1736 C70.0787,53.1736 70.3037,49.9376 77.2697,49.8486 L77.2887,49.8486 C78.0887,49.8486 78.7427,50.4926 78.7537928,51.2946 C78.7627,52.1046 78.1157,52.7686 77.3067,52.7776 C71.1777,52.8566 70.9217,56.1036 63.7767,56.1036 C56.5797,56.1036 56.3277,52.7776 49.9997,52.7776 C43.6667,52.7776 43.4167,56.1036 36.2227,56.1036 C35.4147,56.1036 34.7577,55.4466 34.7577,54.6386 C34.7577,53.8296 35.4147,53.1736 36.2227,53.1736 C42.5557,53.1736 42.8067,49.8476 49.9997,49.8476 C57.1967,49.8476 57.4417,53.1736 63.7757,53.1736 L63.7757,53.1736 Z M36.2227,43.8966 C42.5557,43.8966 42.8067,40.5696 49.9997,40.5696 C57.1967,40.5696 57.4477,43.8966 63.7767,43.8966 C64.5857,43.8966 65.2407,44.5526 65.2407,45.3616 C65.2407,46.1706 64.5857,46.8256 63.7757,46.8256 C56.5797,46.8256 56.3277,43.4996 49.9997,43.4996 C43.6667,43.4996 43.4157,46.8256 36.2227,46.8256 C29.1037,46.8256 28.7747,43.5786 22.6927,43.5016 C21.8837,43.4906 21.2367,42.8266 21.2465856,42.0186 C21.2567,41.2156 21.9107,40.5716 22.7117,40.5716 L22.7307,40.5716 C29.7347,40.6606 29.8827,43.8966 36.2227,43.8966 L36.2227,43.8966 Z M97.0707,46.5206 C97.0707,53.0266 92.2937,59.2136 83.6187,63.9426 C74.6627,68.8236 62.7237,71.5136 50.0007,71.5136 C37.2767,71.5136 25.3377,68.8236 16.3807,63.9426 C7.7077,59.2136 2.9297,53.0266 2.9297,46.5206 L2.9297,43.3336 C2.9297,38.1246 5.9887,33.1096 11.7777,28.8286 C17.3467,24.7096 25.2477,21.5276 34.1137,19.8186 C34.3647,20.2456 34.6247,20.6296 34.8757,20.9826 C26.6307,22.4756 19.4867,25.1376 14.1077,28.7366 C7.8857,32.9006 4.5977,37.9476 4.5977,43.3336 C4.5977,45.8216 5.3387,48.2416 6.5937,50.3796 C7.8867,52.5836 9.6667,54.5016 11.6507,56.0936 C13.8407,57.8496 16.2287,59.3606 18.7547,60.5866 C21.1597,61.7556 23.6537,62.7356 26.2037,63.5466 C28.8157,64.3776 31.4827,65.0376 34.1757,65.5536 C37.0177,66.0976 39.8907,66.4816 42.7757,66.7196 C45.1777,66.9176 47.5887,67.0146 50.0007,67.0146 C74.7907,67.0146 95.4027,56.7566 95.4027,43.3336 C95.4027,38.2646 92.4597,33.4566 86.8887,29.4306 C81.8597,25.7946 74.9967,23.0086 66.9957,21.3466 C66.8597,20.8356 66.6937,20.3706 66.5087,19.9426 C67.1857,20.0776 67.8467,20.2356 68.5117,20.3886 C69.2727,20.5646 70.0267,20.7486 70.7697,20.9456 C71.0977,21.0316 71.4257,21.1186 71.7507,21.2096 C75.0567,22.1396 78.1697,23.2746 80.9937,24.5896 C85.6957,26.7946 89.5927,29.5006 92.3377,32.4856 C95.4777,35.9006 97.0707,39.5506 97.0707,43.3336 L97.0707,46.5206 Z M88.5727,67.0046 C88.5577,67.0156 88.5477,67.0286 88.5347,67.0396 C87.0707,68.1456 85.4297,69.1966 83.6187,70.1846 C83.1237,70.4536 82.6117,70.7106 82.0997,70.9666 C73.3307,75.3456 61.9867,77.7546 50.0007,77.7546 C37.2767,77.7546 25.3377,75.0666 16.3807,70.1846 C9.6647,66.5236 5.2877,61.9866 3.6517,57.1056 C6.1907,60.6086 10.0087,63.8056 14.9787,66.5146 C24.3577,71.6266 36.7957,74.4426 50.0007,74.4426 C63.2057,74.4426 75.6417,71.6266 85.0207,66.5146 C89.9897,63.8066 93.8067,60.6106 96.3447,57.1096 C95.1587,60.6356 92.5307,63.9976 88.5727,67.0046 L88.5727,67.0046 Z M97.0707,72.0766 C97.0707,78.5836 92.2937,84.7706 83.6187,89.4996 C74.6627,94.3816 62.7227,97.0696 50.0007,97.0696 C37.2767,97.0696 25.3377,94.3816 16.3807,89.4996 C7.7077,84.7706 2.9297,78.5836 2.9297,72.0766 L2.9297,62.2926 C5.4387,66.2096 9.5137,69.7776 14.9787,72.7566 C24.3577,77.8686 36.7957,80.6846 50.0007,80.6846 C55.3547,80.6846 60.7157,80.2246 65.9817,79.2436 C70.8367,78.3406 75.6247,76.9946 80.1797,75.0776 C84.8807,73.0996 89.4617,70.4676 93.1727,66.9366 C94.6417,65.5386 95.9747,63.9906 97.0707,62.2826 L97.0707,72.0766 Z M36.3567,23.6966 C36.3867,23.9156 36.4027,24.1576 36.4027,24.4396 C36.4027,25.8006 36.0607,26.2686 35.2347,27.3986 C35.0317,27.6766 34.8137,27.9746 34.5937,28.2986 C27.0987,30.0676 20.6417,33.0696 15.8957,37.0086 C12.0847,40.1716 9.5667,43.7826 8.4627,47.6166 C7.8407,46.2126 7.5277,44.7796 7.5277,43.3336 C7.5277,34.5486 19.3197,26.5646 36.3567,23.6966 L36.3567,23.6966 Z M37.5997,8.4386 C38.5297,7.1656 39.3327,6.0686 39.3327,3.7496 C39.3327,3.2976 39.7007,2.9296 40.1527,2.9296 C40.6037,2.9296 40.9717,3.2976 40.9717,3.7496 C40.9717,6.6036 39.9307,8.0276 38.9237,9.4056 C37.9947,10.6776 37.1917,11.7766 37.1917,14.0946 C37.1917,16.4126 37.9947,17.5116 38.9237,18.7826 C40.2887,20.6496 40.9717,22.0276 40.9717,24.4396 C40.9717,26.8726 40.3397,28.1566 38.9227,30.0956 C37.9947,31.3666 37.1917,32.4646 37.1917,34.7826 C37.1917,35.2356 36.8247,35.6026 36.3727,35.6026 C35.9207,35.6026 35.5517,35.2356 35.5517,34.7826 C35.5517,31.9286 36.5927,30.5046 37.6007,29.1266 C38.5297,27.8556 39.3327,26.7576 39.3327,24.4396 C39.3327,22.3156 38.7347,21.3036 37.5997,19.7506 C36.1747,17.8016 35.5517,16.5196 35.5517,14.0946 C35.5517,11.2396 36.5927,9.8166 37.5997,8.4386 L37.5997,8.4386 Z M67.3777,24.4256 C82.4687,27.7846 92.4727,35.2596 92.4727,43.3336 C92.4727,44.7796 92.1587,46.2126 91.5367,47.6166 C90.4337,43.7846 87.9197,40.1766 84.1127,37.0156 C79.6297,33.2916 73.6167,30.4036 66.6447,28.6046 C67.0757,27.4926 67.3777,26.1406 67.3777,24.4396 L67.3777,24.4256 Z M42.5627,29.8966 C43.5467,29.7856 44.5397,29.6966 45.5397,29.6316 C44.8837,30.9066 44.3607,32.5416 44.3607,34.7826 C44.3607,36.8506 46.0437,38.5316 48.1107,38.5316 C50.1777,38.5316 51.8597,36.8506 51.8597,34.7826 C51.8597,33.4206 52.2017,32.9526 53.0277,31.8226 C53.4747,31.2116 53.9887,30.5046 54.4417,29.6296 C55.3517,29.6896 56.2587,29.7686 57.1597,29.8646 C56.5607,31.1056 56.0977,32.6766 56.0977,34.7826 C56.0977,36.8506 57.7807,38.5316 59.8477,38.5316 C61.9157,38.5316 63.5977,36.8506 63.5977,34.7826 C63.5977,33.4216 63.9397,32.9536 64.7647,31.8236 C64.8967,31.6436 65.0357,31.4536 65.1757,31.2556 C72.0467,32.9326 77.9327,35.6916 82.2407,39.2696 C86.5187,42.8206 88.9197,46.9396 89.2137,51.2106 C81.0447,60.7486 62.7127,64.0846 50.0007,64.0846 C45.3877,64.0846 40.7697,63.7236 36.2207,62.9496 C32.0527,62.2416 27.9287,61.1886 23.9787,59.6706 C19.8677,58.0896 15.8377,56.0126 12.5637,53.0286 C11.9357,52.4576 11.3397,51.8516 10.7877,51.2066 C11.0837,46.9346 13.4857,42.8156 17.7667,39.2636 C21.6877,36.0096 26.9127,33.4336 32.9957,31.7326 C32.7657,32.6086 32.6227,33.6116 32.6227,34.7826 C32.6227,36.8506 34.3047,38.5316 36.3727,38.5316 C38.4397,38.5316 40.1217,36.8506 40.1217,34.7826 C40.1217,33.4216 40.4637,32.9536 41.2897,31.8236 C41.6907,31.2756 42.1457,30.6506 42.5627,29.8966 L42.5627,29.8966 Z M45.1817,18.4746 C45.3757,18.9436 45.5907,19.3676 45.8157,19.7556 C44.8807,19.7996 43.9517,19.8586 43.0287,19.9316 C42.8307,19.4726 42.6127,19.0546 42.3867,18.6736 C43.3147,18.5926 44.2467,18.5266 45.1817,18.4746 L45.1817,18.4746 Z M47.7397,22.6166 C48.0157,23.1266 48.1407,23.6216 48.1407,24.4396 C48.1407,25.4336 47.9577,25.9516 47.5377,26.5986 C46.2447,26.6436 44.9547,26.7236 43.6757,26.8386 C43.9267,25.5616 43.9697,24.1636 43.7977,22.8086 C45.1017,22.7136 46.4207,22.6526 47.7397,22.6166 L47.7397,22.6166 Z M49.3377,8.4376 C50.2677,7.1656 51.0707,6.0676 51.0707,3.7496 C51.0707,3.2976 51.4377,2.9296 51.8897,2.9296 C52.3417,2.9296 52.7097,3.2976 52.7097,3.7496 C52.7097,6.6036 51.6687,8.0276 50.6617,9.4066 C49.7317,10.6786 48.9297,11.7766 48.9297,14.0946 C48.9297,18.9026 52.7097,18.9536 52.7097,24.4396 C52.7097,26.8396 52.0737,28.1626 50.6627,30.0946 C49.7327,31.3656 48.9297,32.4646 48.9297,34.7826 C48.9297,35.2356 48.5617,35.6026 48.1097,35.6026 C47.6587,35.6026 47.2907,35.2356 47.2907,34.7826 C47.2907,31.9296 48.3317,30.5046 49.3377,29.1276 C50.2677,27.8566 51.0707,26.7576 51.0707,24.4396 C51.0707,19.6546 47.2907,19.5716 47.2907,14.0946 C47.2907,11.2396 48.3317,9.8156 49.3377,8.4376 L49.3377,8.4376 Z M56.9787,18.6206 C57.1977,19.1266 57.4427,19.5786 57.6937,19.9906 C56.7007,19.9036 55.7017,19.8356 54.6997,19.7816 C54.4767,19.2846 54.2297,18.8396 53.9767,18.4336 C54.9837,18.4796 55.9847,18.5416 56.9787,18.6206 L56.9787,18.6206 Z M59.7067,23.1426 C59.8237,23.4986 59.8787,23.8986 59.8787,24.4396 C59.8787,25.6836 59.5917,26.1826 58.9117,27.1216 C57.7617,26.9736 56.5987,26.8526 55.4277,26.7616 C55.5597,26.0666 55.6387,25.2986 55.6387,24.4396 C55.6397,23.8366 55.5977,23.2826 55.5307,22.7626 C56.9357,22.8546 58.3317,22.9826 59.7067,23.1426 L59.7067,23.1426 Z M61.0767,8.4386 C62.0047,7.1656 62.8077,6.0686 62.8077,3.7496 C62.8077,3.2976 63.1757,2.9296 63.6287,2.9296 C64.0807,2.9296 64.4477,3.2976 64.4477,3.7496 C64.4477,6.6036 63.4067,8.0276 62.3997,9.4056 C61.4697,10.6776 60.6677,11.7766 60.6677,14.0946 C60.6677,16.4126 61.4697,17.5116 62.3997,18.7826 C63.4067,20.1606 64.4477,21.5856 64.4477,24.4396 C64.4477,27.2926 63.4067,28.7176 62.3987,30.0956 C61.4697,31.3666 60.6677,32.4646 60.6677,34.7826 C60.6677,35.2356 60.2997,35.6026 59.8477,35.6026 C59.3957,35.6026 59.0277,35.2356 59.0277,34.7826 C59.0277,31.9286 60.0687,30.5046 61.0767,29.1266 C62.0057,27.8556 62.8077,26.7576 62.8077,24.4396 C62.8077,22.1206 62.0047,21.0226 61.0757,19.7506 C59.6897,17.8536 59.0277,16.4956 59.0277,14.0946 C59.0277,11.2396 60.0687,9.8166 61.0767,8.4386 L61.0767,8.4386 Z M82.1517,21.8896 C79.7637,20.7846 77.2927,19.8886 74.7967,19.0586 C72.2707,18.2186 64.6657,16.6206 64.4237,16.5806 C63.8447,15.7626 63.5977,15.2496 63.5977,14.0946 C63.5977,12.7326 63.9397,12.2646 64.7657,11.1346 C65.8687,9.6256 67.3787,7.5596 67.3787,3.7486 C67.3777,1.6816 65.6957,-0.0004 63.6287,-0.0004 C61.5607,-0.0004 59.8787,1.6816 59.8787,3.7496 C59.8787,5.1106 59.5367,5.5786 58.7107,6.7096 C57.6077,8.2186 56.0977,10.2836 56.0977,14.0946 C56.0977,14.6396 56.1317,15.1456 56.1877,15.6226 C54.8157,15.5286 53.4317,15.4696 52.0467,15.4386 C51.9197,15.0696 51.8597,14.6596 51.8597,14.0946 C51.8597,12.7336 52.2017,12.2656 53.0277,11.1346 C54.1297,9.6256 55.6397,7.5606 55.6397,3.7496 C55.6397,1.6816 53.9577,-0.0004 51.8897,-0.0004 C49.8227,-0.0004 48.1407,1.6816 48.1407,3.7496 C48.1407,5.1106 47.7987,5.5786 46.9727,6.7096 C45.8707,8.2176 44.3607,10.2826 44.3607,14.0946 C44.3607,14.6226 44.3917,15.1146 44.4447,15.5796 C43.1277,15.6606 41.8167,15.7736 40.5197,15.9106 C40.2447,15.4026 40.1217,14.9086 40.1217,14.0946 C40.1217,12.7326 40.4637,12.2646 41.2897,11.1346 C42.3917,9.6256 43.9017,7.5596 43.9017,3.7486 C43.9017,1.6816 42.2197,-0.0004 40.1527,-0.0004 C38.0847,-0.0004 36.4027,1.6816 36.4027,3.7496 C36.4027,5.1106 36.0607,5.5786 35.2347,6.7096 C34.1317,8.2186 32.6227,10.2836 32.6227,14.0946 C32.6227,15.2266 32.7577,16.2006 32.9737,17.0566 C13.1777,21.0156 0.0007,31.4516 0.0007,43.3336 L0.0007,72.0766 C0.0007,79.7046 5.3197,86.8066 14.9787,92.0716 C24.3577,97.1846 36.7957,99.9996 50.0007,99.9996 C63.2057,99.9996 75.6417,97.1846 85.0207,92.0716 C94.6797,86.8066 100.0007,79.7046 100.0007,72.0766 L100.0007,43.3336 C100.0007,41.6716 99.7417,40.0136 99.2487,38.4266 C98.7327,36.7686 97.9677,35.1946 97.0277,33.7366 C96.0017,32.1476 94.7687,30.6946 93.4147,29.3746 C91.9027,27.9026 90.2367,26.5936 88.4837,25.4216 C86.5177,24.1076 84.4387,22.9556 82.2957,21.9556 C82.2477,21.9336 82.1997,21.9116 82.1517,21.8896 L82.1517,21.8896 Z"
              id="Fill-1" fill="#3A4B60"></path>
    </g>
</svg>