<?xml version="1.0" encoding="UTF-8"?>
<svg width="100px" height="102px" viewBox="0 0 100 102" version="1.1" xmlns="http://www.w3.org/2000/svg" xmlns:xlink="http://www.w3.org/1999/xlink">
    <title>illustration_empty-box</title>
    <defs>
        <linearGradient x1="38.293694%" y1="50.0000847%" x2="52.0306923%" y2="50.0000847%" id="linearGradient-1">
            <stop stop-color="#CC8241" offset="0%"></stop>
            <stop stop-color="#DEA861" offset="100%"></stop>
        </linearGradient>
        <linearGradient x1="0.309912458%" y1="31.7929837%" x2="79.9996505%" y2="60.9520611%" id="linearGradient-2">
            <stop stop-color="#DEA861" offset="0%"></stop>
            <stop stop-color="#E3B67B" offset="32.8%"></stop>
            <stop stop-color="#E9C596" offset="75.18%"></stop>
            <stop stop-color="#EBCBA0" offset="100%"></stop>
        </linearGradient>
        <linearGradient x1="64.1814735%" y1="50%" x2="17.8695625%" y2="50%" id="linearGradient-3">
            <stop stop-color="#CC8241" offset="0%"></stop>
            <stop stop-color="#DEA861" offset="100%"></stop>
        </linearGradient>
    </defs>
    <g id="simplified" stroke="none" stroke-width="1" fill="none" fill-rule="evenodd">
        <g id="search" transform="translate(-138.000000, -288.000000)">
            <g id="content" transform="translate(8.000000, 130.000000)">
                <g id="illustration_empty-box" transform="translate(130.000000, 158.000000)">
                    <g id="open" transform="translate(0.000000, 15.000000)" fill-rule="nonzero">
                        <path d="M81.0117188,66.6853516 L81.0117188,28.6394531 L19.9468749,31.2580078 L19.9468749,69.3039062 C19.9468749,70.1757812 20.378125,71.0474609 21.2410156,71.5457031 L45.43125,85.5119141 C47.1517578,86.5052734 49.2712891,86.5052734 50.9917969,85.5119141 L79.7175781,68.9271484 C80.5804687,68.4291016 81.0117188,67.5572266 81.0117188,66.6853516 L81.0117188,66.6853516 Z" id="Path" fill="url(#linearGradient-1)"></path>
                        <path d="M98.5011719,37.8345703 L84.1154297,29.5289063 C83.6408203,29.2548828 83.6390625,28.5705078 84.1121094,28.2939453 L98.70625,19.7630859 C100.400195,18.7851562 100.438477,16.3537109 98.7761719,15.3228516 L75.5279297,0.906054687 C73.7865234,-0.173828125 71.5921875,-0.208398438 69.8175781,0.816210937 L55.165625,9.37871094 C53.8322266,10.1580078 52.1833984,10.1623047 50.8458984,9.39003906 L36.1998047,0.934179688 C34.1441406,-0.252734375 31.6021484,-0.212695312 29.5847656,1.03828125 L2.65390625,17.7388672 C0.728320312,18.9330078 0.77265625,21.7496094 2.73496094,22.8826172 L16.1912109,30.6515625 C16.6667969,30.9259766 16.6673828,31.6121094 16.1925781,31.8876953 L1.29414063,40.5322266 C-0.431054688,41.5283203 -0.431054688,44.0183594 1.29414063,45.0144531 L25.4853516,58.98125 C27.2056641,59.9744141 29.3251953,59.9744141 31.0455078,58.98125 L45.153125,50.7957031 C46.4847656,50.0230469 48.1279297,50.0212891 49.4613281,50.7910156 L64.0371094,59.20625 C66.0298828,60.3568359 68.4851563,60.3568359 70.478125,59.20625 L98.5015625,43.0269531 C100.499609,41.8728516 100.499609,38.9882812 98.5011719,37.8345703 Z" id="Path" fill="url(#linearGradient-2)"></path>
                        <path d="M21.2410156,29.0166016 L49.9667969,12.4318359 C51.6873047,11.4384766 53.8068359,11.4384766 55.5273437,12.4318359 L79.7175781,26.3980469 C81.4431641,27.3943359 81.4431641,29.8847656 79.7175781,30.8810547 L50.9917969,47.4658203 C49.2712891,48.4591797 47.1517578,48.4591797 45.43125,47.4658203 L21.2410156,33.4996094 C19.515625,32.5033203 19.515625,30.0128906 21.2410156,29.0166016 Z" id="Path" fill="url(#linearGradient-3)"></path>
                        <g id="Group" transform="translate(73.437500, 58.007812)" fill="#5D3645">
                            <polygon id="Path" points="5.53066406 4.21933594 2.8171875 0.149023438 0.103515625 7.35253906 1.53242187 6.52753906 1.53242187 8.96777344 4.10175781 7.484375 4.10175781 5.04414063"></polygon>
                            <polygon id="Path" points="5.53066406 7.27207031 0.103515625 10.4054687 0.103515625 11.7253906 5.53066406 8.59199219"></polygon>
                        </g>
                    </g>
                    <g id="graphic_arw" transform="translate(34.000000, 0.000000)">
                        <path d="M0.245186077,29.03808 C-0.0408939228,28.63968 -0.0802539228,28.11552 0.146306077,27.67776 C0.370946077,27.24192 0.819266077,26.96832 1.30982608,26.96832 L5.23718608,26.96832 L5.23718608,1.30944 C5.23718608,0.5856 5.82278608,0 6.54662608,0 L22.2541461,0 C22.9779861,0 23.5645461,0.5856 23.5645461,1.30944 L23.5645461,26.96832 L27.4909461,26.96832 C27.9815061,26.96832 28.4307861,27.24192 28.6544661,27.67776 C28.8733461,28.09824 28.8493461,28.62816 28.5565461,29.03808 L15.4650261,47.45184 C15.2202261,47.79552 14.8237461,48 14.4003861,48 C13.9770261,48 13.5815061,47.79552 13.3357461,47.45184 L0.245186077,29.03808 Z" id="Fill-1" fill="#57C3F3" fill-rule="nonzero"></path>
                        <path d="M16.1671701,46.464384 L5.43245008,31.364544 C4.98125008,30.729024 5.43533008,29.847744 6.21485008,29.847744 L7.15757008,29.847744 C7.68749008,29.847744 8.11757008,29.418624 8.11757008,28.887744 L8.11757008,0.000384 L6.54701008,0.000384 C5.82317008,0.000384 5.23757008,0.585984 5.23757008,1.308864 L5.23757008,26.967744 L1.31021008,26.967744 C0.819650077,26.967744 0.370370077,27.242304 0.146690077,27.678144 C-0.0808299228,28.115904 -0.0405099228,28.640064 0.245570077,29.038464 L13.3361301,47.451264 C13.5809301,47.795904 13.9774101,48.000384 14.4007701,48.000384 C14.8241301,48.000384 15.2196501,47.795904 15.4654101,47.451264 L16.1671701,46.464384 Z" id="Fill-4" fill-opacity="0.102413578" fill="#000000"></path>
                    </g>
                </g>
            </g>
        </g>
    </g>
</svg>