<?xml version="1.0" encoding="UTF-8"?>
<svg width="100px" height="100px" viewBox="0 0 100 100" version="1.1" xmlns="http://www.w3.org/2000/svg">
    <title>icon / furniture / kids-desk</title>
    <g id="icon-/-furniture-/-kids-desk" stroke="none" stroke-width="1" fill="none" fill-rule="evenodd">
        <path d="M28.9775,52.5961 C29.7525,52.5961 30.3845,53.2271 30.3845,54.0041 C30.3845,54.7801 29.7525,55.4111 28.9775,55.4111 C28.2015,55.4111 27.5695,54.7801 27.5695,54.0041 C27.5695,53.2271 28.2015,52.5961 28.9775,52.5961 L28.9775,52.5961 Z M28.9775,58.1571 C31.2665,58.1571 33.1295,56.2931 33.1295,54.0041 C33.1295,51.7131 31.2665,49.8501 28.9775,49.8501 C26.6875,49.8501 24.8235,51.7131 24.8235,54.0041 C24.8235,56.2931 26.6875,58.1571 28.9775,58.1571 L28.9775,58.1571 Z M71.0225,32.8471 C71.7985,32.8471 72.4305,33.4791 72.4305,34.2541 C72.4305,35.0321 71.7985,35.6621 71.0225,35.6621 C70.2475,35.6621 69.6155,35.0321 69.6155,34.2541 C69.6155,33.4791 70.2475,32.8471 71.0225,32.8471 L71.0225,32.8471 Z M71.0225,38.4081 C73.3125,38.4081 75.1765,36.5451 75.1765,34.2541 C75.1765,31.9651 73.3125,30.1011 71.0225,30.1011 C68.7335,30.1011 66.8705,31.9651 66.8705,34.2541 C66.8705,36.5451 68.7335,38.4081 71.0225,38.4081 L71.0225,38.4081 Z M28.9775,32.8471 C29.7525,32.8471 30.3845,33.4791 30.3845,34.2541 C30.3845,35.0321 29.7525,35.6621 28.9775,35.6621 C28.2015,35.6621 27.5695,35.0321 27.5695,34.2541 C27.5695,33.4791 28.2015,32.8471 28.9775,32.8471 L28.9775,32.8471 Z M28.9775,38.4081 C31.2665,38.4081 33.1295,36.5451 33.1295,34.2541 C33.1295,31.9651 31.2665,30.1011 28.9775,30.1011 C26.6875,30.1011 24.8235,31.9651 24.8235,34.2541 C24.8235,36.5451 26.6875,38.4081 28.9775,38.4081 L28.9775,38.4081 Z M28.9775,72.3451 C29.7525,72.3451 30.3845,72.9771 30.3845,73.7521 C30.3845,74.5301 29.7525,75.1601 28.9775,75.1601 C28.2015,75.1601 27.5695,74.5301 27.5695,73.7521 C27.5695,72.9771 28.2015,72.3451 28.9775,72.3451 L28.9775,72.3451 Z M28.9775,77.9071 C31.2665,77.9071 33.1295,76.0421 33.1295,73.7521 C33.1295,71.4631 31.2665,69.6001 28.9775,69.6001 C26.6875,69.6001 24.8235,71.4631 24.8235,73.7521 C24.8235,76.0421 26.6875,77.9071 28.9775,77.9071 L28.9775,77.9071 Z M2.7455,23.0071 L97.2535,23.0071 L97.2535,17.7451 L2.7455,17.7451 L2.7455,23.0071 Z M51.3915,42.7561 L90.6535,42.7561 L90.6535,25.7531 L51.3915,25.7531 L51.3915,42.7561 Z M86.0775,82.2541 L90.6535,82.2541 L90.6535,45.5021 L86.0775,45.5021 L86.0775,82.2541 Z M9.3465,42.7561 L48.6085,42.7561 L48.6085,25.7531 L9.3465,25.7531 L9.3465,42.7561 Z M48.6085,62.5051 L48.6085,62.5051 L9.3465,62.5051 L9.3465,45.5021 L48.6085,45.5021 L48.6085,62.5051 Z M9.3465,82.2541 L48.6085,82.2541 L48.6085,65.2511 L9.3465,65.2511 L9.3465,82.2541 Z M97.4245,15.0001 L2.5755,15.0001 C1.1555,15.0001 -0.0005,16.1551 -0.0005,17.5741 L-0.0005,23.1781 C-0.0005,24.5981 1.1555,25.7531 2.5755,25.7531 L6.6005,25.7531 L6.6005,82.3811 C6.6005,83.8011 7.7475,85.0001 9.1055,85.0001 L48.7345,85.0001 C50.1785,85.0001 51.3545,83.8251 51.3545,82.3811 L51.3545,45.5021 L83.3315,45.5021 L83.3315,82.3811 C83.3315,83.8251 84.5065,85.0001 85.9515,85.0001 L90.7805,85.0001 C92.2245,85.0001 93.3995,83.8251 93.3995,82.3811 L93.3995,25.7531 L97.4245,25.7531 C98.8445,25.7531 99.9995,24.5981 99.9995,23.1781 L99.9995,17.5741 C99.9995,16.1551 98.8445,15.0001 97.4245,15.0001 L97.4245,15.0001 Z"
              id="icon_kids-desk" fill="#3A4B60"></path>
    </g>
</svg>