<?xml version="1.0" encoding="UTF-8"?>
<svg width="100px" height="100px" viewBox="0 0 100 100" version="1.1" xmlns="http://www.w3.org/2000/svg">
    <title>icon / furniture / kids-bed</title>
    <g id="icon-/-furniture-/-kids-bed" stroke="none" stroke-width="1" fill="none" fill-rule="evenodd">
        <path d="M97.0706,67.862 L2.9296,67.862 L2.9296,65.721 C2.9296,56.975 10.0686,49.974 18.6756,49.974 L81.3246,49.975 C89.9626,49.975 97.0706,57 97.0706,65.721 L97.0706,67.862 Z M97.0706,94.235 C97.0706,95.799 95.7986,97.071 94.2346,97.071 L88.0066,97.071 C86.4426,97.071 85.1706,95.799 85.1706,94.235 L85.1706,86.001 C85.1706,84.057 83.5896,82.476 81.6456,82.476 L18.3536,82.476 C16.4106,82.476 14.8296,84.057 14.8296,86.001 L14.8296,94.235 C14.8296,95.799 13.5566,97.071 11.9946,97.071 L5.7646,97.071 C4.2016,97.071 2.9296,95.799 2.9296,94.235 L2.9296,70.792 L97.0706,70.792 L97.0706,94.235 Z M16.9006,47.13 C16.8916,47.131 16.8826,47.131 16.8756,47.132 L16.8756,35.144 C16.8756,31.585 19.7706,28.688 23.3316,28.688 L77.2586,28.688 C80.8186,28.688 83.7156,31.585 83.7156,35.144 L83.7156,47.197 C82.8856,47.091 82.0586,47.045 81.3246,47.045 C81.3246,47.045 18.2566,47.002 16.9006,47.13 L16.9006,47.13 Z M23.3306,25.758 C18.1546,25.758 13.9446,29.969 13.9446,35.144 L13.9446,47.653 C10.9506,48.437 8.2486,49.948 6.0366,51.985 C5.7996,52.203 5.5416,52.453 5.3686,52.629 L5.3686,4.667 C5.3686,3.709 6.1466,2.929 7.1046,2.929 L14.8696,2.929 C15.8266,2.929 16.6056,3.709 16.6056,4.667 L16.6056,8.529 C16.6056,10.634 18.3186,12.346 20.4246,12.346 L80.1656,12.346 C82.2706,12.346 83.9836,10.634 83.9836,8.529 L83.9836,4.667 C83.9836,3.709 84.7626,2.929 85.7206,2.929 L93.4846,2.929 C94.4416,2.929 95.2206,3.709 95.2206,4.667 L95.2206,53.231 C92.9166,50.657 89.9506,48.785 86.6446,47.81 L86.6446,35.144 C86.6446,29.968 82.4336,25.758 77.2586,25.758 L23.3306,25.758 Z M98.1506,57.623 L98.1506,4.667 C98.1506,2.093 96.0576,0 93.4846,0 L85.7206,0 C83.1476,0 81.0536,2.093 81.0536,4.667 L81.0536,8.529 C81.0536,9.018 80.6556,9.417 80.1656,9.417 L20.4246,9.417 C19.9336,9.417 19.5356,9.018 19.5356,8.529 L19.5356,4.667 C19.5356,2.093 17.4416,0 14.8686,0 L7.1046,0 C4.5316,0 2.4376,2.093 2.4376,4.667 L2.4376,56.503 C0.8866,59.224 0.0006,62.371 0.0006,65.721 L0.0006,94.235 C0.0006,97.414 2.5866,100 5.7646,100 L11.9946,100 C15.1736,100 17.7586,97.414 17.7586,94.235 L17.7586,86.001 C17.7586,85.673 18.0256,85.406 18.3536,85.406 L81.6456,85.406 C81.9736,85.406 82.2416,85.673 82.2416,86.001 L82.2416,94.235 C82.2416,97.414 84.8276,100 88.0066,100 L94.2346,100 C97.4146,100 100.0006,97.414 100.0006,94.235 L100.0006,65.721 C100.0006,62.821 99.3356,60.074 98.1506,57.623 L98.1506,57.623 Z"
              id="icon_kids-bed" fill="#3A4B60"></path>
    </g>
</svg>