<?xml version="1.0" encoding="UTF-8"?>
<svg width="100px" height="100px" viewBox="0 0 100 100" version="1.1" xmlns="http://www.w3.org/2000/svg">
    <title>icon / furniture / kids-high-chair</title>
    <g id="icon-/-furniture-/-kids-high-chair" stroke="none" stroke-width="1" fill="none" fill-rule="evenodd">
        <path d="M35.0046,47.8276 L18.9216,47.8276 C17.8146,47.8276 16.9126,46.9276 16.9126,45.8196 C16.9126,44.7126 17.8146,43.8106 18.9216,43.8106 L82.0776,43.8106 C83.1866,43.8106 84.0866,44.7126 84.0866,45.8196 C84.0866,46.9276 83.1866,47.8276 82.0776,47.8276 L65.9956,47.8276 C58.2236,47.8276 51.8996,54.1516 51.8996,61.9246 L51.8996,63.6406 L49.1006,63.6406 L49.1006,61.9246 C49.1006,54.1516 42.7766,47.8276 35.0046,47.8276 L35.0046,47.8276 Z M35.3506,55.8636 L36.0566,51.7966 C38.8956,52.0906 41.4816,53.5726 43.1826,55.8636 L35.3506,55.8636 Z M45.1876,61.9236 L45.1876,63.6406 L33.9996,63.6406 L34.6706,59.7766 L44.9596,59.7766 C45.1106,60.4786 45.1876,61.1986 45.1876,61.9236 L45.1876,61.9236 Z M32.0936,51.7396 L24.5176,95.3806 C24.4456,95.7896 24.0936,96.0866 23.6796,96.0866 C23.4266,96.0866 23.2056,95.9856 23.0386,95.7966 C22.8726,95.6066 22.8036,95.3736 22.8366,95.1236 L28.6166,51.7396 L32.0936,51.7396 Z M55.8126,61.9236 C55.8126,61.1986 55.8896,60.4786 56.0406,59.7766 L67.6066,59.7766 L68.2776,63.6406 L55.8126,63.6406 L55.8126,61.9236 Z M57.8166,55.8636 C59.7366,53.2656 62.7326,51.7396 65.9956,51.7396 L66.2116,51.7396 L66.9266,55.8636 L57.8166,55.8636 Z M73.6596,51.7406 L79.4406,95.1246 L79.4416,95.1246 C79.4746,95.3736 79.4046,95.6066 79.2376,95.7966 C79.0716,95.9856 78.8506,96.0866 78.5986,96.0866 C78.1836,96.0866 77.8316,95.7896 77.7596,95.3806 L70.1836,51.7406 L73.6596,51.7406 Z M35.7986,39.8986 L38.7596,9.7636 C39.0866,6.4286 41.8606,3.9126 45.2136,3.9126 L55.7866,3.9126 C59.1386,3.9126 61.9136,6.4286 62.2396,9.7636 L65.2006,39.8986 L35.7986,39.8986 Z M86.4596,49.8026 C87.5956,48.5536 88.1336,46.9326 87.9716,45.2386 C87.6866,42.2446 84.9946,39.8986 81.8446,39.8986 L69.1326,39.8986 L66.1356,9.3806 C65.6086,4.0326 61.1606,0.0006 55.7866,0.0006 L45.2136,0.0006 C39.8396,0.0006 35.3916,4.0326 34.8646,9.3806 L31.8676,39.8986 L19.1536,39.8986 C16.0046,39.8986 13.3136,42.2446 13.0276,45.2386 C12.8666,46.9316 13.4026,48.5526 14.5396,49.8016 C15.6586,51.0336 17.2566,51.7406 18.9216,51.7406 L24.6696,51.7406 L18.9726,94.4856 C18.8596,95.3336 18.9296,96.1156 19.1786,96.8086 C19.6176,98.0356 20.5016,99.0106 21.6666,99.5536 C22.3056,99.8496 22.9876,100.0006 23.6756,100.0006 C24.2426,100.0006 24.8136,99.8976 25.3636,99.6936 C26.9306,99.1136 28.0956,97.6426 28.4046,95.8556 L33.3196,67.5536 L68.9566,67.5536 L73.8706,95.8546 C74.1806,97.6426 75.3456,99.1136 76.9116,99.6936 C78.1316,100.1436 79.4426,100.0966 80.6086,99.5536 C81.7736,99.0116 82.6576,98.0366 83.0986,96.8086 C83.3466,96.1146 83.4156,95.3326 83.3036,94.4846 L77.6076,51.7406 L82.0776,51.7406 C83.7426,51.7406 85.3396,51.0336 86.4596,49.8026 L86.4596,49.8026 Z"
              id="icon_kids-high-chair" fill="#3A4B60"></path>
    </g>
</svg>