<?xml version="1.0" encoding="UTF-8"?>
<svg width="100px" height="100px" viewBox="0 0 100 100" version="1.1" xmlns="http://www.w3.org/2000/svg">
    <title>icon / furniture / kitchen-chair</title>
    <g id="icon-/-furniture-/-kitchen-chair" stroke="none" stroke-width="1" fill="none" fill-rule="evenodd">
        <path d="M24.1984,11.6969 C23.4774,11.6969 22.8914,11.1109 22.8914,10.3909 L22.8914,4.1979 C22.8914,3.4779 23.4774,2.8919 24.1984,2.8919 L75.8024,2.8919 C76.5224,2.8919 77.1084,3.4779 77.1084,4.1979 L77.1084,10.3909 C77.1084,11.1109 76.5214,11.6969 75.8024,11.6969 L73.8664,11.6969 L24.1984,11.6969 Z M68.0954,45.9589 L65.2294,45.9589 L69.3514,14.5899 L72.2184,14.5899 L68.0954,45.9589 Z M75.8024,48.8499 C76.5214,48.8499 77.1084,49.4359 77.1084,50.1569 L77.1084,51.8429 C77.1084,52.5619 76.5214,53.1479 75.8024,53.1479 L24.1984,53.1479 C23.4774,53.1479 22.8914,52.5619 22.8914,51.8429 L22.8914,50.1569 C22.8914,49.4359 23.4774,48.8499 24.1984,48.8499 L37.2464,48.8499 L75.8024,48.8499 Z M76.2564,95.2749 C76.5314,96.1829 75.8504,97.1079 74.8954,97.1079 C74.2754,97.1079 73.7174,96.6929 73.5364,96.0979 C68.5844,79.7459 67.2714,63.5499 66.9254,56.0409 L69.7824,56.0409 C70.1454,63.4269 71.4674,79.4599 76.2564,95.2749 L76.2564,95.2749 Z M50.0004,58.9839 C44.4474,58.9839 38.8944,60.7579 35.3914,64.3029 C35.7014,60.9759 35.8744,58.1569 35.9694,56.0409 L64.0304,56.0409 C64.1264,58.1569 64.2994,60.9759 64.6074,64.3029 C61.1054,60.7579 55.5524,58.9839 50.0004,58.9839 L50.0004,58.9839 Z M26.4634,96.0979 C26.2834,96.6929 25.7244,97.1079 25.1044,97.1079 C24.1494,97.1079 23.4684,96.1829 23.7434,95.2749 C28.5334,79.4599 29.8544,63.4259 30.2184,56.0399 L33.0754,56.0399 C32.7274,63.5499 31.4154,79.7459 26.4634,96.0979 L26.4634,96.0979 Z M34.3924,14.5889 L66.4344,14.5889 L62.3134,45.9589 L38.5144,45.9589 L34.3924,14.5889 Z M28.6104,14.5889 L31.4764,14.5889 L35.5974,45.9589 L32.7314,45.9589 L28.6104,14.5889 Z M75.8024,14.5889 C78.1164,14.5889 80.0004,12.7059 80.0004,10.3909 L80.0004,4.1979 C80.0004,1.8839 78.1164,-0.0001 75.8024,-0.0001 L24.1984,-0.0001 C21.8844,-0.0001 20.0004,1.8839 20.0004,4.1979 L20.0004,10.3909 C20.0004,12.7059 21.8844,14.5889 24.1984,14.5889 L25.6934,14.5889 L29.8144,45.9589 L24.1984,45.9589 C21.8844,45.9589 20.0004,47.8419 20.0004,50.1569 L20.0004,51.8429 C20.0004,54.1569 21.8844,56.0399 24.1984,56.0399 L27.3224,56.0399 C26.9564,63.3609 25.6454,79.0159 20.9754,94.4369 C20.1414,97.1889 22.2014,99.9999 25.1044,99.9999 C27.0174,99.9999 28.6764,98.7689 29.2304,96.9359 C32.0264,87.7029 33.6824,78.5249 34.6654,70.8779 C34.7054,70.7959 34.7394,70.7099 34.7634,70.6179 C34.8574,70.2619 37.2194,61.9269 50.0004,61.9269 C62.7814,61.9269 65.1414,70.2619 65.2364,70.6179 C65.2604,70.7099 65.2954,70.7959 65.3354,70.8779 C66.3164,78.5249 67.9724,87.7029 70.7684,96.9359 C71.3244,98.7689 72.9824,99.9999 74.8954,99.9999 C77.7984,99.9999 79.8574,97.1889 79.0244,94.4369 C74.3544,79.0159 73.0444,63.3609 72.6774,56.0409 L75.8024,56.0409 C78.1174,56.0409 80.0004,54.1569 80.0004,51.8429 L80.0004,50.1569 C80.0004,47.8419 78.1164,45.9589 75.8024,45.9589 L71.0124,45.9589 L75.1344,14.5899 L75.8024,14.5889 Z"
              id="icon_kitchen-chair" fill="#3A4B60"></path>
    </g>
</svg>