<?xml version="1.0" encoding="UTF-8"?>
<svg width="100px" height="100px" viewBox="0 0 100 100" version="1.1" xmlns="http://www.w3.org/2000/svg">
    <title>icon / furniture / kitchen-table</title>
    <g id="icon-/-furniture-/-kitchen-table" stroke="none" stroke-width="1" fill="none" fill-rule="evenodd">
        <path d="M2.797,28.055 L97.204,28.055 L97.204,22.797 L2.797,22.797 L2.797,28.055 Z M81.44,77.203 L89.502,77.203 L89.502,74.356 L81.44,74.356 L81.44,77.203 Z M83.25,71.56 L87.692,71.56 L87.692,36.848 L83.25,36.848 L83.25,71.56 Z M12.307,34.051 L87.693,34.051 L87.693,30.851 L12.307,30.851 L12.307,34.051 Z M12.307,71.56 L16.749,71.56 L16.749,36.848 L12.307,36.848 L12.307,71.56 Z M10.497,77.203 L18.559,77.203 L18.559,74.356 L10.497,74.356 L10.497,77.203 Z M97.697,20 L2.303,20 C1.034,20 0,21.023 0,22.28 L0,28.571 C0,29.828 1.034,30.851 2.303,30.851 L9.51,30.851 L9.51,70.62 C8.475,71.858 7.701,72.784 7.701,73.89 L7.701,77.669 C7.701,78.954 8.747,80 10.031,80 L19.025,80 C20.311,80 21.356,78.954 21.356,77.669 L21.356,73.89 C21.356,72.784 20.58,71.858 19.546,71.62 L19.546,36.848 L80.455,36.848 L80.455,71.62 C79.419,71.858 78.644,72.784 78.644,73.89 L78.644,77.669 C78.644,78.954 79.69,80 80.975,80 L89.969,80 C91.254,80 92.299,78.954 92.299,77.669 L92.299,73.89 C92.299,72.784 91.525,71.858 90.49,70.62 L90.49,30.852 L97.697,30.852 C98.967,30.852 100,29.828 100,28.572 L100,22.281 C99.999,21.023 98.966,20 97.697,20 L97.697,20 Z"
              id="icon_ktichen-table" fill="#3A4B60"></path>
    </g>
</svg>