<?xml version="1.0" encoding="UTF-8"?>
<svg width="100px" height="100px" viewBox="0 0 100 100" version="1.1" xmlns="http://www.w3.org/2000/svg">
    <title>icon / furniture / ladder-shelf</title>
    <g id="icon-/-furniture-/-ladder-shelf" stroke="none" stroke-width="1" fill="none" fill-rule="evenodd">
        <path d="M75.136,85.4109 C75.136,85.9839 74.669,86.4519 74.095,86.4519 L26.048,86.4519 C25.474,86.4519 24.864,85.9839 24.864,85.4109 L24.864,85.2069 C24.864,84.6329 25.473,84.1659 26.048,84.1659 L74.095,84.1659 C74.669,84.1659 75.136,84.6329 75.136,85.2069 L75.136,85.4109 Z M71.709,96.3309 C71.761,96.9839 71.345,97.5799 70.801,97.6319 C70.515,97.6599 70.296,97.5329 70.163,97.4229 C69.923,97.2209 69.768,96.9039 69.74,96.5569 L69.115,88.8149 L71.099,88.8149 L71.709,96.3309 Z M30.015,88.8149 L29.344,96.5569 C29.316,96.9039 29.162,97.2209 28.92,97.4229 C28.788,97.5329 28.571,97.6599 28.283,97.6319 C27.74,97.5799 27.323,96.9839 27.376,96.3309 L28.028,88.8149 L30.015,88.8149 Z M29.607,70.6259 L31.593,70.6259 L30.624,81.8019 L28.637,81.8019 L29.607,70.6259 Z M66.185,81.8019 L32.996,81.8019 L33.965,70.6259 L65.289,70.6259 L66.185,81.8019 Z M26.584,68.2629 C26.01,68.2629 25.544,67.7949 25.544,67.2219 L25.544,67.0169 C25.544,66.4429 26.01,65.9769 26.584,65.9769 L72.67,65.9769 C73.244,65.9769 73.711,66.4429 73.711,67.0169 L73.711,67.2219 C73.711,67.7949 73.244,68.2629 72.67,68.2629 L26.584,68.2629 Z M33.049,52.4279 L32.154,63.6129 L30.168,63.6129 L31.062,52.4279 L33.049,52.4279 Z M64.728,63.6129 L34.526,63.6129 L35.42,52.4279 L63.834,52.4279 L64.728,63.6129 Z M69.086,63.6129 L67.1,63.6129 L66.206,52.4279 L68.192,52.4279 L69.086,63.6129 Z M27.694,50.0639 C27.12,50.0639 26.653,49.5979 26.653,49.0229 L26.653,48.8189 C26.653,48.2459 27.119,47.7779 27.694,47.7779 L71.561,47.7779 C72.134,47.7779 72.601,48.2459 72.601,48.8189 L72.601,49.0229 C72.601,49.5979 72.134,50.0639 71.561,50.0639 L27.694,50.0639 Z M34.504,34.2299 L33.61,45.4149 L31.623,45.4149 L32.518,34.2299 L34.504,34.2299 Z M63.273,45.4149 L35.981,45.4149 L36.875,34.2299 L62.378,34.2299 L63.273,45.4149 Z M67.631,45.4149 L65.645,45.4149 L64.75,34.2299 L66.736,34.2299 L67.631,45.4149 Z M28.951,31.8649 C28.377,31.8649 27.911,31.3979 27.911,30.8249 L27.911,30.6209 C27.911,30.0479 28.377,29.5809 28.951,29.5809 L70.303,29.5809 C70.876,29.5809 71.343,30.0479 71.343,30.6209 L71.343,30.8249 C71.343,31.3979 70.876,31.8649 70.303,31.8649 L28.951,31.8649 Z M35.959,16.0309 L35.065,27.2169 L33.078,27.2169 L33.973,16.0309 L35.959,16.0309 Z M61.818,27.2169 L37.436,27.2169 L38.331,16.0309 L60.923,16.0309 L61.818,27.2169 Z M66.176,27.2169 L64.189,27.2169 L63.295,16.0309 L65.281,16.0309 L66.176,27.2169 Z M30.879,13.6679 C30.305,13.6679 29.838,13.1999 29.838,12.6269 L29.838,12.4229 C29.838,11.8479 30.305,11.3829 30.879,11.3829 L68.376,11.3829 C68.949,11.3829 69.416,11.8479 69.416,12.4229 L69.416,12.6269 C69.416,13.1999 68.949,13.6679 68.376,13.6679 L30.879,13.6679 Z M34.98,3.4439 C35.008,3.0959 35.162,2.7799 35.403,2.5779 C35.535,2.4669 35.754,2.3409 36.041,2.3679 C36.585,2.4199 37,3.0159 36.948,3.6689 L36.52,9.0179 L34.534,9.0179 L34.98,3.4439 Z M63.214,2.3679 C63.502,2.3409 63.719,2.4669 63.85,2.5779 C64.092,2.7799 64.247,3.0959 64.275,3.4439 L64.72,9.0179 L62.734,9.0179 L62.306,3.6699 C62.254,3.0159 62.67,2.4199 63.214,2.3679 L63.214,2.3679 Z M68.557,81.8019 L67.661,70.6259 L69.647,70.6259 L70.544,81.8019 L68.557,81.8019 Z M73.993,81.8029 L72.915,81.8029 L72.019,70.6259 L72.67,70.6259 C74.551,70.6259 76.075,69.1009 76.075,67.2209 L76.075,67.0169 C76.075,65.1369 74.551,63.6129 72.671,63.6129 L71.458,63.6129 L70.563,52.4279 L71.56,52.4279 C73.441,52.4279 74.965,50.9029 74.965,49.0229 L74.965,48.8189 C74.965,46.9389 73.441,45.4149 71.561,45.4149 L70.003,45.4149 L69.108,34.2289 L70.303,34.2289 C72.183,34.2289 73.707,32.7049 73.707,30.8249 L73.707,30.6209 C73.707,28.7409 72.183,27.2169 70.303,27.2169 L68.548,27.2169 L67.653,16.0309 L68.376,16.0309 C70.256,16.0309 71.781,14.5069 71.781,12.6269 L71.781,12.4229 C71.781,10.5429 70.256,9.0179 68.376,9.0179 L67.093,9.0179 L66.632,3.2559 C66.553,2.2799 66.094,1.3729 65.37,0.7649 C64.694,0.1989 63.849,-0.0681 62.989,0.0149 C61.158,0.1889 59.794,1.9139 59.949,3.8579 L60.363,9.0179 L38.892,9.0179 L39.304,3.8579 C39.46,1.9139 38.096,0.1889 36.265,0.0149 C35.407,-0.0681 34.56,0.1989 33.885,0.7649 C33.16,1.3729 32.701,2.2799 32.623,3.2559 L32.162,9.0179 L30.878,9.0179 C28.998,9.0179 27.473,10.5419 27.473,12.4229 L27.473,12.6269 C27.473,14.5069 28.998,16.0309 30.878,16.0309 L31.601,16.0309 L30.707,27.2159 L28.951,27.2159 C27.071,27.2159 25.547,28.7399 25.547,30.6209 L25.547,30.8249 C25.547,32.7049 27.071,34.2289 28.951,34.2289 L30.145,34.2289 L29.251,45.4139 L27.694,45.4139 C25.813,45.4139 24.288,46.9379 24.288,48.8189 L24.288,49.0229 C24.288,50.9029 25.813,52.4279 27.694,52.4279 L28.69,52.4279 L27.796,63.6129 L26.583,63.6129 C24.703,63.6129 23.179,65.1369 23.179,67.0169 L23.179,67.2209 C23.179,69.1009 24.703,70.6259 26.584,70.6259 L27.235,70.6259 L26.265,81.8019 L25.905,81.8019 C24.024,81.8019 22.5,83.3259 22.5,85.2069 L22.5,85.4099 C22.5,87.1549 23.967,88.5809 25.659,88.7759 L25.019,96.1419 C24.864,98.0859 26.227,99.8099 28.058,99.9849 C28.16,99.9949 28.262,99.9999 28.364,99.9999 C29.116,99.9999 29.844,99.7339 30.44,99.2339 C31.163,98.6279 31.622,97.7199 31.7,96.7449 L32.388,88.8149 L66.749,88.8149 L67.384,96.7449 C67.462,97.7199 67.922,98.6279 68.645,99.2339 C69.24,99.7329 69.968,99.9999 70.72,99.9999 C70.822,99.9999 70.925,99.9949 71.026,99.9849 C72.858,99.8099 74.22,98.0859 74.065,96.1419 L73.476,88.8149 L73.993,88.8149 C75.929,88.8149 77.5,87.2449 77.5,85.3079 C77.5,83.3719 75.93,81.8029 73.993,81.8029 L73.993,81.8029 Z"
              id="icon_ladder-shelf" fill="#3A4B60"></path>
    </g>
</svg>