<?xml version="1.0" encoding="UTF-8"?>
<svg width="100px" height="100px" viewBox="0 0 100 100" version="1.1" xmlns="http://www.w3.org/2000/svg">
    <title>icon / furniture / lawnmower</title>
    <g id="icon-/-furniture-/-lawnmower" stroke="none" stroke-width="1" fill="none" fill-rule="evenodd">
        <path d="M4.1738,20.3962 L11.7318,20.3982 C12.2088,20.3982 12.6558,20.6292 12.9328,21.0172 L20.6478,31.8742 C20.6698,31.9012 20.6958,31.9242 20.7178,31.9542 L29.5238,44.3232 C30.1098,44.2272 30.7078,44.1752 31.3148,44.1752 L31.4158,44.1752 L32.4288,44.1852 L13.7538,17.9522 L4.1738,17.9492 C3.4988,17.9492 2.9498,18.4982 2.9498,19.1722 C2.9498,19.8472 3.4988,20.3962 4.1738,20.3962 L4.1738,20.3962 Z M26.1258,49.0332 C34.4658,50.5692 40.8038,57.8932 40.8038,66.6702 C40.8038,67.2552 40.7758,67.8342 40.7198,68.4062 L69.8618,68.4062 C70.2518,64.4132 72.2008,60.8822 75.0878,58.4142 L55.7788,50.6722 C50.1448,48.4152 44.2098,47.2422 38.1408,47.1862 L31.3898,47.1252 C29.4448,47.1082 27.5948,47.7832 26.1258,49.0332 L26.1258,49.0332 Z M22.8698,51.6842 C14.6078,51.6842 7.8858,58.4072 7.8858,66.6702 C7.8858,74.9332 14.6078,81.6552 22.8698,81.6552 C31.1328,81.6552 37.8558,74.9332 37.8558,66.6702 C37.8558,58.4072 31.1328,51.6842 22.8698,51.6842 L22.8698,51.6842 Z M72.8198,69.8802 C72.8198,76.5442 78.2418,81.9662 84.9068,81.9662 C84.9948,81.9662 85.0808,81.9612 85.1678,81.9592 C89.3258,81.8492 93.2048,79.5922 95.3228,76.0032 C97.6768,72.0192 97.4718,66.9592 94.9018,63.1222 C94.3808,62.3462 93.7718,61.6292 93.0838,60.9972 C89.6048,57.7932 84.3588,56.9082 80.0338,58.8192 C76.2098,60.5102 73.4578,64.1692 72.9208,68.3202 C72.8538,68.8372 72.8198,69.3592 72.8198,69.8802 L72.8198,69.8802 Z M70.1048,46.9962 C70.1048,45.1632 68.6138,43.6722 66.7808,43.6722 L48.5548,43.6722 C47.5148,43.6722 46.5848,44.1542 45.9748,44.9032 C49.6958,45.5072 53.3418,46.5182 56.8758,47.9352 L70.1048,53.2392 L70.1048,46.9962 Z M62.2508,39.0242 C62.2508,38.8452 62.1058,38.7012 61.9268,38.7012 L53.4078,38.7012 C53.2298,38.7012 53.0848,38.8452 53.0848,39.0242 L53.0848,40.7232 L62.2508,40.7232 L62.2508,39.0242 Z M4.1738,14.9997826 L14.4358,15.0012 C14.5398,14.9972 14.6458,15.0012 14.7498,15.0192 C15.1388,15.0822 15.4858,15.2982 15.7138,15.6202 L36.0728,44.2182 L38.1668,44.2372 C39.7228,44.2512 41.2698,44.3362 42.8058,44.4892 C43.7758,42.2742 45.9868,40.7232 48.5548,40.7232 L50.1348,40.7232 L50.1348,39.0242 C50.1348,37.2182 51.6038,35.7502 53.4078,35.7502 L61.9268,35.7502 C63.7318,35.7502 65.1988,37.2182 65.1988,39.0242 L65.1988,40.7232 L66.7808,40.7232 C70.2398,40.7232 73.0548,43.5372 73.0548,46.9962 L73.0548,54.4202 L78.0658,56.4292 C80.1178,55.3862 82.4338,54.7862 84.8938,54.7862 C93.2368,54.7862 99.9998,61.5492 99.9998,69.8932 C99.9998,78.2362 93.2368,85.0002 84.8938,85.0002 C77.0428,85.0002 70.5958,79.0112 69.8608,71.3552 L40.1818,71.3552 C38.1168,78.9792 31.1388,84.6042 22.8698,84.6042 C12.9818,84.6042 4.9358,76.5592 4.9358,66.6702 C4.9358,56.9352 12.7328,48.9872 22.4088,48.7422 C22.7628,48.2522 23.1558,47.7872 23.5938,47.3542 C24.4758,46.4802 25.4798,45.7762 26.5658,45.2532 L20.0238,36.0642 C19.9948,36.0322 19.9628,36.0022 19.9378,35.9662 L10.9708,23.3472 L4.1738,23.3452 C1.8728,23.3452 -0.0002,21.4732 -0.0002,19.1722 C-0.0002,16.8722 1.8728,14.9997826 4.1738,14.9997826 L4.1738,14.9997826 Z M81.1588,69.8802 C81.1588,71.9462 82.8398,73.6272 84.9068,73.6272 C86.9738,73.6272 88.6548,71.9472 88.6548,69.8802 C88.6548,67.8132 86.9728,66.1322 84.9068,66.1322 C82.8398,66.1322 81.1588,67.8132 81.1588,69.8802 L81.1588,69.8802 Z M84.9068,63.1832 C88.5998,63.1832 91.6048,66.1872 91.6048,69.8802 C91.6048,73.5732 88.5998,76.5782 84.9068,76.5782 C81.2138,76.5782 78.2098,73.5732 78.2098,69.8802 C78.2098,66.1872 81.2138,63.1832 84.9068,63.1832 L84.9068,63.1832 Z M22.8698,71.5352 C25.5518,71.5352 27.7348,69.3522 27.7348,66.6702 C27.7348,63.9882 25.5518,61.8062 22.8698,61.8062 C20.1888,61.8062 18.0068,63.9882 18.0068,66.6702 C18.0068,69.3522 20.1888,71.5352 22.8698,71.5352 L22.8698,71.5352 Z M22.8698,58.8562 C27.1788,58.8562 30.6838,62.3612 30.6838,66.6702 C30.6838,70.9792 27.1788,74.4842 22.8698,74.4842 C18.5618,74.4842 15.0568,70.9792 15.0568,66.6702 C15.0568,62.3612 18.5618,58.8562 22.8698,58.8562 L22.8698,58.8562 Z"
              id="icon_lawnmower" fill="#3A4B60"></path>
    </g>
</svg>