<?xml version="1.0" encoding="UTF-8"?>
<svg width="100px" height="100px" viewBox="0 0 100 100" version="1.1" xmlns="http://www.w3.org/2000/svg">
    <title>icon / furniture / long-cleaning-tools</title>
    <g id="icon-/-furniture-/-long-cleaning-tools" stroke="none" stroke-width="1" fill="none" fill-rule="evenodd">
        <path d="M92.461,75.6772 L87.797,72.5312 C87.281,72.1832 86.581,72.3202 86.232,72.8352 C85.884,73.3512 86.021,74.0522 86.536,74.4002 L90.837,77.3012 L84.865,83.2732 L81.112,79.5202 C80.672,79.0792 79.958,79.0792 79.518,79.5202 C79.078,79.9602 79.077,80.6742 79.518,81.1142 L83.271,84.8662 L77.299,90.8392 L74.398,86.5382 C74.05,86.0232 73.349,85.8862 72.833,86.2352 C72.317,86.5832 72.181,87.2832 72.529,87.7992 L75.675,92.4632 L71.149,96.9902 L62.007,83.4022 L83.401,62.0072 L96.989,71.1492 L92.461,75.6772 Z M59.339,80.4512 C58.606,79.7182 58.606,78.5252 59.339,77.7912 L77.791,59.3392 C78.524,58.6062 79.718,58.6062 80.451,59.3392 L81.666,60.5542 L60.554,81.6662 L59.339,80.4512 Z M62.13,68.2262 C61.982,68.0782 61.982,67.8392 62.13,67.6922 L67.692,62.1292 C67.839,61.9832 68.078,61.9832 68.226,62.1292 L70.019,63.9232 L63.923,70.0192 L62.13,68.2262 Z M51.696,54.8132 L54.814,51.6972 L64.875,61.7582 L61.759,64.8742 L51.696,54.8132 Z M3.023,3.0232 C3.882,2.1632 5.279,2.1632 6.139,3.0232 L48.304,45.1872 L45.188,48.3032 L3.023,6.1392 C2.163,5.2802 2.163,3.8812 3.023,3.0232 L3.023,3.0232 Z M46.602,59.9092 L45.858,61.7612 L45.304,61.2072 L46.602,59.9092 Z M11.562,67.4152 L13.94,65.0372 L34.964,86.0612 L32.586,88.4392 L11.562,67.4152 Z M8.892,66.5252 C8.401,67.0162 8.401,67.8142 8.892,68.3062 L31.695,91.1092 C32.187,91.5982 32.983,91.5982 33.476,91.1092 L34.884,89.7002 L35.119,89.9372 C36.015,90.8312 36.015,92.2852 35.119,93.1802 L31.485,96.8142 C30.593,97.7092 29.138,97.7102 28.243,96.8142 L3.188,71.7582 C2.292,70.8642 2.292,69.4092 3.188,68.5152 L6.821,64.8812 C7.252,64.4482 7.829,64.2102 8.442,64.2102 C9.056,64.2102 9.631,64.4482 10.064,64.8812 L10.301,65.1172 L8.892,66.5252 Z M38.32,64.6312 L31.376,71.5752 L28.425,68.6252 L35.369,61.6802 L38.32,64.6312 Z M24.934,69.1222 L24.972,69.0872 C25.07,68.9882 25.231,68.9892 25.327,69.0872 L30.913,74.6732 C30.961,74.7202 30.987,74.7832 30.987,74.8522 C30.987,74.9192 30.961,74.9822 30.913,75.0292 L29.202,76.7412 L23.259,70.7982 L24.934,69.1222 Z M42.653,65.4042 L34.597,57.3482 C34.144,56.8952 34.144,56.1572 34.597,55.7042 C34.815,55.4852 35.107,55.3652 35.418,55.3652 C35.731,55.3652 36.023,55.4852 36.24,55.7042 L44.297,63.7602 C44.751,64.2132 44.751,64.9502 44.297,65.4042 C43.846,65.8572 43.107,65.8592 42.653,65.4042 L42.653,65.4042 Z M48.274,54.6762 L43.524,59.4272 L40.573,56.4772 L45.324,51.7262 L48.274,54.6762 Z M38.239,54.1432 L40.091,53.4002 L38.794,54.6972 L38.239,54.1432 Z M53.644,43.4062 L93.924,3.1262 C94.736,2.3122 96.062,2.3122 96.874,3.1262 C97.689,3.9402 97.689,5.2632 96.874,6.0762 L56.594,46.3572 L53.644,43.4062 Z M50.055,52.8972 L47.104,49.9462 L51.863,45.1862 L54.815,48.1362 L50.055,52.8972 Z M83.981,59.6802 L82.046,57.7442 C80.433,56.1322 77.809,56.1322 76.196,57.7442 L71.612,62.3282 L69.819,60.5352 C68.92,59.6362 67.527,59.5262 66.506,60.2012 L56.407,50.1032 L98.655,7.8562 C100.448,6.0622 100.448,3.1412 98.655,1.3472 L98.654,1.3462 C96.859,-0.4488 93.939,-0.4488 92.144,1.3462 L49.898,43.5932 L7.732,1.4282 C5.995,-0.3098 3.166,-0.3098 1.429,1.4282 C-0.31,3.1662 -0.31,5.9942 1.429,7.7332 L43.155,49.4592 C39.852,50.7842 33.992,53.1342 33.981,53.1392 C33.545,53.3242 33.153,53.5882 32.816,53.9232 C32.123,54.6182 31.741,55.5412 31.741,56.5262 C31.741,57.5102 32.123,58.4342 32.816,59.1282 L33.59,59.9012 L26.59,66.9012 C25.506,66.2412 24.094,66.4042 23.191,67.3062 L21.48,69.0192 L14.829,62.3672 C14.338,61.8792 13.54,61.8772 13.05,62.3672 L12.08,63.3372 L11.844,63.1022 C10.937,62.1942 9.729,61.6942 8.441,61.6942 C7.155,61.6942 5.947,62.1942 5.04,63.1012 L1.407,66.7352 C0.5,67.6412 0,68.8492 0,70.1362 C0,71.4232 0.5,72.6302 1.406,73.5372 L26.463,98.5942 C27.401,99.5322 28.633,100.0002 29.865,100.0002 C31.097,100.0002 32.328,99.5322 33.267,98.5942 L36.9,94.9602 C37.807,94.0532 38.307,92.8452 38.307,91.5582 C38.307,90.2722 37.807,89.0642 36.9,88.1572 L36.663,87.9202 L37.632,86.9512 C37.87,86.7142 38.001,86.3982 38.001,86.0622 C38.001,85.7262 37.87,85.4092 37.633,85.1702 L30.982,78.5212 L32.693,76.8102 C33.596,75.9062 33.76,74.4932 33.1,73.4092 L40.1,66.4102 L40.872,67.1832 C41.566,67.8782 42.49,68.2602 43.475,68.2602 C44.458,68.2602 45.383,67.8782 46.077,67.1832 C46.412,66.8472 46.677,66.4552 46.857,66.0262 C46.859,66.0232 46.868,66.0022 50.54,56.8452 L60.201,66.5062 C59.525,67.5282 59.637,68.9212 60.535,69.8202 L62.328,71.6132 L57.744,76.1972 C56.132,77.8102 56.132,80.4332 57.744,82.0462 L59.68,83.9812 L70.042,99.3842 C70.433,99.9642 71.281,100.0452 71.774,99.5522 L99.552,71.7752 C100.045,71.2812 99.964,70.4332 99.384,70.0422 L83.981,59.6802 Z"
              id="icon_long-cleaning-tools" fill="#3A4B60"></path>
    </g>
</svg>