<?xml version="1.0" encoding="UTF-8"?>
<svg width="100px" height="100px" viewBox="0 0 100 100" version="1.1" xmlns="http://www.w3.org/2000/svg">
    <title>icon / furniture / massage-table</title>
    <g id="icon-/-furniture-/-massage-table" stroke="none" stroke-width="1" fill="none" fill-rule="evenodd">
        <path d="M20.819,57.036 C20.714,57.036 20.653,56.958 20.651,56.779 C20.651,56.723 20.65,56.667 20.65,56.61 L20.65,47.338 C20.65,46.871 20.665,46.855 21.117,46.855 L29.428,46.855 L41.788,46.855 C41.788,46.855 22.623,56.192 21.003,56.983 C20.932,57.017 20.87,57.036 20.819,57.036 L20.819,57.036 Z M12.491,81.389 L12.488,46.854 L17.004,46.86 L17.009,81.389 L12.491,81.389 Z M79.234,57.341 C79.169,57.341 79.07,57.301 78.922,57.23 C77.91,56.752 57.59,46.859 57.59,46.859 C57.59,46.859 72.051,46.857 78.942,46.85 L78.943,46.85 C79.27,46.85 79.365,46.969 79.3640078,47.286 C79.355,50.501 79.359,53.715 79.358,56.93 C79.358,57.222 79.345,57.341 79.234,57.341 L79.234,57.341 Z M83.002,81.389 L82.995,46.839 L87.515,46.861 L87.521,81.389 L83.002,81.389 Z M90.711,32.682 L90.712,32.663 L91.146,32.663 C94.216,32.663 96.679,35.309 96.374,38.44 C96.108,41.17 93.654,43.169 90.912,43.169 L8.853,43.169 C8.13,43.169 7.439,43.022 6.811,42.756 C6.81,42.756 6.808,42.755 6.807,42.754 C6.519,42.632 6.249,42.479 5.99,42.309 C5.862,42.223 5.74,42.122 5.617,42.022 C4.398,41.059 3.599,39.586 3.599,37.916 C3.599,35.417 5.358,33.327 7.7,32.799 L7.732,32.845 C8.298,32.722 8.891,32.691 9.473,32.684 C9.674,32.682 11.049,32.68 13.296,32.679 C13.481,32.689 13.665,32.706 13.853,32.706 L13.853,32.678 C19.116,32.675 28.539,32.673 39.048,32.673 L41.727,32.673 L41.726,32.706 L86.146,32.706 C86.322,32.706 86.494,32.69 86.667,32.681 C88.532,32.681 89.925,32.682 90.711,32.682 L90.711,32.682 Z M13.42,29.062 C10.517,28.82 8.269,26.237 8.64,23.196 C8.965,20.528 11.376,18.599 14.064,18.599 L26.146,18.599 C29.043,18.599 31.4,20.956 31.4,23.853 L31.415,23.853 L31.415,29.062 L13.42,29.062 Z M35.014,29.062 L35.014,23.852 C35.014,20.952 37.367,18.599 40.268,18.599 L85.935,18.599 C88.624,18.599 91.034,20.528 91.359,23.196 C91.731,26.237 89.482,28.82 86.58,29.062 L35.014,29.062 Z M86.146,15 L40.268,15 C37.381,15 34.823,16.389 33.207,18.528 C31.591,16.389 29.034,15 26.146,15 L13.853,15 C8.964,15 5,18.964 5,23.853 C5,25.906 5.705,27.79 6.877,29.292 C2.94,30.19 -3.30402372e-13,33.707 -3.30402372e-13,37.916 C-3.30402372e-13,41.646 2.31,44.832 5.576,46.136 L5.578,46.179 C6.61,46.604 7.715,46.765 8.838,46.842 C8.836,54.741 8.832,62.641 8.831,70.541 C8.831,73.802 8.827,79.557 8.848,82.816 C8.851,83.22 8.934,83.654 9.102,84.018 C9.441,84.754 10.119,84.992 10.882,84.994 C12.074,84.997 13.264,84.999 14.455,84.999 C15.839,84.999 17.223,84.996 18.607,84.988 C18.935,84.986 19.288,84.926 19.586,84.794 C20.369,84.446 20.616,83.744 20.644,82.953 C20.67,82.245 20.657,81.536 20.657,80.828 C20.657,75.251 20.659,67.181 20.648,61.604 C20.648,61.288 20.753,61.105 21.029,60.976 C21.768,60.629 47.07,48.315 49.462,47.167 C49.528,47.135 49.616,47.117 49.701,47.117 C49.763,47.117 49.825,47.127 49.873,47.149 C50.715,47.542 78.313,60.89 79.036,61.186 C79.249,61.273 79.38,61.386 79.36,61.631 C79.351,61.743 79.359,61.855 79.359,61.968 C79.359,68.062 79.354,76.65 79.369,82.744 C79.37,83.159 79.443,83.604 79.607,83.981 C79.937,84.737 80.619,84.992 81.398,84.994 C82.589,84.997 83.779,85 84.969,85 C86.354,85 87.739,84.997 89.123,84.987 C89.461,84.985 89.826,84.919 90.131,84.778 C90.936,84.406 91.168,83.672 91.17,82.855 C91.177,79.182 91.175,51.341 91.173,47.451 C91.173,47.339 91.141,47.211 91.184,47.118 C91.236,47.007 91.337,46.872 91.443,46.842 C91.7,46.769 91.972,46.73 92.24,46.715 L92.237,46.695 C96.611,46.156 100,42.435 100,37.916 C100,33.705 97.054,30.197 93.115,29.302 C94.292,27.799 95,25.91 95,23.853 L95,23.852 C95,18.964 91.036,15 86.146,15 L86.146,15 Z"
              id="icon_massage-table" fill="#3A4B60"></path>
    </g>
</svg>