<?xml version="1.0" encoding="UTF-8"?>
<svg width="100px" height="100px" viewBox="0 0 100 100" version="1.1" xmlns="http://www.w3.org/2000/svg">
    <title>icon / furniture / mattress</title>
    <g id="icon-/-furniture-/-mattress" stroke="none" stroke-width="1" fill="none" fill-rule="evenodd">
        <path d="M18.1843,26.0342 C18.5803,25.9522 18.9823,25.8912 19.3713,25.7842 C21.0553,25.3172 22.2713,23.5292 22.0993,21.7942 C22.0143,20.9322 21.0963,20.3472 20.2803,20.6002 C19.5953,20.8132 19.3013,21.3042 19.1933,21.9602 C19.1643,22.1302 19.1533,22.3122 19.0803,22.4632 C18.8743,22.8932 18.4733,23.0822 17.9713,23.0202 C17.5573,22.9692 17.2653,22.6822 17.1543,22.2252 C17.0783,21.9152 17.0473,21.5772 16.9023,21.3032 C16.5803,20.6972 15.8733,20.4082 15.3043,20.5812 C14.5453,20.8132 14.1353,21.3862 14.1743,22.1582 C14.2873,24.3292 16.0013,25.9682 18.1843,26.0342 M34.4563,26.0302 C34.8413,25.9522 35.2343,25.9002 35.6113,25.7932 C37.3173,25.3072 38.3693,23.8082 38.4483,22.1162 C38.4883,21.2622 37.8653,20.5752 37.0513,20.5372 C36.3193,20.5032 35.5663,21.0742 35.5263,21.9362 C35.4943,22.6152 35.0533,23.0312 34.4553,23.0292 C33.8473,23.0272 33.4643,22.6222 33.4083,21.9222 C33.3423,21.1232 32.6713,20.5062 31.8973,20.5332 C31.1153,20.5602 30.4883,21.2112 30.4753,22.0102 C30.4433,24.1502 32.2623,25.9672 34.4563,26.0302 M33.7023,43.7682 C35.5733,43.3662 36.8203,41.7892 36.9073,39.8962 C36.8993,39.4302 36.7133,38.9452 36.2133,38.6432 C35.7083,38.3392 35.1713,38.3282 34.6653,38.6392 C34.2293,38.9082 34.0123,39.3182 33.9753,39.8412 C33.9153,40.6812 33.1953,41.1302 32.4543,40.7972 C32.0023,40.5952 31.8803,40.1902 31.8483,39.7332 C31.8053,39.1282 31.2893,38.5502 30.7303,38.4562 C29.9953,38.3332 29.3843,38.6312 29.0853,39.2362 C28.7493,39.9152 28.9413,40.5822 29.1683,41.2182 C29.8383,43.0882 31.8513,44.1672 33.7023,43.7682 M33.6863,35.0072 C34.2413,34.8552 34.8253,34.7692 35.3453,34.5392 C36.8283,33.8822 37.6793,32.4452 37.6703707,30.9162 C37.6653,30.0862 36.9733,29.4642 36.1503,29.4651988 C35.4353,29.4662 34.7563,30.2072 34.7393,30.8772 C34.7143,31.8022 33.8633,32.2632 33.1243,31.7972 C32.7553,31.5632 32.6573,31.1942 32.6263,30.7772 C32.5823,30.1602 32.0263,29.5842 31.4223,29.4882 C30.7803,29.3862 30.1303,29.7292 29.8593,30.3012 C29.6013,30.8432 29.7103,31.3762 29.8383,31.9282 C30.2323,33.6312 31.8723,34.9092 33.6863,35.0072 M16.9973,34.9212039 C17.6833,34.9202 18.4133,34.7142 19.0413,34.3442 C20.3243,33.5892 21.1263,32.0232 20.9303,30.6572 C20.8063,29.7932 19.7713,29.2312 18.9763,29.5762 C18.3103,29.8652 18.0763,30.4082 17.9983,31.0742 C17.9413,31.5852 17.5253,31.9642 17.0353,31.9872 C16.5313,32.0102 16.0923,31.6482 15.9873,31.1242 C15.9453,30.9172 15.9063,30.7102 15.8543,30.5072 C15.7143,29.9582 15.1903,29.5212 14.6263,29.4772 C13.6903,29.4042 13.0113,30.0692 13.0233,31.0492 C13.0493,33.1872 14.8313,34.9242 16.9973,34.9212039 M97.0283,57.3382 C96.5583,57.6002 96.1613,57.8462 95.7423,58.0502 C94.8553,58.4822 93.9203,58.7572 92.9263,58.7712 C92.0213,58.7852 18.3563,58.7762 7.8543,58.7882 C6.5413,58.7892 5.2923,58.5862 4.1213,57.9902 C3.7523,57.8032 3.4083,57.5712 2.9823,57.3182 C2.9703,57.5342 2.9573,66.3522 2.9513,68.9632 C2.9763,70.9062 3.8623,72.3472 5.6203,73.1662 C6.2483,73.4592 7.0093,73.5872 7.7093,73.5882 C19.6133,73.6122 87.3253,73.6102 92.1853,73.6052 C93.4083,73.6042 94.5413,73.3192 95.4843,72.4862 C96.4813,71.6042 97.0443,70.4922 97.0573,69.1652 C97.0853,66.0172 97.0453,57.5052 97.0283,57.3382 M97.0593,75.7372 C97.0613,75.6672 97.0273,75.1802 97.0033,75.0852 C96.9003,75.1412 96.8113,75.1792 96.7323,75.2332 C95.4013,76.1412 93.9183,76.5392 92.3193,76.5392 C80.7893,76.5412 13.8673,76.5462 7.7053,76.5432 C6.7203,76.5432 5.7493,76.4222 4.8403,76.0182 C4.2243,75.7452 3.6263,75.4312 2.9503,75.1012 C2.9503,75.8342 2.9363,76.9662 2.9533,77.6812 C2.9823,78.8612 3.4403,79.8712 4.2573,80.7072 C5.1663,81.6382 6.2903,82.0702 7.5953,82.0692 C17.0553,82.0622 73.4903,82.0632 92.2473,82.0722 C92.9923,82.0722 93.7053,81.9782 94.3803,81.6682 C95.6663,81.0762 96.5023,80.0982 96.8963,78.7302 C97.1813,77.7402 97.0253,76.7352 97.0593,75.7372 M2.9503,51.3362 C2.9653,52.6552 3.4623,53.7662 4.4273,54.6602 C5.3893,55.5512 6.5453,55.8442 7.8403,55.8432 C20.5743,55.8302 91.8933,55.8792 92.6823,55.8172 C93.2403,55.7732 93.8183,55.6662 94.3303,55.4512 C95.6893,54.8812 96.6223,53.8572 96.8903,52.4022 C97.0683,51.4402 97.0103,50.4352 97.0543948,49.4492 C97.0563,49.4032 97.0263,49.3562 96.9973,49.2682 C96.8963,49.3262 96.8303,49.3592 96.7713,49.4002 C95.3963,50.3372 93.8663,50.7332 92.2153,50.7332 C82.9153,50.7332 9.9993,50.7452 7.3343,50.7162 C6.3023,50.7052 5.2943,50.4882 4.3603,50.0202 C3.9113,49.7962 3.4753,49.5452 2.9883,49.2822 C2.9733,49.4412 2.9513,49.5712 2.9503,49.7002 C2.94610093,50.2452 2.9433,50.7912 2.9503,51.3362 M2.97184876,43.3602 C2.9413,45.4152 4.5113,47.2782 6.5333,47.6592 C6.9923,47.7462 7.4653,47.7982 7.9333,47.7982 C27.4253,47.8052021 83.5943,47.8032 92.1873,47.8052021 C93.5423,47.8062 94.7663,47.4462 95.7253,46.4542 C96.8483,45.2922 97.3113,43.9072 96.9493,42.3012 C96.6033,40.7692 92.4473,23.5362 92.1823,22.3162 C91.8903,20.9712 91.4433,19.7252 90.2733,18.8662 C89.5013,18.2992 88.6483,17.9742 87.6923,17.9582 C86.9893,17.9462 34.4603,17.9552 13.0093,17.9481925 C12.0383,17.9472 11.1033,18.0452 10.2503,18.5362 C9.0473,19.2302 8.3273,20.2762 8.0143,21.6262 C7.7303,22.8542 2.9833,42.6412 2.97184876,43.3602 M99.9943,77.4742 C99.9913,80.2532 98.7543,82.3862 96.4403,83.8912 C95.3723,84.5852 94.1753,84.9662 92.9023,84.9782 C89.9383,85.0082 16.1243,84.9892 7.7173,85.0002081 C5.3643,85.0032 3.3933,84.1732 1.8333,82.4162 C0.9913,81.4672 0.4183,80.3552 0.1963,79.0992 C0.0773,78.4242 0.0163,77.7302 0.0123,77.0442 C-0.0047,73.7222 -0.0067,47.0082 0.0283,42.8332 C0.0353,42.0112 0.3103,41.1882 0.4913,40.3712 C0.7033,39.4182 4.7003,22.8082 5.0263,21.5532 C5.2143,20.8252 5.3873,20.0812 5.6853,19.3952 C6.3793,17.7972 7.5453,16.6122 9.1003,15.8192 C10.2483,15.2332 11.4713,15.0142 12.7583,15.0142 C29.0513,15.0252 87.1123,14.9532 88.1963,15.0572 C90.8583,15.3132 92.8533,16.6502 94.1493,19.0052 C94.6633,19.9392 94.8723,20.9732 95.1203,21.9922 C95.4163,23.2052 99.6333,40.6932 99.8153,41.6882 C99.9383,42.3632 99.9903,43.0582 99.9913,43.7452 C99.9997342,54.1822 100.0033,67.0362 99.9943,77.4742 M15.0963,43.7822 C17.3733,44.2322 19.7483,42.4552 19.7853,40.0332 C19.8103,39.4652 19.6543,38.9712 19.1513,38.6582 C18.6213,38.3282 18.0663,38.3362 17.5353,38.6562 C17.0263,38.9632 16.9243,39.4922 16.8393,40.0272 C16.7553,40.5542 16.3173,40.9282 15.8143,40.9212 C15.3083,40.9152 14.9023,40.5342 14.8043,40.0082 C14.7503,39.7182 14.7043,39.4112 14.5703,39.1562 C14.2483,38.5412 13.5163,38.2762 12.8463,38.4812 C12.2263,38.6712 11.8393,39.2802 11.8543,40.0132 C11.8893,41.8522 13.3243,43.4312 15.0963,43.7822 M90.6723013,66.1822 C90.6713,65.3652 90.0903,64.7762 89.2763,64.7682 C88.4553,64.7602 87.8513,65.3672 87.853295,66.1962 C87.8553,67.0162 88.4333,67.5992 89.2493,67.6032 C90.0823,67.6082 90.6733,67.0172 90.6723013,66.1822 M93.5863,65.6372 C93.7903,67.7052 92.8283,69.3982 90.9173,70.2182 C90.3853,70.4462 89.7763,70.4952 89.4493,70.5702 C87.4013,70.4472 86.0903,69.6262 85.2983,68.0152 C85.1703,67.7562 85.0013,67.6302 84.6913,67.6442 C84.2593,67.6642 83.8213,67.6602 83.3933,67.6072 C82.7253,67.5242 82.2343,66.9532 82.2043,66.2922 C82.1693,65.5472 82.5643,64.9392 83.2603,64.8022 C83.7403,64.7072 84.2433,64.7052 84.7353,64.7042 C85.0273,64.7042 85.1913,64.5962 85.3113,64.3442 C86.2233,62.4282 88.2823,61.4242 90.3453,61.9392 C92.0973,62.3762 93.4163,63.9172 93.5863,65.6372 M63.09655,67.0462 C63.09655,66.4392 63.0973,65.8322 63.0953,65.2242 C63.0943,64.7662 63.0793,64.7492 62.6083,64.7492 C57.9463,64.7482 41.2093,64.7482 37.5023,64.7492 C36.9203,64.7492 36.9193,64.7512 36.9183,65.3152 C36.9173,65.9342 36.9383,66.5552 36.9123,67.1742 C36.8963,67.5432 37.0383,67.6332 37.3843,67.6342 C37.7223,67.6352 57.9703,67.6222 62.5323,67.6242 C63.0953,67.6252 63.0953,67.6242 63.09655,67.0462 M66.0193,63.3152 C66.0283,65.2232 66.0333,67.1332 66.0253,69.0412 C66.0223,69.9132 65.4463,70.5162 64.5723,70.5452 C63.7303,70.5722 35.9903,70.5292 35.1583,70.5012 C34.5643,70.4812 34.0093,69.8432 34.0043,69.2282 C33.9873,67.1962 33.9873,65.1632 34.0043,63.1312 C34.0103,62.5222 34.5233,61.9492 35.1343,61.8802 C35.7723,61.8082 36.4193,61.8052 37.0633,61.8042 C41.3773,61.7992 59.5513,61.8252 64.3253,61.8182 C65.0613,61.8172 65.6393,62.0492 65.9223,62.7732 C65.9893,62.9412 66.0183,63.1342 66.0193,63.3152 M54.4733,38.6622 C53.9673,38.3322 53.4183,38.3312 52.8913,38.6372 C52.3933,38.9272 52.2303,39.4082 52.1753,39.9482 C52.1223,40.4792 51.7333,40.8672 51.2173,40.9192 C50.7423,40.9672 50.2893,40.6362 50.1453,40.1242 C50.0943,39.9462 50.0673,39.7622 50.0363,39.5782 C49.9433,39.0352 49.5373,38.5672 49.0223,38.4702 C48.4303,38.3592 47.8843,38.4452 47.4863,38.9612 C46.9903,39.6022 47.1303,40.3182 47.3253,40.9922 C47.9003,42.9962 49.9943,44.1702 51.9183,43.7732 C53.6663,43.4132 55.0753,41.8182 55.1093,40.0112 C55.1693,39.4812 54.9693,38.9862 54.4733,38.6622 M70.3613,38.6452 C69.9353,38.9082 69.7373,39.3112 69.6873,39.8192 C69.6023,40.6992 68.9243,41.1352 68.1773,40.8032 C67.7483,40.6132 67.5993,40.2392 67.5673,39.7832 C67.5093,38.9482 66.8603,38.4022 66.0053,38.4352 C65.2393,38.4652 64.6663,39.0742 64.6543,39.8732 C64.6203,42.0032 66.4013,43.8202 68.8423,43.8742 C69.1133,43.8052 69.6523,43.7112 70.1593,43.5282 C71.5703,43.0172 72.6483,41.4052 72.6203,39.9092 C72.5973,38.7232 71.3633,38.0272 70.3613,38.6452 M87.4853,38.6272 C86.9633,38.9262 86.7863,39.4252 86.7313,39.9952 C86.6833,40.5062 86.2903,40.8722 85.7763,40.9182 C85.3313,40.9582 84.8733,40.6412 84.7393,40.1812 C84.6763,39.9682 84.6433,39.7462 84.5983,39.5282 C84.4693,38.8902 83.9503,38.4582 83.2833,38.4352 C82.5463,38.4092 81.9973,38.7822 81.8203,39.4332 C81.6163,40.1812 81.8013,40.8962 82.1083,41.5602 C82.8613,43.1902 84.7533,44.1432 86.5033,43.7702 C88.2553,43.3962 89.6343,41.8452 89.6813,39.9982 C89.7373,39.4532 89.5253,38.9592 89.0013,38.6382 C88.5093,38.3362 87.9863,38.3402 87.4853,38.6272 M85.5813,30.9102 C85.5023,31.5412 85.1253,31.9532 84.6043,31.9812 C84.0573,32.0092 83.6523,31.6332 83.5123,30.9852 C83.4553,30.7222 83.4153,30.4392 83.2863,30.2112 C82.9413,29.6042 82.2253,29.3252 81.6363,29.5182 C80.9513,29.7432 80.5493,30.3342 80.5743,31.0832 C80.6453,33.2082 82.3893,34.9042 84.5423,35.0092 C85.0983,34.8572 85.6723,34.7552 86.2053,34.5452 C87.6543,33.9722 88.6593,32.2642 88.4993,30.7332 C88.4293,30.0602 87.8313,29.4952 87.1613,29.4682 C86.3193,29.4342 85.6963,30.0032 85.5813,30.9102 M67.0653,26.0302 C67.4503,25.9532 67.8423,25.9012 68.2193,25.7952 C69.8283,25.3442 71.0303,23.8002 71.0693,22.1602 C71.0903,21.2762 70.5023,20.5822 69.6783,20.5362 C68.9323,20.4942 68.1703,21.1032 68.1253,21.9602 C68.1113,22.2492 67.9243,22.5712 67.7253,22.7982 C67.4553,23.1042 67.0403,23.1122 66.6863,22.9642 C66.2553,22.7842 66.0473,22.4152 66.0173,21.9352 C65.9673,21.1212 65.3073,20.5122 64.5293,20.5332 C63.7203,20.5552 63.1083,21.1992 63.1003,22.0362 C63.0803,24.1682 64.8823,25.9632 67.0653,26.0302 M53.6163,29.4712 C52.7283,29.4062 52.0953,29.9882 51.9843,30.9712 C51.9183,31.5402 51.5343,31.9462 51.0273,31.9812 C50.5013,32.0162 50.0743,31.6512 49.9433,31.0712 C49.8783,30.7842 49.8433,30.4722 49.7053,30.2222 C49.3713,29.6202 48.6493,29.3352 48.0573,29.5132 C47.3813,29.7172 46.9473,30.3392 46.9743,31.0672 C47.0513,33.2172 48.8003,34.9132 50.9693,35.0062 C51.5243,34.8532 52.0993,34.7502 52.6303,34.5382 C54.0683,33.9672 55.0693,32.2432 54.9033,30.7122 C54.8353,30.0882 54.2443,29.5172 53.6163,29.4712 M69.6523,29.6672 C69.1843,29.9352 68.9513,30.3552 68.9013,30.9122 C68.8223,31.8092 68.0233,32.2472 67.3133,31.8092 C66.9593,31.5912 66.8243,31.2542 66.7963,30.8402 C66.7453,30.0482 66.0603,29.4512 65.2723,29.4732 C64.5113,29.4942 63.8933,30.1382 63.8763,30.9272 C63.8313,33.0942 65.6543,34.9232 67.8783,35.0052 C68.4223,34.8542 68.9943,34.7672 69.5043,34.5422 C70.9873,33.8882 71.8113,32.4772 71.8443,30.9922 C71.8713,29.8242 70.6473,29.0962 69.6523,29.6672 M83.3743,26.0332 C83.7723,25.9512 84.1743,25.8922 84.5643,25.7852 C86.2533,25.3232 87.4783,23.5862 87.3463,21.8602 C87.2983,21.2442 86.9263,20.8052 86.2713,20.5932 C85.7713,20.4312 85.1103,20.5982 84.8133,21.0652 C84.6033,21.3952 84.4853,21.8042 84.4063,22.1942 C84.2593,22.9142 83.4413,23.2752 82.8203,22.8742 C82.4093,22.6092 82.3813,22.1842 82.2953,21.7752 C82.1273,20.9712 81.4873,20.4632 80.7383,20.5372 C79.9423,20.6172 79.4013,21.2592 79.4183,22.1032 C79.4623,24.2482 81.2153,25.9682 83.3743,26.0332 M46.8033,22.1272 C46.7853,21.3372 47.1643,20.8082 47.9193,20.5792 C48.4893,20.4062 49.1953,20.6982 49.5173,21.3042 C49.6633,21.5792 49.6943,21.9172 49.7713,22.2272 C49.9623,22.9902 50.7943,23.3182 51.3903,22.8172 C51.5993,22.6402 51.7333,22.3092 51.7873,22.0272 C51.9193,21.3272 52.2073,20.8012 52.9393,20.5862 C53.7053,20.3612 54.6163,20.9372 54.7083,21.7302 C54.8873,23.2502 53.9503,24.9102 52.5523,25.5572 C51.9853,25.8212 51.4023,26.0132 50.8453,25.9732 C48.6093,25.9732 46.8563,24.2712 46.8033,22.1272"
              id="icon_mattress" fill="#3A4B60"></path>
    </g>
</svg>