<?xml version="1.0" encoding="UTF-8"?>
<svg width="100px" height="100px" viewBox="0 0 100 100" version="1.1" xmlns="http://www.w3.org/2000/svg">
    <title>icon / furniture / mirror</title>
    <g id="icon-/-furniture-/-mirror" stroke="none" stroke-width="1" fill="none" fill-rule="evenodd">
        <path d="M76.627,96.6264 L23.373,96.6264 L23.373,70.0254 L23.373,3.3734 L76.627,3.3734 L76.627,96.6264 Z M78.314,0.0004 L21.687,0.0004 C20.755,0.0004 20,0.7554 20,1.6874 L20,98.3134 C20,99.2444 20.755,100.0004 21.687,100.0004 L78.314,100.0004 C79.245,100.0004 80,99.2444 80,98.3134 L80,1.6874 C80,0.7554 79.245,0.0004 78.314,0.0004 L78.314,0.0004 Z M70.404,90.4044 L29.596,90.4044 L29.596,79.0704 L70.404,55.2814 L70.404,90.4044 Z M29.596,59.3934 L70.404,35.6054 L70.404,51.3774 L29.596,75.1664 L29.596,59.3934 Z M29.596,49.2734 L70.404,25.4844 L70.404,31.7004 L29.596,55.4884 L29.596,49.2734 Z M29.596,9.5964 L70.404,9.5964 L70.404,21.5804 L29.596,45.3694 L29.596,9.5964 Z M72.091,6.2234 L27.909,6.2234 C26.979,6.2234 26.223,6.9784 26.223,7.9094 L26.223,92.0904 C26.223,93.0224 26.979,93.7764 27.909,93.7764 L72.091,93.7764 C73.022,93.7764 73.777,93.0224 73.777,92.0904 L73.777,7.9094 C73.777,6.9784 73.022,6.2234 72.091,6.2234 L72.091,6.2234 Z"
              id="icon_mirror" fill="#3A4B60"></path>
    </g>
</svg>