<?xml version="1.0" encoding="UTF-8"?>
<svg width="100px" height="100px" viewBox="0 0 100 100" version="1.1" xmlns="http://www.w3.org/2000/svg">
    <title>icon / furniture / painting</title>
    <g id="icon-/-furniture-/-painting" stroke="none" stroke-width="1" fill="none" fill-rule="evenodd">
        <path d="M94.3747,76.3751 L5.6247,76.3751 C4.5207,76.3751 3.6247,75.4791 3.6247,74.3751 L3.6247,25.6251 C3.6247,24.5211 4.5207,23.6251 5.6247,23.6251 L94.3747,23.6251 C95.4797,23.6251 96.3747,24.5211 96.3747,25.6251 L96.3747,74.3751 C96.3747,75.4791 95.4797,76.3751 94.3747,76.3751 L94.3747,76.3751 Z M-0.0003,24.0001 L-0.0003,76.0001 C-0.0003,78.2091 1.7907,80.0001 3.9997,80.0001 L95.9997,80.0001 C98.2087,80.0001 99.9997,78.2091 99.9997,76.0001 L99.9997,24.0001 C99.9997,21.7911 98.2087,20.0001 95.9997,20.0001 L3.9997,20.0001 C1.7907,20.0001 -0.0003,21.7911 -0.0003,24.0001 L-0.0003,24.0001 Z M36.0407,40.6771 L31.2927,43.8411 C30.6847,44.2471 29.8917,44.2471 29.2817,43.8421 L24.5337,40.6761 C23.7007,40.1201 23.4757,38.9951 24.0307,38.1621 C24.5867,37.3291 25.7117,37.1041 26.5447,37.6591 L30.2877,40.1551 L34.0297,37.6601 C34.8627,37.1051 35.9877,37.3301 36.5437,38.1631 C37.0987,38.9961 36.8727,40.1211 36.0407,40.6771 L36.0407,40.6771 Z M12.3867,56.7321 L14.5937,55.9031 C23.5057,52.5621 33.1137,51.9471 42.3817,54.1291 L52.4787,56.5041 C56.3247,57.4091 60.2877,57.8681 64.2597,57.8681 L64.2717,57.8681 C68.9697,57.8681 73.6317,57.2311 78.1277,55.9781 L87.6137,53.3291 L87.6137,67.6131 L12.3867,67.6131 L12.3867,56.7321 Z M79.9467,51.7041 L77.1517,52.4861 C72.9847,53.6481 68.6207,54.2351 64.2607,54.2351 C61.7937,54.2351 59.3287,54.0481 56.8987,53.6701 L55.4457,53.4441 L56.8287,52.9411 C63.7427,50.4271 71.2217,49.8891 78.4247,51.3881 L79.9467,51.7041 Z M12.3867,32.3861 L87.6137,32.3861 L87.6137,49.5651 L86.2377,49.9491 L86.0197,49.8661 C74.2267,45.3461 61.0547,46.1511 49.9007,52.0771 L49.7747,52.1441 L43.2287,50.6041 C33.2897,48.2671 22.8817,48.9301 13.3197,52.5101 L12.3867,52.8591 L12.3867,32.3861 Z M91.2377,69.2391 L91.2377,30.7611 C91.2377,29.6561 90.3427,28.7611 89.2377,28.7611 L10.7617,28.7611 C9.6557,28.7611 8.7617,29.6561 8.7617,30.7611 L8.7617,69.2391 C8.7617,70.3441 9.6557,71.2391 10.7617,71.2391 L89.2377,71.2391 C90.3427,71.2391 91.2377,70.3441 91.2377,69.2391 L91.2377,69.2391 Z"
              id="icon_painting" fill="#3A4B60"></path>
    </g>
</svg>