<?xml version="1.0" encoding="UTF-8"?>
<svg width="100px" height="100px" viewBox="0 0 100 100" version="1.1" xmlns="http://www.w3.org/2000/svg">
    <title>icon / furniture / patio-bench</title>
    <g id="icon-/-furniture-/-patio-bench" stroke="none" stroke-width="1" fill="none" fill-rule="evenodd">
        <path d="M2.9794,53.739 C3.4314,50.268 6.4084,47.58 10.0004,47.58 L90.0004,47.58 C93.5914,47.58 96.5684,50.268 97.0204,53.739 L2.9794,53.739 Z M91.2694,86.311 C91.3004,86.569 91.1804,86.748 91.1064,86.831 C91.0324,86.915 90.8694,87.054 90.6094,87.054 C90.2814,87.054 90.0044,86.82 89.9524,86.497 C89.9504,86.485 89.9484,86.474 89.3794,83.417 L84.3644,56.659 L88.1334,56.659 L91.2694,86.311 Z M10.0524,86.464 C10.0504,86.474 10.0484,86.485 10.0464,86.497 C9.9944,86.82 9.7174,87.054 9.3904,87.054 C9.1304,87.054 8.9664,86.915 8.8924,86.831 C8.8184,86.748 8.6994,86.569 8.7314,86.294 L11.8584,56.659 L15.6414,56.659 L10.0524,86.464 Z M13.6424,12.94 L86.3584,12.94 C90.1184,12.94 93.1774,16.094 93.1774,19.97 C93.1774,27.456 92.4524,32.79 88.1504,44.615 C88.1454,44.63 88.1394,44.645 88.1354,44.659 C87.9844,44.647 83.1764,44.632 83.1504,44.627 C86.2974,35.725 86.8334,31.559 86.8334,25.678 C86.8334,22.252 84.7124,19.152 81.5764,17.976 C81.5024,17.942 81.4284,17.913 81.3674,17.896 C80.5354,17.608 79.6774,17.461 78.8094,17.458 L21.2044,17.458 C20.3334,17.458 19.4644,17.607 18.6304,17.897 C18.5684,17.917 18.5094,17.938 18.4694,17.958 C15.2974,19.136 13.1674,22.239 13.1674,25.678 C13.1674,31.559 13.7034,35.726 16.8504,44.63 C16.8364,44.632 12.0464,44.645 11.8654,44.659 C11.8604,44.643 11.8554,44.629 11.8504,44.614 C7.5484,32.793 6.8234,27.458 6.8234,19.97 C6.8234,16.094 9.8824,12.94 13.6424,12.94 L13.6424,12.94 Z M27.0454,32.284 L27.8424,33.675 C25.9034,36.968 22.9914,41.45 19.5874,43.546 C16.6154,35.117 16.1084,31.192 16.1084,25.678 C16.1084,23.666 17.2274,21.823 18.9724,20.938 C21.4974,22.569 24.3174,27.506 27.0454,32.284 L27.0454,32.284 Z M29.5404,30.72 C27.2434,26.699 25.0614,22.893 22.7744,20.399 L36.3034,20.399 C34.0104,22.901 31.8334,26.702 29.5404,30.72 L29.5404,30.72 Z M36.2384,44.636 L23.0654,44.636 C25.1994,42.823 27.2824,40.219 29.5484,36.542 C31.7744,40.085 33.9714,42.746 36.2384,44.636 L36.2384,44.636 Z M47.4984,32.276 L48.2984,33.675 C45.3974,38.557 42.6054,41.802 39.7694,43.585 C36.9294,41.804 34.1364,38.557 31.2404,33.671 L32.0204,32.31 C34.6294,27.734 37.3274,23.006 39.7694,21.163 C42.2114,23.005 44.8984,27.717 47.4984,32.276 L47.4984,32.276 Z M50.0004,30.725 C47.7084,26.708 45.5344,22.904 43.2374,20.399 L56.7654,20.399 C54.4724,22.902 52.2944,26.706 50.0004,30.725 L50.0004,30.725 Z M56.7004,44.636 L43.2974,44.636 C45.5654,42.744 47.7664,40.081 49.9994,36.531 C52.2324,40.081 54.4334,42.744 56.7004,44.636 L56.7004,44.636 Z M67.9634,32.282 L68.7614,33.675 C65.8604,38.56 63.0664,41.804 60.2314,43.585 C57.3944,41.804 54.6014,38.559 51.7004,33.675 L52.4994,32.282 C55.1014,27.721 57.7924,23.009 60.2304,21.162 C62.6694,23.008 65.3604,27.72 67.9634,32.282 L67.9634,32.282 Z M70.4634,30.727 C68.1684,26.708 65.9904,22.904 63.6974,20.399 L77.2134,20.399 C74.9584,22.86 72.7704,26.686 70.4634,30.727 L70.4634,30.727 Z M76.9334,44.636 L63.7614,44.636 C66.0244,42.748 68.2224,40.089 70.4534,36.546 C72.7194,40.222 74.8024,42.825 76.9334,44.636 L76.9334,44.636 Z M72.1614,33.678 L72.9834,32.247 C75.7004,27.486 78.5084,22.566 81.0294,20.939 C82.7744,21.825 83.8924,23.667 83.8924,25.678 C83.8924,31.19 83.3854,35.114 80.4134,43.548 C77.0094,41.451 74.0984,36.971 72.1614,33.678 L72.1614,33.678 Z M91.2294,44.743 C95.3964,33.112 96.1194,27.622 96.1194,19.97 C96.1194,14.487 91.7514,10.013 86.3754,10 L13.6424,10 C8.2604,10 3.8814,14.472 3.8814,19.97 C3.8814,27.621 4.6034,33.114 8.7714,44.743 C3.8304,45.348 0.0004,49.553 0.0004,54.659 C0.0004,55.764 0.8954,56.659 2.0004,56.659 L8.9184,56.659 L5.8044,85.965 C5.6834,86.989 6.0064,88.017 6.6914,88.788 C7.3754,89.558 8.3604,90 9.3904,90 C11.1624,90 12.6554,88.736 12.9514,86.992 L18.6514,56.659 L81.3604,56.659 L87.0484,86.992 C87.3434,88.736 88.8374,90 90.6094,90 C91.6394,90 92.6244,89.558 93.3084,88.788 C93.9934,88.017 94.3164,86.989 94.1974,85.983 L91.0944,56.659 L98.0004,56.659 C99.1044,56.659 100.0004,55.764 100.0004,54.659 C100.0004,49.553 96.1704,45.349 91.2294,44.743 L91.2294,44.743 Z"
              id="icon_patio-bench" fill="#3A4B60"></path>
    </g>
</svg>