<?xml version="1.0" encoding="UTF-8"?>
<svg width="100px" height="100px" viewBox="0 0 100 100" version="1.1" xmlns="http://www.w3.org/2000/svg">
    <title>icon / furniture / pedestal</title>
    <g id="icon-/-furniture-/-pedestal" stroke="none" stroke-width="1" fill="none" fill-rule="evenodd">
        <path d="M69.57,18.5346 C65.709,18.5346 62.089,15.6036 61.663,12.1356 L61.663,12.1336 L61.663,12.1316 C61.44,10.3736 62.393,8.2636 63.387,7.4676 C65.387,5.8676 68.131,5.9996 69.912,7.7796 C71.214,9.0816 71.214,11.1996 69.912,12.5026 C68.961,13.4526 67.413,13.4526 66.462,12.5026 C65.791,11.8316 65.791,10.7396 66.462,10.0686 C66.908,9.6236 67.633,9.6236 68.08,10.0686 C68.532,10.5216 69.265,10.5216 69.717,10.0686 C70.17,9.6166 70.17,8.8836 69.717,8.4306 C68.368,7.0816 66.173,7.0816 64.823,8.4306 C63.25,10.0056 63.25,12.5656 64.823,14.1396 C65.721,15.0386 66.916,15.5326 68.186,15.5326 C69.457,15.5326 70.651,15.0376 71.549,14.1396 C73.755,11.9346 73.755,8.3466 71.549,6.1416 C68.919,3.5126 64.878,3.3086 61.94,5.6586 C60.5,6.8116 59.48,9.0326 59.336,11.1186 L40.664,11.1186 C40.519,9.0326 39.5,6.8106 38.059,5.6586 C35.122,3.3086 31.081,3.5126 28.45,6.1416 C26.245,8.3466 26.245,11.9346 28.45,14.1396 C29.348,15.0386 30.543,15.5326 31.813,15.5326 C33.084,15.5326 34.278,15.0386 35.176,14.1396 C36.75,12.5656 36.75,10.0056 35.176,8.4306 C33.827,7.0816 31.632,7.0816 30.282,8.4306 C29.83,8.8836 29.83,9.6176 30.282,10.0686 C30.734,10.5216 31.467,10.5216 31.92,10.0686 C32.366,9.6236 33.092,9.6236 33.538,10.0686 C34.209,10.7396 34.209,11.8316 33.538,12.5026 C32.587,13.4526 31.039,13.4526 30.088,12.5026 C28.786,11.1996 28.786,9.0816 30.088,7.7796 C31.869,5.9986 34.613,5.8676 36.612,7.4676 C37.606,8.2636 38.559,10.3736 38.338,12.1316 C38.337,12.1326 38.338,12.1326 38.337,12.1336 L38.337,12.1356 C37.912,15.6036 34.29,18.5346 30.429,18.5346 C25.956,18.5346 22.316,14.8936 22.316,10.4216 C22.316,5.9506 25.951,2.3126 30.42,2.3076 L32.96,2.3076 C34.986,2.3856 37.062,3.1606 39.689,4.8226 C43.764,7.3996 46.261,7.8566 49.991,7.8576 L50.008,7.8576 C53.738,7.8566 56.235,7.3996 60.31,4.8226 C62.937,3.1606 65.013,2.3856 67.04,2.3076 L69.58,2.3076 C74.049,2.3126 77.683,5.9506 77.683,10.4216 C77.683,14.8936 74.044,18.5346 69.57,18.5346 L69.57,18.5346 Z M38.776,16.7736 C39.555,15.7766 40.134,14.6446 40.442,13.4346 L59.558,13.4346 C59.866,14.6446 60.445,15.7766 61.224,16.7736 L38.776,16.7736 Z M39.78,19.9996 C39.62,19.6636 39.441,19.3616 39.25,19.0906 L60.75,19.0906 C60.559,19.3616 60.38,19.6636 60.219,19.9996 L39.78,19.9996 Z M46.262,26.8466 L46.262,71.3166 L44.333,71.3166 L44.333,26.8466 C44.333,26.3136 44.765,25.8816 45.298,25.8816 C45.83,25.8816 46.262,26.3136 46.262,26.8466 L46.262,26.8466 Z M55.668,26.8466 L55.668,71.3166 L53.738,71.3166 L53.738,26.8466 C53.738,26.3136 54.171,25.8816 54.703,25.8816 C55.235,25.8816 55.668,26.3136 55.668,26.8466 L55.668,26.8466 Z M54.703,23.5646 C52.894,23.5646 51.422,25.0376 51.422,26.8466 L51.422,71.3166 L48.578,71.3166 L48.578,26.8466 C48.578,25.0376 47.106,23.5646 45.298,23.5646 C43.488,23.5646 42.016,25.0376 42.016,26.8466 L42.016,71.3166 L40.138,71.3166 L40.138,22.3156 L59.862,22.3156 L59.862,71.3156 L57.984,71.3156 L57.984,26.8466 C57.984,25.0366 56.511,23.5646 54.703,23.5646 L54.703,23.5646 Z M64.032,75.6496 C64.032,76.7626 63.127,77.6676 62.014,77.6676 L37.986,77.6676 C36.873,77.6676 35.968,76.7626 35.968,75.6496 C35.968,74.5376 36.873,73.6326 37.986,73.6326 L62.014,73.6326 C63.127,73.6326 64.032,74.5376 64.032,75.6496 L64.032,75.6496 Z M60.337,82.7736 L39.661,82.7736 C39.764,82.3506 39.822,81.8856 39.822,81.3856 C39.822,80.8806 39.763,80.4106 39.658,79.9836 L60.341,79.9836 C60.234,80.4106 60.175,80.8806 60.175,81.3856 C60.175,81.8856 60.233,82.3506 60.337,82.7736 L60.337,82.7736 Z M64.708,85.0906 C65.82,85.0906 66.725,85.9956 66.725,87.1076 L66.725,89.7836 C66.725,90.8966 65.82,91.8026 64.708,91.8026 L35.293,91.8026 C34.18,91.8026 33.275,90.8966 33.275,89.7836 L33.275,87.1076 C33.275,85.9956 34.18,85.0906 35.293,85.0906 L64.708,85.0906 Z M27.989,97.6836 L72.009,97.6836 L72.009,94.1176 L27.989,94.1176 L27.989,97.6836 Z M59.99,2.3076 C59.689,2.4836 59.384,2.6676 59.073,2.8646 C55.431,5.1676 53.414,5.5416 50.001,5.5416 C46.587,5.5416 44.569,5.1676 40.927,2.8646 C40.616,2.6676 40.311,2.4836 40.01,2.3076 L59.99,2.3076 Z M70.03,0.0036 C69.992,-0.0004 30.007,-0.0004 29.969,0.0036 C24.431,0.2446 20,4.8236 20,10.4206 C20,16.1716 24.678,20.8496 30.429,20.8496 C32.439,20.8496 34.372,20.2516 36.007,19.2396 C36.518,19.5026 37.349,20.0956 37.822,21.3046 L37.822,71.3236 C35.508,71.4116 33.652,73.3146 33.652,75.6496 C33.652,77.6036 34.953,79.2586 36.733,79.7976 C36.866,79.8866 37.015,79.9516 37.179,79.9796 C37.299,80.1466 37.507,80.6296 37.507,81.3856 C37.507,82.1216 37.31,82.5956 37.19,82.7736 L35.293,82.7736 C32.903,82.7736 30.959,84.7186 30.959,87.1076 L30.959,89.7836 C30.959,90.5126 31.141,91.1986 31.46,91.8016 L26.832,91.8016 C26.192,91.8016 25.674,92.3196 25.674,92.9596 L25.674,98.8426 C25.674,99.4816 26.192,100.0006 26.832,100.0006 L73.169,100.0006 C73.808,100.0006 74.327,99.4816 74.327,98.8426 L74.327,92.9596 C74.327,92.3196 73.808,91.8016 73.169,91.8016 L68.54,91.8016 C68.859,91.1986 69.042,90.5126 69.042,89.7836 L69.042,87.1076 C69.042,84.7186 67.097,82.7736 64.708,82.7736 L62.808,82.7736 C62.688,82.5956 62.492,82.1216 62.492,81.3856 C62.492,80.6296 62.7,80.1466 62.819,79.9796 C62.983,79.9516 63.132,79.8866 63.264,79.7986 C65.047,79.2606 66.348,77.6046 66.348,75.6496 C66.348,73.3146 64.492,71.4116 62.178,71.3236 L62.178,21.3046 C62.651,20.0926 63.48,19.5016 63.991,19.2396 C65.628,20.2526 67.56,20.8506 69.57,20.8506 C75.321,20.8506 80,16.1726 80,10.4216 C80,4.8236 75.568,0.2446 70.03,0.0036 L70.03,0.0036 Z"
              id="icon_pedestal" fill="#3A4B60"></path>
    </g>
</svg>