<?xml version="1.0" encoding="UTF-8"?>
<svg width="100px" height="100px" viewBox="0 0 100 100" version="1.1" xmlns="http://www.w3.org/2000/svg">
    <title>icon / furniture / piano</title>
    <g id="icon-/-furniture-/-piano" stroke="none" stroke-width="1" fill="none" fill-rule="evenodd">
        <path d="M60.1973,81.5395 L39.8013,81.5395 L39.8013,79.6435 C39.8013,78.5625 40.6803,77.6845 41.7613,77.6845 L58.2383,77.6845 C59.3193,77.6845 60.1973,78.5625 60.1973,79.6435 L60.1973,81.5395 Z M39.8013,86.3605 L60.1973,86.3605 L60.1973,84.5455 L39.8013,84.5455 L39.8013,86.3605 Z M58.2383,74.6775 L41.7613,74.6775 C39.0233,74.6775 36.7953,76.9045 36.7953,79.6435 L36.7953,86.8615 C36.7953,88.2435 37.9193,89.3675 39.3013,89.3675 L48.4973,89.3675 L48.4973,96.9935 L45.9663,96.9935 C45.1343,96.9935 44.4633,97.6655 44.4633,98.4965 C44.4633,99.3275 45.1343,100.0005 45.9663,100.0005 L54.0343,100.0005 C54.8653,100.0005 55.5373,99.3275 55.5373,98.4965 C55.5373,97.6655 54.8653,96.9935 54.0343,96.9935 L51.5033,96.9935 L51.5033,89.3675 L60.6993,89.3675 C62.0813,89.3675 63.2053,88.2435 63.2053,86.8615 L63.2053,79.6435 C63.2053,76.9045 60.9763,74.6775 58.2383,74.6775 L58.2383,74.6775 Z M60.9943,40.2555 C60.9053,41.0815 60.1663,41.6805 59.3393,41.5905 C57.8583,41.4315 56.2813,41.6685 54.5153,42.3135 C54.3453,42.3775 54.1713,42.4065 53.9993,42.4065 C53.3853,42.4065 52.8103,42.0295 52.5873,41.4205 C52.3013,40.6405 52.7023,39.7765 53.4823,39.4905 C55.6893,38.6835 57.7113,38.3925 59.6593,38.6015 C60.4853,38.6885 61.0823,39.4305 60.9943,40.2555 L60.9943,40.2555 Z M47.4133,35.9705 C47.1893,36.5785 46.6143,36.9565 46.0013,36.9565 C45.8303,36.9565 45.6553,36.9275 45.4843,36.8645 C43.7193,36.2195 42.1423,35.9815 40.6613,36.1405 C39.8343,36.2275 39.0943,35.6305 39.0073,34.8055 C38.9183,33.9785 39.5153,33.2385 40.3413,33.1495 C42.2903,32.9405 44.3103,33.2325 46.5183,34.0415 C47.2983,34.3265 47.6993,35.1895 47.4133,35.9705 L47.4133,35.9705 Z M60.9943,34.8055 C60.9053,35.6305 60.1663,36.2295 59.3393,36.1405 C57.8583,35.9815 56.2813,36.2185 54.5153,36.8645 C54.3453,36.9275 54.1713,36.9565 53.9993,36.9565 C53.3863,36.9565 52.8103,36.5785 52.5873,35.9705 C52.3013,35.1895 52.7023,34.3265 53.4823,34.0415 C55.6903,33.2325 57.7123,32.9415 59.6593,33.1495 C60.4853,33.2385 61.0823,33.9785 60.9943,34.8055 L60.9943,34.8055 Z M47.4133,41.4205 C47.1893,42.0295 46.6143,42.4065 46.0013,42.4065 C45.8303,42.4065 45.6553,42.3775 45.4843,42.3145 C43.7193,41.6685 42.1423,41.4315 40.6613,41.5905 C39.8343,41.6805 39.0943,41.0815 39.0073,40.2555 C38.9183,39.4305 39.5153,38.6885 40.3413,38.6015 C42.2903,38.3925 44.3103,38.6835 46.5173,39.4915 C47.2983,39.7765 47.6993,40.6405 47.4133,41.4205 L47.4133,41.4205 Z M8.0073,64.0035 L91.9923,64.0035 L91.9923,62.0135 L8.0073,62.0135 L8.0073,64.0035 Z M86.7883,96.9935 L89.0693,96.9935 L89.0693,67.0105 L86.7883,67.0105 L86.7883,96.9935 Z M10.9313,96.9935 L13.2123,96.9935 L13.2123,67.0105 L10.9313,67.0105 L10.9313,96.9935 Z M10.9303,37.5955 C10.9303,36.7675 11.6053,36.0925 12.4343,36.0925 L19.3533,36.0925 L19.3583,36.0925 L34.9993,36.0925 L34.9993,43.9855 L20.3723,43.9855 C16.2273,43.9855 12.8553,47.3585 12.8553,51.5025 L12.8553,59.0055 L10.9303,59.0055 L10.9303,37.5955 Z M59.1003,3.1915 C59.2833,3.0385 59.4783,3.0065 59.6113,3.0065 C59.8493,3.0065 60.0743,3.1095 60.2243,3.2905 C60.5093,3.6295 60.4643,4.1355 60.1263,4.4195 C58.6253,5.6785 27.4693,31.8195 25.9613,33.0855 L23.4733,33.0855 L59.1003,3.1915 Z M75.6703,33.0855 L65.0013,33.0855 L65.0013,32.0075 C65.0013,31.0595 64.4773,30.2025 63.6353,29.7735 C58.5963,27.2075 53.7723,28.9975 50.0003,31.0805 C46.2263,28.9985 41.4023,27.2075 36.3643,29.7735 C35.5213,30.2025 34.9993,31.0595 34.9993,32.0075 L34.9993,33.0855 L30.6383,33.0855 L55.3113,12.3845 L75.6703,33.0855 Z M51.5033,43.9855 L51.5033,33.6865 C55.8193,31.3295 59.0103,30.9165 61.9953,32.3175 L61.9953,43.9855 L51.5033,43.9855 Z M38.0053,43.9855 L38.0053,32.3175 C40.9903,30.9155 44.1793,31.3285 48.4973,33.6865 L48.4973,43.9855 L38.0053,43.9855 Z M33.0283,56.9045 L35.2543,56.9045 L35.2583,56.9045 L42.3383,56.9045 L42.3383,59.0055 L33.0283,59.0055 L33.0283,56.9045 Z M30.0213,56.9045 L30.0213,59.0055 L20.7113,59.0055 L20.7113,56.9045 L27.7913,56.9045 L27.7953,56.9045 L30.0213,56.9045 Z M29.2993,53.8985 L33.7513,53.8985 L33.7513,52.4335 L29.2993,52.4335 L29.2993,53.8985 Z M69.9783,56.9045 L72.2053,56.9045 L72.2093,56.9045 L79.2883,56.9045 L79.2883,59.0055 L69.9783,59.0055 L69.9783,56.9045 Z M66.2493,53.8985 L70.7013,53.8985 L70.7013,52.4335 L66.2493,52.4335 L66.2493,53.8985 Z M57.6613,56.9045 L59.8873,56.9045 L59.8913,56.9045 L64.7423,56.9045 L64.7463,56.9045 L66.9713,56.9045 L66.9713,59.0055 L57.6613,59.0055 L57.6613,56.9045 Z M54.6553,56.9045 L54.6553,59.0055 L45.3443,59.0055 L45.3443,56.9045 L52.4253,56.9045 L52.4283,56.9045 L54.6553,56.9045 Z M53.9323,53.8985 L58.3833,53.8985 L58.3833,52.4335 L53.9323,52.4335 L53.9323,53.8985 Z M79.7903,53.8975 L73.7083,53.8975 L73.7083,51.9325 C73.7083,50.5505 72.5853,49.4265 71.2023,49.4265 L65.7483,49.4265 C64.3663,49.4265 63.2433,50.5505 63.2433,51.9325 L63.2433,53.8975 L61.3903,53.8975 L61.3903,51.9325 C61.3903,50.5505 60.2673,49.4265 58.8853,49.4265 L53.4303,49.4265 C52.0493,49.4265 50.9263,50.5505 50.9263,51.9325 L50.9263,53.8975 L36.7573,53.8975 L36.7573,51.9325 C36.7573,50.5505 35.6343,49.4265 34.2523,49.4265 L28.7983,49.4265 C27.4153,49.4265 26.2923,50.5505 26.2923,51.9325 L26.2923,53.8975 L20.2103,53.8975 C18.8283,53.8975 17.7043,55.0215 17.7043,56.4035 L17.7043,59.0055 L15.8623,59.0055 L15.8623,51.5025 C15.8623,49.0165 17.8853,46.9925 20.3723,46.9925 L79.6283,46.9925 C82.1143,46.9925 84.1373,49.0165 84.1373,51.5025 L84.1373,59.0055 L82.2953,59.0055 L82.2953,56.4035 C82.2953,55.0215 81.1723,53.8975 79.7903,53.8975 L79.7903,53.8975 Z M87.5653,36.0925 C88.3943,36.0925 89.0693,36.7675 89.0693,37.5955 L89.0693,59.0055 L87.1443,59.0055 L87.1443,51.5025 C87.1443,47.3575 83.7723,43.9855 79.6283,43.9855 L65.0013,43.9855 L65.0013,36.0925 L87.5653,36.0925 Z M92.4943,59.0065 L92.0753,59.0065 L92.0753,37.5955 C92.0753,35.1085 90.0523,33.0855 87.5653,33.0855 L79.8863,33.0855 L57.6223,10.4445 L62.0583,6.7225 C63.6663,5.3735 63.8763,2.9685 62.5303,1.3595 C61.8053,0.4955 60.7423,0.0005 59.6113,0.0005 C58.7163,0.0005 57.8463,0.3165 57.1663,0.8915 L18.7963,33.0855 L12.4343,33.0855 C9.9473,33.0855 7.9253,35.1085 7.9253,37.5955 L7.9253,59.0065 L7.5063,59.0065 C6.1243,59.0065 5.0003,60.1295 5.0003,61.5125 L5.0003,64.5045 C5.0003,65.8855 6.1243,67.0105 7.5063,67.0105 L7.9253,67.0105 L7.9253,97.4945 C7.9253,98.8765 9.0483,100.0005 10.4293,100.0005 L13.7133,100.0005 C15.0943,100.0005 16.2183,98.8765 16.2183,97.4945 L16.2183,67.0105 L83.7803,67.0105 L83.7803,97.4945 C83.7803,98.8765 84.9053,100.0005 86.2863,100.0005 L89.5693,100.0005 C90.9513,100.0005 92.0753,98.8765 92.0753,97.4945 L92.0753,67.0105 L92.4943,67.0105 C93.8763,67.0105 95.0003,65.8855 95.0003,64.5045 L95.0003,61.5125 C95.0003,60.1295 93.8763,59.0065 92.4943,59.0065 L92.4943,59.0065 Z"
              id="Fill-1" fill="#3A4B60"></path>
    </g>
</svg>