<?xml version="1.0" encoding="UTF-8"?>
<svg width="100px" height="100px" viewBox="0 0 100 100" version="1.1" xmlns="http://www.w3.org/2000/svg">
    <title>icon / furniture / pressure-washer</title>
    <g id="icon-/-furniture-/-pressure-washer" stroke="none" stroke-width="1" fill="none" fill-rule="evenodd">
        <path d="M26.6663,71.6551075 C23.3133,71.6601 20.4813,69.1691 20.0583,65.8431 C19.6353,62.5171 21.7523,59.3961 25.0003,58.5601 L25.0003,63.3231 C25.0003,64.2441 25.7463,64.9901 26.6663,64.9901 C27.5873,64.9901 28.3333,64.2441 28.3333,63.3231 L28.3333,58.5601 C31.5803,59.3961 33.6983,62.5171 33.2743,65.8431 C32.8523,69.1691 30.0203,71.6601 26.6663,71.6551075 L26.6663,71.6551075 Z M26.6663,54.9911 C21.1443,54.9911 16.6663,59.4671 16.6663,64.9901 C16.6663,70.5111 21.1443,74.9881 26.6663,74.9881 C32.1893,74.9881 36.6663,70.5111 36.6663,64.9901 C36.6603,59.4701 32.1873,54.9971 26.6663,54.9911 L26.6663,54.9911 Z M92.7163,75.7501 C92.2043,76.0201 91.8683,76.5371 91.8303,77.1141 C91.7923,77.6921 92.0573,78.2481 92.5293,78.5831 C96.3603,81.3551 97.7253,86.4321 95.8003,90.7521 C93.8753,95.0711 89.1873,97.4511 84.5623,96.4571 C79.9383,95.4631 76.6453,91.3651 76.6663,86.6361 C76.6673,85.7531 75.9793,85.0221 75.0983,84.9701 C69.5593,84.6371 64.9013,80.6931 63.6623,75.2851 C62.4233,69.8771 64.8983,64.2991 69.7413,61.5891 L73.3763,77.0331 C73.5133,77.6131 73.9473,78.0761 74.5193,78.2481 C75.0893,78.4201 75.7073,78.2741 76.1423,77.8661 C76.5753,77.4581 76.7593,76.8491 76.6223,76.2691 L70.9643,52.2401 L74.3153,50.6781 L88.6783,69.3421 C89.0413,69.8141 89.6283,70.0571 90.2193,69.9781 C90.8103,69.9001 91.3133,69.5121 91.5403,68.9621 C91.7683,68.4121 91.6843,67.7821 91.3203,67.3091 L87.1833,61.9281 C87.8283,61.7481 88.4953,61.6571 89.1663,61.6571 C92.5953,61.6671 95.5803,64.0001 96.4173,67.3241 C97.2553,70.6481 95.7303,74.1171 92.7163,75.7501 L92.7163,75.7501 Z M65.7793,49.1421 L62.3503,41.7901 C61.9693,40.9731 61.8393,40.0621 61.9763,39.1721 L62.0953,38.3921 C62.3233,36.8841 63.2923,35.5901 64.6753,34.9451 C66.0583,34.3011 67.6723,34.3901 68.9753,35.1841 L69.6493,35.5941 C70.4193,36.0621 71.0333,36.7481 71.4143,37.5641 L74.8433,44.9181 C75.2303,45.7521 74.8693,46.7421 74.0363,47.1311 L67.9993,49.9491 C67.5983,50.1371 67.1393,50.1581 66.7223,50.0071 C66.3053,49.8551 65.9663,49.5441 65.7793,49.1421 L65.7793,49.1421 Z M47.2613,17.3311 C46.4603,17.7061 45.5423,17.7461 44.7103,17.4421 C43.8793,17.1381 43.2033,16.5161 42.8333,15.7131 L42.1283,14.2011 C41.3513,12.5331 42.0733,10.5511 43.7413,9.7731 L45.2513,9.0681 L48.7723,16.6211 L47.2613,17.3311 Z M53.6093,3.3331 L58.5433,13.9031 L52.4993,16.7201 L47.5673,6.1491 L53.6093,3.3331 Z M61.8333,32.8031 L55.4133,19.0391 L58.4333,17.6311 L64.8533,31.3951 C64.3063,31.5151 63.7733,31.6941 63.2653,31.9261 C62.7573,32.1671 62.2773,32.4611 61.8333,32.8031 L61.8333,32.8031 Z M49.9993,83.3201 L49.9993,96.6511 L43.3333,96.6511 L43.3333,95.8841 C43.4083,95.8031 43.4893,95.7331 43.5623,95.6521 C45.8903,93.0871 46.9913,89.6401 46.5843,86.2021 L46.2493,83.3201 L49.9993,83.3201 Z M19.5813,96.6512829 C16.8033,96.6681 14.1503,95.4991 12.2883,93.4371 C10.5993,91.5781 9.7973,89.0801 10.0883,86.5851 L12.7633,63.5231 C13.7213,56.6101 19.7063,51.5091 26.6853,51.6591 C33.6613,51.5101 39.6423,56.6121 40.5963,63.5231 L43.2743,86.5851 C43.5653,89.0791 42.7643,91.5771 41.0743,93.4351 C40.8913,93.6421 40.6943,93.8301 40.4943,94.0181 L40.4823,94.0301 C38.6623,95.7231 36.2663,96.6601 33.7793,96.6512829 L19.5813,96.6512829 Z M3.3333,96.6511 L3.3333,83.3201 L7.1113,83.3201 L6.7783,86.2021 C6.3723,89.6401 7.4743,93.0871 9.8003,95.6521 C9.8633,95.7211 9.9353,95.7831 10.0003,95.8531 L10.0003,96.6511 L3.3333,96.6511 Z M23.3333,36.6611 L29.9993,36.6611 C33.6823,36.6611 36.6663,39.6451 36.6663,43.3271 L36.6663,51.3771 C30.6203,47.3021 22.7053,47.3091 16.6663,51.3951 L16.6663,43.3271 C16.6663,39.6451 19.6513,36.6611 23.3333,36.6611 L23.3333,36.6611 Z M99.9998999,69.1561 C99.9913,63.1761 95.1453,58.3321 89.1663,58.3241 C87.7513,58.3251 86.3503,58.6081 85.0463,59.1571 L77.1263,48.8661 C78.4083,47.3841 78.6983,45.2861 77.8643,43.5131 L74.4353,36.1611 C73.7763,34.7481 72.7133,33.5621 71.3813,32.7531 L70.7063,32.3431 C70.0383,31.9421 69.3143,31.6421 68.5603,31.4531 L61.2653,15.8041 C61.9633,14.8401 62.0773,13.5711 61.5623,12.4981 L56.6313,1.9251 C56.2573,1.1231 55.5803,0.5031 54.7493,0.2011 C53.9183,-0.1019 53.0013,-0.0609 52.1993,0.3131 L46.1663,3.1301 C45.9283,3.2431 45.7043,3.3841 45.4993,3.5511 C41.9263,0.3041 36.3123,-0.3869 31.6873,0.1961 C27.3433,0.7571 21.8693,2.6061 19.5293,6.1211 C18.3443,7.8961 18.0133,10.1081 18.6253,12.1531 C19.3883,14.5511 20.8743,16.6551 22.8813,18.1761 C25.7993,20.4771 28.9133,22.5171 32.1893,24.2721 C35.2083,25.8881 38.0863,27.7541 40.7933,29.8501 C47.0213,34.9671 50.9593,41.3481 51.5743,47.3471 C52.2843,54.1791 48.6563,59.6451 44.0643,64.4861 L43.9083,63.1361 C43.5223,59.8761 42.1603,56.8081 39.9993,54.3371 L39.9993,43.3271 C39.9943,37.8061 35.5203,33.3341 29.9993,33.3281 L23.3333,33.3281 C17.8123,33.3341 13.3393,37.8061 13.3333,43.3271 L13.3333,54.3701 C11.1883,56.8371 9.8373,59.8921 9.4533,63.1381 L7.5003,79.9871 L3.3333,79.9871 C1.4923,79.9871 0.0003,81.4791 0.0003,83.3201 L0.0003,96.6511 C0.0003,98.4921 1.4923,99.9841 3.3333,99.9841 L10.0003,99.9841 C11.2313,99.9791 12.3593,99.2941 12.9323,98.2031 C14.9523,99.3721 17.2463,99.9861 19.5813,99.9841 L33.7793,99.9841 C36.1053,99.9871 38.3923,99.3781 40.4083,98.2171 C40.9833,99.2991 42.1063,99.9771 43.3333,99.9841 L49.9993,99.9841 C51.8403,99.9841 53.3333,98.4921 53.3333,96.6511 L53.3333,83.3201 C53.3333,81.4791 51.8403,79.9871 49.9993,79.9871 L45.8623,79.9871 L44.5563,68.7321 C50.3063,63.0961 55.8393,56.1281 54.8903,47.0051 C54.1733,40.1361 49.8063,32.9461 42.9043,27.2751 C40.0553,25.0601 37.0243,23.0891 33.8453,21.3821 C30.7353,19.7241 27.7793,17.7951 25.0113,15.6161 C23.5343,14.5261 22.4263,13.0111 21.8333,11.2751 C21.4733,10.1601 21.6443,8.9411 22.2983,7.9681 C23.9163,5.5491 28.3923,3.9821 32.1063,3.4991 C35.8463,3.0311 40.7153,3.5501 43.4533,6.2271 L42.3313,6.7491 C40.7293,7.4961 39.4893,8.8491 38.8853,10.5101 C38.2803,12.1721 38.3603,14.0061 39.1073,15.6071 L39.8123,17.1171 C40.5563,18.7211 41.9073,19.9651 43.5683,20.5701 C45.2303,21.1761 47.0643,21.0941 48.6663,20.3451 L50.6033,19.4421 C51.0733,19.7651 51.6193,19.9611 52.1873,20.0101 L59.4923,35.6751 C59.1513,36.3751 58.9163,37.1231 58.7943,37.8921 L58.6763,38.6711 C58.4373,40.2121 58.6623,41.7891 59.3243,43.2021 L62.7533,50.5531 C63.5783,52.3131 65.3443,53.4381 67.2883,53.4431 C67.4603,53.4331 67.6323,53.4151 67.8033,53.3861 L68.9493,58.2561 C62.6993,61.2631 59.1373,67.9911 60.1613,74.8501 C61.1873,81.7101 66.5603,87.1021 73.4163,88.1531 C74.0653,93.9441 78.4013,98.6421 84.1233,99.7551 C89.8443,100.8661 95.6243,98.1341 98.3953,93.0071 C101.1673,87.8801 100.2873,81.5481 96.2233,77.3711 C98.6253,75.3181 100.0053,72.3151 99.9998999,69.1561 L99.9998999,69.1561 Z"
              id="icon_pressure-washer" fill="#3A4B60"></path>
    </g>
</svg>