<?xml version="1.0" encoding="UTF-8"?>
<svg width="100px" height="100px" viewBox="0 0 100 100" version="1.1" xmlns="http://www.w3.org/2000/svg" xmlns:xlink="http://www.w3.org/1999/xlink">
    <title>icon / furniture / recliner-chair</title>
    <g id="icon-/-furniture-/-recliner-chair" stroke="none" stroke-width="1" fill="none" fill-rule="evenodd">
        <path d="M57.1784534,75.114 C58.4714534,75.114 59.5224534,76.166 59.5224534,77.458 C59.5224534,78.75 58.4714534,79.801 57.1784534,79.801 C55.8864534,79.801 54.8344534,78.75 54.8344534,77.458 C54.8344534,76.166 55.8864534,75.114 57.1784534,75.114 L57.1784534,75.114 Z M57.1784534,82.731 C60.0864534,82.731 62.4514534,80.365 62.4514534,77.458 C62.4514534,76.535 62.2144534,75.668 61.7964534,74.913 L68.2344534,68.475 C68.8064534,67.903 68.8064534,66.975 68.2344534,66.403 C67.6624534,65.832 66.7354534,65.832 66.1624534,66.403 L59.7244534,72.842 C58.9694534,72.424 58.1014534,72.184 57.1784534,72.184 C54.2714534,72.184 51.9054534,74.551 51.9054534,77.458 C51.9054534,80.366 54.2714534,82.731 57.1784534,82.731 L57.1784534,82.731 Z M96.8494534,76.448 C96.7434534,76.738 96.4734534,76.868 96.2524534,76.868 C96.1824534,76.868 96.1054534,76.853 96.0324534,76.828 L76.4804534,69.712 L76.4804534,65.136 L94.6594534,71.755 C96.5574534,72.446 97.5384534,74.552 96.8494534,76.448 L96.8494534,76.448 Z M76.4804534,76.52 L76.4804534,72.83 L80.7434534,74.382 L76.4804534,76.52 Z M75.3654534,50.325 L33.3664534,52.926 C32.6724534,52.966 32.0064534,52.735 31.4874534,52.274 C29.7754534,50.752 30.7224534,47.843 33.0734534,47.71 C33.4474534,47.688 74.0364534,45.167 75.0304534,45.117 C75.6694534,45.086 76.3124534,45.072 76.9494534,45.147 C77.6184534,45.226 78.2774534,45.402 78.8954534,45.67 C81.8214534,46.932 83.8924534,50.116 83.9994534,53.268 C84.0024534,53.362 84.0034534,53.455 84.0034534,53.548 C84.0034534,54.988 82.8314534,56.161 81.3914534,56.161 C79.9504534,56.161 78.7794534,54.989 78.7794534,53.548 C78.7794534,52.338 78.1454534,51.557 77.7674534,51.201 C77.3894534,50.843 76.5744534,50.255 75.3654534,50.325 L75.3654534,50.325 Z M73.5504534,85.388 C73.5504534,86.315 72.7954534,87.07 71.8674534,87.07 L37.5074534,87.07 C36.7404534,87.07 36.0704534,86.551 35.8784534,85.806 L28.6084534,57.51 C28.5994534,57.468 28.5894534,57.427 28.5754534,57.385 L28.1244534,55.627 C27.9994534,55.142 28.0974534,54.632 28.3914534,54.225 C28.5254534,54.04 28.6934534,53.886 28.8824534,53.771 C29.0794534,54.017 29.2984534,54.249 29.5384534,54.463 C30.6444534,55.445 32.0654534,55.937 33.5374534,55.85 L73.5504534,53.363 L73.5504534,85.388 Z M26.0174534,52.509 C25.9244534,52.636 25.8394534,52.768 25.7604534,52.903 L3.45645342,18.018 C2.97945342,17.276 2.82045342,16.392 3.00745342,15.531 C3.19445342,14.669 3.70545342,13.932 4.44945342,13.454 C4.98245342,13.111 5.59945342,12.929 6.23045342,12.929 C7.28645342,12.929 8.26345342,13.423 8.88445342,14.26 C8.89245342,14.27 8.89945342,14.281 8.90745342,14.291 C8.94445342,14.341 8.97945342,14.393 9.01445342,14.446 L29.3834534,46.323 C28.2574534,47.406 27.5924534,48.956 27.6894534,50.635 C27.6974534,50.779 27.7104534,50.923 27.7304534,51.065 C27.0584534,51.393 26.4684534,51.885 26.0174534,52.509 L26.0174534,52.509 Z M22.3914534,25.713 C22.3914534,26.866 22.2004534,27.974 21.8654534,29.017 L12.8374534,14.977 C18.2074534,15.601 22.3914534,20.177 22.3914534,25.713 L22.3914534,25.713 Z M95.6614534,69.002 L76.4804534,62.019 L76.4804534,56.114 C77.4074534,57.882 79.2604534,59.091 81.3914534,59.091 C84.4474534,59.091 86.9334534,56.604 86.9334534,53.548 C86.9334534,50.52 85.6994534,47.519 83.4294534,45.34 C80.9904534,42.791 77.7004534,42.005 74.2654534,42.197 C73.0654534,42.264 33.0634534,44.775 32.9054534,44.784 C32.5824534,44.802 32.2684534,44.848 31.9644534,44.919 L23.8324534,32.079 C24.8264534,30.173 25.3914534,28.008 25.3914534,25.713 C25.3914534,18.098 19.1964534,11.903 11.5814534,11.903 C11.2994534,11.903 11.0204534,11.915 10.7414534,11.931 L10.7284534,11.911 C9.56545342,10.698 7.95345342,10 6.23045342,10 C5.03545342,10 3.87145342,10.343 2.86445342,10.99 C1.46245342,11.89 0.496453424,13.282 0.144453424,14.909 C-0.209546576,16.535 0.092453424,18.202 0.991453424,19.603 L25.8124534,58.402 L33.0414534,86.536 C33.0884534,86.719 33.1464534,86.897 33.2134534,87.07 L28.7524534,87.07 C27.9444534,87.07 27.2874534,87.725 27.2874534,88.535 C27.2874534,89.343 27.9444534,90 28.7524534,90 L80.2084534,90 C81.0184534,90 81.6734534,89.343 81.6734534,88.535 C81.6734534,87.725 81.0184534,87.07 80.2084534,87.07 L76.1614534,87.07 C76.3664534,86.549 76.4804534,85.981 76.4804534,85.387 L76.4804534,79.797 L84.5304534,75.76 L95.0344534,79.583 C95.4324534,79.725 95.8414534,79.798 96.2524534,79.798 C97.7444534,79.798 99.0904534,78.855 99.6024534,77.452 C99.8724534,76.708 99.9994592,75.946 99.9994592,75.179 C99.9904534,72.495 98.3274534,69.972 95.6614534,69.002 L95.6614534,69.002 Z" id="icon_recliner-chair" fill="#3A4B60"></path>
    </g>
</svg>