<?xml version="1.0" encoding="UTF-8"?>
<svg width="100px" height="100px" viewBox="0 0 100 100" version="1.1" xmlns="http://www.w3.org/2000/svg">
    <title>icon / furniture / refrigerator</title>
    <g id="icon-/-furniture-/-refrigerator" stroke="none" stroke-width="1" fill="none" fill-rule="evenodd">
        <path d="M51.296,68.9868 L51.296,31.0118 C51.296,30.0918 52.044,29.3438 52.964,29.3438 C53.883,29.3438 54.631,30.0918 54.631,31.0118 L54.631,68.9868 C54.631,69.9068 53.883,70.6548 52.964,70.6548 C52.044,70.6548 51.296,69.9068 51.296,68.9868 L51.296,68.9868 Z M27.013,56.9628 L32.308,56.9628 L32.308,48.2158 L27.013,48.2158 L27.013,56.9628 Z M27.013,44.8798 L32.308,44.8798 L32.308,43.0378 L27.013,43.0378 L27.013,44.8798 Z M25.345,60.2988 L33.976,60.2988 C34.896,60.2988 35.644,59.5498 35.644,58.6308 L35.644,41.3688 C35.644,40.4488 34.896,39.7008 33.976,39.7008 L25.345,39.7008 C24.426,39.7008 23.678,40.4488 23.678,41.3688 L23.678,58.6308 C23.678,59.5498 24.426,60.2988 25.345,60.2988 L25.345,60.2988 Z M37.486,68.9868 L37.486,31.0118 C37.486,30.0918 38.234,29.3438 39.154,29.3438 C40.074,29.3438 40.822,30.0918 40.822,31.0118 L40.822,68.9868 C40.822,69.9068 40.074,70.6548 39.154,70.6548 C38.234,70.6548 37.486,69.9068 37.486,68.9868 L37.486,68.9868 Z M44.391,3.3358 L44.391,96.6638 L20.895,96.6638 C20.862,96.6638 20.836,96.6368 20.836,96.6058 L20.836,3.3938 C20.836,3.3618 20.862,3.3358 20.895,3.3358 L44.391,3.3358 Z M79.163,3.3938 L79.163,96.6058 C79.163,96.6378 79.138,96.6638 79.106,96.6638 L47.727,96.6638 L47.727,3.3358 L79.106,3.3358 C79.137,3.3358 79.163,3.3618 79.163,3.3938 L79.163,3.3938 Z M79.106,0.0008 L20.895,0.0008 C19.023,0.0008 17.5,1.5228 17.5,3.3938 L17.5,96.6058 C17.5,98.4768 19.023,100.0008 20.895,100.0008 L79.106,100.0008 C80.978,100.0008 82.5,98.4768 82.5,96.6058 L82.5,3.3938 C82.5,1.5228 80.978,0.0008 79.106,0.0008 L79.106,0.0008 Z"
              id="Fill-1" fill="#3A4B60"></path>
    </g>
</svg>