<?xml version="1.0" encoding="UTF-8"?>
<svg width="100px" height="100px" viewBox="0 0 100 100" version="1.1" xmlns="http://www.w3.org/2000/svg" xmlns:xlink="http://www.w3.org/1999/xlink">
    <title>icon / furniture / rocking-chair</title>
    <g id="icon-/-furniture-/-rocking-chair" stroke="none" stroke-width="1" fill="none" fill-rule="evenodd">
        <path d="M92.1346898,83.5684 C91.9666898,84.3184 91.5166898,84.9584 90.8666898,85.3694 C85.1706898,88.9814 78.9906898,91.8314 72.5456898,93.8184 C51.5536898,100.2914 28.2816898,97.5114 9.13168984,85.3694 C7.78868984,84.5184 7.39168984,82.7424 8.24268984,81.3994 C9.09468984,80.0564 10.8696898,79.6584 12.2126898,80.5094 C35.1716898,95.0674 64.7076898,95.1424 87.7856898,80.5094 C89.9576898,79.1324 92.6896898,81.0894 92.1346898,83.5684 L92.1346898,83.5684 Z M30.3456898,58.9574 C30.7396898,59.0014 31.0656898,58.9894 32.3306898,58.9894 C31.2126898,61.8374 23.7836898,80.7664 22.8966898,83.0304 C22.3046898,82.7724 21.6476898,82.4744 21.1986898,82.2644 L30.3456898,58.9574 Z M13.8366898,7.0324 C13.0186898,4.3534 15.4766898,1.9354 17.7406898,3.0754 C19.0586898,3.7384 19.2286898,4.7044 20.1576898,7.8184 C20.2256898,8.0444 32.6916898,48.7974 32.6916898,48.7974 C32.8706898,49.3824 33.4116898,49.7834 34.0256898,49.7834 L78.7016898,49.7834 C80.2886898,49.7834 81.5786898,51.2224 81.5786898,52.9924 C81.5786898,54.7614 80.2886898,56.2004 78.7016898,56.2004 C26.6846898,56.2004 30.7136898,56.2884 29.9726898,56.0134 C29.1596898,55.6914 28.5006898,54.9724 28.2106898,54.0244 L13.8366898,7.0324 Z M64.5696898,36.1774 L64.5696898,46.9944 L35.0566898,46.9944 L31.5766898,35.6124 L64.0036898,35.6124 C64.3156898,35.6124 64.5696898,35.8664 64.5696898,36.1774 L64.5696898,36.1774 Z M64.0036898,30.9644 C66.8786898,30.9644 69.2176898,33.3024 69.2176898,36.1774 L69.2176898,46.9944 L67.3586898,46.9944 L67.3586898,36.1774 C67.3586898,34.3284 65.8536898,32.8234 64.0036898,32.8234 L30.7246898,32.8234 L30.1556898,30.9644 L64.0036898,30.9644 Z M67.6696898,58.9904 L69.6666898,58.9904 L78.8006898,82.2644 C78.4376898,82.4344 77.7086898,82.7674 77.1046898,83.0304 C76.6396898,81.8464 67.9636898,59.7404 67.6696898,58.9904 L67.6696898,58.9904 Z M68.2996898,68.2294 L74.5256898,84.0934 C58.7936898,90.1874 41.2156898,90.1914 25.4756898,84.0934 L31.7006898,68.2294 L68.2996898,68.2294 Z M34.6196898,60.7924 L35.3266898,58.9904 L64.6736898,58.9904 L65.3806898,60.7924 L34.6196898,60.7924 Z M66.4746898,63.5814 L67.2046898,65.4404 L32.7946898,65.4404 L33.5256898,63.5814 L66.4746898,63.5814 Z M86.2926898,78.1544 C84.6686898,79.1844 83.0056898,80.1394 81.3096898,81.0224 L72.6636898,58.9904 L78.7026898,58.9904 C81.8266898,58.9904 84.3686898,56.2984 84.3686898,52.9924 C84.3686898,49.6854 81.8266898,46.9944 78.7026898,46.9944 L72.0076898,46.9944 L72.0076898,36.1784 C72.0076898,31.7654 68.4166898,28.1744 64.0036898,28.1744 L29.3036898,28.1744 L21.9516898,4.1514 C20.9886898,1.0034 17.7706898,-0.7556 14.7576898,0.3134 C11.8266898,1.3544 10.2176898,4.7334 11.1696898,7.8474 L25.5436898,54.8404 C25.9426898,56.1434 26.7316898,57.2184 27.7446898,57.9494 L18.6906898,81.0224 C16.9936898,80.1394 15.3306898,79.1844 13.7066898,78.1544 C9.43568984,75.4464 4.04868984,79.2874 5.14368984,84.1774 C5.47468984,85.6554 6.36068984,86.9154 7.63868984,87.7254 C13.5326898,91.4614 19.9196898,94.4104 26.5876898,96.4694 C33.1656898,98.5024 40.0076898,99.6694 46.8866898,99.9394 C53.7446898,100.2084 60.6366898,99.5864 67.3356898,98.0874 C74.7966898,96.4184 82.0076898,93.6544 88.6786898,89.9204 C89.9256898,89.2224 91.1546898,88.4904 92.3616898,87.7254 C93.6396898,86.9154 94.5256898,85.6554 94.8566898,84.1774 C95.9516898,79.2874 90.5646898,75.4454 86.2926898,78.1544 L86.2926898,78.1544 Z" id="icon_rocking-chair" fill="#3A4B60"></path>
    </g>
</svg>