<?xml version="1.0" encoding="UTF-8"?>
<svg width="100px" height="100px" viewBox="0 0 100 100" version="1.1" xmlns="http://www.w3.org/2000/svg">
    <title>icon / furniture / rocking-horse</title>
    <g id="icon-/-furniture-/-rocking-horse" stroke="none" stroke-width="1" fill="none" fill-rule="evenodd">
        <path d="M77.4412,33.3636 C78.2512,33.3636 78.9062,32.7076 78.9062,31.8986 C78.9062,31.0906 78.2512,30.4336 77.4412,30.4336 C76.6322,30.4336 75.9772,31.0906 75.9772,31.8986 C75.9772,32.7076 76.6322,33.3636 77.4412,33.3636 L77.4412,33.3636 Z M96.9962,72.7246 C96.8732,72.3536 96.6122,72.0516 96.2622,71.8776 C96.0552,71.7726 95.8332,71.7196 95.6072,71.7196 C95.4522,71.7196 95.2952,71.7456 95.1442,71.7966 C80.3762,76.6926 65.1902,79.1396 50.0002,79.1396 C34.8132,79.1386 19.6212,76.6916 4.8572,71.7966 C4.0892,71.5426 3.2582,71.9596 3.0042,72.7246 C2.7512,73.4916 3.1682,74.3226 3.9342,74.5766 C18.9332,79.5506 34.4322,82.0706 50.0002,82.0706 C65.5682,82.0706 81.0672,79.5506 96.0662,74.5776 C96.8332,74.3226 97.2502,73.4916 96.9962,72.7246 L96.9962,72.7246 Z M46.7242,63.7676 C43.3202,63.7676 39.9622,64.5866 36.8952,66.0526 C34.1702,67.3576 31.9152,69.2366 29.7072,71.2686 C28.6632,72.2306 27.6412,73.2186 26.6422,74.2276 C41.0882,76.6896 55.7422,76.8556 70.2162,74.7256 C65.3902,70.3636 56.4802,63.7676 46.7242,63.7676 L46.7242,63.7676 Z M18.9462,72.6936 C20.3932,73.0246 21.8432,73.3326 23.2952,73.6166 C24.4862,72.3436 25.7212,71.1106 26.9782,69.9036 C29.2032,67.7646 31.5132,65.5756 34.2532,64.1106 C37.2242,62.5206 40.4232,61.4116 43.7782,61.0126 C44.7552,60.8966 45.7402,60.8386 46.7242,60.8386 C58.7542,60.8386 69.3652,69.7416 73.8712,74.1396 C75.0312,73.9376 76.1902,73.7196 77.3482,73.4886 C75.1452,70.6576 71.5072,65.6256 68.9022,60.2016 C64.4282,50.8886 67.8302,40.4836 67.9762,40.1566 C68.1702,39.7276 68.5572,39.4176 69.0192,39.3226 C69.4802,39.2276 69.9592,39.3616 70.3052,39.6796 C71.9042,41.1526 73.0192,41.1546 74.4312,41.1566 C75.5952,41.1596 76.9162,41.1616 78.3692,42.0096 C78.8762,42.3046 79.3772,42.6576 79.8612,42.9986 C82.1772,44.6296 83.8502,45.8056 86.7692,42.7516 C90.0852,39.2796 82.6552,30.0656 79.7782,27.0966 C76.1092,23.4586 73.1562,25.1426 69.0722,28.1286 C68.8482,28.2916 68.6252,28.4586 68.3972,28.6276 C66.2872,30.1966 63.7062,32.1156 59.1682,33.2046 L59.1682,45.8706 C59.1682,49.4246 56.2762,52.3156 52.7212,52.3156 L41.3292,52.3156 C37.7032,52.3156 34.7532,49.3656 34.7532,45.7406 L34.7532,35.4336 C28.3232,38.0236 27.2802,43.0896 27.6142,47.0516 C27.6152,47.0686 27.6162,47.0866 27.6172,47.1026 C27.6172,47.1066 27.6182,47.1116 27.6182,47.1156 C27.9812,51.6336 26.6562,59.4396 23.6742,65.1586 C22.0552,68.2636 20.2542,70.9166 18.9462,72.6936 L18.9462,72.6936 Z M24.6562,46.7176 C24.3192,40.3426 27.4022,35.4356 33.2532,32.8916 C32.9012,31.6016 31.9312,29.5176 29.2962,29.2026 C27.4092,28.9766 25.5382,29.5506 24.0302,30.8186 C22.0012,32.5256 20.7832,35.3126 20.5992,38.6696 L20.5992,38.6706 C20.5972,38.7326 20.5442,40.2286 20.2462,41.8226 C19.7532,44.4636 18.8902,45.8936 17.5302,46.3246 C17.3822,46.3706 17.2342,46.3926 17.0872,46.3926 C16.4652,46.3926 15.8882,45.9946 15.6912,45.3706 C15.4542,44.6206 15.8512,43.8216 16.5822,43.5526 C16.9962,43.1756 17.4372,41.3976 17.6072,39.5566 C16.3042,39.0656 13.8782,38.4166 13.0032,39.9736 C11.4492,42.7356 13.0732,48.1046 16.0512,50.0526 C19.4042,52.2436 22.7652,49.0966 24.6562,46.7176 L24.6562,46.7176 Z M37.6822,45.7406 C37.6822,47.7506 39.3182,49.3856 41.3292,49.3856 L52.7212,49.3856 C54.6612,49.3856 56.2382,47.8086 56.2382,45.8706 L56.2382,32.8036 C56.2382,32.7946 56.2292,32.7866 56.2192,32.7866 L37.7012,32.7866 C37.6912,32.7866 37.6822,32.7946 37.6822,32.8036 L37.6822,33.3886 C37.6822,33.4046 37.6832,33.4196 37.6822,33.4346 L37.6822,45.7406 Z M60.5022,27.7436 C60.4152,27.8066 59.4622,28.3996 59.4641969,28.4116 L59.9142,29.9596 C63.0032,28.9866 64.9182,27.5626 66.6492,26.2756 C66.8822,26.1016 67.1142,25.9306 67.3422,25.7626 C69.4312,24.2366 71.4962,22.8246 73.8042,22.3086 C76.2482,21.7626 78.5682,22.3436 80.7202,24.0286 L83.0702,21.5116 C81.4732,20.2296 79.6712,19.1386 77.7202,18.4946 C76.0122,17.9336 74.2322,17.7396 72.4882,18.2236 C70.8482,18.6776 69.3472,19.5126 68.0012,20.5426 C66.6742,21.5556 65.4942,22.7346 64.3842,23.9766 C64.2662,24.1086 64.1482,24.2416 64.0292,24.3736 C62.9402,25.5846 61.8162,26.7766 60.5022,27.7436 L60.5022,27.7436 Z M96.9882,77.3566 C81.6912,82.4276 65.8812,85.0006 50.0002,85.0006 C34.1192,85.0006 18.3092,82.4276 3.0112,77.3566 C0.7122,76.5946 -0.5378,74.1026 0.2232,71.8026 C0.9862,69.5056 3.4772,68.2546 5.7782,69.0146 C9.1112,70.1206 12.4662,71.0966 15.8392,71.9476 C18.0012,69.1436 23.5062,58.7546 24.5682,51.0866 C22.2852,53.0956 20.1972,53.7296 18.4712,53.7296 C16.6742,53.7296 15.2692,53.0416 14.4482,52.5046 C10.1552,49.6966 8.1362,42.6476 10.4502,38.5376 C11.5642,36.5556 13.6792,35.7216 16.4122,36.1906 C16.9372,36.2816 17.4392,36.4116 17.8872,36.5516 C18.4392,33.2376 19.9152,30.4516 22.1442,28.5766 C24.2792,26.7806 26.9422,25.9716 29.6442,26.2946 C32.8752,26.6796 34.6812,28.7286 35.5932,30.7476 C36.1282,30.1986 36.8762,29.8556 37.7012,29.8556 L56.2192,29.8556 C56.4372,29.8556 56.6492,29.8816 56.8532,29.9266 L56.2962,28.0066 C56.0782,27.2536 56.4922,26.4616 57.2352,26.2106 C58.2502,25.8676 59.1062,25.1706 59.8712,24.4396 C61.1812,23.1886 62.3052,21.7606 63.6022,20.4946 C64.9042,19.2226 66.3052,18.0486 67.8192,17.0376 C68.7502,16.4156 69.7952,15.9826 70.8432,15.6166 C78.6442,12.8906 85.9062,20.0676 86.2112,20.3746 C86.7672,20.9326 86.7812,21.8306 86.2432,22.4066 L82.8192,26.0736 C83.9292,27.3196 85.8232,29.5716 87.4552,32.1496 C91.9002,39.1696 90.6882,42.8896 88.8872,44.7746 C86.8532,46.9036 84.8282,47.8076 82.6972,47.5386 C80.8992,47.3116 79.4522,46.2926 78.1742,45.3926 C77.7202,45.0736 77.2922,44.7716 76.8922,44.5396 C76.1212,44.0896 75.4102,44.0876 74.4252,44.0856 C73.2042,44.0836 71.7592,44.0816 70.0882,43.1416 C69.4622,45.7006 68.8552,53.3386 71.5442,58.9316 C74.4302,64.9426 78.6662,70.4786 80.5482,72.8086 C85.1382,71.7786 89.7002,70.5136 94.2212,69.0146 C95.3372,68.6446 96.5282,68.7316 97.5772,69.2586 C98.6262,69.7856 99.4072,70.6886 99.7762,71.8026 C100.5392,74.1026 99.2882,76.5936 96.9882,77.3566 L96.9882,77.3566 Z M41.5892,45.3746 C41.5892,44.5646 42.2452,43.9096 43.0542,43.9096 L50.8672,43.9096 C51.6752,43.9096 52.3322,44.5646 52.3322,45.3746 C52.3322,46.1826 51.6752,46.8396 50.8672,46.8396 L43.0542,46.8396 C42.2452,46.8396 41.5892,46.1826 41.5892,45.3746 L41.5892,45.3746 Z"
              id="icon_rocking-horse" fill="#3A4B60"></path>
    </g>
</svg>