<?xml version="1.0" encoding="UTF-8"?>
<svg width="100px" height="100px" viewBox="0 0 100 100" version="1.1" xmlns="http://www.w3.org/2000/svg">
    <title>icon / furniture / sewing-machine</title>
    <g id="icon-/-furniture-/-sewing-machine" stroke="none" stroke-width="1" fill="none" fill-rule="evenodd">
        <path d="M20.2686,39.5315 L19.8126,39.5315 C19.0326,39.5315 18.4006,40.1635 18.4006,40.9425 C18.4006,41.7225 19.0326,42.3545 19.8126,42.3545 L20.2686,42.3545 C21.0486,42.3545 21.6806,41.7225 21.6806,40.9425 C21.6806,40.1635 21.0486,39.5315 20.2686,39.5315 L20.2686,39.5315 Z M23.3516,39.2725 C24.1316,39.2725 24.7636,38.6405 24.7636,37.8605 L24.7636,37.4045 C24.7636,36.6245 24.1316,35.9925 23.3516,35.9925 C22.5716,35.9925 21.9396,36.6245 21.9396,37.4045 L21.9396,37.8605 C21.9396,38.6405 22.5716,39.2725 23.3516,39.2725 L23.3516,39.2725 Z M24.7636,44.4815 L24.7636,44.0255 C24.7636,43.2455 24.1316,42.6135 23.3516,42.6135 C22.5716,42.6135 21.9396,43.2455 21.9396,44.0255 L21.9396,44.4815 C21.9396,45.2615 22.5716,45.8935 23.3516,45.8935 C24.1316,45.8935 24.7636,45.2615 24.7636,44.4815 L24.7636,44.4815 Z M26.4336,42.3545 L26.8906,42.3545 C27.6696,42.3545 28.3026,41.7225 28.3026,40.9425 C28.3026,40.1635 27.6696,39.5315 26.8906,39.5315 L26.4336,39.5315 C25.6536,39.5315 25.0216,40.1635 25.0216,40.9425 C25.0216,41.7225 25.6536,42.3545 26.4336,42.3545 L26.4336,42.3545 Z M97.1766,57.5535 C97.1766,57.0505 96.7666,56.6395 96.2616,56.6395 L92.5176,56.6395 L92.5176,64.3985 C92.5176,69.9215 88.0256,74.4135 82.5036,74.4135 L57.7966,74.4135 C52.2746,74.4135 47.7826,69.9215 47.7826,64.3985 L47.7826,56.6395 L46.0176,56.6395 C42.1736,56.6395 39.0456,53.5115 39.0456,49.6685 L39.0456,32.5735 C39.0456,29.1655 41.8186,26.3915 45.2266,26.3915 L57.3456,26.3915 C60.7536,26.3915 63.5266,29.1655 63.5266,32.5735 L63.5266,39.0125 C63.5266,39.6445 64.0406,40.1595 64.6736,40.1595 L85.9556,40.1595 C86.5876,40.1595 87.1026,39.6455 87.1026,39.0125 L87.1026,17.8015 C87.1026,14.3165 84.2686,11.4825 80.7846,11.4825 L15.2256,11.4825 C11.7416,11.4825 8.9066,14.3165 8.9066,17.8015 L8.9066,85.8585 C8.9066,89.3425 11.7416,92.1775 15.2256,92.1775 L47.7826,92.1775 L47.7826,87.3015 C47.7826,85.4065 49.3236,83.8655 51.2176,83.8655 L96.2616,83.8655 C96.7666,83.8655 97.1766,83.4555 97.1766,82.9515 L97.1766,57.5535 Z M93.3876,86.6885 L51.2176,86.6885 C50.8806,86.6885 50.6056,86.9635 50.6056,87.3015 L50.6056,92.1765 L90.4936,92.1765 C92.0896,92.1765 93.3876,90.8785 93.3876,89.2825 L93.3876,86.6885 Z M50.6056,64.3985 C50.6056,68.3635 53.8316,71.5895 57.7966,71.5895 L82.5036,71.5895 C86.4686,71.5895 89.6936,68.3635 89.6936,64.3985 L89.6936,56.6395 L50.6056,56.6395 L50.6056,64.3985 Z M6.0826,22.4495 L3.6426,22.4495 C3.1906,22.4495 2.8236,22.8165 2.8236,23.2675 L2.8236,33.0855 C2.8236,33.5365 3.1906,33.9045 3.6426,33.9045 L6.0826,33.9045 L6.0826,22.4495 Z M99.9996,57.5535 L99.9996,82.9505 C99.9996,85.0115 98.3236,86.6885 96.2616,86.6885 L96.2106,86.6885 L96.2106,89.2825 C96.2106,92.4355 93.6466,95.0005 90.4946,95.0005 L15.2256,95.0005 C10.1846,95.0005 6.0826,90.8985 6.0826,85.8575 L6.0826,36.7275 L3.6426,36.7275 C1.6346,36.7275 -0.0004,35.0945 -0.0004,33.0855 L-0.0004,23.2675 C-0.0004,21.2595 1.6346,19.6255 3.6426,19.6255 L6.0826,19.6255 L6.0826,17.8015 C6.0826,12.7605 10.1846,8.6585 15.2256,8.6585 L19.3156,8.6585 L19.3156,7.8245 L18.1036,7.8245 C17.3236,7.8245 16.6916,7.1925 16.6916,6.4125 C16.6916,5.6325 17.3236,5.0005 18.1036,5.0005 L23.3516,5.0005 C24.1316,5.0005 24.7636,5.6325 24.7636,6.4125 C24.7636,7.1925 24.1316,7.8245 23.3516,7.8245 L22.1396,7.8245 L22.1396,8.6585 L29.6956,8.6585 L29.6956,6.4125 C29.6956,5.6325 30.3276,5.0005 31.1076,5.0005 C31.8876,5.0005 32.5196,5.6325 32.5196,6.4125 L32.5196,8.6585 L73.5826,8.6585 L73.5826,7.8235 L72.3706,7.8235 C71.5916,7.8235 70.9586,7.1915 70.9586,6.4125 C70.9586,5.6325 71.5916,5.0005 72.3706,5.0005 L77.6186,5.0005 C78.3986,5.0005 79.0306,5.6325 79.0306,6.4125 C79.0306,7.1915 78.3986,7.8235 77.6186,7.8235 L76.4066,7.8235 L76.4066,8.6585 L80.7846,8.6585 C85.8256,8.6585 89.9266,12.7605 89.9266,17.8015 L89.9266,39.0125 C89.9266,41.2025 88.1446,42.9835 85.9556,42.9835 L80.8566,42.9835 L80.8566,49.3225 C80.8566,50.1025 80.2246,50.7345 79.4446,50.7345 C78.6646,50.7345 78.0336,50.1025 78.0336,49.3225 L78.0336,42.9835 L64.6736,42.9835 C62.4836,42.9835 60.7026,41.2025 60.7026,39.0125 L60.7026,32.5735 C60.7026,30.7215 59.1966,29.2165 57.3456,29.2165 L45.2266,29.2165 C43.3756,29.2165 41.8696,30.7215 41.8696,32.5735 L41.8696,49.6685 C41.8696,51.9555 43.7306,53.8155 46.0176,53.8155 L96.2616,53.8155 C98.3236,53.8155 99.9996,55.4925 99.9996,57.5535 L99.9996,57.5535 Z M44.8256,75.3315 L25.3086,75.3315 C24.5286,75.3315 23.8966,75.9645 23.8966,76.7435 C23.8966,77.5235 24.5286,78.1555 25.3086,78.1555 L44.8256,78.1555 C45.6056,78.1555 46.2376,77.5235 46.2376,76.7435 C46.2376,75.9645 45.6056,75.3315 44.8256,75.3315 L44.8256,75.3315 Z M20.5416,59.9565 L26.1616,59.9565 L26.1616,57.5345 L20.5416,57.5345 L20.5416,59.9565 Z M20.5416,65.2025 L26.1616,65.2025 L26.1616,62.7805 L20.5416,62.7805 L20.5416,65.2025 Z M26.6816,68.0255 L20.0206,68.0255 C18.7506,68.0255 17.7176,66.9925 17.7176,65.7225 L17.7176,57.0135 C17.7176,55.7435 18.7506,54.7105 20.0206,54.7105 L26.6816,54.7105 C27.9516,54.7105 28.9846,55.7435 28.9846,57.0135 L28.9846,65.7225 C28.9846,66.9925 27.9516,68.0255 26.6816,68.0255 L26.6816,68.0255 Z M23.3516,47.9105 C27.1926,47.9105 30.3186,44.7855 30.3186,40.9435 C30.3186,37.1015 27.1926,33.9755 23.3516,33.9755 C20.2436,33.9755 17.5106,36.0505 16.6596,39.0285 C16.4846,39.6375 16.3836,40.2785 16.3836,40.9435 C16.3836,42.0295 16.6436,43.0525 17.0876,43.9695 C18.2486,46.3655 20.6826,47.9105 23.3516,47.9105 L23.3516,47.9105 Z M23.3516,50.7345 C22.3406,50.7345 21.3306,50.5755 20.3696,50.2635 C16.7266,49.0875 14.0226,45.7765 13.6186,41.9655 C13.3986,39.8985 13.8606,37.7845 14.9126,35.9935 C16.6526,33.0295 19.9136,31.1515 23.3516,31.1515 C28.7506,31.1515 33.1426,35.5445 33.1426,40.9435 C33.1426,46.3425 28.7506,50.7345 23.3516,50.7345 L23.3516,50.7345 Z M70.5876,30.6695 C70.5876,33.0985 72.5646,35.0755 74.9946,35.0755 C77.4246,35.0755 79.4016,33.0985 79.4016,30.6695 C79.4016,28.2385 77.4246,26.2615 74.9946,26.2615 C72.5646,26.2615 70.5876,28.2385 70.5876,30.6695 L70.5876,30.6695 Z M67.7646,30.6695 C67.7646,26.6815 71.0076,23.4375 74.9946,23.4375 C78.9816,23.4375 82.2256,26.6815 82.2256,30.6695 C82.2256,34.6555 78.9816,37.8995 74.9946,37.8995 C71.0076,37.8995 67.7646,34.6555 67.7646,30.6695 L67.7646,30.6695 Z M72.5796,20.7115 C73.3596,20.7115 73.9916,20.0795 73.9916,19.2995 L73.9916,15.4765 C73.9916,14.6965 73.3596,14.0645 72.5796,14.0645 C71.7996,14.0645 71.1676,14.6965 71.1676,15.4765 L71.1676,19.2995 C71.1676,20.0795 71.7996,20.7115 72.5796,20.7115 L72.5796,20.7115 Z M42.0656,19.5245 L50.5016,19.5245 L50.5016,17.4615 L42.0656,17.4615 L42.0656,19.5245 Z M39.2426,19.9845 L39.2426,17.0015 C39.2426,15.6975 40.3026,14.6365 41.6066,14.6365 L50.9616,14.6365 C52.2656,14.6365 53.3256,15.6975 53.3256,17.0015 L53.3256,19.9845 C53.3256,21.2885 52.2656,22.3485 50.9616,22.3485 L41.6066,22.3485 C40.3026,22.3485 39.2426,21.2885 39.2426,19.9845 L39.2426,19.9845 Z M77.2576,19.2995 L77.2576,15.4765 C77.2576,14.6965 77.8906,14.0645 78.6696,14.0645 C79.4496,14.0645 80.0816,14.6965 80.0816,15.4765 L80.0816,19.2995 C80.0816,20.0795 79.4496,20.7115 78.6696,20.7115 C77.8906,20.7115 77.2576,20.0795 77.2576,19.2995 L77.2576,19.2995 Z"
              id="icon_sewing-machine" fill="#3A4B60"></path>
    </g>
</svg>