<?xml version="1.0" encoding="UTF-8"?>
<svg width="100px" height="100px" viewBox="0 0 100 100" version="1.1" xmlns="http://www.w3.org/2000/svg">
    <title>icon / furniture / side-table</title>
    <g id="icon-/-furniture-/-side-table" stroke="none" stroke-width="1" fill="none" fill-rule="evenodd">
        <path d="M86.2024,13.4844 L85.5974,13.4834 L13.7754,13.4634 L13.7964,3.7774 L85.8484,3.7774 L86.2044,4.1334 L86.2224,4.4044 L86.2024,13.4844 Z M75.3074,96.2234 L81.2104,96.2234 L81.2104,17.2594 L75.3074,17.2594 L75.3074,96.2234 Z M28.4694,86.6864 L71.5294,86.6864 L71.5294,17.2594 L28.4694,17.2594 L28.4694,86.6864 Z M28.4694,96.2234 L71.5294,96.2234 L71.5294,90.4134 L28.4694,90.4134 L28.4694,96.2234 Z M18.7904,96.2234 L24.6924,96.2234 L24.6924,17.2594 L18.7904,17.2594 L18.7904,96.2234 Z M90.0004,12.8574 L90.0004,4.4024 C90.0004,1.9744 88.0244,0.0004 85.5984,0.0004 L14.4024,0.0004 C11.9744,0.0004 10.0004,1.9754 10.0004,4.4034 L10.0004,12.8574 C10.0004,15.2854 11.9744,17.2604 14.4024,17.2604 L15.0094,17.2604 L15.0134,17.8674 L15.0134,95.6994 C15.0134,98.0704 16.9424,100.0004 19.3134,100.0004 L80.6854,100.0004 C83.0564,100.0004 84.9874,98.0694 84.9874,95.6984 L84.9874,17.2594 L85.5954,17.2594 C88.0244,17.2594 90.0004,15.2854 90.0004,12.8574 L90.0004,12.8574 Z"
              id="icon_side-table" fill="#3A4B60"></path>
    </g>
</svg>