<?xml version="1.0" encoding="UTF-8"?>
<svg width="100px" height="100px" viewBox="0 0 100 100" version="1.1" xmlns="http://www.w3.org/2000/svg">
    <title>icon / furniture / sled_winter</title>
    <g id="icon-/-furniture-/-sled_winter" stroke="none" stroke-width="1" fill="none" fill-rule="evenodd">
        <path d="M4.099,65.44 C4.495,65.044 5.021,64.827 5.579,64.827 L71.318,64.827 C76.64,64.827 81.719,62.827 85.621,59.196 C89.503,55.582 91.863,50.696 92.266,45.438 C92.306,44.923 92.327,44.378 92.327,43.815 C92.327,41.518 91.964,39.27 91.248,37.131 L91.217,37.099 L91.216,37.036 C90.864,36.002 90.426,34.989 89.912,34.02 C89.45,33.147 89.707,32.026 90.511,31.412 C90.976,31.059 91.453,30.985 91.771,30.985 C92.557,30.985 93.275,31.418 93.642,32.112 C95.583,35.796 96.548,39.806 96.5139189,44.028 C96.403,57.805 84.98,69.014 71.05,69.014 L5.579,69.014 C4.425,69.014 3.485,68.074 3.485,66.919 C3.485,66.36 3.703,65.835 4.099,65.44 L4.099,65.44 Z M15.649,61.341 L19.835,61.341 L19.835,47.047 L15.649,47.047 L15.649,61.341 Z M23.322,61.341 L54.301,61.341 L54.301,47.047 L23.322,47.047 L23.322,61.341 Z M57.787,61.341 L61.974,61.341 L61.974,47.047 L57.787,47.047 L57.787,61.341 Z M88.541,47.047 L88.479,47.353 C86.803,55.459 79.586,61.341 71.318,61.341 L65.46,61.341 L65.46,47.047 L88.541,47.047 Z M5.579,43.561 C4.425,43.561 3.485,42.622 3.485,41.467 C3.485,40.908 3.703,40.382 4.099,39.988 C4.495,39.592 5.022,39.375 5.579,39.375 L88.281,39.375 L88.329,39.567 C88.628,40.777 88.798,42.034 88.835,43.3 L88.842,43.561 L5.579,43.561 Z M5.579,72.5 L71.05,72.5 C78.633,72.5 85.838,69.536 91.338,64.156 C96.863,58.753 99.939,51.615 99.999,44.058 C100.039,39.252 98.938,34.685 96.726,30.486 L96.726,30.487 C95.752,28.645 93.854,27.5 91.771,27.5 C90.546,27.5 89.381,27.894 88.4,28.64 C86.276,30.258 85.589,33.154 86.767,35.523 L86.95,35.889 L5.579,35.889 C4.088,35.889 2.688,36.469 1.636,37.522 C0.58,38.575 0,39.976 0,41.468 C0,44.544 2.502,47.047 5.579,47.047 L12.164,47.047 L12.164,61.341 L5.579,61.341 C4.088,61.341 2.688,61.921 1.636,62.974 C0.58,64.026 0,65.427 0,66.92 C0,69.997 2.502,72.5 5.579,72.5 L5.579,72.5 Z"
              id="icon_sled_winter" fill="#3A4B60"></path>
    </g>
</svg>