<?xml version="1.0" encoding="UTF-8"?>
<svg width="100px" height="100px" viewBox="0 0 100 100" version="1.1" xmlns="http://www.w3.org/2000/svg">
    <title>icon / furniture / smoker</title>
    <g id="icon-/-furniture-/-smoker" stroke="none" stroke-width="1" fill="none" fill-rule="evenodd">
        <path d="M31.625,55.6316 C31.747,56.2206 31.474,56.9686 30.918,57.2486 C30.524,57.4456 30.054,57.5716 29.614,57.5806 C27.76,57.6196 25.904,57.6086 24.05,57.6016 C23.682,57.6006 23.313,57.5456 22.947,57.5016 C22.06,57.3936 21.384,56.1986 21.794,55.3076 C22.154,54.5216 22.793,54.2596 23.583,54.2486 C24.594,54.2356 25.604,54.2456 26.615,54.2456 L26.615,54.2436 C27.536,54.2436 28.457,54.2366 29.378,54.2486 C29.695,54.2526 30.012,54.3136 30.329,54.3326 C31.001,54.3736 31.516,55.1046 31.625,55.6316 L31.625,55.6316 Z M81.638,58.9056 C81.63,59.5106 81.471,60.1056 81.147,60.6156 C80.417,61.7676 79.44,61.9196 78.403,61.9196 C69.002,61.9166 44.393,61.9266 41.489,61.9086 C41.023,61.9056 40.512,61.8836 40.103,61.6946 C38.941,61.1606 38.313,60.2396 38.3258022,58.9116 C38.346,56.8016 38.336,50.9376 38.336,50.9376 C38.336,50.9376 59.988,50.9326 59.988,50.9306 C65.092,50.9306 81.659,50.9376 81.659,50.9376 C81.659,50.9376 81.671,56.3966 81.638,58.9056 L81.638,58.9056 Z M81.658,86.6926 L49.942,86.6686 C49.942,86.6686 49.048,86.6876 48.6,86.6876 C48.35,86.6876 48.18,86.6016 48.107,86.3146 C47.916,85.5636 47.725,84.8086 47.466,84.0786 C46.827,82.2776 45.693,80.7976 44.26,79.5396 C42.872,78.3226 41.192,77.5116 39.405,77.0516 C39.146,76.9846 38.886,76.9226 38.624,76.8686 C38.383,76.8186 38.327,76.6876 38.3279869,76.4636 C38.332,72.9976 38.33,68.5306 38.332,65.0646 C38.332,64.7876 38.545,64.6406 38.796,64.7566 C39.773,65.2106 40.817,65.2556 41.858,65.2586 C47.077,65.2736 71.405,65.2746 78.351,65.2556 C79.258,65.2526 80.178,65.2076 81.034,64.8206 C81.38,64.6656 81.658,64.8336 81.658,65.2136 C81.659,71.8386 81.658,86.6926 81.658,86.6926 L81.658,86.6926 Z M36.644,96.661635 C31.902,96.6486 28.407,92.8706 28.334,88.3456 C28.453,83.6806 32.087,80.0396 36.683,80.0624916 C41.427,80.0856 44.988,83.8676 44.9710606,88.3806 C44.951,93.0696 41.215,96.6746 36.644,96.661635 L36.644,96.661635 Z M34.995,69.0116 L18.332,69.0296 L18.332,50.9376 L35.003,50.9376 L34.995,69.0116 Z M18.332,13.3646 L34.998,13.3646 L34.991,47.5666 L18.332,47.5666 L18.332,13.3646 Z M28.326,3.3616 L28.325,10.0356 L24.995,10.0356 L24.995,3.3616 L28.326,3.3616 Z M41.032,30.0426 C41.619,30.0336 41.662,30.0296 41.662,30.6336 C41.662,33.1376 41.673,38.5236 41.678,41.4186 C41.681,42.4896 42.549,43.3556 43.62,43.3556 L76.389,43.3556 C77.46,43.3556 78.329,42.4866 78.33,41.4156 L78.347,30.0276 C78.347,30.0276 78.521,30.0636 78.597,30.0716 C79.073,30.1276 79.591,30.1256 80.009,30.3236 C81.121,30.8526 81.657,31.7786 81.655,33.0286 C81.648,37.3536 81.658,47.5756 81.658,47.5756 L38.331,47.5756 C38.331,47.5756 38.332,34.3556 38.333,32.8366 C38.409,31.4666 39.575,30.0646 41.032,30.0426 L41.032,30.0426 Z M44.997,30.0276 L74.994,30.0276 L74.994,40.0136 L44.997,40.0166 L44.997,30.0276 Z M44.997,26.6936 L48.326,26.6936 L48.326,3.3646 L44.997,3.3646 L44.997,26.6936 Z M83.903,29.3546 C83.189,28.3096 82.222,27.5806 81.063,27.1076 C80.211,26.7586 79.299,26.6996 78.392,26.6986 C72.635,26.6906 51.669,26.6946 51.669,26.6946 L51.598,1.9366 C51.594,0.8656 50.726,-0.0004 49.655,-0.0004 L43.605,-0.0004 C42.533,-0.0004 41.663,0.8696 41.663,1.9426 L41.662,26.7156 C41.662,26.7156 41.745,26.7026 41.048,26.7156 C40.069,26.7336 39.167,26.9686 38.334,27.3966 C38.336,21.3396 38.338,15.0546 38.338,11.9766 C38.339,10.9046 37.471,10.0406 36.399,10.0386 L31.664,10.0306 L31.666,1.9426 C31.666,0.8696 30.797,-0.0004 29.724,-0.0004 L23.597,-0.0004 C22.524,-0.0004 21.654,0.8696 21.654,1.9436 L21.658,10.0306 L16.944,10.0386 C15.873,10.0406 15.005,10.9086 15.005,11.9816 L15,70.4246 C15,71.4966 15.869,72.3666 16.942,72.3666 L34.998,72.3666 C34.998,72.3666 34.991,75.6246 35.002,76.4446 C35.005,76.6896 34.931,76.8226 34.681,76.8766 C34.308,76.9576 33.941,77.0726 33.57,77.1636 C32.045,77.5346 30.688,78.2626 29.468,79.2236 C28.133,80.2756 27.063,81.5566 26.288,83.0906 C25.828,83.9996 25.474,84.9446 25.287,85.9266 C25.032,87.2666 24.82,88.6336 25.138,90.0006 C25.339,90.8666 25.513,91.7496 25.823,92.5776 C26.271,93.7736 26.929,94.8616 27.767,95.8436 C28.775,97.0256 29.956,97.9616 31.317,98.6876 C32.402,99.2656 33.589,99.6516 34.805,99.8336 C37.695,100.2676 40.245,99.7336 42.536,98.4126 C44.066,97.5306 45.325,96.3296 46.316,94.8486 C46.976,93.8626 47.457,92.8016 47.82,91.6806 C47.886,91.4786 48.058,90.6706 48.099,90.4626 C48.161,90.1476 48.33,90.0276 48.635,90.0306 C48.75,90.0316 48.865,90.0296 48.98,90.0296 L81.658,90.0296 C81.658,90.0296 81.653,97.0486 81.654,98.2006 C81.654,98.8426 81.877,99.3816 82.436,99.7316 C83.422,100.3496 84.703,99.8626 84.958,98.6486 C85,98.4496 84.996,98.2406 84.996,98.0366 C84.998,87.6216 84.994,43.4286 85,33.1926 C85.001,31.8026 84.695,30.5126 83.903,29.3546 L83.903,29.3546 Z M48.648,34.0906 C49.076,33.4726 49.702,33.3666 50.366,33.3656 C53.564,33.3576 66.178,33.3586 69.286,33.3646 C69.643,33.3656 70,33.4026 70.353,33.4536 C70.965,33.5416 71.482,34.0746 71.62,34.7276 C71.739,35.2946 71.439,36.0276 70.972,36.3526 C70.515,36.6686 69.993,36.6926 69.469,36.6936 C63.2,36.6946 56.932,36.6956 50.663,36.6916 C50.333,36.6916 50,36.6586 49.673,36.6076 C48.505,36.4226 47.969,35.0716 48.648,34.0906 L48.648,34.0906 Z M36.673,89.986604 C35.758,89.9846 35.017,89.2406 35.0219748,88.3356 C35.027,87.4496 35.782,86.7236 36.676,86.7346 C37.766,86.7466 38.302,87.6536 38.312,88.3626 C38.324,89.2366 37.553,89.9886 36.673,89.986604 L36.673,89.986604 Z M36.648,83.3865917 C33.894,83.3816 31.669,85.6246 31.661,88.3476 C31.723,91.1276 33.812,93.3306 36.655,93.3486 C39.496,93.3666 41.648,91.1086 41.6460014,88.3626 C41.6460014,85.6106 39.502,83.3916 36.648,83.3865917 L36.648,83.3865917 Z"
              id="icon_smoker" fill="#3A4B60"></path>
    </g>
</svg>