<?xml version="1.0" encoding="UTF-8"?>
<svg width="100px" height="100px" viewBox="0 0 100 100" version="1.1" xmlns="http://www.w3.org/2000/svg">
    <title>icon / furniture / snow-blower</title>
    <g id="icon-/-furniture-/-snow-blower" stroke="none" stroke-width="1" fill="none" fill-rule="evenodd">
        <path d="M90.659,49.8772222 C86.461,50.0542222 82.513,52.1412222 80.007,55.5342222 C78.804,57.1642222 77.74,58.8692222 76.816,60.6342222 C76.815,60.6372222 76.813,60.6392222 76.812,60.6422222 C73.931,66.1462222 72.427,72.2432222 72.427,78.5642222 C72.427,84.8882222 77.571,90.0332222 83.895,90.0332222 C87.625,90.0332222 90.659,86.9992222 90.659,83.2712222 L90.659,49.8772222 Z M70.829,83.3602222 C70.276,81.8622222 69.96,80.2512222 69.96,78.5642222 C69.96,72.5562222 71.24,66.7372222 73.698,61.3892222 L58.943,61.3892222 C58.241,61.3892222 57.585,61.7372222 57.19,62.3202222 C56.796,62.9022222 56.717,63.6402222 56.977,64.2922222 L62.157,77.2432222 C63.592,80.8322222 66.98,83.2042222 70.829,83.3602222 L70.829,83.3602222 Z M59.95,78.3482222 C59.923,78.2842222 59.891,78.2242222 59.866,78.1592222 L55.04,66.0892222 C54.161,66.3612222 53.25,66.5102222 52.318,66.5412222 C54.183,69.2172222 55.286,72.4632222 55.286,75.9662222 C55.286,76.7762222 55.208,77.5672222 55.095,78.3482222 L59.95,78.3482222 Z M52.819,75.9662222 C52.819,68.2112222 46.511,61.9022222 38.757,61.9022222 C31.003,61.9022222 24.694,68.2112222 24.694,75.9662222 C24.694,83.7202222 31.003,90.0282222 38.757,90.0282222 C46.511,90.0282222 52.819,83.7202222 52.819,75.9662222 L52.819,75.9662222 Z M26.613,64.7892222 C27.207,64.1442222 27.847,63.5432222 28.537,62.9992222 L16.176,30.5572222 C16.099,30.3602222 15.945,30.1962222 15.754,30.1112222 C15.551,30.0222222 15.33,30.0162222 15.129,30.0912222 L14.152,30.4642222 C13.956,30.5382222 13.799,30.6872222 13.714,30.8802222 C13.628,31.0732222 13.622,31.2892222 13.698,31.4892222 L26.613,64.7892222 Z M33.099,49.8632222 L33.099,60.4542222 C34.867,59.8072222 36.767,59.4362222 38.757,59.4362222 C39.919,59.4362222 41.054,59.5602222 42.149,59.7892222 C41.7,58.6102222 41.46,57.3542222 41.46,56.0552222 C41.46,53.7772222 42.189,51.6372222 43.492,49.8632222 L37.481,49.8632222 C37.48,49.8632222 37.478,49.8642222 37.476,49.8642222 C37.475,49.8642222 37.473,49.8632222 37.471,49.8632222 L33.099,49.8632222 Z M38.71,47.3962222 L46.034,47.3962222 C47.786,46.1942222 49.823,45.5552222 51.963,45.5552222 C54.395,45.5552222 56.686,46.3992222 58.522,47.8752222 L58.522,40.4752222 L38.71,40.4752222 L38.71,47.3962222 Z M55.517,56.0552222 C55.517,54.0952222 53.923,52.5012222 51.963,52.5012222 C50.003,52.5012222 48.409,54.0952222 48.409,56.0552222 C48.409,58.0162222 50.003,59.6102222 51.963,59.6102222 C53.923,59.6102222 55.517,58.0162222 55.517,56.0552222 L55.517,56.0552222 Z M59.465,58.9222222 C59.814,58.0132222 59.999,57.0542222 59.999,56.0552222 C59.999,54.5042222 59.557,53.0032222 58.722,51.7132222 C58.711,51.6952222 58.7,51.6782222 58.69,51.6602222 C57.198,49.3802222 54.687,48.0222222 51.963,48.0222222 C50.213,48.0222222 48.549,48.5732222 47.151,49.6192222 C45.102,51.1542222 43.927,53.5002222 43.927,56.0552222 C43.927,57.7752222 44.457,59.4052222 45.462,60.7772222 L45.733,61.0012222 C47.28,61.7262222 48.695,62.6812222 49.937,63.8262222 C51.421,64.2092222 52.953,64.1632222 54.37,63.7152222 C54.331,62.8732222 54.525,62.0312222 54.944,61.2802222 C54.063,61.7852222 53.048,62.0772222 51.963,62.0772222 C48.642,62.0772222 45.942,59.3762222 45.942,56.0552222 C45.942,52.7352222 48.642,50.0332222 51.963,50.0332222 C55.283,50.0332222 57.984,52.7352222 57.984,56.0552222 C57.984,57.2792222 57.615,58.4182222 56.985,59.3692222 C57.59,59.0832222 58.255,58.9222222 58.943,58.9222222 L59.465,58.9222222 Z M65.883,58.9222222 L70.565,58.9222222 L70.565,48.1572222 C70.565,47.8672222 70.667,47.5862222 70.854,47.3632222 L80.907,35.4052222 L77.575,32.3362222 L65.883,45.6542222 L65.883,58.9222222 Z M93.126,48.6312222 L93.126,83.2712222 C93.126,88.3592222 88.984,92.5002222 83.895,92.5002222 C78.891,92.5002222 74.508,89.8402222 72.05,85.8672222 L71.007,85.8492222 C67.104,85.7782222 63.56,83.8732222 61.339,80.8142222 L54.771,80.8142222 C54.699,80.8142222 54.637,80.7852222 54.568,80.7732222 C52.504,87.5502222 46.199,92.4952222 38.757,92.4952222 C29.641,92.4952222 22.226,85.0802222 22.226,75.9662222 C22.226,72.6882222 23.197,69.6382222 24.849,67.0652222 L11.396,32.3762222 C11.083,31.5582222 11.105,30.6722222 11.46,29.8762222 C11.708,29.3202222 12.102,28.8622222 12.592,28.5262222 L10.143,22.0992222 C9.797,21.1832222 9.013,20.5602222 8.71,20.3872222 L1.233,20.3872222 C0.553,20.3872222 0,19.8352222 0,19.1532222 C0,18.4722222 0.553,17.9202222 1.233,17.9202222 L8.892,17.9202222 C9.936,17.9202222 11.756,19.3932222 12.45,21.2222222 L14.885,27.6142222 C15.514,27.5102222 16.16,27.5912222 16.756,27.8572222 C17.537,28.2022222 18.168,28.8652222 18.479,29.6732222 L30.633,61.5672222 L30.633,48.6302222 C30.633,47.9482222 31.184,47.3962222 31.866,47.3962222 L36.243,47.3962222 L36.243,39.2412222 C36.243,38.5602222 36.796,38.0082222 37.476,38.0082222 L59.756,38.0082222 C60.437,38.0082222 60.989,38.5602222 60.989,39.2412222 L60.989,50.7252222 C61.945,52.3362222 62.466,54.1642222 62.466,56.0552222 C62.466,57.0422222 62.317,57.9972222 62.055,58.9222222 L63.415,58.9222222 L63.415,45.1902222 C63.415,44.8912222 63.524,44.6022222 63.722,44.3772222 L76.555,29.7592222 C76.774,29.5092222 77.085,29.3582222 77.416,29.3412222 C77.771,29.3292222 78.073,29.4402222 78.317,29.6652222 L83.445,34.3902222 C83.93,34.8362222 83.978,35.5862222 83.554,36.0912222 L73.032,48.6072222 L73.032,58.9222222 L74.938,58.9222222 C75.848,57.2492222 76.871,55.6272222 78.02,54.0702222 C81.106,49.8922222 86.048,47.3972222 91.242,47.3972222 L91.892,47.3972222 C92.573,47.3972222 93.126,47.9492222 93.126,48.6312222 L93.126,48.6312222 Z M39.691,75.9662222 C39.691,75.4502222 39.272,75.0302222 38.757,75.0302222 C38.241,75.0302222 37.822,75.4502222 37.822,75.9662222 C37.822,76.4812222 38.241,76.9002222 38.757,76.9002222 C39.272,76.9002222 39.691,76.4812222 39.691,75.9662222 L39.691,75.9662222 Z M42.158,75.9662222 C42.158,77.8412222 40.632,79.3672222 38.757,79.3672222 C36.881,79.3672222 35.354,77.8412222 35.354,75.9662222 C35.354,74.0902222 36.881,72.5642222 38.757,72.5642222 C40.632,72.5642222 42.158,74.0902222 42.158,75.9662222 L42.158,75.9662222 Z M45.354,75.9662222 C45.354,72.3282222 42.394,69.3692222 38.757,69.3692222 C35.119,69.3692222 32.16,72.3282222 32.16,75.9662222 C32.16,79.6042222 35.119,82.5632222 38.757,82.5632222 C42.394,82.5632222 45.354,79.6042222 45.354,75.9662222 L45.354,75.9662222 Z M47.821,75.9662222 C47.821,80.9632222 43.755,85.0302222 38.757,85.0302222 C33.759,85.0302222 29.693,80.9632222 29.693,75.9662222 C29.693,70.9682222 33.759,66.9012222 38.757,66.9012222 C43.755,66.9012222 47.821,70.9682222 47.821,75.9662222 L47.821,75.9662222 Z M86.124,32.8152222 C86.518,32.8152222 86.914,32.6272222 87.15,32.2732222 C87.525,31.7002222 87.377,30.9402222 86.815,30.5552222 C86.253,30.1802222 85.482,30.3272222 85.097,30.8912222 C84.723,31.4532222 84.871,32.2232222 85.433,32.6072222 C85.64,32.7452222 85.888,32.8152222 86.124,32.8152222 L86.124,32.8152222 Z M93.358,24.5162222 C92.736,24.8022222 92.46,25.5322222 92.746,26.1532222 C92.953,26.6072222 93.397,26.8742222 93.871,26.8742222 C94.038,26.8742222 94.217,26.8342222 94.385,26.7552222 C94.995,26.4802222 95.272,25.7392222 94.985,25.1272222 C94.71,24.5062222 93.979,24.2302222 93.358,24.5162222 L93.358,24.5162222 Z M98.242,22.8282222 C97.581,22.9862222 97.167,23.6472222 97.325,24.3092222 C97.453,24.8812222 97.967,25.2652222 98.528,25.2652222 C98.618,25.2652222 98.707,25.2562222 98.805,25.2352222 C99.466,25.0782222 99.881,24.4162222 99.722,23.7552222 C99.575,23.0942222 98.914,22.6802222 98.242,22.8282222 L98.242,22.8282222 Z M89.607,29.3512222 C89.864,29.3512222 90.121,29.2732222 90.338,29.1042222 C90.881,28.7092222 90.999,27.9302222 90.604,27.3882222 C90.2,26.8342222 89.42,26.7162222 88.878,27.1202222 C88.324,27.5252222 88.206,28.2952222 88.61,28.8482222 C88.857,29.1732222 89.232,29.3512222 89.607,29.3512222 L89.607,29.3512222 Z M84.436,27.7922222 C83.845,27.4562222 83.085,27.6632222 82.749,28.2562222 C82.413,28.8482222 82.621,29.5972222 83.213,29.9432222 C83.4,30.0522222 83.618,30.1012222 83.825,30.1012222 C84.249,30.1012222 84.673,29.8742222 84.9,29.4802222 L84.9,29.4692222 C85.236,28.8872222 85.028,28.1272222 84.436,27.7922222 L84.436,27.7922222 Z M98.281,15.3272222 C97.65,15.6042222 97.364,16.3242222 97.64,16.9562222 C97.839,17.4202222 98.292,17.6962222 98.765,17.6962222 C98.933,17.6962222 99.1,17.6662222 99.259,17.5982222 C99.881,17.3212222 100.167,16.6012222 99.9,15.9692222 C99.634,15.3482222 98.904,15.0622222 98.281,15.3272222 L98.281,15.3272222 Z M86.736,26.1242222 C87.071,26.1242222 87.407,25.9862222 87.654,25.7192222 L87.644,25.7192222 C88.107,25.2162222 88.058,24.4272222 87.555,23.9732222 C87.052,23.5192222 86.271,23.5592222 85.818,24.0622222 C85.354,24.5742222 85.403,25.3542222 85.906,25.8082222 C86.143,26.0152222 86.439,26.1242222 86.736,26.1242222 L86.736,26.1242222 Z M90.328,22.7492222 C90.604,22.7492222 90.871,22.6602222 91.098,22.4812222 C91.631,22.0582222 91.72,21.2782222 91.295,20.7452222 C90.871,20.2122222 90.091,20.1342222 89.558,20.5592222 C89.025,20.9822222 88.936,21.7622222 89.36,22.2952222 C89.607,22.6012222 89.963,22.7492222 90.328,22.7492222 L90.328,22.7492222 Z M93.752,17.6562222 C93.16,18.0022222 92.972,18.7622222 93.318,19.3442222 C93.555,19.7292222 93.959,19.9462222 94.385,19.9462222 C94.601,19.9462222 94.818,19.8872222 95.015,19.7682222 C95.597,19.4232222 95.786,18.6642222 95.439,18.0812222 C95.095,17.4982222 94.334,17.3012222 93.752,17.6562222 L93.752,17.6562222 Z M98.509,9.96922222 C98.725,9.96922222 98.933,9.92022222 99.131,9.80222222 C99.722,9.45622222 99.92,8.69622222 99.575,8.11422222 C99.229,7.52222222 98.47,7.32422222 97.888,7.67022222 C97.295,8.01622222 97.098,8.77522222 97.443,9.35722222 C97.671,9.75222222 98.085,9.96922222 98.509,9.96922222 L98.509,9.96922222 Z M80.963,27.2482222 C81.14,27.3382222 81.338,27.3882222 81.525,27.3882222 C81.97,27.3882222 82.403,27.1412222 82.621,26.7062222 C82.927,26.0942222 82.689,25.3542222 82.078,25.0482222 C81.476,24.7422222 80.725,24.9882222 80.42,25.6012222 L80.42,25.5912222 C80.114,26.2032222 80.361,26.9432222 80.963,27.2482222 L80.963,27.2482222 Z M90.535,15.7522222 C90.831,15.7522222 91.117,15.6442222 91.354,15.4372222 C91.867,14.9822222 91.906,14.2022222 91.453,13.6892222 C90.999,13.1862222 90.21,13.1472222 89.707,13.6012222 C89.203,14.0542222 89.153,14.8342222 89.618,15.3382222 C89.854,15.6132222 90.2,15.7522222 90.535,15.7522222 L90.535,15.7522222 Z M94.374,12.6532222 C94.62,12.6532222 94.878,12.5852222 95.095,12.4272222 C95.646,12.0222222 95.775,11.2522222 95.371,10.6992222 C94.976,10.1472222 94.206,10.0192222 93.654,10.4232222 C93.1,10.8182222 92.972,11.5872222 93.377,12.1492222 C93.614,12.4762222 93.989,12.6532222 94.374,12.6532222 L94.374,12.6532222 Z M87.062,19.2462222 C87.397,19.2462222 87.742,19.1072222 87.989,18.8312222 C88.433,18.3172222 88.385,17.5382222 87.88,17.0942222 C87.367,16.6402222 86.588,16.6892222 86.134,17.2022222 C85.68,17.7062222 85.729,18.4852222 86.243,18.9392222 C86.479,19.1472222 86.765,19.2462222 87.062,19.2462222 L87.062,19.2462222 Z M83.341,22.9262222 C82.768,22.5422222 82.631,21.7722222 83.015,21.2092222 C83.4,20.6472222 84.17,20.4992222 84.723,20.8842222 C85.296,21.2692222 85.433,22.0392222 85.049,22.6012222 C84.811,22.9562222 84.427,23.1442222 84.032,23.1442222 C83.795,23.1442222 83.549,23.0742222 83.341,22.9262222 L83.341,22.9262222 Z"
              id="icon_snow-blower" fill="#3A4B60"></path>
    </g>
</svg>