<?xml version="1.0" encoding="UTF-8"?>
<svg width="100px" height="100px" viewBox="0 0 100 100" version="1.1" xmlns="http://www.w3.org/2000/svg">
    <title>icon / furniture / sofa-bed</title>
    <g id="icon-/-furniture-/-sofa-bed" stroke="none" stroke-width="1" fill="none" fill-rule="evenodd">
        <path d="M2.587,70.198 L97.414,70.198 L97.414,61.761 L2.587,61.761 L2.587,70.198 Z M87.799,86.885 C87.735,86.952 87.593,87.064 87.375,87.064 C87.095,87.064 86.858,86.875 86.795,86.603 L83.628,72.784 L87.593,72.784 L87.968,86.455 C87.973,86.672 87.866,86.818 87.799,86.885 L87.799,86.885 Z M13.206,86.603 C13.143,86.875 12.905,87.064 12.626,87.064 C12.408,87.064 12.266,86.952 12.201,86.885 C12.135,86.818 12.027,86.672 12.034,86.454 L12.409,72.784 L16.373,72.784 L13.206,86.603 Z M17.062,35.899 L82.938,35.899 L96.98,59.176 L3.02,59.176 L17.062,35.899 Z M11.542,33.852 C11.569,31.461 12.378,29.092 13.823,27.183 L15.898,24.441 L15.602,33.313 L11.469,40.165 L11.542,33.852 Z M18.768,15.97 C18.831,14.083 20.378,12.587 22.266,12.587 L48.417,12.587 L48.417,33.198 L48.417,33.276 L18.191,33.276 L18.768,15.97 Z M81.232,15.97 L81.809,33.276 L51.006,33.276 L51.006,12.587 L77.734,12.587 C79.622,12.587 81.169,14.083 81.232,15.97 L81.232,15.97 Z M86.177,27.183 C87.622,29.092 88.431,31.461 88.458,33.853 L88.531,40.165 L84.398,33.313 L84.102,24.441 L86.177,27.183 Z M99.569,58.461 L91.081,44.389 L90.958,33.825 C90.925,30.901 89.935,28.007 88.171,25.676 L83.963,20.114 L83.958,20.119 L83.814,15.8 C83.707,12.566 81.053,10 77.817,10 L22.182,10 C18.947,10 16.293,12.566 16.186,15.8 L16.042,20.119 L16.037,20.114 L11.829,25.676 C10.065,28.007 9.075,30.901 9.042,33.824 L8.92,44.389 L0.431,58.461 C0.149,58.929 0,59.464 0,60.011 L0,69.784 C0,71.441 1.343,72.784 3,72.784 L9.471,72.784 L9.098,86.374 C9.072,87.335 9.426,88.243 10.096,88.931 C10.767,89.621 11.666,90 12.625,90 C14.283,90 15.697,88.873 16.067,87.259 L19.401,72.784 L80.606,72.784 L83.934,87.259 C84.304,88.873 85.718,90 87.374,90 C88.335,90 89.233,89.621 89.904,88.931 C90.574,88.243 90.928,87.335 90.902,86.374 L90.529,72.784 L97,72.784 C98.657,72.784 100,71.441 100,69.784 L100,60.011 C100,59.464 99.851,58.929 99.569,58.461 L99.569,58.461 Z"
              id="icon_sofa-bed" fill="#3A4B60"></path>
    </g>
</svg>