<?xml version="1.0" encoding="UTF-8"?>
<svg width="100px" height="100px" viewBox="0 0 100 100" version="1.1" xmlns="http://www.w3.org/2000/svg">
    <title>icon / furniture / stove</title>
    <g id="icon-/-furniture-/-stove" stroke="none" stroke-width="1" fill="none" fill-rule="evenodd">
        <path d="M10.3257,36.5068 C10.3257,35.5078 11.1387,34.6938 12.1387,34.6938 L87.8617,34.6938 C88.8617,34.6938 89.6737,35.5078 89.6737,36.5068 C89.6737,37.5068 88.8617,38.3198 87.8617,38.3198 L12.1387,38.3198 C11.1387,38.3198 10.3257,37.5068 10.3257,36.5068 L10.3257,36.5068 Z M13.9507,67.3968 L86.0487,67.3968 L86.0487,45.2038 L13.9507,45.2038 L13.9507,67.3968 Z M12.1387,71.0228 L87.8617,71.0228 C88.8617,71.0228 89.6737,70.2088 89.6737,69.2098 L89.6737,43.3918 C89.6737,42.3918 88.8617,41.5778 87.8617,41.5778 L12.1387,41.5778 C11.1387,41.5778 10.3257,42.3918 10.3257,43.3918 L10.3257,69.2098 C10.3257,70.2088 11.1387,71.0228 12.1387,71.0228 L12.1387,71.0228 Z M3.6247,24.9228 L96.3747,24.9228 L96.3747,3.6248 L3.6247,3.6248 L3.6247,24.9228 Z M3.6247,79.2048 L96.3747,79.2048 L96.3747,28.5478 L3.6247,28.5478 L3.6247,79.2048 Z M3.6247,96.3748 L96.3747,96.3748 L96.3747,82.8298 L3.6247,82.8298 L3.6247,96.3748 Z M96.4667,-0.0002 L3.5337,-0.0002 C1.5857,-0.0002 -0.0003,1.5848 -0.0003,3.5328 L-0.0003,96.4668 C-0.0003,98.4148 1.5857,99.9998 3.5337,99.9998 L96.4667,99.9998 C98.4147,99.9998 99.9997,98.4148 99.9997,96.4668 L99.9997,3.5328 C99.9997,1.5848 98.4147,-0.0002 96.4667,-0.0002 L96.4667,-0.0002 Z M10.3257,89.8778 C10.3257,88.8778 11.1387,88.0648 12.1387,88.0648 L87.8617,88.0648 C88.8617,88.0648 89.6737,88.8778 89.6737,89.8778 C89.6737,90.8768 88.8617,91.6908 87.8617,91.6908 L12.1387,91.6908 C11.1387,91.6908 10.3257,90.8768 10.3257,89.8778 L10.3257,89.8778 Z M43.1157,12.3858 C44.0697,12.3858 44.8447,13.1618 44.8447,14.1148 C44.8447,15.0688 44.0697,15.8448 43.1157,15.8448 C42.1627,15.8448 41.3877,15.0688 41.3877,14.1148 C41.3877,13.1618 42.1627,12.3858 43.1157,12.3858 L43.1157,12.3858 Z M43.1157,19.2688 C45.9587,19.2688 48.2707,16.9568 48.2707,14.1148 C48.2707,11.9268 46.8907,9.9828 44.8287,9.2538 L44.8287,8.9518 C44.8287,8.0078 44.0607,7.2388 43.1157,7.2388 C42.1717,7.2388 41.4027,8.0078 41.4027,8.9518 L41.4027,9.2538 C39.3417,9.9828 37.9617,11.9268 37.9617,14.1148 C37.9617,16.9568 40.2737,19.2688 43.1157,19.2688 L43.1157,19.2688 Z M56.8837,12.3858 C57.8367,12.3858 58.6137,13.1618 58.6137,14.1148 C58.6137,15.0688 57.8367,15.8448 56.8837,15.8448 C55.9307,15.8448 55.1547,15.0688 55.1547,14.1148 C55.1547,13.1618 55.9307,12.3858 56.8837,12.3858 L56.8837,12.3858 Z M56.8837,19.2688 C59.7267,19.2688 62.0387,16.9568 62.0387,14.1148 C62.0387,11.9268 60.6587,9.9828 58.5967,9.2538 L58.5967,8.9518 C58.5967,8.0078 57.8277,7.2388 56.8837,7.2388 C55.9397,7.2388 55.1717,8.0078 55.1717,8.9518 L55.1717,9.2538 C53.1097,9.9828 51.7297,11.9268 51.7297,14.1148 C51.7297,16.9568 54.0407,19.2688 56.8837,19.2688 L56.8837,19.2688 Z M15.5807,12.3858 C16.5337,12.3858 17.3097,13.1618 17.3097,14.1148 C17.3097,15.0688 16.5337,15.8448 15.5807,15.8448 C14.6277,15.8448 13.8517,15.0688 13.8517,14.1148 C13.8517,13.1618 14.6277,12.3858 15.5807,12.3858 L15.5807,12.3858 Z M15.5807,19.2688 C18.4237,19.2688 20.7357,16.9568 20.7357,14.1148 C20.7357,11.9268 19.3557,9.9828 17.2937,9.2538 L17.2937,8.9518 C17.2937,8.0078 16.5247,7.2388 15.5807,7.2388 C14.6367,7.2388 13.8677,8.0078 13.8677,8.9518 L13.8677,9.2538 C11.8057,9.9828 10.4257,11.9268 10.4257,14.1148 C10.4257,16.9568 12.7377,19.2688 15.5807,19.2688 L15.5807,19.2688 Z M70.6517,12.3858 C71.6057,12.3858 72.3807,13.1618 72.3807,14.1148 C72.3807,15.0688 71.6057,15.8448 70.6517,15.8448 C69.6987,15.8448 68.9217,15.0688 68.9217,14.1148 C68.9217,13.1618 69.6987,12.3858 70.6517,12.3858 L70.6517,12.3858 Z M70.6517,19.2688 C73.4937,19.2688 75.8057,16.9568 75.8057,14.1148 C75.8057,11.9268 74.4267,9.9828 72.3647,9.2538 L72.3647,8.9518 C72.3647,8.0078 71.5967,7.2388 70.6517,7.2388 C69.7067,7.2388 68.9387,8.0078 68.9387,8.9518 L68.9387,9.2538 C66.8767,9.9828 65.4977,11.9268 65.4977,14.1148 C65.4977,16.9568 67.8097,19.2688 70.6517,19.2688 L70.6517,19.2688 Z M29.3477,12.3858 C30.3017,12.3858 31.0767,13.1618 31.0767,14.1148 C31.0767,15.0688 30.3017,15.8448 29.3477,15.8448 C28.3947,15.8448 27.6187,15.0688 27.6187,14.1148 C27.6187,13.1618 28.3947,12.3858 29.3477,12.3858 L29.3477,12.3858 Z M29.3477,19.2688 C32.1907,19.2688 34.5037,16.9568 34.5037,14.1148 C34.5037,11.9268 33.1227,9.9828 31.0617,9.2538 L31.0617,8.9518 C31.0617,8.0078 30.2927,7.2388 29.3477,7.2388 C28.4037,7.2388 27.6357,8.0078 27.6357,8.9518 L27.6357,9.2538 C25.5737,9.9828 24.1927,11.9268 24.1927,14.1148 C24.1927,16.9568 26.5057,19.2688 29.3477,19.2688 L29.3477,19.2688 Z M84.4197,12.3858 C85.3727,12.3858 86.1497,13.1618 86.1497,14.1148 C86.1497,15.0688 85.3727,15.8448 84.4197,15.8448 C83.4667,15.8448 82.6907,15.0688 82.6907,14.1148 C82.6907,13.1618 83.4667,12.3858 84.4197,12.3858 L84.4197,12.3858 Z M84.4197,19.2688 C87.2617,19.2688 89.5747,16.9568 89.5747,14.1148 C89.5747,11.9268 88.1947,9.9828 86.1317,9.2538 L86.1317,8.9518 C86.1317,8.0078 85.3647,7.2388 84.4197,7.2388 C83.4757,7.2388 82.7067,8.0078 82.7067,8.9518 L82.7067,9.2538 C80.6447,9.9828 79.2647,11.9268 79.2647,14.1148 C79.2647,16.9568 81.5767,19.2688 84.4197,19.2688 L84.4197,19.2688 Z"
              id="icno_stove" fill="#3A4B60"></path>
    </g>
</svg>