<?xml version="1.0" encoding="UTF-8"?>
<svg width="100px" height="100px" viewBox="0 0 100 100" version="1.1" xmlns="http://www.w3.org/2000/svg">
    <title>icon / furniture / tires</title>
    <g id="icon-/-furniture-/-tires" stroke="none" stroke-width="1" fill="none" fill-rule="evenodd">
        <path d="M97.0857,29.5916 L95.7027,29.5916 L68.2597,29.5916 L66.2097,29.5916 L59.0427,29.5916 C52.7677,23.6476 44.3057,19.9896 34.9997,19.9896 C34.4037,19.9896 33.8127,20.0056 33.2237,20.0346 L33.2237,18.9926 L34.6427,18.9926 L66.2387,18.9926 L70.6597,18.9926 L95.6667,18.9926 L97.0857,18.9926 L97.0857,29.5916 Z M97.0687,81.0066 L95.7897,81.0066 L90.3587,81.0066 L58.3927,81.0066 C61.6897,78.0386 64.4177,74.4526 66.4007,70.4356 L66.8187,70.4356 L95.6607,70.4356 L97.0687,70.4356 L97.0687,81.0066 Z M94.2677,87.0586 C93.6497,87.1986 92.9967,87.2186 92.3587,87.2196 C88.0917,87.2236 78.3407,87.2256 68.2997,87.2266 C62.1437,87.2256 54.3167,87.2246 48.6567,87.2246 C50.8567,86.2876 52.9387,85.1286 54.8807,83.7816 L67.3987,83.7816 L69.0697,83.7816 L95.6307,83.7816 L96.9537,83.7816 C96.9487,85.3666 95.8487,86.6996 94.2677,87.0586 L94.2677,87.0586 Z M93.1057,35.7486 C91.6897,35.7536 88.1257,35.7556 83.6067,35.7566 C79.4207,35.7566 72.8397,35.7576 66.9867,35.7576 L64.2197,35.7576 C63.4297,34.5596 62.5657,33.4156 61.6387,32.3256 L67.1547,32.3256 C78.3557,32.3266 91.7987,32.3256 95.6937,32.3256 L96.9217,32.3256 C97.0407,34.2126 95.3237,35.7416 93.1057,35.7486 L93.1057,35.7486 Z M95.7077,41.9436 C92.7777,41.9436 78.9997,41.9426 67.5437,41.9426 L67.4667,41.9426 C66.9897,40.7616 66.4557,39.6106 65.8577,38.4956 L67.0007,38.4956 C74.7167,38.4976 83.9477,38.4966 88.9147,38.4876 C89.5327,38.4876 90.0227,38.4876 90.3587,38.4876 L90.3587,38.4856 C91.5167,38.4826 92.4157,38.4786 92.9477,38.4746 C94.7647,38.4596 96.9877,39.7866 96.9987,41.9436 L95.7077,41.9436 Z M95.7867,55.2806 L69.9927,55.2806 C69.9937,55.1856 69.9997,55.0916 69.9997,54.9946 C69.9997,51.4236 69.4597,47.9766 68.4607,44.7276 C79.7737,44.7286 92.9247,44.7276 95.6477,44.7276 L97.0637,44.7276 L97.0637,55.2806 L95.7867,55.2806 Z M68.7497,64.2486 C76.4817,64.2496 84.3737,64.2506 88.0187,64.2516 C90.5367,64.2526 92.3897,64.2556 93.1727,64.2596 C95.2507,64.2706 96.7537,65.5676 97.0347,67.6756 L95.7317,67.6756 L67.6127,67.6756 C68.0487,66.5596 68.4287,65.4166 68.7497,64.2486 L68.7497,64.2486 Z M69.8567,58.0706 L95.7217,58.0706 L96.9419755,58.0706 C96.9667,60.0266 95.2877,61.4956 93.0427,61.5106 C92.3877,61.5146 90.8667,61.5176 88.7857,61.5196 C85.4897,61.5206 77.4197,61.5236 69.3807,61.5236 C69.5947,60.3906 69.7547,59.2376 69.8567,58.0706 L69.8567,58.0706 Z M34.9997,86.9686 L34.9997,86.9686 C17.3727,86.9676 3.0317,72.6246 3.0317,54.9946 C3.0317,37.3646 17.3727,23.0226 34.9997,23.0216 C52.6277,23.0226 66.9687,37.3646 66.9687,54.9946 C66.9687,72.6246 52.6277,86.9676 34.9997,86.9686 L34.9997,86.9686 Z M36.1837,12.9126 C36.7317,12.8036 37.3077,12.7936 37.8697,12.7916 C39.2967,12.7886 48.4657,12.7876 58.7857,12.7876 L68.1167,12.7876 L79.2447,12.7876 C85.8447,12.7876 91.2377,12.7886 92.4387,12.7916 C93.0017,12.7936 93.5767,12.8036 94.1257,12.9126 C95.7497,13.2346 96.8867,14.5216 96.9887,16.2336 L95.6767,16.2336 L71.0087,16.2336 L64.5717,16.2336 L34.6337,16.2336 L33.3197,16.2336 C33.4227,14.5216 34.5597,13.2346 36.1837,12.9126 L36.1837,12.9126 Z M97.3847,37.1456 C99.6597,35.3106 100.0427,32.9056 99.9967,30.2726 C99.9187,25.8626 99.9817,21.4496 99.9737,17.0386 C99.9637,12.8776 97.1997,10.0536 93.0527,10.0186 C91.0147,10.0016 79.0027,9.9976 68.0337,10.0006 C54.3877,9.9976 39.2957,10.0016 37.2567,10.0186 C33.1087,10.0536 30.3447,12.8776 30.3367,17.0386 C30.3347,17.8506 30.3367,19.2146 30.3407,20.3096 C13.2367,22.5966 -0.0003,37.2746 -0.0003,54.9946 C-0.0003,74.2966 15.7007,89.9996 34.9997,89.9996 C35.5887,89.9996 36.1737,89.9846 36.7557,89.9556 L36.7537,89.9556 C37.0567,89.9816 37.3667,89.9976 37.6897,89.9976 C43.4817,89.9996 56.1787,89.9996 68.0377,89.9996 C77.2177,89.9996 86.8277,89.9996 92.6197,89.9976 C97.2777,89.9956 99.9737,87.2816 99.9757,82.6116 C99.9767,78.0486 99.9757,73.4876 99.9757,68.9246 C99.9747,66.1476 99.4817,64.9296 97.5057,62.9036 C97.6307,62.7486 97.7467,62.5706 97.8977,62.4256 C99.3397,61.0386 99.9777,59.3266 99.9767,57.3466 C99.9727,52.8986 99.9217,48.4476 99.9947,44.0006 C100.0387,41.3726 99.6817,38.9606 97.3847,37.1456 L97.3847,37.1456 Z M44.7307,55.8426 C44.4517,55.6816 44.2857,55.3786 44.2866955,55.0366 L44.2866955,54.9966 C44.2857,54.6496 44.4517,54.3456 44.7307,54.1856 L49.8007,51.2576 C50.1127,52.4826 50.2717,53.7396 50.2717,55.0146 C50.2717,56.2886 50.1127,57.5456 49.8007,58.7706 L44.7307,55.8426 Z M48.6607,64.1836 L42.1007,60.3956 C40.8807,59.6916 39.3727,59.6956 38.1627,60.4056 L38.0837,60.4526 C36.8707,61.1416 36.1177,62.4446 36.1177,63.8506 L36.1177,71.4116 C35.7487,71.4366 35.3797,71.4566 35.0047,71.4566 C34.6297,71.4566 34.2627,71.4226 33.8927,71.3986 L33.8927,63.8496 C33.8927,62.4436 33.1397,61.1416 31.9257,60.4516 L31.8457,60.4046 C30.6377,59.6956 29.1297,59.6916 27.9097,60.3956 L21.3517,64.1816 C20.9347,63.5646 20.5487,62.9286 20.2217,62.2646 L26.7957,58.4686 C28.0077,57.7696 28.7587,56.4496 28.7557,55.0286 L28.7557,55.0026 C28.7587,53.5786 28.0077,52.2586 26.7957,51.5596 L20.2327,47.7706 C20.5597,47.1056 20.9187,46.4556 21.3357,45.8366 L27.9087,49.6326 C29.1157,50.3296 30.6247,50.3406 31.8437,49.6226 L31.9267,49.5756 C33.1397,48.8866 33.8927,47.5846 33.8927,46.1776 L33.8927,38.6046 C34.2627,38.5796 34.6307,38.5506 35.0047,38.5506 L35.0087,38.5506 C35.3837,38.5506 35.7487,38.5886 36.1177,38.6126 L36.1177,46.1776 C36.1177,47.5846 36.8707,48.8866 38.0837,49.5756 L38.1647,49.6226 C39.3637,50.3276 40.8717,50.3416 42.1007,49.6326 L48.6697,45.8396 C49.0867,46.4576 49.4547,47.1036 49.7807,47.7686 L43.2147,51.5596 C42.0027,52.2586 41.2517,53.5776 41.2547,55.0046 L41.2547,55.0256 C41.2517,56.4496 42.0027,57.7696 43.2147,58.4696 L49.7837,62.2616 C49.4547,62.9316 49.0747,63.5696 48.6607,64.1836 L48.6607,64.1836 Z M39.1497,69.7056 L39.1497,63.8496 C39.1497,63.5316 39.3147,63.2396 39.5807,63.0886 C39.6217,63.0656 39.6627,63.0416 39.7027,63.0186 C39.8357,62.9406 39.9857,62.9016 40.1387,62.9016 C40.2917,62.9016 40.4457,62.9416 40.5847,63.0216 L45.6477,65.9446 C43.8207,67.7256 41.5907,69.0176 39.1497,69.7056 L39.1497,69.7056 Z M30.8597,69.7066 C28.4197,69.0176 26.1897,67.7266 24.3617,65.9456 L29.4257,63.0216 C29.7017,62.8626 30.0397,62.8616 30.3057,63.0176 C30.3467,63.0426 30.3877,63.0666 30.4287,63.0886 C30.6937,63.2396 30.8597,63.5316 30.8597,63.8506 L30.8597,69.7066 Z M19.7387,55.0136 C19.7387,53.7396 19.8977,52.4826 20.2097,51.2576 L25.2797,54.1856 C25.5587,54.3456 25.7247,54.6496 25.7237045,54.9996 L25.7237045,55.0306 C25.7247,55.3786 25.5587,55.6816 25.2797,55.8426 L20.2097,58.7706 C19.8977,57.5456 19.7387,56.2886 19.7387,55.0136 L19.7387,55.0136 Z M30.8597,40.3206 L30.8597,46.1776 C30.8597,46.4956 30.6947,46.7876 30.4287,46.9396 L30.3077,47.0096 C30.0397,47.1666 29.7017,47.1656 29.4257,47.0066 L24.3617,44.0836 C26.1897,42.3026 28.4197,41.0106 30.8597,40.3206 L30.8597,40.3206 Z M39.1497,40.3216 C41.5907,41.0106 43.8207,42.3026 45.6477,44.0836 L40.5847,47.0066 C40.3087,47.1656 39.9707,47.1666 39.7017,47.0086 L39.5817,46.9396 C39.3147,46.7876 39.1497,46.4956 39.1497,46.1776 L39.1497,40.3216 Z M48.9227,42.9716 C48.8657,42.9076 48.8097,42.8436 48.7527,42.7806 C45.7487,39.4446 41.5227,37.2206 37.0557,36.7206 C36.7977,36.6926 36.5397,36.6686 36.2817,36.6516 C31.7467,36.3416 27.1867,37.7296 23.6167,40.5496 C23.0477,40.9996 22.5047,41.4836 21.9907,41.9966 C18.5147,45.4736 16.6007,50.0956 16.6007,55.0116 C16.6007,59.9276 18.5147,64.5496 21.9907,68.0256 C22.0137,68.0486 22.0437,68.0566 22.0667,68.0756 C23.0337,68.8736 23.9037,69.7236 24.9617,70.4146 C26.0317,71.1136 27.1757,71.7006 28.3677,72.1626 C30.8387,73.1186 33.5227,73.5306 36.1657,73.3686 C41.1587,73.0636 45.8697,70.6886 49.0907,66.8646 C51.8717,63.5636 53.4097,59.3276 53.4097,55.0116 C53.4097,50.6186 51.8187,46.2806 48.9227,42.9716 L48.9227,42.9716 Z M35.0047,56.2096 C34.3457,56.2096 33.8097,55.6736 33.8097,55.0136 C33.8097,54.3556 34.3457,53.8186 35.0047,53.8186 C35.6647,53.8186 36.2007,54.3546 36.2007,55.0136 C36.2007,55.6736 35.6647,56.2096 35.0047,56.2096 L35.0047,56.2096 Z M35.0047,50.7856 C32.6747,50.7856 30.7767,52.6826 30.7767,55.0136 C30.7767,57.3456 32.6737,59.2416 35.0047,59.2416 C37.3367,59.2416 39.2327,57.3456 39.2327,55.0136 C39.2327,52.6826 37.3367,50.7856 35.0047,50.7856 L35.0047,50.7856 Z M38.2877,75.0786 L38.2857,75.0636 C37.2177,75.2376 36.1217,75.3276 35.0047,75.3276 C29.1347,75.3276 23.8377,72.8256 20.1237,68.8326 C20.0507,68.7536 19.9757,68.6876 19.8987,68.6236 C16.5207,64.8826 14.6717,60.0896 14.6717,55.0126 C14.6717,49.5816 16.7857,44.4746 20.6267,40.6346 C24.4677,36.7936 29.5737,34.6786 35.0047,34.6786 L35.0097,34.6786 C41.3117,34.6796 46.9527,37.5646 50.6837,42.0816 L50.6937,42.0756 C53.7007,45.7096 55.3387,50.2356 55.3387,55.0126 C55.3387,65.1326 47.9627,73.5116 38.2877,75.0786 L38.2877,75.0786 Z M52.1967,40.1396 C52.1277,40.0606 52.0587,39.9826 51.9877,39.9046 C48.2767,35.7826 43.0577,33.0356 37.5377,32.4186 C37.2197,32.3826 36.9007,32.3546 36.5827,32.3326 C30.9797,31.9496 25.3467,33.6646 20.9377,37.1486 C20.2337,37.7036 19.5637,38.3016 18.9287,38.9366 C14.6347,43.2306 12.2697,48.9396 12.2697,55.0126 C12.2697,61.0856 14.6347,66.7946 18.9287,71.0886 C18.9567,71.1166 18.9937,71.1266 19.0227,71.1526 C20.2177,72.1366 21.2917,73.1876 22.5987,74.0396 C23.9207,74.9046 25.3337,75.6286 26.8067,76.1986 C29.8577,77.3806 33.1737,77.8906 36.4397,77.6906 C42.6067,77.3116 48.4267,74.3786 52.4037,69.6556 C55.8407,65.5756 57.7407,60.3446 57.7407,55.0126 C57.7407,49.5876 55.7757,44.2286 52.1967,40.1396 L52.1967,40.1396 Z"
              id="icon_tires" fill="#3A4B60"></path>
    </g>
</svg>