<?xml version="1.0" encoding="UTF-8"?>
<svg width="100px" height="100px" viewBox="0 0 100 100" version="1.1" xmlns="http://www.w3.org/2000/svg">
    <title>icon / furniture / tricycle</title>
    <g id="icon-/-furniture-/-tricycle" stroke="none" stroke-width="1" fill="none" fill-rule="evenodd">
        <path d="M74.6657,94.57 C62.3117,94.57 52.2617,84.519 52.2617,72.166 C52.2617,64.679 56.0167,57.709 62.1727,53.566 L63.7217,58.505 C59.5927,61.817 57.1577,66.846 57.1577,72.166 C57.1577,81.819 65.0117,89.674 74.6657,89.674 C84.3197,89.674 92.1737,81.819 92.1737,72.166 C92.1737,62.933 84.9457,55.315 75.8527,54.701 L74.3057,49.763 C74.4257,49.761 74.5457,49.76 74.6657,49.76 C87.0197,49.76 97.0697,59.812 97.0697,72.166 C97.0697,84.519 87.0197,94.57 74.6657,94.57 L74.6657,94.57 Z M80.3217,68.954 L76.8077,57.747 C83.8277,58.789 89.2437,64.873 89.2437,72.166 C89.2437,80.204 82.7037,86.744 74.6657,86.744 C66.6277,86.744 60.0877,80.204 60.0877,72.166 C60.0877,68.129 61.7727,64.291 64.6767,61.553 L68.5997,74.068 C69.4377,76.733 71.8747,78.523 74.6647,78.523 C77.1207,78.523 79.3997,77.058 80.4317,74.833 C81.3527,72.845 80.9427,70.938 80.3217,68.954 L80.3217,68.954 Z M59.6257,41.027 C56.6667,42.289 52.0757,44.48 47.0097,47.76 C41.4367,51.367 36.2557,55.634 31.7367,60.503 C29.6607,62.741 27.7977,65.156 25.9677,67.596 C25.9997,67.549 24.1437,66.478 23.9707,66.389 C22.5877,65.678 21.0927,65.156 19.5197,64.859 C21.0357,62.648 22.6797,60.498 24.4227,58.445 C24.8367,57.958 24.8867,57.257 24.5447,56.715 C20.5747,50.428 19.1627,45.462 18.6757,42.424 L25.6447,42.424 C26.3307,45.523 27.8457,48.673 29.0697,50.881 C29.5237,51.7 30.6547,51.882 31.3437,51.248 C35.0767,47.807 39.1937,44.634 43.5797,41.819 C46.9127,39.677 50.3807,37.766 53.9567,36.065 C54.2437,35.928 54.5317,35.794 54.8197,35.659 C57.3307,34.507 59.3577,33.719 60.6387,33.259 C60.9397,33.15 61.1957,32.947 61.3707,32.678 C61.3707,32.678 68.9147,21.093 68.9187,21.089 C69.7827,19.758 69.3097,17.912 67.9147,17.162 C65.6237,15.934 62.1747,14.759 58.3007,13.877 L59.5717,6.751 C64.9207,7.715 70.0447,9.786 74.2957,13.224 C77.2507,15.614 77.9137,19.822 75.8397,23.014 L67.4467,35.904 C67.2087,36.27 67.1457,36.724 67.2777,37.141 L77.9367,71.139 C78.3757,72.546 77.8287,74.143 76.6157,74.983 C74.7727,76.261 72.0657,75.338 71.3947,73.19 C71.3947,73.19 61.6087,41.974 61.5977,41.937 C61.3417,41.12 60.4117,40.692 59.6257,41.027 L59.6257,41.027 Z M29.9987,81.035 C29.9987,88.499 23.9277,94.57 16.4647,94.57 C9.0007,94.57 2.9297,88.499 2.9297,81.035 C2.9297,73.572 9.0007,67.501 16.4647,67.501 C23.8337,67.501 29.9987,73.679 29.9987,81.035 L29.9987,81.035 Z M10.7867,39.494 C9.8847,39.494 9.2187,39.269 8.8077,38.824 C8.3407,38.319 8.2427,37.586 8.2427,37.059 C8.2427,35.635 8.9377,33.954 10.0557,32.672 C10.7797,31.84 12.3417,30.445 14.6457,30.445 C15.9787,30.445 17.3757,30.909 18.7997,31.822 C18.8087,31.828 18.8157,31.834 18.8247,31.838 C20.4297,32.823 22.5787,33 24.8547,33.186 C29.7427,33.588 32.7757,34.134 33.6667,38.339 C33.7927,38.936 33.3107,39.494 32.7077,39.494 L10.7867,39.494 Z M55.4297,13.292 C51.7487,12.63 47.9647,12.282 44.3977,12.282 C43.4697,12.282 42.6007,11.917 41.9507,11.254 C41.3017,10.59 40.9537,9.713 40.9737,8.784 C41.0117,6.934 42.5977,5.429 44.5187,5.429 C48.2417,5.436 52.7677,5.763 56.6777,6.297 L55.4297,13.292 Z M74.6657,46.831 C74.2457,46.831 73.8207,46.842 73.3947,46.864 L70.2787,36.924 L78.2957,24.611 C81.1907,20.157 80.2637,14.283 76.1387,10.947 C71.0667,6.845 64.9937,4.62 58.6117,3.619 C54.2657,2.936 48.8677,2.507 44.5107,2.5 C41.0147,2.5 38.1147,5.292 38.0447,8.723 C37.9727,12.237 40.8847,15.212 44.3977,15.212 C48.2487,15.212 52.3697,15.638 56.3177,16.446 C60.3217,17.263 64.0537,18.457 66.3567,19.653 C66.3567,19.653 59.1827,30.671 59.1817,30.672 C58.2227,31.033 57.8837,31.166 57.5797,31.287 C56.7927,31.6 56.0127,31.929 55.2337,32.264 C53.6447,32.949 52.0727,33.672 50.5247,34.447 C43.4137,38.011 36.7307,42.559 30.7687,47.821 C29.9577,46.199 29.1447,44.299 28.6567,42.424 L32.7067,42.424 C35.1387,42.424 37.0377,40.118 36.5317,37.731 C35.1247,31.09 29.3277,30.614 25.0937,30.266 C23.1837,30.11 21.3787,29.961 20.3677,29.347 C18.4687,28.132 16.5437,27.515 14.6457,27.515 C9.3047,27.515 5.3127,32.554 5.3117,37.059 C5.3117,40.263 7.6447,42.424 10.7857,42.424 L15.7117,42.424 C16.4857,48.046 19.1397,53.466 21.5037,57.367 C19.5957,59.675 17.8117,62.094 16.1827,64.578 C7.2337,64.729 -0.0003,72.051 -0.0003,81.035 C-0.0003,90.113 7.3867,97.5 16.4647,97.5 C25.5427,97.5 32.9287,90.113 32.9287,81.035 C32.9287,76.549 31.1237,72.479 28.2037,69.507 C28.0707,69.372 30.8927,65.967 31.1597,65.641 C32.1817,64.399 33.2527,63.203 34.3627,62.039 C36.5167,59.78 38.7997,57.643 41.1997,55.648 C43.5167,53.723 45.9807,51.716 48.6017,50.219 C52.7127,47.558 56.4947,45.641 59.2907,44.375 L61.2647,50.668 C53.8757,55.282 49.3317,63.41 49.3317,72.165 C49.3317,86.133 60.6957,97.499 74.6657,97.499 C88.6357,97.499 99.9997,86.133 99.9997,72.165 C99.9997,58.196 88.6357,46.831 74.6657,46.831 L74.6657,46.831 Z M16.4647,87.463 C12.9197,87.463 10.0367,84.579 10.0367,81.035 C10.0367,77.491 12.9197,74.607 16.4647,74.607 C20.0087,74.607 22.8917,77.491 22.8917,81.035 C22.8917,84.579 20.0087,87.463 16.4647,87.463 L16.4647,87.463 Z M16.4647,71.677 C11.3047,71.677 7.1067,75.876 7.1067,81.035 C7.1067,86.194 11.3047,90.392 16.4647,90.392 C21.6237,90.392 25.8207,86.194 25.8207,81.035 C25.8207,75.876 21.6237,71.677 16.4647,71.677 L16.4647,71.677 Z"
              id="icon_tricycle" fill="#3A4B60"></path>
    </g>
</svg>