<?xml version="1.0" encoding="UTF-8"?>
<svg width="100px" height="100px" viewBox="0 0 100 100" version="1.1" xmlns="http://www.w3.org/2000/svg">
    <title>icon / furniture / umbrella-stand</title>
    <g id="icon-/-furniture-/-umbrella-stand" stroke="none" stroke-width="1" fill="none" fill-rule="evenodd">
        <path d="M35.7285,20.5122 L35.7285,19.4802 C35.7285,18.6682 35.0695,18.0092 34.2565,18.0092 L32.5655,18.0092 L32.5655,3.5732 L57.4165,12.6182 L35.7285,20.5122 Z M29.6225,21.4212 C29.6225,21.2852 29.7315,21.1762 29.8675,21.1752 L32.3185,21.1742 C32.4545,21.1742 32.5635,21.2832 32.5635,21.4192 L32.5635,28.0182 C32.5635,28.1532 32.4545,28.2632 32.3195,28.2632 L29.8675,28.2642068 C29.7315,28.2652 29.6225,28.1552 29.6225,28.0192 L29.6225,21.4212 Z M56.4985,96.8352 L14.1435,96.8352 L15.7255,93.6702 L54.9165,93.6702 L56.4985,96.8352 Z M88.5285,1.3912 C88.3705,1.3912 88.2215,1.4222 88.0795,1.4682 C88.0575,1.4742 88.0455,1.4702 88.0235,1.4782 L61.7185,11.0522 L31.5985,0.0892 C31.5675,0.0782 31.5485,0.0782 31.5215,0.0712 C31.3855,0.0292 31.2435,0.0002 31.0935,0.0002 C30.2815,0.0002 29.6225,0.6582 29.6225,1.4712 L29.6225,18.0102 L29.6235,18.0102 L27.9285,18.0102 C27.1165,18.0112 26.4575,18.6692 26.4575,19.4822 L26.4575,29.9582 C26.4575,30.7712 27.1165,31.4292 27.9285,31.4292 L29.6245,31.4292 L29.6225,31.4302 L29.6225,90.5052 L14.7495,90.5052 C14.1495,90.5052 13.6015,90.8442 13.3325,91.3792 L10.1675,97.7092 C9.7765,98.4912 10.0925,99.4412 10.8745,99.8322 C11.0945,99.9432 11.3375,100.0002 11.5835,100.0002 L59.0575,100.0002 C59.9315,100.0002 60.6405,99.2922 60.6415,98.4182 C60.6415,98.1722 60.5845,97.9292 60.4735,97.7092 L57.3095,91.3792 C57.0405,90.8442 56.4925,90.5052 55.8935,90.5052 L32.5655,90.5052 L32.5655,31.4292 L34.2565,31.4282 C35.0695,31.4282 35.7285,30.7692 35.7285,29.9562 L35.7285,23.6442 L87.0565,4.9622 L87.0565,7.7682 C87.0565,8.5812 87.7155,9.2402 88.5285,9.2402 C89.3405,9.2402 89.9995,8.5812 89.9995,7.7682 L89.9995,2.8632 C89.9995,2.0502 89.3405,1.3912 88.5285,1.3912 L88.5285,1.3912 Z"
              id="ion_umbrella-stand" fill="#3A4B60"></path>
    </g>
</svg>