<?xml version="1.0" encoding="UTF-8"?>
<svg width="100px" height="100px" viewBox="0 0 100 100" version="1.1" xmlns="http://www.w3.org/2000/svg">
    <title>icon / furniture / washer</title>
    <g id="icon-/-furniture-/-washer" stroke="none" stroke-width="1" fill="none" fill-rule="evenodd">
        <path d="M79.688,0 C83.995,0 87.5,3.504 87.5,7.812 L87.5,7.812 L87.5,92.188 C87.5,96.496 83.995,100 79.688,100 L79.688,100 L20.312,100 C16.005,100 12.5,96.496 12.5,92.188 L12.5,92.188 L12.5,7.812 C12.5,3.504 16.005,0 20.312,0 L20.312,0 Z M84.375,25 L15.625,25 L15.625,92.188 C15.625,94.772 17.728,96.875 20.312,96.875 L20.312,96.875 L79.688,96.875 C82.272,96.875 84.375,94.772 84.375,92.188 L84.375,92.188 L84.375,25 Z M79.6875,90.625 C80.5505,90.625 81.2505,91.325 81.2505,92.188 C81.2505,93.05 80.5505,93.75 79.6875,93.75 L79.6875,93.75 L20.3125,93.75 C19.4495,93.75 18.7505,93.05 18.7505,92.188 C18.7505,91.325 19.4495,90.625 20.3125,90.625 L20.3125,90.625 Z M50.0003,31.2498 C63.7853,31.2498 75.0003,42.4648 75.0003,56.2498 C75.0003,70.0348 63.7853,81.2498 50.0003,81.2498 C36.2153,81.2498 25.0003,70.0348 25.0003,56.2498 C25.0003,42.4648 36.2153,31.2498 50.0003,31.2498 Z M48.5123,63.5188 C46.7823,58.1208 40.6483,55.0578 34.8373,56.6888 C32.3343,57.3918 30.1823,58.9028 28.7783,60.9448 C28.7453,60.9928 28.7053,61.0318 28.6683,61.0748 C30.8723,70.8218 39.5963,78.1248 50.0003,78.1248 C55.4733,78.1248 60.4793,76.0998 64.3203,72.7658 C63.5463,72.8878 62.7723,72.9558 62.0053,72.9558 C55.9573,72.9558 50.3463,69.2448 48.5123,63.5188 Z M50.0003,34.3748 C37.9383,34.3748 28.1253,44.1878 28.1253,56.2498 C28.1253,56.4808 28.1353,56.7078 28.1423,56.9368 C29.7703,55.4278 31.7763,54.3028 33.9923,53.6808 C41.4033,51.5998 49.2513,55.5848 51.4873,62.5658 C53.2173,67.9628 59.3523,71.0268 65.1633,69.3948 C66.3673,69.0568 67.4863,68.5378 68.4883,67.8528 L68.4883,67.8528 L68.5543,67.8168 C70.6553,64.4588 71.8753,60.4948 71.8753,56.2498 C71.8753,44.1878 62.0623,34.3748 50.0003,34.3748 Z M50,37.5 C60.339,37.5 68.75,45.911 68.75,56.25 C68.75,57.113 68.05,57.812 67.187,57.812 C66.325,57.812 65.625,57.113 65.625,56.25 C65.625,47.634 58.616,40.625 50,40.625 C49.137,40.625 48.438,39.925 48.438,39.063 C48.438,38.2 49.137,37.5 50,37.5 Z M79.688,3.125 L20.312,3.125 C17.728,3.125 15.625,5.228 15.625,7.812 L15.625,7.812 L15.625,21.875 L84.375,21.875 L84.375,7.812 C84.375,5.228 82.272,3.125 79.688,3.125 L79.688,3.125 Z M40.625,6.25 C41.488,6.25 42.187,6.95 42.187,7.812 L42.187,7.812 L42.187,17.187 C42.187,18.05 41.488,18.75 40.625,18.75 L40.625,18.75 L20.312,18.75 C19.45,18.75 18.75,18.05 18.75,17.187 L18.75,17.187 L18.75,7.812 C18.75,6.95 19.45,6.25 20.312,6.25 L20.312,6.25 Z M62.5,6.25 C65.946,6.25 68.75,9.054 68.75,12.5 C68.75,15.946 65.946,18.75 62.5,18.75 C59.054,18.75 56.25,15.946 56.25,12.5 C56.25,9.054 59.054,6.25 62.5,6.25 Z M39.062,9.375 L21.875,9.375 L21.875,15.625 L39.062,15.625 L39.062,9.375 Z M62.5,9.375 C60.777,9.375 59.375,10.777 59.375,12.5 C59.375,14.223 60.777,15.625 62.5,15.625 C64.223,15.625 65.625,14.223 65.625,12.5 C65.625,10.777 64.223,9.375 62.5,9.375 Z M73.4375,10.9375 C74.3005,10.9375 74.9995,11.6375 74.9995,12.4995 C74.9995,13.3625 74.3005,14.0625 73.4375,14.0625 C72.5745,14.0625 71.8755,13.3625 71.8755,12.4995 C71.8755,11.6375 72.5745,10.9375 73.4375,10.9375 Z M79.6875,10.9375 C80.5505,10.9375 81.2495,11.6375 81.2495,12.4995 C81.2495,13.3625 80.5505,14.0625 79.6875,14.0625 C78.8245,14.0625 78.1255,13.3625 78.1255,12.4995 C78.1255,11.6375 78.8245,10.9375 79.6875,10.9375 Z"
              id="icon_washer" fill="#3A4B60"></path>
    </g>
</svg>