<?xml version="1.0" encoding="UTF-8"?>
<svg width="100px" height="100px" viewBox="0 0 100 100" version="1.1" xmlns="http://www.w3.org/2000/svg">
    <title>icon / furniture / weight-machine</title>
    <g id="icon-/-furniture-/-weight-machine" stroke="none" stroke-width="1" fill="none" fill-rule="evenodd">
        <path d="M86.3062,43.6727 C85.7862,43.9897 85.1792,44.0147 84.6372,43.7377 L69.5572,36.0607 C67.1152,34.8177 64.3762,34.1597 61.6362,34.1597 L38.3632,34.1597 C35.6232,34.1597 32.8842,34.8177 30.4432,36.0607 L15.3622,43.7377 C14.8202,44.0147 14.2112,43.9897 13.6942,43.6727 C13.1752,43.3557 12.8772,42.8237 12.8772,42.2157 C12.8772,41.5687 13.2522,40.9667 13.8332,40.6817 L31.8152,31.8547 C33.8032,30.8777 36.0252,30.3617 38.2402,30.3617 L61.7592,30.3617 C63.9742,30.3617 66.1962,30.8777 68.1842,31.8547 L86.1652,40.6817 C86.7462,40.9667 87.1212,41.5687 87.1212,42.2157 C87.1212,42.8237 86.8242,43.3547 86.3062,43.6727 L86.3062,43.6727 Z M79.6882,89.2577 L75.0842,89.2577 L75.0842,42.1037 L79.6882,44.4477 L79.6882,89.2577 Z M48.5612,66.9467 L39.8952,66.9467 C37.2392,66.9467 35.0772,69.1087 35.0772,71.7647 C35.0772,73.0717 35.6022,74.2587 36.4502,75.1277 C35.6022,75.9967 35.0772,77.1837 35.0772,78.4897 C35.0772,81.1477 37.2392,83.3077 39.8952,83.3077 L60.1032,83.3077 C62.7592,83.3077 64.9202,81.1467 64.9202,78.4897 C64.9202,77.1837 64.3972,75.9967 63.5482,75.1277 C64.3972,74.2587 64.9202,73.0717 64.9202,71.7647 C64.9202,69.1087 62.7592,66.9467 60.1032,66.9467 L51.4382,66.9467 L51.4382,37.0377 L61.6352,37.0377 C63.9232,37.0377 66.2102,37.5867 68.2502,38.6247 L72.2042,40.6387 L72.2052,89.2577 L27.7932,89.2577 L27.7932,40.6387 L31.7482,38.6247 C33.7872,37.5867 36.0762,37.0377 38.3632,37.0377 L48.5612,37.0377 L48.5612,66.9467 Z M60.3882,73.6817 C60.2942,73.6757 60.2002,73.6727 60.1042,73.6727 L39.8962,73.6727 C39.8002,73.6727 39.7052,73.6757 39.6112,73.6817 C38.6762,73.5427 37.9552,72.7367 37.9552,71.7647 C37.9552,70.6947 38.8262,69.8247 39.8962,69.8247 L60.1042,69.8247 C61.1732,69.8247 62.0432,70.6947 62.0432,71.7647 C62.0432,72.7367 61.3242,73.5427 60.3882,73.6817 L60.3882,73.6817 Z M39.8952,80.4307 C38.8262,80.4307 37.9552,79.5607 37.9552,78.4897 C37.9552,77.5177 38.6752,76.7127 39.6112,76.5737 C39.7042,76.5787 39.7992,76.5827 39.8952,76.5827 L60.1032,76.5827 C60.1992,76.5827 60.2932,76.5787 60.3882,76.5737 C61.3232,76.7117 62.0432,77.5177 62.0432,78.4897 C62.0432,79.5607 61.1722,80.4307 60.1032,80.4307 L39.8952,80.4307 Z M20.3122,89.2577 L20.3122,44.4477 L24.9152,42.1037 L24.9152,89.2577 L20.3122,89.2577 Z M82.6652,92.1357 L84.1402,97.1217 L15.8592,97.1217 L17.3332,92.1357 L18.8722,92.1357 L26.3552,92.1357 L73.6442,92.1357 L81.1262,92.1357 L82.6652,92.1357 Z M20.3122,2.8777 L24.9152,2.8777 L24.9152,32.0347 L20.3122,34.2957 L20.3122,2.8777 Z M40.2162,18.0347 L40.2162,18.8027 C40.2162,20.1247 41.2912,21.1997 42.6142,21.1997 L48.5612,21.1997 L48.5612,27.4847 L38.2402,27.4847 C35.5882,27.4847 32.9272,28.1027 30.5472,29.2707 L27.7932,30.6217 L27.7932,18.0347 L40.2162,18.0347 Z M27.7932,15.1577 L40.2162,15.1577 L40.2162,10.5537 L27.7932,10.5537 L27.7932,15.1577 Z M43.0932,18.3237 L56.9062,18.3237 L56.9062,7.3887 L43.0932,7.3887 L43.0932,18.3237 Z M59.7842,18.8027 L59.7842,18.0347 L72.2052,18.0347 L72.2052,30.6217 L69.4522,29.2707 C67.0722,28.1017 64.4112,27.4847 61.7592,27.4847 L51.4382,27.4847 L51.4382,21.1997 L57.3852,21.1997 C58.7072,21.1997 59.7842,20.1247 59.7842,18.8027 L59.7842,18.8027 Z M59.7842,15.1577 L72.2062,15.1577 L72.2062,10.5537 L59.7842,10.5537 L59.7842,15.1577 Z M75.0832,2.8777 L79.6872,2.8777 L79.6872,34.2947 L75.0832,32.0347 L75.0832,2.8777 Z M87.4342,38.0987 L82.5652,35.7077 L82.5652,2.3987 C82.5652,1.0757 81.4902,-0.0003 80.1662,-0.0003 L74.6042,-0.0003 C73.2822,-0.0003 72.2052,1.0757 72.2052,2.3987 L72.2052,7.6757 L59.7842,7.6757 L59.7842,6.9077 C59.7842,5.5857 58.7072,4.5107 57.3852,4.5107 L42.6142,4.5107 C41.2912,4.5107 40.2162,5.5857 40.2162,6.9077 L40.2162,7.6757 L27.7932,7.6757 L27.7932,2.3987 C27.7932,1.0757 26.7182,-0.0003 25.3952,-0.0003 L19.8322,-0.0003 C18.5102,-0.0003 17.4342,1.0757 17.4342,2.3987 L17.4342,35.7077 L12.5652,38.0987 C11.0072,38.8627 9.9992,40.4797 9.9992,42.2157 C9.9992,43.8227 10.8192,45.2857 12.1902,46.1257 C13.5602,46.9667 15.2352,47.0317 16.6672,46.3027 L17.4342,45.9127 L17.4342,89.2577 L16.9762,89.2577 C15.9212,89.2577 14.9752,89.9637 14.6762,90.9757 L12.9172,96.9217 C12.7022,97.6537 12.8392,98.4257 13.2962,99.0367 C13.7532,99.6497 14.4532,99.9997 15.2172,99.9997 L84.7832,99.9997 C85.5462,99.9997 86.2462,99.6497 86.7032,99.0367 C87.1602,98.4257 87.2982,97.6537 87.0822,96.9217 L85.3242,90.9757 C85.0242,89.9637 84.0782,89.2577 83.0242,89.2577 L82.5662,89.2577 L82.5662,45.9127 L83.3312,46.3027 C83.9932,46.6397 84.7052,46.8067 85.4152,46.8067 C86.2452,46.8067 87.0722,46.5787 87.8102,46.1257 C89.1812,45.2847 89.9992,43.8227 89.9992,42.2157 C89.9992,40.4797 88.9922,38.8627 87.4342,38.0987 L87.4342,38.0987 Z"
              id="icon_weight-machine" fill="#3A4B60"></path>
    </g>
</svg>