<?xml version="1.0" encoding="UTF-8"?>
<svg width="100px" height="100px" viewBox="0 0 100 100" version="1.1" xmlns="http://www.w3.org/2000/svg">
    <title>icon / furniture / wheelchair</title>
    <g id="icon-/-furniture-/-wheelchair" stroke="none" stroke-width="1" fill="none" fill-rule="evenodd">
        <path d="M73.242,87.2913041 C73.233,88.0693041 72.569,88.7103041 71.775,88.7043041 C70.951,88.6993041 70.312,88.0333041 70.327,87.1943041 C70.34,86.4353041 71.041,85.7733041 71.814,85.7923041 C72.617,85.8123041 73.252,86.4783041 73.242,87.2913041 L73.242,87.2913041 Z M67.4039446,87.2483041 C67.417,89.6833041 69.389,91.6623041 71.795,91.6513498 C74.196,91.6423041 76.207,89.6173041 76.186,87.2313041 C76.165,84.8073041 74.18,82.8503041 71.76,82.8663041 C69.33,82.8833041 67.392,84.8323041 67.4039446,87.2483041 L67.4039446,87.2483041 Z M27.867,72.6133092 C26.236,72.6163041 24.942,71.2813041 24.9449948,69.6023041 C24.949,68.0523041 26.29,66.7503041 27.874,66.757276 C29.488,66.7653041 30.787,68.0793041 30.7840052,69.7033041 C30.781,71.2813041 29.448,72.6103041 27.867,72.6133092 L27.867,72.6133092 Z M27.919,63.8233041 C24.709,63.7993041 22.073,66.3543041 22.007,69.4373041 C21.934,72.8563041 24.524,75.5233041 27.813,75.5293145 C31.032,75.5353041 33.7,72.9433041 33.726,69.7883041 C33.753,66.5263041 31.131,63.8493041 27.919,63.8233041 L27.919,63.8233041 Z M27.852,88.7113828 C17.304,88.6803041 8.803,80.1333041 8.82894052,69.5843041 C8.855,59.1523041 17.444,50.6333041 27.899,50.6681967 C38.418,50.7043041 46.936,59.2763041 46.8981266,69.7883041 C46.86,80.1923041 38.256,88.7413041 27.852,88.7113828 L27.852,88.7113828 Z M27.861,47.7162992 C15.517,47.7593041 6.116,57.7553041 5.9,69.1293041 C5.66,81.7973041 15.819,91.6523041 27.835,91.6483053 C39.954,91.6453041 49.872,81.7283041 49.8211958,69.7003041 C49.769,57.5393041 39.95,47.7083041 27.861,47.7162992 L27.861,47.7162992 Z M97.055,85.7573041 L88.016,85.7573041 C87.828,84.8123041 87.638,83.8603041 87.443,82.8853041 L97.055,82.8853041 L97.055,85.7573041 Z M79.103,87.3393041 C79.074,91.3193041 75.739,94.5943041 71.745,94.5623041 C67.69,94.5293041 64.438,91.2353041 64.465,87.1893041 C64.492,83.1953041 67.811,79.9203041 71.804,79.9473041 C75.88,79.9773041 79.135,83.2713041 79.103,87.3393041 L79.103,87.3393041 Z M55.647,68.2293041 C55.467,65.3643041 54.845,62.4403041 53.797,59.4633041 L70.303,59.4633041 L70.303,68.2283041 C70.303,68.2283041 58.988,68.2263041 55.647,68.2293041 L55.647,68.2293041 Z M52.147,56.1573041 C48.992,50.5483041 44.42,46.5193041 38.515,43.9923041 C36.619,43.1823041 34.641,42.6283041 32.608,42.2883041 C32.33,42.2413041 32.243,42.1473041 32.2477981,41.8653041 C32.265,40.9123041 32.255,38.9423041 32.255,38.9423041 L70.304,38.9423041 L70.304,56.5143041 C70.304,56.5143041 58.475,56.5123041 52.786,56.5203128 C52.476,56.5213041 52.304,56.4363041 52.147,56.1573041 L52.147,56.1573041 Z M27.822,94.5673234 C14.344,94.5523041 2.707,83.5573041 2.979,69.1013041 C3.23,55.7313041 14.235,44.8183041 27.863,44.8053041 C41.573,44.8043041 52.734,55.9503041 52.760045,69.6693041 C52.786,83.3813041 41.549,94.5843041 27.822,94.5673234 L27.822,94.5673234 Z M26.412,5.67230413 C26.745,5.84530413 27.049,5.96930413 27.315,6.14730413 C28.664,7.05230413 29.324,8.33830413 29.331,9.94930413 C29.344,12.5273041 29.335,41.8803041 29.335,41.8803041 L26.412,41.8803041 L26.412,5.67230413 Z M32.276,24.2933041 C32.276,24.2933041 46.898,24.2873041 54.013,24.2973041 C55.967,24.2993041 57.405,25.1603041 58.239,26.9603041 C58.274,27.0353041 58.297,27.1163041 58.334,27.2203041 L32.276,27.2203041 L32.276,24.2933041 Z M65.738,30.1553041 C68.422,30.1553041 70.318,32.0563041 70.325,34.7453041 C70.326,35.1523041 70.325,36.0163041 70.325,36.0163041 L32.279,36.0163041 L32.279,30.1543041 C32.279,30.1543041 54.72,30.1543041 65.738,30.1553041 L65.738,30.1553041 Z M23.454,8.33630413 C23.454,8.33630413 10.798,8.35330413 4.64,8.35230413 C3.747,8.35230413 3.131,7.87630413 2.999,7.10530413 C2.862,6.30030413 3.486,5.49930413 4.305,5.43530413 C4.416,5.42630413 23.454,5.43130413 23.454,5.43130413 L23.454,8.33630413 Z M98.28,79.9383041 C94.598,79.9383041 90.918,79.9353041 87.236,79.9453041 C86.951,79.9463041 86.827,79.8753041 86.769,79.5833041 C85.977,75.5633041 83.704,63.7173041 83.174,61.8663041 C82.321,58.8953041 80.276,57.1033041 77.209,56.6273041 C76.08,56.4523041 73.25,56.5143041 73.25,56.5143041 C73.25,56.5143041 73.252,42.0053041 73.246,35.0153041 C73.246,34.5333041 73.215,34.0493041 73.158,33.5703041 C72.747,30.1103041 69.725,27.3413041 66.25,27.2583041 C64.739,27.2223041 63.226,27.2393041 61.714,27.2453041 C61.477,27.2463041 61.383,27.1783041 61.307,26.9393041 C61.134,26.3883041 60.964,25.8193041 60.687,25.3153041 C59.244,22.6943041 56.992,21.3893041 54.011,21.3833041 C46.922,21.3693041 32.255,21.3793041 32.255,21.3793041 C32.255,21.3793041 32.258,13.3483041 32.251,10.0383041 C32.251,9.61930413 32.23,9.19430413 32.167,8.78030413 C31.619,5.17830413 28.583,2.50830413 25.015,2.50430413 C18.222,2.49730413 11.43,2.49830413 4.638,2.51130413 C4.149,2.51230413 3.637,2.55730413 3.176,2.70730413 C1.37,3.29830413 0.266,4.55730413 0.079,6.44930413 C-0.103,8.28430413 0.667,9.72230413 2.268,10.6823041 C3.061,11.1573041 3.93,11.2843041 4.838,11.2833041 C10.874,11.2783041 23.459,11.2813041 23.459,11.2813041 L23.459,42.1973041 C15.532,43.6483041 9.217,47.5893041 4.741,54.2703041 C0.252,60.9733041 -1.041,68.3463041 0.827,76.1733041 C4.212,90.3603041 18.064,99.6943041 32.782,97.0533041 C39.927,95.7703041 45.79,92.1953041 50.086,86.3543041 C53.626,81.5403041 55.435,76.4513041 55.668,71.1413041 C59.102,71.1443041 70.3,71.1423041 70.3,71.1423041 L70.3,77.1173041 C68.752,77.3533041 67.354,77.9083041 66.063,78.7633041 C62.655,81.0193041 60.92,85.2413041 61.734,89.2553041 C62.935,95.1793041 69.01,98.8693041 74.89,97.0113041 C79.767,95.4703041 82.814,90.4353041 81.851,85.4143041 C81.042,81.1873041 77.899,78.0203041 73.677,77.1973041 C73.348,77.1343041 73.24,77.0313041 73.241,76.6833041 C73.254,71.0813041 73.25,59.4423041 73.25,59.4423041 C73.25,59.4423041 75.124,59.4373041 76.038,59.4423041 C78.342,59.4553041 80.063,60.9063041 80.513,63.1673041 C82.122,71.2513041 83.74,79.3323041 85.356,87.4143041 C85.524,88.2563041 86.052,88.7113041 86.913,88.7133041 C90.742,88.7213041 94.572,88.7243041 98.402,88.7123041 C99.429,88.7093041 99.998,88.0993041 99.999,87.0723041 C100.000155,85.2633041 100.000155,83.4533041 99.999,81.6443041 C99.999,80.4983041 99.434,79.9383041 98.28,79.9383041 L98.28,79.9383041 Z"
              id="icon_wheelchair" fill="#3A4B60"></path>
    </g>
</svg>