<?xml version="1.0" encoding="UTF-8"?>
<svg width="100px" height="100px" viewBox="0 0 100 100" version="1.1" xmlns="http://www.w3.org/2000/svg">
    <title>icon / furniture / work-table</title>
    <g id="icon-/-furniture-/-work-table" stroke="none" stroke-width="1" fill="none" fill-rule="evenodd">
        <path d="M20.7407,46.9694 L27.9557,21.7174 L72.0447,21.7174 L79.2597,46.9694 L20.7407,46.9694 Z M74.5577,19.8504 C74.3787,19.2214 73.8037,18.7874 73.1487,18.7874 L26.8507,18.7874 C26.1967,18.7874 25.6217,19.2214 25.4417,19.8504 L17.3897,48.0314 C17.2637,48.4744 17.3527,48.9494 17.6297,49.3164 C17.9067,49.6834 18.3397,49.8994 18.7997,49.8994 L81.2017,49.8994 C81.6607,49.8994 82.0947,49.6834 82.3707,49.3164 C82.6477,48.9494 82.7357,48.4744 82.6097,48.0314 L74.5577,19.8504 Z M30.1357,40.7064 L33.1407,30.1854 L53.3867,40.7064 L30.1357,40.7064 Z M60.0677,40.8714 L32.9427,26.7814 C32.7477,26.6794 32.5407,26.6304 32.3357,26.6204 C31.6537,26.5664 31.0057,26.9954 30.8097,27.6784 L26.7837,41.7694 C26.6577,42.2114 26.7467,42.6874 27.0227,43.0544 C27.3007,43.4204 27.7327,43.6364 28.1927,43.6364 L59.3937,43.6364 C60.0687,43.6364 60.6567,43.1754 60.8167,42.5194 C60.9767,41.8634 60.6677,41.1824 60.0677,40.8714 L60.0677,40.8714 Z M89.3197,49.8424 C89.1857,49.8814 89.0507,49.9004 88.9167,49.9004 C88.2797,49.9004 87.6927,49.4804 87.5097,48.8364 L83.0357,33.1804 C82.8127,32.4024 83.2637,31.5914 84.0417,31.3694 C84.8187,31.1474 85.6307,31.5974 85.8527,32.3754 L90.3257,48.0314 C90.5487,48.8104 90.0977,49.6204 89.3197,49.8424 L89.3197,49.8424 Z M2.9297,62.6254 L97.0707,62.6254 L97.0707,59.2924 L2.9297,59.2924 L2.9297,62.6254 Z M83.2837,97.2544 L87.8597,97.2544 L87.8597,65.5554 L83.2837,65.5554 L83.2837,97.2544 Z M19.4617,87.0704 L80.5387,87.0704 L80.5387,65.5554 L19.4617,65.5554 L19.4617,87.0704 Z M12.1397,97.2544 L16.7157,97.2544 L16.7157,65.5554 L12.1397,65.5554 L12.1397,97.2544 Z M15.0947,15.4544 L84.9047,15.4544 L96.5937,56.3634 L3.4067,56.3634 L15.0947,15.4544 Z M39.0407,2.9294 L48.4337,2.9294 C50.5687,2.9294 52.3837,4.3314 53.0037,6.2624 L34.4707,6.2624 C35.0927,4.3314 36.9057,2.9294 39.0407,2.9294 L39.0407,2.9294 Z M99.9977,57.8274 L99.9977,57.8284 C99.9977,57.6944 99.9807,57.5584 99.9437,57.4264 L87.4187,13.5874 C87.2387,12.9584 86.6647,12.5254 86.0107,12.5254 L13.9897,12.5254 C13.3367,12.5254 12.7617,12.9584 12.5817,13.5874 L11.9967,15.6364 C9.5517,15.4194 7.6267,13.3604 7.6267,10.8594 C7.6267,8.2134 9.7787,6.0614 12.4247,6.0614 L31.4967,6.0614 C31.3777,6.5984 31.3127,7.1564 31.3127,7.7274 C31.3127,8.5364 31.9697,9.1924 32.7777,9.1924 L54.6967,9.1924 C55.5067,9.1924 56.1617,8.5364 56.1617,7.7274 C56.1617,3.4664 52.6957,-0.0006 48.4337,-0.0006 L39.0407,-0.0006 C36.4997,-0.0006 34.2427,1.2334 32.8327,3.1314 L12.4247,3.1314 C8.1637,3.1314 4.6967,6.5984 4.6967,10.8594 C4.6967,14.6974 7.5107,17.8894 11.1817,18.4854 L0.0557,57.4254 C0.0177,57.5584 0.0027,57.6944 0.0027,57.8274 L0.0007,57.8274 L0.0007,64.0904 C0.0007,64.9004 0.6557,65.5554 1.4657,65.5554 L9.3937,65.5554 L9.3937,97.3814 C9.3937,98.8244 10.5687,99.9994 12.0127,99.9994 L16.8427,99.9994 C18.2867,99.9994 19.4617,98.8244 19.4617,97.3814 L19.4617,89.9994 L80.5387,89.9994 L80.5387,97.3814 C80.5387,98.8244 81.7137,99.9994 83.1577,99.9994 L87.9867,99.9994 C89.4307,99.9994 90.6057,98.8244 90.6057,97.3814 L90.6057,65.5554 L98.5357,65.5554 C99.3447,65.5554 100.0007,64.9004 100.0007,64.0904 L100.0007,57.8274 L99.9977,57.8274 Z M55.2237,27.9804 L66.1167,27.9804 L68.0187,34.6364 L55.2237,27.9804 Z M68.6307,26.1134 C68.4507,25.4844 67.8767,25.0504 67.2217,25.0504 L49.2177,25.0504 C48.5417,25.0504 47.9537,25.5124 47.7937,26.1684 C47.6347,26.8234 47.9437,27.5044 48.5427,27.8164 L69.6267,38.7754 C69.8677,38.9004 70.1567,38.9564 70.4277,38.9294 C70.6187,38.9084 70.8027,38.8824 70.9767,38.7994 C71.1177,38.7344 71.2457,38.6464 71.3577,38.5404 C71.5777,38.3334 71.7307,38.0584 71.7897,37.7614 C71.8357,37.5334 71.8257,37.2954 71.7617,37.0724 L68.6307,26.1134 Z"
              id="icon_work-table" fill="#3A4B60"></path>
    </g>
</svg>